<svg width="99" height="93" viewBox="0 0 99 93" fill="none" xmlns="http://www.w3.org/2000/svg">
<path d="M43.6664 6.39523L43.8064 6.13962L43.473 5.91513L43.6419 5.69286L43.982 5.70398L43.9753 5.19276L45.1044 5.55506L46.1624 5.48393L46.4781 5.58395L46.867 5.31723L47.1982 5.3239L47.3338 5.58173L47.2516 5.75954L47.3983 5.56839V5.19498L47.7205 5.0794L48.1317 5.15942L47.865 5.01939L47.8383 4.90603L47.8561 4.20144L47.9917 3.98806L47.5049 3.54352L47.2227 3.44795L46.5336 3.66133L46.2536 3.27013L46.0002 3.13455L45.7735 3.15455L46.0224 2.81226L46.2891 2.69001L46.5447 2.94118L46.727 3.37238L46.8959 3.24791L46.6825 2.72113L46.9959 2.77892L47.1515 2.69668L47.545 3.02564L47.9517 3.62132L48.0828 3.65021L48.4407 3.19456L48.5452 3.20345L49.1853 4.13254L49.6032 4.09253L49.7254 4.27034L50.0677 4.41482L50.3478 4.38148L50.6723 4.13476L50.9346 4.17921L50.7678 4.46816L51.0168 4.61041L51.2768 4.44371L51.6036 4.69265L51.6547 4.97494L52.0481 4.91715L52.4015 4.98827L53.0172 4.8149L53.2573 5.14831L53.7707 5.47949L54.1263 5.54839L54.3597 5.09941L54.9821 5.06607L55.1665 4.91715L54.9732 4.96827L54.9998 4.72377L55.3866 4.6682L55.6933 4.42371L55.6844 4.25256L55.7733 4.25478L55.8556 4.35036L55.371 4.81712L55.4733 4.93715L55.1866 5.29723L55.3466 5.51727L55.7044 5.20165L56.0401 5.10385L55.8356 5.36168L55.9178 5.48615L56.0956 5.40391L56.1379 5.47726L55.9445 5.75732L56.0801 5.98848L56.5646 5.94847L56.6935 5.84845L56.8625 5.41947L56.4135 5.24166L57.0736 4.71933L57.3426 4.67043L57.287 4.85491L57.6115 5.52838L57.8138 5.45948L57.6604 5.30167L57.856 5.25277L58.1005 5.37724L58.3472 5.71064L57.7849 6.1663L57.5404 6.55971L57.4848 6.85755L57.1803 6.74419L57.3026 7.42212L57.0914 7.90888L57.0692 7.83109L56.8736 7.89777L56.8469 7.42212L56.469 7.87777L56.2201 7.74441L55.8111 7.97334L55.7244 8.12226L55.8289 8.26674L55.6578 8.50012L55.6133 8.77795L55.8111 9.13581L56.049 8.98466L55.7378 10.1093L55.0732 10.8384L54.8732 11.3563L54.4731 11.5608L54.7242 12.1453L56.5002 13.2144L56.7602 13.7346L57.3603 14.0213L57.8271 14.4725L58.465 14.4992L59.283 15.0304L60.172 15.3393L60.4654 15.8061L60.8077 16.0973V40.4468L39.1054 40.4624L39.0898 11.9031L39.5366 12.1742L39.5499 12.6766L39.7078 12.481L39.6433 11.823L40.2034 12.0498L40.7213 12.7277L40.8547 12.6766L40.5991 12.2787L40.6502 11.823L41.0214 11.8875L41.3659 11.6497L40.9347 11.7853L40.7169 11.6452L40.5035 11.3029L40.7858 11.2385L40.9525 11.074L40.6813 11.1607L40.3923 11.1073L39.9545 10.7695L39.9834 10.5717L40.279 10.0982L40.8591 9.73371L41.0903 8.55346L41.2614 8.37565L41.3681 8.57791L41.6015 8.53568L42.1394 8.08003L41.7815 7.64216L41.8415 7.09538L41.9416 7.05093L42.046 7.1465L42.2927 7.01759L42.3572 6.47303L42.7306 6.30633L42.9529 6.55971L43.1663 6.54415L42.9618 6.48414L42.8929 6.22409L42.9751 5.87068L42.9018 5.81511L43.3619 5.87512L43.6664 6.39523ZM43.8175 4.67487L42.695 3.94805L42.3839 2.99674L42.4506 2.7767L42.8862 3.23235L43.204 3.33237L43.673 3.1301L43.9264 3.23902L44.282 3.01452L44.4554 3.35904L44.3821 3.0901L44.571 2.84115L44.9244 2.98341L45.1911 3.33459L45.2111 3.51907L44.5954 4.16588L43.8175 4.67487ZM58.1738 10.1894L58.3161 10.1205L58.2539 10.4316L58.1272 10.4805L56.8936 10.2783L57.0158 9.46477L57.0847 9.34696L57.487 9.22472L57.4181 9.06913L57.6204 8.9002L57.7249 8.90687L57.6137 9.08691L57.7026 9.34474L57.9316 9.38475L58.1094 9.13359L58.1983 9.27361L57.8338 9.60035L57.6915 10.1582L58.0827 10.2672L58.1738 10.1894ZM42.6928 4.42815L42.2927 4.27479L41.7348 4.41704L41.5615 4.33036L41.6771 4.02585L41.8793 4.09697L41.9682 4.01029L41.9215 3.56353L42.1194 3.21901L42.3327 3.17456L42.6884 4.06363L43.0396 4.27034L42.984 4.39259L42.6928 4.42815ZM57.1959 3.4924L57.8493 2.42773L57.7315 2.88116L57.3381 3.43239L57.1959 3.4924ZM47.7672 3.21901L47.5405 2.50108L47.725 2.42996L47.8406 2.81004L47.7672 3.21901ZM58.525 14.2858L58.2361 13.959L58.4183 13.6945L58.6184 14.1257L58.525 14.2858ZM56.4668 9.40031L56.3979 9.17582L56.3735 9.33585L56.2357 9.28917L56.2579 9.08246L56.469 8.91576L56.6802 9.07802L56.4668 9.40031ZM56.4224 4.06586V3.9525L56.6424 3.77691L56.8247 3.76802L57.1447 3.51907L56.8802 3.82581L56.4224 4.06586ZM57.247 13.8279L57.2336 13.5879L57.4404 13.5256L57.3981 13.799L57.247 13.8279Z" fill="#00212E" stroke="#00212E" stroke-width="0.5"/>
<path d="M3.476 40.4512L3.52045 40.0422L2.98034 39.4709L2.43133 38.2685L2.17572 38.1129L1.9579 37.495L1.96457 37.1371L1.42223 36.2814L1.4089 35.7591L1.76675 34.5144L1.93345 34.1809L2.27574 33.912L2.33576 33.6875L2.31575 33.0407L2.45578 32.614L2.42911 32.3606L2.06459 31.5048L2.73362 29.8756L2.967 29.5289L3.28707 29.4177L3.31818 29.48L3.08036 30.389L3.23595 30.718L3.16037 31.1981L3.26484 31.3048L3.79162 31.0825L4.46287 29.5222L5.16746 29.131L5.43196 29.111L6.39439 28.6887L6.79891 28.2108L7.25012 27.9663L7.53685 27.5351L8.10363 27.2706L8.31923 27.0217L8.86601 26.8594L9.42613 26.4571L9.83288 26.6327L10.293 26.386L10.9576 26.666L11.7844 26.526L12.1823 26.3526L12.9735 25.6881L13.1091 25.7525L14.4761 25.5258L14.9073 24.9012L15.1496 24.7167L15.4118 24.6923L16.3609 24.9768L16.8521 24.7234L18.1835 24.4856L19.8483 23.7565L20.4507 23.2542L20.9619 22.563L21.3264 21.7783L21.6598 21.3294L21.7154 20.9337L22.051 20.8515L23.0112 20.0513L23.069 19.7335L22.8067 19.6134L22.7089 19.4579L22.6822 18.9822L22.54 18.6132L22.6222 17.822L23.1157 17.2018L23.2801 17.0974L23.5869 17.0951L23.4646 16.8218L23.5669 16.6839L24.0159 16.615L24.0359 16.2105L24.3582 15.9638L24.4204 15.7437L24.5915 15.6815L24.756 15.846L24.5849 15.8971L24.5048 16.1749L24.8427 16.4995L25.9985 18.711L25.9696 18.1331L26.103 17.7286L25.994 17.3952L26.0385 17.2041L26.1919 17.1996L26.6742 17.7308L26.8187 17.7353L26.6164 17.5552L26.5297 17.2085L26.7587 16.9462L26.4564 16.9329L26.0741 16.395L26.0874 16.1216L25.8162 16.126L25.6318 15.9593L26.1519 16.0349L26.3163 15.786L26.3119 15.5615L25.9563 15.4326L25.9829 15.1414L26.3586 15.0592L26.5519 15.2103L26.3741 15.3614L26.7564 15.6593L26.932 15.3259L27.3566 15.4259L27.5744 15.7237L27.8233 15.7371L27.9478 15.5948L28.1678 15.7015L29.1747 15.7282L28.5035 15.5304L27.9856 15.5348L27.9256 15.2659L28.0567 14.968L28.1545 14.9458L28.2701 15.1214L28.4501 14.9969L28.5035 14.5079L28.7746 14.2345L28.5079 14.219L28.3123 14.5524L27.9878 14.3723L27.9189 13.8834L28.1256 13.4099L28.4257 13.5055L28.6057 13.4121L28.6235 12.8743L28.7257 12.8498L29.8749 13.5144L29.6215 13.2899L29.6726 12.9698L29.2258 13.0543L29.2881 12.7876H29.4503L29.5459 12.6231L29.1547 12.812L29.0169 12.6209L29.1992 12.472L29.3925 12.4986L29.6281 12.223L29.8371 12.6275L29.8304 12.3075L30.2172 12.6098L30.4905 12.552L29.8838 12.0941L30.0282 11.9785L29.7704 11.5962L30.2527 11.0405L30.8617 11.105L30.8395 10.5093L30.9329 10.2959L31.1996 10.4226L30.9907 11.3073L31.184 10.7471L31.4752 10.8961L31.4307 11.1628L31.6175 11.3384L31.942 11.0205L32.2042 10.067L32.0464 9.66247L31.8931 9.56468L32.3754 9.65136L32.3554 9.83807L32.2309 9.89141L32.3132 10.1626L32.5443 10.3226L32.6554 9.87141L33.0622 9.66025L32.9488 9.93809L33.3 10.3137L33.7557 9.67581L33.6512 9.24016L33.9224 9.13125L34.158 9.07568L34.3069 9.19571L34.5736 9.67803L34.6359 9.50244L35.2893 9.6358L35.5205 9.96254L35.8517 10.1848L36.574 11.1895L36.6785 11.1383L37.0875 11.4895L37.1319 11.7318L36.8452 12.4786L36.8541 13.2143L36.7274 13.4677L36.9119 13.3077L36.9964 12.7609L37.2986 12.9898L37.3698 13.2254L37.3809 12.9854L37.1408 12.3919L37.4164 12.0141L37.5298 12.3408L37.7587 12.3475L37.612 11.734L37.9699 11.6318L39.0901 11.9118L39.1035 40.4712L39.0901 56.0589L37.1164 57.0168L35.0693 57.6837L33.5067 57.8237L32.282 57.6036L32.0153 57.7348L31.7819 57.6837L30.6795 58.4794L30.166 58.6283L28.8258 59.4818L27.7055 59.733L27.281 60.1731L26.9187 61.38L26.4697 61.7712L26.3852 62.0157L25.9163 62.3802L25.5006 62.3491L25.0161 62.7069L24.8538 62.3246L24.6538 62.2402L24.2359 62.3824L23.0512 62.4002L22.8289 62.5536L22.8023 62.7003L22.4822 62.7336L22.3888 62.7025L22.3688 62.3424L22.1821 62.1446L21.6687 62.3602L20.8974 62.1224L19.4527 62.2357L18.6747 62.4113L18.3769 62.5758L17.3834 62.4447L16.921 62.5869L16.4454 62.9403L16.0875 63.6138L15.7452 63.9494L15.463 64.1161L14.7472 63.9672L14.3316 64.2495L14.3672 64.4162L14.2827 64.5118L13.6981 64.7562L13.2269 65.2875L12.7446 65.5453L12.1556 65.652L12.2023 65.7742L12.5357 65.8476L12.3868 65.9321L11.8866 65.7053L11.6599 65.7676L11.6044 65.9698L10.9353 65.6187L10.0107 65.6164L9.82844 65.7365L8.83267 65.5698L8.24588 65.1786L7.65909 65.043L7.27457 64.4251L6.50552 63.7716L5.89206 63.5227L5.60533 63.7116L5.33194 63.4204L5.19858 61.769L5.30305 61.2844L5.84316 61.6578L6.26991 61.5667L7.0323 60.5376L6.74779 58.8395L6.99007 58.4171L6.83892 58.7772L7.04786 59.124L7.15232 58.5594L7.01674 56.1322L5.42752 52.7337L5.36973 52.0914L5.16079 51.4979L5.25859 49.9154L5.04077 49.1396L4.91407 48.8396L4.39397 48.2217L4.3095 47.5704L4.11391 47.1748L3.27373 46.0923L3.12926 45.4411L3.24039 45.0499L3.19371 44.7676L2.74918 43.674L1.90233 42.3071L1.16662 41.5247L1.03104 41.0957L1.1844 40.5312L1.29554 41.2024L1.37111 40.7757L1.72896 41.218L1.80676 41.8181L2.04014 42.2115L2.38021 42.0759L2.55358 41.8181L2.56692 41.3602L1.81787 40.6601L1.67784 40.0822L1.43335 39.6865L1.62227 39.2353L2.17128 39.9133L2.26019 40.1644L2.13349 40.5534L2.21129 40.9868L2.41577 40.9112L2.60915 40.5378L2.80252 41.338L3.06924 41.6959L3.37153 41.458L3.43599 41.2424L3.31596 40.949L3.3982 40.4311L3.476 40.4512ZM0.979917 40.8357L0.368677 39.8733L0.259766 39.4554L0.373123 39.0842L0.493148 39.1131L0.455362 39.3042L0.986585 40.5623L0.979917 40.8357ZM28.2856 13.3277L28.1567 13.0276L28.3745 12.8676L28.5835 13.2166L28.2856 13.3277ZM6.19879 27.055L6.03875 27.0239L6.04098 26.8883L6.36771 26.506L6.41883 26.7772L6.19879 27.055ZM29.7726 11.3495L29.6459 11.2806L29.6615 11.0917L29.8304 10.8316L29.9415 10.9561L29.7726 11.3495Z" fill="#00212E" stroke="#00212E" stroke-width="0.5"/>
<path d="M87.4517 68.2859L87.1716 68.1436L86.7871 67.4902L86.7916 67.0812L86.9071 66.5122L87.5406 66.0454L88.3208 66.5322L87.8073 66.6855L87.6917 66.8456L87.5539 67.399L87.5895 68.097L87.4517 68.2859Z" fill="#00212E" stroke="#00212E" stroke-width="0.5"/>
<path d="M89.7075 73.0577L85.4288 70.9017L85.211 70.8839L85.4311 70.3327L85.0577 69.6814L84.9332 68.699L84.6709 68.5323L84.2664 68.3589L84.0597 68.4389L83.7196 68.3745L83.4951 68.4123L83.2706 68.6923L82.6483 68.8546L82.3237 68.8323L81.3191 68.4567L80.8301 68.6768L79.641 68.5034L78.9519 68.0166L78.5585 68.1722L78.2673 68.0855L77.6672 68.1633L77.5383 68.5234L77.5761 68.8257L77.056 68.9213L76.7581 68.7479L76.2514 68.1544L76.1269 67.8699L75.5023 67.2942L74.7199 66.7919L74.2998 66.6408L74.222 66.2651L73.8464 66.1051L73.7353 65.8606L73.6997 64.9693L73.1863 64.6893L72.5439 64.5514L72.3617 64.3714L72.1816 64.4781L71.9949 64.9604L71.7904 64.9204L71.5837 64.4203L71.3748 64.2269L71.3637 63.8091L71.028 63.2445L70.5568 62.9867L70.179 63.0645L69.8211 62.9711L69.3544 63.3001L68.6453 62.8933L68.2297 62.8622L68.043 62.7288L68.0541 48.5703H87.2381L88.4761 47.4701L88.7429 47.3967L89.054 47.5501L90.4699 47.3101L90.8878 47.6301L91.6546 47.5657L92.2636 47.8435L92.8793 48.3747L92.9082 48.7926L93.0593 49.0349L93.2949 48.8837L93.5128 48.4392L93.9284 48.2547L94.1662 48.4992L94.6285 48.2769L94.7063 47.8302L94.4885 47.3367L94.9931 47.0167L95.4732 46.8588L95.7577 46.5521L96.0222 46.7299L96.4178 46.8166L97.2669 46.7966L97.4514 46.5521L98.0382 46.3899L98.2182 46.2432L98.3916 46.401L98.4249 46.581L98.3471 47.1745L98.5027 47.6368L98.4582 48.188L98.0782 48.6859L97.8114 49.4683L97.8781 49.6617L97.6092 51.1931L97.0424 52.9068L97.0113 53.6514L97.178 53.9692L96.6312 55.9585L95.8177 57.301L95.8599 58.0745L94.8886 58.868L94.9308 59.1192L94.1284 59.457L93.555 60.5417L93.266 60.684L93.2416 60.8151L93.3438 60.9062L93.266 61.2152L92.9904 61.5842L92.8282 62.5688L92.4103 62.6977L92.6415 62.8222L92.0124 63.6201L91.7857 64.2803L91.8835 64.4003L91.7635 64.9471L91.559 65.216L91.8124 65.6383L91.7746 65.8339L91.7102 65.8895L91.6301 65.8028L91.6257 65.6072L91.4079 65.6961L91.4523 65.9451L91.0589 66.2385L90.1476 68.3478L90.0831 69.5014L89.9431 69.6836L89.5208 71.284L89.5319 71.7218L89.772 71.9997L89.8031 72.2086L89.8009 72.3086L89.6297 72.362L89.7075 73.0577ZM87.5537 67.3987L87.6915 66.8475L87.8071 66.6852L88.3206 66.5341L87.5426 66.0473L86.9091 66.5141L86.7936 67.0831L86.7891 67.4943L87.1736 68.1478L87.4737 68.2789L87.5915 68.1011L87.5537 67.3987Z" fill="#00212E" stroke="#00212E" stroke-width="0.5"/>
<path d="M56.718 63.2336L56.4779 63.6203L56.2823 63.707L56.0756 64.0604L55.8267 64.216L55.6778 64.5116L55.5066 65.0295L55.6733 65.0428L55.9956 64.8161L56.029 64.9695L55.9912 65.5452L55.8756 65.5941L55.4666 65.1606L55.3155 65.1829L55.2088 65.434L55.1221 65.4318L54.3575 64.4716L54.0908 64.2982L53.8418 64.3849L54.073 63.9226L54.0841 64.1049L54.3997 64.4427L54.5264 64.5294L54.7665 64.4516L54.4931 64.2627L54.2019 62.6757L53.6529 61.9866L53.1884 61.6088L53.2306 61.1309L52.8683 60.2841L52.5927 60.1774L51.9548 60.3574L51.8081 60.1929L51.3391 58.9771L51.5325 58.9904L51.6614 59.2238L51.8747 58.8526L51.8258 58.5993L51.4347 58.2147L50.8034 58.4659L50.8768 58.0747L51.039 58.0569L50.739 57.639L50.3433 57.359L50.37 57.2545L50.2055 57.2034L49.9143 57.5212L49.1453 57.4679L48.2251 56.8033L47.7405 56.7455L47.1204 57.0345L46.8026 57.0034L45.7735 56.141L44.2754 55.4408L43.4196 55.8253L41.8638 55.7387L39.0898 56.0587L39.1032 40.4599L60.8055 40.4443H68.0448L68.0515 48.5683L68.0404 62.7268L67.9781 62.6445L67.9692 74.736L67.318 74.7604L66.9112 74.5426L66.4911 74.1203L65.9244 73.1156L65.6176 73.0001L65.0331 72.1154L65.1086 71.9598L64.9886 71.5575L65.0331 71.2797L65.2976 70.8996L65.2042 70.1795L64.7819 69.1504L64.1151 68.2613L63.4172 67.5767L64.1929 68.1901L64.8108 69.1681L64.5841 68.5124L63.4572 67.3789L63.4527 67.1166L63.6017 67.0566L63.7839 67.2144L63.7995 67.6367L64.0262 67.6123L64.0773 66.6765L63.7306 66.5054L63.5439 66.6898L63.146 66.7765L63.1216 66.9743L63.306 67.0766L63.1971 67.2166L62.5459 67.1611L62.0991 67.4989L61.2278 67.5456L61.03 67.3967L61.1745 67.141L61.4945 66.981L61.8635 66.5832L61.9257 65.9052L62.0435 65.6474L61.9991 64.7805L61.4656 64.0537L61.3323 63.5736L61.0256 63.0513L60.8188 63.4069L60.8477 63.6603L60.6188 63.8959L60.5343 64.1871L60.501 64.7294L60.1943 65.9652L60.0165 66.1097L59.4052 65.9297L58.9518 66.1008L58.7918 66.3075L58.4561 66.2564L58.1294 66.472L57.9827 66.3187L58.2361 66.0119L58.4472 65.2918L58.6495 65.3718L59.0696 65.3051L59.3185 65.4651L59.4386 65.4007L59.5941 64.5805L59.5808 63.4958L59.4808 63.1291L59.7031 62.9402L59.8453 62.3267L60.6788 61.3887L60.3543 60.5797L60.4277 60.3618L60.9144 60.1529L60.8966 60.0062L60.6899 59.8084L60.3565 58.5459L60.2276 58.4481L60.2076 58.9127L60.3187 59.0416L60.3343 59.3461L60.2543 59.7595L59.8209 59.8662L59.563 60.1462L58.8918 61.6955L58.7273 61.8333L58.4339 61.8444L58.2628 61.7399L58.056 62.1044L56.9691 62.7824L56.718 63.2336ZM60.5921 67.7189L60.9589 67.819L61.0789 68.1346L60.9033 68.2924L60.6166 68.1524L60.2298 68.1235L59.8898 68.2835L59.8764 68.5502L59.4919 68.7747L59.2563 68.5347L58.9385 68.4747L58.7562 68.6525L57.7004 68.6903L57.2803 68.2768L57.3826 67.839L58.6828 67.5211L59.1585 67.31L59.663 67.3522L59.8053 67.4878L59.8364 67.7723L60.3032 67.939L60.4454 67.9501L60.5921 67.7189Z" fill="#00212E" stroke="#00212E" stroke-width="0.5"/>
<path d="M88.7455 73.7335L88.0964 73.9158L85.6826 73.9958L84.3557 74.4848L83.4221 75.265L82.2174 76.5341L81.1505 76.7364L80.6393 76.7319L80.5549 76.8586L80.8238 77.3498L81.1016 77.1542L81.1528 76.9675L81.2394 77.0075L81.275 77.8433L81.0594 78.0633L80.8794 77.91L80.7038 77.4499L80.4504 77.132L80.2637 77.052L80.1125 77.1854L79.8747 77.1654L79.6613 76.5341L79.448 76.5008L79.1568 76.6297L78.6945 76.2052L78.7345 75.9184L79.0323 75.6784L78.7634 75.2272L78.3077 75.2605L78.2055 75.6028L77.7654 76.0562L77.4542 76.0829L77.1164 75.6895L77.6565 75.5761L78.0099 74.9538L77.9321 74.6671L77.4942 74.1358L76.5518 74.8449L76.1695 74.9227L76.1828 75.0338L76.5162 75.0916L76.8163 74.9471L76.983 74.9938L76.9941 75.2183L76.8696 75.4094L76.1562 75.5295L75.4293 76.0207L74.9003 76.6719L74.6336 76.7453L74.178 77.1742L72.9844 76.4897L72.3931 76.3007L71.7463 75.8006L71.3707 75.6517L70.8417 75.7628L70.3705 75.4317L69.8548 75.3561L69.5392 75.5228L69.6126 75.7628L69.4214 75.8162L69.1391 75.6784L68.5101 75.0294L67.9678 74.736L67.9767 62.6445L68.0389 62.7268L68.2256 62.8601L68.6412 62.8912L69.3503 63.298L69.8171 62.969L70.1749 63.0624L70.5528 62.9846L71.024 63.2424L71.3596 63.807L71.3707 64.2249L71.5796 64.4182L71.7864 64.9183L71.9908 64.9584L72.1775 64.476L72.3576 64.3693L72.5398 64.5494L73.1822 64.6872L73.6956 64.9672L73.7312 65.8585L73.8423 66.103L74.218 66.2631L74.2958 66.6387L74.7159 66.7898L75.4982 67.2922L76.1228 67.8678L76.2473 68.1524L76.7541 68.7458L77.0519 68.9192L77.572 68.8236L77.5342 68.5213L77.6631 68.1612L78.2633 68.0834L78.5544 68.1701L78.9479 68.0145L79.6369 68.5013L80.826 68.6747L81.315 68.4546L82.3197 68.8303L82.6442 68.8525L83.2665 68.6902L83.491 68.4102L83.7155 68.3724L84.0556 68.4369L84.2623 68.3568L84.6668 68.5302L84.9291 68.6969L85.0536 69.6793L85.427 70.3306L85.2069 70.8818L85.4248 70.8996L89.7034 73.0556L89.2389 73.2001L88.9677 73.6135L88.7455 73.7335ZM78.5567 75.8562L78.3833 75.7895L78.4122 75.4517L78.7989 75.5317L78.8967 75.6473L78.5567 75.8562ZM78.5522 76.2829L78.3522 76.1318H77.9877L78.1566 75.9673L78.3811 75.9229L78.5522 76.2829Z" fill="#00212E" stroke="#00212E" stroke-width="0.5"/>
<path d="M89.7077 31.4183L89.8544 31.6005L89.5699 30.8471L89.7588 30.3536L89.95 30.3603L90.2434 30.9537L91.1902 31.4583L91.048 30.9315L91.1147 30.7959L91.2903 30.827L91.4614 31.0827L91.4081 31.3738L91.7348 31.8384L91.5814 32.8764L91.717 33.1564L91.6881 33.5298L91.8482 33.8544L92.2238 33.9899L92.5728 34.6078L92.8239 34.699L93.1929 35.0946L93.4885 35.2458L93.4685 35.3791L93.653 35.2902L93.7152 35.0924L93.8219 35.1235L94.4243 35.7259L94.9021 36.755L95.7134 37.2929L95.809 37.7841L96.2046 38.4398L96.7759 38.5553L96.8692 38.9465L96.7403 39.2822L96.8048 39.7423L96.9581 39.84L97.087 40.1557L97.4427 40.3757L97.1693 41.2715L97.3738 43.3519L97.0781 43.6053L97.1515 43.9743L97.6138 44.4232L97.765 44.9411L97.9694 45.2278L98.0406 45.4212L97.9872 45.7835L98.2184 46.2414L98.0383 46.3881L97.4516 46.5503L97.2671 46.7948L96.418 46.8148L96.0224 46.7282L95.7579 46.5503L95.4734 46.8571L94.9933 47.0149L94.4887 47.335L94.7065 47.8284L94.6287 48.2752L94.1664 48.4974L93.9286 48.2529L93.513 48.4374L93.2951 48.8819L93.0595 49.0331L92.9084 48.7908L92.8795 48.3729L92.2638 47.8417L91.6548 47.5639L90.888 47.6284L90.4701 47.3083L89.0542 47.5483L88.7431 47.395L88.4763 47.4683L87.2383 48.5685H68.0543L68.0498 40.4468H60.8105V16.0973L61.5107 16.5663L62.3531 16.6596L62.8443 16.9019L63.2488 16.9597L63.5645 17.3976L63.6156 17.7221L63.8512 18.0733L64.2779 18.1644L64.7114 18.52L65.1892 18.6578L65.6827 19.0046L66.594 18.9045L67.6475 18.3467L67.9454 17.2153L68.5188 16.4707L68.7411 15.9684L69.0789 14.897L69.0167 14.477L69.1612 13.5568L69.6568 12.2898L69.419 11.6364L69.3101 10.9362L69.5013 10.1005L69.2056 9.61816L69.1856 9.32032L69.3612 8.59128L69.7146 7.90446L69.4857 7.17542L69.8569 6.84869L69.9747 6.52195L70.1192 6.56641L70.3014 7.05318L70.3214 6.94871L70.1858 6.55307L69.7858 6.03518L69.8569 5.97739L69.6502 5.93072L69.7057 6.17744L69.5657 6.22189L69.4857 6.12854L69.9236 5.34837L70.1014 4.79715L70.2058 4.75047L70.2659 5.04387L70.5237 4.99274L70.337 4.64156L70.7615 3.29016L70.8215 2.25439L71.2927 2.12325L71.5372 1.66982L71.944 1.76985L71.7106 2.03212L71.6928 2.25661L71.9329 2.06769L72.2596 2.34552L72.3641 2.57446L72.5508 3.33462L72.5352 4.41707L72.7975 4.64823L73.122 4.59044L73.3532 4.79715L73.1198 5.17278L73.0598 5.64844L73.5377 5.84181L73.5465 6.09964L73.9111 6.34414L73.7488 6.91537L74.1156 6.98872L74.1333 8.0356L74.3089 8.35123L74.1556 9.15139L74.3267 9.59593L74.5312 9.81153L74.7646 10.7762L75.018 10.9584L75.318 10.9607L76.3382 10.3828L76.4383 10.1583L76.5338 10.1805L76.685 10.4072L76.7717 10.9562L76.9228 11.1363L77.454 11.2874L77.6052 11.623L78.4654 12.0987L78.2698 12.5677L78.4031 13.0567L78.3053 13.3434L78.5743 14.0613V14.5125L78.8232 14.9304L78.6787 15.8239L79.6545 17.0064L79.9568 16.9019L80.0146 16.973L79.839 17.4065L80.1991 18.1422L80.3746 18.9646L80.3502 19.6291L80.1279 20.1004L80.1457 20.3426L80.6347 20.9828L80.9281 21.0939L80.7925 21.983L81.486 22.6342L81.9639 22.7431L82.2595 23.0387L82.7085 23.1388L82.8707 23.2921L83.5775 23.3166L83.5042 23.0521L83.8754 23.63L83.971 24.119L84.151 24.3679L84.3933 24.3724L84.3733 24.0767L84.52 24.079L84.7378 24.5457L85.4802 24.6813L85.6713 24.9125L85.6135 25.0103L85.9491 25.3415L86.0758 25.2859L86.0425 24.9769L86.5737 25.3659L86.8049 25.4081L87.205 26.1816L86.8582 25.9816L86.7404 26.0305L86.5626 26.2505L86.7115 26.6506L87.8829 27.5819L87.9429 28.0931L88.4319 28.8755L88.4008 29.3667L88.6208 30.1536L89.0454 30.8626L88.9809 31.2382L89.3321 30.9493L89.7077 31.4183ZM97.1982 39.9045L96.9959 39.7489L96.8648 39.271L97.1582 38.6865L97.1226 38.3997L97.5827 37.7707L97.576 37.5618L97.3849 37.2995L97.6805 36.9928L97.7005 37.5351L97.8961 37.8263L97.3071 39.2133L97.1982 39.9045ZM63.5778 16.613L63.6178 16.2107L63.9601 15.8661L64.5091 15.7439L64.9736 15.8195L64.987 15.9662L64.8825 16.0151L64.6202 15.9639L64.398 16.0528L64.2846 16.3774L63.5778 16.613ZM92.7239 34.5923L92.3349 34.1166L92.2194 33.7277L92.326 33.7032L92.7106 33.9944L92.895 34.4967L92.7239 34.5923ZM80.8103 20.9739L80.6436 20.9094L80.5969 20.6783L80.3191 20.3693L80.7614 20.5049L80.9614 20.7938L80.8103 20.9739ZM97.9828 45.1056L98.0472 44.2521L98.3073 44.2565L98.0984 45.0923L97.9828 45.1056ZM98.0272 44.1098L97.8672 43.6609V43.2963L98.0739 43.183L98.0272 44.1098ZM70.9015 1.81652L70.7504 1.69427L70.7393 1.54091L70.9838 1.42533L71.086 1.69427L70.9015 1.81652ZM71.1349 0.585153L70.9171 0.436233L71.0105 0.293981L71.1438 0.269531L71.2794 0.405115L71.1349 0.585153ZM64.2535 17.5776L64.1846 17.4331L64.4313 17.202L64.5558 17.2909L64.5958 17.4754L64.3113 17.4687L64.2535 17.5776Z" fill="#00212E" stroke="#00212E" stroke-width="0.5"/>
<path d="M82.3216 92.3976L82.1216 92.4976L82.0771 92.3976L81.7659 92.3487L81.557 92.1909L80.8257 92.1197L80.6702 91.9686L80.379 92.0575L80.2056 91.9997L79.95 91.5974L80.0923 91.4974L80.6724 91.6463L80.6768 91.4285L80.5057 91.2862L80.4123 91.4552L79.7188 91.3351L79.1365 90.2882L78.9342 90.2438L78.8098 90.0438L78.5542 89.2391L78.3274 89.088L78.1963 87.93L78.2408 87.8722L78.7297 88.3123L78.8342 88.7968L79.0343 88.2367L78.8075 88.1567L78.3786 87.6855L78.3008 87.212L77.594 86.174L76.9449 84.5804L76.7827 83.6713L76.9783 83.4935L76.9827 83.1245L77.1294 83.0267L77.6695 83.0912L77.9851 83.3246L78.3674 83.2623L80.5835 84.3892L81.3214 84.367L81.5303 84.4848L81.5192 84.3737L81.8793 84.1136L82.006 84.1536L82.0593 84.3648L82.3883 84.4248L82.0993 84.2381L82.0882 84.0847L82.5661 83.818L82.8795 83.9225L83.3841 83.8202L83.5308 83.9514L83.7041 83.8469L84.002 83.3935L84.1553 83.3557L84.5487 83.5468L84.7021 83.4579L84.871 83.0823L85.1311 83.1579L85.5979 83.578L85.7312 83.878L85.5779 84.4248L85.7045 84.9605L85.6001 85.3428L85.6979 85.8518L85.5779 86.5008L85.8179 87.8211L85.6912 88.0011L85.6045 87.9278L85.6868 87.5543L85.4111 86.9231L85.1311 87.4788L84.9488 88.7968L84.8044 89.0947L84.831 89.4325L84.6577 89.6125L84.5599 89.9415L84.6977 89.986L84.7243 89.8348L84.9377 90.0526L84.8221 90.6283L84.9288 91.1062L84.6977 90.9595L84.4332 91.1684L84.0509 90.5705L84.0197 90.4127L84.2309 90.1527L84.4132 90.5239L84.6977 90.4438L84.5198 90.1327L83.873 89.7993L83.7397 89.8993L83.8619 90.2882L83.7975 90.4172L83.5596 90.495L83.513 89.9949L83.2951 89.8548L83.3707 90.046L83.1129 90.7995L83.1262 91.2462L82.9595 91.2885L82.7662 91.164L82.5572 90.7483L82.455 90.8084L82.4528 91.0306L82.7573 91.3085L82.3216 92.3976ZM85.2467 81.5864L85.0288 81.4664L84.9799 81.1641L84.7043 80.6462L84.3598 80.3395L84.6532 79.9527L84.8599 79.8638L85.3378 80.5018L85.6334 80.7062L85.7379 81.4108L85.2467 81.5864ZM75.0957 81.153L75.0112 81.0908L75.0245 80.6751L74.8867 80.4951L74.8934 80.3239L74.9356 79.8194L75.1245 79.6794L75.129 79.4171L75.2312 79.3882L75.5469 79.6638L75.638 80.4995L75.5402 80.8352L75.0957 81.153ZM85.7534 82.3088L85.7023 82.0932L85.1422 82.1643L84.9266 82.071L84.931 81.9487L85.0911 81.8176L85.4223 81.8598L85.7601 81.6887L86.0891 82.0799L85.7534 82.3088ZM83.2529 92.0508L82.9462 92.0131L82.8195 91.7486L83.2462 91.2218L83.4018 91.6285L83.2529 92.0508ZM83.3952 91.2218L83.2285 90.8728L83.3841 90.6016L83.5663 91.1529L83.3952 91.2218ZM84.9711 89.5459L84.9822 89.1102L85.2467 89.0146L85.3445 89.2614L85.1755 89.2636L84.9711 89.5459ZM77.4295 83.0245L77.3739 82.84L77.5184 82.6689L77.7362 82.9178L77.4295 83.0245Z" fill="#00212E" stroke="#00212E" stroke-width="0.5"/>
</svg>
