<svg width="44" height="36" viewBox="0 0 44 36" fill="none" xmlns="http://www.w3.org/2000/svg">
<path d="M24.9016 0.30127L25.5263 0.638758L25.5997 1.65969L24.7881 1.79288L26.0449 1.74378L26.3971 2.15971L27.5913 0.55241L28.137 0.814274L28.4249 1.5028L28.0671 2.1789L28.7578 3.55368L29.9182 3.74783L29.8832 4.50746L29.6298 5.22081L30.1546 6.43644L27.4147 7.74294L27.071 8.4467L25.2695 8.85586L24.9839 8.3722L23.9467 9.06863L23.8016 8.61431L22.6949 9.20407L20.6333 9.12732L20.4707 8.52007L18.9295 8.39986L18.386 8.34229L18.2139 7.28299L19.7399 6.84843L19.929 6.33712L19.4668 4.61412L19.8189 4.09096L18.8934 2.88209L18.6631 2.51187L21.0266 2.68739L20.4414 1.24319L21.4821 0.692936L22.1966 0.620698L22.1689 1.65009L23.3117 1.65687L24.9016 0.30127Z" fill="#00212E" stroke="#00212E" stroke-width="0.5"/>
<path d="M17.3906 14.1434L17.9934 13.7314L19.0086 14.4459L19.9748 13.6592L20.3942 13.9651L21.7181 13.2873L22.0675 13.7681L22.8412 13.1417L23.2684 13.5102L23.3604 12.5321L24.6528 12.4023L26.4639 13.5017L27.0875 13.0361L27.4995 13.3787L27.0976 15.2524L24.9807 16.1599L23.5867 15.8805L23.6415 16.5735L22.8931 16.5239L22.6426 16.9996L21.4219 17.2265L21.4557 16.7011L20.8214 16.5893L19.9444 16.9545L18.2874 14.9154L17.4589 15.4234L17.3906 14.1434Z" fill="#00212E" stroke="#00212E" stroke-width="0.5"/>
<path d="M20.9767 10.8158L21.0207 10.8485L21.6703 12.6556L20.5133 13.1296L18.9873 12.1979L19.568 11.0793L20.453 10.8174L20.9417 10.7373L20.9767 10.8158Z" fill="#00212E" stroke="#00212E" stroke-width="0.5"/>
<path d="M10.359 13.0865L12.2321 13.8964L12.7524 13.007L13.6469 12.8546L13.8281 13.4342L15.1577 13.7006L15.3333 14.4196L17.3904 14.143L17.4586 15.423L18.2877 14.9156L19.9441 16.9547L20.8211 16.5895L21.4554 16.7018L21.4216 17.2273L22.6423 16.9998L22.5655 18.7256L23.0684 19.0146L22.8116 20.6783L20.7223 20.9424L19.4553 21.8985L20.6947 22.2958L20.2788 23.3867L21.0502 27.2452L17.8622 26.6137L18.0608 25.4415L18.8306 25.0815L18.4988 23.9945L17.7103 23.9827L18.5885 21.6118L18.0811 21.3189L17.8102 21.8533L16.5686 20.1219L15.2226 20.671L13.5256 20.2556L13.091 21.0463L12.5442 19.9401L12.5617 18.4508L11.99 17.773L10.8043 17.9242L11.004 17.2995L10.5198 17.1341L9.43624 17.8571L8.50843 17.2854L7.9356 14.9834L8.17038 14.2299L7.25781 13.2858L8.66871 13.2959L9.26129 14.0883L10.359 13.0865ZM3.80391 14.1329L3.57422 13.3806L4.88184 12.972L4.62167 12.6288L5.32092 12.3359L5.52522 12.9855L4.65271 13.4855L4.32426 14.3744L3.80391 14.1329Z" fill="#00212E" stroke="#00212E" stroke-width="0.5"/>
<path d="M34.8842 12.3137L34.7701 13.2421L36.9678 14.0864L37.0744 13.285L38.4831 13.2906L38.6981 13.9238L39.5458 13.8629L40.2089 15.5215L41.2146 15.5198L40.2208 16.9719L40.7434 17.7779L42.1091 17.8913L42.3902 18.7993L42.0036 19.7667L42.7282 20.5353L42.2209 21.0703L41.6283 20.8147L41.3297 21.699L40.1937 22.242L40.3528 23.1398L39.8618 23.2646L39.7907 24.0457L39.5051 23.4237L38.9289 23.6472L38.5294 23.1314L38.0316 20.616L36.7505 20.3226L36.5597 21.4609L36.9537 21.4868L36.1466 21.9163L35.2278 21.795L35.2047 20.151L33.1719 19.5584L32.9015 19.0003L32.4196 19.3028L31.8981 18.9212L31.603 19.7921L30.5493 20.0359L29.863 19.375L29.4533 18.0702L29.069 18.2491L28.8286 17.4917L27.666 17.139L27.0977 15.2523L27.4995 13.3787L28.3844 14.0914L29.0966 14.3211L29.1976 13.8285L30.6238 13.9616L31.5296 13.4187L31.8676 13.9199L32.5133 13.8369L34.8226 12.312L34.8842 12.3137Z" fill="#00212E" stroke="#00212E" stroke-width="0.5"/>
<path d="M35.8815 13.0601L37.0746 13.2853L36.9679 14.0861L34.7703 13.2418L35.8815 13.0601ZM33.15 4.20301L33.4378 5.17371L36.6502 6.53438L35.1823 9.7044L35.5841 9.91829L34.3493 11.2812L34.8234 12.3112L32.5134 13.8361L31.8678 13.9191L31.5297 13.4173L30.6239 13.9603L29.1978 13.8282L29.0968 14.3209L28.384 14.0912L29.318 10.7265L28.2807 10.6328L27.7485 10.0509L28.5578 8.69419L29.0121 8.63155L28.5697 8.18571L27.9122 8.79691L27.0713 8.447L27.415 7.74325L30.155 6.43675L29.6301 5.22111L29.8835 4.50776L31.8554 4.47616L32.6082 3.80908L33.15 4.20301Z" fill="#00212E" stroke="#00212E" stroke-width="0.5"/>
<path d="M31.6029 19.7922L31.8981 18.9214L32.4196 19.3029L32.9015 19.0004L33.1719 19.5586L35.2047 20.1511L35.2278 21.7951L36.1466 21.9165L36.9537 21.487L36.5597 21.461L36.7505 20.3227L38.0316 20.6162L38.5294 23.1315L37.1303 24.3477L36.2742 26.0431L36.4655 26.5843L35.7945 26.9269L35.3509 27.976L35.8859 28.3225L35.4067 29.0494L35.5586 29.8164L35.9305 29.7436L36.3447 30.9773L36.9909 31.2058L36.7652 31.7555L37.2635 31.9706L36.5016 33.8403L34.4033 33.864L33.9817 34.6078L33.3801 34.2252L32.4591 34.7664L31.985 33.1111L31.1012 32.5214L30.7169 32.8543L30.9094 32.1308L30.2998 31.4796L29.0944 31.466L28.302 30.2893L26.9238 29.6313L27.1513 28.7576L28.5881 27.5781L26.978 25.7772L27.7354 25.3596L27.9978 24.1773L28.1107 24.6858L30.2338 24.3393L29.9398 23.9927L30.3636 23.5537L29.5554 22.5841L31.6063 21.3515L31.5459 20.8763L31.0408 20.8989L31.6086 20.5338L31.6029 19.7922Z" fill="#00212E" stroke="#00212E" stroke-width="0.5"/>
<path d="M22.642 16.9997L22.8926 16.5239L23.6409 16.5736L23.5862 15.8806L24.9802 16.1599L27.0971 15.2524L27.6654 17.1391L28.828 17.4918L29.0684 18.2492L29.4527 18.0703L29.8625 19.3751L30.5487 20.036L31.6024 19.7922L31.608 20.5337L31.0403 20.8989L31.5454 20.8763L31.6058 21.3515L29.5549 22.5841L30.3631 23.5536L29.9392 23.9927L30.2333 24.3392L28.1101 24.6857L27.9973 24.1773L27.7348 25.3596L26.9775 25.7772L28.5876 27.5781L27.1507 28.7576L26.9233 29.6312L25.6348 29.774L25.5863 28.5245L26.0378 27.7976L24.9542 26.7902L25.5203 25.6102L25.2889 25.1513L26.1253 23.9278L25.3622 23.386L23.9011 24.8088L23.8915 26.3292L21.05 27.2446L20.2785 23.386L20.6944 22.2951L19.4551 21.8978L20.7221 20.9418L22.8113 20.6776L23.0681 19.0139L22.5653 18.7255L22.642 16.9997Z" fill="#00212E" stroke="#00212E" stroke-width="0.5"/>
<path d="M18.8933 2.88281L19.8189 4.09167L19.4662 4.61484L19.9284 6.33783L19.7399 6.84914L18.2138 7.2837L18.386 8.34301L18.9294 8.40057L18.8493 9.02024L17.8831 9.59928L18.0852 10.2252L17.3402 10.2178L16.7516 11.8528L16.9818 12.7004L15.7414 12.9409L15.7724 13.7005H15.1573L13.8282 13.4341L13.647 12.8545L12.7519 13.0069L12.2316 13.8963L10.3591 13.0865L11.0397 12.4228L10.2834 11.3465L10.5684 10.8273L9.8833 10.7026L10.3732 10.0338L9.86185 9.79229L10.2174 8.21941L8.95605 7.32039L9.8263 6.24697L9.26984 5.70067L9.50349 4.25421L10.0199 4.77737L11.1034 4.75649L10.9759 4.0358L11.8072 3.70452L13.8541 4.4523L14.0037 5.30054L15.0596 5.14985L15.0545 5.5466L16.9655 4.78302L18.8933 2.88281Z" fill="#00212E" stroke="#00212E" stroke-width="0.5"/>
<path d="M27.0709 8.44733L27.9118 8.79724L28.5693 8.18604L29.0117 8.63188L28.5574 8.69452L27.7481 10.0512L28.2803 10.6331L29.3176 10.7268L28.3836 14.0915L27.4987 13.3787L27.0873 13.0362L26.4636 13.5018L24.652 12.4024L23.3597 12.5322L23.2677 13.5102L22.8404 13.1417L22.0667 13.7681L21.7174 13.2873L20.3934 13.9657L19.9741 13.6598L19.0079 14.4465L17.9926 13.7326L17.3898 14.144L15.3327 14.4205L15.1572 13.7015H15.7718L15.7413 12.9419L16.9818 12.7015L16.7515 11.8544L17.3402 10.2194L18.0857 10.2262L17.8837 9.60032L18.8498 9.02129L18.93 8.40162L20.4713 8.52183L20.6338 9.12908L22.6954 9.20584L23.8021 8.61608L23.9472 9.07039L24.9845 8.37397L25.27 8.85762L27.0709 8.44733ZM20.9419 10.7369L19.7573 10.9034L18.9943 12.2178L20.5136 13.1293L21.6705 12.6546L21.0204 10.8481L20.9419 10.7369Z" fill="#00212E" stroke="#00212E" stroke-width="0.5"/>
<path d="M9.36193 2.61963L9.50358 4.25402L9.26994 5.70048L9.8264 6.24678L8.95615 7.3202L10.2175 8.21922L9.86195 9.7921L10.3733 10.0336L9.8834 10.7024L10.5685 10.8271L10.2835 11.3464L11.0398 12.4226L10.3592 13.0863L9.26204 14.088L8.66946 13.2957L7.25855 13.2849L6.96001 12.6986L5.5254 12.9858L5.3211 12.3362L4.62186 12.6291L4.88203 12.9717L3.5744 13.3803L3.8041 14.1326L3.00383 13.7974L2.27581 12.3464L1.31413 12.3103L0.921902 11.6652L0.820317 10.449L1.27689 9.96762L0.30957 7.49966L7.32233 3.26469L7.35111 2.6913L7.48373 3.29122L7.48712 2.67719L7.81445 3.0841L9.36193 2.61963Z" fill="#00212E" stroke="#00212E" stroke-width="0.5"/>
</svg>
