<svg width="125" height="131" viewBox="0 0 125 131" fill="none" xmlns="http://www.w3.org/2000/svg">
<g clip-path="url(#clip0_350_155)">
<path d="M0.932224 39.3564L4.55886 40.8779L9.34077 42.0278L11.7919 42.6669L17.1359 45.549L22.8961 48.0163L23.496 48.2731L22.1191 49.3945L20.5247 50.1512L20.0207 50.8201L19.1519 50.6512L18.3222 51.6767L16.79 52.1821L16.5305 51.7929L14.7537 51.5416L13.7268 51.6186L13.1336 51.4659L11.8635 51.9632L11.2406 51.5349L10.9095 51.7713L10.9176 48.2001L11.0446 46.7448L9.7029 47.9609L8.81245 48.519L6.00735 48.5419L5.64253 47.0408L4.29132 46.6557L2.80635 46.6165L3.54545 45.7936L3.55762 45.3004L2.91444 44.4248L2.34964 44.0681L1.75781 43.2709L1.21057 41.436L0.271484 40.7293L0.503892 40.1091L1.11193 40.028L0.932224 39.3564Z" fill="#00212E"/>
<path d="M113.809 47.0286L113.077 46.3989L113.912 45.8044L114.576 44.8721L115.334 45.1572L116.232 45.999L116.978 46.3097L118.354 46.2138L119.331 45.7828L120.107 44.9734L120.964 45.0977L121.779 44.7964L122.809 45.0599L122.245 46.0679L120.602 47.8407L119.989 48.7716L119.317 49.3567L118.848 50.1323L118.727 49.8661L117.217 48.9513L116.955 48.4527L115.859 47.8285L115.116 47.6366L113.809 47.0286Z" fill="#00212E"/>
<path d="M33.7767 9.8042L35.005 10.4785L35.9508 10.7865L35.6225 11.7661L36.1751 12.5282L36.7345 14.274L36.4062 14.5726L36.6129 15.2158L36.3413 16.0319L36.4008 17.044L36.9426 17.8398L37.171 18.7195L36.5278 19.2707L37.5398 20.1706L38.0425 20.4449L38.5505 21.1949L39.3167 20.9071L39.4437 19.722L39.8166 18.8627L40.9314 18.3844L41.5016 18.5735L42.0664 19.4991L42.6866 19.4518L43.3825 19.0546L43.2163 18.2979L43.4635 17.5304L44.2621 16.113L47.9982 16.1251L48.0792 18.0101L48.4211 18.183L48.3765 18.837L49.3318 19.4923L49.5115 20.145L51.7761 21.834L53.3665 22.4001L54.4502 23.2568L54.6731 23.6986L55.5136 23.9202L55.8784 24.2607L49.8385 37.3269L49.3872 37.8228L49.4305 38.724L50.0425 39.2753L50.3155 40.0455L50.0398 40.9454L49.5399 41.617L49.7845 42.4642L49.2669 44.3829L49.0237 44.5329L39.3545 44.5977L39.01 44.3194L38.3749 44.9342L37.7196 44.6329L37.1669 43.9897L36.9129 43.3235L36.4008 43.1263L35.8806 42.3791L35.4455 42.1494L33.266 42.1615L32.6039 43.0655L32.1026 43.1736L32.0702 43.8681L31.4148 44.5545L31.4419 45.2206L30.6609 45.1261L29.988 45.4206L29.3623 45.2855L28.4408 46.7097L28.0368 46.1597L26.6762 46.7502L26.2465 47.1691L25.633 46.6191L24.2548 46.634V47.011L22.8955 48.0163L17.1353 45.549L11.7913 42.6669L9.34019 42.0277L4.55828 40.8779L0.931641 39.3564L1.06001 38.6308L2.30041 37.639L2.75577 37.5904L3.06519 37.0026L2.71523 36.0892L3.55838 34.6785L3.75836 33.1719L5.32035 32.2274L6.89991 31.0992L7.69442 31.0708L9.21183 30.5925L9.88472 30.6695L10.4955 29.9277L11.0576 30.079L11.8899 29.9034L12.2764 30.5128L12.9641 30.4493L13.2722 29.2089L14.6261 21.6489L14.8599 21.0557L14.6599 20.0463L14.1221 19.2207L14.141 18.4762L13.1101 17.7966L12.7169 17.3331L12.7587 14.9915L13.5438 14.9388L14.6058 14.5132L15.1463 14.8712L15.6503 14.805L15.6111 14.1132L14.9855 13.4525L13.3979 13.4552L13.3857 11.4419L14.3072 11.2095L14.8788 11.3865L18.7243 11.3986L19.8012 11.2081L20.5133 10.3609L21.2902 10.1717L21.8537 11.1L22.182 12.0418L22.1239 13.139L22.7698 12.9863L24.448 14.4213L25.1142 14.5213L26.3492 13.7362L27.0599 13.9916L28.1449 13.7794L28.2381 13.3092L29.238 12.8012L29.9447 12.6417L30.5784 12.0675L30.9878 12.181L31.5756 11.6783L31.658 10.873L32.6444 10.5176L33.7767 9.8042Z" fill="#00212E"/>
<path d="M69.976 20.4658L68.8031 20.4091L68.0451 19.6119L68.0046 18.8836L67.6789 18.0647L67.0871 17.3986L66.7642 17.4351L66.4885 16.4055L66.1061 15.615L66.121 14.48L65.1954 13.872L65.2171 13.1004L64.4077 12.3262L63.7023 12.414L62.8362 11.5965L62.1863 11.283L61.0472 11.2614L60.9364 10.8588L61.1121 9.6697L60.9121 9.08733L61.1891 9.5008L61.8917 9.86022L63.0119 10.171L64.1577 9.35758L64.8468 9.74132L65.5022 9.43054L66.6534 9.97237L67.5344 9.34812L68.5545 7.24564L70.3841 4.26488L71.1137 3.7271L71.7704 3.48389L72.5676 4.57026L72.6095 6.17549L72.7433 6.96054L73.2905 8.19148L73.8283 10.0089L74.4998 11.025L75.3632 11.0804L76.1861 11.4438L76.3429 11.983L76.2415 13.2085L75.2254 14.0341L74.5525 14.7502L73.5743 16.219L72.95 16.4001L72.5311 17.0054L71.8109 17.5459L71.3894 18.3769L70.6111 19.2106L70.5719 20.0659L69.976 20.4658Z" fill="#00212E"/>
<path d="M106.857 74.4879L106.814 73.7244L105.979 73.1029L105.591 72.5705L105.863 71.0058L106.529 70.8734L106.653 69.8978L107.655 69.0411L107.952 68.4142L107.71 67.9683L106.81 67.3765L104.531 66.8941L103.966 67.1954L103.324 67.1481L103.234 66.3428L101.916 65.0808L100.953 65.2956L99.4029 64.4633L98.326 63.7606L97.5517 63.4985L96.5235 63.9944L95.4452 63.6971L95.2993 63.1107L95.5614 62.554L93.8819 62.227L93.1076 62.55L92.1172 63.3891L91.0281 63.8512L90.4701 64.4052L89.9809 64.4822L89.3972 65.1618L88.8203 65.1105L88.5149 64.2633L88.8635 63.7052L88.8378 62.5756L88.1892 62.0433L87.846 61.3393L87.7298 60.3083L88.0014 58.8125L88.3838 58.0086L87.8325 57.5086L88.0568 56.533L87.7609 56.4331L87.4988 56.0453L87.5488 55.2791L88.369 54.7089L87.7987 54.4535L88.2082 53.9239L87.9339 53.478L87.2096 53.3415L86.834 52.9429L87.6339 50.9661L89.0554 50.0229L89.3526 49.5946L89.8242 49.5906L90.2485 50.0743L90.7119 51.0296L91.5578 51.4079L92.3483 51.3377L92.5658 50.9999L93.613 50.4121L94.1818 50.5553L95.0561 49.9756L95.7979 48.7758L95.8817 47.8326L95.4412 46.7409L96.0951 46.4058L96.941 46.7206L97.6504 46.522L98.4435 47.0489L99.6921 46.8746L100.162 46.3544L101.035 46.0126L101.662 46.1517L102.017 45.2978L102.792 45.1208L103.188 44.4168L104.047 44.5033L104.704 44.8884L104.836 45.8383L105.282 46.0234L105.521 46.8976L106.462 46.4855L106.617 45.7585L107.64 45.4586L107.845 44.8086L108.51 44.2492L109.356 43.8628L110.694 44.5695L111.615 44.8843L112.827 45.5883L113.077 46.399L113.809 47.0287L113.718 47.6989L114.53 48.8379L114.363 49.9797L114.517 50.5391L113.803 50.9701L113.23 50.8147L113.243 51.6795L113.889 52.5051L113.819 52.9564L114.847 53.5942L115.432 53.4145L115.636 53.4955L114.812 55.2899L113.831 56.8195L112.815 57.9869L112.145 58.2423L112.218 57.3059L111.541 56.956L111.422 58.141L110.484 59.7881L110.779 60.4137L110.569 60.9245L110.902 61.5487L110.453 63.5499L110.652 64.6308L110.867 66.8563L111.068 67.5508L110.619 68.906L110.004 71.8003L110.065 73.1731L110.246 73.5204L109.795 74.1257L109.24 74.3919L108.555 75.6404L106.857 74.4879Z" fill="#00212E"/>
<path d="M116.209 32.0912L115.222 32.4141L114.695 32.8235L113.581 35.0165L112.888 36.0448L112.419 36.0083L111.964 36.6447L112.158 37.0042L111.514 38.6175L111.69 39.5106L112.148 39.9511L111.618 40.9389L110.768 41.6726L109.876 41.1375L109.579 40.7173L108.633 40.1606L107.317 40.2606L105.812 40.2079L105.67 39.6039L106.204 38.5148L106.05 38.1392L105.269 37.9095L104.746 35.6948L104.511 33.6991L104.629 33.3775L104.305 32.3614L104.244 31.2494L104.397 30.8183L103.396 28.8361L103.034 27.8754L103.011 27.3174L103.573 26.3769L103.653 25.9243L105.015 25.8783L106.017 25.6567L107.513 25.8175L108.333 26.3499L110.68 27.5511L111.731 28.4456L112.25 28.5916L113.588 30.0833L115.238 31.4831L115.949 31.6777L116.209 32.0912Z" fill="#00212E"/>
<path d="M84.4711 68.0914L81.5025 68.0887L81.3984 67.4239L81.6592 66.293L84.0752 66.2957L84.4441 66.6983L84.2941 67.886L84.4711 68.0914Z" fill="#00212E"/>
<path d="M101.628 83.845L101.655 82.4438L102.035 81.9385L103.075 81.9466L103.606 80.9643L103.833 80.1481L104.483 79.4604L104.532 78.3618L104.275 77.7903L104.538 77.2701L104.33 75.9783L103.897 75.5635L104.57 74.9068L104.741 74.4488L106.159 74.2109L106.856 74.4879L108.553 75.6405L108.365 76.3202L108.327 77.6308L108.473 78.8834L108.108 80.0306L107.553 80.313L106.227 83.2465L105.53 84.0274L105.106 84.1072L104.467 85.5327L103.534 85.3922L102.154 84.9571L102.018 83.9991L101.628 83.845Z" fill="#00212E"/>
<path d="M84.4699 68.0911L84.2929 67.8857L84.4429 66.698L84.074 66.2954L81.6581 66.2927L81.3973 67.4236L81.5013 68.0884L84.4699 68.0911L84.4253 68.7181L83.9943 69.5964L84.6253 70.1193L84.9577 71.1692L83.8349 72.3326L83.7484 72.7663L84.5632 73.1365L84.3145 74.0526L84.5564 74.7539L83.697 75.2147L83.4268 75.6241L82.4391 76.1821L81.3068 75.7457L79.7569 75.7416L79.3516 75.5606L77.9274 76.6915L77.291 76.3402L76.6451 76.674L75.8952 76.5483L74.9439 76.8537L74.2575 78.2468L73.8305 78.3008L73.059 79.4102L72.4726 78.8629L71.5092 78.4251L70.8241 78.3292L68.1879 76.9226L66.857 76.8118L67.2475 75.893L66.3273 75.4984L66.3408 74.6147L66.1125 73.4716L65.7949 72.8798L65.876 72.188L66.3895 71.4056L66.4678 70.8138L67.0178 70.4868L67.6582 69.7153L67.8271 69.1126L68.9013 67.5682L70.0526 67.3101L70.5971 66.2643L70.7255 65.4306L71.1889 64.8847L71.9875 64.7645L72.5131 64.3267L72.9198 63.1457L72.9374 62.1945L73.2603 61.5662L73.2374 60.5122L73.4806 60.3555L74.1724 58.9583L74.14 58.4043L74.4453 57.6882L76.5316 58.0571L78.1058 58.6489L78.4368 57.4409L78.9705 56.7559L79.4137 57.4058L79.7623 58.7894L80.3177 58.3341L81.7891 58.2962L81.7216 58.7651L83.1701 59.184L84.1416 58.9191L84.6523 58.4962L85.8792 58.2922L86.7481 57.7963L87.8304 57.5085L88.3817 58.0084L87.9993 58.8124L87.7277 60.3082L87.8439 61.3391L88.1871 62.0431L88.8357 62.5755L88.8613 63.7051L88.5127 64.2632L87.6574 64.3996L86.9872 63.7402L86.7494 64.0429L86.867 64.8104L85.7982 64.8185L85.6347 66.0535L85.9738 67.4696L84.4699 68.0911Z" fill="#00212E"/>
<path d="M101.705 25.5663L101.708 26.4243L100.512 27.6945L99.6799 27.7553L99.0894 28.4471L98.9191 29.1848L98.0854 30.2117L98.4827 31.0319L98.1962 31.9143L98.5138 32.4845L98.5624 33.6965L97.7355 34.5964L97.826 35.9976L98.5111 36.5962L98.3084 37.9501L98.0652 38.2176L96.5059 38.423L96.0005 38.0528L94.7534 38.2568L93.8373 39.3243L91.9618 40.4579L90.6673 40.7498L90.2376 41.147L89.8336 42.8279L89.1432 44.4089L88.6513 45.1007L88.8891 46.1438L89.2391 46.7654L89.0783 47.1545L89.0526 48.4476L88.7567 49.5515L88.0095 49.1016L87.5055 49.107L87.0339 48.1166L86.6029 47.7869L86.8894 46.9748L86.1043 46.5789L85.8179 45.7047L85.2193 45.279L85.7516 44.7615L85.9611 43.6603L86.9542 43.0928L87.0664 42.0753L86.7029 41.8281L85.4071 42.2929L84.1559 40.6579L83.8599 39.8877L83.1073 39.6242L83.8518 38.9297L83.9086 37.9217L84.2667 36.6692L84.1275 35.3734L83.7343 34.1478L82.8006 33.8505L82.6087 33.4344L81.7818 33.4654L81.2197 33.1574L80.6495 33.2533L80.0117 33.76L82.8844 31.3386L83.36 31.3859L84.3085 30.2847L84.4329 29.6996L85.1531 29.1335L85.6273 27.5485L86.3218 26.877L86.7042 25.7852L86.4935 25.4623L87.2366 24.8339L87.3123 24.0165L87.6649 23.6962L87.9352 22.6112L88.0608 20.9546L88.3122 20.6533L89.0229 20.8087L90.9727 21.7964L91.451 21.4546L92.1226 21.5775L92.7022 22.5707L93.1941 22.6153L93.3035 23.6138L93.7535 24.1556L93.059 24.9339L92.713 26.2865L92.9509 26.6486L93.5603 26.0946L93.7683 24.8069L94.5642 24.4516L95.1195 24.8758L96.6342 24.8421L97.1545 24.3232L98.9732 24.9218L99.6109 25.4542L101.353 25.8122L101.705 25.5663Z" fill="#00212E"/>
<path d="M106.856 74.4879L106.159 74.2109L104.741 74.4487L104.57 74.9068L103.897 75.5634L104.331 75.9783L104.539 77.27L104.275 77.7902L104.532 78.3618L104.483 79.4603L103.833 80.1481L103.606 80.9642L103.075 81.9465L102.035 81.9384L101.655 82.4438L101.628 83.845L100.903 84.6233L100.043 86.6055L100.331 87.0136L97.8989 88.1351L96.9017 88.004L95.4978 88.1945L94.1115 88.8688L93.4886 88.8485L92.2725 89.3701L91.5753 89.5633L90.5767 90.1592L89.6214 90.1916L89.2836 90.8739L88.1743 91.0537L87.5041 90.9442L87.096 90.2713L87.2366 89.7795L86.511 89.3606L86.4596 87.4189L86.8366 86.8663L86.9407 86.0893L86.1934 85.8218L85.4516 85.9772L84.7314 84.3111L85.076 83.5031L84.5112 82.7059L84.6436 81.8074L83.9842 81.1264L83.5491 81.3142L82.7344 81.1791L82.6236 81.5966L81.3264 81.6087L78.9267 81.7749L78.4726 82.256L78.1889 81.3547L77.4106 80.9075L76.3431 81.0534L74.1569 80.6224L72.7989 81.4966L72.7422 80.3116L73.0597 79.4103L73.8313 78.301L74.2582 78.2469L74.9447 76.8539L75.8959 76.5485L76.6458 76.6741L77.2917 76.3404L77.9281 76.6917L79.3523 75.5607L79.7576 75.7418L81.3075 75.7459L82.4398 76.1823L83.4275 75.6242L83.6978 75.2148L84.5571 74.7541L84.3153 74.0528L84.5639 73.1367L83.7491 72.7665L83.8356 72.3327L84.9584 71.1693L84.626 70.1194L83.995 69.5965L84.4261 68.7182L84.4706 68.0913L85.9745 67.4697L85.6354 66.0537L85.7989 64.8187L86.8677 64.8106L86.7501 64.0431L86.9879 63.7404L87.6581 64.3998L88.5135 64.2633L88.8188 65.1105L89.3958 65.1619L89.9795 64.4822L90.4686 64.4052L91.0267 63.8512L92.1158 63.3891L93.1062 62.55L93.8804 62.2271L95.56 62.554L95.2979 63.1107L95.4438 63.6972L96.522 63.9944L97.5503 63.4985L98.3246 63.7607L99.4015 64.4633L100.951 65.2956L101.915 65.0808L103.232 66.3428L103.323 67.1481L103.964 67.1954L104.529 66.8941L106.809 67.3765L107.709 67.9683L107.951 68.4142L107.653 69.0412L106.652 69.8978L106.528 70.8734L105.862 71.0058L105.59 72.5705L105.978 73.1029L106.813 73.7245L106.856 74.4879Z" fill="#00212E"/>
<path d="M72.7992 81.4967L72.7181 81.9967L71.7507 82.498L70.9967 83.2344L70.84 84.1721L70.0752 85.0964L70.1225 85.6801L69.4725 86.6165L69.4874 87.0353L68.1173 88.7081L66.5891 89.631L66.0162 90.3944L64.6974 91.0214L64.2218 92.4537L63.4597 92.9333L63.1421 94.5426L62.5881 95.025L61.3842 94.167L60.4411 94.7196L59.5844 94.9061L58.9048 94.6818L58.5616 93.4792L58.4724 91.8713L58.1589 90.7674L58.2832 90.1634L57.5252 88.9703L56.4104 88.923L55.4889 88.2879L55.0511 88.8446L54.2836 88.9203L53.4135 88.6811L52.7162 88.7284L50.7908 88.3001L51.2083 85.753L51.3286 84.5261L51.1867 83.7019L50.8448 83.6195L50.2422 81.7953L51.211 81.1481L50.3611 80.3631L51.4475 78.0431L51.4677 77.5715L52.2541 75.2366L51.6299 74.0462L51.6353 73.657L52.4176 74.2327L53.5526 73.8313L54.6768 72.2923L56.0078 72.218L56.2794 71.9653L58.321 72.5599L58.5345 72.9423L59.652 73.5192L60.564 73.3909L61.2086 72.9314L61.6991 72.945L62.3301 73.4949L62.9665 73.3287L64.1001 72.1072L64.1231 73.4246L63.4245 74.1408L64.0312 74.6232L66.3418 74.6151L66.3283 75.4987L67.2485 75.8933L66.858 76.8121L68.1889 76.9229L70.8251 78.3295L71.5102 78.4254L72.4736 78.8632L73.06 79.4105L72.7425 80.3117L72.7992 81.4967Z" fill="#00212E"/>
<path d="M42.089 60.4018L43.2159 59.587L43.6105 58.3209L44.128 57.994L44.7752 56.8738L44.9022 56.0698L44.482 54.67L44.1847 54.5727L44.1266 53.6444L44.7171 52.9175L44.432 52.1865L43.2848 52.0932L43.0876 51.7541L39.6204 51.7446L39.8014 49.9137L39.4501 48.8341L39.765 47.387L39.3447 46.3506L39.7582 45.0467L39.3542 44.5981L49.0234 44.5332L49.2666 44.3833L49.7841 42.4646L49.5396 41.6174L50.0395 40.9458L50.3152 40.0459L51.0475 41.0904L51.4042 42.2538L51.8285 42.978L52.0244 44.4076L52.9406 45.1953L53.6229 45.5399L53.708 46.0547L54.3958 46.1925L55.6389 46.8344L62.5165 47.3275L75.2395 48.0356L74.7733 48.8814L74.1315 50.8231L74.0139 52.027L73.6329 53.2458L73.9261 53.6917L73.8478 55.6037L74.0423 56.3401L73.8923 56.9008L74.4463 57.6886L74.141 58.4047L74.1734 58.9587L73.4816 60.3559L73.2384 60.5126L73.2613 61.5665L72.9384 62.1949L72.9208 63.1461L72.5141 64.3271L71.9885 64.7648L71.1899 64.8851L70.7265 65.431L70.5981 66.2647L70.0536 67.3105L68.9023 67.5686L67.8281 69.113L67.6592 69.7157L67.0188 70.4872L66.4688 70.8142L66.3904 71.406L65.877 72.1884L65.7959 72.8802L66.1135 73.472L66.3418 74.6151L64.0312 74.6232L63.4246 74.1409L64.1231 73.4247L64.1002 72.1073L62.9665 73.3288L62.3301 73.495L61.6991 72.945L61.2086 72.9315L60.5641 73.3909L59.652 73.5193L58.5345 72.9423L58.3211 72.5599L56.2794 71.9654L56.0078 72.2181L54.6769 72.2924L53.5526 73.8314L52.4176 74.2327L51.6353 73.6571L51.0529 72.7788L50.4543 72.7572L49.5734 72.1735L49.2423 70.1805L49.6504 69.6265L49.3585 69.0468L43.9307 68.8279L43.7199 66.2552L42.6336 65.0094L43.6199 64.9973L43.5497 63.4623L42.916 61.98L43.224 61.3922L42.9322 60.795L42.089 60.4018Z" fill="#00212E"/>
<path d="M79.5146 21.5288L78.6012 21.9274L77.5081 21.968L76.5622 22.5598L75.8015 22.2247L74.7908 22.626L74.1449 22.5098L73.9328 22.0085L73.4463 21.3924L73.5288 18.8683L73.9328 17.6644L74.9354 17.1523L77.0905 17.6198L78.5269 17.2644L80.9861 17.663L80.5794 19.6763L79.5146 21.5288ZM76.6987 16.8361L77.073 16.5929L77.8053 16.7239L77.7472 17.209L76.9352 17.3293L76.6987 16.8361ZM73.2666 17.7292L72.9045 17.1198L73.7693 16.8537L74.2152 17.0334L73.2666 17.7292ZM71.5884 18.3697L72.0654 17.4725L72.3856 17.736L71.5884 18.3697ZM69.9764 21.4937L70.0278 20.5681L70.548 20.4276L70.8953 19.1507L71.6128 18.5494L72.1938 18.5089L72.3384 18.9899L71.9452 20.0533L71.2939 20.7478L69.9764 21.4937ZM75.7312 16.8361L74.8111 16.7145L74.7367 16.2389L75.8677 15.897L76.8392 15.774L77.0959 16.1727L76.2204 16.9604L75.7312 16.8361ZM75.1705 15.7578L75.0002 15.239L75.7326 14.785L75.9001 15.1282L75.1705 15.7578ZM75.2394 48.0354L62.5164 47.3274L55.6388 46.8342L54.3957 46.1924L53.7079 46.0546L53.6228 45.5397L52.9405 45.1952L52.0243 44.4074L51.8284 42.9779L51.4041 42.2536L51.0474 41.0902L50.3151 40.0457L50.0421 39.2756L49.43 38.7243L49.3868 37.823L49.8381 37.3271L55.878 24.261L55.5131 23.9205L54.6727 23.6989L54.4497 23.257L53.3661 22.4004L51.7757 21.8342L49.5111 20.1452L49.3314 19.4926L48.3761 18.8372L48.4207 18.1832L48.0788 18.0103L47.9977 16.1254L47.6748 12.6744L48.1869 13.0933L49.1044 12.8325L49.1598 12.2487L49.8057 11.8447L50.7204 12.0555L51.5014 11.4178L52.2311 11.4245L52.5554 10.8394L53.5809 10.4557L53.8849 10.7719L54.62 10.9205L55.07 10.7192L56.0198 10.7638L56.9643 11.0448L57.3535 10.3773L56.686 9.74226L57.1062 8.8802L57.9534 9.26529L60.3005 8.79102L60.9126 9.08693L61.1125 9.6693L60.9369 10.8584L61.0477 11.261L62.1868 11.2826L62.8367 11.5961L63.7028 12.4136L64.4081 12.3258L65.2175 13.1L65.1959 13.8715L66.1215 14.4796L66.1066 15.6146L66.489 16.4051L66.7646 17.4347L67.0876 17.3982L67.6794 18.0643L68.005 18.8832L68.0456 19.6115L68.8036 20.4087L69.9764 20.4654L69.894 21.0464L68.7401 21.6775L69.1819 21.9693L70.0629 21.7356L71.4006 21.0221L73.3666 19.7655L73.3369 21.0627L73.4031 21.3924L73.568 21.7193L73.8314 21.995L73.8679 22.4247L73.4977 22.7976L71.987 22.3679L72.8464 23.2381L73.3774 23.0192L73.8341 22.5463L74.6597 22.9949L75.9636 22.5801L76.4717 22.8381L78.2526 22.4085L77.531 23.9583L77.7607 24.4015L78.5782 22.7692L79.2187 22.6422L79.9754 21.5626L80.7618 20.9519L81.2077 20.9924L81.2928 19.9425L82.1022 19.0696L82.3994 19.2845L82.9926 18.8602L83.3385 19.1575L84.0722 18.6737L84.533 18.7264L85.6666 19.4872L86.599 19.4399L86.8868 20.0817L87.9813 19.856L88.3123 20.6532L88.061 20.9546L87.9353 22.6111L87.6651 23.6962L87.3124 24.0164L87.2367 24.8339L86.4936 25.4622L86.7044 25.7851L86.322 26.8769L85.6275 27.5484L85.1532 29.1334L84.433 29.6996L84.3087 30.2846L83.3601 31.3859L82.8845 31.3386L80.0118 33.7599L81.1131 33.8978L81.8306 34.5666L81.3482 34.9787L81.5725 35.5368L81.3847 36.0962L80.9618 36.288L80.1916 37.4582L80.1726 37.8676L78.9768 38.3459L78.4404 38.7783L78.539 39.766L77.9945 40.5349L78.1188 41.024L78.6377 41.5037L78.1472 43.3724L77.2095 44.8817L76.7217 45.102L75.7961 46.3788L75.2394 48.0354Z" fill="#00212E"/>
<path d="M123.615 40.6939L123.108 40.2764L122.407 40.1791L121.641 40.6574L121.551 41.0236L120.369 41.5506L119.144 41.5573L118.341 41.887L117.692 42.8477L117.088 43.0504L116.571 42.6991L116.364 40.7777L116.891 40.2169L116.184 39.8251L115.436 40.1656L113.885 41.4276L113.024 41.6722L112.75 41.2141L112.181 41.4127L111.619 40.9385L112.148 39.9507L111.69 39.5103L111.515 38.6171L112.159 37.0038L113.427 37.451L114.481 36.7403L114.585 36.3363L116.172 35.8525L116.411 36.1998L115.809 36.8551L115.329 37.9442L116.044 38.0496L116.228 38.4239L116.865 38.1685L117.617 38.2131L117.86 38.913L118.546 38.3293L118.529 37.0213L119.177 36.7389L119.366 37.12L120.165 37.2727L121.342 37.1943L122.277 37.478L123.384 37.3916L123.403 37.8793L123.931 39.5157L123.875 40.5696L123.615 40.6939Z" fill="#00212E"/>
<path d="M113.076 46.3993L112.826 45.5886L111.614 44.8846L110.692 44.5698L109.355 43.8631L108.509 44.2495L107.844 44.8089L107.639 45.4589L106.616 45.7588L106.46 46.4858L105.52 46.8979L105.281 46.0237L104.835 45.8385L104.703 44.8886L104.046 44.5036L103.187 44.4171L104.222 43.6334L104.881 43.305L105.665 42.5186L105.828 41.7012L105.442 41.2674L105.344 40.3081L105.812 40.2081L107.317 40.2608L108.633 40.1608L109.579 40.7175L109.876 41.1377L110.768 41.6728L111.618 40.9391L112.18 41.4133L112.749 41.2147L113.023 41.6728L113.884 41.4282L115.435 40.1662L116.184 39.8257L116.89 40.2175L116.363 40.7783L116.57 42.6997L117.088 43.051L117.692 42.8483L118.34 41.8876L119.143 41.5579L120.368 41.5512L121.551 41.0242L121.64 40.658L122.406 40.1797L123.107 40.277L123.614 40.6945L123.86 41.9417L122.807 45.0603L121.778 44.7968L120.963 45.0981L120.106 44.9738L119.329 45.7831L118.352 46.2142L116.977 46.3101L116.231 45.9993L115.333 45.1575L114.574 44.8724L113.911 45.8048L113.076 46.3993Z" fill="#00212E"/>
<path d="M103.573 26.3771L103.011 27.3176L103.034 27.8756L103.396 28.8363L104.397 30.8185L104.244 31.2496L104.305 32.3616L104.629 33.3777L104.51 33.6993L104.746 35.695L105.268 37.9097L106.049 38.1394L106.204 38.515L105.67 39.6041L105.812 40.2081L105.344 40.3081L105.441 41.2674L105.828 41.7011L105.664 42.5186L104.881 43.305L104.221 43.6334L103.186 44.4171L102.79 45.121L102.016 45.2981L101.661 46.152L101.034 46.0128L100.161 46.3547L99.6907 46.8749L98.4422 47.0492L97.649 46.5222L96.9397 46.7209L96.0938 46.406L95.4398 46.7411L95.8803 47.8329L95.7965 48.7761L95.0547 49.9759L94.1805 50.5556L93.6116 50.4124L92.5645 51.0001L92.3469 51.3379L91.5565 51.4082L90.7106 51.0299L90.2471 50.0746L89.8229 49.5908L89.3513 49.5949L88.7568 49.5516L89.0527 48.4477L89.0783 47.1546L89.2391 46.7655L88.8892 46.1439L88.6514 45.1008L89.1432 44.409L89.8337 42.828L90.2377 41.1472L90.6674 40.7499L91.9618 40.458L93.8373 39.3244L94.7534 38.2569L96.0006 38.0529L96.5059 38.4231L98.0652 38.2177L98.3084 37.9502L98.5111 36.5963L97.8261 35.9977L97.7355 34.5965L98.5625 33.6966L98.5138 32.4846L98.1963 31.9144L98.4827 31.032L98.0855 30.2118L98.9192 29.1849L99.0894 28.4472L99.6799 27.7554L100.512 27.6946L101.708 26.4244L101.705 25.5664L102.227 25.9326L103.308 26.0826L103.573 26.3771Z" fill="#00212E"/>
<path d="M80.4377 101.733L78.4676 101.887L77.5177 102.61L75.9855 101.843L73.9559 102.025L73.3101 102.7L72.5899 102.618L71.8994 103.329L72.0724 103.937L69.6361 103.849L69.0781 103.397L67.1472 102.982L66.1325 103.093L65.6595 102.702L64.461 102.724L63.9043 101.628L63.7098 100.516L63.0193 100.036L61.9316 100.513L61.4141 99.8593L62.0099 98.8378L61.9275 98.3649L62.5707 96.0611L62.2964 95.3503L62.5883 95.0247L63.1423 94.5423L63.4598 92.933L64.2219 92.4534L64.6975 91.0211L66.0163 90.3941L66.6743 89.9293L68.9214 90.0982L69.3821 89.7739L70.9603 90.3063L71.9629 90.2212L73.1844 90.7576L73.4547 91.1292L75.4288 91.2413L76.0287 91.067L77.1624 92.3155L77.1286 93.5289L77.6042 94.918L78.4325 96.0746L78.1258 96.7205L78.5163 97.2555L80.4296 97.1893L80.4066 98.3325L81.0484 97.8649L81.6335 97.9487L81.7011 99.0162L82.0186 99.4026L81.0336 99.3364L81.0836 100.23L80.4377 101.733Z" fill="#00212E"/>
<path d="M92.6043 92.6132L92.1787 92.2078L92.3881 91.412L93.084 90.9728L94.0461 90.785L94.2285 90.0148L92.8922 90.0391L92.2719 89.3703L93.488 88.8487L94.1109 88.869L95.4973 88.1947L96.9012 88.0042L97.8984 88.1353L100.331 87.0138L100.043 86.6057L100.902 84.6235L101.628 83.8452L102.018 83.9992L102.153 84.9573L103.534 85.3923L104.467 85.5329L104.218 86.549L104.448 87.9272L103.726 88.4217L102.519 88.8163L101.24 89.9148V90.8228L100.725 91.2282L99.4023 91.1931L98.2335 91.3349L97.6389 91.0255L97.1349 91.4457L96.1337 91.466L95.3392 91.0471L94.1474 91.566L93.8745 91.1296L92.7638 91.5917L92.6043 92.6132Z" fill="#00212E"/>
<path d="M123.383 37.3921L122.276 37.4786L121.341 37.1948L120.164 37.2732L119.366 37.1205L119.177 36.7395L118.528 37.0219L118.546 38.3298L117.859 38.9135L117.616 38.2136L116.865 38.169L116.227 38.4244L116.043 38.0501L115.328 37.9447L115.808 36.8557L116.411 36.2003L116.172 35.8531L114.584 36.3368L114.48 36.7408L113.426 37.4515L112.158 37.0043L111.964 36.6449L112.419 36.0085L112.888 36.0449L113.581 35.0167L114.695 32.8237L115.222 32.4142L116.209 32.0913L116.478 32.3967L117.358 32.4778L117.965 32.9372L119.22 32.9763L120.205 32.7804L121.371 32.9763L122.101 33.5087L122.565 34.4735L123.383 37.3921Z" fill="#00212E"/>
<path d="M23.4945 48.2736L22.8945 48.0168L24.2538 47.0115V46.6346L25.6321 46.6197L26.2455 47.1696L26.6752 46.7508L28.0359 46.1603L28.4399 46.7102L29.3614 45.286L29.987 45.4212L30.6599 45.1266L31.4409 45.2212L31.4139 44.555L32.0692 43.8686L32.1016 43.1741L32.6029 43.066L33.265 42.1621L35.4445 42.1499L35.8796 42.3796L36.3998 43.1268L36.9119 43.3241L37.166 43.9902L37.7186 44.6334L38.3739 44.9347L39.009 44.3199L39.3536 44.5983L39.7576 45.0469L39.3441 46.3508L39.7643 47.3872L39.4495 48.8343L39.8008 49.9139L39.6197 51.7448L43.0869 51.7543L43.2842 52.0934L44.4314 52.1867L44.7165 52.9177L44.126 53.6446L44.1841 54.5729L44.4814 54.6702L44.9016 56.07L44.7746 56.874L44.1274 57.9941L43.6099 58.3211L43.2153 59.5872L42.0884 60.402L41.1588 59.7885L39.7278 59.9831L38.7266 59.9682L37.8578 59.0697L37.7699 58.6887L36.9146 58.663L35.7013 58.209L34.9932 57.6712L34.7635 57.0902L34.1947 57.2388L32.8556 56.4794L32.0476 56.7267L30.6437 56.4713L30.1924 55.7417L29.4911 55.4444L29.2682 55.0526L28.6412 54.9269L28.471 54.1702L27.6886 53.3311L27.3994 52.288L27.7129 51.6962L27.2859 50.5179L27.2738 50.0518L27.7575 49.1613L27.7156 48.029L27.2724 47.5074L26.8725 48.0074L26.3158 47.8006L25.2686 47.8169L23.4945 48.2736Z" fill="#00212E"/>
<path d="M47.6744 12.6746L47.9973 16.1255L44.2612 16.1134L43.4627 17.5308L43.2154 18.2983L43.3816 19.055L42.6857 19.4522L42.0655 19.4995L41.5007 18.5739L40.9305 18.3848L39.8157 18.8631L39.4428 19.7225L39.3158 20.9075L38.5497 21.1953L38.0416 20.4454L37.539 20.1711L36.5269 19.2712L37.1701 18.7199L36.9417 17.8402L36.3999 17.0444L36.3404 16.0323L36.612 15.2162L36.4053 14.573L36.7337 14.2744L36.1743 12.5286L35.6216 11.7666L35.95 10.7869L35.0041 10.4789L33.7759 9.80461L33.8826 9.24656L32.3828 9.18441L31.7139 9.04118L31.8599 8.26018L31.1734 6.76035L31.2207 5.50913L29.8452 4.32142L29.5723 3.75662L30.7627 3.72419L31.4221 3.86471L31.6545 4.50113L32.3003 4.34169L33.6529 4.31602L34.211 4.53356L35.0041 5.46319H35.6648L35.8337 5.06188L35.7378 4.14712L36.7404 3.63366L37.6781 3.91741L38.8753 3.44314L39.5333 3.42557L39.682 2.97697L40.2927 2.60944L41.3223 2.57026L41.6399 1.96762L42.1641 1.75683L42.6114 1.19879L42.3695 0.47454L44.0747 0.270508L44.4882 0.977188L44.3545 1.97573L44.6193 2.60539L45.4624 2.99454L45.2841 3.51881L45.7543 4.21603L45.4908 5.12404L44.9652 5.71586L45.0328 6.23608L44.5531 7.29002L44.472 8.35612L44.772 9.37898L45.2962 9.76678L45.2273 10.9653L45.9881 11.5139L46.819 12.4638L47.6744 12.6746Z" fill="#00212E"/>
<path d="M63.866 105.929L65.2348 105.774L67.0616 106.035L67.4481 106.268L68.8466 106.189L69.8032 106.66L70.0059 107.156L70.7112 107.026L72.5719 108.253L74.2852 110.363L75.6377 110.577L76.7417 110.565L76.9187 111.041L76.2417 111.446L75.9566 112.85L76.9106 113.641L75.8391 115.422L74.9905 117.777L73.7163 119.903L72.6164 121.256L72.2124 121.232L72.3178 120.037L73.6042 119.056L74.1811 117.76L74.2771 117.136L73.1002 117.246L72.4043 117.032L70.7504 120.568L69.9221 120.886L69.4546 122.238L68.979 122.503L69.102 123.237L68.9466 124.398L68.4791 125.315L68.0899 126.711L67.344 128.134L65.3307 129.986L64.8254 129.669L64.8389 127.94L64.9956 127.47L66.2009 126.151L65.2362 125.569L64.5214 124.784L64.4146 124.221L63.6147 123.236L62.8391 123.032L61.896 122.234L61.4839 121.451L60.8123 121.357L59.4827 120.671L58.8733 119.616L58.3612 119.186L57.5613 120.018L57.0222 120.045L57.0452 119.001L56.306 118.131L54.4914 116.474L53.6725 116.488L53.2226 117.156L52.0781 116.809L52.8699 116.012L53.0145 115.384L53.5685 115.226L54.8562 113.707L55.0183 113.192L55.7021 112.718L56.1817 111.662L57.0154 110.888L57.387 110.202L58.2288 109.383L58.7923 109.188L59.1909 108.601L60.1354 108.286L60.792 107.224L61.1934 107.294L62.4729 106.829L63.3391 106.001L63.866 105.929Z" fill="#00212E"/>
<path d="M76.9117 113.641L75.9578 112.85L76.2429 111.446L76.9198 111.041L76.7428 110.565L75.6389 110.578L74.2863 110.363L72.573 108.253L70.7124 107.027L70.0071 107.156L69.8044 106.66L68.8477 106.189L67.4492 106.269L67.0628 106.035L65.236 105.774L63.8672 105.929L64.309 104.909L64.2685 103.08L64.4617 102.724L65.6602 102.703L66.1332 103.093L67.1479 102.982L69.0788 103.397L69.6368 103.85L72.0731 103.938L71.9001 103.33L72.5906 102.619L73.3108 102.7L73.9566 102.026L75.9861 101.843L77.5184 102.611L78.4683 101.888L80.4384 101.734L80.4478 102.416L79.8979 102.816L80.3573 103.346L80.1208 104.282L80.3465 105.709L80.256 107.622L80.5019 108.395L80.2222 109.686L79.6236 111.092L77.8927 112.361L76.9117 113.641Z" fill="#00212E"/>
<path d="M115.43 53.4146L114.845 53.5943L113.817 52.9565L113.887 52.5052L113.241 51.6797L113.228 50.8149L113.8 50.9703L114.515 50.5392L114.361 49.9798L114.527 48.8381L113.715 47.699L113.807 47.0288L115.114 47.6369L115.857 47.8287L116.953 48.453L117.215 48.9516L118.724 49.8663L118.846 50.1325L118.363 50.2879L116.889 51.2878L115.953 53.0917L115.43 53.4146Z" fill="#00212E"/>
<path d="M82.0179 99.403L81.7004 99.0165L81.6329 97.9491L81.0478 97.8653L80.406 98.3328L80.4289 97.1897L78.5156 97.2559L78.1251 96.7208L78.4318 96.0749L77.6036 94.9183L77.1279 93.5293L77.1617 92.3159L76.0281 91.0674L75.4281 91.2417L73.454 91.1295L73.1838 90.7579L71.9623 90.2215L70.9597 90.3067L69.3815 89.7743L68.9207 90.0986L66.6737 89.9297L66.0156 90.3945L66.5885 89.631L68.1168 88.7082L69.4869 87.0354L69.472 86.6165L70.1219 85.6801L70.0746 85.0964L70.8394 84.1722L70.9962 83.2344L71.7501 82.498L72.7176 81.9967L72.7987 81.4968L74.1566 80.6226L76.3429 81.0536L77.4103 80.9077L78.1886 81.3549L78.4724 82.2562L78.9264 81.7751L81.3261 81.6089L82.6233 81.5968L82.7341 81.1793L83.5489 81.3144L83.984 81.1266L84.6433 81.8076L84.5109 82.7061L85.0757 83.5033L84.7312 84.3113L85.4514 85.9774L86.1932 85.822L86.9404 86.0895L86.8363 86.8665L86.4594 87.4191L86.5107 89.3608L87.2363 89.7797L87.0958 90.2715L87.5038 90.9444L88.174 91.0539L89.2834 90.8742L89.6212 90.1918L90.5765 90.1594L91.575 89.5635L92.2722 89.3703L92.8924 90.0391L94.2288 90.0148L94.0464 90.785L93.0843 90.9728L92.3884 91.4119L92.179 92.2078L92.6046 92.6132L92.0358 92.5713L91.5507 93.1036L90.4441 93.5603L90.4954 94.1603L89.1064 94.0076L88.3159 94.2738L87.97 94.8129L87.2106 94.9129L85.6716 95.7763L84.7555 96.7884L83.7124 97.2924L82.1085 98.4841L82.6098 98.6666L82.0179 99.403Z" fill="#00212E"/>
<path d="M87.8313 57.5091L86.749 57.7969L85.8801 58.2928L84.6532 58.4969L84.1425 58.9198L83.171 59.1846L81.7225 58.7658L81.79 58.2969L80.3186 58.3347L79.7632 58.7901L79.4146 57.4064L78.9714 56.7565L78.4377 57.4416L78.1067 58.6495L76.5325 58.0577L74.4462 57.6888L73.8922 56.9011L74.0422 56.3403L73.8477 55.6039L73.926 53.692L73.6328 53.2461L74.0139 52.0273L74.1314 50.8234L74.7732 48.8817L75.2394 48.0358L75.7961 46.3793L76.7217 45.1024L77.2095 44.8821L78.1472 43.3728L78.6377 41.5041L78.1188 41.0244L77.9945 40.5353L78.539 39.7665L78.4404 38.7787L78.9768 38.3463L80.1726 37.868L80.1916 37.4586L80.9618 36.2885L81.3847 36.0966L81.5725 35.5372L81.3482 34.9791L81.8306 34.567L81.1131 33.8982L80.0119 33.7604L80.6496 33.2537L81.2198 33.1577L81.7819 33.4658L82.6089 33.4347L82.8007 33.8509L83.7344 34.1481L84.1276 35.3737L84.2668 36.6695L83.9087 37.9221L83.852 38.9301L83.1075 39.6246L83.8601 39.8881L84.156 40.6583L85.4072 42.2932L86.703 41.8284L87.0665 42.0757L86.9543 43.0931L85.9612 43.6606L85.7518 44.7619L85.2194 45.2794L85.818 45.705L86.1044 46.5792L86.8895 46.9751L86.603 47.7872L87.0341 48.1169L87.5056 49.1073L88.0096 49.1019L88.7569 49.5519L89.3514 49.5951L89.0541 50.0235L87.6327 50.9666L86.8327 52.9434L87.2084 53.342L87.9326 53.4785L88.2069 53.9244L87.7975 54.4541L88.3677 54.7094L87.5475 55.2796L87.4975 56.0458L87.7597 56.4336L88.0556 56.5336L87.8313 57.5091Z" fill="#00212E"/>
</g>
<defs>
<clipPath id="clip0_350_155">
<rect width="124.2" height="130.256" fill="white"/>
</clipPath>
</defs>
</svg>
