<svg width="116" height="151" viewBox="0 0 116 151" fill="none" xmlns="http://www.w3.org/2000/svg">
<g clip-path="url(#clip0_350_140)">
<path d="M40.7324 136.819H39.2011H37.5328H35.4345L35.2693 136.471L35.0528 136.385L34.749 135.967L34.7631 135.72L34.5824 135.67L34.6774 135.343L34.6229 134.931L34.6665 134.827L34.4873 134.067L34.2225 133.685L33.9437 133.668L33.7599 133.308L33.386 133.047L33.4047 132.825L33.1773 132.603L32.9124 132.48L32.8626 132.296L32.5448 132.025L32.5043 131.816L32.1694 131.391L32.0292 131.096L31.8267 131.255L31.6849 131.212L31.5572 130.895L31.2861 130.554L31.188 130.322L30.8391 130.353L30.5337 130.076L30.6506 129.839L30.2985 129.619L30.0524 129.836L29.8437 129.324L29.8842 129.214L29.6474 128.753L29.5119 128.738L29.2533 128.179L29.0071 127.999L28.9682 128.21L28.6566 128.057L28.4759 127.745L28.0538 127.641L27.8326 127.389L27.8435 126.965L27.6924 126.666V124.079V122.312V119.595V117.737V115.84L27.6939 113.9V111.916H30.1381H31.7675H33.3969H35.0279H36.6573H38.2867H40.7308V113.691V115.431V117.978V119.636L40.7324 121.264V122.862V124.434V126.741V128.247V130.464V132.628V134.045V135.441V136.819Z" fill="#00212E"/>
<path d="M22.2786 135.745L22.0075 135.63L21.657 135.332L21.9296 135.35L22.2786 135.745ZM16.0429 129.567L15.764 129.363L15.6332 129.112L15.7173 128.963L15.9681 129.243L16.0429 129.567ZM20.9358 134.6L20.8377 134.535L20.7084 134.164L20.9202 134.005L21.0791 134.349L20.9358 134.6ZM14.3776 124.015L14.3901 124.194L14.2016 124.495L13.9056 124.596L14.3776 124.015ZM12.3697 128.087L12.5021 128.288L12.5254 128.681L12.1734 128.801L12.4039 129.039L12.7591 129.156L12.5831 129.422L12.8526 129.77L12.9258 129.98L13.1672 130.036L13.0644 130.329L12.8027 130.148L12.6205 129.802L12.2965 129.5L11.8338 128.98L11.7123 128.656L11.8618 128.514L11.4381 128.357L11.5986 128.217L12.002 128.123L12.1874 128.009L12.3697 128.087ZM18.311 133.491L18.9574 133.747L19.6055 133.873L20.5464 134.153L20.8719 134.773L21.2614 135.342L21.266 135.519L21.3969 135.747L21.6415 135.951L22.2365 136.206L22.4842 136.36L22.7132 136.639L22.802 136.903L22.9656 137.155L23.1354 137.633L23.274 137.459L23.4126 137.882L23.2023 137.939L23.0076 138.122L22.587 138.018L21.5807 137.604L21.0184 137.28L20.9981 137.158L21.2598 136.893L21.2707 136.778L20.7021 136.809L20.576 136.923L20.0946 136.624L20.2597 136.529L20.0868 136.255L19.9342 136.312L19.8454 136.072L19.5541 135.923L19.1568 135.969L19.1646 135.625L19.4185 135.483L19.0992 135.275L18.9808 135.049L18.6942 134.912L18.4185 135.043L18.2969 134.814L18.1116 134.692L17.9589 134.466L17.4417 134.539L17.4589 134.159L17.3124 134.094L17.3872 133.891L17.7315 133.821L17.9293 133.927L17.881 133.58L17.5882 133.558L17.6146 133.706L17.1878 133.782L16.9152 133.555L16.8124 133.276L16.9495 133.103L17.3701 133.038L17.638 133.119L18.311 133.491ZM14.3776 124.015L14.6082 123.395L14.4649 122.574L14.6237 122.034L14.496 122.49L14.6331 123.425L14.3776 124.015ZM14.8543 128.148L14.7421 128.129L14.4586 127.76L14.2577 127.626L13.9819 127.325L14.0676 127.134L14.4025 127.313L14.7281 127.562L14.9758 127.98L14.8543 128.148ZM22.7148 111.916H25.2041H27.6949V113.901L27.6934 115.84V117.737V119.596V122.313V124.079V126.667L27.8445 126.966L27.8336 127.389L28.0548 127.642L28.4769 127.746L28.6576 128.058L28.9692 128.21L29.0081 128L29.2542 128.179L29.5128 128.738L29.6484 128.754L29.8851 129.215L29.8446 129.324L30.0534 129.837L30.2995 129.62L30.6516 129.84L30.5347 130.076L30.84 130.354L31.189 130.323L31.2871 130.555L31.5582 130.896L31.6859 131.212L31.8277 131.256L32.0302 131.097L32.1704 131.391L32.5053 131.817L32.5458 132.025L32.8636 132.296L32.9134 132.48L33.1782 132.603L33.4057 132.826L33.387 133.047L33.7608 133.309L33.9447 133.669L34.2235 133.686L34.4883 134.067L34.6675 134.828L34.6238 134.932L34.6784 135.343L34.5833 135.67L34.764 135.72L34.75 135.968L35.0538 136.385L35.2703 136.471L35.4354 136.82H34.1986H31.9741H30.3073H28.0828H25.8599H24.0591L23.8815 136.658L23.7195 136.82L23.5263 136.512L23.422 136.121L23.4921 135.625L23.3597 135.652L23.3457 135.89L23.0917 136.013L22.6634 135.842L22.4094 135.482L22.6431 135.331L22.5154 135.018L22.2942 135.219L22.1119 135.259L21.8486 135.186L21.4592 134.758L21.4561 134.65L21.1009 133.946L20.9015 133.828L20.5541 133.784L20.266 133.851L20.1678 133.762L19.917 133.804L19.3438 133.717L19.1973 133.318L19.3531 133.147L19.0478 132.924L18.4932 133.022L17.9932 132.77L17.6442 132.435L17.6365 132.19L17.7268 131.753L17.4994 131.489L17.4339 131.13L17.448 130.675L17.5305 130.249L17.9963 129.897L18.2518 129.813L18.3234 129.508L17.8904 129.89L17.5352 130.039L17.3919 130.334L17.1302 131.101L17.0118 130.658L16.7984 130.316L17.2159 129.978L17.1847 129.745L16.9059 129.728L17.1224 128.819L16.7875 128.889L16.6753 128.779L16.5803 128.207L16.4136 127.983L16.1317 127.799L15.8544 127.713L15.736 127.349L15.8108 127.112L16.0444 126.95L16.1784 127.315L16.5569 127.597L16.652 127.486L16.3825 127.302L16.2625 126.961L16.3451 126.5L16.0133 126.671L15.6893 127.112L15.5896 127.656L15.3575 127.759L15.225 127.966L14.8886 127.614L14.7717 127.31L14.5599 127.257L14.2187 126.93L14.3527 126.614L14.5443 126.374L14.6004 126.023L14.2779 125.718L14.0957 125.381L14.1736 124.934L14.3714 124.687L14.7998 123.701L15.2297 123.017L15.0459 123.073L14.8683 123.347L14.6752 123.255L14.5521 122.786L14.5334 122.481L14.6237 122.034L14.6269 121.739L14.1175 121.487L14.0349 121.233L13.8106 121.157L13.6891 120.974L13.2451 120.823L12.6033 120.365L12.2778 120.387L12.2232 119.904L11.9132 119.753L12.0083 119.347L11.6079 119.22L11.7466 118.934L11.3306 118.205L10.3866 116.434L10.1935 116.15L10.2215 115.966L9.67474 115.231L9.15601 114.867L8.86626 114.271L8.21045 113.756L8.04377 113.363L8.07025 113.011L7.51724 112.457L6.91906 112.795L6.41435 112.943L6.51093 113.128L6.22586 113.318V113.776L6.07943 114.102L5.77255 114.108L5.16814 114.518L4.95784 114.733L4.75689 113.913L3.40164 112.496L3.30661 112.176L2.84863 111.915L4.10107 111.916H6.58259H7.82412H10.3056H11.5472H14.0287H15.2702H17.7517H20.2332H22.7148ZM17.3623 131.762L17.1442 131.684L17.0694 131.441L17.2221 131.27L17.3732 131.528L17.3623 131.762ZM14.348 126.413L14.1549 126.665L13.7498 126.428L14.0115 126.156L14.1377 126.129L14.348 126.413ZM11.1936 126.037L11.3135 126.168L11.6001 126.084L11.8322 126.419L11.7684 126.73L11.3119 127.011L11.3509 127.089L11.8042 127.017L11.9039 126.54L11.8743 126.244L12.1267 126.227L12.4818 126.006L12.4367 126.35L12.2824 126.671L12.15 127.23L12.1422 127.687L12.0347 127.936L11.5955 128.101L11.3696 128.09L11.0736 127.836L11.1749 127.514L10.9474 127.405L10.6764 126.811L10.6172 126.497L10.6624 126L11.1936 126.037ZM16.7828 129.801L16.6956 129.46L16.6909 129.168L16.9401 129.072L16.842 129.676L16.7828 129.801ZM19.0353 135.594L18.9029 135.579L18.6474 135.368L18.6646 135.127L18.9091 135.114L19.0244 135.312L19.0353 135.594ZM16.5445 128.642L16.599 129.55L16.451 129.932L16.3108 129.896L16.2641 129.379L15.8497 128.896L15.7282 128.474L15.9167 127.903L16.2983 128.123L16.4385 128.268L16.5445 128.642Z" fill="#00212E"/>
<path d="M68.1787 119.766L66.8328 121.267L65.9215 122.316L65.0102 123.352L64.2142 124.305L63.4166 125.247L62.0878 126.877L60.5877 128.396L60.0877 128.896L60.0846 131.648L60.0799 134.323L60.0861 136.069L60.0768 136.822L59.2138 136.82H57.5454H55.3225H54.2103H51.9873L51.8861 135.108L51.7833 133.368L51.6789 131.597L51.5761 129.791L51.4717 127.95L51.3673 126.071L51.2645 124.155L51.1602 122.197V119.736V117.206V115.261V111.916H52.9189H54.6791H56.4394H57.6124H59.3727L60.5862 111.915L60.5644 113.807L60.4569 114.265L60.6625 114.733L60.8884 114.871L61.0457 115.13L61.2186 115.205L61.8791 115.061L62.2623 115.133L62.5334 115.103L62.6938 115.258L62.7655 115.77L63.1019 116.797L63.2858 117.529L63.5615 118.281L63.6269 118.75L63.3995 119.317L63.8045 119.3L63.8746 119.389L65.3591 118.831L65.638 118.794L66.0352 118.872L66.7097 119.286L67.0805 119.456L68.1787 119.766Z" fill="#00212E"/>
<path d="M100.666 142.574L100.498 142.663L100.297 142.906L100.077 142.961L100.007 142.849L99.6909 143.274L99.5351 143.297L99.3279 143.45L99.035 143.582L98.6923 143.835L98.2499 144.046L97.9586 143.983L97.5256 144.282L97.4321 144.193L96.9617 144.335L96.9009 144.19L96.6859 144.193L96.4694 144.087L96.3167 144.137L96.1797 143.948L96.2373 143.758L96.1516 143.581L96.2311 143.341L96.0176 143.307L95.7715 143.155L95.7575 141.658L95.7435 140.545L95.3649 140.177L95.0861 140.024L94.8649 140.157L94.41 140.314L94.1842 140.25L94.1172 140.14L94.6718 139.897L94.8447 139.781L94.9973 139.571L94.9989 138.912H95.3431V138.777H95.9958L96.0395 138.892L96.3199 139.057L96.7202 138.932L97.1797 138.73L97.5396 138.643L97.8247 138.795L98.2951 138.946L98.4166 139.046L98.5334 139.364L98.7718 139.381L99.1051 139.141L99.5662 139.168L99.789 139.308L99.5958 139.608L99.5164 139.996L99.2905 140.256L98.9867 140.51L99.1519 140.608L99.3481 140.534L99.6223 140.587L99.5257 140.918L99.641 141.278L99.7594 141.33L99.8622 141.928L100.001 142.146L100.431 142.183L100.816 142.286L100.926 142.397L100.666 142.574Z" fill="#00212E"/>
<path d="M113.622 135.315L113.77 135.482L113.434 135.623L113.368 135.483L113.622 135.315ZM109.703 131.826L109.701 130.651H108.111H105.991H104.4L102.81 130.653H101.219L101.012 130.022L100.858 129.92L100.683 129.534L100.953 129.35L101.476 129.184L101.292 129L101.296 128.643L101.135 128.293L100.814 128.369L100.741 128.738L100.475 128.911L100.467 129.473L100.573 129.849L100.537 130.257L100.369 130.442L100.271 130.987L100.328 131.226L100.046 131.478L99.9263 131.497L99.797 131.245L99.889 131.023L99.4917 130.537L99.2238 130.325L98.7845 130.237L98.6832 130.455L98.3857 130.433L98.2517 130.539L98.0523 130.422L97.9729 130.209L97.7346 130.015L97.4947 129.928L97.585 129.765L97.543 129.244L97.7081 128.735L97.5913 128.529L97.2766 128.707L97.2018 129.101L97.0367 129.188L96.7064 129.042L96.7251 128.685L96.8342 128.353L96.8762 127.797L96.6955 127.602L96.5803 127.328L96.1986 127.201L96.1815 126.771L95.8076 126.246L95.9073 126.006L96.1285 125.794L95.9868 125.19L96.0958 125.04L96.3855 125.165L96.599 124.942L96.2251 123.992L96.4027 123.929L96.5787 124.216L96.9682 124.571L97.2501 124.531L97.1239 123.78L97.1426 123.347L97.786 124.055L98.2502 124.284L98.5212 124.652L99.244 124.711L99.6444 124.677L100.263 124.694L101.031 124.951L101.152 124.88L101.37 124.261L101.292 123.878L101.344 123.693L101.8 123.373L101.81 122.9L101.469 122.71L101.098 122.096L101.257 121.713L100.701 121.544L100.82 121.237L100.548 121.071L100.529 120.848L100.766 120.744V120.535L100.56 120.147L100.833 119.675L100.867 119.356L101.023 118.863L101.04 118.008L101.21 117.793L100.648 117.51L100.411 116.94L100.202 116.74L100.222 116.566L100.579 116.095L100.905 115.845L100.859 115.606L100.657 115.633L100.615 115.39L100.758 115.284L101.289 115.165L101.24 114.918L101.062 114.837L100.504 115.067L100.324 114.826L99.6522 114.667L99.702 114.365L100.194 114.491L100.029 113.914L100.127 113.142L99.7752 113.299L99.6397 113.109L99.6755 112.399L99.8391 112.165L99.5587 111.79L99.8594 111.631L99.6428 111.218L99.9061 111.117L100.138 111.322L100.018 111.671L100.338 111.751L100.8 112.84L101.032 113.181L100.778 113.52L101.307 113.642L101.585 114.281L101.769 114.848L101.945 114.796L102.174 115.313L101.877 115.63L101.912 115.957L102.222 115.796L102.54 115.809L102.436 116.195L102.036 116.753L102.68 116.603L102.916 117.052L103.162 117.072L103.445 117.324L103.321 117.549L103.357 117.933L102.874 118.242L103.199 118.32L103.509 118.493L103.344 118.815L103.495 118.935L103.799 118.971L104.184 119.385L104.109 119.761L104.134 120.17L103.925 120.233L103.233 120.127L103.325 120.384L103.503 120.399L103.392 120.779L103.947 120.857L103.967 121.005L103.696 121.097L103.688 121.233L104.143 121.267L104.226 121.663L104.501 122.083L104.838 121.87L105.15 122.203L105.477 122.273L105.389 122.586L105.671 122.974L105.452 123.238L105.335 123.619L106.013 123.482L106.237 123.368L106.327 123.627L106.55 123.624L106.667 123.948L106.888 123.619L107.229 123.735L107.513 124.442L108.011 124.587L108.274 124.379L108.578 124.356L108.622 124.588L108.888 124.813L109.203 124.889L109.306 125.046L109.098 125.337L108.921 125.459L108.332 125.54L108.243 125.682L107.963 125.813L107.704 126.21L107.433 126.221L107.175 126.4L106.578 126.687H106.153L105.903 126.847L105.734 127.211L105.791 127.451L105.544 127.66L105.729 127.845L106.145 127.412L106.416 127.342L106.805 127.107L107.33 126.596L107.679 126.369L108.103 126.205L108.125 125.872L108.279 125.813L109.031 125.895L109.292 125.957L109.639 126.657L109.628 126.858L109.195 127.13L109.401 127.49L109.818 127.043L110.041 126.895L110.532 126.839L110.675 127.149L110.993 127.23L111.32 127.764L111.401 128.051L111.278 128.511L111.359 128.775L111.303 129.082L111.335 129.324L110.919 129.428L111.345 129.573L111.521 129.743L111.354 129.994L111.539 130.14L111.535 130.361L111.114 130.804L110.423 131.327L109.865 131.796L109.703 131.826ZM111.843 131.629L111.68 131.939L111.097 132.065L111.138 132.335L111.377 132.351L111.398 132.679L111.304 132.939L111.035 133.201L110.96 133.469L110.639 133.949L110.507 134.248L110.232 134.676L110.155 135.035L110.03 135.273L110.15 135.502L110.483 135.063L110.647 134.932L110.815 134.616L110.977 134.67L110.923 134.885L111.233 134.762L111.444 134.879L111.754 134.926L111.505 135.144L111.085 135.396L111.307 135.465L111.278 135.645L111.557 135.938L111.951 135.827L111.977 136.046L112.18 135.991L112.122 136.409L112.407 136.197L112.463 136.271L112.809 136.03L113.089 135.753L113.141 136.125L113.281 135.977L113.8 135.924L114.241 136.164L114.301 136.525L114.06 136.736L113.946 136.954L113.937 137.18L113.789 137.387L114.138 137.44L114.012 137.742L114.329 137.831L114.512 137.672L114.761 137.641L114.974 137.482L115.021 137.653L114.871 137.987L114.613 138.077L114.356 138.32L114.306 138.602L114.142 138.927L113.924 139.164L114.051 139.452L114.261 139.429L114.392 139.272L114.68 138.778L115.152 138.487L115.107 138.717L114.904 139.139L114.82 139.448L114.889 139.829L115.121 139.641L115.333 139.222L115.424 139.269L115.499 139.647L115.46 139.885L115.163 140.505L115.192 140.753L114.957 141.311L114.831 141.376L114.669 141.242L114.35 141.403L114.245 141.312L114.29 140.784L114.219 140.44L113.927 140.819L113.646 141.048L113.518 140.932L113.624 140.538L113.915 139.96L113.759 139.247L113.494 139.046L113.217 139.635L113.178 139.815L113.038 139.887L112.628 139.965L112.323 140.37L112.259 140.616L112.029 140.884L111.75 140.868L111.413 140.957L111.203 140.842L111.348 140.566L111.8 140.396L111.971 140.208L112.192 139.842L112.611 139.607L112.343 139.438L111.963 139.432L111.874 139.741L111.691 139.811L111.317 139.684L111.34 139.186L110.941 139.212L110.849 139.412L110.538 139.516L109.896 139.599L109.217 139.49L108.974 139.501L108.626 139.406L108.095 139.401L107.302 139.588L107.073 139.607L106.886 139.484L106.752 139.035L106.871 138.783L107.277 138.462L107.603 138.138L107.888 137.768L107.587 137.714L107.008 137.751L107.006 137.68L107.348 137.499L107.595 137.602L107.885 136.8L108.003 136.638L108.401 136.652L108.466 136.447L108.281 136.29L108.251 136.035L108.51 135.722L108.717 135.86L108.626 135.402L108.904 134.748L109.226 133.852L109.402 133.562L109.444 133.371L109.662 133.187L109.865 132.69L110.088 132.449L110.159 132.178L110.461 131.917L110.866 131.731L111.103 131.564L111.541 131.766L111.572 131.542L111.843 131.629ZM103.648 118.072L103.581 118.393L103.346 118.215L103.648 118.072Z" fill="#00212E"/>
<path d="M104.481 142.702L104.656 142.901L104.498 143.07L104.871 143.088L105.011 143.023L105.305 142.697L105.003 142.724L105.174 142.482L105.263 142.215L105.533 142.012L105.626 142.23L105.801 142.21L106.098 142.299L106.008 142.562L106.128 142.707L105.902 142.822L105.654 143.079L105.419 143.244L105.045 143.363L104.785 143.327L104.249 143.394L104.031 143.129L103.972 142.707L104.086 142.278L104.305 142.029L104.788 141.091L105.118 140.75L105.389 140.697L105.368 140.85L105.489 141.146L105.293 141.819L105.277 142.09L105.17 142.274L104.732 142.514L104.481 142.702ZM100.297 142.906L100.498 142.663L100.666 142.574L101.095 142.864L101.347 142.833L101.629 143.062L101.87 143.006L102.4 143.084L102.685 143.305L103.031 143.101L103.372 142.845L103.475 143.134L103.761 143.268L103.976 143.183L104.162 143.395L104.251 143.641L104.017 143.78L104.48 143.813L104.486 144.026L104.248 144.023L103.877 144.174L103.279 144.469L102.969 144.575L102.645 144.746L101.969 144.983L101.808 144.989L101.61 145.115L101.3 145.092L101.216 145.413L101.018 145.4L100.707 145.11L100.334 145.283L100.266 145.476L100.347 145.679L100.213 145.735L100.096 145.95L99.9528 146.028L99.582 146.525L99.2892 146.779L99.096 146.78L98.9729 146.886L98.9542 147.1L98.7751 147.156L98.4402 147.079L98.247 146.657L97.9355 146.623L97.8467 146.025L97.9697 145.618L98.2719 145.251L98.5134 145.099L98.5461 144.899L99.5291 144.235L100.121 143.984L100.246 144.202L100.4 144.247L100.585 144.057L101.035 143.883L100.593 143.698L100.267 143.738L99.9247 143.699L99.7331 143.858L99.5166 143.764L99.6272 143.578L99.9761 143.299L100.297 142.906Z" fill="#00212E"/>
<path d="M40.7283 56.0688V59.58L40.2283 59.7654L39.5055 60.6315L38.4774 61.3029L37.4477 61.7172L36.7981 61.7889L36.1501 61.6534L35.1671 60.8013L35.0254 60.4741L35.3447 60.0021L36.3977 59.46L37.0349 58.9553L38.5537 58.7357L39.0911 58.1873L38.6191 57.9833L37.7919 58.1562L37.3464 57.7605L36.8838 58.2886L35.893 58.4864L35.6656 57.7636L35.8307 57.1951L35.4475 56.7044L35.2964 57.6172L34.9272 58.3899L34.1873 58.9538L33.8477 58.3198L33.5891 58.3073L33.2635 58.9927L32.723 58.6235L32.2884 57.963L31.5983 58.0425L30.9503 57.7995L30.8225 57.4521L31.0998 56.6794L31.4036 56.4131L32.8087 56.3087L33.776 55.6544L32.3538 55.8258L31.5718 55.7417L31.6403 54.9815L32.4005 54.6512L32.0563 54.0032L32.1139 53.2259L32.6357 52.5685L34.2917 52.7227L34.1811 52.475L33.1747 52.2507L33.1358 51.8255L33.4551 51.2288L34.2153 50.8955L34.8197 50.8721L35.2637 51.1509L35.4397 51.9859L35.7466 52.5015L36.5971 52.2211L37.2156 52.5296L38.2998 53.9502L38.0505 54.5126L38.7126 54.5765L39.0693 55.684L39.359 56.0189L40.7283 56.0688ZM40.7299 68.386L40.7314 71.9097V76.4038V80.6549H37.4726L37.2763 81.2874L36.9835 81.2921L36.9757 80.6534H34.8867L31.5329 80.6503L31.5079 81.0818L32.0049 81.8124L31.793 81.9837L31.4705 81.4027L31.3506 80.4524L31.4285 80.2764L32.1871 79.9882L33.5237 79.6735L34.745 79.4601L37.2935 79.7966L37.8776 79.6019L38.4057 79.6128L38.482 79.3059L37.9758 78.9367L36.6314 78.2747L35.8338 77.9818L35.0846 78.0426L34.4209 78.2544L32.9208 78.3915L32.4831 78.2451L31.6154 78.3245L30.8397 78.2217L29.958 77.1983L29.9502 76.6125L30.5437 76.1156L31.1964 75.8991L32.6124 75.3009L32.9348 74.8507L31.1652 74.9925L30.6621 75.1716L30.0561 74.9878L30.1075 74.6186L30.4596 74.4737L30.6371 74.0672L29.8178 74.1482L29.1697 73.9534L29.014 73.631L29.07 72.7041L29.5327 71.933L30.0234 71.5265L29.6744 70.8177L29.8131 70.3566L30.8864 69.0543L32.1622 68.0604L33.4925 67.347L34.6842 66.6257L35.3026 67.0931L35.4491 67.9888L35.3743 68.9234L34.868 69.9562L34.9194 70.1541L36.1688 69.6571L36.2342 68.9125L36.5488 68.3891L37.1424 68.3673L38.0614 68.8035L39.0771 69.5715L38.9649 70.1915L38.6316 70.7834L38.2608 71.1261L38.5475 71.366L39.0226 70.6993L39.2453 71.0856L39.7127 70.3566L40.4651 69.802L40.4744 69.3736L40.0102 68.9219L39.87 68.2692L40.7299 68.386ZM40.7283 52.2959L40.3794 51.3425L40.7283 50.9936V52.2959ZM26.8051 82.2937L26.8082 84.2689L26.8097 87.9312L28.475 89.2803L30.4736 90.8692L31.8055 91.9113L33.1374 92.941L34.8026 94.209L35.8027 94.9614L37.4679 96.1983L39.8591 96.2154L41.3623 98.0614L41.7549 98.3386L42.0711 98.4415L44.3439 98.862L47.1852 99.3839L48.891 99.6954L51.1638 100.11L51.156 102.651L51.1575 105.403V108.068L51.1591 110.653L51.1606 111.916H48.553H46.598H43.9903H42.688H40.7314H38.2873H36.6579H35.0285H33.3975H31.7681H30.1387H27.6945H25.2037H22.7144L22.4869 111.813L22.4823 111.589L22.2128 110.994L22.1536 110.675L21.9542 110.62L21.6972 110.175L21.8202 109.838L21.719 109.397L21.4277 109.375L21.3311 109.646L20.9775 109.688L20.6815 109.829L20.049 109.567L19.8668 109.784L19.1938 109.807L19.0038 109.908L18.7109 109.819L18.6408 109.129L18.5318 108.93L18.4726 108.271L18.1766 107.881L17.7732 107.825L17.2716 107.336L17.1407 106.978L16.9943 106.911L16.7419 106.444L16.5332 106.213L16.2528 106.347L15.6094 106.074L15.5861 105.305L15.6842 105.101L15.3212 104.859L15.0221 104.196L15.139 103.518L14.8804 103.45L14.5237 102.794L14.8586 102.308L14.5735 101.869L14.4676 101.498L13.9878 101.029L13.7946 100.939L13.4286 100.373L13.4426 100.138L13.2136 99.5911L12.8849 99.4166L12.5889 99.6534L12.3568 99.6518L12.4191 99.2453L11.9798 98.7312L11.6309 98.4913L11.3271 98.4383L11.4004 97.8947L11.5873 97.6439L11.3754 97.4725L11.2695 96.8946L11.5982 96.3836L11.7945 95.8976L11.6636 95.5238L11.3256 95.0751L11.6044 94.762L11.2477 94.5252L10.9782 94.8493L10.8255 94.5268L9.97656 94.7387L9.86128 94.3118L10.003 94.0501L9.98435 93.6996L9.71486 93.6373L9.91581 92.7852L9.74913 92.5048L9.70863 91.9518L9.36903 91.3334H6.66943L6.54949 90.7414L6.69591 90.3271L6.6118 89.6136L6.25195 88.8192L6.25507 84.7628L6.67411 84.811L7.66484 85.4793L7.6072 85.0026L6.995 84.6849L6.94983 83.9761L7.2349 83.2424L7.80504 83.1956L7.95303 82.6629H8.79733L8.85186 81.9245L9.12602 81.9121L9.59802 82.5149L9.22572 83.3561L10.1245 82.895L10.5327 82.7891L10.9533 81.9806L11.6122 81.6005L11.835 81.7765L12.1341 81.5927L12.7774 80.9712L13.1746 81.0132L13.4488 80.4618L14.0065 80.1113L14.7277 80.3122L15.0081 79.9228L15.2574 80.2577L15.1141 80.6674L13.4036 82.0491L12.2275 82.3591L11.6169 83.2548L11.1527 83.4324L10.2507 84.7939L10.3489 84.9357L11.1277 85.0541L11.0436 84.339L11.1106 84.0945L12.1528 83.3187L12.3241 82.7953L12.6185 82.6863L13.3351 82.8078L13.4644 83.3405L13.7946 82.613L14.195 81.9603L15.2138 81.317L15.6141 81.2079L15.9973 81.7485L16.7591 80.8107L16.9008 80.2468L17.5706 79.8091L17.0426 79.0473L17.2747 78.4414L17.5862 78.6626L18.3869 79.7421L19.0723 81.6799L19.5443 82.3747L19.9914 82.8451L20.6706 83.1022L20.9572 82.6177L20.7095 82.0725L21.4775 80.697L21.2376 80.5007L21.7548 80.0801L21.8997 80.2359L21.8638 80.9696L21.948 81.5413L22.2984 81.9697L21.8514 82.8218L21.923 82.99L22.9885 82.9978L23.5042 82.3887L23.7487 81.3808L24.9949 81.3575L25.6975 81.5086L26.439 81.9432L26.8051 82.2937ZM40.7268 41.4461V42.454L39.7532 42.8995L39.7937 43.3684L40.532 43.4821L40.4728 44.9339L39.842 45.4075L39.1332 45.5118L38.1876 46.015L37.6377 45.8966L36.6065 44.8996L36.4663 43.3871L36.5769 42.5568L37.7265 41.9679L39.1581 41.4539L40.7268 41.4461ZM29.8738 55.8569L29.2367 56.1576L28.4828 55.6591L29.486 54.1278L30.1231 53.6543L30.6247 53.0156L30.9549 53.2072L30.7882 53.8069L29.8738 55.8569ZM40.7268 37.5766V39.9647L39.7469 40.0363L39.2079 39.5472L38.8606 40.1859L38.4384 40.2139L37.9539 39.678L36.5956 40.2092L36.6252 39.4039L37.2888 38.8088L38.5038 38.3181L39.3357 37.4317L40.2002 37.1108L40.7268 37.5766ZM28.0372 63.18L28.3831 62.7563L28.7289 62.7718L28.9641 63.5024L29.5919 62.5475L30.3458 62.4447L31.3459 62.8996L31.9675 63.585L32.9644 64.8966L33.547 65.4964L33.6296 66.3235L32.9193 66.8516L32.2806 67.1678L31.5204 67.8252L31.0001 68.1368L30.324 68.7412L29.0482 69.7023L28.8255 70.031L28.4656 71.1074L27.9967 71.6075L27.4593 71.7399L27.2163 73.1138L27.1166 74.1856L26.8861 74.7012L25.7738 75.1794L25.4124 74.9504L24.8828 75.6794L23.8656 76.3991L23.5073 76.2558L23.2689 75.871L23.0072 75.0392L22.4682 73.9924L21.4884 73.335L20.789 72.7571L20.1752 72.8069L20.1815 72.0592L20.6753 70.8332L21.1924 70.1214L21.1737 69.1337L21.719 68.6353L21.7112 68.2816L21.3887 67.9654L21.9261 66.4154L22.3296 65.917L22.7424 64.8032L22.138 63.9339L21.571 62.049L23.1724 61.6222L24.2737 61.4867L25.4155 61.1128L25.9794 61.1658L26.9717 62.0257L27.7677 62.5039L28.2647 62.6052L28.0372 63.18ZM33.4941 45.9013L33.3991 46.4792L32.6311 46.9964L32.5361 47.445L33.0953 48.2146L32.6046 48.7613L32.9816 49.5496L32.6217 50.2583L31.6061 50.7039L31.4051 52.0015L30.9627 52.1401L30.5078 51.7429L30.2757 51.179L30.5873 49.277L29.9097 49.548L29.6916 50.6151L29.232 50.9609L29.4626 51.799L29.0062 52.8396L28.5186 52.419L28.0528 53.0826L28.2818 53.3427L27.8083 54.3817L27.1602 54.5578L26.6882 52.7227L26.3658 53.5141L25.8315 53.7259L25.2068 53.4362L24.565 53.9238L24.0774 52.3862L24.6102 51.4313L25.59 51.207L26.3938 49.805L27.0605 49.2255L27.2272 48.6897L28.88 46.2471L30.2944 45.7938L31.0593 46.1739L31.4114 45.9153L31.8195 44.909L32.6373 44.9853L33.4941 45.9013ZM36.0893 49.5106L35.8915 49.696L34.5362 49.4218L34.9693 48.7551L35.6578 48.6429L36.1469 49.0433L36.0893 49.5106ZM35.7357 43.5319L35.1422 43.736L34.7231 43.4431L34.1748 42.2125L35.1515 41.982L35.8198 42.6113L36.013 43.1705L35.7357 43.5319Z" fill="#00212E"/>
<path d="M60.9056 54.9624L60.6128 54.855L60.4181 53.9951L60.8916 53.643L61.2063 54.7584L60.9056 54.9624ZM47.8267 47.211L46.9699 46.9743L46.5259 45.9648L45.8608 43.7123L46.4839 43.6469L47.241 45.0411L47.3095 45.5707L47.8469 46.0521L47.8267 47.211ZM40.7264 42.4536V41.4458L41.228 41.6514L40.7264 42.4536ZM52.1713 50.4372L52.5155 49.5617H53.419L52.1713 50.4372ZM58.8821 56.2196L58.3821 56.3021L58.0425 56.891L57.7029 56.2211L58.3026 55.8348L58.5051 55.4625L59.0363 55.989L58.8821 56.2196ZM48.5245 50.4154L49.791 51.16L49.2427 51.8298L48.2021 51.8454L48.0229 51.6304L47.7908 50.2829L48.2878 49.9465L48.5245 50.4154ZM40.7264 39.9643V37.5763L41.3775 38.2664L41.5255 39.8677L40.7264 39.9643ZM67.1647 50.8391L66.7363 50.9076L66.0821 49.5586L66.1241 49.2564L66.875 48.9791L67.2052 49.5212L67.0401 50.1474L67.1647 50.8391ZM50.8659 53.5433L51.0995 54.0122L50.6104 54.3253L50.4063 54.7989L49.4483 54.8846L49.8035 54.059L49.5947 53.8471L48.8548 54.2007L48.5728 53.9826L48.8143 53.4234L48.2379 53.3704L48.0977 52.6352L49.7303 51.9264L50.4001 52.0915L50.5232 53.1087L50.8659 53.5433ZM40.728 59.5797V56.0685L41.9228 56.2383L42.105 56.0544L42.1081 55.2288L40.9974 54.358L40.9009 54.006L41.443 53.5091L41.4009 52.8408L40.728 52.2956V50.9933L41.5941 49.4153L42.2546 49.0648L42.7297 49.5414L42.5412 50.1521L42.6705 51.2207L43.0864 51.8236L43.1783 52.3548L42.8356 53.2645L43.5319 53.3112L43.6581 53.9452L45.043 54.6416L44.8233 53.9998L45.4293 53.2988L46.0711 53.5745L46.4621 53.9998L46.6241 54.9827L46.1256 57.8614L45.8265 58.3817L44.4432 59.198L43.574 58.8319L42.8777 59.1217L42.5646 59.036L42.2561 58.5048L41.3791 59.4208L40.728 59.5797ZM61.2078 48.5414L61.8387 48.532L62.6192 49.4449L62.6347 49.9309L63.2656 50.3032L64.4745 49.8919L65.1069 49.8639L65.8453 50.4247L65.9964 51.0774L65.6926 51.2301L67.7411 51.9809L67.5806 52.5978L66.4014 52.7676L65.1645 52.3735L65.1396 52.7567L65.8796 53.2115L66.4793 53.3346L66.7644 53.7801L67.8439 54.8955L67.6398 55.5092L67.7458 55.9376L68.6726 55.5123L69.1524 56.2102L70.3846 55.6557L70.961 56.3177L71.7149 56.7585L71.933 56.2601L73.3444 55.5139L73.8413 55.4687L74.7183 54.5933L75.6249 54.9547L77.0378 54.5294L78.3448 55.0357L78.541 55.5232L79.4259 55.5965L79.7156 56.4423L80.2889 56.5342L80.4867 57.3302L80.3216 57.8225L79.3791 58.5733L79.7982 58.8787L80.4649 58.8849L80.4867 59.4348L79.9181 59.6669L79.5676 60.0844L79.4835 60.9131L78.2466 60.9863L77.488 61.4256L76.0237 60.991L75.4894 60.0096L75.2402 60.8928L74.0749 61.2714L72.8848 61.1L72.2726 61.3166L71.8801 61.1172L71.1541 61.3648L70.2444 61.301L69.9469 61.4568L68.8642 61.3399L68.7147 60.7791L68.9717 59.9099L68.5262 59.8242L68.4016 60.2542L67.8252 60.1716L67.8564 60.6374L67.3828 61.0439L67.0105 61.0751L66.0868 60.7604L65.7845 60.3492L64.8405 60.5735L64.2501 59.8678L63.9729 58.5749L64.1006 58.2088L63.747 57.6667L63.6426 57.0685L64.11 55.4454L63.9588 54.4468L63.0491 52.4622L62.7765 51.6912L62.0288 52.1382L60.6315 52.0261L59.932 52.185L59.7046 51.6413L58.9335 50.9543L59.2606 50.6724L58.1515 49.7393L58.4194 49.1255L57.9241 48.5351L57.9957 48.1987L58.9055 47.7453L59.4569 47.6659L61.2078 48.5414ZM56.7667 51.068L56.7589 51.9684L56.9894 52.6383L56.8305 53.9452L56.896 54.4219L56.5564 55.0232L57.1499 55.3675L57.1468 55.9999L56.5361 56.7071L56.6389 58.2431L56.2199 58.6668L55.6357 58.7868L54.525 58.6123L54.2556 58.9145L53.4642 58.7945L53.1698 57.7212L53.2944 57.3598L52.8411 56.7585L53.405 56.475L54.3023 55.4594L53.8801 55.3223L52.1962 55.8005L51.8644 55.7086L50.4562 56.2009L50.1228 55.7507L50.8332 54.8129L50.9733 54.2942L51.6837 54.52L51.9033 53.6664L51.3285 53.1741L51.7756 52.4436L50.9827 52.0728L51.3472 51.2207L52.0233 51.378L52.3925 52.2878L53.743 53.9483L53.7976 53.4639L53.3038 52.1476L53.5421 51.6631L52.9205 51.459L52.6884 50.7472L53.2633 50.244L54.201 50.1848L54.8522 51.1381L55.2167 51.0727L55.0422 50.2378L55.4504 49.7907L56.7667 51.068ZM62.1892 58.6917L62.292 59.5516L62.183 60.3741L61.6129 60.6047L60.6829 60.6156L59.9149 59.8632L59.1609 59.6825L58.6329 59.2338L58.2465 58.3334L58.7497 57.6138L58.8214 57.0062L59.4133 56.123L60.2233 55.6354L61.0349 55.7849L61.9166 57.0545L62.2469 58.1403L62.1892 58.6917ZM51.5622 43.8883L51.0575 43.9148L50.5652 43.4366L50.5777 42.7543L51.6323 42.6826L52.299 43.1749L52.4626 43.6516L51.5622 43.8883ZM81.0677 54.0231L80.4399 54.5574L80.239 54.2506L81.1378 52.833L81.3512 53.048L81.0677 54.0231ZM59.6563 43.3026L59.985 43.5378L60.7234 43.3992L62.1363 43.4335L62.5039 43.6235L62.2188 45.2358L59.002 45.1782L58.6406 44.5099L58.798 43.7793L59.6563 43.3026ZM67.0245 46.4695L66.5105 46.7951L65.5119 46.1019L65.311 45.7576L65.3094 44.4273L65.7098 44.1422L66.5837 44.5099L67.1741 45.4305L67.0245 46.4695ZM100.175 110.956L100.13 111.138L99.6518 110.842L99.616 110.603L99.8637 110.567L100.175 110.956ZM95.6016 82.39L95.2278 82.242L95.5051 81.8743L95.8104 82.0519L95.6016 82.39ZM59.6189 82.2684L59.7918 82.5177L59.6423 83.0987L58.9911 82.6548L59.1469 82.1469L59.6189 82.2684ZM53.486 85.0833L53.2929 85.3637L52.9657 85.1674L52.972 84.4182L53.2305 84.2795L53.5374 84.7313L53.486 85.0833ZM71.2461 88.8547L70.9002 88.5976L70.9189 87.9044L70.7709 87.5913L71.1074 86.8701L71.4735 87.3L71.5249 88.1926L71.2461 88.8547ZM95.1857 111.288L95.0502 110.973L95.3057 110.441L95.6032 110.5L95.6936 110.891L95.1857 111.288ZM51.3628 85.8731L50.8145 85.5974L51.1447 85.0148L51.5248 85.3808L51.3628 85.8731ZM80.5879 81.4631L80.6736 81.7482L80.4291 82.0535L79.9991 82.136L79.6346 82.4086L78.9944 81.6048L79.5676 81.4101L79.8838 81.6485L80.3745 81.3774L80.5879 81.4631ZM57.1078 82.0099L57.3726 81.8946L57.8431 82.5052L58.5939 83.119L59.0488 84.2967L59.6812 85.2967L59.3946 85.3372L58.4615 86.2844L58.2045 86.3202L57.6702 86.0445L57.0657 86.0258L56.5268 85.5662L55.2961 84.968L55.198 84.6285L54.7416 84.8792L54.4986 84.6814L54.3381 84.2577L54.4799 83.9041L55.1886 83.7701L55.7822 83.1548L55.6622 82.3744L56.0002 82.0613L56.0283 81.5893L56.2713 81.2933L56.6498 81.1842L57.1452 81.65L57.1078 82.0099ZM53.7664 63.9694L54.8678 64.9726L56.1794 64.5692L56.9224 64.2436L57.3882 64.4492L57.6795 65.2748L57.167 65.7484L57.3259 66.5615L56.6436 67.0226L55.8071 68.3047L56.7355 68.1427L57.2527 68.582L57.1888 68.906L57.572 69.3562L57.6141 69.9092L58.2777 69.6381L58.4101 70.5588L58.3073 70.9653L57.9474 71.3065L58.2123 71.7754L57.9864 72.4483L58.1702 72.7786L58.1858 73.3409L57.7512 73.5154L57.3913 74.0076L56.9224 74.1899L56.1404 74.0528L56.1186 74.9672L55.5127 75.5327L54.8553 75.2679L54.1154 73.6603L53.3443 72.6259L52.9938 71.9966L52.4875 71.7504L52.1931 71.294L51.8161 71.4607L51.5217 71.3018L51.1961 70.5634L50.6369 70.0914L50.2319 69.2674L50.5045 68.2798L50.8955 67.9604L51.2631 68.0508L51.7569 68.825L52.0093 69.4278L52.352 69.5742L53.1371 69.311L53.2539 68.4075L53.6434 68.4698L53.4003 67.7673L53.0763 67.6862L53.1978 67.1613L52.6106 67.0678L51.8784 66.359L52.0451 65.7126L52.4968 65.5848L52.5763 64.6284L53.1386 64.4508L53.7664 63.9694ZM55.3444 28.4478L55.2806 30.2548L54.6808 29.909L54.4004 29.1488L53.6496 28.9136L53.6994 27.6004L54.12 27.2156L55.2105 27.6892L55.3444 28.4478ZM73.4316 96.9535L73.8319 96.3709L74.2837 96.6217L74.5205 97.0874L75.4037 97.441L75.6436 97.8616L76.368 98.438L76.8836 98.6187L77.1733 98.8539L77.516 99.516L77.6609 100.156L77.6079 100.726L78.1049 100.566L78.5348 100.692L78.7654 100.524L79.0909 101.061L79.5053 101.379L79.4523 101.496L78.4819 102.378L77.2855 101.784L76.7449 101.659L76.6297 101.008L75.8897 100.723L75.8492 100.317L75.29 100.496L75.1295 100.751L74.9847 101.345L74.6015 101.797L74.2292 102.015L73.8055 102.822L73.3771 103.146L72.8147 103.37L72.6807 103.314L72.3957 101.803L72.2773 101.659L71.6293 101.806L71.2725 101.79L70.9189 102.046L70.4874 101.987L70.4718 101.761L70.8675 101.018L71.4735 100.639L71.6947 100.384L71.5607 99.664L71.5342 99.0923L71.7772 97.7308L71.8738 96.4659L72.0732 95.5608L72.2648 95.1558L72.6029 94.8785L73.0125 95.2711L73.1886 95.8194L73.0141 96.173L73.254 96.402L73.4316 96.9535ZM49.3034 33.2769L49.9701 33.8688L50.3113 34.8128L50.21 35.6743L51.3285 34.858L52.4221 36.0466L52.5747 36.9345L53.2025 36.6837L54.2789 38.2633L53.9674 39.2104L54.0935 40.0843L54.902 41.2682L55.0734 42.0284L54.8568 42.9007L53.8272 43.2917L53.0062 42.6842L52.3691 40.7837L51.0871 40.2354L50.3705 40.4317L50.2085 39.6465L48.132 40.2993L47.5587 39.7712L47.2565 38.6854L47.607 38.2866L48.861 38.6792L49.2287 38.19L49.1819 37.0264L48.3516 36.7257L48.7162 36.1276L47.5961 35.5263L47.3796 35.115L46.5524 35.2428L46.5057 34.3346L46.7456 33.2208L47.4497 33.3096L48.9374 33.0198L49.3034 33.2769ZM47.85 86.5149L47.2955 86.2111L47.3718 85.8902L47.769 85.9619L47.9388 86.1691L47.85 86.5149ZM85.484 86.8109L86.1632 87.1224L86.2816 87.448L86.199 88.0618L86.252 88.8017L86.199 89.5354L85.8423 90.1149L85.3469 90.3968L84.1568 90.5573L83.7502 90.4529L83.5524 89.9747L83.3576 88.9575L83.4589 88.4605L84.096 87.1318L84.5852 86.8233L85.484 86.8109ZM46.8733 68.6614L46.6848 68.582L45.8545 67.4245L45.7128 66.937L45.261 66.44L44.7454 66.1347L45.1458 65.1393L46.582 64.8137L47.1008 64.9134L47.7083 65.5163L47.8313 65.8543L47.794 66.7111L47.5229 67.5538L46.8733 68.6614ZM57.9646 68.5882L57.5596 68.3187L57.5907 67.7221L57.8602 67.4588L58.2045 67.9744L57.9646 68.5882ZM79.8745 121.289L79.8387 121.029L80.2608 120.826L80.253 121.007L79.8745 121.289ZM64.3498 19.2819L65.149 21.6373L65.9169 22.9583L65.9699 23.7107L66.9871 24.4677L67.8937 24.6157L67.8532 26.3043L68.7147 27.3153L68.576 25.3432L69.2521 25.0098L69.8394 25.4585L69.9033 26.8869L69.5169 27.5677L70.4563 27.9805L70.7491 29.0958L70.531 30.7969L71.1775 30.9169L72.673 31.7518L73.2431 33.1896L72.9487 34.0277L71.9034 34.7785L70.6977 36.154L69.9142 37.6448L69.5964 37.4423L69.0449 38.8287L68.6243 39.511L68.3844 40.7931L67.2629 40.7884L66.4201 39.9238L66.3812 40.8413L66.0073 41.0641L64.3312 40.508L63.3155 39.5297L63.2547 38.8941L64.2844 38.4035L62.5491 38.095L62.0693 37.1479L62.4572 36.7647L61.7203 36.3332L61.3807 35.5045L62.5132 34.5059L63.3093 34.185L63.4868 33.509L64.3732 33.2644L63.5678 32.403L63.1286 32.3266L61.6798 33.4529L61.6705 32.7831L61.0645 32.7488L60.1548 33.4576L59.3323 32.5525L59.4242 31.7736L59.9009 30.867L59.1703 30.7159L58.3821 29.4417L57.977 27.2795L59.2684 27.8044L60.7499 27.9384L60.8231 26.7779L59.7607 27.2842L58.5051 26.0722L58.5487 25.6096L59.4881 25.27L58.7871 24.0316L58.812 22.9271L59.3588 22.6529L60.8153 23.3368L60.5645 22.4442L59.6174 21.7354L59.9367 20.3926L60.915 20.1387L62.5896 19.3162L62.3668 18.6355L61.3387 18.3629L61.5147 17.4298L62.4618 17.2989L63.6613 18.042L64.3498 19.2819ZM83.7627 83.8574L83.476 83.8792L83.2626 83.3791L83.3421 82.8542L84.0882 82.8993L84.1646 83.1813L83.7627 83.8574ZM81.1721 87.2657L80.9229 87.1193L80.9493 86.7657L81.211 86.7018L81.3731 87.0025L81.1721 87.2657ZM43.4696 89.9965L43.1409 89.903L43.1736 89.2223L43.3512 89.2457L43.4696 89.9965ZM60.5863 111.914L59.3728 111.916H57.6125H56.4395H54.6793H52.919H51.1603L51.1587 110.652L51.1572 108.068V105.403L51.1556 102.65L51.1634 100.109L48.8906 99.6951L47.1849 99.3836L44.3435 98.8617L42.0707 98.4411L41.7545 98.3383L41.362 98.061L39.8587 96.2151L37.4676 96.1979L35.8023 94.9611L34.8022 94.2087L33.137 92.9407L31.8051 91.911L30.4732 90.8688L28.4746 89.2799L26.8094 87.9309L26.8078 84.2686L26.8047 82.2934L27.3125 82.837L27.8858 83.1268L29.1694 83.4414L30.1772 84.2265L31.1991 84.6191L32.8239 84.9073L32.5809 84.535L33.3893 84.482L34.2212 84.926L34.9767 85.6114L35.5624 86.5398L35.3911 87.0071L35.1574 87.0726L34.5187 86.9947L34.405 87.258L34.0467 87.4792L33.9953 87.8764L33.6557 88.2066L34.0389 88.568L34.6527 88.6506L35.1683 88.8702L35.9316 88.9777L36.9769 89.0478L37.5564 89.0307L37.8149 88.8718L38.6779 88.783L39.178 88.5556L39.4412 88.6662L40.2466 88.0991L40.6765 88.0197L41.214 88.8656L41.929 88.9419L42.1003 89.6834L42.5661 89.3516L42.887 89.9903L43.3543 90.4888L43.4572 90.8034L43.2235 91.115L42.7453 91.1383L43.6503 92.397L43.7173 92.2101L43.6706 91.4764L43.8263 91.3377L44.4385 91.7412L44.1893 91.1648L43.803 90.0541L43.7952 89.6242L43.3762 88.8671L43.3933 88.5696L43.6488 88.2643L43.6503 87.8281L44.1846 87.7268L44.8576 87.4916L45.0757 87.1863L45.3934 87.2393L45.4199 86.8218L45.895 86.5102L46.2315 86.0865L46.0352 85.694L45.3498 86.1223L45.1536 86.6878L44.7143 86.6271L44.4526 86.8747L43.8357 86.7797L43.6861 87.3343L42.9992 87.4168L42.4446 86.9698L42.5038 86.613L42.9306 85.7859L44.074 85.507L45.733 84.6736L46.2097 84.873L46.5462 85.3995L46.6911 86.3295L46.9964 86.7828L47.7254 87.1925L47.9201 87.7206L48.3018 87.8312L49.0012 87.7004L49.2396 87.5399L50.2599 88.5929L50.8892 88.8656L51.3145 88.8219L51.7429 89.0011L52.6542 88.6381L53.1745 88.4979L54.0655 88.5821L54.8818 88.8967L55.1777 88.8905L55.8336 88.5431L55.4597 88.0602L55.8367 87.9808L56.4676 88.9403L57.0876 89.2628L57.4786 88.8874L57.4116 88.4434L56.9676 88.0773L56.7168 88.0166L56.2339 88.2783L55.8055 87.7159L55.8803 87.4776L55.5516 86.7797L55.7666 86.599L56.0921 86.828L56.6452 86.5803L56.4567 86.1442L57.3337 86.3482L57.7107 87.0461L58.3587 87.0913L58.4117 87.4137L58.8868 87.1131L58.9382 87.3888L58.7248 88.917L58.5005 89.4793L58.9678 90.4389L59.2684 90.699L59.9507 90.4669L59.6843 89.2862L59.4398 88.85L59.6875 87.8655L60.1252 87.6505L60.6221 87.6941L61.2608 86.9012L61.6861 86.275L62.0459 86.0273L62.007 84.792L61.7281 84.4477L61.6035 85.0319L60.9679 85.3123L60.8091 85.0958L60.8589 84.7032L61.4836 83.9337L61.2592 83.8293L61.2608 83.2327L62.0973 82.904L62.049 82.4709L61.5724 82.7404L61.239 82.7093L60.7654 81.9834L60.5193 82.2529L59.9071 81.9164L59.3666 81.5005L58.9195 81.2995L58.3431 80.181L58.273 79.4006L58.6889 78.5672L58.2699 77.5142L58.4553 75.6495L58.8027 75.1479L59.5535 75.3925L59.7591 74.7585L59.2061 74.6167L59.1968 74.3192L60.0255 73.0481L60.8667 72.7318L61.1907 73.6275L61.8403 73.6229L61.901 74.1541L62.5615 74.8847L62.9634 75.6963L63.0491 76.4736L62.9198 77.3412L63.694 78.1404L64.1364 79.1592L64.434 79.3461L64.7689 79.977L64.2065 80.1109L63.8218 79.7386L63.532 80.262L64.2299 80.5113L63.828 81.069L63.2205 81.7419L63.7937 81.8961L64.3156 82.4258L64.5601 82.3728L65.0025 81.9849L65.1287 82.3822L66.0836 82.5255L65.7363 83.3184L65.1941 83.3371L65.8359 83.996L66.1973 84.8777L66.0603 86.2719L66.484 87.004L66.8002 86.5429L66.9653 86.1052L67.2426 84.3294L67.6523 83.552L68.0371 83.4087L68.5838 84.1689L69.0044 84.549L69.3612 85.0646L69.6618 86.5211L69.5543 87.0726L68.9624 86.9308L69.006 88.1132L69.1602 88.7518L69.4188 89.2332L70.0684 90.1538L70.1743 90.6305L70.3722 90.7318L71.3239 89.6071L71.4034 88.9325L71.5405 88.5478L72.0841 87.6879L72.3739 86.3763L72.3692 85.7173L72.6511 85.2157L72.9674 85.3185L73.4363 84.5194L73.5064 84.1128L72.8225 83.5349L72.7836 82.365L72.6714 81.9771L72.6652 81.2466L73.3007 81.3992L73.7899 81.2294L74.3148 81.2855L75.0672 81.7949L76.4318 81.8276L76.7496 82.013L76.4007 82.6968L76.8337 82.8775L77.0425 83.4726L77.3011 83.3713L78.0036 83.658L78.1127 83.9446L77.745 84.3714L77.3011 84.7126L78.0457 84.926L78.1983 85.1768L78.175 85.6208L77.8541 85.9821L77.2294 86.314L76.9646 86.1582L76.5175 86.3716L76.9475 87.434L77.2201 87.3343L77.1063 87.9761L77.2684 88.42L78.0036 89.3376L78.189 89.7987L77.932 91.115L77.7201 91.3408L77.4023 91.3876L76.9786 92.1291L76.4022 92.7132L76.0003 92.8332L75.5455 93.3519L75.2526 93.4282L74.7339 92.4126L74.2074 92.073L74.2743 91.8829L73.9285 91.439L73.7977 91.6726L74.3398 92.4017L74.508 92.9142L74.8569 93.6837L74.7541 93.9376L74.2479 93.6775L74.0064 94.042L73.201 93.5684L72.7493 92.8783L72.539 92.7755L71.9408 92.9329L71.1978 92.897L71.0482 93.2709L71.2601 93.5793L72.0218 94.0171L71.9673 94.5467L70.7803 96.1169L70.3394 96.6606L69.4546 96.6793L68.5387 95.8537L68.4452 95.6418L67.9966 95.4518L67.5635 95.0639L67.1336 94.824L67.0058 95.0265L66.6553 94.9938L65.4917 94.7274L65.5259 94.877L66.7457 95.2399L67.0837 95.458L67.7956 96.374L68.1445 96.6809L69.1571 96.8943L70.2086 96.955L70.6837 97.1497L70.6821 97.5657L70.3534 98.2978L69.5652 99.5923L69.277 100.245L68.5636 100.764L68.034 100.689L67.8314 100.839L67.5853 100.673L67.308 100.7L67.1149 100.496L66.8687 100.552L66.9887 100.854L66.6226 100.845L66.7893 101.371L66.4871 101.85L66.0307 101.793L65.8858 101.982L65.5742 102.008L64.8016 101.603L63.9464 101.455L63.4822 101.297L62.9354 100.977L62.1176 100.67L62.0303 100.966L62.3544 101.273L62.4026 100.944L63.5102 101.499L63.9947 101.703L64.4059 101.686L65.0726 102.245L65.5431 102.432L65.8344 102.698L65.9076 103.396L65.6724 103.87L65.3546 103.938L64.9184 104.275L64.1551 104.105L63.7283 104.231L63.8825 104.618L64.2579 104.728L64.1894 105.023L63.9292 104.896L63.4806 105.006L63.4245 105.222L63.0709 105.683L62.8746 106.28L62.4104 106.735L62.3481 107.352L61.9711 107.635L61.6689 108.07L61.7375 108.341L61.5132 108.411L61.5038 108.897L60.8511 110.494L60.5988 110.61L60.7499 110.825L60.5863 111.914ZM74.9878 95.268L75.6296 95.5857L75.4364 95.796L75.1046 95.6013L74.8741 95.296L74.4768 95.3458L74.4441 94.8879L74.0422 94.4128L74.0999 94.1978L74.6949 94.5296L75.0189 94.8738L74.9878 95.268ZM73.7509 95.969L73.6092 95.9845L73.1496 95.1901L73.1309 94.5685L73.4067 94.5903L73.7291 95.2789L73.8444 95.7088L73.7509 95.969ZM82.4152 81.7388L82.4931 82.0239L81.8404 82.5333L81.4245 82.4554L81.6986 82.0239L82.4152 81.7388ZM56.0252 64.3324L55.1076 64.5972L54.5718 64.2825L55.198 63.6812L56.2978 63.217L56.7713 63.1968L56.6966 63.6875L56.0252 64.3324ZM82.6146 102.351L82.8389 102.468L83.0554 102.885L82.9822 103.17L82.5289 103.385L82.1192 103.022L81.8419 102.68L81.7921 102.409L82.1473 102.297L82.6146 102.351ZM31.7926 81.9834L32.0045 81.812L31.5076 81.0814L31.5325 80.6499L34.8864 80.653H36.9753L36.9831 81.2917L37.276 81.2871L37.4722 80.6546H40.7311V76.4035V71.9093L40.7295 68.3857L41.4243 69.1552L41.876 69.5151L42.429 70.5073L43.0646 73.6852L43.4369 74.1525L44.1909 73.4017L44.2438 73.0854L43.736 72.009L43.5693 70.7519L43.4276 70.4154L43.0288 67.8327L43.3652 67.3778L43.2219 66.9385L43.7048 66.8248L44.4946 67.4432L44.7065 67.0647L45.3187 67.4261L46.191 68.2579L46.7098 69.244L46.945 70.8703L47.5541 73.1992L48.051 74.4064L48.0993 74.9953L47.8111 76.3349L48.3361 77.0437L48.6149 77.6964L49.0962 78.2167L49.7209 78.6887L50.1836 78.6435L51.1759 79.5657L51.6292 79.6405L51.732 80.1421L52.2725 80.0938L52.5 80.5471L52.5498 81.7373L52.1837 81.8712L51.9438 81.6095L51.6214 81.7996L50.8565 81.2575L50.3845 81.7263L50.3518 82.351L49.9624 82.3012L49.3891 81.8494L49.252 82.0036L49.6726 82.552L49.8066 83.0333L50.0091 83.1314L50.5792 82.6314L50.964 82.5878L51.1946 82.8869L51.0793 83.3526L51.3939 83.5894L51.3488 84.2951L50.5247 84.7858L49.9951 85.0226L49.2474 85.0755L48.4669 84.8699L48.0946 84.644L47.8095 84.8465L47.1132 84.6721L47.2254 84.0863L46.5555 83.8947L45.7626 83.7904L45.5025 83.5614L45.476 82.985L45.0881 82.7669L44.8311 83.1096L44.599 83.7218L44.0694 84.3745L43.5179 84.549L42.8636 84.6191L42.1066 85.2516L41.4196 85.5506L40.7856 85.7173L39.6266 85.9027L39.2621 85.8669L39.0222 86.032L37.7261 86.1239L36.9971 86.2625L36.6544 86.2018L36.3787 85.8295L36.0157 84.968L36.0484 84.5288L35.9145 83.6689L35.0951 83.3978L34.0047 83.4134L33.4065 83.3464L32.7771 83.147L32.2397 82.823L31.7926 81.9834ZM80.4493 65.3309L80.6705 65.3917L82.0803 65.2779L83.4869 66.0444L83.7502 66.7017L84.0711 66.9105L84.3172 67.5912L84.6833 67.9433L84.6568 68.314L84.9434 68.8328L84.5384 69.1007L82.6676 68.7642L82.0429 68.8312L80.9743 69.3172L80.4976 69.3858L79.9275 68.9106L79.6066 67.2968L79.0395 67.0881L78.7716 66.5896L78.7389 65.0209L79.3075 64.8153L79.6891 65.0863L80.4493 65.3309ZM80.4384 105.387L80.7764 105.848L80.7266 106.465L80.2188 107.607L80.0848 107.657L79.4991 107.042L79.5069 106.235L79.8168 105.58L80.0178 105.407L80.4384 105.387ZM80.6487 130.755L80.3107 130.632L80.7126 130.445L80.6487 130.755ZM84.177 102.575L83.6817 102.412L83.2813 102.007L83.582 101.731L84.0649 102.05L84.2097 102.255L84.177 102.575ZM99.6316 104.971L100.035 104.992L100.083 105.37L99.8497 105.467L99.5319 105.361L99.6316 104.971ZM80.8746 84.9431L80.6207 84.6612L80.8325 84.2032L81.2796 83.8885L81.5896 83.4228L81.6753 83.0224L82.0195 82.9663L82.155 83.2685L81.7578 83.8496L81.3419 84.6892L80.8746 84.9431ZM62.6737 62.9491L63.5569 63.4195L63.909 63.8432L64.6816 63.5815L65.3889 63.6688L65.9902 63.9414L66.3453 64.3324L66.0696 65.1829L65.5898 65.9166L64.6941 68.1894L64.0461 69.3951L63.6894 69.5509L62.4525 69.1833L61.3169 69.3811L61.8917 69.7705L62.1503 70.2488L62.1721 70.8454L61.7608 71.5697L61.5428 72.5215L60.9446 72.4592L60.0364 72.5262L60.0707 71.8797L59.9616 70.4949L59.5753 69.2736L59.4896 68.5648L59.5208 67.5242L59.4631 65.1409L60.2109 64.6299L60.0894 64.0317L60.323 63.5177L60.9633 63.1765L61.873 63.1516L62.3606 62.8634L62.6737 62.9491ZM92.4441 105.001L91.8848 104.864L91.7742 104.558L91.4035 104.065L92.0048 104.267L92.307 104.474L92.5033 104.809L92.4441 105.001ZM71.2538 76.7088L71.8567 76.5561L72.4876 76.1402L73.2026 76.1418L73.6014 76.377L73.7696 74.369L73.5344 74.0699L73.0001 73.9998L72.5499 73.2038L72.1386 72.6991L72.6153 72.2131L72.7976 71.7302L73.7914 71.8392L73.5328 71.3314L73.5235 70.9093L72.8817 70.8423L72.4954 69.9247L72.486 69.3048L72.7337 68.638L72.9845 68.5103L72.7337 67.8327L73.3023 66.7952L74.0874 66.2422L74.5142 66.2297L74.9831 65.6939L76.3773 64.982L77.3089 64.9804L77.7528 65.1377L78.0924 65.5926L78.3448 66.8918L78.957 67.5632L79.0738 68.6271L79.4866 69.4325L78.9648 70.2488L79.0567 70.8251L78.6189 71.7504L78.9445 72.2038L78.6454 72.3362L78.7996 72.9406L79.3417 72.0121L79.6938 71.7349L79.7904 70.9607L80.1346 70.7691L80.2966 71.2286L80.7281 70.9762L81.1487 71.4856L81.5413 71.146L81.8933 71.4529L82.3015 71.4498L82.8109 71.8797L83.0585 71.7131L82.0787 71.1086L81.8279 70.4668L81.9962 70.0681L82.4526 69.6864L83.0181 69.4699L83.8951 69.5415L84.8141 70.1896L85.4466 70.1927L86.1227 70.7893L86.2956 71.6819L85.8501 72.4748L86.4903 72.2178L87.3206 72.4826L87.2567 73.3035L86.5043 73.7911L86.7551 73.9998L87.4873 73.9718L87.6789 73.6914L88.0418 73.816L88.0434 74.3628L88.344 74.8083L89.0995 73.9905L89.5186 74.2834L90.1246 74.3426L90.7445 74.6572L91.2461 75.2897L91.2944 75.7897L90.9346 76.3303L90.6121 76.5639L91.3365 76.8396L91.8505 76.338L92.0531 76.7259L92.0297 77.2665L91.5515 78.0469L90.8162 78.4722L91.2197 78.7292L91.1714 79.857L91.606 78.413L92.1528 77.793L92.9488 77.3708L93.2806 77.6045L93.9676 77.6902L94.8446 78.2977L95.0237 78.6404L94.8617 79.061L94.4567 79.4131L93.7978 79.5969L93.2759 79.9334L92.8039 80.3882L93.1497 80.4801L93.5579 80.0471L94.2931 79.8664L94.5486 80.1016L94.1763 80.7387L94.5206 80.882L95.0751 80.044L95.2262 79.5782L95.6795 79.5766L96.3213 80.5284L96.5706 81.4195L96.4568 81.7154L95.7434 81.5036L95.3431 81.5908L95.0066 82.0036L94.6171 82.0052L94.0252 82.2653L94.0891 82.4756L94.8228 82.2544L95.4147 82.633L96.3244 82.6454L97.094 83.1486L97.2139 83.6845L97.0519 83.8246L96.164 83.7732L95.572 83.4742L95.0954 83.7748L95.8151 84.2421V84.6238L95.6437 85.1643L95.0689 84.9478L94.5455 85.0709L95.2916 85.5351L95.4412 86.0008H95.9397L96.2014 86.1893L97.1049 86.4495L96.7513 86.7969L97.1485 87.4901L97.4071 87.0648L97.8214 86.9589L97.7404 87.7985L97.8059 88.0836L98.2763 88.2082L98.4882 87.987L99.0116 88.1506L99.4322 87.7891L99.6176 87.9761L99.3683 88.3157L99.3745 88.6771L100.018 88.5898L100.502 89.2425L100.901 89.4373L100.605 89.6772L100.696 90.1803L100.311 90.1601L100.242 90.4888L100.92 90.4623L101.239 90.0791L101.599 90.2177L101.957 90.5604L101.674 91.2661L101.096 91.939L102.059 91.5169L102.819 91.6633L103.152 91.1929L103.355 91.2848L104.227 92.5123L103.929 92.8098L103.439 92.4157L103.197 92.5871L103.767 92.989L103.873 93.4142L103.493 93.6089L103.107 93.5279L102.784 93.5996L102.618 93.8878L102.998 94.1432L103.325 94.5047L102.666 94.7009L102.816 95.1511L102.518 95.5001L102.454 95.7649L102.051 95.8194L101.462 95.5468L101.535 96.0702L101.537 97.0516L101.487 97.3974L101.219 97.9847L100.842 97.4255L100.509 97.5579L100.094 96.9799L99.8388 97.2401L99.2608 96.3195L98.8792 95.3708L99.1611 94.8115L99.5926 94.567L99.3963 94.3691L99.0038 94.5919L98.3262 94.6277L98.2857 94.3411L97.4772 93.7164L97.0722 92.8176L96.3805 92.9329L96.5456 93.2195L96.3899 93.6385L96.0658 93.3254L95.6437 93.1058L95.8758 93.7523L96.5565 94.5078L96.4397 94.7601L96.0768 94.8692L95.7154 94.7305L95.2994 94.2009L95.1561 94.8146L95.3415 95.1683L95.6655 95.3412L95.5502 95.8178L95.6141 96.0063L96.0518 95.754L96.2746 95.9269L96.3992 96.2587L96.3696 96.6559L96.7077 97.0064L96.8338 97.5002L96.9771 97.48L97.8074 98.2121L98.1782 98.114L98.4009 98.2137L98.7327 98.6639L99.0443 98.8913L98.7343 99.2122L99.1705 99.2621L99.306 99.4833L99.1253 99.8852L98.7405 99.84L99.3886 100.765L99.8216 100.708L100.171 101.661L99.9743 101.739L100.057 102.374L100.035 102.952L99.7998 102.938L99.5506 102.124L99.2858 101.955L99.3963 102.751L99.3122 102.954L99.8294 103.938L99.5023 104.032L99.1907 103.907L99.3418 104.566L99.0568 104.529L98.4368 103.909L98.1268 103.713L97.5582 103.636L97.2684 103.484L96.8276 102.977L96.5612 102.834L96.15 102.32L95.8696 101.873L95.7247 101.87L95.7029 102.413L94.8477 101.603L94.371 101.527L94.304 101.67L94.6171 102.225L95.0035 102.697L95.3072 103.217L95.9132 103.445L95.8337 103.686L96.1842 103.862L96.5176 104.163L96.8214 104.569L97.2575 104.85L97.7327 105.692L98.1252 105.956L97.9258 106.253L98.0224 106.777L97.7638 106.903L97.3806 106.744L97.0519 106.503L96.5597 106.336L96.2216 106.118L94.9972 105.883L94.0797 105.404L93.7105 104.935L93.4769 104.445L93.1451 104.314L92.5765 104.392L91.2493 103.593L90.7757 103.175L90.3115 102.471L90.6713 102.469L90.986 102.23L90.6339 101.661L89.9859 101.653L89.5124 101.086L89.4423 100.824L89.0855 100.443L88.3939 99.5222L88.6088 99.1078L88.154 98.9801L87.7848 99.0549L87.7334 99.3945L87.5402 99.4614L87.4982 98.9645L86.9997 98.7745L86.8408 98.304L86.47 98.4832L86.8346 99.1187L86.7629 99.301L86.2769 99.4225L85.7285 99.167L85.4326 99.2169L85.3656 99.6172L84.9061 99.6655L84.1163 100.069L83.3888 99.9537L82.9386 99.7029L82.7252 99.692L82.3934 99.2932L82.2251 98.9334L82.2065 98.5252L82.328 97.9504L82.6146 97.5376L83.1738 97.2635L83.2829 97.0812L83.1551 96.7447L83.3312 96.3537L84.0446 96.4752L84.4325 96.6139L85.2846 97.0594L85.4404 96.7837L86.1476 96.8818L86.389 96.578L86.8003 96.6232L87.1586 96.5266L87.3595 96.2556L88.2412 96.0702L87.9998 95.363L87.6259 95.0109L87.1025 94.1713L87.1788 93.9485L87.7552 93.4625L88.7101 92.3456L88.9282 92.2506L89.2475 91.2458L89.8005 90.9016L89.989 90.495L89.8161 90.199L89.5248 89.1195L88.8893 87.5679L88.545 87.0071L88.1322 86.909L87.8253 86.4323L87.9515 85.9027L87.8627 85.4619L87.5153 85.4634L87.7131 85.9011L87.4296 86.0554L87.1181 85.8965L86.8237 85.44L86.6881 84.7749L86.4732 84.4446L86.0868 84.7126L85.6834 84.5552L85.5525 84.7905L84.5353 85.4946L84.2534 85.3902L84.3344 84.3481L84.5649 84.1907L85.121 84.2702L85.4933 83.8028L85.3391 83.214L84.5291 82.7607L84.3826 82.4803L83.5897 81.9725L83.9278 81.6251L83.7362 81.2808H83.1131L82.9293 81.0378L82.8155 80.005L82.6582 79.7106L82.0849 79.7807L81.6425 79.3009L81.1752 78.4114L80.697 78.8009V79.2261L81.1269 79.41L81.398 79.9754L81.4385 80.477L81.2936 80.745L80.7531 81.0596H80.3465L79.6346 80.6749L78.4133 80.3103L78.2856 80.7247L78.6392 81.2263L78.6439 81.6781L77.8058 80.8774L77.0565 81.2621L76.6016 81.1687L75.815 80.6437L74.8133 80.801L73.9503 80.639L73.4456 80.3602L72.7633 80.234L72.31 80.5191L71.6028 80.1031L71.2087 79.114L70.5591 79.0719L70.637 79.41L70.0637 79.4084L69.545 79.6935L68.8907 78.9535L68.3097 78.6404L67.8392 77.7089L67.6352 76.4829L68.5075 76.5702L69.6182 76.9752L70.4827 76.8023L69.5808 75.9128L68.6461 75.7835L68.0075 75.5903L67.2068 75.0373L67.0089 74.7554L66.7753 72.858L66.8968 72.4359L67.2457 71.9732L67.0385 71.7613L66.9887 70.8843L67.6445 69.1739L67.7676 67.9962L68.4966 66.4852L69.7802 65.0131L71.0202 64.4944L72.0872 64.4181L73.1823 64.6159L73.3599 65.144L72.4377 66.2204L71.9097 67.1364L71.2024 68.8795L71.2476 69.8017L71.6028 70.6725L71.5779 72.1212L71.7383 73.0667L71.9751 73.6026L73.2961 75.3255L72.7976 75.8396L72.0935 76.0982L71.2538 76.7088ZM93.5501 1.38326L95.3524 1.97833L97.3276 2.15903L97.0083 3.4878L95.0253 4.9443L96.2777 5.0331L98.4539 3.23077L99.6939 2.87404L101.393 3.97226L101.238 4.76828L101.9 6.0768L103.708 6.84477L104.105 7.31054L104.261 8.89946L103.084 11.1598L101.238 13.001L99.9587 14.0214L99.1082 13.9326L98.7561 14.6149L97.2825 15.0775L96.907 16.2427L94.5938 17.9127L95.0767 18.1899L98.443 16.1633L99.6892 16.1742L98.7717 17.9874L97.1516 20.0561L94.6685 23.0299L93.6653 25.0628L92.6964 25.2591L92.5375 26.5302L90.9673 27.2016L92.1419 27.5988L91.8957 28.3185L91.1153 28.9681L91.4362 29.4401L91.0748 30.0725L89.7071 30.5664L88.3876 29.5928L88.6727 30.9324L88.3643 32.0042L86.0261 32.5322L84.6755 32.5852L84.9092 33.2036L86.2426 34.0589L87.0417 33.8813L86.9748 35.1041L86.0604 35.2225L85.1755 34.6555L83.2377 35.073L81.6955 34.9515L82.6068 35.8581L83.9854 35.3425L84.7269 35.4188L85.3282 36.2148L86.2364 36.4267L87.1041 37.327L86.9561 38.0171L86.523 38.5141L84.5743 38.6698L85.7285 39.4362L86.1118 39.9254L85.646 40.6092L85.2347 41.9474L83.7907 42.4645L82.437 42.3461L82.3435 42.9677L82.3544 44.9663L82.0834 45.6034L81.3201 46.0848L79.968 46.2795L79.0987 46.1891L78.9679 46.6066L79.4882 47.1565L79.9446 46.9057L80.7048 47.1129L80.8621 48.4058L81.4213 48.708L82.0772 48.1628L82.4541 48.8887L82.4744 49.4433L82.0818 50.4823L80.4836 51.931L78.9461 52.6663L78.5457 52.456L78.7576 51.607L78.3198 50.8095L77.77 50.9668L77.1936 50.1552L76.773 50.1178L76.9334 51.0712L75.4271 51.2192L74.7791 51.1428L74.3382 49.8951L74.2712 51.6771L73.1418 51.9638L72.4393 51.7192L71.6371 50.9263L71.2897 50.7877L71.1354 51.5665L70.2569 51.1693L70.0699 51.5136L68.8985 51.4076L68.3673 51.121L67.3688 50.9263L67.4591 49.0336L68.8954 47.4307L70.2475 47.2422L70.8831 46.8668L70.5871 46.2312L70.1587 45.9929L69.7023 45.1252L69.2911 43.7497L69.3923 43.3478L70.0715 42.8088L70.6962 42.6826L71.7975 43.5846L72.5592 45.3152L73.6668 45.915L74.6653 45.7389L75.142 45.429L74.9177 44.8853L73.9971 44.7077L73.5079 45.0847L72.9487 44.7248L72.9456 43.4755L72.6122 42.4614L73.8273 40.7713L73.444 40.4909L72.5624 41.3196L71.7383 41.4987L71.4657 40.7635L70.8317 41.209L69.9998 40.8928L70.0777 39.3475L70.7803 37.7274L70.9688 36.9906L72.4253 36.5264L73.0266 36.1322L74.751 36.5575L75.5797 37.0186L75.9474 36.5232L75.8586 35.8768L74.2183 35.6338L73.9394 34.7692L74.3725 33.9109L73.2088 31.163L72.7306 30.5991L71.9813 30.3654L71.475 29.4588L71.2211 27.3729L71.623 25.8681L73.1185 26.2373L74.5563 26.3137L74.9909 26.5676L76.7465 28.9915L77.4257 30.3607L78.5286 30.5757L76.8041 27.8044L75.9848 26.189L76.5393 25.432L78.5675 24.8852L79.7795 24.2294L80.3294 23.2776L81.9494 22.1747L83.9527 21.4083L81.7345 21.0516L81.6332 20.0343L80.8901 19.4112L80.359 21.3771L79.672 22.3414L78.5333 23.2215L76.7574 23.9692L76.0845 23.8399L76.7995 22.6264L75.4099 22.7448L74.5314 24.0097L72.9253 24.2496L72.3801 23.8119L71.6962 23.9334L71.2367 23.1483L71.6947 22.1326L73.0048 20.4985L73.7447 20.0437L75.4785 19.5327L75.5579 19.1558L72.3084 20.106L70.2896 23.1016L69.7911 23.2106L68.2131 22.0018L67.7676 21.1092L68.8767 20.4004L70.2117 20.4954L71.4018 20.0998L73.2182 18.3115L72.1854 18.3613L71.2102 19.3692L70.3597 19.7228L67.2987 20.1278L66.8765 18.9455L67.8392 18.285L67.2831 17.8379L67.5542 17.0995L68.6041 16.0994L68.1399 15.7458L66.4123 16.978L66.0852 16.4266L67.0089 15.1196L65.9902 14.7239L64.9792 15.4187L64.6598 14.4731L65.2175 13.5307L66.1677 12.7097L67.6149 12.3437L68.6757 10.9931L69.8861 10.7657L70.4345 11.5663L71.2055 11.0881L72.4845 12.0041L72.9222 11.1535L71.2663 9.79361L73.4612 7.23577L75.1638 8.44459L75.9209 10.2282L76.5378 9.21413L79.1283 11.5243L79.6767 11.3015L77.2419 8.91348L76.6499 7.45697L77.6531 6.54568L77.0783 5.70761L78.9881 3.99407L79.7468 4.64366L80.8792 4.37105L79.6611 2.68711L79.9944 2.21978L81.7687 2.71982L83.1318 2.80394L84.5119 5.00506L84.8702 6.23102L85.6273 5.63907L83.8764 2.42073L83.5944 1.47206L85.3936 1.05769L88.5403 1.57643L89.2179 0.690059L90.2975 0.471973L91.0281 1.33809L91.7477 0.507801L92.9223 0.311523L93.5501 1.38326ZM70.8317 80.2262L71.2242 80.2543L71.0653 80.7496L70.4703 80.5876L70.2974 80.2683L70.8317 80.2262ZM81.3762 121.434L81.3357 121.23L81.4104 120.874L81.5958 121.029L81.3762 121.434ZM78.8915 129.057L78.5286 129.029L77.4475 128.602L77.1874 128.403L77.4366 128.107L78.1049 128.025L78.365 128.065L78.8479 128.677L78.8915 129.057ZM48.3984 58.6497L47.727 58.5235L47.3967 58.0842L47.7083 57.0499L48.1024 56.6355L48.8096 57.0732L49.0215 58.0079L48.3984 58.6497ZM81.2329 121.15L81.0397 121.614L80.9213 122.04L80.792 121.952L80.9634 121.454L80.8605 121.362L80.6175 121.924L80.1518 122.222L80.5007 121.555L80.4135 121.49L79.9695 122.072L79.8449 121.931L80.3714 121.2L80.6378 121.125L80.7936 120.362L81.197 120.784L81.2329 121.15ZM59.8884 61.2854L59.2747 61.0642L59.6236 60.6405L59.8884 61.2854ZM88.1618 88.6895L87.1804 88.6693L86.9202 88.5353L86.6959 87.9932L86.7473 87.7066L87.1742 87.6147L88.4048 88.0446L88.4406 88.6568L88.1618 88.6895ZM99.6207 108.28L98.8885 107.743L98.8387 107.506L99.2328 107.406L99.6768 107.471L99.8341 107.662L99.7982 107.993L99.6207 108.28ZM58.7185 38.6028L59.5566 38.6979L60.2483 39.2618L60.4352 39.8132L59.8588 40.5843L60.3713 41.3383L60.175 42.0548L58.9693 42.7122L57.6951 43.2154L57.5596 42.4256L57.1249 42.1203L56.8227 41.438L57.6281 41.2729L57.2605 40.723L56.6124 40.5485L56.0454 39.268L56.2978 38.4253L55.9987 37.5389L56.0999 36.7896L57.1826 36.9345L58.2201 37.5732L58.7185 38.6028ZM77.2372 103.845L77.2512 104.354L77.0892 104.706L76.4973 105.411L75.9131 105.953L75.4427 105.873L75.0236 106.091L74.7619 105.205L74.9707 104.943L75.4442 103.987L75.9785 104.076L76.3166 103.873L76.639 103.898L76.9319 103.78L77.2372 103.845ZM86.5199 86.7174L85.8423 86.0912L85.9903 85.5101L86.3859 85.655L86.6274 86.3311L86.5199 86.7174Z" fill="#00212E"/>
<path d="M80.4712 132.819L80.2173 132.504L80.2515 132.028L80.4696 131.613L80.4712 132.819ZM80.4727 132.916L80.4743 134.273L80.4758 136.226L80.479 138.14L80.4805 139.644L80.4369 139.921L80.574 140.267L80.6737 140.661L80.9338 141.033L81.1301 141.452L81.4354 141.856L81.8529 142.019L82.867 142.247L83.2736 142.479L83.4527 142.778L83.7175 142.959L83.987 142.823L84.1911 143.266L84.3391 143.452L84.7083 143.561L84.9014 143.523L85.1865 143.68L85.5479 143.622L86.5418 143.267L86.9156 143.286L87.1509 143.406L87.0449 143.87L87.2241 144.062L86.7443 144.451H86.5511L86.1305 144.643L85.8408 144.876L85.3314 145.381L84.9856 145.619L84.4216 145.844L84.0353 145.954L83.7051 146.197L83.6864 146.498L83.5602 146.527L83.3343 146.337L83.1007 146.353L82.9963 146.216L82.2096 146.348L81.7657 146.457L81.5803 146.462L81.0709 146.584L80.7547 146.847L80.4073 147.048L80.1394 147.512L80.2001 147.632L80.7095 147.73L81.0694 147.577L81.0974 148.045L81.2329 148.249L81.0756 148.328L80.6456 148.296L80.1768 148.334L79.5583 148.484L79.2577 148.771L79.0411 148.802L78.767 148.718L78.2124 148.699L77.8962 148.81L77.5909 149.065L77.3852 149.37L77.1796 149.4L76.8322 149.573L76.636 149.75L76.1515 149.856L75.7932 149.727L75.8384 149.324L76.1063 149.174L76.5269 148.75L76.6017 148.546L76.6936 148.053L77.002 147.931L77.5192 147.498L77.6127 147.235L77.5878 146.175L77.7653 145.721L77.9788 145.492L78.1532 145.199L78.1797 144.844L78.0006 144.481L77.7716 144.152L77.7653 143.973L78.1548 143.998L78.2031 144.406L78.5333 144.686L78.5131 144.822L78.8153 145.009L78.9991 144.97L79.0723 145.122L79.2452 145.233L79.7344 145.395L79.8496 145.096L79.7048 144.812L79.8496 144.724L80.0708 144.884L80.144 144.791L80.0693 144.576L79.7328 144.256L79.7266 143.73L79.4929 143.792L79.3434 143.608L79.3387 143.395L79.1798 143.364L78.9897 142.99L78.7794 142.689L78.4149 142.706L78.2327 142.646L77.7653 142.603L77.7389 142.373L77.5395 142.401L76.9818 142.346L76.7808 142.234L76.3727 142.267L76.3011 142.208L75.9007 142.256L75.3352 142.15L74.7838 141.971L74.5112 141.918L74.5174 141.641L74.4146 141.536L74.0672 141.613L73.8896 141.51L74.0594 141.231L73.9083 141.074L74.0984 141.002L73.994 140.81L73.8164 140.851L73.6248 140.633L73.8554 140.089L73.698 139.884L73.4098 139.666L73.3086 139.474L73.5158 138.871L73.374 138.851L72.525 138.888L72.1356 138.715L71.8864 138.363L71.6885 137.698L71.5063 137.338L71.1854 137.212L70.9533 137.256L70.4283 137.249L70.1884 137.133L69.4594 136.888L69.3861 136.809L69.0715 136.858L69.1229 137.069L69.274 137.249L69.112 137.603L68.6758 137.739L68.9796 137.382L68.9001 137.114L68.7599 137.137L68.6789 137.519L68.4951 137.841L68.4577 138.022L68.2568 138.114L68.4048 137.631L67.8502 137.891L67.8331 138.098L67.6617 138.538L67.3579 138.77L66.8158 138.743L66.6881 138.542L66.3906 138.58L65.8376 138.569L65.7114 138.382L65.4466 138.394L65.216 138.569L64.8281 138.659L64.3842 138.388L64.1926 138.184L63.976 138.111L63.6598 138.232L63.5477 137.921L62.9012 137.573L62.4043 137.564L62.2921 137.673L61.9743 137.745L61.7858 137.583L61.521 137.482L60.7826 137.315L60.6736 137.186L60.4944 136.569L60.4789 136.198L60.3683 136.109L60.0863 136.069L60.0801 134.322L60.0848 131.648L60.0879 128.895L60.5879 128.395L62.088 126.876L63.4168 125.247L64.2144 124.304L65.0104 123.351L65.9217 122.315L66.833 121.267L68.1789 119.765L68.3378 119.854L68.8316 120.342L69.3176 120.676L69.5746 120.972L69.9874 121.641L70.3457 121.831L70.824 121.971L71.5312 122.3L72.0437 122.479L72.444 122.697L72.7961 123.089L73.2478 123.423L73.9551 123.484L74.7464 123.356L75.0642 123.471L75.6546 123.585L75.9521 123.546L76.1063 123.708L76.4849 123.736L76.8354 124.079L76.9522 124.498L76.6936 125.527L76.7248 125.918L76.9257 126.22L77.0534 126.724L76.9896 127.179L77.0301 127.937L76.8572 128.369L76.8977 128.596L77.2123 128.919L77.7607 129.733L77.6797 130.029L78.1704 130.464L78.5832 130.712L78.9882 131.163L79.3652 132.062L79.711 132.16L80.0599 132.388L80.4727 132.916ZM69.3752 137.365L69.302 137.186L69.4204 137.089L69.6588 137.086L69.6541 137.265L69.3752 137.365ZM76.1671 142.641L76.2777 142.875L76.8058 142.632L77.0098 142.839L77.2544 142.641L77.5473 142.932L77.7685 142.988L77.5582 143.362L77.393 143.465L77.1999 143.409L76.8167 143.189L76.2792 142.977L76.0175 142.951L75.7262 142.831L75.7714 142.714L76.1671 142.641ZM74.8804 142.284L74.6576 142.392L74.5283 142.152L74.5501 142.015L74.8617 142.121L74.8804 142.284Z" fill="#00212E"/>
<path d="M100.953 141.714L101.122 141.537L101.529 141.64L101.842 141.802L103.101 141.679L103.283 141.803L102.594 142.286L102.621 142.64L102.345 142.66L102.169 142.594L102.147 142.365L101.858 142.122L101.649 142.309L101.174 142.165L100.889 141.83L100.562 141.795L100.568 141.537L100.4 141.406L100.2 141.387L100.244 141.144L100.415 140.892L100.714 140.585L100.73 140.87L100.591 141.132L100.833 141.392L100.83 141.638L100.953 141.714Z" fill="#00212E"/>
<path d="M103.573 136.619L103.028 136.648L102.272 136.466L101.956 136.357L101.272 136.009L101.129 135.738L100.856 135.489L100.133 135.146L100.221 134.949L100.535 134.916L101.02 135.05L101.63 135.168L102.194 135.393L103.553 136.24L103.71 136.528L103.573 136.619ZM88.2336 143.59L87.961 143.591L88.2913 143.156L88.2336 143.59ZM99.9059 111.116L99.6427 111.218L99.8592 111.631L99.5585 111.789L99.8389 112.165L99.6754 112.398L99.6395 113.109L99.7751 113.299L100.127 113.142L100.029 113.914L100.194 114.491L99.7019 114.364L99.652 114.667L100.323 114.825L100.504 115.067L101.062 114.836L101.239 114.917L101.289 115.165L100.758 115.283L100.615 115.389L100.657 115.632L100.859 115.606L100.904 115.844L100.579 116.095L100.222 116.565L100.202 116.74L100.411 116.939L100.647 117.509L101.21 117.793L101.04 118.008L101.023 118.863L100.867 119.355L100.833 119.675L100.56 120.147L100.766 120.535V120.743L100.529 120.848L100.548 121.071L100.82 121.237L100.7 121.544L101.256 121.712L101.098 122.096L101.468 122.709L101.81 122.899L101.8 123.373L101.344 123.692L101.292 123.878L101.37 124.261L101.152 124.879L101.031 124.951L100.263 124.694L99.6442 124.677L99.2439 124.711L98.5211 124.652L98.25 124.284L97.7858 124.055L97.1425 123.346L97.1238 123.779L97.2499 124.53L96.968 124.571L96.5785 124.216L96.4025 123.929L96.2249 123.991L96.5988 124.942L96.3854 125.164L96.0956 125.04L95.9866 125.189L96.1283 125.794L95.9072 126.006L95.8075 126.245L96.1813 126.77L96.1985 127.2L96.5801 127.328L96.6954 127.602L96.8761 127.797L96.834 128.353L96.725 128.685L96.7063 129.042L97.0365 129.188L97.2016 129.101L97.2764 128.707L97.5911 128.529L97.7079 128.735L97.5428 129.244L97.5849 129.764L97.4945 129.928L97.7344 130.015L97.9727 130.208L98.0522 130.422L98.2516 130.539L98.3855 130.433L98.6831 130.454L98.7843 130.236L99.2236 130.325L99.4916 130.537L99.8888 131.023L99.7969 131.244L99.9262 131.497L100.046 131.478L100.328 131.226L100.27 130.987L100.369 130.442L100.537 130.257L100.573 129.849L100.467 129.473L100.475 128.911L100.741 128.738L100.814 128.369L101.135 128.292L101.295 128.643L101.292 129L101.476 129.183L100.953 129.35L100.683 129.534L100.858 129.92L101.012 130.021L101.219 130.652H102.81L104.4 130.651H105.991H108.111H109.701L109.703 131.825L109.443 131.752L108.83 131.861L108.5 132.078L107.865 132.135L107.698 132.392L107.154 132.998L107.009 133.202L106.732 133.417L106.428 133.794L106.162 133.945L106.07 134.154L105.818 134.28L105.129 134.349L104.869 134.29L104.674 134.38L104.24 134.388L103.673 134.586L103.419 134.324L103.099 134.312L102.842 134.234L102.381 134.184L101.833 134.199L101.699 134.304L101.246 134.273L101.054 134.178L100.686 134.179L100.484 134.249L100.043 134.17L99.5757 134.237L99.0523 134.146L98.4089 134.271L98.1566 134.199L97.9353 134.389L97.4524 134.368L97.1331 134.665L96.8714 134.81L96.4898 135.603L96.4539 135.905L96.3106 136.111L95.418 136.295L95.1236 136.413L94.9507 136.608L94.6734 136.791L94.6189 136.925L94.2808 137.145L93.8867 137.65L93.6982 138.017L93.4708 138.284L93.3088 138.385L93.0767 138.368L92.3835 138.056L91.5563 137.882L91.79 138.055L92.2308 138.08L93.0596 138.436L93.1764 138.581L93.0066 139.1L92.8913 139.279L92.4925 139.737L92.2994 139.89L91.9629 140.435L91.4286 140.846L91.2307 141.092L90.5921 141.325L90.4332 141.3L90.0095 141.543L89.9409 141.683L89.3895 142.057L88.9969 142.203L88.944 142.371L88.7835 142.473L88.6028 142.786L88.3504 143.088L88.0436 143.138L87.8021 143.412L87.6199 143.529L87.7024 143.819L87.5404 143.859L87.2242 144.062L87.045 143.87L87.151 143.406L86.9157 143.286L86.5419 143.267L85.548 143.622L85.1866 143.68L84.9016 143.523L84.7084 143.561L84.3392 143.452L84.1912 143.266L83.9872 142.823L83.7177 142.959L83.4528 142.778L83.2737 142.479L82.8671 142.247L81.853 142.019L81.4355 141.856L81.1302 141.452L80.934 141.033L80.6738 140.661L80.5741 140.267L80.437 139.921L80.4806 139.644L80.4791 138.14L80.476 136.226L80.4744 134.273L80.4729 132.916L80.4713 132.819L80.4697 131.613L80.7081 131.437L80.8047 131.598L81.0975 131.782L81.2829 132.184L81.3748 131.853L81.4994 131.712L81.1785 131.216L81.3732 130.732L81.5384 130.584L81.8125 130.118L81.7268 129.606L81.5103 129.314L81.4542 129.031L81.5119 128.822L81.2829 128.417L81.1598 127.618L81.0025 126.945L81.1458 126.682L81.0523 126.47L81.1552 126.314L80.8343 126.101L80.7642 125.837L80.5881 125.569L80.2812 124.759L81.2673 124.343L82.0571 123.918L82.5961 123.535L83.3329 122.803L84.0682 121.781L84.213 121.522L84.3486 120.932L84.3828 120.108L84.3143 118.975L84.2068 118.494L83.8999 117.576L83.5525 116.936L82.8656 116.263L82.4356 115.995L81.7814 115.288L81.892 114.735L82.4699 113.863L82.7659 113.52L82.6366 113.274L82.8001 113.004L82.8111 112.76L83.1242 112.737L83.3251 112.447L83.2706 112.113L83.35 111.808L83.0432 111.758L83.1662 111.537L82.8687 110.797L83.0852 110.437L82.7254 110.233L82.8952 109.834L82.621 109.845L82.2456 109.666L82.6755 109.045L82.8095 108.647L82.797 108.087L83.0868 107.761L82.5213 107.197L82.3531 106.75L82.2752 106.239L82.2799 105.75L82.364 105.544L82.9699 105.049L83.2722 104.932L83.9139 105.066L85.3004 105.656L85.4842 105.842L85.9203 105.666L86.7693 106.027L87.4002 105.641L87.9766 105.225L88.1511 105.267L88.7181 105.759L89.1262 106.189L89.4019 106.22L89.6169 106.752L89.9814 107.004L90.1699 107.289L90.7478 107.594L90.483 108.009L90.6108 108.359L91.0282 108.842L91.3523 108.875L91.9411 109.123L92.519 109.085L92.639 109.161L92.7589 109.591L93.0019 109.646L93.2636 109.499L93.3742 109.137L93.5721 109.241L93.6219 109.769L93.3524 110.101L93.1966 110.763L93.3618 111.342L93.3088 111.721L92.9318 111.872L93.3664 112.381L93.4319 112.761L93.2854 113.243L93.2979 113.618L93.6655 113.628L93.6001 114.031L93.6484 114.268L93.4942 114.818L93.3041 114.913L93.0564 114.85L92.6748 115.019L93.0424 115.251L93.34 115.173L93.6889 114.864L93.9615 114.749L94.5815 114.729L94.8728 114.933L95.066 115.506L95.3464 115.81L95.5162 115.841L95.6797 116.31L96.052 116.456L96.7701 115.911L97.158 115.766L97.306 115.621L97.4275 115.251L97.6269 115.014L97.8793 115.176L98.0413 115.48L98.1924 115.467L98.0428 114.941L98.613 114.207L98.6114 113.947L98.8716 113.112L98.7828 112.913L98.8373 112.5L99.1956 112.361L99.1784 112.159L99.4916 111.26L99.6411 111.051L99.9059 111.116ZM97.1798 138.729L96.7203 138.932L96.32 139.056L96.0396 138.891L95.9959 138.776H95.3432V138.912H94.999L94.9974 139.571L94.8448 139.781L94.6718 139.896L94.1173 140.139L94.122 139.884L93.8712 139.814L92.8742 141.258L92.7963 141.767L92.5595 142.125L92.4863 142.49L92.4972 142.773L92.3352 143.088L91.9676 143.435L91.9847 143.664L91.8414 143.708L91.7137 143.973L91.5797 143.834L91.4052 143.971L91.1529 143.921L91.0329 144.088L90.9052 144.443L89.2773 144.446L87.6495 144.449L86.7444 144.451L86.9298 144.381L87.3177 144.11L87.6043 144.012L87.975 143.725L88.2445 143.671L88.366 143.286L88.6418 142.853L88.7648 142.579L88.986 142.403L89.3194 142.256L89.6294 141.934L89.9627 141.764L90.0328 141.633L90.4051 141.404L90.7042 141.363L91.2401 141.167L92.2059 140.641L92.3773 140.479L92.6 140.147L92.7932 139.979L92.8617 139.798L93.1421 139.505L93.4303 139.116L93.5736 138.837L93.7886 138.681L94.2045 138.236L94.4273 138.058L94.7715 137.879L95.1812 137.545L95.6361 137.338L96.0645 137.092L96.6424 136.877L97.3185 136.555L97.8668 136.38L98.8856 136.284L99.6162 136.424L99.9667 136.597L100.365 136.961L100.434 137.19L100.376 137.695L100.252 137.944L99.881 138.069L99.7096 138.327L99.0647 138.732L98.7828 138.712L98.4183 138.555L98.1939 138.405L97.9899 138.572L97.5132 138.539L97.1798 138.729ZM103.426 140.158L103.412 139.887L103.799 139.561L103.86 139.627L103.462 140.043L103.426 140.158Z" fill="#00212E"/>
<path d="M51.9878 136.819H50.3195H48.0965H45.8721H44.2053H41.9808H40.733V135.441V134.045V132.628V130.464V128.247V126.741V124.434V122.862V121.264L40.7314 119.636V117.978V115.431V113.691V111.916H42.688H43.9903H46.598H48.553H51.1607V115.26V117.206V119.735V122.197L51.265 124.155L51.3678 126.071L51.4722 127.95L51.5766 129.791L51.6794 131.596L51.7838 133.367L51.8866 135.107L51.9878 136.819Z" fill="#00212E"/>
<path d="M6.25536 84.7622L6.25224 88.8186L6.61209 89.6131L6.6962 90.3266L6.54978 90.7409L6.66972 91.3329H9.36932L9.70891 91.9513L9.74942 92.5043L9.91609 92.7847L9.71514 93.6368L9.98464 93.6991L10.0033 94.0496L9.86157 94.3113L9.97685 94.7381L10.8258 94.5263L10.9785 94.8487L11.248 94.5247L11.6047 94.7615L11.3259 95.0746L11.6639 95.5232L11.7948 95.8971L11.5985 96.3831L11.2698 96.8941L11.3757 97.472L11.5876 97.6434L11.4006 97.8942L11.3274 98.4378L11.6312 98.4908L11.9801 98.7307L12.4194 99.2447L12.3571 99.6513L12.5892 99.6529L12.8852 99.4161L13.2139 99.5906L13.4429 100.137L13.4288 100.373L13.7949 100.938L13.9881 101.028L14.4679 101.497L14.5738 101.868L14.8589 102.307L14.524 102.793L14.8807 103.449L15.1393 103.518L15.0224 104.195L15.3215 104.859L15.6845 105.1L15.5863 105.304L15.6097 106.074L16.2531 106.347L16.5335 106.213L16.7422 106.443L16.9946 106.91L17.141 106.977L17.2718 107.336L17.7734 107.825L18.1769 107.881L18.4729 108.27L18.5321 108.929L18.6411 109.129L18.7112 109.819L19.0041 109.908L19.1941 109.806L19.8671 109.783L20.0493 109.566L20.6818 109.828L20.9778 109.688L21.3314 109.646L21.4279 109.375L21.7192 109.397L21.8205 109.838L21.6974 110.174L21.9545 110.62L22.1539 110.674L22.2131 110.993L22.4826 111.588L22.4872 111.813L22.7147 111.916H20.2331H17.7516H15.2701H14.0286H11.5471H10.3055H7.82402H6.58249H4.10098L2.84853 111.914L2.6803 111.701L2.81894 111.017L2.04006 111.059L1.65373 111.439L1.02751 111.134L0.934046 111.347L0.3125 111.132V109.58V107.199V104.748V102.223V99.6202V96.0171V93.2069V91.2783V88.2968V86.2452V81.9785L1.08982 82.1592L1.64906 82.0876L2.68497 82.4848L3.32677 83.2216L4.05892 83.8276L5.19141 84.513L5.89863 84.784L6.25536 84.7622Z" fill="#00212E"/>
</g>
<defs>
<clipPath id="clip0_350_140">
<rect width="115.812" height="150.168" fill="white"/>
</clipPath>
</defs>
</svg>
