<svg width="85" height="103" viewBox="0 0 85 103" fill="none" xmlns="http://www.w3.org/2000/svg">
<g clip-path="url(#clip0_217_1460)">
<path d="M6.15518 35.7196L6.13542 35.8988L5.26592 35.6735L5.12627 35.1702L4.57295 34.4312L4.25545 33.0479L3.49398 32.4063L3.33194 34.7763L2.9209 33.8976L2.98545 32.2982L3.15013 31.5447L3.77459 29.7754L5.37131 26.4976L6.24082 25.6268L7.41596 23.6875L7.88892 23.6032L8.4014 22.9985L9.47115 21.2042L10.1141 21.0856L12.1363 21.8748L13.6184 21.5757L14.9372 20.9565L15.9885 20.1437L16.4364 19.9526L17.3138 19.9236L18.6194 20.4335L20.1081 20.6074L21.7799 20.3716L22.5071 20.062L23.3358 19.9987L23.9088 19.7656L26.1643 17.9923L26.4133 17.7183L28.1918 15.0465L29.3498 12.8886L29.5725 12.6238L30.9689 9.41189L32.2007 8.11027L32.6236 7.51479L33.472 5.86933L34.2256 5.50308L35.1504 5.64273L36.5601 5.68357L37.4889 5.52679L39.0118 4.93264L40.4083 4.09343L43.9588 0.969813L44.9258 0.370384L45.8111 0.263672L46.1971 0.49027L44.4765 1.85512L43.3659 3.24501L42.5517 4.64939L42.225 6.03005L42.6255 7.48713L43.6373 8.78743L44.1933 9.65825L44.4291 10.4948L44.0338 11.0231L43.8336 12.5302L44.0536 14.4682L44.3803 16.1532L44.4093 17.6748L43.4476 18.4007L42.5359 19.5482L41.8153 21.1936L41.3555 23.2804L40.9339 24.7678L40.5427 25.5082L39.9959 25.3343L39.2463 25.5873L38.6061 25.4792L36.5891 23.5993L36.0331 23.3239L34.9489 22.2753L34.2941 22.3609L33.4852 23.3793L32.3799 22.8444L31.737 22.1435L30.8398 21.6047L30.081 22.9616L29.3182 23.0868L28.6753 22.6929L28.6806 22.0157L27.6964 22.6771L27.927 23.1197L27.7017 23.511L27.0562 23.7969L25.4963 23.6322L24.445 23.9247L23.4873 24.3607L22.2818 24.7375L21.3622 25.3936L20.7483 25.2987L19.1529 23.839L17.8763 24.3871L16.497 24.5636L16.1729 25.0168L15.4615 25.109L15.2059 25.7348L14.8001 25.42L14.1362 25.2764L13.7133 25.578L14.0439 26.0233L12.3023 26.9139L10.9401 26.6886L10.0785 28.7952L10.2194 29.5738L9.80973 30.3142L9.17868 31.0717L8.45541 31.1112L7.61753 31.8121L7.28949 32.2917L7.84676 33.1559L7.46207 34.1967L8.12474 34.4707L8.3487 34.916L7.67286 35.4601L7.01415 35.024L6.15518 35.7196ZM38.1054 35.4403L37.4375 36.0898L37.4678 36.4929L36.8381 36.6813L36.7063 37.4151L36.1978 37.564L35.3863 38.1292L34.2585 38.477L33.7237 38.8011L32.5367 39.1634L32.4761 39.6073L31.65 39.7931L30.99 39.4295L30.1851 39.631L29.5105 38.668L28.8742 38.506L28.2722 38.8366L28.2893 37.9118L28.8545 37.7208L28.7556 37.2623L27.4448 37.2465L26.8533 37.0449L26.9257 36.6102L26.159 35.5668L25.2987 35.7618L24.9101 36.987L24.4674 36.9053L23.3015 36.1517L23.0999 35.8658L22.4834 35.8395L22.0196 34.9976L20.9815 35.3033L19.9118 36.07L19.6311 35.4983L20.6956 34.4707L21.1251 33.4549L20.917 32.9438L20.0685 32.7607L20.1318 32.1033L19.8867 31.5117L20.4954 30.305L20.3412 29.2695L19.7695 28.8769L19.9566 27.844L20.8564 26.7835L21.1053 26.2236L21.7285 26.026L21.9195 25.3738L23.092 24.8693L24.4147 24.5702L25.8889 24.7085L27.1945 25.5319L26.3816 26.5872L26.6359 27.2156L27.0417 26.5174L27.8427 26.134L28.7596 24.777L28.9045 24.0103L29.247 23.7969L30.6751 23.4254L31.8384 23.7205L32.2877 23.3595L32.9951 23.2581L33.3851 23.5308L33.9002 23.4056L34.5932 22.5677L35.0753 22.631L35.3033 23.1434L36.8209 24.4595L37.0871 24.8469L38.0527 25.5543L38.7668 25.827L40.0117 25.7019L39.9722 26.2618L39.494 27.1721L39.3122 28.6226L39.3912 28.9032L39.5691 31.5684L39.9511 33.1585L40.5875 34.1716L40.432 34.7987L39.9946 34.5774L39.1567 34.5194L38.6904 34.2849L37.9249 34.8382L37.1977 34.2652L36.5113 34.6103L35.9791 35.1412L35.7301 34.8712L35.078 35.1149L34.9067 35.5444L34.3837 35.6247L33.9186 36.5641L35.211 35.655L35.5391 35.2387L36.1899 35.4917L36.6668 34.6815L37.5692 34.7342L38.1054 35.4403ZM15.1835 26.5872L15.3996 27.8137L14.7527 29.0271L13.9912 28.8874L13.7199 29.3933L13.9636 30.5856L14.538 31.463L13.8529 32.9108L13.7581 33.6605L13.1916 34.0636L12.6369 34.8093L12.7726 35.1281L11.9822 35.518L11.4934 35.5114L10.3947 35.9607L10.2616 35.1729L9.84793 34.7342L8.96789 34.8475L8.56739 33.6249L8.89543 33.0347L8.70045 32.239L9.40001 31.8055L10.0021 31.9531L10.7991 31.4999L10.7491 31.127L9.80446 30.9611L10.4987 29.8939L10.4434 29.0929L12.434 28.4817L13.5117 28.2946L13.7488 27.4053L14.4181 26.7703L15.1835 26.5872ZM56.0685 14.5894L55.9329 15.3113L54.5799 15.314L53.8987 15.6512L54.1741 15.9621L54.0331 16.7842L53.5615 17.4284L52.5879 17.9752L52.0899 18.0345L51.9239 17.4574L51.4628 17.0872L50.9148 17.1149L50.3312 16.8211L50.2218 16.4206L50.8146 15.9424L51.0953 15.4589L52.0557 15.0531L52.6867 15.0492L53.0332 14.646L54.6299 14.6065L55.1266 14.3325L56.0685 14.5894Z" fill="#00212E"/>
<path d="M10.6333 38.7742L10.0115 40.0679L9.84546 39.678L10.3303 38.8006L10.6333 38.7742ZM40.5033 64.8303L40.3979 65.5351L39.0555 65.5536L39.9513 64.8237L40.5033 64.8303ZM17.4602 30.1543L17.9766 30.3071L17.9292 31.0357L17.1888 31.3123L16.9569 31.809L16.3997 31.3097L15.9939 30.4547L17.4602 30.1543ZM6.13559 35.8983L6.15535 35.7191L6.52028 35.8917L7.30414 35.4227L7.96945 36.0089L8.86266 35.316L9.29873 35.7586L9.09716 36.4081L9.35538 36.8244L9.84546 36.1183L10.3118 36.4437L10.1893 37.2486L9.5609 36.9931L9.41335 38.155L8.73751 38.1774L8.117 38.5305L7.71123 37.2908L6.53213 36.0959L6.13559 35.8983ZM45.0392 59.226L45.4516 59.7622L46.2829 60.16L45.5267 60.4446L45.6716 60.9439L46.4093 61.957L46.0932 62.6697L46.1195 63.9568L45.7295 64.9884L44.4899 64.8461L44.0696 64.0333L44.0999 62.2244L44.4358 61.8358L44.9378 61.795L45.2342 61.2719L45.3607 60.4696L44.9733 59.7174L44.2092 59.5198L43.9668 58.1602L44.6756 57.4106L44.8456 58.7543L45.0392 59.226ZM2.30846 63.3153L1.97252 63.3745L1.67083 61.4472L1.40998 58.8979L1.98174 59.0955L1.96198 60.629L2.4323 61.8332L2.0318 62.4497L2.06078 63.061L2.30846 63.3153ZM22.4835 35.839L23.1001 35.8653L23.3017 36.1512L24.4676 36.9048L24.9102 36.9865L25.2989 35.7613L26.1592 35.5663L26.9259 36.6097L26.8534 37.0444L27.445 37.246L28.7558 37.2618L28.8546 37.7203L28.2894 37.9113L28.2723 38.8361L28.8744 38.5055L29.5107 38.6675L30.1852 39.6306L30.9902 39.429L31.6502 39.7926L32.4762 39.6068L32.5368 39.1629L33.7238 38.8006L34.2587 38.4765L35.3864 38.1287L36.198 37.5635L36.7065 37.4146L36.8382 36.6808L37.468 36.4924L37.4377 36.0893L38.1056 35.4398L39.1306 34.9945L39.7129 35.15L40.6825 34.8865L40.9407 35.1697L41.1199 36.1802L41.05 36.918L40.7694 37.4344L39.9605 37.885L39.6799 38.4633L39.037 38.8941L38.4745 40.0284L38.8539 40.0772L39.5139 38.9455L40.0409 38.4633L40.0369 37.9469L40.7642 38.3237L40.8248 38.9139L41.3873 39.8532L42.27 40.6081L43.702 41.0033L44.64 40.9546L46.6254 40.4618L48.8558 40.2129L49.5843 40.4329L50.0257 40.8544L50.3076 41.8438L51.6066 42.8372L51.6962 43.4669L51.3405 43.6065L50.9742 45.339L50.969 46.4706L50.0573 47.8816L49.4934 48.348L49.1259 49.2583L48.7741 49.6759L48.0548 50.0817L47.7505 50.8814L47.8519 51.7311L47.3935 52.9537L46.9455 52.9761L46.7413 52.5295L46.026 51.7601L46.5898 51.4202L46.6768 50.6561L46.3422 50.2648L45.6149 50.1871L45.1025 50.4598L44.9417 51.0026L44.3344 51.6837L44.1605 52.2449L44.4991 52.7706L44.6176 53.5202L44.3739 54.2342L43.7916 54.4714L43.2291 53.0275L43.8628 52.8575L44.0735 52.1198L43.4227 52.0368L43.013 51.7285L42.4505 51.8154L42.1251 52.3029L41.386 52.0974L41.0606 51.1251L41.8945 50.8524L42.9577 51.1146L43.2212 50.8616L42.8167 50.1291L43.6586 48.6892L42.598 48.1609L41.6047 48.1161L41.5876 48.5798L40.8103 49.0752L40.6575 49.9776L40.0975 50.2701L39.6496 51.0961L38.9659 51.519L38.5535 52.9656L38.377 53.1553L39.0713 54.5096L39.4784 55.9601L39.5521 56.7492L39.1661 57.7241L39.3927 58.84L39.2386 60.3392L38.8868 60.4406L38.3467 61.1073L38.294 61.9847L38.0806 62.6816L37.4838 62.3957L37.1228 61.903L36.7052 61.8292L36.0899 62.3101L35.2995 62.2244L35.6855 61.654L36.6709 61.8266L36.6064 61.243L35.9173 61.1929L34.9319 61.4695L34.0743 61.3483L34.0426 61.9952L32.4011 62.0611L32.712 62.5195L34.6329 63.0663L35.5353 63.1203L35.8159 63.6104L34.9899 64.4865L35.0874 65.1821L36.0135 65.3665L35.2837 65.9475L34.6579 66.157L34.978 66.5469L34.8595 66.9935L34.1981 67.1898L33.2298 67.2623L32.5276 67.4625L31.4025 68.0224L31.2115 67.7379L30.1062 67.6588L29.5542 66.9553L28.7769 66.6536L28.9482 65.4706L28.4199 65.1504L27.5306 65.3915L27.1275 64.6683L26.4095 64.7157L26.0683 64.3218L25.7758 63.0057L24.7666 62.7646L24.9972 61.899L23.6798 60.0783L23.6745 59.8702L22.9407 59.5263L22.9433 59.5356L22.8577 59.5869L22.7892 59.6568L22.2003 59.5105L21.7932 59.4657L21.3716 58.9809L20.6958 58.9427L20.2637 59.7081L20.2729 60.1508L19.4548 61.2113L18.8777 61.6632L18.5155 61.4129L18.0438 62.4563L16.9464 62.895L16.0255 62.4207L16.1638 61.1665L14.662 60.8227L13.911 61.2653L13.6173 62.3575L13.1061 62.6658L13.6831 63.2507L12.4724 63.6736L11.8203 63.4259L11.5634 62.6658L10.9956 62.3325L9.50952 62.758L9.09716 62.3509L8.42528 62.5577L8.67559 63.1585L8.07484 63.5405L8.09724 64.2612L7.75339 64.605L6.94449 64.6169L6.78903 64.2454L5.70347 63.8198L5.1844 63.1585L4.66666 63.8356L3.76027 63.9568L2.91448 63.2981L2.93029 63.0254L2.13193 62.895L2.65099 61.8806L2.69051 60.7687L3.56924 61.7594L3.83536 62.3008L4.75888 61.6672L5.2898 60.9439L5.72191 60.6264L5.63233 59.2299L4.85768 58.2537L4.50329 57.6121L4.31358 56.267L4.34652 55.636L3.03436 54.5267L1.40471 53.9655L1.12805 56.2894L1.31776 57.1958L0.95678 57.5094L0.670898 56.0839L0.77234 54.117L1.20973 50.7562L1.24134 49.4704L1.00552 45.5774L1.4192 45.8132L1.20446 46.3165L1.25715 46.9765L1.87503 46.6933L3.1279 47.4205L3.41378 48.2676L3.88147 47.962L4.13046 47.4376L3.58768 47.0832L3.43354 46.3771L2.24786 45.31L1.91982 44.6552L1.85658 43.5091L1.12146 44.0966L1.34015 44.9912L0.972589 45.5392L1.15176 42.2812L0.977859 40.6278L1.12673 39.5291L1.93695 36.2355L2.5456 34.8641L2.95532 35.0301L3.03041 35.4951L2.41517 36.3857L2.47709 37.08L3.04095 37.3527L3.03568 37.9759L3.76422 38.2552L4.26484 39.3183L4.78522 38.9007L5.84312 38.8651L7.63087 39.7241L8.10909 40.0864L8.82314 39.4092L9.21046 39.6595L9.7045 40.8281L9.6136 41.5632L10.0325 42.2549L10.6768 42.4881L11.9797 42.1258L12.1984 41.4275L12.0298 40.4039L12.5251 39.7201L12.3459 39.3157L11.4132 38.5634L11.0773 37.3527L11.902 37.4252L12.7451 36.4081L12.9256 35.7652L13.4368 35.117L13.8583 35.3581L14.5632 34.7666L13.6489 34.7073L14.1653 33.523L15.4656 32.0791L16.1349 31.6193L17.3482 32.1871L17.2283 31.668L17.9727 31.5837L18.7921 32.141L18.7605 32.6759L19.1241 33.6204L19.8461 34.4794L18.9331 35.6546L18.5155 35.976L18.5655 36.6479L17.7553 37.2974L17.5406 38.404L17.8106 39.591L18.14 39.5884L18.5141 38.8678L18.4799 38.0905L19.1992 38.1906L19.4877 37.8626L18.75 37.5253L19.2387 37.0866L20.0977 37.5029L20.543 37.2104L21.8604 37.4673L21.9566 38.1023L21.4494 38.4501L21.1608 39.0245L21.4296 39.6174L22.2583 40.6081L22.7892 40.1035L23.382 40.2814L23.3504 39.2221L22.8234 39.5528L22.0751 39.7017L21.9012 39.3447L22.3478 37.0708L22.5797 36.4898L22.4835 35.839ZM64.109 33.7048L62.7731 35.2765L62.1276 35.283L61.6757 34.4307L62.0129 34.0802L62.5847 34.1869L64.109 33.7048Z" fill="#00212E"/>
<path d="M31.7897 87.4841L32.4511 88.1823L33.3192 88.4379L34.0188 88.8371L34.5747 89.5116L35.4245 91.1571L35.435 91.5457L35.9119 92.8539L35.0187 92.9962L34.4351 93.6167L33.6078 93.5759L32.6882 93.2255L32.2745 92.85L32.8476 92.2413L33.1559 92.6366L33.7263 92.3573L32.7066 91.8883L31.6343 92.4745L30.9953 92.2137L30.5223 91.5615L30.3379 89.9266L30.9452 90.0531L31.6883 91.0925L32.0242 90.837L31.6474 90.3706L31.8793 90.007L31.4683 89.671L30.7911 89.5683L30.4565 88.6843L29.2866 88.8213L28.8795 88.5657L28.2801 87.8121L28.1931 87.434L29.2695 86.6146L30.0678 86.4183L31.3655 87.0164L31.7897 87.4841ZM30.2957 80.5228L30.3313 81.2342L29.9703 81.2461L29.7464 80.6006L30.2957 80.5228ZM47.1522 87.2852L47.1733 87.9795L46.5647 88.0822L46.1918 87.5026L47.1522 87.2852ZM42.1803 89.5182L42.5004 89.9569L42.146 90.1967L41.5637 89.733L42.1803 89.5182ZM45.8058 92.0529L45.4567 92.431L45.1932 91.6828L45.6609 91.5642L45.8058 92.0529ZM45.9059 87.301L46.3644 87.9742L46.0377 89.0821L46.9928 89.1256L46.9349 89.8384L46.2854 89.9108L45.7096 90.642L44.5464 90.6815L44.4647 90.2059L44.0141 89.7356L43.8336 88.7712L44.8704 88.2074L45.9059 87.301ZM51.7026 84.4659L51.3469 86.4552L50.6434 88.7923L50.6171 89.1941L49.9557 90.0412L49.2377 91.8659L49.1863 92.5839L48.5 94.3334L47.7767 96.988L47.4342 97.486L46.8914 97.6033L46.5594 97.0987L46.7056 96.5388L46.4237 95.8695L46.3973 95.3215L45.9876 94.6865L46.4843 93.6418L46.6292 92.7011L47.1759 93.0555L47.4421 92.6208L47.2668 92.2268L46.6951 91.8198L47.5685 90.4523L48.384 89.5656L49.0849 89.1941L49.4116 88.3879L49.7555 87.9544L50.0255 87.1574L50.2903 85.8439L50.7383 84.707L51.4207 83.8915L51.7026 84.4659ZM22.2002 59.5112L22.789 59.6574L22.8576 59.5876L22.9432 59.5362L22.9405 59.527L23.6744 59.8708L23.6796 60.079L24.9971 61.8997L24.7665 62.7652L25.7757 63.0063L26.0681 64.3224L26.4093 64.7163L27.1273 64.6689L27.5305 65.3922L28.4197 65.1511L28.948 65.4712L28.7768 66.6543L27.5489 66.8888L27.2775 67.3578L28.6964 67.2063L29.0719 67.8083L29.9558 68.3564L30.3419 69.4828L31.1863 69.3089L31.9149 69.6883L30.9769 70.3773L30.5276 71.1954L29.94 71.4958L29.8136 72.0096L30.0323 72.6038L29.7055 72.7895L28.8044 72.4905L28.2142 73.0767L27.2999 72.8304L27.0193 73.389L25.9719 73.3323L25.9627 73.8843L27.9534 73.4048L29.1628 74.5931L28.45 75.3611L27.4685 75.6852L27.3645 75.921L27.8862 76.9341L27.9231 77.8801L28.3288 78.3385L28.2524 79.2515L28.9915 80.5755L29.5 80.8364L29.5593 81.6071L29.1206 82.1696L29.1628 82.9469L28.1562 83.4317L28.0166 83.1155L27.3078 82.993L26.8059 83.4844L25.6808 84.1378L25.798 84.8031L25.6571 85.3222L26.0629 85.616L26.6096 86.6831L25.7137 87.6211L25.1077 87.5249L24.673 87.7621L24.3673 88.2535L24.8798 88.5222L25.8191 88.5091L26.0391 88.2667L27.014 87.9584L27.6069 87.9241L28.0311 88.7093L28.4434 88.8397L29.1614 89.4036L29.9519 89.4181L30.2562 91.2388L30.6686 92.0306L30.2878 92.2295L29.4579 92.0306L29.3077 92.2664L29.9927 92.7196L30.3234 93.3282L30.2207 93.9922L29.7648 94.1529L28.9296 93.4679L28.1865 93.3532L28.5054 92.7288L27.8862 92.2756L27.6003 91.8132L28.7491 91.5457L27.8756 91.0649L27.6951 91.6577L27.0312 92.1175L26.7216 92.879L26.3988 92.7103L25.8745 93.0278L25.4463 93.7472L25.0339 94.0265L24.2422 94.2438L23.6164 94.0265L23.4583 94.5837L22.6599 95.0672L21.6073 94.867L21.2437 94.9434L20.9894 94.2741L21.0698 93.6918L19.5126 93.0331L18.7498 92.9462L17.6326 93.0081L17.0345 92.5549L15.8541 92.0622L14.8529 91.9871L14.2706 92.2413L13.8002 91.9317L12.7858 92.2848L11.919 92.3625L11.0824 91.8158L10.2682 91.7816L10.6687 90.1743L10.6885 89.4523L10.1997 87.7832L10.4592 86.2405L10.6911 85.9375L11.1707 84.5344L10.5594 84.4L9.78472 84.5133L8.85066 84.3631L8.90599 85.2155L8.75581 85.8716L9.0878 86.3775L7.94691 87.2101L7.25658 86.1904L7.19334 85.894L7.42125 84.5542L7.47659 83.4752L7.73348 82.7361L8.77293 82.7269L9.47512 83.0931L9.13654 83.6596L9.05355 84.238L10.1734 84.4132L10.7807 84.3223L11.143 83.9534L10.5501 80.6638L10.6951 80.3753L10.4 79.3898L9.39081 79.9985L9.09307 80.6638L8.63724 80.7323L8.42118 80.2211L8.69652 79.8575L9.47381 79.8509L10.3921 79.2963L10.7016 79.3938L10.8927 78.6336L10.649 78.1225L10.0429 75.6984L8.62011 74.7472L8.20381 74.8921L6.80338 74.7064L6.36073 73.8935L4.57825 71.9003L4.15272 71.256L4.42806 70.5538L3.7127 70.3365L3.14489 71.256L3.14752 71.6249L3.56383 72.6038L4.38195 73.4772L4.16194 74.0911L2.33862 72.5063L0.263672 71.5301L0.616742 70.488L1.78003 66.6648L2.06855 64.7348L1.97238 63.3752L2.30832 63.3159L2.13178 62.8956L2.93014 63.0261L2.91434 63.2988L3.76012 63.9575L4.66651 63.8363L5.18426 63.1591L5.70333 63.8205L6.78889 64.246L6.94435 64.6175L7.75325 64.6057L8.09709 64.2618L8.0747 63.5412L8.67545 63.1591L8.42513 62.5584L9.09702 62.3515L9.50938 62.7586L10.9954 62.3331L11.5632 62.6664L11.8201 63.4266L12.4723 63.6742L13.683 63.2513L13.106 62.6664L13.6171 62.3581L13.9109 61.266L14.6618 60.8233L16.1637 61.1672L16.0254 62.4214L16.9463 62.8956L18.0437 62.4569L18.5153 61.4135L18.8776 61.6639L19.4546 61.212L20.2728 60.1514L20.2635 59.7088L20.6957 58.9434L21.3715 58.9816L21.7931 59.4664L22.2002 59.5112ZM38.3097 89.9108L39.1673 90.8001L39.6837 90.9028L40.432 91.6762L40.6468 92.1333L41.2646 92.6142L41.8746 92.2387L42.1368 92.85L42.6427 93.3098L43.0629 92.543L43.9469 93.4494L43.9983 93.8842L42.8087 94.0265L42.1552 94.7365L41.2976 94.091L40.3609 92.8724L39.7799 92.493L39.0408 91.5497L38.9104 90.8462L38.4177 90.3363L38.3097 89.9108ZM31.4235 78.8062L31.5592 79.6257L31.0414 79.7982L30.8886 79.1514L31.4235 78.8062ZM5.07887 74.6655L5.55314 74.3283L6.2303 74.4758L6.16311 75.4086L6.65056 75.373L7.01944 75.6602L7.24867 76.3242L6.91404 76.6852L7.26843 77.2332L7.34353 78.3109L6.97992 78.3609L6.52672 78.0092L5.62428 76.0159L4.84041 75.2254L5.07887 74.6655ZM45.2591 69.8582L45.7847 69.7423L47.2326 72.14L47.1891 72.4931L47.5185 73.2506L47.8399 73.5181L47.9875 74.0911L47.3683 74.1267L46.6648 74.4956L46.5251 74.9145L45.8322 75.0581L45.4817 74.7314L45.0075 74.6655L44.5319 74.8065L44.3593 75.207L45.0522 75.6259L44.9073 74.9198L45.1352 74.7064L46.0522 75.3071L46.566 75.0331L47.8913 76.556L48.2641 76.8841L48.7687 77.7918L49.2654 79.3213L48.6778 79.4557L48.7042 80.4978L49.1969 81.8099L49.0467 83.3869L48.7713 83.9192L48.4064 85.5962L47.9163 86.886L46.8558 87.2219L45.7729 87.1758L45.3157 87.5526L43.8613 88.2008L43.0458 87.712L42.0551 87.799L41.2475 87.1851L40.9695 87.4499L40.3556 87.3471L39.5322 86.3959L38.9012 86.1337L38.7339 86.6146L38.2491 86.9571L37.946 86.5711L36.9711 86.2181L35.9725 86.6647L36.1227 85.7095L37.4481 85.2287L37.5455 84.9006L36.6471 83.1116L36.1596 83.5279L34.9739 83.3592L34.3811 83.5476L35.4205 84.8624L35.0741 85.2721L34.2507 84.8875L34.4759 84.429L34.3099 83.8098L34.4206 82.7269L34.0241 82.2012L33.3495 82.1828L32.6987 81.3936L32.7264 79.4689L32.3852 78.0434L31.7792 78.0685L30.828 77.6535L31.7897 76.7774L31.5262 75.7669L30.9149 75.4902L30.0612 75.4046L30.1126 75.0621L31.185 75.1121L30.0257 74.2058L29.8057 73.5905L29.309 73.5365L28.948 73.1465L29.2326 72.7922L29.6884 73.1044L30.276 73.0003L30.7727 72.0096L31.6804 71.6341L31.9952 71.9319L31.9452 72.5721L32.2376 72.9344L33.5603 72.9911L35.2809 71.5683L35.9515 71.4194L36.5245 71.0215L38.2425 70.4814L38.7997 70.0638L39.6297 70.0585L40.0658 70.3773L40.2081 69.4986L42.0604 70.5538L43.4871 71.8489L43.0484 72.5313L43.6452 73.389L42.8166 73.7104L42.5663 73.9976L42.2264 75.2913L43.088 75.3071L43.9772 74.4508L45.8269 73.6564L45.707 73.2282L44.827 72.8462L44.9587 72.4167L45.6793 72.4075L45.9876 71.2336L45.8625 70.5315L45.2591 69.8582Z" fill="#00212E"/>
<path d="M83.5538 69.3173L83.455 68.9722L83.6658 68.0763L84.2178 68.0803L84.3561 68.9498L84.3127 70.0037L83.6184 69.5861L83.5538 69.3173ZM81.3129 67.4492L81.9426 67.8141L81.6475 68.1817L82.0441 69.1276L82.5157 69.2923L82.3181 70.0669L82.4432 70.5057L81.6409 70.9391L80.9229 71.6334L80.421 71.4634L80.2998 71.0115L79.7873 70.9483L79.4421 69.9365L80.2194 68.9221L80.5013 68.27L81.3129 67.4492ZM76.8402 70.395L76.723 70.2909L76.6979 70.2593L76.3738 69.9563L75.2857 69.507L74.096 70.063L73.2067 69.8008L73.3332 69.1237L73.0407 67.9591L73.6665 67.415L74.1408 67.4466L74.8311 66.7747L74.183 66.1911L74.0815 65.4336L73.3372 65.5534L71.9486 64.4745L71.4796 62.9686L71.1028 62.472L71.5007 61.9595L71.5468 61.4022L71.1832 60.6855L71.2135 60.2244L70.6733 58.7832L69.9369 58.5526L69.1583 59.0954L68.3981 59.3536L67.7342 59.2206L67.5576 58.5526L68.4403 57.8794L70.5073 56.5067L71.4651 55.6016L73.5545 54.0391L75.4767 53.3633L76.5899 53.665L77.2354 54.2565L78.1207 54.516L79.2511 54.574L79.9941 54.9455L81.1798 56.0943L81.3511 56.4671L81.0138 57.085L80.4289 57.6436L80.0943 58.3708L79.595 59.982L80.5778 62.3389L80.6647 63.493L80.9967 64.2386L81.0916 65.1503L80.7174 66.0198L81.4841 66.477L80.9242 66.8472L80.9624 67.7035L80.4012 68.2028L80.1048 68.9629L79.4474 69.1144L79.1747 69.5835L79.1207 70.1868L78.3579 70.0735L78.2499 69.7218L77.5332 69.6941L77.4923 70.0063L76.8402 70.395ZM70.0186 66.087L69.1398 65.6048L68.659 66.0448L68.136 65.8393L67.7974 65.8828L67.9331 63.9857L68.1715 63.4232L69.4415 62.9845L69.6431 62.2335L69.0898 61.2981L69.124 60.9503L68.6037 60.1059L68.6695 59.4814L69.7182 59.7462L70.0897 60.2561L70.4217 60.1981L70.8222 60.6737L70.3716 61.2599L70.3795 62.0069L70.8881 62.2362L71.1344 63.9883L71.5547 64.925L71.3439 65.2425L71.3465 65.979L70.4823 66.3175L70.0186 66.087Z" fill="#00212E"/>
<path d="M68.1359 65.8399L68.6589 66.0454L69.1398 65.6054L70.0185 66.0876L70.0054 66.521L69.4929 67.8081L70.3057 67.7251L70.4612 67.3101L70.9144 67.1903L70.8064 68.0584L71.8906 68.4945L71.6113 67.6711L72.3095 66.9426L72.1725 66.4301L72.4637 66.2048L72.054 65.6594L71.9486 64.475L73.3371 65.554L74.0815 65.4341L74.1829 66.1917L74.8311 66.7753L74.1408 67.4472L73.6665 67.4155L73.0407 67.9596L73.3332 69.1242L73.2067 69.8014L74.096 70.0636L75.2856 69.5076L76.3738 69.9569L76.6979 70.2599L76.6346 70.497L75.6387 71.0187L74.6427 72.0292L73.8101 74.3623L73.9313 75.216L74.2132 75.6468L75.7638 76.49L76.8731 76.6033L77.79 77.4807L78.2946 78.1526L78.4698 78.6835L78.3012 79.196L78.4804 79.8547L78.2972 80.3817L77.7439 80.8981L76.9587 81.0931L76.6768 81.6596L75.2329 81.4712L74.5281 81.678L73.2172 82.342L72.7878 83.0336L72.3938 83.3248L72.2542 84.0283L72.3583 84.6409L71.7404 84.716L71.9815 83.5L70.8841 83.8346L70.5468 84.3906L70.917 84.554L71.3504 85.2746L72.3859 85.16L72.6824 84.9281L73.5914 85.463L73.399 86.3022L73.1132 86.6552L72.5559 86.5736L72.631 87.5406L73.4083 88.908L73.2976 89.1544L72.5216 89.1847L71.7312 89.9409L70.8064 90.1899L69.9619 89.7552L69.5311 89.132L68.7881 88.8764L68.5206 89.2032L67.3007 88.2823L66.9502 87.8554L65.5287 87.3192L65.8344 87.0228L67.2348 87.7395L67.3033 87.3535L66.945 86.7883L66.4378 86.5011L66.0807 86.6394L65.3535 85.5025L66.0649 85.3312L66.3943 84.8965L66.9147 85.0164L66.9595 84.3563L66.2968 84.1561L65.5907 84.2852L65.2613 83.753L65.6354 82.8808L65.227 82.508L64.7422 82.5765L63.9109 83.5224L63.1534 83.0969L62.3379 83.0903L60.1787 82.1892L60.6424 83.1522L59.9389 83.1219L59.8691 82.5857L59.2565 82.8215L58.1472 82.4961L57.7704 83.0152L57.0959 82.7464L56.9826 82.0759L56.669 81.4119L57.5175 81.6596L57.9693 80.6728L57.6255 80.4778L57.3791 81.3184L56.7639 81.2301L56.8693 80.8164L56.6901 80.0826L55.6138 79.4687L54.7996 78.6268L55.7034 78.8627L56.1987 78.3225L55.7192 77.9589L55.0117 78.6651L54.4452 78.1368L54.6389 77.619L55.1882 77.5307L56.1025 77.0565L56.3067 76.4149L55.9774 75.9367L56.146 75.1278L55.6665 74.1199L55.5993 73.4586L55.0183 72.8776L53.9314 72.8908L54.0948 72.2755L55.0025 72.2123L55.3094 71.5654L55.179 70.6683L54.8128 69.8106L54.4702 69.4536L53.195 68.6407L52.6548 68.4734L52.4743 68.0176L53.5191 68.2574L54.2147 67.8371L53.5849 67.5868L52.9236 67.098L52.3953 66.2773L51.9289 66.1034L51.2162 66.189L50.6523 65.6594L51.5166 65.4078L52.2543 65.5672L53.3201 66.0336L53.9433 65.9255L54.7759 65.3854L55.6467 65.5448L56.0077 66.0296L56.5676 65.691L57.0801 66.0994L57.5991 65.7819L57.6993 65.3472L58.3659 65.3511L59.1115 64.8742L59.3276 64.2181L59.1563 62.8059L59.7597 62.819L60.4883 62.3579L61.2813 62.3764L61.7069 61.798L61.8716 61.2026L61.8926 60.1605L61.7227 59.6704L60.7359 59.1184L59.2209 58.9906L58.4924 58.4768L57.8178 58.2884L57.9087 57.8418L59.3276 58.544L59.981 58.7166L61.1127 58.7574L61.8228 59.0512L63.0612 58.7166L63.3629 59.2238L64.1059 59.4346L64.9925 59.1539L66.3679 58.2344L66.6196 58.8628L65.9727 59.3924L65.9213 60.5241L65.5999 60.7191L65.123 60.2751L64.5262 60.2922L64.4287 61.279L64.8424 61.5016L65.5498 62.7084L65.5907 63.2037L65.1836 63.5318L64.3404 63.2867L64.0427 64.0456L63.4077 64.3538L63.7647 64.7675L64.4353 64.6437L65.0452 64.1694L65.7804 64.2076L66.2415 65.417L65.8686 65.8017L64.322 65.9571L64.3536 66.5342L66.4891 66.2905L66.6433 67.0598L66.4694 68.3562L66.9753 68.1467L67.439 67.5605L67.5062 66.8293L67.8052 66.0454L68.1359 65.8399ZM74.5795 87.2033L74.2462 87.9859L73.6941 87.7645L74.096 87.2415L74.5795 87.2033ZM67.4864 90.2861L68.1794 90.788L68.3915 91.452L68.8671 91.6417L69.1688 91.0265L69.7682 90.9303L70.0844 92.0053L70.4203 92.2728L71.3966 92.4928L71.6574 92.3479L72.5098 92.5494L72.631 93.1541L73.3134 94.1843L72.7601 94.5466L72.4294 95.2409L71.7984 95.6032L71.0738 96.5794L70.8037 97.3672L70.1292 98.0787L69.8367 98.6201L69.6615 99.877L69.8894 102.175L69.8341 102.67L68.8895 102.205L68.9343 101.586L67.966 99.6609L68.1847 98.6662L68.7617 97.8257L68.0305 97.5069L68.2901 96.8758L67.8909 96.0551L66.6854 94.8813L67.0464 94.3635L66.9015 93.8958L66.4918 93.5757L65.9819 93.523L66.0122 92.7233L65.7198 92.2504L65.9767 91.7721L65.8054 91.2228L65.0782 91.1385L65.7751 90.2558L66.4826 90.4363L66.7987 91.008L67.4864 90.2861ZM59.8374 90.0042L60.5383 90.1372L60.8743 90.8025L60.2366 90.7538L59.7347 91.4428L59.1392 91.0357L59.0233 90.3862L59.8388 90.4916L59.8374 90.0042ZM55.6559 83.7029L55.183 84.6593L54.876 84.0402L55.6559 83.7029ZM55.8904 81.516L56.2738 83.2971L55.6111 82.8308L55.54 81.8229L55.8904 81.516ZM57.2118 90.3743L57.7348 90.7221L58.192 91.3993L58.9205 91.6325L58.9508 92.2201L59.8124 92.863L60.2248 93.3504L60.8677 93.4084L60.782 93.8365L62.5896 94.5124L62.521 93.8207L62.9229 93.4611L63.3734 93.7311L64.1375 93.4242L63.9768 93.0764L64.2798 92.1015L65.3614 92.9894L65.8818 94.0236L66.4219 94.2673L66.4615 95.0367L67.8132 96.2079L67.9488 97.2013L66.9133 97.8903L67.0675 98.2117L67.8553 98.5977L67.3955 99.8335L66.8501 100.043L65.7105 99.8493L64.7818 99.4317L63.0111 99.6385L62.5118 99.599L62.1996 100.188L61.3709 100.33L60.732 101.068L58.6346 99.7189L57.8086 98.7743L57.196 98.2736L54.519 97.1578L53.4466 96.8363L52.5455 96.3502L51.9974 95.3397L52.4612 95.3121L52.7615 94.7759L53.2991 95.2752L53.7483 95.2541L54.2687 94.5717L53.8958 94.1751V93.7562L53.0382 93.0514L52.7734 92.4809L52.9921 91.7234L53.772 90.9277L54.3978 90.8684L55.7389 90.2492L57.2118 90.3743ZM75.3436 87.6868L76.0023 88.1703L77.2855 88.1821L78.6082 88.3165L79.6726 88.7868L80.1245 89.63L80.2233 90.3269L80.0138 90.6997L79.4447 90.788L78.5923 90.4046L77.2354 90.1095L76.769 90.1372L75.9957 90.4797L75.3976 90.9672L74.0485 92.7101L72.8866 92.7141L72.5836 92.1608L70.4045 91.4494L70.9236 90.9422L71.5876 90.9461L71.9288 91.3255L71.7009 91.8354L72.2134 91.9803L72.6758 90.6787L72.5243 90.3243L73.2699 89.9067L73.3398 89.4403L73.876 89.6274L74.0459 90.0661L75.3027 89.5365L75.1881 89.0609L75.4028 88.5405L74.5531 87.4997L75.196 87.2626L75.3436 87.6868ZM61.7438 89.2875L62.3037 89.3942L62.6317 89.8816L62.1891 90.4178L61.8676 90.3519L61.3841 89.634L61.7438 89.2875ZM65.372 83.2932L64.7646 83.5474L65.04 82.7148L65.372 83.2932ZM67.5997 64.421L67.3837 65.085L67.0464 65.4499L66.6499 65.1917L66.3363 64.4237L66.7526 64.1101L67.0714 64.421H67.5997Z" fill="#00212E"/>
</g>
<defs>
<clipPath id="clip0_217_1460">
<rect width="85" height="103" fill="white"/>
</clipPath>
</defs>
</svg>
