<svg width="134" height="131" viewBox="0 0 134 131" fill="none" xmlns="http://www.w3.org/2000/svg">
<g clip-path="url(#clip0_355_298)">
<path d="M83.5596 104.505L83.6576 104.003L85.6944 102.849L85.3671 102.406L85.9181 101.47L87.0945 101.108L87.4536 100.387L87.361 99.3016L89.2349 97.7261L88.6991 96.7415L87.9465 96.1975L88.0998 95.1742L87.4342 94.1013L87.4453 93.3322L88.7212 93.549L89.0015 94.6564L91.2288 93.6208L92.0836 94.5984L93.9601 94.829L94.2184 95.5913L95.3313 96.1008L96.2399 95.1273L96.987 95.4849L96.7025 95.1521L96.494 93.2894L95.236 93.2355L94.6547 92.7564L94.9074 91.1477L96.3504 91.5067L96.193 90.5677L96.6639 89.6881L97.9729 89.1482L98.3209 87.7687L99.4684 87.7549L101.159 86.4003L103.21 86.5232L102.915 84.6439L101.81 84.416L102.052 83.2934L103.002 83.0131L103.293 83.7076L105.264 83.0034L105.751 83.1981L106.143 84.3829L106.798 84.4561L106.86 85.8784L107.9 86.5978L108.567 86.4459L109.865 88.7726L108.811 88.8527L108.534 90.1907L107.821 90.7693L108.444 93.0698L109.219 94.5556L110.888 94.9989L112.457 96.1063L114.35 95.5802L115.318 95.9019L115.762 96.5109L115.185 97.9249L114.397 98.3392L113.749 99.2257L114.071 100.384L110.617 102.041L110.293 102.886L108.766 104.031L108.161 104.897L107.219 105.155L106.132 106.37L106.221 107.809L105.113 107.942L104.514 108.428L103.48 108.511L101.074 109.336L99.2557 109.048L98.6399 109.751L98.1648 108.883L97.1182 108.524L97.0339 108.064L95.6393 107.625L95.2996 107.849L93.8331 107.62L94.1466 107.09L93.5321 105.76L92.7864 106.175L91.1363 106.224L90.3975 104.948L89.9363 104.862L88.5928 105.926L86.8129 105.775L86.8902 104.991L86.3599 104.607L83.5596 104.505Z" fill="#00212E"/>
<path d="M34.5483 37.2542L36.6224 37.377L37.4122 38.2594L38.4147 38.1476L39.7238 37.2445L41.4705 37.0553L42.5241 36.4795L43.0848 37.9681L43.974 38.0481L43.9713 39.1155L47.2273 37.6366L47.7341 37.9377L48.0696 39.8529L49.3939 40.8678L50.7664 40.7878L51.8186 41.6259L52.3102 42.471L52.0133 44.5119L52.2937 45.1471L51.479 45.6898L51.5535 46.6329L49.8634 48.2029L49.96 48.834L48.738 49.2027L47.9965 50.2273L46.8186 49.6542L46.24 50.6526L46.4941 51.1869L46.1309 52.8067L45.1588 54.171L44.9489 55.77L44.3731 55.8252L43.2422 57.2655L41.9828 56.564L40.671 57.0942L39.8674 56.865L38.9035 58.0401L36.563 58.4088L36.7632 59.5618L37.9922 60.574L37.7947 61.3031L38.7586 63.1051L38.4506 64.4652L39.4559 66.2879L38.4548 67.2021L37.7671 67.3995L36.7908 66.9259L35.8256 67.2946L35.4279 66.7409L34.1217 67.209L30.8698 66.8665L30.4389 66.0421L29.1948 65.8267L27.6731 64.8229L27.2671 63.268L26.4248 62.0901L24.6283 60.411L24.5385 59.4983L26.1486 57.6051L24.4157 55.7092L24.3687 54.4057L23.1867 54.8352L20.9166 54.055L20.7812 52.9089L21.7175 51.9022L23.0155 51.7241L25.0453 50.7395L25.0439 49.3932L26.2011 48.5329L29.0967 48.3162L29.4475 47.5733L31.6085 46.6854L32.9148 47.3965L33.7613 44.8005L35.0427 44.2716L34.2584 40.6248L34.7762 39.7549L34.4448 38.5604L34.5483 37.2542Z" fill="#00212E"/>
<path d="M87.4338 94.101L88.0994 95.1739L87.9461 96.1971L88.6986 96.7411L89.2344 97.7257L87.3606 99.3012L87.4531 100.387L87.0941 101.107L85.9176 101.469L85.3666 102.405L85.6939 102.849L83.6572 104.003L83.5591 104.504L82.6767 104.176L82.4185 103.324L81.1937 103.409L78.8808 105.268L78.1351 105.483L76.8647 106.959L75.4342 106.877L73.8531 108.162L73.3173 108.974L72.5441 111.099L72.7512 111.38L72.4571 114.076L72.6214 116.117L73.4927 116.435L73.8282 117.401L72.9804 117.57L72.4874 116.95L70.9809 117.047L70.3223 117.661L69.7188 117.586L68.2703 118.412L67.3949 118.64L66.9419 117.974L65.3125 117.415L64.3749 117.596L63.7273 118.363L62.6006 118.113L62.3299 117.227L60.4285 116.699L60.4878 115.167L58.2522 114.71L57.7317 115.343L56.9846 113.88L55.2572 114.014L54.4231 113.01L53.0064 113.001L52.3588 112.53L50.9904 112.085L49.9589 114.047L48.3419 114.235L47.7647 113.818L46.0635 113.657L44.4161 114.312L43.3984 113.796L41.5439 112.24L41.7801 110.272L42.6044 109.493L42.6597 108.894L43.8168 108.099L44.7185 105.947L43.7865 104.815L44.0737 103.83L43.5531 102.944L42.2399 102.936L42.1377 101.344L42.4263 100.791L42.7867 98.3705L44.9602 98.0861L46.2181 97.3943L47.2248 97.7064L49.5888 96.8737L50.5858 97.27L51.2914 96.7895L51.7553 95.7359L52.7261 95.8091L53.0437 94.1507L52.4982 93.5928L52.7468 92.6759L54.2754 92.8761L53.8722 91.8529L53.8515 90.6682L55.775 88.7653L57.7745 86.2191L57.4845 84.5662L58.6444 84.0166L59.5309 84.203L61.1092 85.6405L62.0883 84.9238L63.5022 84.9459L63.777 86.2798L64.5213 87.3845L64.1333 88.5831L64.5227 89.3591L65.956 88.9228L66.1935 89.3122L67.4101 89.1796L68.1157 88.2779L68.5272 86.6402L69.752 85.3933L70.8843 86.266L71.1494 87.3762L71.6009 87.5737L71.5982 88.7985L72.0124 89.2597L72.609 87.234L73.3974 85.8835L74.2467 85.8089L75.6178 85.1489L76.6783 87.1511L78.229 86.2467L79.0575 86.741L80.1443 88.3925L80.535 89.9115L80.9935 90.2166L81.3221 91.4939L82.6312 93.2476L83.809 94.1728L84.0921 93.5265L85.0546 93.1206L86.1013 93.1551L87.4338 94.101Z" fill="#00212E"/>
<path d="M32.7783 71.5651L33.4646 72.9708L33.3942 73.7151L31.6225 72.0553L32.7783 71.5651ZM30.261 68.7426L30.5924 68.0053L31.258 68.7509L32.4911 68.936L32.2135 69.498L30.9252 68.7413L30.261 68.7426ZM65.528 65.8249L65.7296 66.8495L67.3962 67.6932L68.1695 69.3599L68.0245 70.285L68.5009 70.9658L68.0839 72.5786L66.5291 73.7524L67.7787 75.2782L67.7622 76.1785L67.2015 76.7875L67.7235 77.3412L67.3783 79.7715L66.5111 79.2219L66.2612 80.2106L64.7284 81.7254L64.2562 84.6128L63.5022 84.9455L62.0883 84.9234L61.1092 85.6401L59.5309 84.2026L58.6444 84.0162L57.4845 84.5658L57.7745 86.2187L55.775 88.765L53.8515 90.6678L53.8722 91.8526L54.2754 92.8758L52.7468 92.6755L52.4982 93.5924L53.0437 94.1503L52.7261 95.8087L51.7553 95.7355L51.2914 96.7891L50.5858 97.2696L49.5888 96.8733L47.2248 97.706L46.2181 97.3939L44.9602 98.0857L42.7867 98.3702L42.4263 100.791L42.1377 101.343L42.2399 102.935L43.5531 102.944L44.0737 103.83L43.7864 104.815L44.7185 105.947L43.8168 108.098L42.6597 108.894L42.6044 109.493L41.7801 110.272L41.5439 112.239L40.7914 112.876L39.7585 112.518L39.336 113.141L38.1664 111.792L36.9623 110.954L35.7154 110.926L34.1357 110.031L32.0119 109.138L31.9222 109.975L30.8203 109.218L31.664 107.941L31.6032 107.07L28.3789 106.149L27.9053 105.592L29.6479 104.833L31.0688 102.097L32.4524 94.8725L32.8211 90.5725L33.4038 89.0826L34.8606 89.2289L34.8827 88.5924L33.6496 87.5609L32.7755 89.4195L33.6938 80.7174L33.7421 78.381L34.5762 77.9032L35.8203 78.8463L37.0023 80.0849L38.2796 82.9916L37.8253 80.3266L37.2025 78.5784L34.978 76.4409L33.2947 75.4632L32.9992 74.2798L33.9575 74.0562L34.7087 71.4008L34.0004 69.7438L33.2768 69.5007L33.3334 68.6128L34.1661 67.968L34.1219 67.2085L35.4282 66.7404L35.8258 67.2941L36.7911 66.9254L37.7673 67.3991L38.455 67.2016L39.4561 66.2875L38.4508 64.4648L38.7588 63.1046L37.7949 61.3026L37.9924 60.5735L36.7634 59.5613L36.5632 58.4083L38.9038 58.0397L39.8676 56.8645L40.6712 57.0938L41.9831 56.5635L43.2424 57.265L44.3733 55.8248L44.9491 55.7695L45.1908 56.3785L47.2524 57.3037L47.1433 58.1294L48.5021 58.9579L49.1221 58.5589L50.8412 58.3572L50.96 59.3114L51.8078 60.0377L51.9832 60.8552L52.8849 61.6948L52.6943 63.0093L53.8722 64.2618L55.0224 64.6498L55.6493 65.6371L55.7101 66.5471L56.9625 66.0914L57.5301 66.8108L58.5533 65.731L60.0294 65.8415L60.9297 65.3305L61.4475 65.7448L62.74 65.5128L63.7536 65.9547L65.528 65.8249Z" fill="#00212E"/>
<path d="M60.1957 27.0933L59.4445 29.1549L58.2086 29.6465L58.326 31.2013L57.9477 32.1624L57.0391 32.6871L56.7657 33.7159L55.7507 33.7614L54.8159 33.3209L54.0136 34.1812L51.9285 35.0843L52.3166 36.2166L53.0056 36.5273L53.1354 37.9799L52.8951 39.1454L51.7242 39.5845L51.4273 40.1631L51.8181 41.6254L50.7659 40.7872L49.3933 40.8673L48.0691 39.8524L47.7335 37.9371L47.2267 37.6361L43.9707 39.115L43.9734 38.0476L43.0842 37.9675L42.5236 36.4789L41.47 37.0548L39.7232 37.2439L38.4141 38.147L37.4116 38.2589L36.6218 37.3765L34.5478 37.2536L32.8479 36.7551L31.9214 37.8018L30.6772 37.5201L29.9053 35.4889L31.2544 35.3715L29.9412 33.9589L29.7935 32.4869L30.0393 29.9848L29.7162 28.441L28.6515 25.7111L27.7029 25.0869L27.0967 21.0051L27.5717 20.555L30.2533 21.0673L30.8112 20.4611L32.7347 20.4735L33.0702 21.748L32.326 22.5959L33.6461 24.5967L35.5116 24.7376L37.4544 25.4252L40.7933 25.6517L42.3827 26.3946L44.4277 25.7691L45.6153 24.6823L45.9619 23.9491L45.0436 23.0957L46.354 20.2332L47.554 19.7513L49.8642 18.1799L51.5861 17.9203L53.3163 17.1843L53.8631 17.3431L55.4884 16.5698L57.1827 15.1973L57.8731 15.5521L60.2744 17.7477L60.9565 19.529L60.2854 19.9267L60.1294 22.1001L60.9993 23.2242L60.2937 24.5953L60.8323 26.2413L60.1957 27.0933Z" fill="#00212E"/>
<path d="M60.196 27.0933L60.6655 27.8886L61.8544 28.0681L63.6841 27.3957L65.0884 28.2311L65.8354 27.734L68.3292 29.235L68.7863 28.8304L69.7198 29.5001L71.8918 29.0665L73.7021 28.9685L73.7256 30.1864L75.5746 31.3684L75.7168 32.1624L76.6627 32.4372L75.9557 33.3941L76.5039 34.0348L76.3451 35.4736L76.6185 36.7786L75.7955 38.4107L76.0082 38.8954L74.5306 39.2517L72.6168 39.3248V40.8493L71.5977 42.0506L70.3218 41.9719L69.4574 42.6002L68.1055 42.3572L67.7161 41.1807L66.8531 40.7112L66.6722 39.9338L65.6946 39.9807L64.8108 39.5403L64.4449 40.1727L62.6788 40.3191L62.7244 38.7477L61.0991 37.8418L60.9665 36.628L60.2457 36.3008L59.2571 35.0704L58.8994 31.9041L58.3264 31.2013L58.209 29.6465L59.4448 29.1549L60.196 27.0933Z" fill="#00212E"/>
<path d="M83.5744 16.708L83.7719 18.0074L83.3355 19.2723L83.7401 19.6023L82.5968 20.7318L81.8125 23.1773L81.7669 25.2638L80.723 24.6037L78.1463 25.9266L79.0991 28.118L77.9309 28.2381L78.1933 29.7515L77.9185 30.8341L76.6633 32.4373L75.7174 32.1625L75.5752 31.3685L73.7262 30.1865L73.7027 28.9686L71.8924 29.0666L69.7203 29.5002L68.7869 28.8305L68.3298 29.2351L65.836 27.7341L65.089 28.2312L63.6846 27.3958L61.855 28.0683L60.6661 27.8888L60.1966 27.0934L60.8332 26.2414L60.2947 24.5954L61.0003 23.2242L60.1303 22.1002L60.2864 19.9268L60.9575 19.5291L60.2753 17.7478L57.874 15.5522L57.1836 15.1974L59.1499 12.4288L58.6556 12.0463L59.1113 8.33867L58.8876 5.60182L59.3598 4.46538L59.0588 3.47807L60.5736 2.40515L63.8586 1.51726L67.9694 0.275879L68.7841 2.36096L68.4859 3.79429L69.6251 4.3701L70.2382 5.59492L71.3194 6.10031L71.7461 5.22623L73.5798 4.66975L74.3931 6.59604L74.8764 8.54027L75.6566 9.02357L76.9781 8.5527L78.2899 9.52482L78.2747 10.7828L80.0505 11.0355L80.531 11.4L81.6647 10.9361L82.1439 11.6334L83.3659 12.194L82.8716 13.7696L83.5689 15.1256L82.9365 15.4142L82.7887 16.4567L83.5744 16.708Z" fill="#00212E"/>
<path d="M110.393 51.1481L109.964 49.9163L109.217 49.7893L109.613 48.6943L109.309 47.8575L107.928 47.3134L107.19 46.3786L105.898 45.6412L105.538 45.0723L104.348 45.8925L103.523 44.8569L101.844 45.0406L101.177 44.045L99.3049 44.6235L98.5178 45.6288L97.0665 46.7804L97.0652 48.6515L94.5617 48.7606L93.9624 49.944L91.7682 49.1831L90.299 47.5924L90.6069 46.9599L89.7825 45.3982L88.7649 44.2272L86.782 43.9069L86.5596 44.752L82.9763 44.8707L82.4488 45.3347L80.4563 45.2891L80.6303 44.5932L79.7866 43.7025L79.4993 42.6834L78.3519 42.3741L77.9045 40.5873L76.8371 39.2258L76.0086 38.8958L75.7959 38.4111L76.6189 36.7789L76.3455 35.474L76.5043 34.0352L75.9561 33.3945L76.6631 32.4375L77.9183 30.8344L78.1931 29.7518L77.9307 28.2384L79.0989 28.1182L78.1461 25.9268L80.7228 24.604L81.7667 25.264L81.8123 23.1775L82.5966 20.732L83.7399 19.6025L83.3354 19.2725L83.7717 18.0076L83.5742 16.7082L84.295 16.5577L85.5558 17.0134L87.8314 16.1794L87.8397 14.8952L89.07 13.6938L89.204 15.5718L88.7262 16.5688L89.6389 17.4194L89.2592 18.0339L89.8046 19.1938L90.6318 18.9894L91.5459 19.5238L92.2128 20.518L93.167 20.4724L94.6487 21.9072L95.0477 23.3046L96.6164 22.5617L98.7097 23.2935L99.7371 23.9674L100.847 23.9398L102.143 23.0781L103.293 23.8486L103.869 23.607L104.936 24.2394L105.165 25.4504L106.118 26.4004L106.757 28.0381L107.651 28.1956L108.602 27.2096L110.327 28.3585L111.883 28.7424L112.54 27.9456L113.735 27.9801L114.05 28.9882L115.395 29.7297L116.51 29.4287L120.263 30.8109L119.243 33.1349L116.929 35.3967L116.568 36.1934L115.334 41.2432L114.505 42.6462L114.438 43.842L114.925 44.7023L114.318 45.9851L114.008 48.9829L114.639 49.7617L113.785 50.651L113.895 51.2157L112.742 52.116L111.418 52.2652L110.393 51.1481Z" fill="#00212E"/>
<path d="M125.582 127.931L126.883 126.76L125.923 126.433L125.17 125.662L125.839 124.185L124.349 124L124.518 122.728L125.063 122.093L124.073 121.205L123.71 120.039L123.999 119.07L124.01 117.685L124.468 117.697L124.574 116.439L125.705 115.963L125.828 115.351L127.799 114.864L128.814 113.729L129.711 113.682L130.421 114.419L130.848 113.674L130.52 112.45L130.999 111.303L130.805 110.42L131.573 110.201L132.219 112.783L131.784 114.441L132.587 116.038L132.582 118.263L132.837 119.365L132.739 121.598L131.47 123.465L131.305 125.379L131.419 126.435L130.842 128.348L130.197 128.701L130.241 129.517L129.71 130.726L128.78 129.847L127.651 129.204L126.926 129.215L125.582 127.931Z" fill="#00212E"/>
<path d="M58.3269 31.2017L58.9 31.9045L59.2576 35.0708L60.2463 36.3011L60.9671 36.6284L61.0997 37.8422L62.7249 38.748L62.6794 40.3194L64.4455 40.173L64.8114 39.5406L65.6951 39.9811L66.6728 39.9342L66.8537 40.7116L67.7167 41.1811L68.1061 42.3576L69.458 42.6006L70.3224 41.9723L71.5983 42.051L72.4544 42.4639L72.6408 43.2952L73.3354 43.8958L73.3644 44.6843L72.645 45.539L72.4171 47.2485L70.8126 47.6545L71.5002 48.6943L71.5955 49.8335L70.778 50.6675L71.5417 52.0346L70.9576 53.3961L72.0111 54.4414L72.4641 56.3525L72.3453 57.1258L72.9004 57.6753L72.471 60.7754L71.4491 60.8016L70.7905 61.4395L69.4207 61.8041L68.2055 62.6091L68.6184 64.0328L66.2696 64.5257L65.528 65.8251L63.7537 65.9549L62.7401 65.5131L61.4476 65.745L60.9298 65.3308L60.0295 65.8417L58.5534 65.7312L57.5302 66.8111L56.9626 66.0916L55.7102 66.5473L55.6494 65.6373L55.0225 64.65L53.8723 64.262L52.6944 63.0096L52.885 61.695L51.9833 60.8554L51.8079 60.038L50.9601 59.3117L50.8413 58.3575L49.1222 58.5591L48.5022 58.9582L47.1434 58.1296L47.2525 57.3039L45.1909 56.3787L44.9492 55.7698L45.1591 54.1707L46.1312 52.8065L46.4944 51.1867L46.2403 50.6523L46.8189 49.654L47.9968 50.227L48.7383 49.2024L49.9603 48.8338L49.8637 48.2027L51.5538 46.6327L51.4793 45.6896L52.294 45.1469L52.0137 44.5117L52.3105 42.4708L51.819 41.6257L51.4282 40.1634L51.7251 39.5848L52.896 39.1457L53.1363 37.9803L53.0065 36.5276L52.3174 36.2169L51.9294 35.0846L54.0145 34.1815L54.8168 33.3213L55.7516 33.7618L56.7665 33.7162L57.04 32.6875L57.9486 32.1627L58.3269 31.2017Z" fill="#00212E"/>
<path d="M14.4125 52.7276L15.4109 53.5244L14.6818 54.0229L14.4125 52.7276ZM29.9057 35.4891L30.6776 37.5203L31.9217 37.802L32.8483 36.7553L34.5481 37.2538L34.4446 38.5601L34.776 39.7545L34.2581 40.6245L35.0425 44.2713L33.761 44.8002L32.9146 47.3962L31.6083 46.685L29.4473 47.5729L29.0965 48.3158L26.2009 48.5326L25.0437 49.3929L25.0451 50.7392L23.0153 51.7238L21.7173 51.9019L21.2395 50.858L18.4115 51.3772L17.8716 50.7378L16.3333 50.1137L15.5656 50.2407L14.0604 48.6514L12.5111 48.5064L11.8304 47.5715L8.79939 47.2001L8.36442 46.598L6.10396 46.2915L5.68833 47.1228L4.05892 47.1255L4.1473 45.8648L3.56458 44.8347L2.19754 44.3182L0.852586 43.4221L2.35081 43.2605L3.60738 42.8338L4.6375 43.0796L4.98686 42.5149L4.53946 41.4875L3.17242 41.0014L2.67255 41.6477L1.65072 40.4353L3.77999 40.5057L3.06747 38.973L1.84404 39.6192L0.416237 39.0047L0.275391 37.1502L0.950627 36.3894L1.81366 36.2983L4.25915 34.8884L7.44753 34.4051L7.71818 34.9312L8.79248 34.9326L9.0866 34.2988L10.7464 34.6274L11.2753 33.0781L12.2612 32.6362L12.6271 33.1886L13.7428 32.6266L15.9149 32.2109L16.3016 33.4496L18.3963 35.293L18.3521 36.0414L20.0975 36.8534L20.828 35.9779L22.0735 35.565L24.3616 36.0235L24.5452 35.5056L25.6665 35.264L26.553 34.5446L27.1675 35.438L28.0029 35.9144L29.9057 35.4891Z" fill="#00212E"/>
<path d="M110.393 51.1483L108.613 52.108L109.318 52.9296L108.754 54.7081L107.678 55.9827L106.418 56.8913L105.666 58.1009L104.513 58.3536L104.1 61.0462L102.41 62.2904L100.939 63.7209L101.369 64.1421L100.518 65.8765L98.712 67.9008L97.3794 67.9533L96.6504 67.1068L95.6548 67.8511L94.7116 67.2228L92.8558 65.3131L92.5437 64.6323L91.2029 64.9623L90.1396 64.497L88.6414 69.0842L87.7121 67.9809L86.0896 67.8635L85.1796 67.4865L85.0153 68.5912L84.028 69.341L83.35 68.8411L82.3806 68.7831L81.7013 69.1767L80.4171 68.5746L80.4254 67.6288L81.3146 67.2325L81.4265 65.2606L80.221 64.9085L79.0445 64.2305L78.6344 62.6094L77.5048 61.3928L76.6777 62.6977L76.0674 61.8665L75.3866 62.2697L74.6686 61.825L74.0265 62.3732L72.7161 61.3652L72.4703 60.7756L72.8997 57.6756L72.3446 57.126L72.4634 56.3527L72.0104 54.4416L70.9569 53.3963L71.541 52.0348L70.7773 50.6678L71.5948 49.8337L71.4995 48.6945L70.8119 47.6547L72.4164 47.2488L72.6443 45.5393L73.3637 44.6845L73.3347 43.8961L72.6401 43.2954L72.4537 42.4641L71.5976 42.0512L72.6166 40.8499V39.3254L74.5305 39.2523L76.008 38.896L76.8365 39.226L77.9039 40.5875L78.3513 42.3744L79.4988 42.6837L79.786 43.7027L80.6297 44.5934L80.4557 45.2893L82.4483 45.3349L82.9758 44.8709L86.5591 44.7522L86.7814 43.9071L88.7643 44.2275L89.782 45.3984L90.6064 46.9602L90.2984 47.5926L91.7677 49.1833L93.9618 49.9442L94.5611 48.7608L97.0646 48.6517L97.066 46.7807L98.5173 45.629L99.3043 44.6238L101.177 44.0452L101.844 45.0408L103.523 44.8571L104.347 45.8928L105.538 45.0725L105.898 45.6415L107.189 46.3788L107.928 47.3137L109.309 47.8577L109.612 48.6945L109.216 49.7895L109.963 49.9166L110.393 51.1483Z" fill="#00212E"/>
<path d="M105.751 83.1977L105.264 83.003L103.294 83.7072L103.002 83.0126L102.052 83.2929L101.811 84.4156L102.915 84.6434L103.211 86.5227L101.159 86.3998L99.4686 87.7545L98.3211 87.7683L97.9731 89.1477L96.6641 89.6877L96.1932 90.5673L96.3506 91.5062L94.9076 91.1472L94.6549 92.7559L95.2363 93.2351L96.4942 93.2889L96.7027 95.1517L96.9872 95.4845L96.2402 95.1268L95.3316 96.1003L94.2186 95.5908L93.9604 94.8286L92.0838 94.598L91.229 93.6203L89.0017 94.656L88.7214 93.5485L87.4455 93.3317L87.4345 94.1009L86.1019 93.155L85.0553 93.1205L84.0928 93.5264L83.8097 94.1727L82.6319 93.2475L81.3228 91.4938L80.9942 90.2165L80.5357 89.9114L80.145 88.3924L79.0582 86.7409L78.2297 86.2466L76.679 87.151L75.6185 85.1488L74.2473 85.8088L73.3981 85.8834L72.6096 87.2339L72.0131 89.2596L71.5989 88.7984L71.6016 87.5736L71.1501 87.3761L70.885 86.2659L69.7527 85.3932L68.5278 86.6401L68.1164 88.2778L67.4107 89.1795L66.1942 89.3121L65.9567 88.9227L64.5234 89.359L64.134 88.583L64.522 87.3844L63.7777 86.2797L63.5029 84.9458L64.2569 84.613L64.7291 81.7257L66.2619 80.2109L66.5118 79.2222L67.379 79.7718L67.7242 77.3415L67.2022 76.7877L67.7629 76.1788L67.7794 75.2785L66.5298 73.7526L68.0846 72.5789L68.5016 70.9661L68.0252 70.2853L68.1702 69.3601L67.3969 67.6935L65.7302 66.8498L65.5286 65.8252L66.2702 64.5258L68.619 64.0328L68.2061 62.6092L69.4213 61.8041L70.7911 61.4396L71.4497 60.8016L72.4716 60.7754L72.7173 61.365L74.0278 62.373L74.6699 61.8248L75.3879 62.2695L76.0687 61.8663L76.679 62.6975L77.5061 61.3926L78.6357 62.6092L79.0458 64.2303L80.2223 64.9083L81.4278 65.2604L81.3159 67.2323L80.4266 67.6286L80.4184 68.5744L81.7026 69.1765L82.3819 68.7829L83.3513 68.8409L84.0293 69.3408L85.0166 68.591L85.1809 67.4863L86.0909 67.8633L87.7134 67.9807L88.6427 69.084L90.1409 64.4968L91.2042 64.9621L92.545 64.6321L92.8571 65.3129L94.7129 67.2226L95.6561 67.8509L96.6517 67.1066L97.3807 67.9531L98.7133 67.9006L100.519 65.8763L101.493 66.5363L100.866 67.6327L99.7379 68.5482L99.8663 69.5093L101.109 69.5769L102.653 68.4364L101.962 67.2764L102.258 66.6302L104.724 65.3308L106.233 65.364L107.509 65.7326L107.052 66.6937L107.921 67.6907L107.359 68.7153L107.295 69.5977L108.231 69.7716L109.4 71.7242L109.576 72.4532L108.622 73.4709L107.507 73.6049L107.384 75.081L108.385 76.0614L109.166 76.2188L109.169 78.0001L110.09 78.4669L110.786 79.2567L110.187 80.3379L110.417 81.2783L109.181 81.7491L107.766 82.9726L107.016 82.5473L105.751 83.1977Z" fill="#00212E"/>
</g>
<defs>
<clipPath id="clip0_355_298">
<rect width="133.114" height="131" fill="white"/>
</clipPath>
</defs>
</svg>
