<svg width="60" height="81" viewBox="0 0 60 81" fill="none" xmlns="http://www.w3.org/2000/svg">
<path d="M18.5586 75.9387L18.6172 76.1496L18.2669 76.1628L18.5586 75.9387ZM21.1236 57.8193L21.9977 57.786L22.4136 57.0542L23.0738 57.1501L23.1576 56.494L22.9486 56.3022L22.7629 56.5666L22.8608 56.3223L22.3601 56.2265L22.4853 55.9307L23.6896 55.7258L24.0742 56.1659L24.1105 55.7843L24.6384 55.6975L24.483 56.5626L24.6647 56.7332L25.0311 56.3345L25.1997 56.7251L25.6014 56.2981L26.0668 57.4923L25.6751 58.0424L25.982 58.1414L26.3434 57.778L26.4211 58.741L27.0076 58.7319L27.3054 58.1252L27.6768 58.4926L27.4982 59.1033L27.9332 59.6151L27.5819 59.7807L27.9029 60.7558L27.6011 60.9678L27.693 61.5452L28.4874 62.0428L28.2391 62.5112L28.5035 62.602L28.5025 63.1068L29.1314 63.2279L29.832 64.315L29.6129 64.4251L29.8087 64.8823L29.5705 65.9715L30.0732 66.5489L29.5332 66.8013L29.7088 66.4934L29.516 66.449L29.2112 66.879L28.6176 66.3985L28.5278 66.7649L28.9618 67.3121L28.8861 68.1418L28.3976 68.2528L27.9847 68.7707L27.5708 68.5809L27.1277 68.7596L26.6997 69.5409L27.3074 70.4716L27.7646 72.1038L27.3891 74.4558L27.7727 74.9979L27.2953 75.2119L27.6455 75.4713L27.7283 76.2607L27.3801 76.6241L27.0611 76.1769L26.6583 76.508L25.9366 76.2566L25.2956 76.8865L24.5597 76.9744L24.3104 77.4952L21.0307 76.2395L19.78 76.5393L19.2289 75.6843L18.9816 75.869L19.1229 76.2889L18.702 76.1083L18.6767 75.4289L18.489 75.5117L18.2336 75.0928L18.0711 75.4864L17.9974 75.1049L17.6713 75.0171L17.7299 75.2714L17.1363 75.3835L16.6336 76.3011L17.0828 76.6322L17.9116 76.3122L18.061 76.5494L17.7248 77.0521L17.3624 76.6887L16.9587 76.9895L17.1535 77.2186L16.4842 77.3256L15.3405 76.8048L14.5976 77.4054L13.6528 77.5366L13.3257 77.1237L12.8775 77.1177L12.0447 77.6456L11.6692 77.3711L12.0013 77.3277L12.0427 76.9976L11.3866 77.1015L10.8809 76.077L11.115 75.7307L11.1706 74.3417L11.5935 73.4514L11.2533 72.8538L11.3008 72.0241L12.0488 70.2778L12.3809 70.0325L12.3021 69.3834L12.9886 66.9941L13.8425 65.8645L14.5986 65.4244L15.5182 63.8285L16.3318 62.5102L16.5357 61.1969L17.1646 60.6044L16.9193 60.3116L17.2867 59.2265L16.8708 59.0761L16.7406 57.7557L17.0808 57.7588L17.6319 58.4422L17.9853 58.1787L17.852 57.4973L18.4768 57.3631L18.5384 58.2292L19.3177 58.3392L19.3773 58.6632L19.8073 58.5542L19.666 58.9085L19.3369 58.8954L19.1814 59.4667L19.4923 59.6151L20.1353 59.0206L20.1454 58.5431L21.2699 58.4149L20.9257 57.9395L21.1236 57.8193Z" fill="#00212E" stroke="#00212E" stroke-width="0.5"/>
<path d="M27.1626 48.4387L27.5917 47.9602L27.8127 48.1722L28.2054 48.0571L28.3881 48.4922L29.02 48.6648L29.4369 49.6722L29.8043 49.5935L30.0567 50.0608L30.3969 49.973L30.7522 50.2779L30.8027 51.3156L31.5062 51.572L31.6011 51.1036L32.341 51.1732L32.334 50.8633L31.5012 50.4071L31.485 50.1547L32.2492 49.6873L32.9154 49.6884L33.2304 50.1365L34.0692 49.9468L34.3427 50.3102L34.267 50.7604L34.9444 50.932L35.1574 50.0094L34.9212 48.8142L35.1987 48.8465L35.5531 48.3912L36.1002 48.4871L36.0325 49.1624L36.1779 49.4097L36.4353 49.3058L36.6877 49.864L38.3431 49.4148L38.6359 49.7176L39.2698 49.3764L39.6534 49.7287L39.616 50.1083L40.4104 50.4363L40.6628 50.8613L40.3509 51.1248L41.1494 51.9364L41.0454 52.5299L41.5309 52.859L41.4411 53.0397L42.9149 53.8099L42.8371 54.2601L43.2843 54.4125L42.8028 55.747L42.3587 56.1841L43.1178 56.7403L43.1581 57.4166L43.3671 57.4014L43.5558 58.209L43.9051 58.3513L43.9899 59.2315L44.6339 59.6232L44.7813 60.0946L45.8341 60.1239L46.3802 60.5176L47.3453 62.1599L48.0569 62.3416L48.7272 62.9775L48.7908 63.6327L49.3823 64.0768L49.6175 63.7568L50.2444 64.0001L50.5159 64.6734L50.9429 64.6159L51.598 65.7333L51.3063 66.2814L51.5819 66.445L51.49 67.2626L50.9015 68.2276L49.4691 67.4988L49.0189 67.8047V69.0402L48.3456 70.0517L46.3318 70.7088L44.64 71.9746L44.6672 72.4894L45.389 73.5433L45.7988 73.732L46.2197 74.6294L45.605 75.8307H46.3066L46.7154 76.1789L46.4963 78.0343L46.2157 78.3018L44.8913 77.4266L44.7874 77.1823L45.07 76.8875L44.6491 76.5191L44.8015 76.3071L43.6558 76.3142L43.469 76.6957L42.9643 76.7694L42.5868 76.1042L41.3987 76.2566L41.3775 75.649L40.8062 76.0558L41.0615 76.9481L39.8169 76.7664L38.762 77.1772L37.4245 77.0571L37.0117 77.8112L36.1123 77.8273L35.7953 78.216L36.0366 78.4794L35.4945 78.436L35.0493 78.9306L34.7627 78.9498L34.9494 78.6379L34.6436 78.5834L34.0641 78.9377L33.1698 78.9205L32.9033 78.1392L32.4773 78.1251L32.7882 77.8324L32.5964 77.6052L31.8939 77.8223L30.7441 77.3044L30.5755 77.6365L30.2626 77.6244L29.8255 77.4296L29.9891 77.148L29.7145 77.156L29.9557 78.5894L29.7004 79.078L29.02 79.7987L28.0267 80.1349L28.4194 79.0709L28.0711 78.97L27.526 79.3273L27.4927 78.3966L26.8941 78.116L26.6993 77.5154L26.0745 77.686L25.6959 77.4972L25.6051 77.049L25.1872 77.6355L24.312 77.4993L24.5613 76.9774L25.2972 76.8906L25.9382 76.2597L26.6599 76.511L27.0627 76.1799L27.3817 76.6271L27.7299 76.2637L27.6472 75.4743L27.2969 75.2149L27.7744 75.0009L27.3908 74.4588L27.7663 72.1069L27.31 70.4746L26.7023 69.5429L27.1303 68.7616L27.5735 68.5829L27.9874 68.7727L28.4002 68.2549L28.8888 68.1438L28.9645 67.3141L28.5304 66.7659L28.6193 66.3995L29.2128 66.88L29.5177 66.449L29.7105 66.4944L29.5348 66.8023L30.0749 66.5499L29.5722 65.9715L29.8104 64.8823L29.6136 64.4251L29.8336 64.315L29.1321 63.2279L28.5032 63.1068L28.5042 62.602L28.2397 62.5112L28.488 62.0428L27.6926 61.5452L27.6007 60.9678L27.9026 60.7548L27.5816 59.7807L27.9328 59.6151L27.4978 59.1023L27.6764 58.4926L27.304 58.1252L27.0062 58.7319L26.4207 58.7399L26.342 57.778L25.9816 58.1403L25.6747 58.0414L26.0664 57.4913L25.6011 56.2981L25.1993 56.7241L25.0307 56.3335L24.6653 56.7322L24.4836 56.5616L24.6391 55.6965L24.1111 55.7833L24.0738 56.1649L23.6902 55.7248L22.4859 55.9297L22.3608 56.2254L22.8615 56.3213L22.7635 56.5656L22.9493 56.3022L23.1572 56.4929L23.0734 57.1501L22.4133 57.0532L21.9964 57.785L21.1232 57.8193L20.891 57.4024L21.4109 56.1982L21.1505 56.0205L21.3251 55.7884L21.0404 55.6975L21.0122 55.1484L20.6922 55.1736L20.5761 53.8402L20.777 53.6847L20.6447 53.2173L20.3086 53.1406L20.4449 52.7045L21.2272 52.3573L21.4351 52.7056L21.8823 52.1312L22.8392 52.3078L23.2491 52.7772L23.7528 52.6753L23.6751 51.2045L24.7309 51.2863L24.6653 50.9077L25.2599 50.5191L25.3588 49.3573L26.2592 49.5723L27.0112 48.9373L27.1626 48.4387Z" fill="#00212E" stroke="#00212E" stroke-width="0.5"/>
<path d="M49.2595 26.2009L49.2666 26.2049L49.5614 26.4532L49.4675 27.0084L50.4153 27.6696L50.1196 28.2823L51.0705 28.5831L50.3588 29.6834L50.3336 29.2806L49.2777 29.0818L49.1919 28.8294L48.8931 28.9334L48.8911 29.2918L48.1037 28.8648L47.0125 29.1363L46.7773 28.9092L47.274 27.8816L46.953 27.8018L47.0277 27.069L47.593 27.0548L47.6192 26.6299L47.8958 26.6359L48.02 26.2806L48.5126 26.6743L49.2262 26.3826L49.1525 26.1888L49.2444 26.1353L49.2828 26.1464L49.2595 26.2009Z" fill="#00212E" stroke="#00212E" stroke-width="0.5"/>
<path d="M35.0439 21.3709L35.8535 21.491L36.0352 21.1721L36.7499 21.3396L36.871 20.4352L37.618 20.0566L38.0278 20.3433L38.5871 20.2676L38.4478 19.9628L38.8576 20.0112L39.9044 19.452L40.0588 18.6798L40.8542 19.03L41.2459 18.8231L41.4256 19.1996L42.2887 19.454L42.6248 20.0031L44.0178 19.9577L44.1622 20.2504L44.6245 20.2807L44.7103 20.6663L45.969 20.526L45.8328 20.8036L46.2325 20.8914L47.1632 20.0011L47.6841 20.3675L48.1302 19.6791L48.8106 20.0233L49.0084 19.4843L49.3143 19.5469L49.5556 19.2531L49.7393 18.4032L50.2258 18.278L50.7901 17.5098L51.425 17.4664L51.1797 17.1515L51.2978 16.668L51.8399 17.2534L52.0913 18.1468L54.1747 18.0792L54.0849 18.8251L53.2602 19.8719L54.313 19.9002L54.6734 19.348L55.2801 19.1381L55.5062 19.8669L55.0519 20.5472L54.9692 21.8423L53.559 23.093L53.664 23.9086L53.4207 24.4012L54.8914 25.3299L56.7346 27.2176L56.5146 27.6244L56.7044 28.0766L56.0664 29.083L56.4409 30.3549L57.2212 30.7486L57.0153 32.0063L57.5109 32.5363L57.1001 34.2473L56.4308 35.0215L57.5028 36.7537L57.3282 37.5592L57.1142 37.3967L57.0011 37.857L56.5883 37.8873L56.2824 37.5754L55.1297 37.9721L54.7753 38.3688L53.5166 37.9569L53.1976 38.6403L52.8473 38.6514L53.031 38.9674L52.6202 39.7053L52.3658 39.465L51.1707 39.8143L49.6898 39.7436L48.7642 38.8826L48.6289 39.1723L48.2766 39.0542L47.9142 39.5892L47.5771 39.4731L47.3237 39.146L47.5306 38.1568L47.1208 37.6935L47.2339 37.4371L46.5384 36.892L47.3944 36.1632L47.0925 34.4734L46.4667 34.5632L46.4919 34.2634L46.0256 34.2685L45.9277 33.896H45.2463L45.1988 33.5548L44.7809 33.6083L44.0824 33.0955L43.7039 33.4074L43.2375 33.3711L42.8479 32.8744L42.5612 33.0521L41.1672 31.4592L41.6759 30.8414L41.3428 30.5911L41.7405 29.6018L41.5225 28.8821L41.8919 28.2179L41.3226 27.7515L40.9542 28.0201L40.9835 27.6314L40.6867 27.6557L40.8522 26.6492L41.2368 26.6069L41.039 25.664L41.4175 24.7455L41.2621 24.1459L41.0087 23.9692L40.5645 24.2387L40.5524 23.8077L39.6237 24.0025L38.6789 23.6411L38.7425 23.1839L38.0864 22.7922L37.7805 22.9164L37.6695 22.5883L37.3434 22.5509L37.4323 22.2663L37.1779 22.2905L36.2391 21.8322L35.5032 22.0785L35.0439 21.3709ZM49.2265 26.3828L48.5128 26.6745L48.0202 26.2808L47.8961 26.6361L47.6195 26.6301L47.5942 27.055L47.0289 27.0702L46.9532 27.803L47.2742 27.8818L46.7776 28.9104L47.0128 29.1375L48.103 28.866L48.8903 29.293L48.8924 28.9346L49.1912 28.8306L49.277 29.083L50.3318 29.2819L50.357 29.6846L51.0687 28.5843L50.1178 28.2845L50.4136 27.6708L49.4657 27.0096L49.5596 26.4544L49.2648 26.2061L49.282 26.1476L49.2436 26.1375L49.1518 26.19L49.2265 26.3828Z" fill="#00212E" stroke="#00212E" stroke-width="0.5"/>
<path d="M17.1799 20.2532L17.2525 20.2431L17.8764 20.4137L17.7522 20.6338L18.0338 20.8407L19.3602 20.9245L19.5793 21.2758L20.1012 21.0547L20.3495 21.3303L20.1234 21.4403L20.3909 21.6432L20.3353 22.1893L20.0396 22.5346L19.5954 22.2539L19.3118 22.4659L18.9898 22.1126L18.6435 22.261L18.0056 20.8942L17.307 20.5672L17.1748 20.2401L17.1799 20.2532ZM17.3757 16.1721L18.2741 16.1277L18.0005 16.5072L18.0974 17.3622L17.7199 17.4632L17.6018 17.0604L17.7451 16.8747L17.3757 16.1721Z" fill="#00212E" stroke="#00212E" stroke-width="0.5"/>
<path d="M25.1543 16.6981L25.4178 15.8875L25.8367 16.3771L26.2889 15.6654L26.7542 15.731L26.8835 15.3545L27.3115 15.3888L27.4124 14.9295L27.9787 14.7317L28.1331 14.8912L27.8172 15.3878L28.3179 15.8643L28.1705 16.3841L27.8616 16.5204L27.9333 17.0685L28.2502 17.0877L28.9912 17.864L28.8771 18.0305L28.4299 18.4323H28.016L27.2277 17.7075L26.7956 18.2173L26.3485 18.2425L26.2717 17.7872L26.0022 18.0699L25.6509 17.7115L25.44 16.7344L25.1543 16.6981Z" fill="#00212E" stroke="#00212E" stroke-width="0.5"/>
<path d="M23.3612 36.8938L24.4857 37.0028L24.8955 37.6115L24.5089 37.5378L24.6169 37.874L24.3525 37.775L24.2253 38.2323L24.5927 38.7098L24.6008 39.2468L24.1768 39.4214L24.1152 39.8242L23.877 39.7727L24.0698 40.0008L25.1802 40.5106L25.4285 40.0846L25.2135 40.2613L24.9753 39.806L25.5971 39.5839L25.5779 39.3528L26.0251 39.7283L25.9322 39.2862L26.2603 39.2549L26.4289 39.6889L26.7135 40.6206L27.2485 40.6812L27.3333 41.2142L28.4164 41.6331L28.1711 42.3791L27.9592 41.9682L27.6614 42.1095L28.0157 42.3437L27.8007 42.9231L28.2156 43.1715L28.2095 43.4511L27.1466 43.3976L27.0194 43.7196L27.301 44.0941L26.5742 44.1193L26.8155 44.2263L26.7115 44.4676L26.9709 44.3273L27.2828 44.727L27.0688 45.2156L26.5894 45.3518L26.0978 47.184L26.6348 47.294L26.5944 46.9114L27.2404 46.8731L27.4242 47.3636L27.1324 47.4838L27.1627 48.4387L27.0113 48.9373L26.2593 49.5723L25.3589 49.3573L25.2599 50.5191L24.6654 50.9078L24.731 51.2863L23.6751 51.2045L23.7528 52.6753L23.2491 52.7772L22.8393 52.3078L21.8824 52.1312L21.4352 52.7056L21.2272 52.3573L20.4449 52.7046L20.3087 53.1406L20.6448 53.2174L20.777 53.6847L20.5762 53.8402L20.6922 55.1736L21.0122 55.1484L21.0405 55.6975L21.3252 55.7884L21.1505 56.0205L21.411 56.1982L20.8911 57.4025L21.1233 57.8194L20.9254 57.9435L21.2696 58.419L20.1461 58.5482L20.136 59.0246L19.493 59.6192L19.1821 59.4708L19.3376 58.8994L19.6667 58.9126L19.808 58.5572L19.378 58.6663L19.3184 58.3422L18.5391 58.2322L18.4775 57.3671L17.8527 57.5014L17.986 58.1828L17.6327 58.4462L17.0815 57.7628L16.7413 57.7598L16.3345 56.6858L17.1067 55.9903L16.7494 55.9267L16.4678 55.3866L16.0983 53.8583L15.209 53.2729L13.2891 53.9048L12.5693 53.0488L12.9842 52.7863L13.073 52.3543L13.5747 52.5976L13.5909 52.1827L13.281 51.9394L13.4475 51.5891L13.9492 51.2439L14.2369 51.463L14.2611 50.9108L14.7124 51.0168L14.7941 50.6292L14.4126 49.8741L13.7938 49.5047L14.0946 49.0767L13.9947 48.3539L14.3056 48.0238L14.6891 48.2661L14.8971 48.0904L14.8254 46.7307L15.101 46.2381L14.885 45.6769L15.74 44.7502L16.3325 44.9501L16.9836 44.3616L16.9725 43.8831L17.4802 43.337L17.2561 42.7182L18.6582 42.4134L18.5028 42.1328L18.9611 41.3999L18.6683 40.7357L17.8557 41.0083L17.6084 40.6984L18.0132 40.0957L18.4897 39.6788L20.0603 39.5486L20.1189 39.1549L19.7585 38.5957L20.5782 38.2222L21.0466 38.4564L21.0748 38.9773L21.8501 38.8279L22.8514 37.4682L22.6283 37.2259L23.3612 36.8938Z" fill="#00212E" stroke="#00212E" stroke-width="0.5"/>
<path d="M51.4009 10.0562L51.8208 10.7921L52.7445 11.316L54.0931 12.6687L53.8235 12.8312L54.0022 13.3329L52.8747 13.2572L52.2478 13.5872L52.1731 13.2551L52.0631 13.5943L51.514 13.5146L52.2307 12.8766L52.0429 12.0034L52.3982 12.0044L52.3609 12.599L52.5214 12.3012L52.8898 12.5142L52.9352 12.0529L52.4396 11.1828L52.05 11.1908L52.1539 11.7057L52.1257 11.4997L51.7269 11.8763L51.7037 11.3554L51.1395 11.6683L51.412 10.6972L51.0042 10.1441L51.4009 10.0562ZM44.2905 7.18037L44.453 7.32572L44.1077 7.31462L44.2905 7.18037ZM43.1791 6.59389L43.386 6.90479L45.6582 6.99564L45.7208 7.1945L44.9264 7.40042L43.8635 7.21368L43.2093 7.88394L44.3086 7.37014L44.1118 7.81631L44.2662 7.50843L44.4923 7.81934L44.8214 7.53872L44.9839 8.11106L45.7057 7.34793L46.3911 7.0986L46.3658 7.5266L46.7959 7.84659L46.8726 8.79445L47.3531 8.9287L47.127 9.11242L47.4025 8.96908L48.0587 9.31431L48.2939 9.87353L48.5805 9.89675L48.2353 10.135L48.8783 9.97852L48.6522 10.3046L48.8339 10.1784L49.2064 10.9365L49.4164 10.9445L49.3518 10.5236L50.77 10.033L50.6893 10.2501L51.3555 10.8063L50.98 11.5744L52.0762 12.7343L51.4988 13.2289L51.4524 13.5973L53.2885 14.7138L54.3464 14.6219L54.0123 15.1196L54.4312 15.2912L55.2802 19.1411L54.6735 19.3511L54.3131 19.9033L53.2603 19.872L54.085 18.8262L54.1748 18.0802L52.0914 18.1479L51.84 17.2545L51.2979 16.669L51.1798 17.1526L51.4251 17.4675L50.7902 17.5109L50.2259 18.2791L49.7394 18.4043L49.5557 19.2542L49.3144 19.5479L49.0085 19.4854L48.8107 20.0244L48.1303 19.6802L47.6842 20.3686L47.1633 20.0022L46.2326 20.8925L45.8329 20.8047L45.9691 20.5271L44.7104 20.6674L44.6246 20.2818L44.1623 20.2515L44.0179 19.9588L42.6249 20.0042L42.2887 19.4551L41.4257 19.2007L41.246 18.8242L40.8543 19.0311L40.0589 18.6808L39.9045 19.4531L38.8577 20.0123L38.4479 19.9638L38.5872 20.2687L38.0279 20.3444L37.6181 20.0577L36.8711 20.4362L36.75 21.3407L36.0353 21.1731L35.8536 21.4921L35.044 21.372L34.508 21.2176L34.5908 20.7502L33.9014 20.3918L33.2452 19.1068L32.7991 18.9463L32.2671 19.4177L31.3939 18.7081L30.7227 18.7767L30.9669 17.8117L32.2035 17.1707L32.1863 16.5096L32.7536 16.5459L33.0211 15.7091L32.8334 15.1569L32.366 15.1276L31.7755 14.5866L31.8613 13.2723L32.5608 12.705L32.7587 12.9947L33.1069 12.8907L32.6436 12.7272L32.7102 12.3598L33.5804 11.8197L34.4878 11.7218L35.0006 12.064L34.9875 12.5919L35.4902 12.3325L36.2877 13.0139L36.4411 12.2447L36.1968 12.3355L36.1908 11.9025L36.1039 12.3012L35.8264 12.2598L35.8122 11.8621L36.4845 11.64L36.4825 12.2417L36.6723 11.5381L37.0215 11.5129L37.3526 10.8941L37.2163 10.7558L36.7449 11.3554L36.7177 11.0778L37.6978 10.2157L38.7729 10.2965L40.5606 9.87253L40.9512 9.28201L41.9173 8.64102L43.1791 6.59389ZM47.1401 5.26345L46.6192 6.85735L46.8423 5.39569L47.1401 5.26345ZM48.9752 4.36304L48.6139 4.91318L48.8935 5.52792L50.2703 5.45323L50.554 5.68539L49.8868 6.97141L50.1361 7.4519L50.5156 7.49026L51.1203 8.14538L50.7629 8.94183L50.7084 8.639L50.3471 8.62487L50.7215 8.30387L50.1169 8.4149L50.5984 8.03031L50.1532 8.26854L49.9534 8.01214L49.4285 8.13428L48.4645 8.93072L48.4988 9.18611L48.5452 8.99533L48.8864 9.10536L48.7209 9.46471L48.0688 9.14371L48.2686 9.20125L48.3474 8.83685L47.9264 9.10939L47.4873 8.9287L47.448 8.63799L47.1027 8.7995L47.3904 8.59761L46.9372 8.24532L47.021 7.82035L47.876 7.67398L47.561 7.17128L47.1663 7.25103L47.348 6.8846L46.9806 6.97545L47.2905 6.48386L47.661 6.56764L47.4793 6.97949L47.9396 6.62013L47.667 6.55856L47.6852 6.28096L47.2935 6.31225L47.127 5.88728L47.77 5.79038L48.1546 6.24058L48.1091 5.81258L48.4786 5.51076L48.3756 5.86205L48.6118 5.7389L48.8491 6.46771L49.0964 6.71603L49.4325 6.60701L49.487 5.67732L49.0631 5.82974L48.5755 5.13324L47.7639 5.74596L48.0284 4.78902L47.235 5.75202L47.7811 4.65375L48.9752 4.36304Z" fill="#00212E" stroke="#00212E" stroke-width="0.5"/>
<path d="M6.38554 16.2438L5.77584 16.4054L5.95148 16.7122L5.37207 16.3943L5.98379 16.0127L6.38554 16.2438ZM10.1679 14.767L10.4051 14.9588L9.9014 14.869L10.1679 14.767ZM11.3075 14.5117L11.6457 14.66L10.5807 14.8963L10.6726 14.5662L11.3075 14.5117ZM12.2392 14.2633L12.8449 14.3744L11.893 14.5621L12.2392 14.2633ZM13.3516 14.119L13.8331 14.338L13.0347 14.2139L13.3516 14.119ZM18.4553 13.0591L18.9833 13.6637L19.7747 13.802L20.5863 13.6143L20.4843 13.2559L21.8026 13.1994L22.4759 13.4851L23.7084 15.2142L23.9951 16.047L25.1539 16.6991L25.4396 16.7344L25.6496 17.7126L26.0009 18.0699L26.2714 17.7873L26.3471 18.2415L26.7953 18.2163L27.2273 17.7065L28.0157 18.4313H28.4296L28.8767 18.0295L30.722 18.7755L31.3932 18.7069L32.2664 19.4165L32.7984 18.9451L33.2445 19.1056L33.9007 20.3906L34.5901 20.7489L34.5073 21.2163L35.0434 21.3708L35.5026 22.0784L36.2385 21.8321L37.1773 22.2904L36.9048 22.683L36.6039 22.6124L36.5585 23.3069L35.3422 23.9731L33.3626 23.6208L32.9427 24.2426L31.8303 24.3557L32.0302 25.7214L32.225 25.6952L32.8095 26.8257L33.1739 26.6784L32.9246 27.2719L33.3808 28.034L32.974 28.0522L32.9023 28.3994L33.8078 29.3019L33.2183 29.6522L33.8744 30.8322L33.4111 31.1501L33.7109 31.4156L33.614 31.8204L32.9609 32.1444L33.1052 32.628L31.3973 32.6996L30.509 33.1731L31.0813 33.6616L30.837 33.8625L31.0733 34.3571L30.6089 34.7932L30.5887 35.1838L31.3993 36.9403L30.9996 37.1664L31.1146 37.7973L30.7886 37.5802L30.2304 37.8447L29.6762 37.45L29.2714 37.4985L28.8131 38.4645L28.3932 38.7037L28.1913 38.5443L27.8814 39.1065L27.3313 39.2448L27.19 39.048L26.4278 39.6869L26.2593 39.2529L25.9312 39.2842L26.0241 39.7263L25.5759 39.3508L25.5951 39.5809L24.9743 39.803L25.2115 40.2593L25.4275 40.0826L25.1782 40.5076L24.0678 39.9978L23.875 39.7697L24.1132 39.8212L24.1748 39.4184L24.5988 39.2448L24.5907 38.7078L24.2242 38.2303L24.3514 37.773L24.6149 37.872L24.5079 37.5358L24.8935 37.6095L24.4847 37.0008L23.3602 36.8918L22.8696 36.8565L22.8706 35.8915L23.3289 35.3625L23.4187 34.6711L22.5466 34.7447L22.6516 34.1865L22.2175 33.9362L22.2236 33.5102L21.7986 33.6384L21.5856 33.4294L21.7077 32.4988L21.3211 32.2353L21.4493 31.8709L20.5317 31.8133L20.3642 31.1875L20.7377 31.3016L20.6872 30.8776L20.9507 30.7999L20.236 30.2941L21.2484 28.9879L21.0637 28.5731L21.3363 28.2268L21.096 28.0068L20.7932 27.9775L20.0482 29.0142L19.5243 29.1444L18.5674 29.0798L18.5341 27.9371L18.208 27.6515L17.6003 27.9957L17.2501 27.8584L16.704 28.569L15.9711 28.4206L16.0569 29.0001L16.8776 29.4351L16.8685 30.9796L17.347 31.2945L16.6363 32.0657L15.8611 31.8093L15.2585 32.4594L14.2278 32.4998L13.8977 32.848L13.281 32.3443L14.0724 32.0162L14.1905 31.5216L13.389 31.0845L13.7494 30.4294L13.5889 30.065L13.9745 29.9903L13.6202 29.4058L12.1807 29.0313L12.0222 28.4863L11.5034 28.2551L11.2268 28.7053L11.4731 28.8143L11.3439 29.2928L9.49763 30.4597L7.99559 30.6939L7.75433 30.1871L8.05918 29.31L7.5262 28.3217L7.21126 28.6639L6.02416 28.3772L5.63957 28.1218L5.5255 27.4233L6.08372 27.3143L5.73244 26.64L5.98782 26.4129L7.94007 26.4704L8.15003 24.2769L8.98584 22.6053L8.74156 21.1951L9.04843 20.7651L8.93436 20.0746L9.16552 19.253L9.57131 19.2338L7.67762 19.0046L7.79976 16.9393L8.22473 17.3108L7.85124 16.9111L8.25905 17.1826L8.51242 16.8566L8.16416 16.4558L9.16249 15.4716L9.9125 15.2889L10.9674 15.4636L12.1161 14.9376L12.1181 15.1506L12.7793 15.0335L12.961 14.7771L12.8015 15.0719L14.1955 15.0598L14.3056 15.7734L14.7749 15.835L15.1293 16.9272L14.4126 17.2563L14.4307 17.5692L15.317 18.3445L15.742 18.3303L16.0377 17.7741L16.0186 17.0867L15.4856 17.0978L15.8308 16.1146L16.1922 16.1025L17.0068 16.7435L17.3571 16.6799L17.6003 17.0595L17.7185 17.4622L18.096 17.3613L17.9991 16.5063L18.2726 16.1267L17.3742 16.1712L17.1239 15.2092L17.5458 13.8979L17.9577 13.1812L18.4553 13.0591ZM17.1734 20.2412L17.3056 20.5683L18.0041 20.8953L18.6421 22.2621L18.9883 22.1137L19.3103 22.467L19.594 22.255L20.0381 22.5356L20.3339 22.1904L20.3894 21.6443L20.1219 21.4414L20.348 21.3314L20.0997 21.0558L19.5778 21.2769L19.3588 20.9256L18.0324 20.8418L17.7508 20.6349L17.8749 20.4148L17.2511 20.2442L17.1734 20.2412Z" fill="#00212E" stroke="#00212E" stroke-width="0.5"/>
<path d="M7.99902 30.696L9.50105 30.4618L11.3483 29.2949L11.4775 28.8164L11.2312 28.7074L11.5078 28.2572L12.0256 28.4884L12.1841 29.0335L13.6236 29.408L13.9779 29.9914L13.5923 30.0661L13.7528 30.4305L13.3924 31.0856L14.1939 31.5227L14.0758 32.0173L13.2844 32.3454L13.9002 32.8501L14.2302 32.5019L15.2609 32.4605L15.8635 31.8104L16.6388 32.0668L17.3484 31.2956L16.8699 30.9807L16.879 29.4362L16.0583 29.0012L15.9725 28.4217L16.7054 28.5701L17.2515 27.8605L17.6028 27.9968L18.2104 27.6536L18.5365 27.9392L18.5698 29.0819L19.5267 29.1465L20.0506 29.0153L20.7956 27.9796L21.0984 28.0089L21.3387 28.2289L21.0661 28.5762L21.2509 28.9901L20.2384 30.2963L20.9531 30.802L20.6886 30.8787L20.7391 31.3037L20.3656 31.1896L20.5321 31.8144L21.4497 31.872L21.3215 32.2374L21.7081 32.4999L21.586 33.4306L21.799 33.6405L22.225 33.5123L22.2189 33.9383L22.653 34.1886L22.548 34.7469L23.4201 34.6732L23.3303 35.3646L22.871 35.8936V36.8586L23.3616 36.8939L22.6287 37.226L22.8518 37.4683L21.8505 38.828L21.0752 38.9774L21.047 38.4565L20.5786 38.2223L19.7589 38.5958L20.1193 39.155L20.0607 39.5487L18.4901 39.6789L18.0136 40.0958L17.6088 40.6985L17.8561 41.0084L18.6687 40.7358L18.9615 41.4L18.5032 42.1329L18.6586 42.4135L17.2565 42.7183L17.4806 43.3371L16.9729 43.8832L16.984 44.3617L16.3329 44.9502L15.7404 44.7503L14.8854 45.677L15.1014 46.2382L14.8258 46.7308L14.2848 46.6097L13.8184 45.8183L13.8204 45.1036L12.917 44.7302L13.0593 44.2668L12.6899 44.1194L12.3234 44.3668L12.4971 45.1117L11.8409 45.356L11.9106 45.7557L11.4008 46.1807L10.0017 46.3947L9.74937 47.1972L8.96101 47.3587L8.88631 47.1043L8.53603 47.5919L8.33314 47.4718L8.16658 47.7373L7.94854 47.5333L7.57505 47.9523L7.13999 47.9947L7.14403 48.2622L6.8311 48.3258L6.94719 48.9173L6.67363 49.0778L6.3062 48.6841L5.94785 48.8739L6.29711 50.0105L5.67025 50.2558L5.46231 49.9106L5.26446 50.175L5.03229 49.739L4.06929 50.2538L3.81391 49.7258L3.76142 50.3951L3.35663 49.8157L3.58275 49.2484L3.41821 48.7164L2.61773 48.6498L2.31086 48.1774L2.8933 47.3264L2.30379 47.3274L1.94242 46.3816L1.41347 46.3876L1.32868 45.8355L0.99052 45.6043L1.3206 45.4145L1.28225 45.1016L1.63656 45.0946L1.77081 44.3334L1.28527 44.2012L1.3206 43.6975L0.500945 43.7894L0.291992 43.0444L0.601888 42.8566L0.894624 43.1686L1.22673 42.5992L2.28159 41.928L2.0585 41.7675L2.22405 41.5494L1.68804 41.7765L1.6194 41.0578L2.61167 39.8273L2.53192 38.2799L1.74356 37.3128L1.90608 36.792L1.36502 36.6062L1.43972 36.1621L0.869388 35.936L1.09853 35.4777L0.806803 35.0527L1.57195 34.6308L2.22708 34.8781L1.92425 34.2452L3.74829 35.0224L3.68268 34.5308L4.18134 34.7489L5.56224 34.0847L5.86911 34.2765L6.50001 33.3629L5.5784 32.8118L5.6218 32.4877L5.89738 32.4383L6.05283 31.985L6.6595 31.9638L7.49026 30.8646L7.99902 30.696Z" fill="#00212E" stroke="#00212E" stroke-width="0.5"/>
<path d="M3.76176 50.395L3.81425 49.7258L4.06964 50.2537L5.03264 49.7389L5.26481 50.175L5.46266 49.9105L5.6706 50.2557L6.29746 50.0104L5.9482 48.8738L6.30654 48.684L6.67398 49.0777L6.94754 48.9172L6.83145 48.3257L7.14437 48.2621L7.14034 47.9946L7.5754 47.9522L7.94889 47.5333L8.16693 47.7372L8.33349 47.4717L8.53638 47.5918L8.88666 47.1043L8.96136 47.3587L9.74972 47.1971L10.0021 46.3946L11.4012 46.1806L11.9109 45.7557L11.8413 45.3559L12.4974 45.1117L12.3238 44.3667L12.6902 44.1194L13.0597 44.2668L12.9173 44.7301L13.8208 45.1036L13.8187 45.8183L14.2851 46.6097L14.8262 46.7308L14.8978 48.0905L14.6899 48.2661L14.3063 48.0239L13.9954 48.354L14.0953 49.0767L13.7945 49.5047L14.4133 49.8742L14.7949 50.6292L14.7131 51.0168L14.2619 50.9109L14.2377 51.463L13.95 51.244L13.4483 51.5892L13.2817 51.9395L13.5916 52.1827L13.5755 52.5976L13.0738 52.3543L12.985 52.7864L12.5701 53.0488L13.2898 53.9048L15.2097 53.2729L16.0991 53.8584L16.4685 55.3867L16.7501 55.9267L17.1075 55.9903L16.3353 56.6858L16.7421 57.7599L16.8713 59.0802L17.2882 59.2306L16.9207 60.3147L17.166 60.6075L16.5361 61.2L16.3322 62.5133L15.5196 63.8316L13.5967 62.9322L13.1626 63.1714L12.6983 62.8565L11.922 63.0644L10.9863 62.5506L10.7662 61.8511L10.3907 61.8935L10.4371 61.7047L9.92335 61.9551L9.45497 61.1687L10.0727 60.6196L10.1717 59.8736L9.46102 59.6818L9.20766 59.2447L9.55389 58.8349L9.31365 57.7538L8.97044 57.9385L7.77224 57.2027L7.20999 57.2531L5.06595 58.4029L3.59823 58.0799L3.45489 57.8749L3.92428 56.916L4.48048 56.3769L4.55518 55.5159L3.92529 55.5058L3.48417 55.1081L3.2308 55.2322L2.66047 54.6236L2.59082 54.1229L2.29607 54.0865L1.87109 53.0266L2.06995 51.9354L2.38893 51.7931L2.29607 51.2662L2.96128 50.9482L3.15812 50.4172L3.48417 50.5798L3.76176 50.395Z" fill="#00212E" stroke="#00212E" stroke-width="0.5"/>
<path d="M3.59736 58.0796L5.06507 58.4026L7.20911 57.2529L7.77136 57.2024L8.96956 57.9383L9.31277 57.7535L9.55301 58.8346L9.20678 59.2445L9.46015 59.6816L10.1708 59.8734L10.0719 60.6193L9.45409 61.1685L9.92247 61.9548L9.47731 62.3798L8.59708 62.3253L8.21652 61.98L7.94398 62.3959L7.80669 61.6328L7.1122 61.3118L6.54894 61.4148L6.53279 62.0002L5.90997 61.8912L5.46582 60.7546L4.80262 60.0954L5.01965 59.9107L4.62698 59.5503L4.70672 59.3262L3.9123 58.8205L3.5166 58.876L3.59736 58.0796Z" fill="#00212E" stroke="#00212E" stroke-width="0.5"/>
<path d="M41.5805 42.6201L41.0203 42.0841L41.0465 41.1039L40.7074 40.2469L41.0243 40.1601L40.7165 38.7913L41.0889 38.4956L41.2565 37.7496L42.492 37.5578L42.6041 37.2772L42.8837 37.4256L43.7831 37.1015L43.6761 37.2631L44.2061 36.7038L44.7209 36.8825L45.1923 36.4949L45.8242 36.9764L46.0644 36.6564L46.5379 36.8916L47.2334 37.4367L47.1213 37.6921L47.5311 38.1554L47.3232 39.1446L47.5766 39.4717L47.9137 39.5888L48.2771 39.0538L48.6294 39.1719L48.7647 38.8822L49.6903 39.7432L51.1712 39.8149L52.3663 39.4646L52.6207 39.7059L53.0315 38.968L52.8478 38.652L53.1991 38.6399L53.5181 37.9565L54.7768 38.3684L55.1312 37.9707L56.2839 37.575L56.5908 37.8869L57.0027 37.8566L57.1157 37.3963L57.3297 37.5578L57.3681 38.1322L58.752 38.7156L58.9236 40.0249L59.3385 40.7355L58.9226 42.7493L57.7537 45.3587L56.617 44.9792L56.8129 44.2322L56.2698 44.3644L56.4818 43.675L55.8368 43.3085L55.8559 43.0602L55.7974 43.2964L55.2664 43.3429L54.578 42.9724L54.3034 43.6639L54.7244 43.6901L54.6315 43.997L55.1867 44.1857L55.1211 44.5734L54.3468 44.6047L53.1264 45.4475L51.9888 45.6373L51.9757 46.1309L51.7072 46.3035L49.5843 46.5266L49.5732 47.1969L49.1997 47.5603L48.59 47.0889L48.2731 47.7985L47.7865 47.6733L47.4524 48.5677L46.4016 48.5031L46.3299 49.1219L45.8555 49.5802L45.0318 49.0098L44.9732 49.2965L44.8763 49.1158L44.4917 49.2854L44.306 49.6397L44.09 49.4429L43.0583 49.6438L41.8894 51.2053L41.9278 51.8968L41.626 51.8564L41.6502 51.4143L41.3019 51.163L41.4008 50.9126L41.0526 50.8944L40.9476 50.3948L40.4106 50.4362L39.6162 50.1081L39.6535 49.7285L39.2699 49.3763L39.0882 49.1239L39.4365 49.0714L39.5415 48.7373L38.9277 48.2235L39.7716 47.2504L40.1249 48.0902L40.2773 47.8338L40.8113 47.8288L40.7245 47.2958L40.987 47.4604L41.0475 47.205L41.4574 47.2908L41.8006 46.9526L41.4453 46.6387L41.4705 46.2026L41.2141 46.1935L41.6209 45.7403L41.3726 45.3577L41.9934 45.3315L42.167 45.0206L42.596 45.1306L42.8696 44.6067L43.9688 44.3543L43.6701 43.572L43.023 43.362L42.9978 42.8947L41.9278 42.4859L41.5805 42.6201Z" fill="#00212E" stroke="#00212E" stroke-width="0.5"/>
<path d="M37.179 22.2894L37.4334 22.2651L37.3446 22.5498L37.6706 22.5871L37.7817 22.9162L38.0875 22.7921L38.7437 23.1837L38.6801 23.64L39.6249 24.0024L40.5536 23.8076L40.5657 24.2376L41.0098 23.9691L41.2632 24.1457L41.4186 24.7443L41.0401 25.6639L41.238 26.6067L40.8544 26.6491L40.6878 27.6555L40.9846 27.6313L40.9563 28.0189L41.3238 27.7504L41.8931 28.2168L41.5236 28.881L41.7417 29.5997L41.3439 30.5899L41.6771 30.8403L41.1683 31.458L42.5623 33.0509L42.848 32.8743L43.2376 33.3699L43.704 33.4063L44.0825 33.0953L44.7811 33.6081L45.2 33.5546L45.2474 33.8958H45.9288L46.0267 34.2683L46.4931 34.2633L46.4668 34.5631L47.0937 34.4732L47.3945 36.163L46.5385 36.8918L46.0651 36.6566L45.8248 36.9766L45.1929 36.4951L44.7215 36.8827L44.2067 36.7041L43.6768 37.2633L43.7838 37.1018L42.8843 37.4258L42.6047 37.2774L42.4927 37.5581L41.2571 37.7498L41.0896 38.4958L40.7171 38.7916L41.025 40.1604L40.708 40.2472L41.0472 41.1042L41.0209 42.0844L41.5812 42.6204L41.3672 43.1513L41.6316 43.332L41.1471 44.1597L40.9472 43.7863L39.8752 43.8731L39.0616 42.9787L38.2137 43.1099L37.6343 42.4043L36.4532 42.4922L36.3573 41.5695L35.6911 41.2819L36.3957 40.5076L35.8849 39.6314L35.3873 39.3296L33.2766 39.2519L32.9788 38.0184L32.5932 37.5984L32.6457 37.3552L32.8728 37.4642L32.8193 37.1886L31.401 36.9423L30.5905 35.1859L30.6117 34.7962L31.075 34.3592L30.8388 33.8645L31.0831 33.6637L30.5117 33.1751L31.4 32.7017L33.108 32.63L32.9636 32.1465L33.6167 31.8225L33.7136 31.4177L33.4138 31.1512L33.8772 30.8332L33.222 29.6522L33.8105 29.3029L32.9051 28.3995L32.9768 28.0522L33.3836 28.034L32.9273 27.2719L33.1756 26.6784L32.8112 26.8258L32.2267 25.6952L32.0319 25.7214L31.8321 24.3557L32.9445 24.2436L33.3644 23.6208L35.3439 23.9731L36.5602 23.3069L36.6047 22.6124L36.9065 22.682L37.179 22.2894Z" fill="#00212E" stroke="#00212E" stroke-width="0.5"/>
<path d="M17.1284 6.90959L17.3656 7.1569L17.1698 7.32548L16.9002 6.89243L17.1284 6.90959ZM33.8517 6.05056L34.8015 6.34734L35.3436 7.47184L34.5552 7.25078L34.103 7.4668L33.887 6.96713L33.4721 7.0176L33.6316 7.17911L33.3782 7.02769L33.5105 6.29081L33.8517 6.05056ZM17.1839 6.02129L17.092 6.45333L16.9739 5.92337L17.1839 6.02129ZM18.5587 5.75278L18.5416 6.38367L17.9975 6.49774L17.8118 6.04249L18.5587 5.75278ZM17.5947 5.52162L17.7229 5.74672L17.3 5.5408L17.5947 5.52162ZM16.4864 4.84934L16.5813 5.12289L16.337 5.16832L15.8878 4.54247L16.339 4.02261L16.2007 4.29819L16.4864 4.84934ZM17.4029 3.55221L17.7976 3.66931L17.6714 4.40619L16.5903 4.16191L16.7731 3.65417L17.4029 3.55221ZM16.8407 0.261461L17.0194 0.322027L16.5722 0.336159L16.8558 0.667253L16.2946 1.19317L16.4066 1.95832L16.768 2.19251L17.8854 2.08652L18.1065 1.81902L20.1112 1.91592L21.9656 2.49534L22.0554 2.94554L22.3441 3.04346L22.6631 3.05759L23.086 2.59325L23.2607 3.1868L24.3983 2.20765L24.3509 2.71943L25.5652 3.09999L25.9528 3.58553L26.291 3.47045L26.29 3.09494L26.6201 3.29279L27.1379 4.33049L26.8866 4.3214L27.1238 4.51118L27.0743 5.82546L26.6705 6.3544L25.8277 6.67742L26.0366 6.96713L27.7093 6.56134L28.1887 6.88536L27.7577 8.47522L28.0888 8.29655L28.3593 7.34466L28.9862 7.10542L30.7577 7.89682L31.424 8.54689L31.9781 8.46109L32.8856 7.69594L33.4923 7.84836L34.0535 7.51828L34.1383 7.80294L33.6972 8.01593L33.9274 9.7249L32.495 10.9604L32.1023 10.7263L31.7298 11.3602L31.9438 11.9063L32.493 11.978L32.707 12.3625L32.6403 12.73L33.1037 12.8935L32.7554 12.9975L32.5576 12.7078L31.858 13.2751L31.7722 14.5894L32.3627 15.1304L32.8301 15.1597L33.0179 15.7118L32.7504 16.5487L32.1831 16.5123L32.2002 17.1735L30.9637 17.8145L30.7194 18.7795L28.8741 18.0335L28.9882 17.867L28.2473 17.0907L27.9293 17.0726L27.8576 16.5234L28.1675 16.3872L28.3149 15.8673L27.8142 15.3908L28.1292 14.8942L27.9747 14.7347L27.4084 14.9326L27.3075 15.3919L26.8795 15.3575L26.7513 15.7341L26.2849 15.6684L25.8327 16.3801L25.4148 15.8895L25.1514 16.7011L23.9925 16.049L23.7058 15.2162L22.4733 13.4871L21.8 13.2014L20.4817 13.2579L19.8488 12.6018L19.6974 11.8568L19.2018 11.6257L19.6812 11.3905L20.187 11.5096L20.3586 11.2693L19.9911 10.4628L19.5399 10.593L19.225 10.0207L19.4208 8.79622L18.586 8.73061L18.3811 8.97691L17.7522 8.51257L17.9248 8.0018L18.1429 8.16532L18.4558 7.96748L17.9157 7.82817L17.9965 7.61518L19.6267 7.41128L20.7765 6.65925L20.4706 6.61988L20.3505 6.17573L19.7913 6.84398L19.2058 6.72587L19.764 5.3702L19.6802 5.18447L19.2542 5.31973L19.5248 5.08958L18.4729 3.90753L17.8703 2.14506L16.6822 2.54985L16.2068 2.18847L15.8252 3.62388L15.9302 1.83618L16.5611 0.254395L16.8407 0.261461Z" fill="#00212E" stroke="#00212E" stroke-width="0.5"/>
<path d="M31.4002 36.9421L32.8185 37.1884L32.872 37.464L32.6448 37.355L32.5924 37.5983L32.978 38.0182L33.2757 39.2517L35.3865 39.3295L35.8841 39.6313L36.3949 40.5075L35.6903 41.2817L36.3565 41.5694L36.4524 42.492L37.6335 42.4042L38.2129 43.1098L39.0608 42.9786L39.8744 43.8729L40.9464 43.7861L41.1463 44.1596L41.6308 43.3319L41.3663 43.1512L41.5803 42.6202L41.9276 42.4859L42.9976 42.8948L43.0228 43.3621L43.6699 43.5721L43.9687 44.3544L42.8694 44.6068L42.5958 45.1307L42.1668 45.0206L41.9932 45.3315L41.3724 45.3578L41.6207 45.7404L41.2139 46.1936L41.4703 46.2027L41.4451 46.6388L41.8004 46.9527L41.4572 47.2909L41.0474 47.2051L40.9868 47.4604L40.7243 47.2959L40.8112 47.8289L40.2772 47.8339L40.1247 48.0903L39.7714 47.2505L38.9276 48.2236L39.5413 48.7374L39.4363 49.0715L39.0881 49.124L39.2698 49.3763L38.6358 49.7175L38.3431 49.4147L36.6876 49.8639L36.4353 49.3057L36.1779 49.4097L36.0325 49.1623L36.1001 48.487L35.553 48.3911L35.1987 48.8464L34.9211 48.8141L35.1573 50.0093L34.9443 50.9319L34.267 50.7603L34.3427 50.3101L34.0692 49.9467L33.2303 50.1364L32.9154 49.6883L32.2491 49.6872L31.485 50.1546L31.5012 50.407L32.3339 50.8632L32.341 51.1731L31.6011 51.1035L31.5062 51.5719L30.8026 51.3155L30.7522 50.2778L30.3968 49.9729L30.0567 50.0607L29.8043 49.5934L29.4369 49.6721L29.02 48.6647L28.3881 48.4921L28.2054 48.057L27.8127 48.1721L27.5916 47.9601L27.1626 48.4386L27.1323 47.4837L27.4241 47.3635L27.2403 46.8729L26.5943 46.9113L26.6347 47.2939L26.0977 47.1839L26.5892 45.3517L27.0687 45.2155L27.2827 44.7269L26.9708 44.3272L26.7114 44.4675L26.8154 44.2262L26.5741 44.1192L27.3009 44.094L27.0193 43.7195L27.1465 43.3975L28.2094 43.451L28.2154 43.1714L27.8006 42.923L28.0156 42.3436L27.6613 42.1094L27.9591 41.9681L28.171 42.3789L28.4163 41.633L27.3332 41.2141L27.2484 40.6811L26.7134 40.6205L26.4288 39.6888L27.1909 39.0508L27.3322 39.2467L27.8823 39.1094L28.1932 38.5471L28.3941 38.7066L28.814 38.4674L29.2723 37.5014L29.6771 37.4529L30.2303 37.8476L30.7895 37.5831L31.1156 37.8002L31.0005 37.1683L31.4002 36.9421Z" fill="#00212E" stroke="#00212E" stroke-width="0.5"/>
</svg>
