<svg width="103" height="115" viewBox="0 0 103 115" fill="none" xmlns="http://www.w3.org/2000/svg">
<g clip-path="url(#clip0_212_1304)">
<path d="M70.927 21.6822L71.7495 21.0344L71.7626 20.8548L71.1702 19.8887L70.7524 19.5884L70.5419 19.2343L70.7459 18.4608L71.1637 18.3498L71.57 17.994L72.4023 18.8018L72.9866 19.0662L73.3293 19.4546L74.0832 19.3126L74.1322 19.1837L74.6626 19.0923L74.5875 19.3551L74.7442 19.5542L75.539 19.8708L75.9812 19.6586L76.4708 19.2425L77.1007 18.3596L77.1301 17.6431L76.714 16.8027L76.8772 16.2135L76.6732 15.7811L76.5377 15.0924L76.8462 14.4527L77.2917 14.1834L77.5218 14.1671L78.1387 13.7656L78.4194 13.1928L78.5434 12.5987L78.4749 11.6408L78.4373 10.2079L79.0868 9.06555L79.1505 8.19408L79.3039 7.46623L79.2125 6.47236L78.9791 5.30388L78.0571 3.07788L77.9853 2.4251L78.2464 2.03995L78.4846 1.44592L78.359 1.02161L78.4047 0.631569L78.7898 1.0722L79.3235 0.987337L79.7331 0.700112L79.8996 0.0946538L80.1656 0L80.3598 0.337816L80.6584 0.595666L80.8494 1.04119L81.5511 1.55689L82.2202 2.50833L82.9938 3.44181L83.7216 4.19741L84.3156 5.38221L84.908 6.39566L85.2834 6.83139L85.6898 7.17247L86.429 8.11575L88.1214 9.45559L88.5979 9.72649L88.6975 10.0154L89.0793 10.3075L90.2005 10.8966L91.1813 11.2867L92.965 11.8007L93.6244 11.9427L93.9883 11.9068L94.0128 12.4927L94.4534 13.1128L95.426 13.4196L96.4607 13.4816L96.9764 13.4621L97.4742 13.2173L97.9278 12.7783L98.3962 12.1957L99.1893 11.4515L99.6104 11.1904L99.8111 10.7497L100.142 10.3956L100.381 9.97618L100.66 10.5637L100.547 10.9586L100.293 11.4237L100.017 11.7044L99.8356 12.4339L99.3101 13.0818L99.0245 13.7264L98.9935 14.2209L98.8319 14.4314L98.8858 14.9227L99.2938 15.7076L99.7442 16.3049L99.8895 16.677L100.04 17.4946L100.359 18.1866L99.9009 18.1017L100.439 18.717L101.213 18.9046L102.352 17.839L103.346 17.901L102.935 18.3286L102.409 18.4216L101.841 18.7349L101.598 19.6276L100.989 19.5019L100.167 19.657L99.7116 19.9295L99.3297 19.8659L99.1404 20.3228L98.6165 21.0507L98.3065 21.2008L97.7304 21.1698L97.4578 20.9283L97.4007 20.5627L97.1788 20.5954L96.9421 20.8663L96.8099 21.2432L97.1576 21.5892L96.5488 21.5533L96.1996 21.4456L95.1143 21.4407L94.9071 21.395L94.4289 21.0099L93.502 21.1731L92.7676 21.5321L91.7378 22.3024L90.1401 23.9033L89.6587 24.5006L88.9047 25.6691L88.4412 26.6777L88.358 27.1852L88.5228 27.5247L88.2764 28.8041L88.0023 29.2692L87.9647 29.7605L86.8827 28.6262L85.4123 28.0126L84.722 27.6618L84.0317 27.1918L82.9628 26.6581L82.2431 26.1506L81.6849 25.5272L81.4499 25.4064L80.7123 25.2432L80.0415 24.6198L79.4899 24.2559L78.9367 24.0943L78.3378 24.0747L77.9151 24.1481L77.2525 24.3995L76.6209 24.7928L75.8082 25.4847L75.3268 25.7556L74.6838 26.4998L74.581 26.7266L74.2546 26.6042L73.814 25.4521L73.2493 24.9902L73.215 24.814L72.8299 24.4403L72.4529 24.4125L72.0743 24.5741L71.7805 24.3946L71.415 24.4027L70.9075 24.9527L70.4701 25.7899L70.253 26.5634L70.3379 27.1558L71.0413 27.5214L71.7006 28.135L72.0988 28.2786L72.5166 28.1154L73.1367 28.2101L73.5072 28.8841L74.0016 29.2546L74.328 29.8257L75.2827 30.2403L75.6744 30.7429L75.2158 30.88L74.8845 31.2766L74.3803 31.4789L74.1208 31.239L73.7389 31.0824L72.9392 30.9077L72.6993 30.5895L72.3158 30.7119L72.1853 31.2243L71.7495 31.5475L71.3595 31.5752L71.1816 31.9408L71.2208 32.7241L71.0396 33.0211L70.7557 33.0309L70.16 33.2953L69.8875 33.8697L69.4583 33.7212L69.1123 33.7881L68.7647 33.4487L68.515 32.7421L68.4872 32.4809L68.6113 31.9408L69.0193 31.0187V30.6988L69.3391 30.5454L69.4322 29.7229L69.3114 29.1191L68.9377 28.4843L68.5313 28.1138L68.1364 28.0779L67.9732 27.6781L67.7153 27.4088L67.3694 27.2831L67.1931 26.6401L67.2878 26.2991L67.5734 25.9841L67.6729 25.6952L67.6811 24.8891L67.5309 24.3701L67.8116 23.7695L68.1527 23.5819L68.8446 23.5623L69.0307 23.2848L69.4501 23.0629L69.7096 22.4786L70.129 22.947L70.3999 22.8752L70.4277 22.4509L70.6773 22.1979L70.927 21.6822ZM74.927 1.29251L74.9074 1.74783L74.723 1.97141L74.4602 1.21581L74.5288 0.819245L74.971 0.843724L74.927 1.29251ZM75.3904 2.99791L75.3643 2.62419L75.7527 2.24232L76.3794 2.61114L76.5345 3.16111L75.9877 3.6148L75.5716 3.2884L75.3904 2.99791ZM65.7276 27.6895L65.7309 28.0534L65.5203 28.5577L65.1319 28.5724L65.1515 28.0534L65.0356 27.8217L65.2478 27.3843L65.8272 27.2685L65.7276 27.6895Z" fill="#00212E"/>
<path d="M78.6608 41.475L78.0945 41.8275L78.0618 42.0805L77.7926 42.2894L77.414 42.056L77.21 42.0821L76.6894 42.4167L76.4821 42.0886L75.8881 42.5423L75.4262 42.6566L75.2467 42.9601L74.6249 43.2996L74.3214 43.0629L74.2757 42.9552L74.4291 42.2926L74.5548 42.2127L74.4699 41.6513L73.8236 41.7231L73.8253 41.1095L73.4989 41.1535L73.4271 41.4816L73.2133 41.4522L72.4626 41.8455L72.146 41.5893L71.8408 41.8455L71.4932 41.4832H71.25L71.1701 41.227L70.7719 41.2612L70.6185 41.5648L70.3606 41.5109L69.951 41.6268L69.7046 41.5436L69.2574 41.5827L69.0257 41.3347L68.7923 41.4408L68.714 41.7068L68.2162 41.6333L68.2962 41.0932L68.2374 40.6525L68.1003 40.3898L67.8098 40.4061L67.7642 40.158L68.3043 39.7272L68.6128 39.1805L68.993 38.9683L69.3667 39.1789L69.7992 38.8541L70.0456 38.8231L70.3508 38.1638L70.483 37.5404L70.5042 36.3849L70.2953 36.1565L70.5189 35.9541L70.6413 35.0565L70.971 35.267L71.1733 35.569L71.5699 35.6212L71.8734 35.3144L72.2047 35.4286L72.4397 35.7452L72.3696 36.3376L72.4871 37.1046L72.7074 38.1034L73.0893 38.4951L73.3928 38.4298L73.7535 38.0398V37.4914L73.853 37.0508L74.3067 37.2156L74.6788 37.6726L74.9562 37.8113L75.1161 38.0789L75.3544 38.136L75.6335 37.8831L75.8097 37.5632L75.9827 37.0002L76.0513 36.2544L76.2308 35.9068L76.0121 35.2817L75.6906 34.9129L75.5127 34.939L75.2565 35.4302L74.9122 35.675L74.4519 35.5494L74.2496 35.7468L73.6996 35.848L73.4418 36.114L73.1594 35.9721L73.2492 35.1202L73.3683 34.5751L73.4956 34.3744L73.5919 33.8162L74.0293 33.1145L74.0488 32.7832L74.5694 33.2614L74.9709 33.294L75.2385 33.4474L75.7151 34.0463L76.1573 34.3058L76.4266 34.3385L76.9684 34.092L77.2083 34.3058L76.8966 35.8023L76.9178 36.3131L76.8672 37.3511L76.9146 38.1181L77.0337 39.0418L77.3226 40.2462L77.6979 40.8076L78.0831 40.8989L78.6608 41.475Z" fill="#00212E"/>
<path d="M78.3457 52.944L77.9916 52.7939L77.5542 52.7547L77.5134 53.4548L77.0711 54.4242L76.4428 54.1093L76.1703 54.3736L76.1181 54.5858L75.4686 54.3949L75.2809 54.0015L75.4604 53.8335L75.165 53.6197L74.4959 53.6964L74.3295 53.4483L73.8937 53.2998L73.5249 53.024L73.236 53.0664L73.2116 52.7172L73.4515 52.2978L73.1136 52.0628L73.1153 51.6989L73.3829 51.286L73.1854 51.2191L73.2883 50.8976L72.7872 50.4341L72.5522 49.5463L73.0418 48.5965L72.9619 48.4529L73.3715 48.089L73.5282 47.7283L73.4058 46.9988L73.6555 46.5516L73.3144 46.3525L73.2948 46.0278L73.5412 45.8907L73.8676 45.8956L73.7109 45.4794L73.6881 44.4023L73.8464 44.262L73.8236 43.9275L74.0161 43.3024L74.3213 43.0625L74.6248 43.2991L75.2466 42.9597L75.4261 42.6562L75.888 42.5419L76.482 42.0882L76.6893 42.4163L77.2099 42.0817L77.4139 42.0556L77.7925 42.289L78.0618 42.0801L78.0944 41.8271L78.6607 41.4746L79.0768 42.0948L79.5419 43.149L79.2466 43.4787L79.6676 43.6614L79.808 43.8573L79.5158 44.0972L79.5501 44.3958L79.9516 44.8658L80.2828 45.1155L80.1866 45.6018L80.4052 45.9723L80.4738 46.878L80.3987 47.2713L80.6354 47.6614L80.7512 48.1036L80.9781 48.5018L80.7463 48.6357L80.4852 48.9914L80.9095 49.0926L80.7806 49.4973L80.1735 49.7584L79.9303 50.1191L80.2731 50.0995L80.4069 50.2627L80.1033 50.5238L80.2796 51.0151L79.7492 51.2468L79.9483 51.7968L79.8129 52.0106L79.5517 51.9241L79.4555 52.3418L79.5746 52.536L78.943 52.616L78.8288 53.1007L78.3457 52.944Z" fill="#00212E"/>
<path d="M74.16 61.1742L73.7308 61.2019L73.7405 61.8629L73.3081 61.8678L72.9507 61.9967L72.6749 61.6164L72.7304 61.2688L72.3109 61.0436L71.5831 61.135L71.3987 60.7923L71.0527 60.5818L70.71 60.7564L70.2889 60.554L70.271 59.9518L70.7916 59.9486L71.0919 59.7805L71.149 59.4704L71.4852 58.989L71.4134 58.6169L71.4623 58.3068L71.7822 57.9037L71.7691 57.6508L72.0645 57.3733L72.2506 56.887L71.9291 56.275L72.0351 55.916L71.8573 55.5847L72.2 55.5096L72.3305 55.1604L72.2653 54.8634L72.4709 54.5288L72.2196 54.3934L72.1624 54.0686L71.9095 53.6525L72.5247 53.597L73.0225 53.1204L73.2363 53.0666L73.5251 53.0242L73.894 53.3L74.3297 53.4485L74.4961 53.6965L75.1652 53.6198L75.4606 53.8336L75.2811 54.0017L75.4688 54.395L76.1183 54.5859L76.1705 54.3738L76.4431 54.1094L77.0714 54.4244L77.5136 53.455L77.5544 52.7549L77.9918 52.794L78.3459 52.9442L78.4634 53.4762L78.124 53.5839L78.0963 54.0915L77.6834 54.346L77.6377 54.5141L77.9445 54.7214L77.4076 55.18L77.3407 55.4199L77.7389 55.5162L77.7029 55.7218L77.3488 56.0792L77.8613 56.3615L77.7748 56.6504L77.5251 56.4855V56.9882L77.3863 57.3635L77.5985 57.4386L77.8074 57.987L77.6311 58.2676L77.0567 57.7226L77.3096 57.5202L77.1448 57.326L76.8804 57.4353L76.7483 57.2411L76.3713 57.1922L75.898 57.3276L75.521 57.5839L75.2077 57.4239L74.94 57.5512L74.8274 57.9005L75.082 58.1273L74.7018 58.3525L74.3313 59.0135L74.1844 59.4557L74.062 60.5801L74.16 61.1742Z" fill="#00212E"/>
<path d="M68.2161 41.6332L68.7139 41.7067L68.7922 41.4407L69.0256 41.3346L69.2573 41.5826L69.7045 41.5435L69.9509 41.6267L70.3605 41.5108L70.6184 41.5647L70.7718 41.2611L71.17 41.2269L71.2499 41.4831H71.4931L71.8407 41.8454L72.1459 41.5892L72.4625 41.8454L73.2132 41.4521L73.427 41.4815L73.4988 41.1534L73.8252 41.1094L73.8235 41.723L74.4698 41.6512L74.5546 42.2126L74.429 42.2925L74.2756 42.9551L74.3213 43.0628L74.0161 43.3027L73.8235 43.9278L73.8464 44.2623L73.6881 44.4027L73.7109 45.4798L73.8676 45.8959L73.5412 45.891L73.2948 46.0281L73.3144 46.3529L73.6554 46.552L73.4058 46.9991L73.5281 47.7286L73.3715 48.0893L72.9619 48.4532L73.0418 48.5968L72.5522 49.5466L72.7872 50.4344L73.2882 50.8979L73.1854 51.2194L73.3829 51.2863L73.1153 51.6992L73.1136 52.0631L73.4514 52.2981L73.2115 52.7175L73.236 53.0668L73.0222 53.1206L72.5245 53.5972L71.9092 53.6526L71.374 53.354L71.1977 52.8073L70.8762 52.7828L70.7701 52.5478L70.4421 52.6294L69.507 52.3438L69.0517 52.0745L68.9897 51.7171L68.58 51.9309L67.8195 51.8069L68.0252 51.3581L67.9566 51.0774L68.1818 50.4915L68.394 50.4589L68.6796 49.731L68.9227 48.4565L68.9766 47.7939L68.9505 47.1917L68.7416 46.3545L68.3222 45.86L68.474 45.6136L68.6975 45.6854L68.8787 45.9547L69.037 44.6671L68.9325 44.4418L68.6094 44.3097L68.3091 44.6883L68.1263 45.3166L68.2912 45.4439L68.2667 45.829L68.0399 45.7425L67.7135 45.8649L67.7641 46.1228L67.0574 46.0102L66.8338 45.5353L66.7686 45.142L67.0068 45.1077L67.3936 45.3198L67.7722 45.1273L68.0448 44.8123L68.3059 44.3341L68.5474 43.6063L68.7285 42.6956L68.7383 42.1865L68.2161 41.6332Z" fill="#00212E"/>
<path d="M70.2887 60.5539L70.1974 61.0745L70.2104 61.6848L70.3769 61.8088L69.9721 62.2984L69.5788 62.2201L69.2231 62.3556L68.9081 62.0504L68.5344 62.1891L68.2423 61.6783L67.9502 61.8088L67.7674 61.6897L67.4818 61.866L67.2925 61.6603L67.0526 61.7158L66.9171 61.4808L66.5826 61.4237L66.3835 61.0728L66.5614 60.1083L66.7719 59.9533L66.6642 59.7216L66.767 59.4735L66.718 59.0753L66.8763 58.8256L67.3545 58.8909L67.7706 58.6314L68.0073 58.1467L67.658 57.773L67.0999 57.6261L66.8584 57.2818L66.9775 56.6747L66.4569 56.4887L65.9069 56.1982L65.8955 56.0954L66.2627 55.2582L66.7898 54.7996L67.0803 54.4487L67.3006 53.8906L67.5112 53.0077L67.6629 52.7857L67.8734 51.9828L67.8196 51.8066L68.5801 51.9306L68.9897 51.7168L69.0517 52.0742L69.507 52.3435L70.4422 52.6291L70.7702 52.5475L70.8763 52.7825L71.1978 52.8069L71.374 53.3537L71.9093 53.6523L72.1622 54.0685L72.2194 54.3932L72.4707 54.5287L72.2651 54.8632L72.3303 55.1602L72.1998 55.5095L71.8571 55.5845L72.0349 55.9158L71.9289 56.2749L72.2504 56.8869L72.0643 57.3732L71.7689 57.6506L71.782 57.9036L71.4621 58.3067L71.4132 58.6167L71.485 58.9888L71.1488 59.4702L71.0917 59.7803L70.7914 59.9484L70.2708 59.9517L70.2887 60.5539Z" fill="#00212E"/>
<path d="M73.3322 68.9479L72.8639 68.8402L72.291 68.6296L72.154 68.8548L71.8161 69.0034L71.449 69.4342L70.9006 69.1307L70.7978 68.7765L70.5497 68.7014L70.3213 68.3897L70.1532 68.3816L70.0553 67.9214L69.8039 67.6766L69.7762 67.4448L69.2295 67.0026L68.3841 66.761L67.8162 66.8067L67.5975 66.9389L67.542 67.2131L66.6934 67.4775L65.8366 68.0503L65.4254 68.1237L65.2116 68.4354L64.926 68.5676L64.0692 68.2983L64.1737 67.5264L64.048 67.1038L64.1541 66.7137L64.0121 66.4314L63.627 66.1376L63.9223 65.7117L64.0252 64.9969L63.8195 64.8255L63.9925 64.5465L64.3352 64.5318L64.8118 64.3849L65.068 64.4143L65.1153 64.096L65.3797 64.0357L65.9917 64.1271L66.0504 63.5608L65.9345 63.0255L66.3964 62.7089L66.5727 62.2372L67.0524 61.7166L67.2923 61.6612L67.4816 61.8668L67.7672 61.6905L67.95 61.8097L68.2421 61.6791L68.5343 62.1899L68.908 62.0512L69.223 62.3564L69.5787 62.2209L69.972 62.2993L70.3768 61.8097L70.2103 61.6856L70.1972 61.0753L70.2886 60.5547L70.7097 60.7571L71.0524 60.5824L71.3984 60.793L71.5828 61.1357L72.3106 61.0443L72.73 61.2695L72.6746 61.6171L72.9504 61.9973L73.3078 61.8684L73.7402 61.8635L73.7304 61.2026L74.1596 61.1748L74.2755 61.5649L74.4909 61.6954L74.5056 62.0855L74.6378 62.3156L74.7243 63.6097L74.8059 64.1499V65.1568L74.7243 65.4473L74.5578 66.8655L74.3277 68.1058L73.8088 68.4664L73.533 68.5366L73.3322 68.9479Z" fill="#00212E"/>
<path d="M73.7974 77.386L73.0401 76.9193L72.8345 76.5456L72.3302 76.3742L71.9859 76.0788L71.7101 76.0902L71.3821 75.9319L70.7734 76.0902L70.5122 76.3399L70.2691 76.2714L69.52 76.4836L69.3438 76.2649L68.5996 76.0038L68.2308 75.741L67.8407 75.2204L67.2826 74.6231L67.0459 74.6998L66.7832 74.1025L66.8354 73.8316L67.0574 73.812L67.5551 73.5493L67.7232 73.0336L68.0659 73.1184L68.1035 72.8508L68.611 72.6093L69.2181 72.4216L69.3438 72.2796L69.7224 72.3906L69.8301 71.9744L70.1091 71.4098L70.1026 70.8582L69.9313 70.2641L70.3033 70.083L70.1418 69.6815L70.2103 69.2866L70.1271 68.9863L70.1532 68.3809L70.3213 68.389L70.5498 68.7007L70.7978 68.7758L70.9006 69.1299L71.449 69.4335L71.8162 69.0026L72.154 68.8541L72.2911 68.6289L72.8639 68.8394L73.3323 68.9472L73.3437 68.952L73.3518 68.9569L73.0646 69.4955L72.7072 70.7113L72.4967 71.0671L72.2617 71.7574L72.2421 72.3204L72.3107 72.6321L71.9353 73.1707L71.963 73.6782L72.2323 74.6753L72.6158 75.5631L73.0124 76.2045L73.0434 76.3481L73.5363 77.1053L73.7974 77.386Z" fill="#00212E"/>
<path d="M70.1533 68.3813L70.1272 68.9867L70.2104 69.287L70.1419 69.682L70.3035 70.0834L69.9314 70.2646L70.1027 70.8586L70.1093 71.4102L69.8302 71.9749L69.7225 72.391L69.3439 72.28L69.2182 72.422L68.6111 72.6097L68.1036 72.8512L68.066 73.1189L67.7233 73.034L67.5552 73.5497L67.0575 73.8125L66.8356 73.832L66.581 73.7064L66.3394 73.3065L66.0016 73.3637L65.7862 73.2331L65.4826 73.3212L65.1448 73.0242L65.1579 72.8496L64.8364 72.6097L64.825 72.4514L65.1024 71.9732L65.153 71.6158L65.5251 71.0528L65.419 70.8472L65.0485 70.8651L64.603 70.6415L64.6569 70.2238L64.8364 69.9545L64.7515 69.5987L65.06 69.1695L64.7499 69.0357L64.9262 68.5673L65.2117 68.4351L65.4255 68.1234L65.8368 68.05L66.6936 67.4772L67.5422 67.2128L67.5977 66.9386L67.8164 66.8064L68.3843 66.7607L69.2296 67.0023L69.7763 67.4445L69.8041 67.6763L70.0554 67.9211L70.1533 68.3813Z" fill="#00212E"/>
<path d="M66.5808 73.7064L66.3393 73.9381L66.1826 73.7912L65.8334 73.912L65.4123 73.9398L64.8624 73.5301L64.6029 73.5938L64.1264 73.553L63.6123 73.2919L63.4018 73.2755L63.0297 73.8745L62.8959 74.3885L62.4324 74.4098L62.23 74.6888L61.8302 74.7704L61.5544 75.0772L61.179 75.0838L60.9522 75.3889L60.5507 75.2013L60.536 74.5583L60.443 74.0001L60.2553 73.2804L60.5116 73.1662L60.5883 72.6244L60.5018 72.2735L60.2504 72.1984L59.9045 72.3502L59.4426 72.3453L59.0656 72.1201L59.0444 71.7268L59.2239 70.919L59.9224 70.1193L60.2831 70.0851L60.8184 69.8174L61.0044 69.6771L61.3667 69.8109L61.6278 69.4551L62.1468 68.9884L62.2366 68.6995L62.4911 68.7322L62.4389 68.068L62.9334 67.9815L63.1831 67.7595L63.2826 67.4902L63.6857 67.9423L63.7184 68.1724L64.0692 68.2981L64.926 68.5673L64.7498 69.0357L65.0598 69.1695L64.7514 69.5987L64.8363 69.9545L64.6567 70.2238L64.6029 70.6416L65.0484 70.8651L65.4189 70.8472L65.5249 71.0528L65.1529 71.6158L65.1023 71.9732L64.8248 72.4514L64.8363 72.6097L65.1578 72.8496L65.1447 73.0242L65.4825 73.3212L65.7861 73.2331L66.0015 73.3637L66.3393 73.3065L66.5808 73.7064Z" fill="#00212E"/>
<path d="M68.2815 77.7531L68.1754 77.5198L67.8506 76.8327L68.022 76.3464L67.5145 75.3656L67.4981 75.0506L67.2827 74.623L67.8409 75.2203L68.2309 75.7409L68.5997 76.0037L69.3439 76.2648L69.5201 76.4835L70.2692 76.2713L70.5124 76.3399L70.7735 76.0902L71.3822 75.9319L71.7102 76.0902L71.986 76.0788L72.3304 76.3741L72.8347 76.5455L73.0403 76.9192L73.7975 77.386L73.0778 77.5785L72.8347 77.5116L72.3467 77.7156L71.7837 78.2003L71.361 78.6768L71.0232 79.3362L70.9318 79.7784L70.9612 80.2239L71.077 80.4181L70.8926 81.2847L70.6886 81.3271L70.5466 81.6372L69.9967 81.7661L69.3504 81.7825L69.104 82.1154L68.5083 82.5299L68.2472 83.2594L67.9306 83.3899L67.663 83.3671L67.521 83.106L67.1587 82.9591L67.6972 82.7584L67.7185 82.4809L67.5161 82.1725L67.5145 81.2717L67.7952 81.0546L67.7021 80.5503L67.4753 80.41L67.6793 79.909L67.9681 80.0363L67.9943 79.674L68.1216 79.4324L68.5508 79.3003L68.9571 78.6785L69.1399 78.5185L69.0877 78.2803L68.4904 77.6634L68.2815 77.7531Z" fill="#00212E"/>
<path d="M50.9873 68.1922L50.6104 68.1612L50.2595 68.3048L50.0098 68.5529L49.9869 68.8433L49.8042 69.2823L49.7829 69.7197L49.6165 69.9172L49.6377 70.3529L49.406 70.7283L49.6018 71.2472L49.375 72.1481L49.512 72.7209L49.4582 73.1191L49.778 73.545L49.5039 73.9726L49.3097 74.126L49.3766 74.3496L49.2248 74.6825L48.652 74.8294L48.5786 74.6401L48.0172 74.1945L47.3432 74.3088L47.1457 74.077L46.7459 74.0003L46.6708 73.6217L46.1616 73.137L46.4945 72.7111L46.7736 72.6132L47.2012 72.2003L48.5573 70.366L48.8886 69.767L49.1514 69.1665L49.2917 68.6116L49.3048 67.9099L49.0176 67.4578L49.0551 66.9388L48.7058 66.7838L48.8903 66.0723L49.011 65.9662V65.4587L49.5512 64.987L49.8939 64.832L50.235 64.9168L51.1146 64.4664L51.5389 64.1417L51.9241 64.0911L52.3239 63.874L52.6356 63.9116L52.8298 64.5056L52.3419 64.579L52.1819 64.6884L52.0971 65.0458L52.2766 65.3656L52.0759 65.6627L51.5357 65.648L51.2648 65.7997L51.0918 66.2518L50.7409 66.5129L50.5712 66.3497L50.217 66.2795L49.9233 66.7985L49.8792 67.0939L50.1746 67.1983L50.5173 67.5345L50.9743 67.1282L50.9873 68.1922Z" fill="#00212E"/>
<path d="M46.162 73.1367L46.6712 73.6214L46.7463 74L47.1461 74.0767L47.3436 74.3085L48.0176 74.1942L48.579 74.6398L48.6524 74.8291L49.2252 74.6822L49.0653 75.366L49.2008 75.6401L49.5973 76.0351L49.6871 76.4055L49.4456 76.7825L49.0392 76.7744L48.9396 76.8772L48.1286 76.9816L47.8805 76.9163L47.2995 76.9996L47.0025 76.8576L46.6712 77.0159L46.6679 77.3129L46.3693 77.8123L45.6202 77.5675V77.8661L45.7769 78.3084L45.7345 78.5353L45.3999 78.4373L45.2955 78.7621L44.9038 78.8029L44.6264 79.0983L44.393 78.8633L44.2559 79.126L44.189 79.5307L43.905 79.7902L43.5999 79.6678L43.3355 80.0758L42.921 80.1558L42.464 79.9746L41.9402 79.9175L41.8994 79.6531L41.5028 79.2827L41.5909 78.9775L41.4326 78.8502L41.5566 78.5761L41.8227 78.6299L41.759 78.9596L41.9206 79.0754L42.5946 79.1538L42.9977 79.1211L43.2164 78.7703L43.7141 78.718L43.8528 78.3443L44.5513 78.0832L44.5643 77.5642L44.4322 77.3586L44.8091 77.0567L44.9283 77.2395L44.8581 77.6736L45.1486 77.8041L45.2938 77.3407L45.3004 76.9522L45.129 76.6079L44.6688 76.1461L44.6933 75.8099L44.4534 75.4492L44.7732 75.0624L44.8777 74.6088L45.1323 74.3264L45.5142 73.6704L46.162 73.1367Z" fill="#00212E"/>
<path d="M38.3773 87.7442L38.4442 87.9759L37.8208 88.2321L37.5238 88.4802L37.1191 88.5389L36.6588 87.8013L36.8612 87.5092L37.1207 87.5108L37.5221 86.6524L37.7686 86.5153L38.0574 86.0567L38.3447 85.9262L38.578 85.5851L38.8799 85.7483L38.6498 86.202L38.1113 86.9119L38.108 87.3802L38.3773 87.7442ZM34.8327 84.5782L34.6678 84.1604L34.2876 83.723L34.5014 83.3264L34.2958 83.067L34.6662 82.3473L34.6858 82.0649L34.8637 81.9882L34.9371 81.6553L35.2146 81.5982L35.0611 81.2343L35.1803 80.9177L35.3549 80.996L35.8526 80.6468L35.8086 80.0707L35.6209 79.9385L35.6242 79.5403L35.4022 79.4375L35.3141 78.7145L35.1721 78.3228L34.9632 78.1662L35.6095 77.9654L35.9783 77.7402L36.3422 77.8333L36.4695 77.9752L36.7192 77.7712L37.6609 77.8447L37.9579 77.8267L37.9644 78.442L38.5062 78.925L38.9093 78.7259L39.0072 78.8891V79.6888L38.7298 79.8471L38.5111 79.6921L38.312 79.7639L38.2777 80.3693L38.7298 80.5554L39.2112 80.8899L39.363 80.7594L39.6714 80.7659L39.833 81.1004L39.864 81.4219L40.4727 81.417L40.4874 81.6406L41.039 81.7353L41.1369 81.9899L40.9623 82.3456L40.8171 82.9038L40.9036 83.0082L41.5351 83.1926L41.2675 83.7556L41.2447 84.0445L41.4682 84.4215L41.5139 84.8556L41.3491 85.2244L41.1826 84.8246L40.9052 84.9225L40.7779 84.7381L40.4842 84.6989L39.9374 84.9454L39.8526 85.1934L39.0709 85.3876L38.8359 85.2473L37.7784 84.8638L37.2725 84.3627L36.8808 84.4019L36.4859 84.335L35.5312 84.3693L35.1999 84.6434L34.8327 84.5782Z" fill="#00212E"/>
<path d="M30.3514 89.6048L30.921 89.8284L30.8329 90.034L30.9161 90.5007L30.7447 90.7765L30.0642 90.788L29.7705 91.1535L29.1438 91.1747L28.4551 91.1421L28.3311 91.4163L27.9557 91.4081L27.7583 91.8569L27.4466 92.3857L27.2605 92.415L27.0745 92.9764L27.1724 93.2212L26.8884 93.6537L26.5245 93.7565L25.8668 93.6782L25.7509 93.9001L25.7983 94.1857L26.1899 94.6198L26.1769 94.8613L25.5682 95.1274L25.4197 95.6333L24.9252 96.1261L24.6379 95.847L24.5825 96.1424L24.8142 96.4035L24.7538 96.6842L24.9089 97.0661L24.904 97.4692L24.7652 97.6161L24.385 97.6879L24.2365 97.448L23.9591 97.5427L23.9003 97.7499L23.6359 97.7336L23.5625 97.5068L23.7028 96.9796L23.618 96.4884L23.7942 96.1881L23.5086 96.1261L23.3487 95.9564L23.8889 95.5272L23.7469 94.7438L23.3258 94.9038L23.0615 94.6557L23.0729 94.0927L23.2932 93.9018L22.9228 93.5819L22.2308 94.0258L21.8979 94.127L21.5829 94.468L21.374 94.2983L21.5389 94.0633L21.893 93.8593L22.394 93.7271L23.3356 93.1527L23.6522 92.6974L24.3132 92.3873L24.7473 92.038L24.9953 91.617L24.9219 91.0964L25.0574 90.5774L25.3185 90.5432L25.4409 89.9818L25.9762 89.4726L26.314 89.422L26.438 88.8818L26.9602 89.5754L27.3339 90.3392L27.4857 90.4501L28.3033 90.2184L28.2674 90.0797L28.819 89.954L29.1438 89.9622L29.7166 90.1238L30.0756 89.9491L30.3514 89.6048Z" fill="#00212E"/>
<path d="M15.9299 92.7841L15.974 93.1399L15.7341 93.481L15.0209 93.3912L14.7402 93.463L14.2539 93.8841L14.1608 94.3867L13.9601 94.687L14.0466 94.9742L13.8475 95.25L13.9128 95.6107L14.1494 95.7559L14.0205 96.2553L13.9144 96.3304L13.4509 96.1721L13.2486 95.9877L12.8618 96.0317L12.7949 96.3157L12.3412 96.2618L11.85 96.7172L11.9446 96.9717L11.6672 97.0697L11.2576 97.0191L11.4028 96.6845L11.3049 96.4414L10.9785 96.0187L11.0307 95.6433L11.2086 95.3284L12.0785 94.6413L12.085 93.9559L11.7374 93.9673L11.4355 94.2562L11.2462 94.0391L11.0144 93.9885L10.4971 93.6621L9.98955 93.7437L9.08545 93.7258L9.13277 93.5169L9.62073 93.419L9.78393 93.2248L9.66806 93.0142L9.79698 92.5769L10.28 92.4218L10.2572 92.6634L10.9328 92.8135L11.2462 92.665L11.6754 91.5487L11.5383 91.441L11.7619 90.971L11.9952 90.6969L12.3069 90.7784L12.8275 90.6234L13.043 90.3395L13.3775 90.4765L13.513 90.3721L14.0564 90.4929L14.187 90.6707L14.4122 90.5859L14.5101 90.3509L14.861 90.1191L14.9654 90.3166L14.7647 90.625L14.8153 90.9172L14.577 91.1309L14.9393 91.5716L15.0095 91.9992L15.4321 92.6405L15.6035 92.554L15.9299 92.7841Z" fill="#00212E"/>
<path d="M22.2096 88.2601L21.72 88.2225L21.5683 87.777L21.5927 87.5844L21.3137 87.3462L21.2011 86.4796L21.0542 86.2886L21.1456 86.0944L21.516 85.835L21.5797 85.2932L21.7902 84.9798L21.6238 84.8786L21.8816 84.6045L22.097 84.5327L22.3255 84.0822L23.2084 84.2536L23.5397 84.1279L24.0342 84.1687L24.4797 83.8456L25.0133 83.8015L25.0101 83.5372L24.6967 83.405L24.9448 83.0264L25.3071 82.948L25.7689 82.2316L26.0349 81.9346L26.5033 82.1255L26.7416 81.9378L27.0386 82.1794L27.4678 82.0504L27.6441 82.119L28.2822 82.1027L28.4094 82.2544L28.7146 82.6265L28.5743 82.9937L28.5726 83.48L29.0573 84.0888L28.9692 84.4298L29.0932 85.0076L29.09 85.4286L29.4588 85.9329L29.4947 86.4616L29.3593 86.8386L29.0916 86.8664L29.0769 87.1422L28.8484 87.1748L28.2495 87.0834L28.3964 86.7766L27.551 87.1389L27.3258 87.1128L27.2557 87.4098L26.8754 87.5306L26.487 87.4653L26.1394 87.5453L25.8669 87.7982L25.5764 87.6497L25.3512 88.1654L25.0003 88.1899L24.6053 88.4477L24.3083 88.3743L23.9297 88.7676L24.008 89.2148L23.5413 89.2947L23.4858 89.1136L23.8318 88.9226L23.7992 88.593L23.9575 88.4592L23.9819 88.1621L23.7649 87.6334L23.8122 87.3396L23.4156 87.1422L22.8902 87.3331L22.4038 87.9239L22.2096 88.2601Z" fill="#00212E"/>
<path d="M35.4106 88.4067L35.2343 88.7674L34.3253 88.6026L33.808 88.6581L33.5828 88.8343L33.5028 89.0677L33.1258 89.1085L32.9349 89.301L32.6264 89.3859L32.367 89.0889L31.4547 89.3484L30.921 89.8282L30.3515 89.6046L30.5587 89.4512L30.6583 88.5128L30.1997 88.1456L30.3139 88.0183L30.7954 88.2631L30.9618 88.2109L31.6081 87.6348L32.0716 87.4292L32.1254 87.1387L32.757 87.3525L33.2449 87.3753L33.5697 87.0098L33.7313 87.124L33.7296 87.5304L34.0136 87.4014L34.3498 87.47L34.2845 87.8355L34.9944 88.0869L35.4106 88.4067Z" fill="#00212E"/>
<path d="M62.1436 79.7381L62.266 79.3937L63.1635 78.9139L63.4148 78.5435L63.3692 77.8336L63.4214 77.7471L63.9289 77.9462L64.1084 78.2465L64.3696 78.1975L65.0289 78.4145L65.5299 78.9825L65.5625 78.2481L65.7926 77.9723L66.6053 78.3574L66.8501 78.7491L67.0623 78.6887L67.1879 78.9107L66.7375 79.1489L66.7441 79.4443L66.4911 79.8588L66.5711 80.2619L66.4683 80.4741L66.7587 80.7107H66.9937L66.9529 81.1057L66.5401 81.2982L66.6673 81.636L66.261 81.6279L66.3051 81.2672L66.0293 80.5084L65.2606 80.319L64.1166 80.5132L63.5226 80.9049L63.4361 81.3309L63.2794 81.6475L62.8192 81.5838L62.5695 81.2117L62.4961 80.7499L62.7523 80.2668L62.6021 79.7283L62.1436 79.7381Z" fill="#00212E"/>
<path d="M64.9721 84.9338L64.7665 84.813L64.7061 84.2647L64.7763 84.1145L65.1484 84.2451L65.305 84.5258L65.2561 84.9827L64.9721 84.9338ZM67.265 96.3673L67.0333 96.0866L67.2487 95.9332L67.5571 96.2253L67.7334 96.5158L67.5278 96.6627L67.265 96.3673ZM67.265 96.3673L67.5278 96.6627L67.7334 96.5158L67.5571 96.2253L67.2487 95.9332L67.0333 96.0866L67.265 96.3673ZM64.3324 86.8072L64.2704 87.4192L64.0827 87.3833L64.1545 86.9998L64.3324 86.8072ZM66.8505 78.7486L66.6057 78.3569L65.793 77.9718L65.5629 78.2476L65.5303 78.982L65.0292 78.4141L64.3699 78.197L64.1088 78.246L63.9293 77.9457L63.4218 77.7466L62.7837 77.3941L62.5846 77.0987L62.4622 76.632L62.3071 76.4084L62.3642 76.2729L62.782 76.0967L62.9958 76.2599L63.4985 76.348L63.8102 76.5177L64.3259 76.5243L64.5723 76.8262L64.9689 77.0563L65.3475 77.0465L65.8305 76.8196L65.9138 77.084L66.467 76.8506L66.751 76.8033L67.1002 76.911L67.1557 76.7234L67.5686 76.8539L67.8509 76.8327L68.1757 77.5198L68.2817 77.7531L68.2328 77.9653L67.9831 78.1399L67.3891 77.9947L67.1769 77.8445L67.0855 78.3178L67.1328 78.6589L66.8505 78.7486Z" fill="#00212E"/>
<path d="M65.9068 56.1982L66.4568 56.4887L66.9774 56.6748L66.8582 57.2819L67.0998 57.6262L67.6579 57.7731L68.0071 58.1468L67.7705 58.6315L67.3543 58.891L66.8762 58.8257L66.7179 59.0754L66.7668 59.4736L66.664 59.7217L66.7717 59.9534L66.5612 60.1084L66.3833 61.0729L66.5824 61.4238L66.917 61.4809L67.0524 61.7159L66.5726 62.2365L66.3964 62.7081L65.9345 63.0247L66.0504 63.56L65.9917 64.1263L65.3797 64.0349L65.1153 64.0953L65.068 64.4135L64.8117 64.3842L64.3352 64.531L63.9925 64.5457L63.8195 64.8248L64.0251 64.9962L63.9223 65.711L63.6269 66.1369L64.0121 66.4306L64.1541 66.713L64.048 67.103L64.1737 67.5257L64.0692 68.2976L63.7183 68.172L63.6857 67.9418L63.2826 67.4898L63.183 67.7591L62.9334 67.981L62.4389 68.0675L62.4911 68.7317L62.2365 68.6991L62.1468 68.9879L61.6278 69.4547L61.3667 69.8104L61.0044 69.6766L60.8183 69.817L60.6682 69.5967L60.8265 69.3372L60.7971 68.9765L60.3826 68.7448L60.1509 68.4396L60.177 68.0365L60.0497 67.7493L59.8033 67.6807L59.0248 67.9272L58.8045 68.4037L58.4438 68.5669L58.4079 69.0157L57.9461 68.8721L57.6393 69.0712L57.2639 69.0793L56.9816 69.4008L56.6944 69.1919L56.8559 68.7236L56.7499 68.6273L56.1852 68.5081L55.8784 68.5359L55.9029 68.9275L55.6662 69.3257L55.2517 69.6456L54.9547 68.717L54.9465 68.3531L54.6985 68.2764L54.4863 68.0316L56.1281 67.4278L56.6764 67.0214L56.9375 66.93L57.215 66.5938L57.5511 66.6771L57.92 66.6216L58.4814 66.2495L59.2582 65.4449L59.8979 65.1251L60.6535 63.8766L60.9081 63.6987L61.2524 62.979L61.3438 62.4699L61.5315 61.9362L61.8073 61.6033L63.0411 60.7106L63.7624 60.518L64.2781 60.1819L64.8069 59.609L65.1822 59.002L65.3079 58.5173L65.347 57.3374L65.9068 56.1982ZM59.4328 59.0836L59.2549 59.4654L59.312 59.7902L59.5242 59.8816L59.849 59.7331L60.0791 59.88L59.6596 60.7743L59.6401 60.9587L58.8078 61.6376L58.4765 61.6539L58.2121 61.5446L58.3818 61.2214L58.3133 61.0615L58.6886 60.6584L58.5254 60.3369L58.2872 60.3402L58.0456 60.5523L58.0407 59.8865L58.3867 59.3316L58.5989 58.8486L59.2565 58.3753L59.2892 58.1419L59.7266 57.8269L59.5944 58.8045L59.4328 59.0836Z" fill="#00212E"/>
<path d="M54.4863 68.0322L54.6985 68.277L54.9465 68.3537L54.9547 68.7177L55.2517 69.6462L55.1831 69.9841L55.2419 70.3725L55.1897 70.9192L54.8339 71.133L54.5956 71.7172L54.4749 72.1937L54.2023 72.4548L53.92 72.4336L53.7552 72.2362L53.4467 72.2851L53.1073 72.179L53.0208 71.9424L52.6128 72.1872L52.3566 71.8902L51.9143 72.0991L51.5553 72.0403L51.0412 72.5887L50.9662 72.9395L50.5451 73.3084L50.4178 72.8286L49.9543 72.6017L49.7226 72.7714L49.6361 73.0946L49.4582 73.1191L49.5121 72.7209L49.375 72.148L49.6018 71.2472L49.406 70.7282L49.6377 70.3529L49.6165 69.9171L49.783 69.7197L49.8042 69.2823L49.987 68.8433L50.0098 68.5528L50.2595 68.3048L50.6104 68.1612L50.9874 68.1922L50.5908 68.8025L50.7491 69.1338L51.224 69.5157L51.7838 69.7017L52.0808 69.6316L52.6683 69.6593L53.0241 69.3215L53.1318 69.0147L53.122 68.6442L53.2362 68.4288L53.6409 68.2117L54.4863 68.0322Z" fill="#00212E"/>
<path d="M63.4217 77.7471L63.3695 77.8336L63.4152 78.5435L63.1639 78.9139L62.2663 79.3937L62.1439 79.7381L61.9432 79.8572L60.7665 80.0612L60.6327 79.7658L60.321 79.8017L60.1464 79.4182L59.8477 79.694L59.864 80.2179L59.7302 80.4023L59.8526 81.2134L59.6339 81.4027L59.2602 81.3668L59.0497 81.215L58.8408 80.3974L58.6107 80.2848L58.379 80.4447L58.2027 80.3533L58.0754 79.8947L58.2125 79.6092L58.1439 79.286L58.2598 78.927L58.0444 78.0261L57.9742 77.9592L57.7539 77.4191L58.0558 77.0829L57.7898 76.8201L58.0852 76.2228L58.3626 76.3746L58.8979 75.5488L59.2178 75.65L59.474 76.0923L59.6878 75.9405L60.2198 75.9487L60.3177 76.2718L60.6768 76.293L61.0211 76.009L61.3279 76.0792L61.4177 76.2734L61.7685 76.3338L61.9791 76.4954L62.3071 76.4089L62.4621 76.6325L62.5845 77.0992L62.7836 77.3946L63.4217 77.7471Z" fill="#00212E"/>
<path d="M61.0212 76.0089L61.0816 75.849L60.9526 75.3888L61.1795 75.0836L61.5548 75.0771L61.8306 74.7703L62.2305 74.6887L62.4328 74.4096L62.8963 74.3884L63.0301 73.8743L63.4022 73.2754L63.6127 73.2917L64.1268 73.5528L64.6033 73.5936L64.8628 73.53L65.4128 73.9396L65.8338 73.9119L66.1831 73.7911L66.3397 73.938L66.5813 73.7062L66.8359 73.8319L66.7836 74.1028L67.0464 74.7001L67.283 74.6234L67.4984 75.051L67.5147 75.3659L68.0223 76.3467L67.8509 76.8331L67.5686 76.8543L67.1557 76.7237L67.1002 76.9114L66.751 76.8037L66.467 76.851L65.9138 77.0844L65.8306 76.82L65.3475 77.0469L64.9689 77.0566L64.5723 76.8265L64.3259 76.5246L63.8102 76.5181L63.4985 76.3484L62.9958 76.2603L62.7821 76.0971L62.3643 76.2733L62.3072 76.4088L61.9791 76.4953L61.7686 76.3337L61.4177 76.2733L61.328 76.0791L61.0212 76.0089Z" fill="#00212E"/>
<path d="M54.0523 80.5764L54.3037 80.2174L54.2253 79.8274L54.4881 79.7409L54.2825 79.3704L54.4685 79.2317V78.9526L54.2971 78.7894L54.0344 78.8971L53.8794 78.716L53.9006 78.3847L53.7798 78.1579L53.9136 77.8559L53.6754 77.6438L53.4338 77.0987L52.7288 76.8278L52.6733 76.5455L52.8545 76.4671L52.9589 76.144L53.3082 76.0396L53.535 76.1179L53.9397 75.4863L54.2417 75.253L54.3608 74.7748L54.0034 74.548L54.0067 74.3015L54.2351 74.0845L54.1323 73.7597L54.4473 73.2897L54.5827 72.9699L54.2025 72.4542L54.475 72.193L54.5958 71.7165L54.8341 71.1323L55.1898 70.9185L55.242 70.3718L55.1833 69.9834L55.2518 69.6455L55.6664 69.3257L55.903 68.9275L55.8785 68.5358L56.1853 68.5081L56.75 68.6272L56.8561 68.7235L56.6945 69.1919L56.9817 69.4008L57.264 69.0793L57.6394 69.0711L57.9462 68.872L58.4081 69.0156L58.444 68.5668L58.8046 68.4036L59.0249 67.9271L59.8034 67.6807L60.0498 67.7492L60.1771 68.0364L60.151 68.4395L60.3827 68.7447L60.7973 68.9764L60.8266 69.3371L60.6683 69.5966L60.8185 69.8169L60.2832 70.0845L59.9225 70.1188L59.224 70.9185L59.0445 71.7263L59.0657 72.1196L59.4427 72.3448L59.9046 72.3497L60.2505 72.1979L60.5019 72.273L60.5884 72.6239L60.5117 73.1657L60.2554 73.2799L60.4431 73.9996L60.5361 74.5577L60.5508 75.2007L60.9523 75.3884L61.0812 75.8486L61.0208 76.0086L60.6765 76.2925L60.3175 76.2713L60.2195 75.9482L59.6875 75.94L59.4737 76.0918L59.2175 75.6495L58.8976 75.5484L58.3624 76.3741L58.0849 76.2224L57.7895 76.8197L58.0556 77.0824L57.7536 77.4186L57.974 77.9588L57.7961 78.4565L57.5186 78.6115L57.6247 79.1028L57.3962 79.5434L57.5578 79.7458L57.5154 79.9661L57.016 80.157L56.4432 80.6025L56.0433 80.7935L55.903 81.0791L55.5799 81.1101L55.3236 81.1917L55.0054 80.9909L54.6578 81.0138L54.147 81.2292L53.9561 80.8278L54.0523 80.5764Z" fill="#00212E"/>
<path d="M47.1998 81.0858L47.0807 80.8083L47.1835 80.3693L47.1949 79.9597L47.3646 79.8242L47.2014 79.568L47.2292 79.2629L47.0383 79.067L46.9975 78.7374L46.6123 78.646L46.6482 78.1564L46.4507 78.1352L46.3691 77.812L46.6678 77.3127L46.6711 77.0156L47.0023 76.8573L47.2994 76.9993L47.8803 76.9161L48.1284 76.9814L48.9395 76.8769L49.039 76.7741L49.4454 76.7823L49.6869 76.4053L49.5972 76.0348L49.2006 75.6399L49.0651 75.3657L49.2251 74.6819L49.3769 74.349L49.3099 74.1254L49.5041 73.972L49.7783 73.5445L49.4585 73.1185L49.6363 73.094L49.7228 72.7709L49.9546 72.6012L50.418 72.828L50.5453 73.3078L50.9664 72.939L51.0414 72.5881L51.5555 72.0398L51.9146 72.0985L52.3568 71.8896L52.613 72.1867L53.021 71.9419L53.1075 72.1785L53.447 72.2846L53.7554 72.2356L53.9202 72.4331L54.2026 72.4543L54.5828 72.97L54.4474 73.2899L54.1324 73.7599L54.2352 74.0846L54.0067 74.3017L54.0035 74.5481L54.3609 74.775L54.2417 75.2531L53.9398 75.4865L53.5351 76.1181L53.3082 76.0397L52.959 76.1442L52.8546 76.4673L52.6734 76.5456L52.7289 76.828L53.4339 77.0989L53.6754 77.6439L53.9137 77.8561L53.7799 78.158L53.9006 78.3849L53.8794 78.7161L54.0345 78.8973L54.2972 78.7896L54.4686 78.9528V79.2318L54.2825 79.3706L54.4882 79.741L54.2254 79.8275L54.3037 80.2176L54.0524 80.5766L53.287 81.027L52.9933 80.7806L52.5331 80.5488L52.3421 80.5521L52.0647 80.7757L51.8068 80.8279L51.7073 80.6451L51.0937 80.4118L50.9811 80.0054L50.5878 79.6806L50.1798 79.9124L49.6755 80.0658L49.2887 80.0185L49.0554 80.5178L48.7779 80.9242L48.711 81.5917L48.3846 81.5541L47.8705 80.7953L47.1998 81.0858Z" fill="#00212E"/>
<path d="M53.5939 85.0205L53.5449 84.3138L53.7212 83.8814L54.5094 83.4718L54.8978 82.8859L54.906 82.5627L55.2666 82.1466L55.6208 81.4922L55.58 81.1103L55.9031 81.0793L56.0435 80.7937L56.4433 80.6028L57.0161 80.1572L57.5155 79.9663L57.5579 79.746L57.3963 79.5436L57.6248 79.103L57.5187 78.6118L57.7962 78.4567L57.9741 77.959L58.0442 78.0259L58.2597 78.9267L58.1438 79.2858L58.2123 79.6089L58.0753 79.8945L58.2025 80.3531L58.3788 80.4445L58.6105 80.2845L58.8406 80.3971L59.0495 81.2147L59.2601 81.3665L59.6338 81.4024L59.8524 81.2131L59.7301 80.402L59.8639 80.2176L59.8476 79.6938L60.1462 79.418L60.3208 79.8015L60.6325 79.7656L60.7664 80.0609L61.943 79.857L62.1437 79.7378L62.6023 79.728L62.7524 80.2666L62.4962 80.7496L62.5697 81.2115L62.8194 81.5836L63.2796 81.6472L63.0788 81.9426L63.0348 82.251L63.2274 82.3277L63.1866 82.7308L63.4999 82.9854L63.464 83.4473L63.211 83.6904L62.9777 84.2159L62.6562 84.4558L62.4587 84.9095L62.0817 85.3322L61.6998 85.559L61.3147 85.2881L61.3261 85.1184L61.065 84.6598L61.282 84.3481L61.1531 83.6235L61.3685 83.3151L61.2037 82.85L61.3522 82.4763L61.9756 82.5252L62.054 82.3082L61.5171 81.8235L60.8153 81.6684L59.983 81.9165L59.7121 82.3947L59.7643 82.7308L59.4689 82.9446L58.8357 83.2367L58.5926 83.6431L58.6464 83.9499L58.4375 84.322L57.9773 84.6729L57.8125 85.0923L57.7994 85.5574L57.114 85.249L56.662 85.1119L56.0386 85.0923L55.4804 85.2294L54.6726 85.0417L54.2352 84.9944L53.5939 85.0205Z" fill="#00212E"/>
<path d="M49.1026 82.4387L48.8089 81.9605L48.7109 81.5917L48.7778 80.9242L49.0553 80.5179L49.2886 80.0185L49.6754 80.0658L50.1797 79.9124L50.5877 79.6807L50.981 80.0054L51.0936 80.4118L51.7072 80.6452L51.8068 80.8279L52.0646 80.7757L52.3421 80.5521L52.533 80.5489L52.9932 80.7806L53.287 81.027L54.0523 80.5766L53.9561 80.8279L54.147 81.2294L54.6578 81.014L55.0054 80.9911L55.3236 81.1919L55.5799 81.1103L55.6207 81.4921L55.2665 82.1466L54.9059 82.5627L54.8977 82.8858L54.5093 83.4717L53.7211 83.8813L53.5448 84.3138L53.5938 85.0204L52.5607 85.262L51.5212 85.6373L50.826 85.6553L51.0675 85.1347L51.2927 85.324L51.4689 85.2799L52.2686 84.8556L52.378 84.6108L52.5885 84.5978L52.6521 84.2502L52.4791 84.0364L51.9667 83.9417L51.7366 84.3628L51.4902 84.1898L50.8423 84.2681L50.2466 83.6414L50.165 84.3154L50.4751 84.5978L50.5208 84.8654L50.01 84.6826L49.7293 84.3628L49.8811 83.8226L49.6216 83.3966L49.6542 82.9511L49.8092 82.6345L49.7179 82.4371L49.4486 82.5448L49.1026 82.4387Z" fill="#00212E"/>
<path d="M44.765 91.9014L44.4565 91.8786L43.8608 91.2274L43.8821 90.6448L44.2166 90.1209L44.5822 90.0034L44.8335 89.664L45.3231 89.7407L45.3916 88.7207L45.279 88.5134L45.4993 88.0989L45.2888 87.7481L45.3704 87.5441L45.1403 87.0724L45.2937 86.7836L45.953 86.6856L46.0705 86.3984L45.984 86.1063L45.7849 86.1863L45.6446 85.8795L45.3965 85.9627L45.0032 85.6853L45.235 85.039L44.9902 84.5625L44.8547 84.1953L45.2611 84.0272L45.2415 83.8705L45.7915 83.5033L46.1962 83.7057L46.9045 83.3613L46.9665 83.0806L47.2064 82.7461L47.2178 82.3267L47.3271 82.0998L47.4332 81.4879L47.1851 81.2496L47.1998 81.0864L47.8706 80.7959L48.3846 81.5548L48.711 81.5923L48.8089 81.9611L49.1027 82.4393L48.5935 82.7102L48.4858 83.0203L48.5642 83.3597L48.2688 83.8999L47.9799 84.2573L47.8102 84.7518L48.0321 85.0406L47.9163 85.447L48.5527 85.633L48.6376 85.837L49.0244 85.9823L49.3508 86.2287L49.7098 86.2369L49.9317 86.6448L50.2304 86.6922L50.2532 86.9174L49.9432 87.2193L50.0329 87.6257L49.8942 88.0141L49.6005 88.0957L49.2741 88.0288L49.2708 87.7921L49.0276 87.7089L48.8432 87.389L48.6441 87.8166L48.3112 88.0418L48.0321 87.8476L47.7253 87.89L47.8102 88.1756L47.5801 88.316L47.2684 88.3144L46.5258 88.5999L46.3577 88.9084L46.5911 89.0748L46.485 89.2837L46.1178 89.2788L46.1668 89.6264L46.3855 89.7374L46.3333 90.1046L46.1342 90.1324L45.8959 90.4751L45.6119 90.5306L45.3019 90.7215L44.982 91.2927L44.765 91.9014Z" fill="#00212E"/>
<path d="M47.1999 81.0859L47.1852 81.2491L47.4333 81.4874L47.3272 82.0993L47.2179 82.3262L47.2065 82.7456L46.9666 83.0801L46.9045 83.3608L46.1963 83.7052L45.7915 83.5028L45.2416 83.87L45.2612 84.0267L44.8548 84.1948L44.703 83.8096L44.3995 83.7574L43.923 83.462L43.9931 83.1356L43.7255 82.6771L43.6357 82.3197L43.8463 81.5706L43.7026 81.0728L43.8185 80.6338L43.3354 80.0757L43.5998 79.6677L43.905 79.7901L44.189 79.5306L44.2559 79.1259L44.393 78.8632L44.6263 79.0982L44.9038 78.8028L45.2954 78.762L45.3999 78.4372L45.7344 78.5351L45.7769 78.3083L45.6202 77.866V77.5674L46.3693 77.8122L46.4509 78.1353L46.6483 78.1565L46.6124 78.6461L46.9976 78.7375L47.0384 79.0672L47.2293 79.263L47.2016 79.5682L47.3648 79.8244L47.195 79.9598L47.1836 80.3695L47.0808 80.8085L47.1999 81.0859Z" fill="#00212E"/>
<path d="M40.9625 82.3463L41.1371 81.9905L41.0392 81.7359L40.4875 81.6413L40.4729 81.4177L39.8641 81.4226L39.8331 81.1011L39.6716 80.7665L39.3631 80.76L39.2114 80.8906L38.7299 80.556L38.2779 80.37L38.3121 79.7645L38.5112 79.6927L38.7299 79.8477L39.0074 79.6894V78.8898L38.9094 78.7266L38.5063 78.9257L37.9645 78.4426L37.958 77.8274L38.3285 77.9106L38.6451 77.5826L38.8915 77.6005L39.4725 77.1909L40.0469 77.0098L40.3717 77.217L40.5186 77.6789L40.3309 77.7703L40.1481 78.3986L40.1791 78.7217L40.4516 78.8784L40.7128 78.88L40.6556 79.1705L41.1224 78.991L40.7519 78.8212L40.9967 78.5438L41.5565 78.5765L41.4325 78.8506L41.5908 78.9779L41.5026 79.2831L41.8992 79.6535L41.94 79.9179L42.4639 79.975L42.9208 80.1562L43.3353 80.0762L43.8184 80.6344L43.7025 81.0734L43.8461 81.5711L43.6356 82.3202L43.7254 82.6776L43.993 83.1362L43.9228 83.4625L44.3994 83.7579L44.7029 83.8101L44.8547 84.1953L44.9901 84.5625L44.889 84.791L44.5642 84.5625L44.2639 84.5592L44.0632 84.7926L43.8429 84.8187L43.2619 84.6604L43.102 84.2883L43.1901 84.099L42.8784 83.7465L42.7854 83.425L42.1832 82.8799L41.9792 83.2945L41.6332 82.8114L41.3786 82.6221L41.0196 82.5699L40.9625 82.3463Z" fill="#00212E"/>
<path d="M41.3493 85.2245L41.5141 84.8557L41.4684 84.4216L41.2448 84.0446L41.2677 83.7557L41.5353 83.1927L40.9037 83.0083L40.8172 82.9038L40.9625 82.3457L41.0196 82.5693L41.3786 82.6215L41.6332 82.8108L41.9792 83.2939L42.1832 82.8794L42.7854 83.4244L42.8784 83.7459L43.1901 84.0984L43.102 84.2877L42.7968 85.0009L42.6401 85.5362L42.818 85.6961L42.6467 85.9687L42.8066 86.3522L42.774 87.0425L42.5879 87.1535L42.1946 87.2106L41.8323 87.4554L41.3411 87.4113L40.5773 87.6561L40.2232 87.6643L39.8495 87.9042L39.4056 87.9499L39.2832 87.6528L40.0617 87.395L40.6198 86.8842L41.0359 86.2918L41.2628 86.1139L41.1714 85.5803L41.3493 85.2245Z" fill="#00212E"/>
<path d="M44.9903 84.5623L45.2351 85.0388L45.0034 85.685L45.3967 85.9625L45.6447 85.8792L45.7851 86.1861L45.9842 86.1061L46.0707 86.3982L45.9532 86.6854L45.2939 86.7834L45.1405 87.0722L45.3706 87.5439L45.289 87.7478L45.4995 88.0987L45.2792 88.5132L45.3918 88.7205L45.3232 89.7405L44.8337 89.6638L44.5823 90.0032L44.2168 90.1207L43.8822 90.6446L43.2735 90.7474L43.0744 90.6234L42.7562 90.6429L42.5244 90.829L42.3449 90.6136L42.562 90.0571L42.2992 89.8384L42.3188 89.6785L41.9712 89.3863L42.0104 89.2215L42.464 88.7809L42.5358 88.4512L42.7415 88.306L42.9863 88.4186L43.0401 88.0383L42.7692 87.8866L42.7105 87.3627L42.5881 87.1538L42.7741 87.0428L42.8068 86.3525L42.6468 85.969L42.8182 85.6965L42.6403 85.5365L42.797 85.0013L43.1021 84.2881L43.2621 84.6602L43.8431 84.8185L44.0634 84.7924L44.2641 84.559L44.5644 84.5623L44.8891 84.7907L44.9903 84.5623Z" fill="#00212E"/>
<path d="M39.2831 87.6527L39.4055 87.9497L39.8494 87.904L40.2231 87.6641L40.5772 87.656L41.341 87.4112L41.8322 87.4552L42.1945 87.2104L42.5878 87.1533L42.7102 87.3622L42.769 87.8861L43.0399 88.0379L42.986 88.4181L42.7412 88.3055L42.5356 88.4507L42.4638 88.7804L42.0101 89.221L41.9709 89.3858L42.3185 89.678L42.299 89.8379L42.5617 90.0566L42.3447 90.6131L42.5242 90.8285L42.7559 90.6425L43.0741 90.6229L43.2732 90.7469L43.882 90.6441L43.8607 91.2267L44.4564 91.8779L44.7649 91.9007L44.6359 92.3283L44.4744 92.3887L44.2589 92.7248L44.4776 92.8113L44.1806 93.1394L43.3075 93.6224L43.0676 93.6567L42.4948 93.4266L41.7849 93.314L41.1729 92.9452L41.0489 92.7183L41.0946 92.4784L40.7927 92.3626L41.0929 92.0345L40.6458 91.5841L39.8527 91.2153L39.647 90.7861L39.4137 90.6686L39.0791 90.7681L39.2358 89.9668L39.6177 89.8624L39.7662 89.6698L39.5442 89.4397L39.2048 89.3646L39.4789 88.9158L39.7433 88.9371L39.7955 88.6041L39.5671 88.5454L39.4365 88.1733L39.1689 87.9073L39.2831 87.6527Z" fill="#00212E"/>
<path d="M28.7375 79.2529L29.1781 79.341L29.7623 78.8775L30.3074 78.7633L30.7448 78.9379L31.2899 78.9902L32.3115 78.9216L32.5155 78.809L32.9398 78.8612L33.4995 78.7992L34.3416 78.5756L34.513 78.3406L34.9634 78.166L35.1723 78.3227L35.3143 78.7144L35.4024 79.4373L35.6243 79.5401L35.6211 79.9383L35.8088 80.0705L35.8528 80.6466L35.3551 80.9958L35.1804 80.9175L35.0874 80.8473L34.6647 81.1998L34.3547 81.1541L33.9304 81.332L33.6317 80.7494L33.3559 80.4442L33.0719 80.4948L32.7749 80.3806L32.8206 80.108L32.3653 80.2386L32.3571 80.3855L32.0063 80.5356L31.7452 80.8539L31.5885 80.5764L31.2637 80.3512L30.877 80.3463L30.3629 80.1554L30.1263 80.8947L29.8374 80.9714L29.8358 81.27L29.4702 81.4201L29.152 81.4365L29.2532 81.7971L28.7048 81.9897L28.5335 81.9669L28.4094 82.2541L28.2821 82.1023L27.644 82.1186L27.693 81.6486L27.9623 81.4365L27.8758 80.9714L28.6444 80.6809L28.5612 80.1848L28.6901 79.9954L28.7375 79.2529Z" fill="#00212E"/>
<path d="M27.595 74.6808L27.3616 74.893L27.1674 74.5666L27.4546 74.4246L27.595 74.6808ZM28.7374 79.2536L28.69 79.9961L28.5611 80.1854L28.6443 80.6816L27.8757 80.972L27.9622 81.4372L27.6929 81.6493L27.6439 82.1193L27.4677 82.0508L27.0385 82.1797L26.7415 81.9382L26.5032 82.1258L26.0348 81.9349L25.7688 82.2319L25.307 82.9483L24.9447 83.0267L24.6966 83.4053L25.01 83.5375L25.0132 83.8019L24.4796 83.8459L24.034 84.1691L23.5396 84.1283L23.2083 84.2539L22.3254 84.0826L22.0969 84.533L21.8815 84.6048L21.6236 84.879L21.7901 84.9801L21.5796 85.2935L21.5159 85.8353L21.1455 86.0948L21.0541 86.289L21.201 86.4799L20.9562 86.617L20.7652 86.9303L20.8958 87.2012L20.5563 87.6843L20.3458 87.4934L20.0635 87.7055L19.7436 87.7349L19.4809 87.4738L19.4319 87.1458L19.5935 86.772L19.0272 86.7835L18.8428 86.2824L19.0419 86.0882L19.1349 85.5399L19.0011 85.3947L18.926 85.0144L19.2752 85.0226L19.7322 84.8855L20.1353 84.4236L20.4796 84.1756L21.1553 83.4624L21.3185 83.1589L21.8994 82.7346L22.1867 82.4326L22.6583 82.2417L22.8231 81.9121L23.1185 81.7179L23.2948 81.3099L24.0569 80.7615L24.4877 80.5983L24.7815 80.205L24.8223 79.7154L24.5595 79.4821L25.6644 79.0202L26.309 78.8652L26.593 78.6791L26.9487 78.715L27.0711 78.4229L27.3535 78.2287L27.6293 78.5518L28.078 78.4001L28.5285 78.4262L28.2412 78.7444L28.3914 79.0463L28.7374 79.2536ZM28.145 73.922L27.8806 73.7506L27.8643 73.186L28.127 72.884L28.455 72.791L28.6966 72.8906L29.0882 73.3361L28.9952 73.7914L28.8271 74.0558L28.2037 74.0933L28.145 73.922ZM27.249 74.2614L27.0222 74.5274L27.0532 74.8734L26.6419 74.6955L26.8639 74.4458L27.249 74.2614Z" fill="#00212E"/>
<path d="M34.5307 86.6526L34.2026 86.5775L34.0199 86.4192L33.6657 86.571L33.7392 86.2348L34.7183 85.8252L34.9077 86.0716L34.8718 86.4551L34.5307 86.6526ZM29.4944 86.4616L29.4585 85.9329L29.0897 85.4286L29.093 85.0076L28.9689 84.4298L29.0571 84.0888L28.5724 83.48L28.574 82.9937L28.7144 82.6265L28.4092 82.2544L28.5332 81.9672L28.7046 81.9901L29.2529 81.7975L29.1517 81.4368L29.47 81.4205L29.8355 81.2704L29.8371 80.9717L30.126 80.895L30.3626 80.1557L30.8767 80.3467L31.2635 80.3516L31.5882 80.5768L31.7449 80.8542L32.006 80.536L32.3569 80.3858L32.3651 80.239L32.8204 80.1084L32.7747 80.3809L33.0717 80.4952L33.3557 80.4446L33.6315 80.7498L33.9301 81.3324L34.3544 81.1545L34.6645 81.2002L35.0872 80.8477L35.1802 80.9179L35.0611 81.2345L35.2145 81.5984L34.937 81.6555L34.8636 81.9884L34.6857 82.0651L34.6661 82.3475L34.2957 83.0671L34.5013 83.3266L34.2875 83.7232L34.6678 84.1606L34.8326 84.5783L34.4164 84.5914L33.8828 85.1936L33.7702 85.4661L33.4732 85.6456L33.0864 85.662L32.5103 86.1206L32.2802 86.6526L31.7727 86.478L31.6144 86.5808L31.0562 86.4747L30.8702 86.2364L30.6548 86.256L30.3757 86.4861L29.7017 86.7178L29.4944 86.4616Z" fill="#00212E"/>
<path d="M22.472 90.8333L22.0036 90.8349L21.8486 90.4236L22.2076 90.1348L22.6189 90.4807L22.973 90.6407L23.0334 90.8953L22.472 90.8333ZM18.9257 85.0137L19.0008 85.3939L19.1346 85.5392L19.0416 86.0875L18.8425 86.2817L19.0269 86.7827L19.5932 86.7713L19.4316 87.145L19.4806 87.473L19.7433 87.7341L20.0632 87.7048L20.3455 87.4926L20.5561 87.6836L20.8955 87.2005L20.765 86.9296L20.9559 86.6163L21.2007 86.4792L21.3133 87.3457L21.5924 87.584L21.5679 87.7766L21.7197 88.2221L22.2092 88.2596L22.3072 88.7101L22.0101 88.9875L22.0983 89.5424L22.0836 89.8867L21.909 90.1805L21.5793 90.2164L21.5809 90.7109L21.0767 90.5591L20.9657 90.6097L19.8706 89.7692L19.7189 90.1185L19.4431 90.0581L19.7825 89.699L19.2456 89.4591L18.2648 89.779L18.0575 89.921L17.7018 89.606L17.5957 89.8753L17.1257 89.7447L16.9592 90.1462L16.4403 90.4579L15.7793 90.2213L15.8038 89.9814L15.324 89.6566L15.0188 89.6191L14.8132 89.9781L14.4574 90.2751L14.3383 90.076L14.3269 89.5636L14.0054 89.1017L14.2697 88.8765L14.4378 88.5371L14.366 88.1699L14.1327 87.7652L14.2502 87.3474L14.632 87.3327L14.9601 87.0748L14.8654 86.9019L15.4382 86.8774L15.7695 87.2152L16.122 87.2233L16.6671 87.1352L17.1616 86.8937L17.6006 86.3829L17.6251 86.0108L17.8356 86.0532L18.1522 85.7089L18.49 85.0757L18.7854 85.1654L18.9257 85.0137Z" fill="#00212E"/>
<path d="M34.5814 93.1494L33.9416 93.0825L33.705 92.7185L33.8209 92.2387L33.5108 92.1114L33.1534 92.1506L33.124 91.5419L32.9723 91.2971L32.5055 91.1421L32.2477 91.4195L32.0094 91.3199L31.8136 91.0474L31.2636 91.0996L30.8572 90.9397L30.7446 90.7765L30.916 90.5007L30.8328 90.034L30.9209 89.8283L31.4545 89.3485L32.3668 89.0891L32.6263 89.3861L32.9347 89.3012L33.1257 89.1086L33.5026 89.0678L33.5826 88.8345L33.8078 88.6582L34.3252 88.6027L35.2342 88.7676L35.4104 88.4069L36.2639 88.167V88.4526L36.4924 88.6011L36.2721 89.5036L36.2998 89.8365L36.9216 90.2592L36.933 90.579L36.5414 90.8663L37.2382 91.1045L36.6034 91.4146L36.1938 91.6724L36.1415 91.8275L35.4006 92.3171L35.1672 92.3464L35.0138 92.5406L34.9273 92.9209L34.6564 92.9078L34.5814 93.1494Z" fill="#00212E"/>
<path d="M24.7651 97.6159L24.9038 97.469L24.9087 97.066L24.7536 96.6841L24.814 96.4034L24.5823 96.1423L24.6378 95.8469L24.925 96.1259L25.4195 95.6331L25.568 95.1272L26.1767 94.8612L26.1898 94.6196L25.7981 94.1855L25.7508 93.8999L25.8666 93.678L26.5243 93.7563L26.8883 93.6535L27.1722 93.221L27.0743 92.9762L27.2603 92.4149L27.4464 92.3855L27.7581 91.8567L27.9556 91.4079L28.3309 91.4161L28.4549 91.1419L29.1436 91.1746L29.7703 91.1533L30.064 90.7878L30.7446 90.7764L30.8572 90.9396L31.2635 91.0995L31.8135 91.0473L32.0093 91.3198L32.2476 91.4194L32.5055 91.1419L32.9722 91.297L33.124 91.5418L33.1534 92.1505L33.5108 92.1113L33.8208 92.2386L33.705 92.7184L33.9416 93.0823L34.5813 93.1492L34.0134 94.2394L33.8649 95.2186L33.0718 94.4303L32.9412 94.117L32.5153 93.9081L32.3602 93.5801L32.086 93.4838L31.3827 93.3973L31.2456 93.2308L30.8653 93.2504L30.2925 93.3826L30.2158 93.5262L29.5124 93.8836L29.5173 94.0795L29.0033 94.1953L28.3342 94.445L28.3619 95.23L28.3178 95.4585L27.8005 95.9905L27.639 96.3691L27.3632 96.7167L26.8719 96.9207L26.7381 97.4054L26.8426 97.9097L26.4966 98.0549L26.4917 98.3895L26.8034 98.5804L26.8915 98.7599L26.8083 99.0488L26.2975 98.5902L25.9597 98.5543L25.5925 98.8709L25.0539 98.4988L24.8907 98.6228L24.5464 98.5102L25.0898 97.7106L24.7651 97.6159Z" fill="#00212E"/>
<path d="M7.20864 91.9824L7.02422 91.9743L6.90509 91.6381L6.73047 91.5646L7.09603 90.8857L7.51055 91.0391L7.43222 91.297L7.65579 91.6022L7.60357 91.767L7.27391 91.7817L7.20864 91.9824ZM9.08539 93.7254L9.9895 93.7433L10.497 93.6617L11.0144 93.9881L11.2461 94.0387L11.4354 94.2557L11.7373 93.9669L12.0849 93.9555L12.0784 94.6409L11.2086 95.3279L11.0307 95.6429L10.9785 96.0183L10.5819 96.015L10.1968 95.8828L9.76102 96.2614L9.73491 96.5454L9.88016 96.7004L10.1739 97.3973L10.0809 97.3858L9.23064 97.1786L8.76063 96.6759L8.41302 96.4426L8.61702 96.1749L8.50931 95.9106L8.19761 95.9383L7.77819 95.7637L7.77003 95.3818L7.4518 94.9608L7.63294 94.6588L7.88916 94.6752L8.07358 94.401L8.06542 94.197L7.56277 93.8429L7.83694 93.3614L8.23677 93.1395L8.6774 93.4267L8.48483 93.6503L8.66924 93.8151L9.01522 93.8722L9.08539 93.7254Z" fill="#00212E"/>
<path d="M1.94399 98.9059L1.98642 99.2698L2.24753 99.6207L1.80854 99.6517L1.51642 99.5929L1.30916 99.8589L0.824463 99.9781L0.488281 99.823L0.925648 99.5407L0.793455 99.3383L0.742864 98.759L0.886478 98.5942L1.14596 98.8422L1.75142 98.6431L1.94399 98.9059ZM7.63301 94.6595L7.45186 94.9614L7.77009 95.3825L7.77825 95.7643L8.19767 95.939L8.50937 95.9112L8.61708 96.1756L8.41309 96.4432L8.76069 96.6766L9.2307 97.1792L10.081 97.3865L10.0663 97.5693L9.61421 97.8892L9.87533 98.1829L10.5444 97.93L10.8496 98.0426L11.1172 98.5632L11.1189 98.8977L10.9328 99.1409L10.941 99.3857L10.453 99.5684L10.2523 99.8263L9.87533 99.7626L9.63216 99.6141L9.65664 99.3498L10.0842 99.0087L9.9406 98.5321L9.37595 98.524L9.04792 98.7394L8.58444 98.7117L8.52732 99.0136L8.24336 99.4673L7.55141 99.8834L7.84517 99.1441L7.837 98.883L7.62159 98.7394L7.5204 98.3526L7.29846 98.4473L7.02592 98.1829L6.84314 97.6476L6.65383 97.3963L6.83988 96.5183L7.07161 96.4155L7.45512 96.9132L7.80437 97.1907L7.7652 97.5987L7.60037 98.0148L7.95614 98.2645L8.24989 97.9202L8.74274 98.2335L8.73785 98.0034L8.45226 97.6068L8.53712 96.9589L8.03121 96.5885L7.55794 96.6244L7.30499 96.5053L7.2397 95.9455L6.68647 95.8753L6.5804 95.6681L6.19199 95.5212L6.23115 95.2486L6.40741 95.1213L6.32907 94.6905L6.45147 94.3429L6.62772 94.4832L6.88068 94.4588L7.16627 94.5861L7.61669 94.4424L7.63301 94.6595ZM4.86357 87.5327L4.79992 87.4022L4.28912 87.3581L4.48985 87.1182L4.52902 86.5127L4.85051 85.9203L4.60572 85.7767L4.80808 85.2055L5.24545 85.186L5.36458 84.8938L5.57837 84.7861L5.86886 85.0587L5.70403 85.5042L5.72524 85.8812L5.49514 86.2467L5.10184 86.6205L5.27645 86.9175L5.19812 87.2585L5.32052 87.4789L5.24218 87.7612L5.03982 87.9521L4.85378 87.913L4.57797 88.9656L4.16183 89.2985L3.88439 89.163L4.04596 87.9195L4.86357 87.5327ZM3.73752 94.9565L3.58411 95.3204L3.30505 95.1328L3.73752 94.9565ZM2.04681 98.1764L2.29976 98.3363L2.17083 98.7492L1.94236 98.6007L1.91788 98.2123L2.04681 98.1764ZM6.019 94.3576L6.2948 94.5175L5.6616 95.5408L5.24545 95.8296L5.16059 95.4673L5.43965 95.3107L5.30257 95.1295L5.53594 94.7476L6.019 94.3576ZM3.5123 96.719L3.41929 97.1907L3.88276 97.003L3.97252 97.2723L3.46988 97.6705L3.49435 98.0589L3.28546 98.0426L3.10268 97.4567L3.14022 96.8692L3.5123 96.719ZM2.93622 98.0589L2.73712 97.943L2.75508 97.6476L3.088 97.7978L2.93622 98.0589ZM2.52986 98.4881L2.22142 97.9397L2.58535 97.9675L2.67837 98.1193L2.52986 98.4881Z" fill="#00212E"/>
<path d="M11.5512 100.222L11.3912 100.306L11.2134 99.9922L11.5038 99.723L11.6067 99.9906L11.5512 100.222ZM13.2256 103.452L13.0722 103.424L12.5973 103.067L12.0359 103.207L11.7829 103.202L11.6001 103.372L11.2835 103.325L11.024 103.057L11.0779 102.729L11.3945 102.386L11.7715 101.583L12.2741 101.074L12.2399 100.784L12.3459 100.578L12.235 100.324L12.4406 100.015L12.767 99.7115L11.6164 99.7833L11.6181 99.6675L12.4439 99.1093L12.5059 98.5414L12.2464 98.1857L12.0114 98.1334L11.9722 97.905L11.5283 97.6993L11.4304 97.1673L11.2574 97.0188L11.667 97.0694L11.9445 96.9715L11.8498 96.7169L12.341 96.2616L12.7947 96.3154L12.8616 96.0315L13.2484 95.9874L13.4508 96.1718L13.9143 96.3301L14.177 96.4705L14.3598 96.7104L14.7874 96.9209L14.9897 96.4705L14.7368 96.1033L14.7759 95.8764L15.0844 95.7051L15.5119 95.7834L15.8269 96.1147L15.8857 96.4705L16.1451 96.7087L16.323 97.2016L16.3883 97.8919L16.8143 98.2787L16.4324 98.3276L16.2626 98.6312L16.2529 98.9054L15.9591 99.1012L15.8971 99.3852L15.6099 99.55L15.5332 99.9776L15.1758 100.018L14.8934 100.71L14.9701 101.055L15.2312 101.291L15.2884 101.639L15.5201 101.846L15.2296 102.468L15.4499 102.757L15.5005 103.036L15.2345 103.067L14.8967 102.958L14.6845 103.318L14.3076 103.251L14.004 103.468L13.2256 103.452ZM9.83435 102.644L10.1183 103.055L9.97959 103.142L9.83761 103.519L9.52917 103.268L9.4492 102.931L9.49164 102.667L9.83435 102.644ZM11.3994 100.475L11.5446 100.454L11.3929 101.1L11.1383 101.448L10.9702 101.474L10.6079 101.316L10.0449 101.298L10.2113 101.554L10.0824 101.856L9.52101 102.269L9.45247 102.53L9.20441 102.664L9.00368 103.093L8.80458 102.757L8.88291 102.494L8.6626 102.429L8.85844 101.998L8.71809 101.6L8.90087 101.12L9.07875 100.865L9.13424 100.521L9.82945 100.255L10.053 100.363L10.009 100.643L10.0857 100.955L10.5769 100.71L10.7597 100.49L11.0224 100.408L11.3994 100.475Z" fill="#00212E"/>
<path d="M15.8219 107.956L16.0455 107.535L16.0635 107.093L15.9721 106.811L15.6392 106.793L15.3242 106.563L15.1724 106.739L15.006 106.442L14.957 105.964L14.7726 105.72L14.4462 105.681L14.159 105.541L14.234 104.94L13.9795 104.606L13.7249 104.56L13.5241 104.069L13.0786 103.759L13.2255 103.452L14.0039 103.468L14.3075 103.251L14.6845 103.318L14.8966 102.958L15.2344 103.067L15.5004 103.036L15.4499 102.757L15.2295 102.468L15.52 101.846L15.2883 101.639L15.2312 101.291L14.9701 101.055L14.8934 100.71L15.1757 100.018L15.5331 99.9776L15.6098 99.55L15.897 99.3852L15.959 99.1012L16.2528 98.9054L16.2626 98.6312L16.4323 98.3277L16.8142 98.2787L16.9594 98.455L17.3364 98.4191L17.6889 98.2461L17.9402 98.5056L17.9435 98.7406L18.2177 98.8303L18.3743 98.6982L19.0516 98.703L19.2442 98.3016L19.489 98.2575L19.9149 98.3848L19.9051 98.9217L20.0765 98.925L20.0047 99.0833L19.5314 99.3803L19.3519 99.8895L19.0255 100.053L18.9031 100.317L19.1919 100.67L18.7791 101.056L18.5016 101.779L18.3237 102.117L18.0414 103.289L17.5502 104.86L17.5029 105.301L17.7526 105.657L17.6008 106.022L17.6024 106.747L17.3641 106.886L17.0916 107.522L17.1634 107.765L16.9986 107.868L17.0573 108.16L16.8207 108.382L16.3474 108.493L16.1402 108.035L15.8219 107.956Z" fill="#00212E"/>
<path d="M13.9141 96.33L14.0202 96.2549L14.1491 95.7555L13.9124 95.6103L13.8472 95.2496L14.0463 94.9738L13.9598 94.6866L14.1605 94.3863L14.2535 93.8836L14.7399 93.4626L15.0205 93.3908L15.7337 93.4805L15.9736 93.1395L15.9295 92.7837L16.0258 92.6515L16.5644 92.9306L17.0703 92.9224L17.3706 92.831L17.6741 92.5569L17.8226 92.2631L18.3334 92.1113L18.8181 92.3561L19.1984 92.8669L19.2816 93.195L19.2539 93.74L19.0368 94.1562L18.6223 94.0338L18.6827 94.3896L17.8324 94.4858L17.7981 94.7013L17.9042 95.1582L18.3579 95.3132L18.9275 95.0668L19.3322 95.3606L19.6521 95.3377L20.2281 95.1549L19.9801 95.6135L19.8169 95.7718L19.6635 96.157L19.8773 96.25L19.9882 96.5225L20.3652 96.5911L20.1547 97.1198L20.4403 97.4022L20.659 97.3222L20.6655 98.0794L20.8646 98.2916L20.4321 98.6016L20.1514 98.4597L20.0764 98.9248L19.905 98.9215L19.9148 98.3846L19.4889 98.2573L19.2441 98.3014L19.0515 98.7028L18.3742 98.6979L18.2176 98.8301L17.9434 98.7404L17.9401 98.5054L17.6888 98.2459L17.3363 98.4189L16.9593 98.4548L16.8141 98.2785L16.3881 97.8917L16.3229 97.2014L16.145 96.7086L15.8855 96.4703L15.8267 96.1145L15.5118 95.7832L15.0842 95.7049L14.7758 95.8763L14.7366 96.1031L14.9895 96.4703L14.7872 96.9207L14.3596 96.7102L14.1768 96.4703L13.9141 96.33Z" fill="#00212E"/>
<path d="M14.5263 114.079L14.4725 113.451L14.8886 112.782L14.856 112.646L15.1759 112.258L15.326 112.695L15.3097 113.26L15.1334 113.596L15.1791 113.831L15.0045 114.247L14.838 114.296L14.59 114.921L14.7303 115.327L14.6275 115.504L14.3827 115.5L14.0792 115.708L13.9878 115.531L14.0792 114.856L14.5263 114.079ZM11.0241 103.057L11.2836 103.324L11.6002 103.372L11.783 103.202L12.036 103.207L12.5974 103.066L13.0723 103.424L13.2257 103.452L13.0788 103.758L13.5243 104.068L13.725 104.56L13.9796 104.605L14.2342 104.94L14.1591 105.54L14.4464 105.681L14.7728 105.72L14.9572 105.963L15.0061 106.441L15.1726 106.738L15.3244 106.562L15.6393 106.792L15.9723 106.81L16.0636 107.092L16.0457 107.535L15.8221 107.956L15.468 107.828L15.011 108.263L14.9327 108.641L15.468 108.829L15.277 109.121L15.2248 109.57L14.918 109.58L14.8544 109.837L14.6145 110.192L14.0792 110.49L13.7218 110.529L13.0053 110.996L12.7671 110.658L13.3122 110.234L13.446 109.895L13.3546 109.749L13.5831 109.405L13.6647 108.816L13.3791 108.188L13.0364 107.92L13.0706 107.329L12.6626 107.339L12.3999 107.089L12.6055 106.812L12.9221 106.751L13.1473 106.939L13.1147 107.192L13.4346 107.221L13.7789 106.595L13.6288 106.259L12.8193 106.02L12.5647 106.224L12.4962 106.587L12.2171 106.993L12.2644 107.148L11.9282 107.895L12.0082 108.297L12.2497 108.925L12.5745 109.224L12.8454 109.294L12.6887 109.829L12.377 110.056L12.1894 109.908L11.8858 109.909L11.9038 109.66L11.6133 109.4L10.9703 109.405L10.7108 109.292L10.1461 109.416L10.0662 108.651L9.90788 108.599L9.65003 108.276L9.89156 108.222L10.2049 108.377L10.608 107.99L10.8642 107.305L10.7973 106.588L10.5623 106.291L10.0548 105.869L9.86218 105.617L10.2033 104.795L10.1494 104.463L9.9291 104.037L10.1004 103.709L9.88177 103.532L10.2 103.238L10.5639 103.38L10.8903 103.35L11.0241 103.057ZM7.86956 105.292L7.87772 104.976L8.15515 105.15L8.45054 105.206L8.44238 105.389L8.16658 105.48L7.86956 105.292ZM10.2408 114.844L10.4497 114.994L10.1217 115.172L9.87687 114.929L9.94215 114.735L10.2408 114.844ZM7.21514 106.663L6.85938 106.719L7.1058 106.095L7.45014 105.994L7.48441 106.167L7.22167 106.472L7.21514 106.663ZM11.8434 114.893L12.6724 115.3L12.8764 115.491L12.7589 116.026L12.3624 116.429L11.9886 116.52L11.4762 116.434L11.1922 115.859L11.1253 115.368L11.4093 115.342L11.8434 114.893Z" fill="#00212E"/>
</g>
<defs>
<clipPath id="clip0_212_1304">
<rect width="103" height="115" fill="white"/>
</clipPath>
</defs>
</svg>
