<svg width="25" height="36" viewBox="0 0 25 36" fill="none" xmlns="http://www.w3.org/2000/svg">
<path d="M9.49751 1.30168L9.40715 0.719707L9.264 0.346191L8.51026 0.719707L7.6259 0.748783L7.43892 0.913398L7.41745 1.26276L7.35482 1.42737L7.40179 1.45645L7.5011 1.74766L7.27699 1.91719L7.33604 2.31442L7.25507 2.48395L7.3083 2.85702L6.33045 3.14286L5.96588 3.36116L5.81961 3.38978L5.48322 3.62239L5.32442 3.80669L5.26537 4.34393L5.00682 4.90085L5.05066 5.19116L5.02561 5.45732L4.84489 5.58301L4.78271 5.53962L4.45259 5.66532L4.36223 5.80086L4.16585 5.91224L3.99453 6.36673L4.10054 6.58457L4.25934 6.61365L4.34344 6.70088L4.46824 6.96167L4.38728 7.12628L4.24995 7.2229L4.25308 7.32445L4.07862 7.46938L4.16272 7.82724L3.96366 7.89478L3.89522 7.98693L3.91088 8.13187L3.5803 8.33987L3.33427 8.35419L3.1634 8.53312L2.98894 8.54251L2.89545 8.61498L2.9451 8.9196L2.92363 9.05022L3.00147 9.35932L3.18174 9.51857L3.25957 9.66842L3.4309 9.64919L3.5056 9.74581L3.49039 10.0308L3.43716 10.1515L3.26897 10.3493L3.03859 10.4172L2.90484 10.5667L2.64629 10.5957L2.57785 10.7939L2.59977 10.9048L2.49688 11.0015L2.28485 10.9818L2.16989 10.8659L1.99543 10.9773L1.96725 11.0784L1.7928 11.1218L1.66844 11.0448L1.53469 11.1218L1.52843 11.2573L1.45372 11.315L1.4752 11.5083L1.36336 11.7158L1.49711 12.1936L1.37589 12.2947L1.34145 12.5165L1.18578 12.5555L1.13881 12.8592L1.16386 12.9218L1.11107 12.9603L1.12986 13.2694L0.656145 13.6116L0.534921 13.8236L0.41638 13.8769L0.425773 13.9252L0.276367 14.0987L0.30768 14.2141L0.528658 14.2866L0.662408 14.4168L0.946011 14.5563L1.20143 14.6046L1.36963 14.6865L1.4412 14.7782L1.58434 14.8122L1.7928 15.0819L1.74941 15.2555L1.63086 15.217L1.77446 15.323L1.78698 15.3808L1.59061 15.4192L1.49711 15.6406L1.4412 15.6263L1.36023 15.4094L1.17638 15.5686L1.08289 15.5346L0.955405 15.3857L0.89278 15.3951L0.836864 15.5494L0.946011 15.6939L0.899042 15.9202L1.05784 16.1417L1.00193 16.2092L0.874439 16.2043L0.634674 16.3103L0.653014 16.3537L0.89278 16.3778L0.983139 16.4888L0.986271 16.6091L0.858783 16.7196L0.709377 16.6476L0.681195 16.7871L0.730848 17.0278L0.665539 17.0667L0.494214 17.052L0.435167 17.1437L0.457086 17.2734L0.563102 17.3937L0.684327 17.7261L0.678064 17.7936L0.541183 17.9573L0.609624 18.1354L0.725033 18.2459L0.699983 18.5393L0.865046 19.319L1.39423 19.2081L1.4752 19.1504L1.68096 19.2322L1.78385 19.0976L1.83663 19.0734L1.92073 19.1119L2.05448 19.3669L2.06074 19.5641L2.21641 19.7086L2.28485 19.9439L2.42844 20.045L2.49688 20.1703L2.57785 20.5451L2.75231 20.7808L2.83014 21.098L2.97328 21.3096L3.15087 21.3239L3.21931 21.425L3.22557 21.7274L3.1133 21.8379L3.11956 22.0978L3.05112 22.2083L3.09451 22.6117L3.35932 22.5585L3.47473 22.6404L3.65545 22.6547L4.05402 22.4292L4.21908 22.4337L4.39667 22.525L4.46824 22.6739H4.63957L4.64851 22.8086L4.60199 22.8712L4.77332 23.0295L4.91333 23.2407L5.29669 23.068L5.39599 23.0917L5.38033 23.1544L5.65141 23.1065L5.69212 23.1544L5.65768 23.3655L5.79769 23.5578L6.09069 23.6299L6.33358 23.6057L6.62613 23.4617L6.80372 23.2935L6.94373 23.2841L6.95313 23.1977L7.05288 23.0631L7.51989 22.7459L7.54494 22.6502L7.61025 22.7267L7.76905 22.7222L7.9435 22.6117L8.16135 22.5585V22.7267L8.20832 22.7607L8.60375 22.631L8.54784 22.5205L8.64133 22.4771L8.62567 22.4194L8.67846 22.3952L8.60062 22.3089L8.64401 22.1841L8.53218 22.0495L8.70664 21.9247L8.5541 21.8477L8.43243 21.6317L8.35146 21.718L8.3112 21.646L8.16135 21.6988L8.12109 21.6267L8.21458 21.5547L8.12735 21.4201L8.05265 21.3816L8.16761 21.2854L8.12422 21.1557L8.14927 21.0546L8.29241 20.9441L8.35146 20.7759L8.49147 20.7088L8.40738 20.4489L8.46374 20.3577L8.40111 20.3384L8.37651 20.2709L8.58496 20.194L8.60375 20.117L8.47626 20.0692L8.53531 19.9873L8.4293 19.7614L8.46061 19.6603L8.65967 19.497L8.91196 19.5064L8.88422 19.3525L8.9558 19.3042L8.96519 19.0976L9.14546 19.0349L9.10833 18.9486L9.56282 18.708L9.69701 18.6981L9.44159 18.5058L9.4568 18.4382L9.37583 18.3854L9.3821 18.2557L9.5069 17.9283L9.68136 17.7887L9.76545 17.7744L9.75293 17.6348L9.81511 17.6008L9.89294 17.6057L10.0361 17.7068L10.0987 17.6634L10.0768 17.6107L10.41 17.4326L10.4879 17.2206L10.5281 17.2591L10.4879 17.3119L10.5004 17.4134L10.7898 17.4563L10.7867 17.6585L11.1293 17.803L11.2913 17.7789L11.4036 17.8173L11.4845 17.9573L11.4407 18.0777L11.4845 18.1497L11.8115 18.2266L11.9171 18.3997L12.5371 17.9618L12.5617 17.986L12.6055 17.8898L13.026 17.5865L13.0788 17.6057L13.1566 17.7453L13.1817 18.0244L13.5368 17.7981L13.8822 17.8849L14.2467 17.7695L14.3402 17.7981L14.3528 18.0003L14.4521 18.2557L14.4395 18.419L14.3711 18.5733L14.3962 18.6502L14.4646 18.6646L14.4306 18.7223L14.508 18.6981L14.6735 18.809L14.6672 18.9003L14.9227 19.0108L15.0005 19.1888L15.2711 19.3767L15.3212 19.285L15.3771 19.2899L15.3991 19.1651L15.6947 19.0399L15.7444 19.1794L15.7694 19.1553L15.8222 19.2371L15.8629 19.4921L16.0436 19.5498L16.1371 19.4295L16.2212 19.5784L16.3268 19.5355L16.274 19.3812L16.109 19.2036L16.1277 19.0591L16.4078 18.9052L16.5572 18.7366L16.3706 18.3662L16.7133 18.3711L16.7164 18.1497L16.8627 18.0821L16.8721 18.0244L16.8904 17.8755L16.4579 17.7404L16.4297 17.6585L16.4046 17.4326L16.9123 16.8932L16.7536 16.8547L16.6601 16.7102L16.881 16.5031L17.3856 16.6091L17.7314 16.5223L17.934 16.6377L18.155 16.5993L18.1174 16.2624L18.0365 16.1224L18.2825 15.9972L18.2762 15.723L18.2141 15.5637L18.0584 15.5252L17.8155 15.689L17.7471 15.684L17.5977 15.5154L17.5632 15.2891L17.3919 15.2555L17.2738 15.1012L17.2022 15.0963L17.0403 15.1929L16.6167 14.9853L16.5263 14.7541L16.3116 14.5277L16.1931 14.2575L15.9998 14.2289L15.7788 14.0795L15.6759 13.6934L15.5887 13.5633L15.7041 13.5539L15.7757 13.4765L15.701 13.1584L15.6603 13.086L15.3458 13.0086L15.2899 12.9267V12.8592L15.5391 12.6856L15.4831 12.4007L15.5762 12.2803L15.4174 12.0585L15.2742 11.9471L15.4424 11.7203V11.6577H15.1029L15.0094 11.46L14.9101 11.4116L14.7916 11.5033L14.695 11.7494L14.5393 11.3633L14.5518 11.1415L14.4865 10.9773L14.4896 10.8225L14.4458 10.7742L14.3215 10.7841L14.1779 10.9818L14.2499 11.2426L14.3836 11.3924L14.3183 11.4792L14.1376 11.5467L14.0598 11.5324L13.9913 11.421L13.9537 11.0882L13.7641 11.0158L13.6268 10.6874L13.6299 10.3882L13.761 9.92921L13.6205 9.86659L13.3807 9.86167L13.2783 9.75073L13.1629 9.50918L12.9356 9.48994L12.8328 9.3884L12.8578 9.24347L13.0323 9.32086L13.2407 8.92945L13.2345 8.77959L13.1911 8.74067L13.1164 8.69728H12.9607L12.814 8.59082L13.0913 8.25264L13.1007 8.12203L12.9853 8.00125L12.6243 7.78385L12.7393 7.38752L12.7361 7.2569L12.3282 6.70088L12.4217 6.47811L12.4279 6.34749L12.3564 6.28934L12.2472 6.29918L12.2007 6.48795L12.1009 6.54118L12.0325 6.5215L11.9609 6.35241L12.0294 6.05226L12.1072 6.01871L12.313 6.12517L12.3344 5.94624L12.5867 5.71855L12.5617 5.60717L12.4091 5.49131H12.3532L12.2942 5.5687L12.2817 5.63625L12.3626 5.68456L12.2848 5.79102L12.151 5.77671L12.0884 5.62193L12.2226 5.40408L12.3501 5.35577L12.3407 5.167L12.2754 5.05562L12.313 4.78946L12.4311 4.7747L12.5961 4.83285L12.699 4.75547L12.7053 4.649L12.5183 4.54254L12.4932 4.34885L12.7147 4.31977L12.78 4.23254L12.7737 4.16992L12.6426 4.04377L12.7674 3.81116L12.7581 3.72886L12.5899 3.69039L12.4838 3.71946L12.453 3.5884L12.5277 3.32716L12.7236 3.22517L12.8014 2.95409L12.6426 2.97333L12.4217 2.74564L12.2754 2.66333H12.0419L12.0231 2.6101L12.1135 2.27103L12.2848 2.09657L12.4279 2.02858L12.0728 1.71366L12.2503 1.35983L11.752 0.97155L11.4997 1.05923L11.1947 0.92816L11.086 0.938001L11.0265 0.976471L11.0672 1.42245L11.0139 1.67474L10.7742 1.65059L10.597 1.81028L10.5035 1.83936L10.2638 1.76197L9.49751 1.30168Z" fill="#00212E" stroke="#00212E" stroke-width="0.5"/>
<path d="M18.4662 16.9123L18.519 16.609L18.2824 15.9971L18.0364 16.1223L18.1173 16.2623L18.1549 16.5992L17.9339 16.6376L17.7313 16.5222L17.3855 16.609L16.8809 16.503L16.6599 16.7101L16.7534 16.8546L16.9122 16.8931L16.4045 17.4325L16.4296 17.6584L16.4578 17.7403L16.8903 17.8754L16.872 18.0243L16.8626 18.082L16.7163 18.1496L16.7132 18.371L16.3705 18.3661L16.5571 18.7365L16.4077 18.9051L16.1276 19.059L16.1088 19.2035L16.2739 19.3811L16.3267 19.5354L16.2211 19.5783L15.8628 19.7228L15.8753 19.7756L16.0341 19.7371L16.0807 19.8333L16.1773 19.7998L16.3021 19.9921L16.3983 19.9053L16.5137 19.9487L16.6568 19.8816L16.6819 19.9827L16.6197 19.997L16.6913 20.3576L16.7879 20.3334L16.7847 20.367L16.8688 20.3817L17.0554 20.3093L17.0992 20.3862L17.1927 20.3817L17.1958 20.4345L17.0402 20.5884L17.0648 20.6555L17.1645 20.6797L17.0867 20.8479L16.9744 20.9199L16.9561 21.1413L16.7378 21.4057L16.6975 21.5255L16.6134 21.4871L16.2864 21.5018L15.9872 21.4585L15.5761 21.3287L15.4329 21.8861L15.3242 22.0829L15.1498 22.2462L15.1623 22.2896L14.8912 22.4001L14.9628 22.5298L14.7915 22.5732L14.8071 22.6501L14.6014 22.7221L14.2498 22.9624L14.3182 23.0679L14.2775 23.3032L14.3276 23.3895L14.256 23.4951L14.2153 23.764L14.0753 23.8888L14.1845 24.0091L14.1124 24.1339L14.01 24.1961L13.9756 24.1576L13.8821 24.1912L13.7139 24.3115L13.8042 24.3643L14.0847 24.3209L14.0596 24.4555L14.15 24.3978L14.4332 24.4457L14.5021 24.5177L14.6577 24.3978L14.6014 24.3209L14.6358 24.2439L15.1091 24.1961L15.1994 24.3929L15.4361 24.3786L15.4674 24.4506L15.5792 24.3643L15.6168 24.3978L15.7662 24.388L15.8221 24.4698L15.891 24.4748L16.2242 24.3687L16.3204 24.4215L16.4917 24.3401L16.7315 24.4506L16.825 24.825L16.8782 24.7579L16.9248 24.7624L16.9623 24.8823L17.1363 24.7481L17.1708 24.8201L17.1489 25.1654L17.1833 25.3721L17.3855 25.3573L17.3609 25.6356L17.2048 25.6691L17.2455 25.6839L17.2611 25.9572L17.4696 26.0914L17.5103 26.5231L17.5944 26.6429L17.6754 26.638L17.6785 26.7243L17.8963 26.6957L17.9371 26.8348L18.0332 26.8876L18.0677 26.9592L18.0739 27.1274L17.118 28.2247L17.0182 28.3973L17.0491 28.4309L17.3609 28.3495L17.4633 28.3973L17.5197 28.5074L17.666 28.5217L17.7156 28.6944L17.8682 28.9243L17.912 29.2213L17.8682 29.2978L17.6221 29.1113H17.3359L16.8841 29.207L16.8187 29.2598L16.7973 29.4512L16.7315 29.4562V29.5085L16.5168 29.5183L16.439 29.6812L16.4296 29.8198L16.5168 29.9156L16.3517 30.0117L16.006 30.0404L15.8941 29.9012L15.6664 29.8775L15.7474 30.1455L15.6821 30.2748L15.7197 30.3513L15.6633 30.4711L15.8194 30.672L15.7818 30.7154L15.7443 30.6769L15.6512 30.7203L15.5358 30.519L15.3086 30.6434L15.33 30.7534L15.5233 31.0026L15.4956 31.0169L15.5577 31.122L15.6074 31.0884L15.6356 31.1269L15.5761 31.1891L15.6137 31.2276L15.5823 31.3134L15.6293 31.3421L15.6074 31.462H15.6758L15.7353 31.6149L15.8315 31.6579L15.9469 31.8113L15.8069 31.9258L15.9344 32.0887L15.8132 32.3325L15.844 32.438L15.9563 32.5002L15.972 32.6004L16.2301 32.859L16.4202 32.7583L16.5043 32.7632L16.5262 32.9068L16.6474 32.9784L16.6787 33.0929L16.9838 33.0786L17.1802 33.1314L17.2142 33.5281L17.3265 33.5903L17.445 33.538L17.5072 33.5617L17.479 33.6861L17.364 33.6574L17.3546 33.7004L17.4915 34.0014L17.5568 34.0063L17.5975 33.8771L17.7751 33.8341L17.8279 33.8726L17.7 34.1164L17.7563 34.2215L17.9992 34.3602L18.2578 34.2644L18.2793 34.3311L18.485 34.3696L18.9055 34.8281L19.139 34.7663L19.279 34.8858L19.466 34.8428L19.8024 35.1721L19.9518 35.1434L19.9268 34.6612L19.9827 33.7961L19.9236 33.5854L19.9174 32.9641L19.5904 31.8064L19.7617 31.4763L19.9174 31.3564L20.2788 30.8876L20.3938 30.5525L20.3253 30.447L19.7429 30.0162L19.6311 29.8726L19.6342 29.772L19.768 29.5899L19.9455 29.4897L20.0762 29.4705L20.2569 29.5899L20.3692 29.5568L20.3938 29.5085L20.3535 29.3457L20.235 29.2499L20.179 29.135L20.1696 28.9051L20.2287 28.7856L20.5557 28.4644L20.6993 28.4546L20.9699 28.3302L21.2598 27.8847L21.6087 27.5443L21.8605 26.7534L22.2314 25.823L22.222 25.6839L22.1034 25.5783H21.8234L21.7858 25.5112L21.7738 25.415L21.895 25.1753L22.3374 24.8393L22.4805 24.681L22.8232 24.0811L23.4177 23.8695L23.9692 23.2164L24.2743 22.9959V22.8756L23.9285 22.5584L23.963 22.3907L24.1401 22.3858L24.3987 22.6501L24.5047 22.6452L24.5888 22.5683L24.5825 22.4819L24.1495 22.1357L24.1464 21.5162L24.0842 21.3095L24.1312 21.1073L24.5825 20.7901L24.6322 20.6604L24.6013 20.3862L24.4174 20.1362L24.4362 20.0015L24.6013 19.7371L24.595 19.6794L24.3146 19.4871L24.2586 19.314L24.6572 19.0639L24.9936 18.6354L24.9126 18.3518L24.7941 18.2699L24.6666 18.2793L24.6013 18.6211L24.5328 18.7414L24.4519 18.7897L24.3861 18.7512L24.2524 18.448L23.9661 18.3035L23.7263 18.2941L23.5796 18.193L23.4145 17.9376L23.1748 17.7788L22.901 18.01L22.6393 18.3178H22.362L22.2998 18.2941L22.2439 18.193L21.9665 18.3567L21.8981 18.3518L21.7952 18.2748L21.7424 18.1013L21.3407 18.0342L20.88 17.832L20.7709 17.62L20.1043 16.8112L19.8802 16.4694L19.7648 16.4261L19.5344 16.431L19.1421 16.5173L19.0643 16.6139L19.0079 16.9606L18.8554 17.0859L18.7217 17.1243L18.5378 17.0277L18.4662 16.9123Z" fill="#00212E"/>
<path d="M5.29615 23.0676L4.9128 23.2403L4.67616 23.6196L4.47397 23.778L4.31786 24.0088L4.19976 24.6324L4.33664 24.8967L4.50484 24.9204L4.5858 24.9925H4.73208L4.95037 25.247L5.07473 25.1701L5.1463 25.2662L5.25232 25.2278L5.33954 25.3092L5.44243 25.247L5.47329 25.2707L5.44556 25.4147L5.51713 25.4291L5.60436 25.3669L5.70098 25.4291L5.68219 25.4818L5.53592 25.5637L5.45182 25.7171L5.53279 25.8464L5.4299 26.0097L5.45182 26.3452L5.50461 26.3787L5.50774 26.5178L5.58244 26.6377L5.41425 26.8538L5.27737 26.7576L4.96603 26.8059L4.85062 26.9831L4.92845 27.1794L4.60772 27.5391L4.56702 27.7596L4.61399 27.8844L4.58267 28.0951L4.33351 28.2199L4.09062 28.4355L3.86024 28.555L3.76675 28.6941L3.81059 28.9719L3.88843 29.111L3.99713 29.1588H4.24628L4.35543 29.034L4.45205 29.0819L4.49231 29.2738L4.43014 29.3118L4.36483 29.4559L4.46145 29.4845L4.45519 29.7381L4.37735 29.7529L4.15011 29.9296L4.08748 30.1023L3.91034 30.1452L3.80746 30.2552L3.67013 30.308L3.633 30.4181L3.67639 30.5715L3.59543 30.6959L3.16913 30.8873L3.10963 30.8488L3.0318 30.8681L2.80456 31.0931L2.58984 31.1459L2.59298 31.213L2.81082 31.4854L3.42723 31.2224L3.50507 31.5095L3.65492 31.7775L3.60169 31.8446L3.36193 31.964L3.36506 32.2414L3.60795 32.4807L3.78867 32.5621L3.8258 32.8394L4.14698 33.021L4.33664 33.2747L4.40508 33.3221L4.54554 33.289L4.60772 33.3462L4.81304 33.2935L5.18701 33.4321L5.45495 33.3556L5.67593 33.2027L5.83473 33.174L6.2239 33.3512L6.51959 33.2313L6.76561 33.3369L7.0273 33.5708L7.44152 33.5806L7.49788 33.6616L7.49475 33.8481L7.54754 34.0298L7.68129 34.1206L7.7126 34.2834L7.61285 34.5223L7.68442 34.8949L7.83382 35.1432L7.90271 35.1145L7.95236 35.0192L8.09864 35.0479L8.05212 35.3632L7.91479 35.3297L7.84948 35.3775L7.82443 35.4921L7.86827 35.5829L7.92418 35.6115L8.46947 35.3203L8.58443 35.3489L8.76202 35.5207L9.24782 35.3869L9.36636 35.535L9.31939 35.6594L9.34757 35.6974L9.54976 35.6688L9.78952 35.7739L10.0731 35.0859L10.21 34.8756L10.2726 34.8613L10.5061 34.9284L10.7642 34.8425L10.7459 34.9186L10.9512 34.9141L10.9919 34.962L11.0013 35.2532L11.272 35.4299L11.6083 35.4921L11.5305 35.0237L11.6365 34.7419L11.8293 34.5844L11.9134 34.5746L12.0226 34.6752L12.2905 34.5509L12.3062 34.3742L12.4149 34.1349L12.4493 33.5994L12.6363 33.7717L12.9069 33.6808L12.8698 33.8866L12.9226 33.8911L13.1937 33.7001L13.2961 33.5708L13.3619 33.6759L13.4768 33.633L13.284 33.2456L13.3431 33.0738L13.5609 33.0403L13.9161 32.801L13.9814 32.7965L14.019 32.9352L14.2212 32.9065L14.3397 32.9638L14.5142 32.9446L14.6135 33.021L14.813 32.9589L15.2241 32.983L15.2429 32.7965L15.3641 32.8587L15.5605 32.7916L15.6132 32.8345L15.6629 32.7822L15.8436 32.8488L15.8874 32.8251L15.9277 32.6001H15.9715L15.9559 32.4999L15.8436 32.4377L15.8127 32.3322L15.934 32.0884L15.8065 31.9255L15.9465 31.811L15.8311 31.6576L15.7349 31.6147L15.6754 31.4617H15.607L15.6289 31.3418L15.5819 31.3132L15.6132 31.2273L15.5757 31.1888L15.6352 31.1266L15.607 31.0882L15.5573 31.1217L15.4951 31.0166L15.5229 31.0023L15.3296 30.7531L15.3082 30.6431L15.5354 30.5187L15.6508 30.72L15.7439 30.6766L15.7814 30.7151L15.819 30.6717L15.6629 30.4708L15.7193 30.351L15.6817 30.2745L15.747 30.1452L15.666 29.8772L15.8937 29.901L16.0055 30.0401L16.3513 30.0114L16.5164 29.9153L16.4448 29.8531L16.4386 29.6809L16.5164 29.5181L16.7311 29.5082V29.4559L16.7969 29.4509L16.8183 29.2595L16.8836 29.2067L17.3354 29.111H17.6217L17.8677 29.2975L17.9116 29.221L17.8677 28.924L17.7152 28.6941L17.6656 28.5214L17.5193 28.5071L17.4629 28.3971L17.3605 28.3492L17.0487 28.4306L17.0178 28.3971L17.1176 28.2244L18.0735 27.1271L18.0673 26.9589L18.0328 26.8873L17.9366 26.8345L17.8959 26.6954L17.6781 26.7241L17.675 26.6377L17.594 26.6426L17.5099 26.5228L17.4692 26.0911L17.2607 25.9569L17.2451 25.6836L17.2044 25.6688L17.3605 25.6353L17.3851 25.357L17.1829 25.3718L17.1485 25.1651L17.1704 24.8198L17.1359 24.7478L16.9619 24.882L16.9243 24.7621L16.8778 24.7576L16.8246 24.8247L16.7311 24.4503L16.4913 24.3398L16.32 24.4212L16.2238 24.3685L15.8906 24.4745L15.8217 24.4695L15.7658 24.3877L15.6164 24.3975L15.5788 24.364L15.467 24.4503L15.4356 24.3783L15.199 24.3926L15.1087 24.1958L14.6354 24.2436L14.6009 24.3206L14.6573 24.3975L14.5016 24.5174L14.4327 24.4454L14.1496 24.3975L14.0592 24.4552L14.0843 24.3206L13.8038 24.364L13.7135 24.3112L13.8816 24.1909L13.9751 24.1573L14.0096 24.1958L14.112 24.1336L14.184 24.0088L14.0749 23.8885L14.2149 23.7637L14.2556 23.4948L14.3272 23.3893L14.2771 23.3029L14.3178 23.0676L14.2493 22.9621L14.6009 22.7219L14.8067 22.6498L14.7911 22.5729L14.9624 22.5295L14.8908 22.3998L15.1619 22.2893L15.1494 22.2459L15.3238 22.0826L15.4325 21.8858L15.5757 21.3284L15.9868 21.4582L16.286 21.5016L16.613 21.4868L16.6971 21.5253L16.7374 21.4054L16.9557 21.141L16.974 20.9196L17.0863 20.8476L17.1641 20.6794L17.0644 20.6552L17.0398 20.5881L17.1954 20.4342L17.1923 20.3815L17.0988 20.3859L17.055 20.309L16.8684 20.3815L16.7843 20.3667L16.7875 20.3331L16.6908 20.3573L16.6193 19.9968L16.6814 19.9824L16.6564 19.8813L16.5133 19.9484L16.3978 19.9051L16.3017 19.9918L16.1769 19.7995L16.0802 19.833L16.0337 19.7369L15.8749 19.7753L15.8624 19.7225L16.2207 19.5781L16.1366 19.4291L16.0431 19.5494L15.8624 19.4917L15.8217 19.2368L15.7689 19.1549L15.7439 19.179L15.6942 19.0395L15.3985 19.1647L15.3766 19.2895L15.3207 19.2846L15.2706 19.3763L15 19.1884L14.9221 19.0104L14.6667 18.8999L14.673 18.8087L14.5075 18.6977L14.4301 18.7219L14.4641 18.6642L14.3956 18.6499L14.3706 18.5729L14.439 18.4186L14.4515 18.2553L14.3522 17.9999L14.3397 17.7977L14.2462 17.7691L13.8816 17.8845L13.5363 17.7977L13.1811 18.0241L13.1561 17.7449L13.0783 17.6054L13.0255 17.5861L12.605 17.8894L12.5611 17.9856L12.5365 17.9614L11.9166 18.3994L11.811 18.2262L11.484 18.1493L11.4402 18.0576L11.484 17.957L11.403 17.8169L11.2907 17.7785L11.1288 17.8026L10.7862 17.6581L10.7893 17.456L10.4999 17.413L10.4873 17.3115L10.5276 17.2587L10.4873 17.2202L10.4095 17.4322L10.0763 17.6103L10.0982 17.6631L10.0356 17.7065L9.89241 17.6054L9.81457 17.6004L9.7524 17.6344L9.76492 17.774L9.68083 17.7883L9.50637 17.9279L9.38157 18.2553L9.3753 18.385L9.45627 18.4378L9.44106 18.5054L9.69648 18.6977L9.56228 18.7076L9.1078 18.9482L9.14493 19.0346L8.96466 19.0972L8.95527 19.3039L8.88369 19.3522L8.91143 19.506L8.65914 19.4966L8.46008 19.6599L8.42876 19.761L8.53478 19.9869L8.47573 20.0688L8.60322 20.1166L8.58443 20.1936L8.37598 20.2705L8.40058 20.3381L8.46321 20.3573L8.40685 20.4486L8.49094 20.7084L8.35093 20.7755L8.29188 20.9437L8.14874 21.0542L8.12369 21.1553L8.16708 21.285L8.05212 21.3812L8.12682 21.4197L8.21405 21.5543L8.12056 21.6264L8.16082 21.6984L8.31067 21.6456L8.35093 21.7176L8.4319 21.6313L8.55357 21.8473L8.70611 21.9243L8.53165 22.0491L8.64348 22.1837L8.60009 22.3085L8.67793 22.3949L8.62514 22.419L8.6408 22.4767L8.54731 22.5201L8.60322 22.6306L8.20779 22.7603L8.16082 22.7263V22.5581L7.94297 22.6114L7.76851 22.7219L7.60971 22.7263L7.5444 22.6498L7.51935 22.7456L7.05235 23.0627L6.95259 23.1974L6.9432 23.2837L6.80319 23.2931L6.6256 23.4613L6.33305 23.6053L6.09015 23.6295L5.79716 23.5575L5.65714 23.3651L5.69159 23.154L5.65088 23.1061L5.3798 23.154L5.39546 23.0913L5.29615 23.0676Z" fill="#00212E"/>
</svg>
