<svg width="35" height="41" viewBox="0 0 35 41" fill="none" xmlns="http://www.w3.org/2000/svg">
<path d="M26.2834 7.13478L26.5236 7.22356L26.6352 6.93002L26.7001 6.91004L26.7206 6.72305L26.8699 6.26748L27.0574 6.06272L27.0846 5.92123L27.3637 5.76919L27.4414 5.69483L27.4464 5.64323L27.7433 5.5661L27.8959 5.54834L28.1955 5.65543L28.251 5.7986L28.2843 5.79971L28.4142 6.02666L28.4774 6.20311L28.61 6.15817L28.6755 6.38567H28.7488L28.9452 6.55824L29.004 6.72027L29.1006 6.83846L29.1028 6.9389L29.6161 6.73303L29.9806 6.75245L30.05 6.79907L31.7024 8.57083L32.4077 9.60349L32.4926 9.67729L32.6779 9.72667L32.4288 10.3321L32.6374 10.3543L32.6646 10.4569L32.6974 10.4541L32.8272 10.6445L32.8844 10.7022L32.9537 10.695L32.9238 10.8459L33.1002 10.837L32.9165 11.2532L32.7695 13.667L32.6474 13.8112L32.3866 13.7463L32.3189 13.6814L32.2124 13.6886L32.0626 13.612L31.8745 13.7274L31.7263 13.7419L31.5626 13.693L31.5376 13.6048L31.3751 13.5488L31.2363 13.5632L31.1736 13.511L31.0799 13.5687L30.98 13.5787L30.8496 13.5299L30.7236 13.5932L30.3968 13.521L30.2808 13.5615L30.252 13.6076L30.1721 13.5787L30.0278 13.622L29.7576 13.9022L29.6566 13.8961L29.7409 13.5776L28.9069 13.2192L28.3465 13.3451L28.0119 13.602L28.064 14.1447L27.9408 14.0293L27.6917 14.0115L27.6079 13.9178L27.5458 14.0548L27.3976 14.0754L27.3155 14.0043L27.285 13.8922L27.1762 14.0293L27.0968 13.9888L27.0691 14.0393L26.9853 14.0365L26.8843 14.1159L26.81 14.0293L26.7878 13.8789L26.689 13.667L26.3649 13.4328L26.386 13.339L26.3561 13.2874L26.1274 13.3462L26.0664 13.3967L25.9871 13.3091L25.8922 13.3579L25.8178 13.2885L25.7551 13.2841L25.6569 13.167L25.5076 13.127L25.4194 13.0444L25.3023 13.0721L25.2552 13.137L25.1214 13.0993L25.0537 13.127L24.8873 12.929L24.5654 12.0988L24.6242 12.0162L24.9966 11.8819L25.0071 11.812L25.2934 11.4951L24.6958 10.8109L24.5654 10.6095L25.304 10.0868L25.5376 9.76163L25.7535 9.5541L26.1696 9.58462L26.4454 9.86762L26.9653 9.49584L27.2716 8.91598L26.6973 8.02371L26.7356 7.52819L26.2118 7.3301L26.2834 7.13478Z" fill="#00212E" stroke="#00212E" stroke-width="0.5"/>
<path d="M18.4731 15.3308L18.4354 15.2892L18.5891 14.883L18.8027 14.7449L18.8194 14.6827L18.7184 14.3714L18.2312 13.5868L18.2512 13.5724L18.7423 14.357L18.846 14.6927L18.8238 14.7632L18.6069 14.8986L18.4903 15.1821L18.4731 15.3308ZM20.9724 10.8634L21.06 10.8806L21.1294 10.9489L21.1893 10.9244L21.135 10.7607L21.3109 10.8146L21.6288 11.1364L21.6832 11.3467L21.7159 11.3278L21.9146 11.5986H22.0755L22.2747 11.668L22.8418 12.1313L23.0244 12.6479L23.086 12.6796L23.2003 12.8876L23.1792 12.9759L23.0194 13.0957L22.92 13.2084L22.9234 13.2578L23.2458 13.346L23.3856 13.4686L23.5288 13.5075L23.6553 13.6473L23.6114 13.7222L23.4139 13.8537L23.1231 13.917L22.9078 14.0629L22.778 14.079L22.6637 14.0041L22.1465 14.1178L22.0772 14.1755L21.5567 14.1739L21.5533 14.5545L21.8413 14.5662L22.2153 14.9652L22.3119 15.4435L22.1193 16.1093L22.0167 16.1182L21.894 16.3524L21.9412 16.4417L21.8263 16.6387L21.6554 16.8068L21.2199 17.1603L21.1449 17.1331L21.1544 17.1803L21.0251 17.2979L20.8547 17.4083L20.6905 17.4311L20.4508 17.6364L20.377 17.582L20.0995 17.7341L20.0291 17.6797L19.8798 17.7285L19.7771 17.8878L19.3954 18.9926L18.29 19.3216L17.6735 18.7345L17.4621 18.5253L17.2041 18.355L16.6642 18.219L16.0538 18.3234L15.9301 18.2085L15.9872 18.1153L15.8696 18.0376L15.9062 17.9688L15.8912 17.6908L15.8008 17.5188L15.8024 17.4339L16.1026 17.253L16.1476 17.1498L16.546 16.9145L16.6897 16.8901L16.7707 16.7769L18.0825 15.8685L18.2257 15.8241L18.5653 15.5189L18.5819 15.464L18.5486 15.3475L18.4942 15.3591L18.502 15.2826L18.5431 15.2953L18.6352 15.2232L18.7706 14.9668L19.0746 14.9352L19.3721 14.6511L19.3454 14.5978L19.3759 14.5673L19.4048 14.615L19.6534 14.3598L20.241 14.1894L20.4358 14.0291L20.1583 13.5818L20.0013 13.4664L20.0302 13.442L19.9891 13.3887L19.9336 13.3987L19.9486 11.9166L20.5351 10.9622L20.9724 10.8634Z" fill="#00212E" stroke="#00212E" stroke-width="0.5"/>
<path d="M17.9677 7.38678L18.1091 7.48L18.1857 7.67699L18.0165 7.66534L17.9399 7.52994L17.9205 7.4001L17.9677 7.38678ZM17.6591 7.39566L17.6625 7.4567L17.344 7.52661L16.6231 8.16196L16.6187 8.1997L16.5266 8.24353L16.6048 8.24187L16.5172 8.25352L16.2053 8.52431L16.1692 8.47603L16.475 8.20802L16.47 8.17584L16.5105 8.15419L16.4833 8.20081L17.304 7.47667L17.5692 7.38456L17.6591 7.39566ZM15.3569 3.98307L15.5894 4.02691L15.6121 4.10016L15.5444 4.16341L15.505 4.14566L15.5217 4.17618L15.4157 4.15842L15.2847 4.19504L15.1088 4.33876L14.4818 4.59789L14.5229 4.77047L14.4413 4.81874L14.4441 4.96079L14.2299 5.04847L14.1106 5.1772L13.8637 5.20661L13.7028 5.29428L13.6301 5.27375L13.5879 5.14946L14.0851 4.83483L14.4802 4.44086L14.9962 4.08906L15.3569 3.98307ZM15.9745 4.23832L15.8629 4.34542L15.7542 4.34264L15.8052 4.28826L15.7448 4.23555L15.9689 4.00694L16.0516 3.98474L16.0716 4.08129L15.9745 4.23832ZM25.1885 2.47765L24.9837 2.77619L25.0353 3.09469L25.1285 3.19457L25.4559 3.29445L25.5514 3.48367L25.7156 3.40432L26.0219 3.50975L25.9753 3.91593L26.084 3.98363L25.9559 4.0713L25.8876 4.25886L25.806 4.24831L25.7411 4.2866L25.7506 4.5929L25.7051 4.6151L25.6657 4.58735L25.5946 4.73939L25.5414 4.75992L25.5669 4.79655L25.5219 4.85093L25.5308 4.96357L25.3788 4.98854L25.5269 5.25933L25.5153 5.3248L25.4326 5.47962L25.3438 5.57617L25.265 5.59947L25.2528 5.67716L25.0686 5.98679L25.0298 6.5095L25.2978 6.80303L25.5869 6.84687L25.8294 6.83688L25.9575 6.90569L26.0735 7.04996L26.2844 7.1343L26.2133 7.32963L26.7366 7.52772L26.6989 8.02324L27.2732 8.91551L26.9669 9.49537L26.4469 9.86714L26.1712 9.58415L25.755 9.55363L25.5391 9.76116L25.3055 10.0863L24.567 10.6085L24.2279 10.8315L24.0742 10.826L23.9749 10.8665L23.9866 11.0435L23.7796 11.155L23.7402 11.0751L23.511 11.1373L23.395 11.0824L23.2757 10.7838L23.1187 10.836L23.1176 10.9126L23.036 10.8793L22.9023 10.9081L22.8629 10.9558L22.864 11.069L22.6304 11.2893L22.4467 11.3764L22.121 11.2893L22.0655 11.321L22.0461 11.2616L21.9257 11.1789L21.7159 11.3254L21.6832 11.3443L21.6288 11.134L21.3109 10.8121L21.135 10.7583L21.1894 10.922L21.1294 10.9464L21.0601 10.8782L20.9724 10.861L20.9785 10.7988L20.8975 10.8304L20.8586 10.7478L20.6372 10.7361L20.6433 10.6812L20.5923 10.7755L20.4991 10.7594L20.4586 10.7128L20.4752 10.5968L20.377 10.5241L20.1423 10.6606L20.0196 10.6434L19.8626 10.6795L19.8038 10.8332L19.5735 10.9203L18.7489 10.604L18.4476 10.6956L18.2063 10.5735L17.9588 10.346L17.82 10.144L17.9749 9.95537L18.2262 9.83774L18.2745 9.76948L18.2834 9.62133L18.2368 9.3916L18.1885 9.33334L18.2878 9.28562L18.2545 9.26231L18.3145 9.26398L18.3383 9.15522L18.3078 9.07809L18.2656 9.07975L18.3305 9.06366L18.3394 8.99652L18.244 8.69688L18.2124 8.45106L18.2889 8.32177L18.2917 8.17195L18.2146 8.15031L18.2007 8.07041L18.2412 8.05431L18.2473 7.99328L18.2712 8.01048L18.2595 7.79185L18.229 8.00326L18.1957 8.02657L18.1352 7.88674L18.0492 7.79185L18.0353 7.70584L18.103 7.69419L18.1485 7.73359V7.69585L18.1857 7.69308L18.2129 7.73692L18.2534 7.73137L18.1552 7.54049L18.1386 7.3668L18.0437 7.18591L17.7146 7.45725L17.6636 7.37291L17.7784 7.33185L18.0237 7.09435L18.052 6.90347L18.194 6.81746L18.269 6.7198L18.3705 6.09055L18.3677 6.02896L18.3089 5.9707L18.4143 5.87304L18.5586 5.43134L18.6479 5.28818L18.9526 4.97522L19.3488 4.72774L19.594 4.47582L19.6473 4.32655L19.8915 4.08018L20.1389 3.95256L20.7976 3.74558L21.4413 3.35549L22.3396 2.94154L22.5233 2.83556L22.4345 2.68574L22.4589 2.71959L22.4784 2.69906L22.5327 2.82557L22.7858 2.82391L23.2635 2.6591L23.2874 2.68407L23.4183 2.66077L23.652 2.58586L24.1158 2.52537L24.2573 2.56366L24.2729 2.52537L24.2906 2.56366L24.3278 2.50651L24.7135 2.58752L25.0619 2.42272L25.1208 2.41828L25.1885 2.47765ZM19.3477 1.95384L19.2361 1.98047L19.5208 1.96993L19.5147 2.11087L19.3382 2.20076L19.2234 2.19355L18.967 2.35225L18.8388 2.29787L18.8549 2.42272L18.6513 2.34171L18.7639 2.4488L18.8999 2.5004L18.8333 2.50928L18.8061 2.562L18.2451 2.57642L18.108 2.61194L17.7684 2.88217L17.5859 2.96596L17.4821 2.92767L17.461 2.96873L17.3584 2.99592L17.3251 3.06639L17.0005 3.03421L16.8634 3.15462L16.8224 3.12355L16.6775 3.1413L16.6409 3.19124L16.6459 3.29667L16.546 3.27448L16.3546 3.45815L16.2508 3.43318L16.1032 3.32608L16.0788 3.14408L16.2675 2.9593L16.3884 2.74345L16.404 2.78617L16.4406 2.66299L17.5437 2.44713L17.6131 2.46212L18.4676 2.18412L19.2106 1.88115L19.3837 1.84896L19.5341 1.87837L19.5158 1.93109L19.3477 1.95384ZM24.0482 1.76739L24.0631 1.88503L24.0409 1.84674L23.9205 1.94995L23.8723 1.92665L23.8539 1.84452L23.905 1.76961L24.0482 1.76739ZM21.0767 1.76406L22.1393 1.6775L23.2141 1.68027L23.3107 1.72744L23.2608 1.78016L23.172 1.79902L22.7031 1.78737L22.5388 1.87837L21.7986 2.08146L21.5412 2.0798L21.5184 2.15027L21.5173 2.05594L21.0917 2.01043L20.908 2.1941L20.5912 2.27956L20.564 2.34892L20.2621 2.19188L20.1184 1.99212L20.1534 1.71856L20.286 1.60259L20.8653 1.74853L21.0767 1.76406ZM24.8294 1.03993L24.9082 1.05491L24.9942 1.13593L25.2445 1.16256L26.2444 1.04048L26.5651 1.02717L26.5812 1.05214L26.4275 1.1609L25.9464 1.32736L25.8876 1.40116L25.6679 1.50437L25.234 1.56763L25.275 1.63699L25.2129 1.5754H24.9782L24.9604 1.63422L24.9515 1.57817L24.8916 1.58983L24.8522 1.63866L24.8749 1.66973L24.7767 1.67861L24.8084 1.7907L24.6302 1.77572L24.5387 1.86394L24.5009 1.83731L24.5376 1.65198L24.6297 1.42835L24.7085 1.31349L24.9238 1.14258L24.5803 1.04548L24.5154 1.21028L24.4582 1.2014L24.4643 1.14813L24.5248 1.0083L24.8294 1.03993Z" fill="#00212E" stroke="#00212E" stroke-width="0.5"/>
<path d="M22.3106 15.4428L22.4299 15.3984L22.5664 15.5194L22.7445 15.7697L22.8638 16.0532L22.9304 16.0227L22.9648 16.0543L23.1279 15.9583L23.2039 16.0676L23.5863 15.672L23.6811 15.6387L23.7427 15.5655L24.0002 15.7325L24.1012 15.9367L24.3037 16.0532L24.3786 16.1437L24.4042 16.506L24.6378 16.7945L24.6927 16.9915L24.5834 17.4332L24.3997 17.5209L24.2255 17.5542L24.1905 17.6025L24.205 17.6874L24.3348 17.7734L24.1755 17.8782L24.175 18.1635L24.1245 18.3366L24.2116 18.3482L24.2466 18.5702L24.397 18.5902L24.4153 18.6235L24.4857 18.7677L24.4929 18.9065L24.6505 19.1617L24.6 19.2904L24.7493 19.3487L24.8581 19.3387L24.8475 19.4175L24.7676 19.5046L24.7915 19.5962L24.9258 19.6578L24.9657 19.7621L24.9835 19.7194L24.9352 19.635L24.9696 19.6495L24.9785 19.5851L25.0184 19.6278L25.0512 19.4874L25.2803 19.4891L25.4085 19.5851L25.6887 19.6434L25.8896 19.6578L25.894 19.6162L25.9518 19.6361L26.0738 19.5807L26.141 19.6578L26.3224 19.6594L26.47 19.6361L26.475 19.5146L26.586 19.4319L26.8496 19.3803L27.1559 19.4147L27.1531 19.4863L27.2508 19.6767L27.4278 19.862L27.4999 20.0079L27.6275 20.0479L27.6797 20.2354L27.8229 20.3436L28.0204 20.2937L28.3694 20.3508L28.6913 20.2721L28.8311 20.3952L28.8089 20.4768L28.8827 20.5451L29.0297 20.4135L29.1191 20.4879L29.1624 20.4124L29.199 20.4152L29.3799 20.5107L29.4204 20.5806L29.3904 20.6566L29.4132 20.8791L29.3199 21.0289L29.7911 21.1943L30.1867 21.1915L30.149 21.4867L30.1184 21.535L30.0885 21.5067L30.0374 21.555L30.0885 21.672L29.9797 21.8074L29.6063 21.8701L29.6207 21.95L29.5319 22.1337L29.5441 22.3157H29.7838L30.1251 22.4794L30.2394 22.6137L30.5979 22.8823L30.6145 22.9533L30.7732 22.9777L30.8048 23.3434L30.7793 23.3883L30.6628 23.3928L30.5274 23.4666L30.5046 23.7695L30.2932 24.0564L30.1323 24.123L30.1129 24.1913L29.983 24.2368L29.9409 24.3144L29.8582 24.3544L29.7128 24.2395L29.6079 24.0803L29.4792 24.0664L29.1296 24.2323L29.0736 24.2906L28.9987 24.2778L28.5925 24.4138L28.4221 24.5486L28.3578 24.4976L28.2912 24.5247L27.9566 24.75L27.8922 24.8682L27.6386 24.9603L27.4638 24.7911L27.3085 24.8838L27.2646 24.7817L26.9572 24.6624L26.9167 24.8238L27.1209 24.9714L27.0538 25.0652L27.0926 25.2012L27.0549 25.2023L27.0837 25.3005L27.0477 25.3327L26.9001 25.235L26.7081 25.2056L26.687 25.0835L26.6237 25.0269L26.1998 25.0081L26.1426 24.7489L25.974 24.6679L25.9074 24.6579L25.7598 24.7461L25.3758 24.74L25.1444 24.5503L25.1383 24.4937L25.2054 24.4809L25.1866 24.4254L24.9985 24.2823L24.9868 24.3089L24.8825 24.2434L24.6822 24.2778L24.6228 24.3233L24.5579 24.2723L24.4402 24.4071L24.5762 24.4099L24.7304 24.5048L24.7843 24.7178L24.9552 24.8555L24.9713 25.1357L24.6516 25.0397L24.3875 25.0197L24.0773 24.7983L24.0291 24.8876L23.9719 24.9121L23.9841 24.9897L23.806 25.1163L23.7771 25.0863L23.6734 25.1246L23.6284 25.2139L23.5252 25.2661L23.3976 25.2805L23.1756 25.1984L23.0336 25.3743L23.1501 25.4647L23.1218 25.5014L23.0519 25.4847L23.0414 25.5313L23.1906 25.6118L23.3132 25.7394L23.2722 25.8654L23.3005 25.9236L23.4309 25.9547L23.3732 26.013L23.3637 26.0879L23.4242 26.1572L23.4198 26.1983L23.1218 26.4064L23.1029 26.5007L22.9404 26.5445L22.8654 26.4485L22.7656 26.4175L22.7367 26.2588L22.5708 26.0468L22.3333 26.0607L22.3777 26.2677L22.3283 26.3198L22.1968 26.296L21.5881 26.3947L21.3994 26.3809L21.2757 26.3015L21.1492 26.1106L20.9411 26.0596L20.7696 25.847L20.6054 25.8187L20.5116 25.7594L20.3412 25.452L20.1864 25.442L19.8779 25.2988L19.616 25.3316L19.5117 25.4731L19.4551 25.4903L19.2725 25.4448L19.1377 25.3105L19.0506 25.2822L18.9651 25.3188L18.883 25.5141L18.7248 25.5752L18.5456 25.5724L18.4579 25.5358L18.3492 25.4026L18.277 25.4037L17.9497 25.8981L17.8531 26.3243L17.3548 26.6056L17.0985 26.5573L16.9126 26.6539L16.644 26.5151L16.4376 26.5601L16.1496 26.5224L15.8394 26.6011L15.8361 26.4979L15.9765 26.3553L15.9193 26.2832L15.9432 26.1106L15.7429 26.013L15.6102 25.8981L15.5059 25.912L15.4205 26.003L15.3267 25.9985L15.1475 25.7411L14.9122 25.6334L14.7457 25.422L14.8772 25.4248L14.9344 25.1484L14.7457 25.1229L14.693 25.0352L14.7119 24.957L14.6797 24.8538L14.7024 24.8299L14.8023 24.9176L15.0248 24.9121L15.1097 24.9459L15.2706 24.8427L15.2102 24.8055L15.2018 24.709L15.4416 24.6379L15.5342 24.462L15.7379 24.4865L15.7739 24.3272L15.8955 24.1019L15.9371 24.1213L15.9315 24.032L16.3161 23.3445L16.4365 23.4227L16.5963 23.4355L16.7738 23.1841L16.8404 23.1669L17.1101 23.3672L17.3637 23.4155L17.4996 23.5065L17.5746 23.511L17.6817 23.4566L17.8381 23.2962L18.1239 23.3062L18.3997 23.2008L18.5728 23.0715L18.8125 23.1186L19.0178 23.1142L19.1954 23.2396L19.4789 23.3445L19.6055 23.4954L19.9012 23.5831L20.0499 23.683L20.1382 23.6047L20.1887 23.633L20.1848 23.5603L20.2369 23.5476L20.1975 23.3317L20.2297 23.2363L20.1409 23.1314L20.0838 22.9561L19.9584 22.8795L19.8996 22.7258L19.7653 22.6248L19.8135 22.6237L19.8252 22.3745L19.6582 22.3118L19.6698 22.2136L19.6027 22.1848L19.6715 21.7664L19.6571 21.6548L19.6038 21.6193L19.5966 21.5167L19.5633 21.4939L19.565 21.3724L19.4912 21.4124L19.4684 21.3857L19.3902 21.4057L19.464 21.5966L19.4579 21.6249L19.3868 21.6038L19.3585 21.6537L19.4168 21.6776L19.3325 21.7675L19.1815 21.7575L19.1588 21.8346L18.9812 21.8618L18.7731 21.7175L18.868 21.5966L18.9945 21.5167L18.9829 21.3685L19.0639 21.267L19.0023 21.227L19.1837 21.2459L19.1488 21.1571L19.0656 21.0933L19.0977 21.0173L19.1937 21.0034L19.2365 20.9207L19.1183 20.8619L19.1288 20.7576L18.9673 20.7237L18.9795 20.6277L18.8985 20.5434L18.4235 20.448L18.3875 20.282L18.5273 20.2421L18.5473 20.0479L18.1883 19.7549L18.2893 19.3204L19.3946 18.9914L19.7769 17.8866L19.8796 17.7273L20.0288 17.6785L20.0988 17.7334L20.3762 17.5814L20.45 17.6358L20.6897 17.4305L20.854 17.4077L21.0243 17.2973L21.1536 17.1796L21.1436 17.1319L21.2185 17.1591L21.6541 16.8062L21.825 16.6381L21.9404 16.4411L21.8927 16.3517L22.0159 16.1176L22.1186 16.1093L22.3106 15.4428Z" fill="#00212E" stroke="#00212E" stroke-width="0.5"/>
<path d="M30.4471 1.79804L30.5243 1.8169L30.6658 1.70204L30.8184 1.76363L30.8367 1.81524L30.8145 1.88737L30.6619 1.8563L30.6558 1.88404L30.7928 1.91789L30.7834 1.95784L30.7035 1.96839L30.9449 2.00667L30.951 1.97727L30.8655 1.94786L30.9027 1.80691L31.0747 1.86129L31.2689 2.04663L31.1951 2.31131L31.1857 2.51718L31.3128 2.70084L31.2889 2.73913L31.3322 2.77853L31.3205 2.93279L31.4171 3.37171L31.7317 3.59921L31.6801 3.70187L32.2422 3.91328L32.3654 4.00539L32.7017 4.09917L32.9613 4.09307L32.998 4.04035L33.1544 3.98486L33.1561 4.02315L33.0268 4.1419L33.024 4.37662L32.9536 4.57138L33.0196 4.71344L33.1556 4.80555L33.4591 4.82774L33.5484 4.89378L33.6522 4.92152L33.7127 4.89822L33.7942 4.95981L34.0944 5.05192L34.1249 4.93928L34.1993 5.58462L34.1166 5.72944L34.2809 5.88148L34.0711 5.94585L33.9518 6.2061L33.9485 6.34648L33.8625 6.46911L33.8974 6.71271L34.0556 6.82924L34.0373 7.31477L34.1516 8.27806L34.1965 8.39292L34.1255 8.4817L33.8947 9.32847L33.221 10.4455L33.0751 10.6325L33.0557 10.6746L33.0995 10.8383L32.9231 10.8472L32.953 10.6963L32.8837 10.7035L32.8265 10.6452L32.6967 10.4555L32.6639 10.4582L32.6367 10.355L32.4275 10.3334L32.6767 9.72799L32.4913 9.67861L32.4059 9.60481L31.7006 8.57271L30.0482 6.80038L29.9788 6.75377L29.6142 6.73491L29.1004 6.94077L29.0987 6.84034L29.0022 6.72214L28.9434 6.56012L28.7469 6.3881H28.6742L28.6082 6.16004L28.4756 6.20554L28.4123 6.02853L28.2825 5.80213L28.2492 5.80047L28.1937 5.65731L27.8941 5.55077L27.7415 5.56852L27.4446 5.64621L27.4396 5.69726L27.3625 5.77162L27.0834 5.92366L27.0562 6.06515L26.8681 6.26991L26.7188 6.72547L26.6988 6.91247L26.6339 6.933L26.5224 7.22599L26.2816 7.1372L26.0707 7.05286L25.9547 6.90859L25.8265 6.83978L25.5841 6.84977L25.295 6.80593L25.0269 6.5124L25.0658 5.98969L25.25 5.68006L25.2622 5.60237L25.341 5.57907L25.4298 5.48252L25.5125 5.3277L25.5247 5.26167L25.3765 4.99088L25.5286 4.96591L25.5197 4.85327L25.5646 4.79889L25.5391 4.76227L25.5924 4.74174L25.6634 4.5897L25.7028 4.61744L25.7483 4.59524L25.7389 4.28894L25.8038 4.25066L25.8854 4.2612L25.9536 4.07365L26.0818 3.98597L25.973 3.91828L26.0196 3.5121L25.7133 3.40667L25.5491 3.48602L25.4537 3.2968L25.1263 3.19692L25.033 3.09704L24.9814 2.77853L25.1862 2.48L25.2633 2.4578L25.2661 2.51385L25.3011 2.51551L25.72 2.41119L26.0818 2.59486L26.2128 2.73469L26.4403 2.56601L26.9557 2.34849L28.4162 2.16204L29.6314 1.71647L30.1225 1.66764L30.4471 1.79804ZM27.0806 0.868037L27.1217 0.875251L27.1172 0.911873L26.8914 0.878025L26.9563 0.848616L27.0806 0.868037ZM28.6482 0.782584L28.7098 0.793127L28.6731 0.862488L28.5316 0.787578L28.5982 0.756504L28.6482 0.782584ZM28.909 0.531773L28.9029 0.561182L28.7791 0.54509L28.823 0.652739L28.6432 0.567286L28.5011 0.580603L28.48 0.552859L28.5355 0.467405L28.5916 0.451313L28.7813 0.471844L28.909 0.531773ZM27.828 0.49626L27.9701 0.528443L28.1182 0.67438L27.9401 0.647745L27.8841 0.593366L27.8658 0.708228L27.7348 0.693801L27.6877 0.725985L27.7148 0.796456L27.6716 0.825865L27.5944 0.80367L27.555 0.771486L27.5356 0.654959L27.3958 0.526779L27.4391 0.279297L27.4724 0.283736L27.5101 0.411916L27.828 0.49626Z" fill="#00212E" stroke="#00212E" stroke-width="0.5"/>
<path d="M22.3277 26.3199L22.377 26.2677L22.3326 26.0607L22.5701 26.0469L22.7361 26.2588L22.7649 26.4175L22.8648 26.4486L22.9397 26.5446L23.1023 26.5008L23.1178 26.5801L23.4524 26.5884L23.7387 26.7416L23.8175 26.8603L23.8969 26.8886L23.8852 26.9519H23.7959L23.7415 27.0196L23.7976 27.1977L23.7582 27.2982L23.7942 27.4946L24.2032 27.681L24.2559 27.6627L24.2759 27.7021L24.5333 27.7471L24.434 28.0917L24.3674 28.2509L24.3341 28.2354L24.3103 28.4584L24.5739 28.6643L24.6288 28.7697L24.8663 28.9995L25.0733 29.4112L25.2614 29.5588L25.3868 29.7785L25.3851 30.0721L25.4744 30.3467L25.4362 30.6991L25.3901 30.7191L25.3868 30.9732L25.3207 31.3594L25.495 31.3511L25.3912 31.5447L25.495 31.9026L25.1831 32.1901L25.2048 32.2728L24.9922 32.3188L24.8652 32.6651L24.6465 32.9675L24.5911 33.1301L24.2576 33.498L24.141 33.5695L24.2653 33.8348L24.1072 33.8925L24.1627 34.4041L24.2409 34.5561L24.3902 34.5783L24.5905 34.4219L24.9662 34.2404L25.1121 34.3536L24.7403 34.5378L25.0494 34.7487L24.9417 34.823L24.9373 34.8813L24.6371 34.9263L24.449 35.0489L24.3153 35.0727L24.2664 35.222L24.2209 35.1954L24.1532 35.2958L24.0162 35.353L24.0045 35.424L23.8958 35.5499L23.7942 35.6276L23.6966 35.657L23.6577 35.6332L23.605 35.6726L23.4663 35.8052L23.4136 35.9106L23.332 35.94L23.3464 35.985L23.2515 36.1004L23.2338 36.3262L23.1356 36.3717L23.1522 36.45L22.9563 36.4583L22.7533 36.0238L22.5579 36.2047L22.326 36.2369L22.3415 36.3235L22.4464 36.4516L22.397 36.5488L22.4531 36.6908L22.5979 36.7996L22.5957 36.8817L22.6772 36.9178L22.665 37.1153L22.5746 37.2157L22.6156 37.2962L22.6789 37.3001L22.9341 37.153L23.1073 37.1142L23.2249 37.2379L23.3525 37.1835L23.7332 37.1708L23.6455 37.4549L23.5584 37.5409L23.6594 37.6036L23.6849 37.8594L23.9169 37.9426L23.964 37.926L24.0023 37.9621L23.9923 38.0303L24.1716 38.0176L24.2964 38.0952L24.348 38.0386L24.2348 38.2079L24.1749 38.4354L24.297 38.7089L24.1915 38.891L24.1655 39.078L24.0223 39.0058L24.0045 38.9476L23.6816 39.0879L23.6755 39.2805L23.7648 39.447L23.7182 39.4719L23.7332 39.5146L23.5839 39.6822L23.5418 39.6933L23.3775 39.5896L23.2909 39.6905L23.2837 39.7738L23.3964 39.8071L23.5007 39.9386L23.7448 40.0884L23.6577 40.2504L23.6955 40.3403L23.347 40.3636L23.2715 40.2571L23.1777 40.2349L22.7865 40.3986L22.7621 40.3376L22.6867 40.3459L22.6478 40.393L22.5407 40.3154L22.5085 40.1439L22.2994 40.2515L22.2072 40.347L22.154 40.2088L22.038 40.2837L21.8344 40.3265L21.6912 40.1245L21.6146 40.1561L21.5403 39.9597L21.452 39.9747L21.2256 40.2682H21.1258L21.052 40.2171L21.0053 40.2754L20.8577 40.3387L20.7268 40.3032L20.8877 39.9663L20.8078 39.7738L20.8655 39.6367L20.8156 39.5579L20.6979 39.5479L20.6841 39.4925L20.491 39.4414L20.4837 39.3776L20.4277 39.3454L20.4443 39.2722L20.3478 39.0852L20.3589 38.8338L20.4222 38.78L20.3889 38.7384L20.4116 38.7078L20.6103 38.6024H20.6841L20.7157 38.5092L20.8233 38.3954L20.87 38.1951L20.9365 38.1812L21.0281 38.234L21.0736 38.2107L21.1263 37.9798L21.2317 37.8466L21.2811 37.6913L21.3766 37.6436L21.3216 37.5087L21.26 37.4976L21.123 37.5759L21.0631 37.5437L21.0553 37.4726L21.4531 36.9788L21.4537 36.8107L21.5403 36.6253L21.381 36.4766L21.4986 36.2386L21.5192 36.0793L21.6734 36.1354L21.7483 36.096L21.7189 35.9389L21.7922 35.8413L21.7106 35.6765L21.8288 35.6099L21.9581 35.6615L22.0275 35.586L22.0397 35.5067L22.0036 35.4534L21.8299 35.4118L21.8316 35.3069L21.9564 35.1538L22.1029 35.1243L22.1434 34.9973L22.2294 34.9373L22.0657 34.8103L22.0774 34.7614L21.9631 34.605L21.8743 34.7265L21.7894 34.6788L21.5525 34.8297L21.5314 34.7781L21.5663 34.6777L21.497 34.6482L21.4875 34.6066L21.5525 34.5517L21.5092 34.5423L21.5314 34.4668L21.4498 34.383L21.2634 34.3159L21.2206 34.3647L21.0281 34.3747L20.9598 34.4274L20.7834 34.3664L20.6752 34.398L20.6297 34.3564L20.512 34.363L20.4566 34.2737L20.4549 34.186L19.6836 33.8603L19.94 33.7821L19.9383 33.8126L20.1614 33.7005L20.2152 33.1173L20.6058 32.5613L22.3892 32.0047L22.9047 31.5631L22.3726 30.6558L22.2694 30.0693L22.2022 29.8978L22.073 29.0067L22.5391 29.0982L22.6867 29.2153L22.9758 29.1853L23.5534 28.9717L23.7693 29.1926L23.8203 29.1432L23.9108 29.1348L23.8475 29.0139L23.8464 28.7769L23.7282 28.5766L23.6932 28.2537L23.4724 28.0378L23.2538 27.8913L23.2399 27.8209L23.3081 27.6217L23.125 27.5639L23.1905 27.4086L23.1106 26.9946L22.9502 26.9097L22.7072 26.877L22.5602 26.8176L22.4991 26.7399L22.4397 26.4259L22.3277 26.3199Z" fill="#00212E" stroke="#00212E" stroke-width="0.5"/>
<path d="M14.7458 25.4216L14.9129 25.6325L15.1481 25.7401L15.3274 25.9976L15.4211 26.0021L15.5066 25.9116L15.6109 25.8977L15.7435 26.0126L15.9438 26.1103L15.92 26.2828L15.9771 26.355L15.8368 26.4976L15.8401 26.6008L16.1503 26.5214L16.4383 26.5597L16.6447 26.5142L16.9132 26.6529L17.0991 26.5569L17.3555 26.6052L17.8532 26.3239L17.9498 25.8977L18.2772 25.4033L18.3493 25.4017L18.4581 25.5348L18.5457 25.5715L18.725 25.5742L18.8831 25.5132L18.9658 25.3179L19.0512 25.2812L19.1384 25.3096L19.2738 25.4444L19.4563 25.4899L19.5124 25.4727L19.6167 25.3312L19.8786 25.2985L20.1877 25.4416L20.3425 25.4516L20.5128 25.759L20.6066 25.8184L20.7708 25.8467L20.9418 26.0592L21.1498 26.1103L21.2764 26.3011L21.4001 26.3805L21.5888 26.3949L22.1975 26.2956L22.329 26.3195L22.4416 26.4254L22.5004 26.7395L22.562 26.8172L22.7085 26.8766L22.9516 26.9093L23.1125 26.9942L23.1924 27.4082L23.1264 27.5635L23.31 27.6212L23.2418 27.8204L23.2557 27.8909L23.4743 28.0374L23.6946 28.2532L23.7295 28.5762L23.8483 28.7765L23.8494 29.0135L23.9126 29.1344L23.8222 29.1427L23.7711 29.1921L23.5553 28.9707L22.9777 29.1849L22.6886 29.2143L22.541 29.0972L22.0748 29.0057L22.2041 29.8968L22.2718 30.0683L22.3745 30.6548L22.9066 31.5621L22.3911 32.0038L20.6077 32.5603L20.2171 33.1163L20.1638 33.7001L19.9407 33.8122L19.9424 33.7816L19.686 33.8599L19.6527 33.8305L19.6133 33.5575L19.6211 33.2373L19.3648 32.9981L19.2671 32.8272L19.0424 32.764L18.9896 32.7595L18.8309 32.9698L18.6173 33.0103L18.5901 33.093L18.5407 33.0986L18.3965 33.2906L17.7689 33.1224L17.6818 33.2933L17.3083 33.3128L17.0431 33.2456L16.7984 33.3017L16.7185 33.2245L16.8372 32.6968L16.4937 32.4743L16.2646 32.5498L16.1664 32.6269L15.9189 32.5514L15.8961 32.0931L15.3673 31.4533L15.6536 30.9073L15.4234 30.3618L15.1337 30.3435L15.0716 30.2364L15.076 30.1438L15.0366 30.1271L14.8152 30.3408L14.7653 30.7231L14.4201 31.0155L14.1121 31.4028L14.0822 31.3568L14.0988 31.4117L14.0428 31.4372L13.9795 31.4189L14.0683 31.395L13.9496 31.3135L13.8624 31.1564L13.8108 31.1875L13.7398 31.1398L13.7504 31.1059L13.7171 31.1326L13.6405 31.1132L13.5623 31.2214L13.4224 31.1387L13.3775 31.1764L13.3126 31.147L12.898 31.2297L12.7443 31.1453L12.7066 30.96L12.7582 30.9079L12.8537 30.8995L12.8764 30.9445L13.226 31.0571L13.2942 31.1187L13.3653 31.117L13.337 31.086L13.3925 31.0383H13.2421L13.1849 30.707L13.2781 30.5455L13.3248 30.5821L13.373 30.5383L13.2859 30.4723L13.3331 30.222L13.1583 30.1798L13.1111 30.0211L12.7271 29.893L12.5512 29.959L12.4891 30.0994L12.3476 30.1737L12.2266 30.3874L12.1195 30.4129L12.0291 30.6265L11.8016 30.7303L11.8227 30.9761L11.7322 31.0055L11.6673 30.9817L11.5619 31.0366L11.4653 30.9872L10.9981 30.9001L10.648 31.0305L10.6008 30.6654L10.7517 30.3352L10.6585 30.1987L10.0981 30.2647L10.0104 30.3563L9.82062 30.3901L9.30623 30.6626L9.26573 30.7131L9.39113 30.7286L9.44662 30.8773L9.39557 30.9084L9.41499 30.9755L9.31733 31.0699L9.39224 31.2535L9.73627 31.7069L9.688 31.7646L9.7335 31.86L9.6536 31.8445L9.41111 31.9666L9.26073 31.9805L8.95277 31.9383L8.88507 31.6747L8.37513 31.6902L8.34516 31.602L8.28967 31.5948L8.26082 31.5316L8.29744 31.405L8.25249 31.1298L8.35792 30.9966L7.86684 29.8957L7.86518 29.7875L8.01334 29.3397L8.01833 29.1988L7.94009 29.044L7.65044 28.6888L7.60938 28.5451L7.68373 28.2815L7.78361 28.1828L8.02499 28.0768L8.11821 27.902L8.35626 27.9303L8.8601 27.7905L9.04266 27.7056L9.19747 27.5802L9.27849 27.3893L9.41388 27.2239L9.46327 27.2223L9.48768 27.1584L9.6658 27.0086L10.325 27.2289L10.5181 27.2489L11.1768 27.068L11.3155 26.9565L11.8687 26.7983L12.1345 26.6102L12.4403 26.3145L12.5651 25.996L12.7011 25.8345L12.9546 25.7241L13.3936 25.7296L13.5817 25.6109L13.7404 25.4466L13.9473 25.3434L14.1904 25.3206L14.7458 25.4216ZM14.161 30.6892L14.0861 30.7985L14.0783 30.707L14.05 30.7308V30.6787L14.0017 30.7081L14.0345 30.7475L14.0195 30.8329L13.9695 30.8585L14.1687 30.9456L14.1993 30.9023L14.1782 30.8673L14.2326 30.8296L14.1538 30.8085L14.1432 30.7636L14.197 30.7691L14.1626 30.7075L14.2459 30.6654L14.2581 30.6948L14.3125 30.6304L14.293 30.5982L14.252 30.6387L14.0894 30.6415L14.161 30.6892ZM14.2997 30.7342L14.2603 30.702L14.2376 30.7258L14.2997 30.7342ZM13.7953 31.0022L13.7731 31.0316L13.797 31.026L13.7953 31.0022ZM14.1687 31.2075L14.08 31.233L14.1127 31.2652L14.0761 31.2963L14.1782 31.2796L14.1687 31.2075Z" fill="#00212E" stroke="#00212E" stroke-width="0.5"/>
<path d="M17.3794 12.9433L17.8577 13.1558L18.2512 13.572L18.2312 13.5864L17.8422 13.1747L17.3855 12.9755H17.2313L17.3794 12.9433ZM12.1418 8.91423L11.6846 8.97083L11.5908 9.02188L11.6357 9.06683L11.6052 9.09735L11.5281 9.0918L11.4798 9.01744L11.5298 8.92422L11.7589 8.78883L11.9459 8.81491L12.1357 8.88316L12.1418 8.91423ZM15.2165 9.387L15.0977 9.483L15.0766 9.62117L15.1582 9.60674L15.7325 10.7304L15.6482 11.7447L15.7159 11.7492L15.753 11.8141L15.8013 12.0155L16.0471 12.2658L16.1121 12.2874L16.2103 12.2891L16.2885 12.2369L16.4283 12.0316L16.6758 12.046L16.8639 12.1443L17.0604 12.1054L17.0842 12.1332L16.9982 12.1637L17.1175 12.1565L17.2202 12.2247L17.2579 12.6209L17.4299 12.7263L17.3633 12.7208L17.3511 12.7974L17.188 12.89L17.2163 12.9622L16.895 13.0443L16.8034 13.4499L16.7596 13.5148L16.5549 13.6291L16.4716 13.749L16.2541 13.805L16.1248 13.9421L15.8446 13.9909L15.7797 13.8062L15.6604 13.815L15.5144 13.6608L15.3924 13.6968L15.3274 13.7634L15.3158 13.7257L15.2403 13.7374L15.2464 13.7906L15.1865 13.6824L15.1349 13.6841L15.0705 13.7534L14.9179 13.8228L14.8935 13.8788L14.9385 14.2784L14.9146 14.3344L15.0217 14.6329L15.0078 14.7251L15.1138 14.8244L15.2198 15.0608L15.2137 15.1457L15.3524 15.432L15.3912 15.4337L15.3818 15.4897L15.4417 15.5385L15.4784 15.6606L15.3485 15.8565L15.2869 15.852L15.2608 15.8864L15.2653 16.0374L15.3297 16.1123L15.3241 16.1739L15.1732 16.1667L15.0672 16.2199L15.0283 16.1972L15.101 16.312L15.1449 16.2532L15.2048 16.2677L15.1599 16.3598L15.161 16.564L15.4262 16.6145L15.5178 16.5917L15.5344 16.4108L15.6154 16.3043L15.545 15.8759L15.6459 16.1678L15.7214 16.2599L15.9295 16.2754L15.7214 16.3648L15.6609 16.428H15.596L15.5699 16.6061L15.5105 16.6983L15.4717 16.7171L15.4673 16.6666L15.4035 16.7243L15.3202 16.9657L15.2054 16.9602L15.1377 17.0595L15.0156 17.1411L14.9479 17.3303L14.8291 17.3935L14.853 17.4307L14.818 17.5339L14.7171 17.4634L14.56 17.5295L14.4135 17.3974L14.3741 17.4435L14.4002 17.5123L14.5417 17.5855L14.474 17.6632L14.4479 17.6044L14.4008 17.6443L14.5833 17.762L14.7176 17.924L14.8475 17.9501L14.9684 17.8929L15.0306 17.9534L14.9762 18.0294L15.0006 18.0827L15.0417 18.0783L15.0328 18.0394L15.1116 18.0694L15.3346 18.0577L15.4057 18.0061L15.5322 18.025L15.6981 18.1498L15.9284 18.2087L16.0521 18.3235L16.6625 18.2192L17.2024 18.3552L17.4604 18.5255L17.6719 18.7347L17.4094 18.9223L17.153 18.8762L17.0698 18.9522L17.0182 18.9295L16.8778 19.2186L16.6853 19.39L16.6581 19.8306L16.4156 20.315L15.8152 20.2823L15.7996 20.2196L15.9622 20.1108L16.0088 20.0282L15.8984 19.8079L15.793 19.749L15.7658 19.8018L15.389 19.8117L15.0983 19.693L15.0633 19.5715L15.247 19.4888L15.126 19.3701L15.0944 19.2114L15.0189 19.243L14.9357 18.9827L15.1604 18.9156L15.1698 18.8523L15.2409 18.8152L15.3075 18.8668L15.2653 18.7563L15.1721 18.7636L15.1038 18.8451L15.0206 18.7752L14.9812 18.7869L14.8624 18.9356H14.8236L14.7481 18.758L14.6937 18.7353L14.5578 18.7452L14.4119 18.8912L14.1649 18.8396L14.0983 18.8684L14.11 18.9927L13.9807 19.0871L13.9158 19.2114L13.5401 19.2186L13.2327 19.5104L13.0674 19.5865H12.9303L12.8387 19.5665L12.7527 19.6037L12.7017 19.678L12.4376 19.8251L12.3693 19.9111L12.3183 19.8722L12.3049 19.562L12.1335 19.5349L11.9859 19.6364L11.7856 19.6519L11.5009 19.8179L11.3211 19.8306L11.0659 19.7635L10.9726 19.7951L10.8434 19.7651L10.7834 19.7163L10.7745 19.6436L10.8517 19.5265L10.921 19.1631L10.9049 19.0499L11.0786 18.874L11.29 18.4057L11.0514 18.3152L10.9327 18.3479L10.8772 18.4512L10.2812 18.182L10.8678 16.6583L10.9149 16.3237L10.9599 16.2621L10.9266 16.1672L11.0969 15.7355L11.3217 14.4826L11.5797 12.3135L11.6585 11.9417L11.785 11.6621L11.9332 11.1593L12.1368 10.3459L12.1823 10.1355L12.2212 9.35093L12.3144 9.10234L12.3932 9.02965L12.7805 8.99469L12.7733 9.02688L12.8288 9.0241L12.7849 9.06072L12.851 9.16227L12.9153 9.14507L12.9458 9.07404L12.892 9.02632L12.9775 9.00912L12.9997 9.12232L12.8898 9.4264L13.0341 9.73436L13.6328 10.0973L13.918 10.0218L14.1938 9.88252L14.3281 9.71272L14.3658 9.58343L14.449 9.50908L14.7503 9.42196L14.8524 9.45081L14.9895 9.40587L15.0633 9.45803L16.1681 8.4792L16.2042 8.52747L15.2165 9.387ZM13.6844 6.21358L13.7554 6.228L13.9241 6.5171L13.8792 6.61032L13.8614 6.56205L13.8542 7.25344L13.8198 7.35832L13.6062 7.54643L13.5984 7.6968L13.5046 7.86604L13.4114 7.91432L13.3404 8.01919L13.1251 8.07135L12.8887 8.37876L12.9281 8.42815L12.9026 8.46477L12.5441 8.35102L12.5213 8.36988L12.5546 8.42537L12.6567 8.46588L12.7366 8.55189L12.6523 8.52581L12.5574 8.5813L12.5813 8.61348L12.4204 8.63068L12.331 8.69172L12.1818 8.46921L12.1512 8.31051L12.1651 8.03972L12.2661 7.60136L12.5175 7.08254L13.1567 6.07541L13.3825 5.83569L13.4636 5.80518L13.519 5.82848L13.6567 6.046L13.6844 6.21358Z" fill="#00212E" stroke="#00212E" stroke-width="0.5"/>
<path d="M24.5659 10.6094L24.6963 10.8108L25.2939 11.495L25.0076 11.8118L24.9971 11.8817L24.6247 12.016L24.5659 12.0987L24.8878 12.9288L25.0542 13.1269L25.1219 13.0992L25.2557 13.1369L25.3028 13.072L25.4199 13.0442L25.5081 13.1269L25.6574 13.1669L25.7556 13.284L25.8183 13.2884L25.8927 13.3578L25.9876 13.3089L26.0669 13.3966L26.1279 13.3461L26.3566 13.2873L26.3865 13.3389L26.3654 13.4327L26.6895 13.6668L26.7883 13.8788L26.8105 14.0292L26.8848 14.1157L26.9858 14.0364L27.0696 14.0392L27.0973 13.9887L27.1767 14.0292L27.2855 13.8921L27.316 14.0042L27.3981 14.0752L27.5463 14.0547L27.6084 13.9176L27.6922 14.0114L27.9413 14.0292L28.0645 14.1446L28.0124 13.6019L28.347 13.345L28.9074 13.219L29.7414 13.5775L29.6571 13.896L29.7581 13.9021L29.8801 14.0652L29.8202 14.4514L30.2364 14.8188L30.066 14.8665L29.8729 14.8232L29.7802 15.0296L29.4745 14.9675L29.6931 15.4242L29.631 15.9202L30.1831 16.2781L30.3279 16.3214L30.9993 16.3203L30.9988 16.4552L31.0892 16.4363L31.7751 16.6594L31.9582 16.5168L32.0875 16.2437L32.1851 16.1749L32.3061 16.4407L32.3782 16.7409L32.4765 16.8303L32.6002 17.1432L32.8016 17.166L32.9331 17.5405L32.927 17.8463L32.7794 18.0527L32.7012 18.243L32.6862 18.3834L32.5175 18.7374L32.5308 18.9721L32.6712 19.2324L32.8471 19.4288L32.8083 19.5187L32.618 19.6419L32.4448 19.673L32.3122 19.6203L32.1524 19.6591L32.1036 19.7262L32.0692 19.9249L31.8539 20.2922L31.4727 20.366L31.4477 20.4604L31.2507 20.6435L31.1675 21.0158L31.0199 21.1584L30.1864 21.1912L29.7908 21.1939L29.3197 21.0286L29.4129 20.8788L29.3902 20.6562L29.4201 20.5802L29.3796 20.5103L29.1987 20.4149L29.1621 20.4121L29.1188 20.4876L29.0295 20.4132L28.8824 20.5447L28.8086 20.4765L28.8308 20.3949L28.691 20.2717L28.3692 20.3505L28.0201 20.2933L27.8226 20.3433L27.6794 20.2351L27.6273 20.0475L27.4996 20.0076L27.4275 19.8616L27.2505 19.6763L27.1528 19.486L27.1556 19.4144L26.8493 19.38L26.5857 19.4316L26.4748 19.5143L26.4698 19.6358L26.3222 19.6591L26.1407 19.6574L26.0736 19.5803L25.9515 19.6358L25.8938 19.6158L25.8893 19.6574L25.6885 19.643L25.4083 19.5847L25.2801 19.4888L25.0509 19.4871L25.0182 19.6275L24.9782 19.5847L24.9693 19.6491L24.9349 19.6347L24.9832 19.719L24.9655 19.7618L24.9255 19.6574L24.7912 19.5958L24.7674 19.5043L24.8473 19.4172L24.8578 19.3384L24.749 19.3484L24.5998 19.2901L24.6503 19.1614L24.4927 18.9061L24.4855 18.7674L24.415 18.6231L24.3967 18.5898L24.2463 18.5699L24.2114 18.3479L24.1242 18.3362L24.1747 18.1631L24.1753 17.8779L24.3345 17.773L24.2047 17.687L24.1903 17.6021L24.2252 17.5538L24.3995 17.5206L24.5831 17.4329L24.6924 16.9912L24.6375 16.7942L24.4039 16.5057L24.3784 16.1433L24.3035 16.0529L24.1009 15.9363L23.9999 15.7321L23.7425 15.5651L23.6809 15.6384L23.586 15.6717L23.2037 16.0673L23.1276 15.958L22.9645 16.054L22.9301 16.0223L22.8635 16.0529L22.7442 15.7693L22.5661 15.5191L22.4296 15.3981L22.3103 15.4425L22.2137 14.9647L21.8397 14.5652L21.5518 14.5541L21.5551 14.1734L22.0761 14.1746L22.1455 14.1168L22.6627 14.0031L22.777 14.078L22.9068 14.0619L23.1215 13.9165L23.4123 13.8527L23.6099 13.7218L23.6537 13.6463L23.5272 13.5065L23.3846 13.4676L23.2447 13.345L22.9223 13.2568L22.919 13.2074L23.0183 13.0947L23.1781 12.9749L23.1992 12.8867L23.0849 12.6786L23.0233 12.6469L22.8408 12.1303L22.2737 11.667L22.0745 11.5976H21.9135L21.7149 11.3268L21.9252 11.1804L22.0451 11.263L22.0645 11.3224L22.12 11.2908L22.4457 11.3773L22.6294 11.2908L22.863 11.0705L22.8619 10.9573L22.9013 10.9096L23.035 10.8807L23.1166 10.914L23.1177 10.8369L23.2747 10.7847L23.394 11.0833L23.51 11.1387L23.7391 11.076L23.7785 11.1559L23.9855 11.0444L23.9744 10.8674L24.0737 10.8269L24.2274 10.8324L24.5659 10.6094Z" fill="#00212E" stroke="#00212E" stroke-width="0.5"/>
<path d="M12.9303 19.5847H13.0674L13.2322 19.5086L13.5396 19.2168L13.9153 19.2096L13.9802 19.0853L14.1095 18.9909L14.0978 18.8661L14.165 18.8378L14.4113 18.8888L14.5573 18.7429L14.6932 18.7329L14.7476 18.7562L14.8231 18.9332H14.8619L14.9807 18.7845L15.0201 18.7734L15.1033 18.8433L15.1721 18.7618L15.2648 18.7546L15.3069 18.865L15.2403 18.8134L15.1693 18.8505L15.1593 18.9132L14.9346 18.9809L15.0184 19.2412L15.0939 19.2096L15.1255 19.3683L15.2465 19.487L15.0628 19.5702L15.0983 19.6918L15.3885 19.8105L15.7653 19.8005L15.7925 19.7473L15.8979 19.8061L16.0089 20.0264L15.9623 20.109L15.7997 20.2178L15.8152 20.2805L16.4162 20.3132L16.6587 19.8288L16.6858 19.3882L16.8778 19.2168L17.0182 18.9277L17.0704 18.9504L17.1536 18.875L17.41 18.9205L17.6724 18.7329L18.2889 19.32L18.1879 19.7545L18.5469 20.0474L18.527 20.2417L18.3871 20.2816L18.4232 20.4475L18.8982 20.543L18.9792 20.6273L18.967 20.7233L19.1285 20.7572L19.1179 20.8615L19.2361 20.9203L19.1934 21.003L19.0974 21.0168L19.0652 21.0929L19.1485 21.1567L19.1834 21.2455L19.002 21.2266L19.0636 21.2665L18.9825 21.3681L18.9942 21.5162L18.8677 21.5961L18.7728 21.7171L18.9809 21.8614L19.1584 21.8342L19.1812 21.7571L19.3321 21.7671L19.4165 21.6772L19.3582 21.6533L19.3865 21.6034L19.4575 21.6244L19.4636 21.5961L19.3898 21.4053L19.4681 21.3853L19.4908 21.4119L19.5646 21.372L19.563 21.4935L19.5962 21.5162L19.6035 21.6189L19.6567 21.6544L19.6712 21.7659L19.6024 22.1843L19.6695 22.2132L19.6578 22.3114L19.8249 22.3741L19.8132 22.6233L19.7649 22.6244L19.8992 22.7254L19.958 22.8791L20.0834 22.9556L20.1406 23.131L20.2294 23.2359L20.1972 23.3313L20.2366 23.5471L20.1844 23.5599L20.1883 23.6326L20.1378 23.6043L20.0496 23.6825L19.9009 23.5827L19.6051 23.495L19.4786 23.3441L19.1951 23.2392L19.0175 23.1138L18.8122 23.1182L18.5725 23.0711L18.3993 23.2003L18.1236 23.3058L17.8378 23.2958L17.6813 23.4561L17.5742 23.5105L17.4993 23.5061L17.3634 23.4151L17.1098 23.3668L16.8401 23.1665L16.7735 23.1837L16.5959 23.4351L16.4361 23.4223L16.3157 23.3441L16.0394 23.2431L15.9534 22.9617L15.7514 22.8619L15.5844 22.8352L15.3236 22.9445L15.0805 23.1748L15.0123 23.3058L14.9235 23.3158L14.7881 23.2092L14.6866 23.2031L14.4424 23.4467L14.1938 23.3896L14.0085 23.6764L13.6645 23.7591L13.5929 23.4789L13.3404 23.1931L13.2272 22.9717L13.1601 22.949L13.0824 22.8452L13.4342 22.7581L13.3704 22.6016L13.0163 22.6743L12.9919 22.5944V22.5434L13.0691 22.4879L13.0541 22.3808L13.2305 22.1577L13.3754 22.0478L13.559 21.9807L13.6034 21.8897L13.2438 21.9141L13.2472 21.8381L13.1823 21.7088L13.1723 21.3625L12.8721 21.1467L12.8865 21.0884L12.9941 21.0401L13.0618 20.8532L13.1323 20.8232L13.2655 20.7805L13.286 20.8642L13.3349 20.9031L13.5696 20.9159L13.6134 20.8815L13.5807 20.6573L13.7632 20.5674L13.4691 20.3632L13.3365 20.316L13.0679 19.9947L13.0086 19.9975L12.9958 19.7817L12.9337 19.679L12.9303 19.5847Z" fill="#00212E" stroke="#00212E" stroke-width="0.5"/>
<path d="M7.14064 31.8795L7.17505 31.8656L7.21555 31.9527L7.11345 31.9721L6.97806 31.8933L7.04409 31.8501L7.14064 31.8795ZM1.96794 31.3268L2.13108 31.379L2.12997 31.4195L2.21154 31.4222L2.29866 31.5249L2.49287 31.5599L2.57111 31.627L3.18759 31.7535L3.47225 32.0509L3.62485 32.0371L3.84015 32.0803L3.80852 32.1885L3.90063 32.2374L3.93781 32.2235L3.92837 32.0526L4.09762 32.057L4.19306 32.1314L4.2774 32.1442L4.25021 32.1974L4.31458 32.3223L4.31902 32.1525L4.35231 32.2213L4.39781 32.1553L4.55596 32.2479L4.78013 32.2424L4.85837 32.1147L4.98933 32.0753L5.18409 31.9183L5.54144 31.8007L5.58472 31.8345L5.62246 31.6098L5.67073 31.5576L5.64243 31.3867L5.73399 31.2574L6.11687 31.3335L6.09911 31.3629L6.20787 31.4428L6.2395 31.617H6.27557L6.39431 31.8234L6.75888 31.8584L7.20834 32.2718L7.06518 32.0432L7.21555 32.0038L7.26993 32.0798L7.35871 32.1075L7.41864 32.2041L7.44139 32.1691L7.38424 32.0931L7.52185 32.1003L7.35871 32.0343L7.62451 32.0398L7.58788 32.0032L7.34207 31.9782L7.26938 31.8534L7.27382 31.789L7.36759 31.7835L7.45471 31.7302L7.47857 31.9011L7.66723 31.9866L7.49688 31.8478L7.51519 31.7607L7.54849 31.8379L7.59343 31.678L7.75213 31.7019L7.81428 31.7496L7.85035 31.8689L7.99795 32.0626L7.42364 32.8333L6.5175 33.4831L6.48753 33.5364L6.32606 33.5741L6.27335 33.5153L6.17125 33.5713L6.13962 33.5181L6.08191 33.5197L5.84497 33.6845L5.82832 33.6634L5.75008 33.7933L5.62468 33.8155L5.58528 33.9231L5.38607 33.9803L5.31782 33.871L5.29119 33.9159L5.24014 33.9187L5.22405 34.0263L5.16523 34.0752L4.95603 34.1462L4.88778 34.0441L5.01485 33.9154L4.96325 33.8288L4.70855 33.9953L4.64696 33.9575L4.56428 33.9881L4.51323 33.967L4.39226 34.0286L4.23523 33.9714L4.23023 34.0358L4.1187 33.9492L4.10483 33.5281L4.15865 33.3799L3.99995 33.2706L3.96056 33.2539L3.90784 33.3055L3.78133 33.1613L3.52941 33.1274L3.47336 33.1496L3.27915 33.0936L3.22755 33.0209L3.13432 33.0192L2.94899 32.886L2.79695 32.9138L2.36247 32.6713L2.27535 32.7751L2.31752 32.8505L2.28312 32.9388L2.10944 32.8283L2.04174 32.8955L1.94242 32.8827L1.89747 32.9782L1.84919 32.9854L1.78316 32.9193L1.69715 32.936L1.80369 33.5114L1.14171 33.5769L0.928074 33.5264L0.888677 33.3766L0.825419 33.3166L0.762161 33.3571L0.582377 33.1235L0.473618 33.0647L0.526333 33.0214L0.524668 32.9415L0.431446 32.8633L0.397043 32.7762L0.475837 32.734L0.323242 32.5342L0.544644 32.2834L0.528552 32.1575L0.453087 32.0593L0.458636 31.9122L0.385945 31.7718L0.505247 31.6553L0.521893 31.6764L0.889787 31.4883L0.962477 31.4772L1.01242 31.5332L1.17112 31.4378L1.42859 31.3773L1.6228 31.2497L1.90746 31.2708L1.96794 31.3268ZM3.23309 29.4502L3.26306 29.3941L3.27083 29.4307L3.23309 29.4502ZM3.86345 29.3064L3.96444 29.3292L3.75525 29.342L3.77023 29.2887L3.86345 29.3064ZM3.9933 29.2737L3.94169 29.2354L4.0055 29.2465L3.9933 29.2737ZM3.91728 29.2343L3.92671 29.2809L3.80741 29.2471L3.91728 29.2343ZM3.17539 29.2215L3.26472 29.312L3.22089 29.4291L3.15153 29.2559L3.17539 29.2215ZM3.0461 29.0839L3.06885 29.1133L3.01336 29.1033L3.0461 29.0839ZM4.51656 26.3122L4.58925 26.3833L4.84062 26.4626L4.92995 26.4454L5.10807 26.219L5.4116 26.0947L5.57418 26.1175L5.69903 26.2307L6.03419 26.3056L6.09412 26.4937L6.23894 26.699L6.25226 26.9731L6.35769 27.2206L6.80715 27.2772L6.97306 27.3366L7.26716 27.3466L7.95578 27.8493L8.12002 27.9031L8.0268 28.0779L7.78543 28.1839L7.68554 28.2827L7.61119 28.5462L7.65225 28.69L7.94191 29.0451L8.02014 29.1999L8.01515 29.3408L7.86699 29.7886L7.86866 29.8968L8.35974 30.9977L8.25431 31.1309L8.29926 31.4061L8.26263 31.5327L8.29149 31.5959L8.34698 31.6031L8.37694 31.6914L8.06065 31.7052L8.08285 31.5987L7.97464 31.4189L7.81483 31.3457L7.75713 31.3568L7.69997 31.2669L7.26716 31.4228L6.64013 31.2486L6.40042 31.0677L6.35713 30.9833L6.38765 30.9356L6.24616 30.8918L6.23728 30.8313L6.20509 30.8479L5.9848 30.7369L5.73288 30.4856L5.37276 30.6737L5.29119 30.6471L5.30062 30.7186L5.26122 30.727L5.30007 30.8635L5.07977 31.4167L5.01818 31.4461L4.8223 31.3873L4.70356 31.4727L4.32512 31.5637L3.96944 31.2719L3.98442 31.2114L3.87621 31.2042L3.78133 31.1426L3.69865 31.1886L3.58712 31.1759L3.53607 31.1337L3.48945 30.9706L3.44562 30.975L3.313 30.7969L3.11657 30.6548L2.84689 30.6437L2.74091 30.763L2.50896 30.7858L2.44404 30.7336L2.4396 30.626L2.40908 30.6304L2.40353 30.7469L2.35969 30.7342V30.6881L2.34138 30.7259L2.32307 30.6765L2.31142 30.7114L2.40187 30.7786L2.16326 30.783L2.06394 30.6565L2.01233 30.6609L1.79038 30.4712L1.53901 30.0578L1.15891 29.7848L0.973575 29.5722L1.02518 29.3497L1.54345 28.999L2.18546 28.6339L2.44903 28.6367L2.68264 28.7227L3.11379 28.5679L3.16762 28.2816L3.12045 28.2238L3.18371 28.2127L3.39346 27.9786L3.38014 27.9519L3.42342 27.9409L3.47669 27.8238L3.44839 27.7883L3.49167 27.7755L3.49334 27.6157L3.36349 27.5746L3.2625 27.4914L3.13932 27.2583L3.12988 27.0758L3.27027 26.7872L3.37237 26.7095L3.91839 26.5325L4.37673 26.578L4.41446 26.4027L4.51656 26.3122ZM4.23911 27.2411L4.18473 27.1862L4.14423 27.1934L4.10483 27.2217L4.08652 27.3194L3.82683 27.4958L3.52108 27.6157L3.51831 27.7722L3.56214 27.7777L3.5455 27.8371L3.49722 27.8388L3.42453 28.0152L3.47447 28.0052L3.39457 28.0929L3.47558 28.1351L3.38791 28.1095L3.35351 28.2322L3.30412 28.1473L3.22311 28.2177L3.15541 28.5535L3.16873 28.5801L3.21534 28.5462L3.217 28.5745L3.30412 28.5562L3.45061 28.6622L3.55271 28.6639L3.86345 28.5568L3.96888 28.5795L4.02492 28.5263L4.22413 28.4785L4.38671 28.5096L4.52988 28.4758L4.56428 28.5196L4.73352 28.5507L4.8273 28.6506L4.97212 28.903L5.00098 28.8775L4.97379 28.9169L5.06535 29.059L5.0548 29.1028L4.84672 29.1816L4.7485 29.3142L4.67803 29.337L4.48548 29.1594L4.33289 29.1944L4.22912 29.2787L3.84292 29.1772L3.6082 29.3137L3.33963 29.5855L3.2958 29.4868L3.32021 29.4024L3.3757 29.5079L3.37848 29.4701L3.21423 29.1633L3.31966 29.0251L3.18593 29.1522L2.96564 28.9746L2.89738 28.9635L2.82802 28.7876L2.84412 28.7144L2.67543 28.7848L2.69096 28.9158L2.8369 29.1244L3.04388 29.2471L3.17483 29.5667L3.32687 29.802L3.34074 29.7764L3.37071 29.8314L3.35129 29.7809L3.49167 29.7581L3.38791 29.7553L3.36238 29.7215L3.56103 29.6216L3.53107 29.5639L3.59766 29.3952L3.69587 29.332L3.73805 29.3347L3.71419 29.3913L3.75192 29.3503L4.14201 29.3703L4.25631 29.3026L4.45829 29.2676L4.56872 29.3125L4.61533 29.3886L4.71965 29.4097L4.77125 29.3381L4.80399 29.3847L4.94272 29.3464L5.0659 29.3703L5.17189 29.307L5.29674 29.3281L5.42825 29.5855L5.56419 29.5262L5.66629 29.5445L5.96649 29.6527L5.97537 29.7664H6.00256L5.99313 29.6538L6.10188 29.6987L6.13851 29.7731L6.32884 29.9196L6.39376 29.8996L6.46589 30.1232L6.4326 30.2176L6.63957 30.5283L6.68508 30.53L6.76387 30.7014L7.15895 30.904L7.29324 30.8812L7.54183 30.7364L7.71107 30.7658L7.79708 30.8191L7.89363 30.8119L7.83648 30.0894L7.45915 29.919L7.42419 29.8319L7.47358 29.7304L7.38923 29.6333L7.25661 29.6105L7.19169 29.6516L7.12344 29.5894L6.83712 29.6094L6.59241 29.5645L6.58297 29.5112L6.51805 29.4818L6.48642 29.3397L6.39487 29.282L6.38987 29.216L6.18512 29.1566L6.20898 29.0906L6.15293 29.0074L5.97037 28.8919L5.84996 28.8736L5.80169 28.8087L5.86162 28.6494L6.14683 28.5945L6.4154 28.4208L6.6085 28.3615L6.83323 28.3997L6.88761 28.5041L6.98305 28.5579L6.9714 28.5185L7.21888 28.4891L7.33208 28.5174L7.34706 28.4763L7.44916 28.4608L7.4536 28.4297L7.41254 28.4186L7.47025 28.3864L7.46692 28.3354L7.31266 28.3737L7.05297 28.3665L6.96807 28.1955L6.83046 28.1079L6.82324 27.9614L6.87429 27.9558V27.9109L7.0058 27.7949L7.25495 27.8443L7.63505 28.0602L7.59121 27.9203L7.3232 27.8016L7.33208 27.7239L7.27215 27.7788L7.15451 27.7378L7.14841 27.6967L7.33097 27.7011L7.28769 27.6434L7.14286 27.6717L7.27992 27.6168L7.31932 27.6368L7.3454 27.6013L7.26105 27.4414L6.89926 27.5219L6.77885 27.6051L6.87374 27.7194L6.85876 27.7616H6.81769L6.7844 27.8898L6.66399 27.9647L6.56022 28.1018L6.4559 28.1528L6.37323 28.1162L6.02309 28.3026L5.68128 28.3509L5.48096 28.2L5.40549 28.0685L5.29285 28.1573L5.04703 28.0968L5.30062 27.8754L5.22793 27.8937L4.98544 28.0857L4.98988 27.9514L4.93384 27.7638L4.85671 27.669L4.86115 27.6068L4.70744 27.4614L4.61256 27.4725L4.39559 27.361L4.4017 27.2761L4.35619 27.2084L4.26131 27.179L4.20526 27.1862L4.2097 27.22L4.23911 27.2411Z" fill="#00212E" stroke="#00212E" stroke-width="0.5"/>
<path d="M8.96823 26.8192L9.14302 26.9491L8.92273 26.9407L8.86225 26.8742L8.96823 26.8192ZM8.31124 26.3781L8.60533 26.4347L9.03648 26.6117L9.0892 26.6822L8.88611 26.7615L8.63474 26.7288L8.20082 26.4347L8.24465 26.3725L8.31124 26.3781ZM10.2828 18.1807L10.8787 18.4498L10.9342 18.3466L11.053 18.3138L11.2916 18.4043L11.0801 18.8726L10.9065 19.0485L10.9226 19.1617L10.8532 19.5252L10.7761 19.6422L10.7849 19.7149L10.8449 19.7638L10.9742 19.7937L11.0674 19.7621L11.3226 19.8292L11.5024 19.8165L11.7871 19.6506L11.9874 19.635L12.135 19.5335L12.3065 19.5607L12.3198 19.8709L12.3708 19.9097L12.4391 19.8237L12.7032 19.6767L12.7543 19.6023L12.8403 19.5651L12.9318 19.5851L12.9352 19.6794L12.9973 19.7821L13.0095 19.9979L13.0694 19.9952L13.338 20.3164L13.4706 20.3636L13.7647 20.5678L13.5822 20.6577L13.6149 20.8819L13.5711 20.9163L13.3363 20.9035L13.287 20.8652L13.267 20.7809L13.1332 20.8236L13.0628 20.8536L12.9951 21.0406L12.8869 21.0889L12.873 21.1471L13.1732 21.3624L13.1826 21.7087L13.2476 21.8385L13.2442 21.914L13.6044 21.8896L13.5594 21.9806L13.3757 22.0477L13.2309 22.1576L13.0545 22.3812L13.0694 22.4877L12.9923 22.5432V22.5943L13.0167 22.6742L13.3707 22.6015L13.4346 22.758L13.0822 22.8445L13.1604 22.9483L13.227 22.971L13.3402 23.193L13.5933 23.4788L13.6643 23.7584L14.0083 23.6763L14.1936 23.3894L14.4422 23.4466L14.6864 23.2035L14.7885 23.2091L14.9239 23.3156L15.0127 23.3056L15.0809 23.1747L15.324 22.9444L15.5848 22.8351L15.7518 22.8623L15.9538 22.9616L16.0398 23.2429L16.3161 23.3439L15.9316 24.0314L15.9371 24.1208L15.8961 24.1008L15.774 24.3266L15.7379 24.4853L15.5343 24.4615L15.4422 24.6374L15.2024 24.7084L15.2102 24.805L15.2707 24.8421L15.1098 24.9459L15.0249 24.9121L14.8029 24.9176L14.703 24.8299L14.6803 24.8538L14.713 24.9576L14.6936 25.0358L14.7463 25.1235L14.935 25.149L14.8778 25.4253L14.7463 25.4226L14.1942 25.3221L13.9512 25.3449L13.7442 25.4481L13.5855 25.6123L13.3974 25.7311L12.9585 25.7255L12.7049 25.8359L12.5689 25.9974L12.4441 26.3159L12.1383 26.6117L11.8725 26.7998L11.3193 26.9579L11.1806 27.0695L10.5219 27.2504L10.3288 27.2304L9.66961 27.0101L9.49149 27.1599L9.46708 27.2237L9.41769 27.2254L9.2823 27.3908L9.20129 27.5816L9.04647 27.707L8.86391 27.7919L8.36007 27.9318L8.12202 27.9035L7.95777 27.8497L7.26915 27.3469L6.97506 27.3369L6.80915 27.2776L6.35969 27.221L6.25426 26.9735L6.24094 26.6994L6.09611 26.4941L6.03618 26.3059L5.70103 26.231L5.57618 26.1178L5.41359 26.0951L5.11007 26.2194L4.93195 26.4458L4.84261 26.463L4.59125 26.3836L4.51855 26.3126L4.67947 26.2094L4.75938 26.0013L4.77713 25.8981L4.68502 25.5924L4.83096 25.4264L5.2155 25.3388L5.83476 25.0924L6.01565 25.0952L6.10333 25.1362L6.14106 25.1717L6.06226 25.1562L6.05006 25.2184L6.26369 25.3726L6.24704 25.2988H6.32972L6.4124 25.1656L6.54668 25.0819L6.51173 24.9387L6.22873 24.4992L6.2426 24.3916L6.41462 24.0936L6.40852 24.0498L6.29254 23.9704L6.26202 24.0853L6.13551 24.027L5.97404 24.0853L5.92687 24.0414L6.06226 23.5215L6.06504 23.405L6.0212 23.4105V23.3339L6.07503 23.2091L6.17491 23.1908L6.26091 23.0898L6.34248 23.127L6.4235 23.1142L6.64545 23.2407L7.12655 22.834L7.33574 22.5149L8.20414 21.4667L8.26296 21.4923L8.30403 21.4312L8.25852 21.4667L8.23744 21.4251L8.62198 21.04L9.2762 20.1522L9.86105 19.104L10.2828 18.1807ZM6.34748 25.3144L6.32473 25.4675L6.38022 25.4292L7.37569 26.0002L7.64981 26.0979L7.84125 26.3071L8.06265 26.4796L8.23466 26.7116L8.46994 26.8714L8.84948 27.0495L9.28674 27.0878L9.37441 27.0567L9.47374 26.7898L8.73462 26.387L8.13256 26.2044L7.97109 26.0191L7.97442 25.8887L7.84069 25.74L7.71529 25.6706L7.55881 25.6689L7.32187 25.4026L7.05607 25.4309L6.99559 25.3488L6.97783 25.407L6.94454 25.3643L6.73535 25.2905L6.60384 25.1246L6.4346 25.2095L6.34748 25.3144Z" fill="#00212E" stroke="#00212E" stroke-width="0.5"/>
</svg>
