<svg width="95" height="129" viewBox="0 0 95 129" fill="none" xmlns="http://www.w3.org/2000/svg">
<path d="M54.7729 65.7692L54.9118 66.0191L55.3561 66.2414L55.5506 66.4358L55.3007 67.1857L55.6618 67.6023L55.2451 67.769L54.9396 67.6578L54.6063 68.0189L54.5229 68.2689L54.3285 68.38L54.1618 68.6856L53.8285 68.7411L53.7731 69.1577L53.6341 69.491L53.412 69.7409L53.0231 69.991L52.7453 70.5464L52.412 70.8797L52.2731 71.1575L52.412 71.5464L52.2453 71.8797L51.9955 71.9908L51.801 72.5462L51.4121 73.0184L51.2733 73.4906L50.9956 73.3517L50.6345 73.4906L50.7178 73.7961L50.4679 73.9905L50.4401 74.5182L50.2456 74.6015L49.8012 74.9904L49.4679 75.1571L49.2734 75.2404L49.218 75.4904L48.8847 75.4626L48.6903 75.2404L48.3848 74.796L48.4958 74.1849L48.3848 73.9628L47.9125 73.9072L47.7458 73.7683H47.5792L47.4126 73.5462L46.9126 73.4628L46.635 72.9351L46.8016 72.6018L46.4683 72.5184L46.3849 72.1018L46.2183 71.9352L46.4683 71.6297L46.5515 71.1853L46.7182 71.1297L46.746 70.0187L46.6904 69.7688L46.7738 69.6299L47.3015 69.3799L47.6348 69.3521L47.6904 69.1855L47.607 68.8799L48.3014 68.5745L48.4402 68.0189L48.3848 67.6578L48.6069 67.4079L48.9957 67.2135L48.9679 66.6302L49.3012 66.5469H49.7457L49.9956 66.4635L50.2456 66.2691L50.19 66.0747L50.3567 65.4637L50.1068 65.1026L50.3567 65.0193L50.6067 64.9915L50.94 64.7415L50.9122 64.4082L50.5789 64.4916L50.4679 64.1027L50.0234 63.7139L49.9402 63.5194L49.7457 63.4916L49.6901 63.2417L49.4679 63.0473L49.4124 62.7972L49.1346 62.7417L48.9125 62.8806L48.6903 62.7417L48.468 63.1583L48.3292 62.8529L48.1347 62.6584L48.2736 62.3806H48.468L48.6903 62.1307L48.6347 61.8807L48.2736 61.9085L47.9125 61.4918L47.9403 61.2697L47.6348 60.9919V60.6031L47.4404 60.2698L47.7458 60.1587L48.2181 59.7143L48.5791 59.5198L48.7457 59.2421L49.1068 58.8533L49.4124 58.7143L50.5511 57.659L50.9678 57.5479L51.4677 57.7145L50.8844 58.4089L50.9678 58.4922L50.8844 59.0199L50.9678 59.6865L51.3011 60.242L51.5232 60.3809L51.7732 60.6586L52.2175 60.9364L52.5786 60.7419L52.6898 60.5198L53.2176 60.3253L53.3842 60.5753L53.3286 60.7697L53.4674 61.0475L53.7175 61.0752L53.7731 61.2975L53.7453 61.8807L53.5508 62.3806L53.3564 62.4084L53.4674 62.964L53.3564 63.2695L53.5508 63.4639L53.4674 63.8527L53.3286 63.936L53.6897 64.2971L53.9119 64.5749V64.7693L54.1064 64.9915L53.9952 65.3804L54.3285 65.297L54.5229 65.4359V65.6303L54.7729 65.7692Z" fill="#00212E"/>
<path d="M71.382 16.0256L71.8541 16.2756L71.7987 16.8589L71.9097 17.1644H72.0486L72.2986 17.4143L72.3541 17.6366L72.1598 17.9421L71.7709 17.7754L71.8819 17.4977L71.4654 17.581L71.4376 17.3033L71.1876 17.0532L70.9377 16.9977L70.8543 16.8311L70.5488 16.6922L70.8543 16.2756L70.6876 15.9423L70.7987 15.859L70.771 15.609L71.0209 15.2202L71.2154 15.1924L71.2432 15.4423L71.4376 15.5812L71.382 16.0256ZM70.3544 24.0248L70.2709 24.247L69.8544 24.3025L69.771 24.3858L69.5211 24.1637L69.3545 24.5803L69.1879 24.497L68.6045 24.5247L68.4101 24.7747V24.9969L68.2434 25.1913L67.9936 25.3024L68.049 25.5801L68.2434 25.969L68.0212 26.2745L67.6325 26.4411V26.7189L67.2158 26.5523L67.1047 26.8578L66.7991 27.0245L66.2992 27.2466L66.327 27.4688L66.1325 27.5799L65.8827 27.3022L64.7994 24.7469L64.7716 24.497L64.966 24.4136L65.2993 24.4692L65.4382 24.358L65.7438 24.5247L65.6604 24.9691L65.9105 25.3857L66.2992 25.1913L66.5492 24.8302L66.6881 24.858L66.9659 24.7191L67.1602 24.497L67.1326 24.3303L66.8547 24.1081H66.5492L66.2992 23.9414L66.5492 23.7193L66.4104 23.4693L66.0493 23.3304L65.8548 23.386L65.4938 23.8303L64.6884 24.3025L64.5771 24.4692H64.3827L64.3273 23.9692L64.1884 23.6359L64.2439 23.5248L63.9662 22.886L63.994 22.5805L63.8828 22.2194L62.9107 20.5529L61.9663 19.192L62.0219 18.8587L62.5218 18.6642L62.7163 18.942L63.0218 19.6086L63.3829 19.7474L63.5773 19.9419L63.4941 20.2751L63.7717 20.5251L64.0216 20.3863L63.8828 19.9419L63.9662 19.4419L63.7995 19.1364L63.8273 18.8587L63.9662 18.5809L63.6883 18.3309L63.4107 18.5254L63.1884 18.2753L62.8551 18.3587L62.6329 18.192L62.7163 17.9977L62.7441 17.6088L62.994 17.5533L63.2996 17.7476L63.6883 17.581L63.7439 17.3866L64.3273 16.8311L64.716 16.6922L64.7438 16.4423L65.1049 16.3034L65.1327 16.0256L65.3827 15.8312L65.7438 16.47L66.1603 16.9422L66.577 17.22L66.9103 17.2477L66.8825 17.3866L66.4104 17.6643L66.4936 17.8587L66.7715 17.9421L67.0213 18.1365L66.6603 18.3309L66.4104 18.3587L66.2159 18.4976L66.4936 18.9697L66.3826 19.2753L66.2437 19.2198L66.1603 18.7476L65.9937 19.0253L66.1325 19.3031L66.1603 19.7752L65.9381 20.053L65.9937 20.2474L66.2437 20.4974L66.4936 20.5251L66.5492 20.3307L67.0491 20.3029L66.7437 20.5251L66.5492 20.4974L66.2992 20.7195L66.3548 21.3584L66.577 21.8861L66.5492 22.025L66.7991 22.2749L66.7159 22.4416L66.4658 22.1361L66.2992 22.3027L65.9659 22.3582L65.7714 22.1916H65.6048L65.7438 22.6638L65.8827 22.8027L66.0215 22.6082L66.2992 22.4694L66.8825 22.5527L67.2992 22.5805L67.4102 22.8027L67.6047 22.8305L67.8824 23.0249L67.9658 23.1915L68.1878 23.1637L68.1324 22.886L68.5213 22.8305L68.6879 22.9416L69.0212 23.497L69.3267 23.4415L69.4377 23.5526L69.66 23.3582L70.3544 23.9136V24.0248ZM67.6047 21.4695L67.7435 21.5806L67.7157 21.9972H67.4935L67.4102 22.1639L67.188 22.2194L66.9381 22.025L67.0213 21.8583L67.4102 21.8305L67.6047 21.6362V21.4695ZM67.0491 18.3309L67.3268 18.5531V18.8587L67.0213 18.8031L66.8547 18.692L67.0491 18.3309ZM69.6322 22.4972L69.7988 22.886L69.6878 23.0804L69.4655 22.8027L69.6322 22.4972ZM68.9378 16.2756H69.0212L69.049 16.8033L68.9656 16.8589L68.6045 16.7478V16.4145L68.9378 16.2756ZM69.5211 21.5806L69.771 21.8028L69.3823 22.025L69.4933 22.1916L69.4377 22.4416H68.9656L68.3546 22.0528L68.6879 21.8028L68.7434 21.9972H68.9934L69.0212 21.8028H69.3267L69.5211 21.5806Z" fill="#00212E"/>
<path d="M77.4632 43.9115L77.8243 43.717L77.8521 43.4393L77.7409 43.1338L77.8521 43.0227L77.6855 42.7727L77.6577 42.2728L77.4076 42.4394L77.1022 42.3839L76.6856 41.8284L76.4356 41.1895L76.5744 40.7729L77.3522 40.9951L77.6577 40.7174L77.0189 39.9674L77.3522 39.3286L76.7689 38.9398L76.6022 38.9954L76.5188 38.7731L76.1301 38.8009L76.1855 38.5232L76.63 37.8843L76.8245 37.9121L77.0744 38.3843L77.4632 38.412L78.0466 38.0787L78.1854 38.2732L77.991 38.551L78.1298 38.7454L78.4353 38.8564L78.6853 38.2732L79.3519 38.551L79.2963 38.3565L79.5464 37.2733L79.2409 36.9122L78.8242 36.8289L78.5465 36.5234L78.3243 36.5512L78.0188 36.4122L77.8243 36.1346L77.6299 35.5512L77.7133 35.3013L77.5743 35.1068L77.491 34.8013L77.6021 34.6625L77.4076 34.3847L77.0466 34.107L76.8799 34.1625L76.5466 34.107L76.1579 33.8292L76.1301 33.5792L75.8801 33.3848L75.5468 33.3571L75.2691 32.7737L75.5468 32.6349L75.2691 32.3293L75.2969 31.9683L75.019 31.8572L75.1857 31.3295L74.8802 30.6351L74.5191 30.0519L74.5469 29.7463L74.2969 29.2742L74.4913 29.0797L74.2969 28.802L74.3247 28.5798L74.658 28.7186H74.9634L74.8524 28.4409L75.0747 28.0521L75.1301 27.691L75.2691 27.5244V27.7743L75.4635 28.2465L75.2969 28.3298L75.1857 28.6631H75.4635L75.5468 28.8298L75.2691 29.0519L75.2413 29.3019L75.3523 29.5797L75.4912 29.413L75.6302 29.9407L75.8245 29.8852L75.9913 30.1907L76.38 30.2462L76.63 30.2185L76.8523 30.3018L77.0466 30.0241L77.6299 30.4407L78.7964 31.0517L78.9354 31.1906L79.3241 31.1628L80.1851 31.8017L80.6574 32.0517L81.2962 32.3293L81.7683 32.4127L82.6849 32.6627L83.2405 32.9127L83.9903 33.4404L84.1847 33.7737L84.3791 33.3571H85.1847L86.1012 33.3015L86.8233 32.9682L86.7955 32.8293L87.1288 32.6904L87.3233 32.3293L87.5455 32.135L88.0176 31.4128L88.2955 31.135L88.1843 30.9406L88.4621 30.8018L88.6288 30.3852L89.0453 30.3574L89.2675 30.1907L89.4342 30.2462L89.7119 30.1074L89.9341 29.663L90.0175 29.8296L90.2952 29.8019L90.3786 29.5797L90.573 29.413L90.7119 29.1909L90.934 29.0797L91.2396 29.1075L91.3506 29.4963L90.4896 29.7463V29.9963L90.6007 30.1629L90.5174 30.6073L90.6007 30.774L90.4618 30.9406L90.6285 31.1906L90.934 30.8851L91.2118 31.1906L90.434 31.9683L89.6286 34.4959L89.5176 34.5236L88.7398 33.8848L88.601 33.6626L88.1843 33.6348L88.3231 34.107L88.3509 34.4959L88.101 34.5792L88.1288 34.9402L87.8788 34.9958L87.6844 35.2179L86.8511 35.579L86.7955 35.7457L86.8789 35.9679L86.8511 36.2734L86.6567 36.6345L86.129 36.94L84.9625 37.5233L85.1013 38.3287L84.8513 38.5232L84.7124 38.4398L84.5736 38.6065L84.4625 38.9676L84.1293 39.0231L83.4625 39.5231L83.3793 39.7452L83.0738 40.1063L82.6849 40.0785L82.3794 39.8008L82.0462 39.8564L81.8517 40.0508L81.6573 39.9119L81.324 40.3563H81.0739L80.9351 41.134L81.0185 41.3562L80.9907 41.5784L80.1851 42.4116L80.2129 42.7172L80.3241 42.9949L79.8518 43.0227L79.102 42.9949L78.852 43.5782L79.0742 44.1614L78.852 44.1059L78.6019 44.3004L78.7131 44.5225L78.2965 44.6336L77.4632 43.9115ZM77.6577 26.5244L77.7409 26.8578L77.4354 26.8022L77.491 26.5522L77.6577 26.5244ZM75.6302 28.4687L75.7968 28.552L76.3522 29.3575L76.9077 29.9685L76.3522 29.6075L76.1855 29.7186L75.9635 29.663L75.8523 29.0519L75.6024 28.6908L75.6302 28.4687Z" fill="#00212E"/>
<path d="M51.2704 73.4926V73.9648L51.4092 74.1593L51.8259 74.1037L51.9092 74.3537L52.1314 74.2703L52.048 74.8537L52.3537 75.0203L52.2147 75.4647L52.4369 75.6036L52.7147 75.548L52.9368 76.2424L53.3813 76.5201L53.2425 77.0201L53.4924 76.909L53.7424 77.3811L53.909 77.3256L53.9368 77.0756L54.2423 76.9645H54.5478L54.6034 76.659L54.8533 76.5757L55.0199 76.048L54.9367 75.6314L55.1866 75.548L55.5755 74.9925L56.1588 74.8259L56.5199 74.6036L56.8532 74.4648L56.992 74.2981L56.8254 73.7426L56.992 73.6316V73.4093L57.1586 73.2149L57.4087 73.1872L57.603 72.8261L57.853 72.7149V72.5483L58.2697 72.4928L58.2973 72.3261L58.5752 72.215L58.7418 71.6873L58.9085 71.5762L59.0751 71.7151L59.2418 72.0484L59.4362 71.7984L59.6584 71.8261L60.1584 71.604H60.4639L60.6027 71.8261L60.8805 71.8539L61.1304 71.7428L61.2415 71.9929L61.1582 72.1317L60.5749 72.8539L60.2972 73.3538L60.1862 73.8537L60.2972 74.187L59.9361 74.3815L59.8251 74.6314L58.9917 75.3258L58.8807 75.7147L58.464 76.1035L58.4085 76.5757L58.2973 76.659L57.7142 76.8257L57.6586 76.9923L57.3809 77.1034L57.103 77.6033L57.0198 78.2144L56.8532 78.4644L56.0476 80.5753L55.6311 81.103L55.5755 81.4918L55.1033 82.1306L54.6866 82.3806L54.3256 82.5195L53.8812 83.1305L53.6034 83.1028L53.2425 83.3527L52.6313 83.6027L52.4369 83.6304L52.1314 83.9638L51.937 83.9915L51.6315 84.4359L51.2426 85.3247L51.1038 86.0746L51.1316 86.658L51.2426 88.0189L51.1594 88.2133L51.4648 88.4077L51.7425 88.7411H51.437L51.2148 88.8799L50.8815 88.8521L50.6871 89.0187L50.8259 89.4354L51.076 89.3243L51.187 89.0187L51.437 89.1577L51.9926 88.7966L52.4091 89.0187H52.6313L52.4369 89.5188L52.5203 89.6576L52.7702 88.991L53.1313 89.1021L53.3257 89.2965H53.6312L53.6868 89.5465L54.0757 89.7409L54.2701 90.2964L54.2423 90.6019L54.0479 91.1852L53.8812 91.3796L53.2701 91.7685H53.048L52.8258 91.4074L52.909 90.5741L52.798 90.3242L52.6313 90.4631L52.6869 90.9352L52.5757 91.0741L52.7424 91.6574L52.4091 91.8795L52.2147 91.7685H51.9648L51.7981 91.4907L51.6593 91.5741L51.3536 91.1852L51.076 91.1297L50.2984 91.1852L48.9372 91.3796L48.1318 91.5463L47.4097 91.8795H47.2986L46.7153 92.1296L45.7987 92.6017L43.1324 94.1571L41.6048 95.2404L40.7992 95.9903L40.3827 96.4902L40.1883 96.8791L40.2993 97.0179L40.2715 97.5734L39.8272 98.3789L39.5493 99.1843L39.5217 99.5176L39.6328 101.601L39.605 102.073L39.4383 102.74L39.2161 102.628L38.9384 102.684L38.4941 102.517L38.3272 102.573L38.1606 102.406H37.8551L37.5496 102.24L36.7997 102.073L36.1053 101.684L35.6332 101.573L35.3277 101.406L34.9944 101.767L34.9388 102.101L34.6888 102.434L33.7445 102.878L33.5779 102.406L33.3556 102.351L32.7723 102.656L32.2169 102.823L31.6892 102.795L31.6058 102.462L31.3003 102.101L30.9392 101.517L30.967 101.267L30.5781 99.7121L30.1893 99.6287L29.7727 99.9065L29.2172 99.6287L29.1894 99.2955L28.995 98.7955L28.8839 98.8789L28.8561 99.1843L28.6895 99.2121L28.384 99.0177L28.3006 98.8232L28.4394 98.5178L28.2728 98.24L28.4118 97.9622L28.2452 97.7123L27.8285 97.7679L27.6618 97.7123L27.6062 97.3235L27.7729 97.0735L27.6618 96.8791L27.8563 96.518L27.8007 95.7681L27.8563 95.5736L27.5508 95.1014L27.7729 94.7403L28.0507 94.5737L28.3006 94.1849V93.9627L28.5228 93.6294L28.6339 93.3794L28.8561 93.3516L28.7451 93.0739L28.8283 92.8795L28.7451 92.5739L29.1616 92.2406V92.0185L29.4394 91.6852L29.7449 91.5463L29.9116 91.213H30.1893L30.1616 90.9908L30.6892 90.7409L30.8282 90.4631L30.7448 90.3242L31.1893 90.102L31.1615 89.6854L31.6058 89.4632V88.7688L31.9947 88.6855L32.0779 88.4077L32.4114 88.2689L32.4946 88.0189L33.2168 87.7411L33.3556 87.63L33.5501 87.8523L33.9112 87.7133L33.939 87.5745L34.3278 87.38L34.4111 87.1023L34.7722 86.9634L34.8832 86.8246L35.0498 86.9912L35.3831 87.019L35.6332 86.7135L35.7998 86.5746L35.8832 86.2135L36.2441 86.1302L36.2165 85.908H36.522L36.7997 85.7413L37.0497 85.6858L37.133 85.5469L37.4108 85.4359V85.1581L37.9663 84.7137V84.9358L38.2718 84.8803L38.5217 84.3804L38.7717 84.2971L38.6883 84.0471L38.855 83.7972L39.1328 83.7416L39.2161 83.4916L40.0771 83.2694L40.0494 83.0472L40.2161 82.9361L40.1605 82.6306L41.1325 81.964L41.4936 82.1028L41.6603 81.7696L41.9935 81.6862L42.0769 81.5473L42.2436 81.6862L42.7991 81.5473L42.9936 81.6306L43.3547 81.4918L43.6045 81.5751L43.8546 81.464L43.9934 81.2974L43.91 81.0474L44.1601 80.8529L44.1045 80.4641L44.7434 80.2697L44.7988 80.0753L45.0489 80.0475L45.0211 79.7143L45.271 79.492L45.3266 79.1865L45.7432 79.0476L45.6876 78.881L46.0209 78.7976L46.1321 78.881L46.6597 78.6865L46.6321 78.4644L46.8265 78.1588L47.2152 77.8811L47.243 77.6033L47.6041 77.2978L47.6319 77.0478L48.0208 76.9645L48.1596 76.6867L48.3541 76.6034L48.4929 76.3812L48.8818 76.2424L48.9928 76.2979L49.2151 76.1591L49.2429 75.7147L49.5206 75.2703L49.465 75.1591L49.7983 74.9925L50.2427 74.6036L50.4372 74.5203L50.465 73.9926L50.7149 73.7982L50.6316 73.4926L50.9927 73.3538L51.2704 73.4926Z" fill="#00212E"/>
<path d="M89.9059 42.717L89.4894 42.5781L89.3228 42.2448L88.9895 42.1615L88.7951 41.967L88.4896 42.0781L88.0729 42.0503L87.9895 41.6615L87.7952 41.4949L87.6562 41.5504L87.6008 41.106L87.2397 41.1338L87.0174 40.8283L86.8786 40.8839L86.6563 40.1895L86.2675 40.1062L86.5453 39.5229L86.1286 39.3563L85.8231 39.384L85.4898 39.1618V39.7173L85.351 39.6896L84.1289 39.0229L84.4622 38.9674L84.5732 38.6063L84.7121 38.4397L84.8509 38.523L85.101 38.3285L84.9621 37.5231L86.1286 36.9398L86.6563 36.6343L86.8508 36.2732L86.8786 35.9677L86.7952 35.7455L86.8508 35.5789L87.684 35.2178L87.8784 34.9956L88.1285 34.94L88.1007 34.579L88.3506 34.4957L88.3228 34.1068L88.1839 33.6346L88.6006 33.6624L88.7394 33.8846L89.5172 34.5234L89.6283 34.4957L90.4337 31.9682L91.2114 31.1905L90.9336 30.8849L90.6281 31.1905L90.4615 30.9404L90.6003 30.7738L90.5171 30.6071L90.6003 30.1627L90.4893 29.9961V29.7461L91.3503 29.4962L91.2392 29.1074L91.878 29.1907L92.0169 29.0518L92.2947 29.1351L93.0445 29.2462L92.8779 29.3573L92.9057 29.6073L93.4334 29.9406L93.7667 29.9128L94.0722 30.0517L94.2388 30.0239L94.7665 30.5238L94.5721 30.7738L94.2944 31.3293L93.7111 32.1625L93.5722 32.6625L93.6 33.0791L93.1834 33.5513L93.1557 33.7735L93.4334 33.9123L93.4612 34.3012L93.0723 34.579L93.0167 34.7734L93.3224 35.1066L93.1834 35.2456V35.5233L92.9613 35.6622L93.1557 35.9121L93.1279 36.7732L93.2112 37.0231L93.1834 37.4675L92.9891 37.5508L92.7668 37.9119V38.3008L92.8501 38.4675L92.4057 38.7729L92.2113 38.9952L92.1557 39.1895L91.9336 39.4118L91.2671 39.8839L91.1836 40.1895L90.9892 40.1062L90.767 39.8284L90.4337 39.9395L90.2116 40.2173L90.156 40.5783L90.2948 40.7172L90.1282 40.9672L89.9893 41.3283L90.0726 41.6615L89.9337 41.9115L89.9893 42.0781L89.9059 42.717Z" fill="#00212E"/>
<path d="M80.3776 56.8549L79.9054 56.6605L79.822 56.7994L79.4055 56.5771L79.1833 56.6883L79.0166 56.6327L78.7111 56.3272L78.4889 56.1605L78.6833 55.9106L78.7111 55.4662L78.5445 55.3273L78.5999 55.1329L78.4057 54.7718V54.5495L78.5445 54.2163L78.2945 54.0496L77.9612 53.2997L77.6835 53.2719V53.0775L77.5169 52.9386L76.8779 52.7442L76.7391 52.9108L76.4336 52.5776L76.6558 52.161L76.5168 52.0498L76.7113 51.6054L76.6002 51.5221L76.7669 50.9389L77.0446 50.1334L77.1002 49.5779L77.2668 49.4668L76.9613 49.2168L77.1002 48.8557L76.7947 48.6058L77.128 48.5225L77.2946 48.1336L78.0168 47.8003L78.1 47.2726L78.0168 47.1615L78.2667 46.6893L78.1834 46.5227L77.7945 46.4115L77.8223 45.9671L78.0168 45.8838L77.8779 45.3284L77.4334 45.2451L77.1836 45.0784L77.2112 44.9118L77.0446 44.4951L77.1002 44.384V44.2174L77.4612 43.9118L78.2945 44.634L78.7111 44.5229L78.5999 44.3007L78.85 44.1063L79.0722 44.1618L78.85 43.5785L79.1 42.9953L79.8498 43.023L80.3221 42.9953L80.2109 42.7175L80.1831 42.412L80.9887 41.5788L81.0165 41.3565L80.9331 41.1343L81.0719 40.3567H81.322L81.6553 39.9123L81.8497 40.0512L82.0442 39.8567L82.3774 39.8011L82.6829 40.0789L83.0718 40.1067L83.3773 39.7456L83.4605 39.5234L84.1273 39.0234L85.3494 39.6901L85.4882 39.7178V39.1624L85.8215 39.3845L86.127 39.3568L86.5437 39.5234L86.2658 40.1067L86.6547 40.19L86.8769 40.8844L87.0158 40.8289L87.238 41.1343L87.5991 41.1065L87.6546 41.551L87.7936 41.4954L87.9878 41.6621L88.0712 42.0509L88.4879 42.0787L88.7934 41.9676L88.9879 42.162L89.3211 42.2453L89.4878 42.5786L89.9043 42.7175L89.7933 43.1341L89.9043 43.6619L90.0155 43.8007L90.6265 43.9396L90.6821 44.023L90.0988 44.6062V44.8006L89.9599 45.1894L89.6266 45.5783L89.46 44.7728L89.3489 44.5229L89.7099 43.8007L89.46 43.5507L89.3211 43.7452L88.7656 43.523L88.1545 43.4674L86.9048 43.523L86.2658 43.6063L85.3494 43.8563L84.655 44.1896L83.8216 44.6062L83.4883 44.9118L83.4605 45.2451L83.0996 45.8283L82.5163 46.3282L82.294 46.8004L82.2108 47.3282L82.3496 47.6058L82.5995 47.5503V48.3002L82.7662 48.7724L82.933 49.0224L83.4051 49.2446L83.7662 49.1057L83.905 49.189L83.7662 49.4946L83.5161 49.689L83.2939 50.05L83.2663 50.4389L83.1272 50.7167V51.1333L82.933 51.5499L82.8774 51.7999L82.6829 52.0498L82.2662 53.2164L82.3774 53.4109L82.2108 53.6608L82.2386 53.9386L81.6553 54.6885L81.2386 54.9106L80.7665 55.2717L80.6831 55.6883L80.7387 55.8272L80.572 56.105L80.3776 56.8549Z" fill="#00212E"/>
<path d="M60.4366 59.4668L60.5201 59.6056L60.3256 60.2723L60.3534 60.4666L60.0756 60.9667L59.7979 61.2166L59.7701 61.411L59.52 61.6887L59.1867 61.911L59.1589 61.3833L59.2146 61.0777L59.3812 60.9111L59.2702 60.6333L59.52 60.2167L59.4646 60.0778L59.8811 59.9112L59.7145 60.2167L59.9645 60.3L60.0201 60.05L60.381 59.8001L60.4366 59.4668ZM63.603 63.3553L63.6863 63.6608L63.5196 64.2163L63.1863 64.6052L63.0753 64.494L62.8808 64.5774L62.6586 64.8551L62.1865 64.8273L62.2143 64.5774L62.492 64.6329L62.6864 64.2996L63.0753 64.2441L63.492 64.0496L63.2141 63.8275L63.603 63.4664V63.3553ZM61.1588 72.1321L61.2421 71.9933L61.131 71.7432L60.8811 71.8543L60.6033 71.8265L60.4645 71.6044H60.159L59.659 71.8265L59.4368 71.7988L59.2424 72.0488L59.0757 71.7155L58.9091 71.5766L58.7424 71.6877L58.5758 72.2154L58.2979 72.3265L58.2703 72.4932L57.8536 72.5487V72.7153L57.6036 72.8265L57.4093 73.1876L57.1592 73.2153L56.9926 73.4097V73.632L56.826 73.743L56.9926 74.2985L56.8538 74.4652L56.5205 74.604L56.1594 74.8263L55.5761 74.9929L55.1872 75.5484L54.9373 75.6318L55.0205 76.0484L54.8539 76.5761L54.604 76.6594L54.5484 76.9649H54.2429L53.9374 77.076L53.9096 77.326L53.743 77.3815L53.4929 76.9094L53.2431 77.0205L53.3819 76.5205L52.9374 76.2428L52.7153 75.5484L52.4375 75.604L52.2152 75.4651L52.3543 75.0207L52.0486 74.8541L52.132 74.2707L51.9098 74.3541L51.8265 74.1041L51.4098 74.1597L51.271 73.9652V73.493L51.4098 73.0209L51.7987 72.5487L51.9932 71.9933L52.243 71.8821L52.4097 71.5489L52.2708 71.16L52.4097 70.8822L52.743 70.5489L53.0208 69.9935L53.4097 69.7434L53.6318 69.4935L53.7708 69.1602L53.8262 68.7436L54.1595 68.6881L54.3262 68.3825L54.5206 68.2714L54.604 68.0214L54.9373 67.6603L55.2428 67.7714L55.6595 67.6048L55.2984 67.1882L55.5483 66.4383L55.8815 66.3549L56.0482 66.0216L56.4649 65.7161V65.4106L56.9648 64.744L57.2148 64.4662L57.4647 64.3829L57.687 64.1329L57.6314 63.7441L57.7148 63.6052L57.798 63.0775L58.2425 63.2719L58.4369 63.0498L58.2979 62.8553L58.659 62.522L58.8813 62.5498L59.2702 62.2165L59.298 62.022L59.4924 61.9665L59.7145 62.3831L60.2422 61.7444L60.6033 61.5499L60.8533 61.5777V61.8832L60.5477 61.6332L60.4366 62.161L60.1868 62.1332L60.0201 62.2721L59.9367 62.5776L59.7423 62.7164L59.52 62.6609L59.3812 62.4387L59.1035 63.1886L59.0479 63.5497L59.3258 63.4108L59.4924 63.022L59.8811 63.1053L60.1034 63.0498L59.8811 63.6885L59.7145 63.5774L59.6312 63.9941L59.7423 64.2441L59.6312 64.8828L58.9647 65.1051L59.3258 65.3272V65.1329L59.7701 65.0496L59.9923 64.8273L60.0756 64.5495L60.7421 64.5774L61.1866 64.3829L61.1032 64.0774L60.7421 64.3552L60.2144 64.4662L59.9089 64.3829L59.7701 63.883L60.4088 63.2997L60.381 63.633L60.4366 63.9385L60.8533 63.4386L60.9088 63.1053L61.1032 63.022L61.131 62.7164L60.8255 62.6609L60.4923 62.9386L60.4088 62.6887L60.6589 62.6609L60.8533 62.3554L60.9366 62.6609H61.1032L61.2699 62.4664L61.5477 63.022L61.4921 62.4387L61.8254 62.6887L62.0476 62.5776L62.0198 62.9386L62.1309 63.0775L62.4087 63.2164L62.5754 62.883L62.7976 62.9386V63.1886L62.4365 63.6052L62.2143 63.7441L61.992 63.6608L62.0198 63.9663L62.2421 64.2163L62.1587 64.4385L61.9088 64.4662L61.2421 64.7162L60.8255 65.0496L61.3255 65.0218L61.6031 64.8551L61.881 64.9662L61.9642 65.1051L62.2421 64.9106L62.492 64.9384L62.9086 64.8273L62.742 65.2162L62.4365 65.3828L62.2699 65.5772L62.1865 65.855L61.7976 65.8828V65.7161L62.0476 65.6328L61.881 65.3272L61.5477 65.7161V65.855L61.1588 66.3827L60.9922 66.8549L61.02 67.2437L61.4365 67.7436V68.0492L61.6865 67.9381L61.881 68.0492L61.9088 68.327L62.0198 68.5214L61.9642 69.1602L62.1032 69.5491L62.4365 69.6879L62.8252 69.9379L62.3809 70.3823L62.2421 70.8267L61.992 71.0766V71.1878L61.5755 71.5766L61.3811 71.9377L61.1588 72.1321Z" fill="#00212E"/>
<path d="M80.3781 56.8546L80.4337 57.1045L80.3781 57.4656L79.9338 57.5211L79.6559 57.6601L79.3226 57.9655L79.2394 58.2711L78.8227 58.5766L78.7949 58.771L78.6005 58.9655L78.5172 59.2154L78.0451 59.7154L77.7118 60.3264L77.4062 59.6321L77.1007 59.4654L76.3785 59.271L76.3507 59.6599L76.0452 59.6876L75.823 59.5487L75.5175 59.882L75.2954 59.9375L75.212 60.1876L75.0454 60.0209L74.7677 60.2709L74.6011 60.1042L74.4066 60.132L74.2676 60.2986L73.9343 60.2153L74.101 59.6043L73.9621 59.4932L73.379 59.5209L73.3234 59.7987L72.8512 60.0487L72.6846 59.9098L71.7402 59.4654L71.4901 59.9375L71.1568 59.9098L70.9902 59.7709L70.8514 59.8265L70.8236 60.0487L70.5181 60.0209L70.2126 60.1876L69.9903 60.0487L69.6849 60.0765L69.7681 59.8265L69.4904 59.6043L69.2404 59.5765L69.4348 59.1598V59.021L69.6015 58.5211L69.7959 57.4378L69.8515 57.3545L69.9347 56.299L69.9071 55.6325L69.6849 54.2993L69.3238 53.5216L68.435 52.3828L68.1017 52.1606L67.8794 51.8551L67.4629 51.5496L66.7407 51.2996L66.5741 51.3274L66.4629 51.2441L66.7685 50.7719L67.074 50.7164L67.1296 50.5497L67.3239 50.4664L67.4073 50.272L67.7406 50.2164L67.7962 50.022L67.685 49.7442L68.2127 49.4387L68.0183 48.7721L68.1849 48.2722L68.0183 48.0222L67.935 47.6889L67.7684 47.6333L67.5461 47.3L67.3795 46.7723L67.4351 46.4945L67.1573 46.2446L66.9352 46.2168L66.8796 46.0224L67.0184 45.8558L67.1296 45.5502L67.7128 45.0225L67.9628 44.6614L68.1849 44.5226L68.2683 44.1615L68.5184 43.967L68.8239 44.0503L68.6294 43.6615L68.2127 43.7171L67.935 42.995L67.6296 43.106V42.9117L67.3795 42.9394L67.2963 42.3283L67.4073 42.1062L67.2407 41.9395L66.9906 42.0506L66.7407 41.6618L66.9074 40.9674L67.2407 40.8285L67.5461 40.6341L67.685 40.6618L67.824 40.3008L67.9072 40.273V39.8008L68.2683 39.7731L69.1293 39.3842L69.3238 39.4675L69.5737 39.412L69.7959 39.5508L70.268 39.3009L70.407 39.0509L70.7125 38.6621L70.7958 38.9954L71.1014 38.8843L71.1292 38.7731L71.4069 38.7176L71.6291 38.8565L72.0179 38.8009L72.3235 39.1342L72.8234 38.9954L73.0179 39.0787L72.7122 39.5508L72.5734 39.6064V39.8841L72.4067 40.3008L72.1569 40.6618L72.629 41.2729L72.3511 41.6896L72.6568 42.134L72.4345 42.5506L72.5179 42.8838L72.9901 42.7449L73.4066 42.8005L73.1011 43.106V43.3838L72.8512 43.4671L72.9345 43.7727L73.1011 44.0226L72.9901 44.5226L72.4345 45.6335L73.2678 45.828L73.5456 45.7725L74.2954 45.9113L74.7677 45.4669L74.9343 45.1614L74.8787 44.9948L75.4897 44.7447L75.5453 44.467L76.3785 44.4948L76.823 44.3281L77.1007 44.3837L77.0451 44.4948L77.2117 44.9114L77.1841 45.0781L77.434 45.2447L77.8785 45.328L78.0173 45.8835L77.8229 45.9668L77.7951 46.4112L78.1839 46.5223L78.2672 46.689L78.0173 47.1612L78.1005 47.2722L78.0173 47.8L77.2951 48.1332L77.1285 48.5221L76.7952 48.6055L77.1007 48.8554L76.9618 49.2165L77.2673 49.4665L77.1007 49.5776L77.0451 50.133L76.7674 50.9385L76.6008 51.5218L76.7118 51.6051L76.5174 52.0495L76.6564 52.1606L76.4341 52.5772L76.7396 52.9105L76.8784 52.7439L77.5174 52.9383L77.684 53.0772V53.2716L77.9617 53.2994L78.295 54.0493L78.545 54.2159L78.4062 54.5492V54.7715L78.6005 55.1325L78.545 55.327L78.7117 55.4658L78.6839 55.9102L78.4894 56.1602L78.7117 56.3268L79.0172 56.6323L79.1838 56.6879L79.406 56.5768L79.8226 56.7991L79.906 56.6601L80.3781 56.8546Z" fill="#00212E"/>
<path d="M55.5486 66.438L55.3542 66.2435L54.9098 66.0213L54.771 65.7713L55.0487 65.2714L55.1875 65.2436L55.632 64.9658L55.7152 64.4937L55.9931 64.327L56.2986 64.0493L56.5208 64.2159L56.9095 64.0493L57.0762 63.8271L57.1318 63.5216L57.3818 63.4382L57.5485 63.1328L57.7984 63.0771L57.7151 63.6049L57.6317 63.7438L57.6873 64.1326L57.4651 64.3826L57.2152 64.4659L56.9651 64.7437L56.4652 65.4102V65.7158L56.0485 66.0213L55.8819 66.3546L55.5486 66.438Z" fill="#00212E"/>
<path d="M65.3803 15.8317L65.1303 16.026L65.1025 16.3038L64.7414 16.4427L64.7136 16.6927L64.3249 16.8315L63.7415 17.3871L63.5471 17.2759L63.2972 17.637L63.1028 17.6092L63.0194 17.4148L62.8249 17.3315L62.7695 17.1371L63.1582 16.887L63.075 16.7204L62.6583 16.3316L62.5194 16.3871L62.8249 16.887L62.4638 17.1648L61.9085 16.6927L61.6584 16.3038L61.4918 16.2483L61.0196 16.4149L61.2973 16.5816L61.5752 17.0815L61.9361 17.2759V17.4981L62.1029 17.8315L62.1305 18.0814L61.8251 18.3314L61.2141 18.4147L61.1029 18.3869L60.853 17.9148V17.637L60.7696 17.2481L60.0474 15.9983L58.27 13.4985L57.6588 12.6653L57.4366 12.4987L56.9923 11.8043L56.5479 11.3599L56.3811 10.9433L55.9924 10.5544L56.1869 10.4156L56.4645 9.61006L56.4367 9.3601L56.7422 9.30458L56.9923 9.3601L57.2423 9.08233L57.0201 8.97129L56.6868 9.22126L56.4089 9.16565L56.1869 9.49902L55.9646 10.3322L55.2146 9.30458L54.8814 8.99901L54.6869 8.5824L54.5759 8.49908L54.4925 8.22132L53.7149 7.30479L53.7705 7.05482L54.2704 7.16586L54.437 6.99922L54.6037 6.44377L54.5759 6.11049L54.3814 5.41612L53.7705 4.38838L52.4928 2.66636L52.1595 2.13863L51.2707 1.2499L51.0762 1.2221L50.8262 0.638851L50.8818 0.249963L51.7428 0.583247L52.1595 0.388803L52.2149 0.194444L52.5206 0.222161L52.826 0.333284L53.0483 0.305482L53.3816 0L53.5204 0.222161L53.3538 0.333284L53.2982 0.861012L53.3538 1.05546L53.0483 1.1943L53.0761 0.944333L52.5484 1.16658L52.6594 1.38874L52.9927 1.49986L52.9371 1.30542L53.1871 1.2499L53.3816 2.11091L53.576 2.55532L53.8537 2.97192L54.1592 3.13857L54.4092 3.55517L54.5203 3.61069L54.5759 3.88846L54.4925 4.13842L54.7425 4.33286L55.3813 4.52731L55.298 4.80507L55.0758 4.94391L55.2424 5.305L55.2702 5.49944L55.5757 5.55496L55.4369 5.24939L55.7702 5.22168L55.6591 4.74947L55.4369 4.44399L55.4647 4.24954L55.8812 4.22174L56.1869 4.02738L56.3257 3.74962L56.4645 3.94406L56.7978 4.16622L56.3811 4.44399L56.1035 4.41618L56.0478 4.58283L56.1591 5.02723L56.5201 5.38832L57.1311 5.44384L57.2977 5.24939L57.2145 5.08275L57.4366 4.88839L57.7422 4.91611L58.0755 5.11055H58.5755L58.6311 5.3328L58.9365 5.52716L58.7977 5.88824L58.5755 5.99937L58.6865 6.22153L58.7977 5.99937H59.0198L59.0476 5.6938L59.3809 5.41612L59.7141 5.6938L60.0198 5.7216L60.2141 6.08269L60.3253 6.41597L60.5197 6.63813L60.9084 6.58261L61.1307 6.63813L61.3251 6.55481L61.4918 6.74926L61.6028 7.05482L61.2973 7.19366L61.1029 6.9715L60.9084 7.11034L60.7696 7.41591L61.2973 7.47143L61.3807 7.74919L61.3529 8.05468L61.5196 8.138L61.6306 7.72139L62.0195 8.05468L62.2972 8.02687L62.3528 7.83251L62.5472 7.86023L62.6305 7.52695L62.8805 7.61027L62.9639 7.24918L63.1582 7.3325L62.9361 7.66587L63.0472 7.77691L62.9639 7.99916L63.186 8.41576L63.6305 8.83237L63.4082 9.05461L63.4638 9.52674L63.7971 9.58234L64.1582 9.8045L64.186 10.2767L64.2971 10.61H64.5747L64.7692 10.8322V11.4154L64.6025 11.3044L64.5193 11.6655L64.6859 12.0821L64.8248 12.0543L64.9636 12.3598L64.8526 12.7486L64.9636 13.0819L65.1859 13.3597L64.908 13.443L64.6859 13.1097L64.5193 12.9709L64.3249 12.6098L64.186 12.582L64.0748 12.8319L63.7693 12.6653L63.6305 12.4987L63.4638 12.6375L63.2138 12.5542V12.9986L63.3804 13.1375L63.5193 12.9986L63.9916 13.1097L64.1582 13.0264L64.2971 13.193V13.4985L64.2136 13.8319L64.2414 14.2485L64.5193 14.9429L64.7692 15.165L65.1303 15.1095L65.2691 15.5816L65.3803 15.8317Z" fill="#00212E"/>
<path d="M18.5269 98.1279L18.8878 98.1557L19.5268 98.0446L19.8044 97.7669L20.6933 97.4335L20.9433 97.1003L21.1378 97.0169L21.4987 97.2947L21.5265 97.1281L21.8321 96.8781L21.9988 96.767L22.2208 96.5725L22.2764 95.9615L22.3875 95.7393L22.3597 95.4616L22.5265 95.2116L23.054 95.0171L23.1653 94.795L23.3875 94.6561L23.3041 94.4061L23.6096 94.2951L23.693 94.1283L24.0263 93.9617L24.4984 93.7951L24.665 94.0173L25.1928 94.0728L25.5538 93.9895L25.6095 93.6007L25.8315 93.5451L25.9983 93.9895L26.3038 94.1839L26.4983 93.9895L26.8316 93.7951L26.8594 93.6284L27.0814 93.4896L27.2481 93.5451L27.4703 93.2673H27.8314L27.9424 92.934L27.8314 92.573L28.1091 92.4619L28.2203 92.5452L28.609 92.4619L28.748 92.573L28.8313 92.8785L28.748 93.073L28.8591 93.3506L28.6368 93.3784L28.5258 93.6284L28.3035 93.9617V94.1839L28.0536 94.5727L27.7758 94.7394L27.5537 95.1005L27.8592 95.5727L27.8036 95.7671L27.8592 96.517L27.6648 96.8781L27.7758 97.0725L27.6092 97.3225L27.6648 97.7113L27.8314 97.7669L28.2481 97.7113L28.4147 97.9613L28.2757 98.239L28.4424 98.5168L28.3035 98.8223L28.3869 99.0167L28.6924 99.2112L28.8591 99.1834L28.8869 98.8779L28.9979 98.7946L29.1923 99.2945L29.2201 99.6278L29.7757 99.9055L30.1922 99.6278L30.5811 99.7111L30.97 101.266L30.9422 101.516L31.3033 102.1L31.6087 102.461L31.6921 102.794L32.2199 102.822L32.7752 102.655L33.3586 102.35L33.5808 102.405L33.7475 102.877L34.6917 102.433L34.9417 102.1L34.9974 101.766L35.3306 101.405L35.6361 101.572L36.1082 101.683L36.8026 102.072L37.5526 102.239L37.8581 102.405H38.1635L38.3302 102.572L38.497 102.516L38.9413 102.683L39.219 102.628L39.4413 102.739L38.9969 103.572L38.1914 104.35L38.2192 104.683L37.9969 104.766L37.6358 105.238V105.461L37.3025 105.96V106.238L37.1637 106.433L37.0249 106.821L37.0805 107.155L37.3303 107.183V107.405L37.1359 107.655L36.9415 108.071L36.9971 108.488L36.5249 109.071L36.3027 109.432V109.71L36.0528 109.988L35.8028 110.071L35.7472 110.543L35.4695 110.738L35.3584 110.96L35.1362 111.099V111.321L35.6361 111.238L35.8306 111.488L36.0528 111.432L36.1638 111.682L35.5805 111.876L35.5527 112.126L35.275 112.265L35.1084 112.571L35.164 112.765L35.4695 112.432L35.8862 112.265L35.8584 112.071L36.2471 111.876L36.4415 112.099L36.3305 112.376L36.4415 112.71H36.1916L35.8306 113.015L35.4139 112.96L35.2194 113.015L34.5529 113.099L34.4974 113.182L33.4142 113.432L33.0809 113.654L32.7198 114.126L32.3587 114.654V115.182L32.1365 115.737L31.7476 116.098L31.2477 116.404L30.8866 116.682L30.6645 116.987L30.3588 117.126L30.0534 117.459L29.359 117.793L29.2201 118.348L29.359 118.515V118.931L29.1923 119.126L28.6368 119.209L28.609 119.681L28.1091 119.848L27.748 120.32L27.5259 120.098L26.9704 120.126L26.887 120.376L26.7203 120.32L26.6371 120.626H26.2204L26.026 120.959L25.4982 120.792L24.8873 121.237L24.8039 121.153L24.9151 120.459L24.8595 120.181L25.0817 120.126L25.2762 119.876L25.1372 119.681L24.6372 119.181L24.8317 118.987L24.9429 118.515L24.8039 118.32L24.4984 118.265V117.931L24.665 117.876L24.8873 117.404L24.7762 117.209L24.8317 116.57L24.9705 116.265L24.7762 116.182L24.6372 115.737H24.4428L24.4152 115.515L24.6372 115.432L24.6928 115.098L24.6096 114.654L24.2485 114.487L23.9985 114.098L23.9707 113.848L24.1651 113.71L24.1929 113.46L24.0819 113.21L24.1929 112.849L24.0819 112.543L23.8596 112.626H23.5263L23.693 112.015L23.5263 111.904L23.5541 111.293L23.6652 110.738L23.693 110.377L23.9985 110.21L24.0819 109.738L24.2485 109.571L24.4984 108.932L24.5818 108.46V108.238L25.0261 107.988L25.1095 107.71L24.7484 107.377L24.665 106.988L24.2485 106.794V106.544L24.0541 106.266L23.6374 106.599L22.9708 107.766L22.832 108.182L22.6653 108.294L22.4987 108.238L22.3875 107.988L22.0264 108.016L21.7765 107.738L21.8043 107.238L21.6377 107.294L21.2766 106.849L21.2488 106.488L21.0543 105.96L20.8599 106.044L20.6655 106.294L20.2489 106.46L20.0823 106.683L19.4712 106.877L18.4435 106.905L18.2769 106.544L18.3325 106.21L18.1935 105.96L18.2769 105.822L17.9436 105.572V105.405L17.7769 104.988L17.8602 104.599L17.9992 104.294H18.1935L18.2491 104.1L18.1658 103.655L17.8047 103.711L17.388 103.211L17.3324 103.044L16.9992 102.822L17.0548 102.516L16.8325 102.044L16.9715 101.766L17.277 101.6L17.2214 101.433L17.4437 101.044L17.2492 100.544L17.277 100.239L17.4715 100.044L17.4437 99.5723L17.5547 99.239L17.7769 98.7946L17.7213 98.6001L18.0268 98.3502L18.138 98.1279H18.5269Z" fill="#00212E"/>
<path d="M6.05465 109.738L6.3325 110.043L6.3047 110.349L6.38794 110.821L6.3325 111.099L6.11026 111.349L5.80477 111.293L5.36028 111.432V111.071L5.16601 110.904L5.13821 110.488L4.66591 111.016L4.30483 111.321L4.33263 111.016L4.69371 110.654L4.86036 110.21L5.1104 110.099L5.52692 109.793L5.69357 109.905L6.05465 109.738ZM14.9426 121.459L15.3593 121.626L15.6092 121.876H15.7482L15.8036 122.292L15.9703 122.653L16.1647 122.709L16.2203 122.931L16.7481 123.403H16.9979L17.0535 123.598L16.9703 123.959L16.1091 123.848L15.9981 123.486L15.6926 123.82L15.7482 124.153L16.0259 124.097L16.1647 124.32H16.387L16.7202 124.847L16.9425 124.792L17.2202 124.32L17.248 124.625L17.4424 124.847L17.5535 125.181L17.3868 125.625L16.7481 126.181L16.4702 126.069L16.2481 126.347L15.9981 126.208L15.3871 126.597L15.1649 126.792L14.6927 127.014L14.165 126.931L14.1094 126.792L13.8317 126.931L13.7761 126.708L13.4984 126.847V127.042L13.165 127.264L13.3872 127.43L13.2484 127.819L12.9707 127.708L12.554 128.014L12.1097 128.042L11.8319 127.986L11.9429 127.292L12.1651 127.069L12.3318 127.125L12.5262 126.847L12.5818 126.625L12.7763 126.403L12.6096 125.903L12.7763 125.847L13.0818 125.375L13.304 125.32L13.6095 125.458L13.7205 125.264L13.5261 124.875L13.6373 124.542L13.8872 124.486L14.0816 124.264L14.165 123.986V123.681L14.0538 123.264L13.8872 122.903L13.6927 122.237L14.0816 121.57L14.776 121.626L14.9426 121.459ZM19.8866 122.014L19.9977 122.431L19.72 122.57L19.6088 122.292L19.8866 122.014ZM6.74902 111.293L6.2491 111.599L6.3325 111.321L6.74902 111.293ZM4.9992 111.293L4.80492 111.599L4.61048 111.377L4.9992 111.293ZM7.22132 111.043L7.499 111.099L7.5824 111.238L7.13791 111.404L6.88803 111.321L6.99907 111.071L7.22132 111.043ZM13.0262 122.181L13.3872 122.32V122.542L13.0818 122.681L13.0262 122.181ZM8.16556 104.988L8.22117 105.155L8.08233 105.544L8.36001 106.099L8.47105 106.544L8.27677 106.599L7.77668 106.266L7.499 105.766L7.66564 105.627L7.72124 105.405L8.16556 104.988ZM5.69357 115.098L5.86038 115.293L5.52692 115.571L5.47149 115.265L5.69357 115.098ZM16.6368 95.7949L17.0813 95.9061L17.7201 95.6006L18.0534 95.6561L18.2756 95.8783H18.5257L18.7478 96.5171L18.97 96.656L18.859 96.9893L18.5533 97.156L18.7478 97.3226L18.5257 98.128H18.1368L18.0256 98.3503L17.7201 98.6002L17.7757 98.7947L17.5535 99.2391L17.4424 99.5724L17.4702 100.044L17.2758 100.239L17.248 100.544L17.4424 101.044L17.2202 101.433L17.2758 101.6L16.9703 101.767L16.8313 102.044L17.0535 102.516L16.9979 102.822L17.3312 103.044L17.3868 103.211L17.8035 103.711L18.1646 103.655L18.2478 104.1L18.1922 104.294H17.998L17.8589 104.6L17.7757 104.988L17.9423 105.405V105.572L18.2756 105.822L18.1922 105.961L18.3312 106.21L18.2756 106.544L18.4423 106.905L19.4699 106.877L20.0811 106.683L20.2477 106.46L20.6642 106.294L20.8587 106.044L21.0531 105.961L21.2476 106.488L21.2754 106.849L21.6364 107.294L21.8031 107.238L21.7753 107.738L22.0252 108.016L22.3862 107.988L22.4975 108.238L22.6641 108.294L22.8307 108.183L22.9696 107.766L23.6361 106.599L24.0528 106.266L24.2473 106.544V106.794L24.6638 106.988L24.7472 107.377L25.1083 107.71L25.0249 107.988L24.5806 108.238V108.46L24.4972 108.932L24.2473 109.571L24.0806 109.738L23.9972 110.21L23.6918 110.377L23.6639 110.738L23.5529 111.293L23.5251 111.904L23.6918 112.015L23.5251 112.626H23.8584L24.0806 112.543L24.1917 112.849L24.0806 113.21L24.1917 113.46L24.1639 113.71L23.9694 113.849L23.9972 114.099L24.2473 114.487L24.6084 114.654L24.6916 115.098L24.636 115.432L24.4139 115.515L24.4416 115.737H24.636L24.775 116.182L24.9693 116.265L24.8304 116.571L24.775 117.209L24.886 117.404L24.6638 117.876L24.4972 117.931V118.265L24.8026 118.32L24.9417 118.515L24.8304 118.987L24.636 119.181L25.1359 119.681L25.2749 119.876L25.0805 120.126L24.8582 120.181L24.9139 120.459L24.8026 121.153L24.6638 121.181L24.4416 121.015L24.2473 121.042L24.1917 121.237L23.914 121.348L23.7472 121.209L23.4139 121.376L23.164 121.348L22.9696 121.153H22.6085L22.2474 121.209L22.0808 120.959L22.1364 120.653L21.8309 120.348L21.2476 120.209L20.7754 120.265L20.3031 120.376L19.8032 120.626H19.1644L18.8034 120.487L18.72 120.348L19.3589 120.32L19.7478 120.515L19.7754 120.292L19.2755 120.126L18.7756 120.209L18.5257 119.848L18.1646 120.015L18.22 120.431H18.3867L18.6089 120.681L18.3867 120.82L18.22 120.487L17.9701 120.376L17.9145 120.07L17.6923 119.904L17.5813 119.653L18.3312 119.542L18.6645 119.292L18.3867 118.931L18.1368 119.154L18.1922 119.404L17.9701 119.459L17.8589 119.348L17.4424 118.376L17.1924 118.043L16.8869 117.793L16.5536 117.709L16.3036 117.737L15.9148 118.181L15.4982 117.959L15.2759 117.904L15.026 118.043L14.8872 118.237L14.6093 118.043L14.3039 118.293L13.9428 118.015L13.915 117.682L13.6095 117.626V117.404L13.915 117.265L13.8039 116.876L13.054 116.154L12.1929 115.71L11.8041 115.654L11.4708 115.682L11.3875 115.987L11.0819 116.154L11.1653 116.515L10.9986 116.765L10.3599 116.737L10.0542 116.904L9.41546 116.765L9.24882 116.848L8.58225 116.515L8.11013 116.543L7.91569 116.432L7.5546 116.404L7.33235 116.293L6.83243 116.459L6.41574 116.376L6.3325 116.265L5.97142 116.321L5.66593 115.904L5.63813 115.626L6.11026 115.293L6.47134 114.737L6.80463 114.571L6.74902 114.071L7.19351 113.96L7.33235 113.71L6.74902 113.821L6.49914 114.237L6.69359 114.599L6.2491 114.876V114.487L5.77697 114.821L5.55473 114.71L5.38808 115.015L5.33265 114.487L5.44369 114.376L5.61033 113.904L6.13806 113.71L6.55475 113.654L6.52695 113.46L6.2491 113.599L5.80477 113.487L5.41589 113.738L5.13821 113.793L4.91596 114.015L4.69371 114.071L4.33263 114.043V113.432L4.13818 113.043L4.24939 112.571L4.19379 112.349L4.58268 111.932L5.22144 111.793L5.24924 112.099L5.61033 111.821L6.83243 111.488L7.22132 111.515L7.5546 111.266L8.08233 111.182L8.05453 111.071L7.69344 111.127L7.11011 110.877L6.94347 110.988L6.41574 111.127L6.49914 110.405L6.41574 109.71L5.99922 109.516L5.97142 109.238L6.13806 108.71L6.3603 108.377L6.38794 108.071L6.58238 107.655L6.77682 107.377L6.69359 107.21L7.27675 106.294L7.44339 106.488L8.08233 106.766L8.66549 107.127L8.97114 107.238L9.24882 107.766L9.30443 108.155L9.44327 108.099L9.24882 107.488L8.97114 107.127L8.7767 107.072L8.49885 106.738L8.69329 106.488L8.47105 106.21L8.49885 106.016L8.24897 105.711L8.3044 105.183L8.24897 104.85L8.63786 104.488L8.88774 104.044L9.44327 103.433L9.5265 103.128L9.72095 103.044L10.4709 102.1L10.8876 101.739L11.1931 102.239L11.3041 102.155L11.1097 101.794V101.544L11.3875 101.433L11.7763 100.989L12.1097 101.044L12.1373 100.794L12.6373 100.406L12.8317 99.9056L13.0262 99.7945L13.3316 100.072L13.415 99.989L13.165 99.6279L13.3872 99.5724L13.7483 99.2391L13.9706 99.2113L14.0538 98.9613L14.2761 98.9335L14.5537 99.1558L14.6371 98.2391L14.9704 97.4336L15.5816 96.8782L15.7204 96.9337L15.9148 96.7116L15.9981 96.2672L16.6092 96.3505L16.7759 95.9339L16.6368 95.7949ZM16.0537 96.9059L16.1925 97.1837L16.1369 97.3781L16.3036 97.7114L16.3314 98.2391L16.498 98.3225L16.4426 97.767L16.3314 97.2115L16.0537 96.9059Z" fill="#00212E"/>
<path d="M65.3534 40.1621L65.4367 40.3288L65.6867 40.4399H66.2423L66.4643 40.5787L66.7976 40.4399L66.9921 40.7176L67.2421 40.8288L66.9088 40.9676L66.7422 41.662L66.9921 42.0508L67.2421 41.9397L67.4088 42.1064L67.2977 42.3285L67.3809 42.9396L67.631 42.9119V43.1062L67.9365 42.9952L68.2142 43.7173L68.6308 43.6618L68.8253 44.0506L68.5198 43.9672L68.2698 44.1617L68.1864 44.5228L67.9643 44.6616L67.7142 45.0227L67.1311 45.5504L67.0199 45.856L66.881 46.0226L66.9366 46.217L67.1587 46.2448L67.4366 46.4948L67.3809 46.7725L67.5476 47.3003L67.7698 47.6335L67.9365 47.6891L68.0197 48.0224L68.1864 48.2724L68.0197 48.7723L68.2142 49.4389L67.6864 49.7445L67.7976 50.0222L67.742 50.2166L67.4088 50.2722L67.3253 50.4666L67.1311 50.5499L67.0755 50.7166L66.77 50.7721L66.4643 51.2443L66.5755 51.3276L66.131 51.3832L65.8534 51.1887L65.3534 50.9665L64.9368 50.8832L64.6035 50.5221L64.2424 50.3832L63.8813 50.0499L63.2981 49.2445L62.9925 49.0223L62.687 48.939L62.3815 48.7168L61.8538 48.5779L61.3261 48.5502L61.076 48.3835L60.6595 48.3279L60.104 47.9946L59.7707 47.4669L59.493 47.3003L59.1873 46.9392L59.0485 46.5226L58.9097 45.6894L59.0763 45.3283L59.1873 44.8283L59.3818 44.7449L59.604 44.4673L60.104 44.1339L60.354 44.1062L60.7705 43.8006L60.965 43.5229L61.076 43.5506L61.4095 43.4673L61.7982 43.1618L61.937 43.134L62.2427 42.8563L63.0759 42.8007L63.2703 42.9119L63.7425 42.8563L64.0479 42.6341L64.4924 41.9953L64.6591 41.9119L64.9368 41.5787L65.1312 41.162L65.3534 40.1621Z" fill="#00212E"/>
<path d="M74.103 20.053L74.0753 20.2197L74.4641 20.4975L74.3808 20.6641L74.1308 20.4975L74.103 20.3585L73.8531 20.2475L74.103 20.053ZM75.2696 27.5245L75.1306 27.6911L75.0752 28.0522L74.8529 28.441L74.964 28.7188H74.6585L74.3252 28.5799L74.2974 28.8021L74.4919 29.0799L74.2974 29.2743L74.5475 29.7464L74.5197 30.052L74.8807 30.6352L75.1862 31.3296L75.0196 31.8573L75.2974 31.9685L75.2696 32.3295L75.5473 32.635L75.2696 32.7739L75.5473 33.3572L75.8806 33.3849L76.1306 33.5794L76.1584 33.8293L76.5472 34.1071L76.8804 34.1626L77.0471 34.1071L77.4082 34.3849L77.6026 34.6626L77.4916 34.8015L77.5748 35.1069L77.7138 35.3014L77.6304 35.5513L77.8249 36.1347L78.0193 36.4124L78.3248 36.5513L78.547 36.5235L78.8247 36.8291L79.2414 36.9124L79.5469 37.2735L79.2968 38.3566L79.3524 38.5511L78.6859 38.2733L78.4358 38.8566L78.1303 38.7455L77.9915 38.5511L78.1859 38.2733L78.0471 38.0789L77.4638 38.4122L77.0749 38.3844L76.825 37.9122L76.6306 37.8844L76.1861 38.5233L76.1306 38.801L76.5194 38.7732L76.6028 38.9955L76.7694 38.9399L77.3527 39.3288L77.0195 39.9675L77.6582 40.7175L77.3527 40.9953L76.575 40.773L76.4361 41.1896L76.6862 41.8285L77.1027 42.384L77.4082 42.4395L77.6582 42.2729L77.686 42.7728L77.8527 43.0228L77.7415 43.1339L77.8527 43.4394L77.8249 43.7171L77.4638 43.9116L77.1027 44.2172V44.3838L76.825 44.3282L76.3805 44.4948L75.5473 44.4671L75.4917 44.7448L74.8807 44.9949L74.9363 45.1615L74.7697 45.467L74.2974 45.9114L73.5476 45.7725L73.2698 45.8281L72.4365 45.6336L72.9921 44.5226L73.1031 44.0227L72.9365 43.7728L72.8532 43.4672L73.1031 43.3839V43.1061L73.4086 42.8006L72.9921 42.745L72.52 42.8839L72.4365 42.5507L72.6588 42.134L72.3531 41.6896L72.631 41.273L72.1589 40.6619L72.4087 40.3009L72.5754 39.8842V39.6065L72.7142 39.5509L73.0199 39.0788L72.8254 38.9955L72.3255 39.1343L72.0199 38.801L71.6311 38.8566L71.4089 38.7177L71.1312 38.7732L71.1034 38.8844L70.7978 38.9955L70.7145 38.6622L70.409 39.051L70.27 39.301L69.7979 39.5509L69.5757 39.4121L69.3258 39.4676L69.1313 39.3843L68.2703 39.7732L67.9092 39.8009V40.2731L67.826 40.3009L67.687 40.6619L67.5482 40.6342L67.2427 40.8286L66.9926 40.7175L66.7982 40.4397L66.4649 40.5786L66.2428 40.4397H65.6873L65.4372 40.3286L65.354 40.162L65.4928 38.4955L65.465 38.2455L65.5762 37.7734L65.4928 37.1067L65.8539 36.7457L66.1038 36.3568V36.0236L66.0484 35.6347L66.0762 35.357L65.8261 34.5237L66.2428 34.607L66.4095 34.496L66.9926 34.6348L66.9372 34.4682L67.5204 34.2182L67.3815 33.8849L66.965 34.0238L66.826 34.1904L66.6039 34.2182L66.6315 33.7738L66.9372 33.496L67.0204 33.6072L67.2149 33.3016L67.2427 32.9405L66.9372 32.9961L66.8816 33.2739L66.6871 33.496L66.5761 33.2183L66.6315 32.9961L66.4095 32.1351L66.5761 31.8295L66.9372 31.7462L67.076 31.5796L67.3259 31.4963L67.6038 31.5518L67.9092 31.4684L67.8536 31.0518L67.5482 31.1352L67.4925 31.3574L67.2983 31.3851L67.0204 31.5241L66.8816 30.913L66.9094 30.7741L66.7149 30.163L66.6871 29.9964L66.5205 29.6631V29.302L66.3261 28.8854L66.0762 28.1632L65.9928 27.8022L66.2983 27.6356L66.6315 27.1356L66.7982 27.0245L67.1038 26.8579L67.2149 26.5523L67.6316 26.719V26.4412L68.0203 26.2746L68.2425 25.9691L68.0481 25.5802L67.9926 25.3024L68.2425 25.1914L68.4092 24.997V24.7748L68.6036 24.5247L69.1869 24.497L69.3536 24.5804L69.5202 24.1637L69.7701 24.3859L69.8535 24.3026L70.27 24.2471L70.3534 24.0248L70.5201 24.5247L70.5479 24.8303L70.4923 25.3024L70.7145 25.7191L70.7423 25.8858L70.9644 25.9968H71.2422L71.9644 25.6913L72.2977 25.5247L72.0755 25.0525L72.1589 24.5804L72.1033 24.3304L71.9366 23.886L71.9644 23.7749L71.4367 23.0805L71.2701 22.6361L71.4921 22.5528L71.4089 22.3306L71.5199 22.1917H71.9366L71.9644 21.8862L71.6588 21.4418L71.4367 21.3585L71.4645 21.1085L71.5755 20.8585L71.4921 20.5252L71.2701 20.1086L70.7978 19.8586L70.6867 19.5531V19.1642L70.9922 19.0254L71.2979 19.1364L71.4089 19.3032L71.9088 19.4142L72.1311 19.8586L72.2421 20.3308L72.4087 20.2475L72.6032 20.553L72.52 20.9419L72.7698 21.0529L72.8254 21.4418L73.5198 21.4696L73.7975 21.2473L73.9363 21.2751L74.0753 21.1362L74.2142 21.3863L74.3808 21.3585L74.4086 21.5806L74.1586 21.6084L73.8253 21.8306V22.0528L73.4642 22.2195L73.5198 22.4694L73.9641 22.3306L74.353 22.525V22.8583L74.4919 22.9972L74.6585 23.3583L74.5475 23.5249L74.6307 23.9693L74.9085 24.6081L74.8529 24.8025L74.9085 25.1636L74.7973 25.3858L74.9085 25.858L74.7697 25.9135L74.9363 26.2746L74.964 26.6079L75.2974 27.2467L75.2696 27.5245Z" fill="#00212E"/>
<path d="M69.2399 59.5771L69.49 59.6048L69.7676 59.827L69.6844 60.077L69.9899 60.0492L70.2121 60.1881L70.5176 60.0214L70.8231 60.0492L70.8509 59.827L70.9897 59.7714L71.1564 59.9103L71.4897 59.9381L71.7397 59.4659L72.6841 59.9103L72.8508 60.0492L73.3229 59.7992L73.3785 59.5214L73.9617 59.4937L74.1005 59.6048L73.9339 60.2158L74.2671 60.2991L74.4061 60.1325L74.6006 60.1047L74.7672 60.2714L75.0449 60.0214L75.2116 60.1881L75.295 59.9381L75.517 59.8825L75.8225 59.5492L76.0448 59.6881L76.3502 59.6604L76.378 59.2715L77.1002 59.4659L77.4057 59.6326L77.7114 60.3269V60.4381L77.2669 61.6046L76.7947 62.1045L76.6559 62.5489L76.5169 62.66L76.378 63.2433L76.2392 63.4377V63.7155L75.6837 64.2709L75.6559 64.4932L75.4338 64.9376L75.0727 65.0487L74.7394 65.3542L74.6838 65.6319L74.2949 66.0763L73.9895 66.1874L73.795 66.3818L73.2951 66.6041L73.0728 66.9096L72.823 67.0762L72.6007 67.354L72.2396 67.4095L71.9619 67.7428L71.462 68.1872L71.3786 68.1317L70.9897 68.1872L70.6286 68.5483L70.4066 68.6039L70.1287 68.4927L69.9899 68.5483L69.851 67.8817L69.6844 67.715L69.8788 66.9929L69.851 66.7984L69.3233 66.4651V66.1597L69.0456 66.2985L68.5455 66.2152L67.879 66.6318L67.6291 66.854L67.4901 66.6596L67.2402 66.5763L67.2958 66.354L67.1014 66.0485L67.268 65.6597L67.5179 65.2987L67.5735 65.0487L67.379 64.7986L67.1568 64.7431L66.6291 65.1597L66.7403 65.6319L67.018 65.4375L66.8791 65.9374L66.7403 65.7431L66.4902 65.9652L66.3236 65.9374L66.1013 66.1041L65.9347 65.9374L65.6848 65.9097L65.3237 65.3264L65.407 65.0764L65.5738 64.8542L65.9071 64.7986L66.0737 64.6598L66.2958 64.1876L66.4348 64.1321L66.7681 63.6043L66.9902 63.5488L67.1014 63.3822L67.0736 62.9933L67.268 62.7989L67.4901 62.7711L67.7679 62.4934L67.9902 62.049L68.1012 61.3268L68.4623 61.0768L68.6845 60.7713L69.2399 59.5771ZM67.8235 60.7435L67.7401 61.0491L67.379 61.4101L67.2402 61.2713L67.5735 60.9658L67.6291 60.7435H67.8235Z" fill="#00212E"/>
<path d="M47.4385 60.2705L47.6329 60.6038V60.9926L47.9384 61.2704L47.9106 61.4925L48.2717 61.9092L48.6328 61.8814L48.6884 62.1314L48.4661 62.3813H48.2717L48.1328 62.6591L48.3273 62.8535L48.4661 63.159L48.6884 62.7424L48.9106 62.8813L49.1327 62.7424L49.4105 62.7979L49.466 63.048L49.6882 63.2423L49.7438 63.4923L49.9383 63.5201L50.0215 63.7146L50.466 64.1034L50.577 64.4922L50.9103 64.4089L50.9381 64.7422L50.6048 64.9922L50.3548 65.02L50.1049 65.1033L50.3548 65.4644L50.1882 66.0754L50.2438 66.2698L49.9937 66.4642L49.7438 66.5476H49.2993L48.9661 66.6309L48.9939 67.2142L48.605 67.4086L48.3829 67.6585L48.4383 68.0196L48.2995 68.5751L47.6051 68.8806L47.6885 69.1862L47.6329 69.3528L47.2996 69.3806L46.7719 69.6306L46.6885 69.7694L46.7441 70.0194L46.7163 71.1304L46.5497 71.186L46.4664 71.6304L46.2164 71.9359L46.383 72.1025L46.4664 72.5191L46.7997 72.6024L46.6331 72.9358L46.9107 73.4635L47.4107 73.5469L47.5773 73.769H47.744L47.9106 73.9079L48.3829 73.9635L48.4939 74.1856L48.3829 74.7967L48.6884 75.2411L48.8828 75.4633L49.2161 75.491L49.2715 75.2411L49.466 75.1578L49.5216 75.2689L49.2439 75.7133L49.2161 76.1577L48.9939 76.2965L48.8828 76.241L48.4939 76.3799L48.3551 76.602L48.1606 76.6853L48.0218 76.9631L47.6329 77.0464L47.6051 77.2964L47.244 77.602L47.2162 77.8797L46.8275 78.1574L46.6331 78.463L46.6607 78.6851L46.1331 78.8796L46.0219 78.7963L45.6886 78.8796L45.7443 79.0462L45.3276 79.1851L45.272 79.4906L45.0221 79.7129L45.0499 80.0462L44.7998 80.0739L44.7444 80.2683L44.1055 80.4628L44.1611 80.8516L43.911 81.046L43.9944 81.296L43.8556 81.4626L43.6055 81.5737L43.3557 81.4904L42.9946 81.6293L42.8001 81.5459L42.2446 81.6849L42.078 81.5459L41.9946 81.6849L41.6613 81.7682L41.4946 82.1015L41.1335 81.9626L40.1615 82.6292L40.2171 82.9347L40.0504 83.0458L40.0781 83.268L39.2171 83.4902L39.1338 83.7402L38.856 83.7958L38.6893 84.0457L38.7727 84.2957L38.5227 84.379L38.2728 84.8789L37.9673 84.9345V84.7123L37.4118 85.1567V85.4345L37.134 85.5455L37.0507 85.6844L36.8007 85.74L36.523 85.9066H36.2175L36.2451 86.1288L35.8842 86.2122L35.8008 86.5733L35.6342 86.7121L35.3841 87.0176L35.0508 86.9899L34.8842 86.8232L34.7732 86.9621L34.4121 87.1009L34.3288 87.3787L33.94 87.5731L33.9122 87.7119L33.5511 87.8509L33.3566 87.6286L33.2178 87.7397L32.4956 88.0175L32.4124 88.2675L32.0789 88.4063L31.9957 88.6841L31.6068 88.7674V89.4618L31.1625 89.684L31.1903 90.1006L30.7458 90.3228L30.8292 90.4617L30.6902 90.7395L30.1626 90.9894L30.1903 91.2116H29.9126L29.7459 91.5449L29.4405 91.6838L29.1626 92.0171V92.2392L28.7461 92.5725L28.6071 92.4615L28.2184 92.5448L28.1071 92.4615L27.8295 92.5725L27.9405 92.9336L27.8295 93.2669H27.4684L27.2461 93.5447L27.0795 93.4891L26.8574 93.628L26.8296 93.7946L26.4963 93.9891L26.3019 94.1835L25.9964 93.9891L25.8296 93.5447L25.6075 93.6003L25.5519 93.9891L25.1908 94.0724L24.6631 94.0169L24.4965 93.7946L24.0243 93.9613L23.691 94.1279L23.6076 94.2946L23.3022 94.4057L23.3856 94.6556L23.1633 94.7946L23.0521 95.0167L22.5246 95.2112L22.3577 95.4611L22.3855 95.7389L22.2745 95.9611L22.2189 96.5721L21.9968 96.7666L21.8302 96.8777L21.5245 97.1276L21.4967 97.2943L21.1358 97.0165L20.9414 97.0998L20.6913 97.4331L19.8025 97.7665L19.5248 98.0442L18.8859 98.1553L18.525 98.1275L18.7471 97.3221L18.5526 97.1554L18.8583 96.9888L18.9693 96.6554L18.7471 96.5166L18.525 95.8777H18.2749L18.0527 95.6556L17.7194 95.6001L17.0806 95.9055L16.6361 95.7944L16.4141 95.4889L16.6917 95.4333L16.9972 95.1834L17.0528 95.0167L17.3861 94.7946L17.6084 94.5723L17.8028 94.5168L17.9416 94.1002L18.3583 93.7669V93.4335L18.6638 93.1559L18.6916 93.0447L18.9693 92.9336L19.247 93.0169L19.7471 92.9336L19.997 92.8503L20.247 92.5725L20.4414 92.5448L20.7469 92.8503H21.1912L21.8024 92.6559L22.1635 92.4337L22.5522 91.9615L22.7466 91.7948L23.3022 91.5449L23.6076 91.2116L24.0799 90.8783L24.5243 90.3228L25.3853 89.7395L25.9686 89.4896L26.1907 89.184L26.663 89.1007L26.8574 88.9896L27.1351 89.0452L27.4406 88.7952L27.7739 88.7674L28.0239 88.6008L28.2462 88.2953L28.5238 88.2397L28.8293 87.6842L29.4127 86.9343L29.6903 86.6566L30.2737 86.601L30.718 86.2955L30.9958 85.9899L31.2179 85.5178L31.468 85.4345L31.8846 84.9623L32.1623 84.7678L32.6623 84.0735L32.8011 83.7124H33.5789L33.5511 83.518L33.9122 83.0458L34.5509 82.768L34.7732 82.7958L35.1343 82.657L35.5786 82.3792L35.7176 82.2126L36.2729 81.8793L36.9673 81.2683L37.3562 80.8238L37.6063 80.2961L37.9395 79.7962L38.245 79.5184L38.4117 79.2685L38.7727 78.9629L39.3561 78.0186L39.6894 77.2964L39.7726 76.9076L39.8838 76.7131L39.967 76.3243L40.1615 76.2132L40.3281 75.741L40.6058 75.1856L40.717 74.019L40.8281 73.6024L41.0225 73.1858L41.1057 72.8247L41.2725 72.658L41.4392 71.6581L41.7447 71.3526L41.8557 70.6583L41.7725 70.5193L41.7447 69.9917L42.0502 69.9084L42.4112 69.9639L42.7445 69.7416L42.8834 69.825L43.3833 69.8528L43.6889 69.6861L43.9944 69.325L44.5776 68.9084L44.8832 68.5196L45.1609 68.1029L45.6886 66.9086L46.2998 66.3254L46.4386 65.7143L46.6053 64.1312L46.5497 63.5479L46.6053 62.9091L46.6331 62.7979L46.5497 61.9369V61.4925L46.7719 61.2426L46.8829 60.9926L47.133 60.6038L47.4385 60.2705Z" fill="#00212E"/>
</svg>
