<svg width="147" height="63" viewBox="0 0 147 63" fill="none" xmlns="http://www.w3.org/2000/svg">
<g clip-path="url(#clip0_212_1353)">
<path d="M48.5435 41.1547L47.8161 41.1092L47.0328 41.9861L46.2216 41.91L45.9558 40.1869L44.5151 40.9431L44.3612 38.5845L44.7809 38.4175L43.9976 37.3597L44.641 37.3746L45.2984 36.6035H46.879L47.0608 36.7242L46.823 37.2994L47.2986 38.7051L48.5295 40.4134L48.5435 41.1547Z" fill="#00212E"/>
<path d="M40.5283 15.5895L40.3464 16.149L38.4022 18.7524L38.2903 19.1458L38.8638 20.4169L38.9757 21.2343L40.0387 22.5806L40.1087 23.1707L39.703 23.9278L38.9337 23.9881L38.3462 24.6237L37.3951 24.8204L36.6398 24.5633L35.5767 25.6526L34.9333 25.3956L34.3458 25.4559L33.7443 26.0915H33.1009L32.7512 26.7261L32.3316 26.6658L31.6882 27.1195L31.7441 26.1518L30.5132 26.0303V25.0774L30.9189 24.8204L30.8629 24.3054H29.7999L29.688 24.8204H24.2748L24.2049 23.4889L23.5615 23.2319L23.5055 22.2781H22.2047L21.799 21.7029L22.0368 20.75L20.68 21.1285L18.5539 20.9922L18.3861 20.6739L15.4907 20.6136L15.0291 21.6277L14.1339 22.717L14.064 21.6583L14.0919 21.6128L15.099 20.9467L15.2529 20.0235L16.1481 19.0855L16.1901 18.5103L16.8475 18.2532L17.8126 17.5871L18.5539 17.4962L19.4491 16.997L19.7289 16.6184L20.1485 15.3019L21.6312 13.9696L22.0928 12.6224L22.6383 12.0769L24.3448 12.5769L24.2329 13.8332H23.9111L24.037 15.0143L24.7364 15.725L25.156 15.4374L25.5477 14.5142L26.2471 14.3481L25.9813 13.6216L25.0022 14.2117L24.8483 13.7571L26.2051 13.0761L26.1352 12.41L26.4848 11.5628L27.394 10.7446L28.0934 9.91232L28.569 9.71562L29.4502 9.97264L30.4573 9.91232L30.8629 9.45773L31.0448 8.50396L31.6322 8.00478L32.989 7.68656L33.6324 8.12542L34.5137 7.55019L35.0452 7.11133L35.5208 7.35349L35.3389 8.18574L35.6886 8.89736L35.227 9.21557L35.5208 10.5479L35.283 10.8661L35.6886 11.6983L35.5767 12.4554L35.1571 13.4852V15.5895L36.2201 15.5134L37.1013 15.0746L37.7588 15.1349L38.64 14.8176L39.703 15.7101L40.5283 15.5895Z" fill="#00212E"/>
<path d="M53.8871 35.71L52.6562 35.9067L52.2366 35.5133L51.3554 35.5745L50.8938 35.3927L49.9427 36.0282L49.2993 35.6497L48.8796 35.8315L48.474 34.1828L47.8306 33.4117L48.3481 33.1547H49.4671L49.7608 32.6555L50.2924 32.8373L50.7679 32.4588L51.7051 32.3985L52.4744 32.277L53.1318 31.8232H53.6494L53.6214 32.9886L53.9431 35.1357L53.8871 35.71Z" fill="#00212E"/>
<path d="M50.4315 47.0646L48.711 47.6092L47.2983 47.4728L46.529 47.2919L45.5918 46.7778L45.8855 46.2638V45.3721L46.2352 44.6159L46.0534 43.6342L46.6548 43.5887L46.6828 43.1201L47.578 43.3317L48.6271 43.4375L48.9068 43.7548L49.5922 43.4069L50.0118 44.3895L50.3755 44.7977L50.893 44.2382L51.5645 44.8581L51.5784 45.3266L50.5574 46.1274L50.4315 47.0646Z" fill="#00212E"/>
<path d="M38.3747 31.4917L38.2908 30.9471L37.8992 30.4479L37.1299 30.0693L36.5424 30.4785L35.9969 30.5239L35.0737 30.9471L34.2904 30.4785L33.633 30.4024L32.9336 30.781L32.6678 31.2347H31.7727L31.5349 30.9471L30.7935 30.9016L29.5486 31.7793L28.7374 31.6578L28.1219 32.2479L26.5273 32.4595L26.3875 31.8239L26.919 31.4462L27.5624 30.2966L26.919 29.0264L27.5624 28.9652L28.038 28.3909L28.7514 28.7685L29.2129 27.7553L30.1641 28.0726L30.3879 27.8156H31.5069L31.6887 27.1197L32.3322 26.666L32.7518 26.7263L33.1015 26.0917H33.7449L34.3463 25.4561L34.9338 25.3958L35.5772 25.6528L36.6403 24.5635L37.3956 24.8205L38.3468 24.6238L38.9342 23.9883L39.7036 23.928L40.1092 23.1709L43.0466 23.2924L43.1165 23.8676L45.1447 23.761L45.942 23.8371L46.1798 25.5164L46.0539 26.4693L44.4733 28.1942L43.5221 28.7082L42.8228 28.8297V28.0123L41.5779 28.3305L41.8716 28.7685L41.7317 29.8578L40.0532 29.9793L39.4658 30.9322L38.3747 31.4917ZM27.7582 38.7197L21.9395 38.6594L22.5129 37.6619L22.9466 37.6165L24.2754 37.0718L24.2334 36.6636L25.9818 35.938L26.0937 36.7396L26.8351 35.7264L28.2338 34.8032L28.8493 34.562V33.8058L29.5486 33.8512L30.3739 34.5165L30.7935 35.4843L30.3319 35.6958L30.6397 36.3156L30.1781 37.5859L29.7864 38.085L28.6954 38.2966L28.038 37.0718L27.4505 37.0412L27.7582 38.7197ZM31.1432 32.2934L31.6188 32.3685L31.5768 32.9586L31.9265 33.9719L30.9474 34.4256L30.6397 33.7603L30.7236 32.7925L31.1432 32.2934Z" fill="#00212E"/>
<path d="M55.2019 16.8303L55.5096 17.194L54.8802 18.0411L54.3766 17.7535L54.5025 17.2395L55.2019 16.8303ZM57.0622 20.9776L58.1952 20.4024L58.461 20.8561L60.2094 20.5685L60.5871 21.0231L60.671 22.0818L60.2094 22.8388L61.1466 23.4289L61.4962 22.6264L62.1956 22.3694L62.923 21.6586L62.3495 20.8561L61.72 18.7528L62.1537 17.9957L62.7271 17.542L63.4405 18.0866L63.4685 16.9064L64.014 17.2395L65.105 17.0725L64.9512 16.1948L65.3008 16.0584L65.4547 15.3923L65.8743 14.8931L66.5038 14.6815L66.8115 14.136L68.0144 14.0451L68.0564 14.7567L68.7557 15.1352L68.6718 15.8163L69.539 16.1493L70.1545 14.9691L70.2384 13.9699L70.658 13.8335L70.8539 15.0601L71.3574 16.2402L70.8958 16.5733L70.1125 16.6188L69.8468 17.451L70.0426 18.4197L70.5042 18.9189L70.1125 19.6453L69.4551 19.8123L69.9167 20.4776L69.539 21.4462L70.5042 20.9016L70.8119 19.8578L71.3155 19.9329L71.7071 21.7487L72.1827 22.1272L72.2107 20.0545L71.9449 19.3883L72.1827 18.5866L73.0639 17.2089V16.6494L74.113 16.8303L74.5466 17.451L74.4626 18.0866L74.043 18.5866L74.2388 19.3734L73.7353 19.3428L73.6234 20.4321L74.029 20.871L73.9171 21.5065L74.2668 21.8851L73.8472 23.4132L72.5044 24.7604L71.9029 24.3058L71.0917 24.1248L70.0846 22.914L69.4971 23.4132L68.9096 23.4893L68.3221 23.2322L67.7347 22.5967L67.2591 21.7032L65.9583 21.4462L65.5526 21.7644L65.6645 22.4L65.2029 23.3529L63.7203 23.171L63.0209 23.3529L62.7831 24.3818L62.0697 25.2596L61.5382 25.138L60.7829 25.91H58.7127L57.9574 26.5455L58.1952 25.3959L57.8315 24.624V23.8678L57.3 23.5496L57.5378 21.6281L57.0622 20.9776ZM72.952 9.80688L73.3856 10.2606L73.2317 11.1086L72.3645 10.5185L72.952 9.80688ZM82.8551 2.56836L82.9391 3.70397L84.1 4.83958L83.4006 4.91563L82.4775 4.46104L82.0019 3.37089L82.2397 2.77992L82.8551 2.56836ZM73.0359 12.6227L73.6094 12.8343V13.7129L74.1549 14.3484L73.2597 15.8923L72.7981 15.7708L72.7562 14.3782L72.3365 14.2575L72.0988 13.5914L73.0359 12.6227ZM51.8449 21.5677L50.8797 21.8099L50.6 22.1124L50.4321 22.9743L48.6418 22.9901L48.5019 23.4132L47.1451 23.3835L46.8374 23.7463L45.9422 23.8372L45.1449 23.7611L43.1167 23.8678L43.0468 23.2926L40.1094 23.171L40.0395 22.5809L38.9764 21.2347L38.8645 20.4173L38.291 19.1461L38.4029 18.7528L40.3472 16.1493L40.529 15.5898L41.5221 15.2716L42.5292 14.4997L43.2286 14.2427L43.5223 13.6674L44.2357 13.1674L43.886 12.5921L44.0539 12.1987L45.6484 12.0169L45.7044 12.6525L46.2359 12.517L46.7674 12.9104L47.1171 11.8805L47.7046 11.3813L48.8236 11.1235L50.1244 11.5632L50.8238 11.6384L51.7749 12.0169L52.5303 11.8805L53.4814 12.0772L54.7123 11.6987L55.1879 10.9268L55.8873 10.4879L56.1251 10.0333L57.0063 10.4276L57.8875 11.502L59.6079 11.5632L60.0136 11.1846L61.1885 11.1235L61.6081 10.8664L62.4894 10.9268L63.7203 11.6384L65.0211 12.1987L67.9025 10.1697L68.49 10.0945L69.0215 9.71596L69.4132 8.91343L69.8048 9.42834L67.4409 11.4417L65.9583 12.9104L64.6434 13.7129L64.014 13.8029L63.7482 14.2121L62.5733 14.5906L61.8739 15.0601L61.3424 14.9237L60.9507 15.5592L59.4261 16.4072L58.8946 17.2395L58.3071 17.7535L57.3 17.3759L55.4676 15.4832L55.0061 14.8476L54.3067 15.0146L53.985 15.3923L53.0618 15.4832L52.6002 14.8022L51.9708 15.6502L51.9288 16.7394L53.2856 17.027L52.782 17.542L53.0618 18.2536L52.0827 18.299L51.5092 17.875L51.4253 17.1634L50.8378 16.7394L50.5301 17.542L49.7608 18.0411L48.2361 17.7535L47.5787 18.5106L47.8165 18.9949L48.7397 19.6453L50.2223 19.6759L50.4601 20.0999L51.0056 20.2206L51.3134 21.371L51.8449 21.5677Z" fill="#00212E"/>
<path d="M5.89556 28.421L6.51101 28.6335L6.16132 29.1326L5.50391 28.7996L5.89556 28.421ZM31.6885 27.1202L31.5066 27.8161H30.3876L30.1638 28.0731L29.2127 27.7557L28.7511 28.769L28.0377 28.3913L27.5622 28.9657L26.9187 29.0269L27.5622 30.2971L26.9187 31.4467L26.3872 31.8243L26.5271 32.4599L25.548 32.4144L24.6947 31.326L24.0793 30.9475L23.226 31.4012L22.5966 31.4921L22.0931 31.0681L21.044 30.902L20.1488 31.326L19.883 31.6582L19.0578 30.7814L18.2045 30.4483L18.2885 31.1136L17.1555 31.4467L16.6939 32.5054L15.9526 32.369L14.5538 31.5376L14.4419 30.902L13.9663 30.6144L12.4137 30.8566L11.5605 30.4029L10.7912 29.3442L11.4486 28.6789L11.6444 27.7103L11.5185 27.2417L10.7912 26.8632L10.6233 26.1979L10.7912 25.5623L9.04274 24.9722L8.91685 24.7755L9.70015 23.6714L10.5534 23.0052L10.7072 22.4151L11.8402 22.0821L12.7354 22.2036L13.4208 21.7796L14.0642 21.6589L14.1342 22.7176L15.0294 21.6284L15.491 20.6143L18.3864 20.6746L18.5542 20.9928L20.6803 21.1292L22.0371 20.7506L21.7993 21.7035L22.205 22.2788H23.5058L23.5617 23.2325L24.2052 23.4896L24.2751 24.821H29.6883L29.8002 24.3061H30.8632L30.9192 24.821L30.5135 25.078V26.0309L31.7444 26.1524L31.6885 27.1202Z" fill="#00212E"/>
<path d="M53.6488 31.8243H53.1312L52.4738 32.278L51.7045 32.3995L50.7673 32.4598L50.2918 32.8384L49.7602 32.6565L49.4665 33.1557H48.3475L47.83 33.4127H47.0607L46.8788 33.7301H45.8158L45.4661 33.4127L44.8786 33.9268L43.8156 33.6698L43.284 33.9871L42.5287 33.2921L42.4028 32.021L43.0602 31.1896L42.8225 30.6144L43.2281 30.1003L42.8784 29.6615L43.5218 29.0871V28.7086L44.473 28.1945L46.0536 26.4697L46.1795 25.5168L45.9417 23.8374L46.8369 23.7465L47.1446 23.3837L48.5014 23.4134L48.6412 22.9903L50.4316 22.9746L50.5995 22.1126L50.8792 21.8101L51.8444 21.568L52.7116 22.506L52.7536 23.2928L52.5577 23.9283L53.1033 24.5936L51.6206 26.1069L51.4248 26.954L53.2851 24.6845L53.6767 24.049L54.0264 22.3696L54.46 21.568H55.3832L56.0826 20.9473L56.1245 20.2662L56.6701 20.0547L57.0617 20.9779L57.5373 21.6283L57.2995 23.5498L57.831 23.868V24.6242L58.1947 25.3962L57.9569 26.5458L58.1947 27.559H57.1316L57.2435 27.9375L56.8379 28.5722L55.7189 29.6615L54.544 29.9185L53.8306 31.0681L53.6488 31.8243Z" fill="#00212E"/>
<path d="M43.284 33.9865L43.8155 33.6691L44.8786 33.9261L45.4661 33.4121L45.8157 33.7295H46.8788L46.7669 34.4402L47.3544 35.2567V35.9674L47.0606 36.7236L46.8788 36.603H45.2982L44.6408 37.3741L43.9974 37.3592L43.1441 36.7394L42.6825 37.0716L43.2281 37.5856L42.7665 38.0393L41.2558 38.1757L40.9761 37.6459L42.165 36.6179L42.2909 35.7716L41.6615 35.6204L41.5775 34.4402L42.9903 34.6972L43.284 33.9865Z" fill="#00212E"/>
<path d="M48.9069 50.3886L48.9768 51.0232L48.3893 51.1448L48.1236 50.5555L48.9069 50.3886ZM44.7806 49.044L45.3261 49.8903L45.0883 50.8571L44.1931 50.6001L44.0392 50.1324L43.3818 50.1018L43.3119 49.1349L44.1232 49.2101L44.7806 49.044ZM39.2275 44.888L39.9269 44.8723L41.0459 44.6152L41.8712 45.2508L42.9902 47.1697L43.1161 47.6689L43.8854 47.23L44.1092 46.7169L44.8785 47.0342L45.5918 46.7772L46.529 47.2912L47.2983 47.4722L48.7111 47.6086L50.4315 47.0639L52.7115 46.7169L53.5367 47.23L54.6557 47.2912L55.0054 47.6689L55.7747 47.3515L56.4741 47.487L57.2434 47.8656L57.733 48.8325L57.2154 49.044L58.2225 50.5101L57.719 51.7794L58.2225 52.4439L58.4603 53.5017L58.3764 54.333L58.9219 54.257L59.0478 54.8313L58.1526 55.0429L57.1735 55.0123L56.558 54.7107L56.6699 53.9545L56.4321 53.1992L56.0825 53.2446L55.5789 52.5645L55.7747 51.9455L55.3831 50.6456L55.509 50.1324L55.0054 49.7242L54.7257 50.2225L54.8096 51.477L53.215 51.5976L52.8653 52.2778L52.7814 53.0331L53.8724 53.6984L53.8305 54.1661L53.285 54.5446L53.8305 55.7982L54.0263 56.599L52.5576 56.856L52.2499 56.4329V54.6346L52.6695 54.1661L52.4317 53.3653L51.8163 53.4107L51.5085 54.076L50.9211 54.0454L50.2637 54.4231L50.3056 53.6223L50.9211 53.1546L50.3336 52.2323L50.1378 51.5679L50.3756 50.8571L50.0259 50.2679L49.3685 50.6001L48.739 49.8448L48.9069 49.2101L47.7739 49.2556L47.1165 50.3886L46.9207 51.3563L45.9555 50.9787L45.7597 49.8903L45.3261 49.5423L45.1722 48.9234L41.6753 48.6664L41.1298 48.0317L41.0459 47.3664L40.7102 47.1094L39.815 45.2657L39.2275 44.888Z" fill="#00212E"/>
<path d="M73.9589 37.4496L73.9169 37.8281L74.3925 38.4173L74.1547 39.8843L73.1476 38.4628L73.2315 37.8281L73.9589 37.4496ZM72.6021 36.9058L72.1825 37.662L72.1405 38.2967L71.0915 38.6298L71.2873 37.662L71.6649 37.0719L72.0986 37.238L72.6021 36.9058ZM63.9718 36.029L64.9929 36.9513L64.909 37.5405L64.1257 37.4198L63.6221 36.5727L63.9718 36.029ZM64.6432 29.4802L64.7132 28.6785L65.4965 28.7992L66.5875 28.724L67.2449 29.3132L67.091 29.9339L67.5526 30.8562L67.3988 31.567L68.5597 32.248L68.4478 33.1248L68.0562 34.4711L68.9514 35.6959L68.9094 36.6636L68.4059 36.9967L67.3988 36.8603L67.0491 35.4843L66.8113 35.1058L66.9652 34.305L66.2658 34.3505L65.6503 33.9265L65.1048 32.9133L65.4965 32.1571L65.5384 31.4918L65.2587 30.8265L64.7551 30.524L64.6432 29.4802ZM56.7963 42.9082L56.5445 41.4412L57.0061 41.5628L56.7823 40.4132L56.3067 40.0958L56.9501 38.7653L56.1808 37.752L55.2996 37.238L54.7121 35.6504L53.8869 35.7107L53.9428 35.1364L53.6211 32.9893L53.6491 31.824L53.8309 31.0678L54.5443 29.9182L55.7192 29.6612L56.8382 28.5719L57.2439 27.9372L57.132 27.5587H58.195L57.9572 26.5455L58.7125 25.9099H60.7827L61.538 25.138L62.0695 25.2595L62.7829 24.3818L63.0207 23.3528L63.7201 23.171L65.2027 23.3528L65.6643 22.3999L65.5524 21.7644L65.9581 21.4461L67.2589 21.7032L67.7345 22.5966L68.3219 23.2322L68.9094 23.4892L69.4969 23.4131L70.0844 22.914L71.0915 24.1247L71.9027 24.3057L72.5042 24.7603L73.847 23.4131L74.2666 21.885L73.9169 21.5065L74.0288 20.8709L73.6232 20.432L73.7351 19.3428L74.2386 19.3734L74.4345 19.9329L76.057 20.1899L76.7983 19.8122L77.9593 19.8874L78.6307 20.4023L78.351 22.3239L79.1343 22.7479L79.442 23.8065L78.5468 23.928L77.8894 23.4289L77.6096 22.6718L77.1061 22.7933L76.6025 22.5354L75.9032 23.1255L75.3297 24.0487L75.1338 25.3504L74.5044 25.6529L74.7422 26.2884H75.9032L76.5326 27.3768L77.3858 27.4529V28.5422L77.5816 29.1323L76.9522 29.3893L77.5397 30.524L77.3019 30.9926L76.8403 30.9471L76.2109 29.7669L75.3996 29.4347L75.3297 30.2661L76.0151 30.6901L75.8332 31.3703L75.1618 31.824L75.008 32.7926L74.0428 33.0042L73.847 33.5033L73.2315 33.0042L73.0357 34.0926L72.9938 35.2728L72.5182 35.5298L71.595 33.2918L71.0495 33.2612L70.7418 33.8058L70.1123 33.0951L69.8466 31.9149H69.4549L69.0353 31.4009L69.2171 31.0223L69.5388 29.1017L68.4059 29.0107L67.6645 28.3761L66.6994 28.043L67.091 27.4529L67.119 26.6967L66.1539 26.8628L65.6923 27.9669L64.4894 28.1636L64.1677 27.3768L63.3983 27.4529L62.9647 26.5752L62.4192 26.4545L61.4541 26.9083L61.524 28.0884L60.7127 28.9356L61.2163 29.3893L60.7967 30.1L60.9086 31.0223L61.6079 31.6579L61.566 32.5802L60.9086 33.0496L60.6008 32.2025L59.7476 32.248L60.2931 31.5372L60.3631 30.781L59.8595 30.7356L58.6986 31.7033L59.2021 32.505L60.3211 33.0951L59.9434 33.9719L60.0973 35.0157L60.405 35.1058L60.7827 36.3612L60.7547 37.2835L61.3702 37.4496L61.6499 37.8281L62.615 37.5405L63.1606 37.5859L63.3144 38.7198L63.6221 38.8413L63.7061 40.1413L64.3635 39.3396L65.1748 39.2644L66.3497 40.7305L66.1958 41.8644L65.1468 42.3635L64.951 42.8321L63.9439 42.666L63.748 42.2429L63.0487 42.5751L63.0067 43.6635L63.3983 43.966L64.6013 43.8453L64.9929 45.1453L65.7203 45.5684L65.6084 46.0667L64.2096 46.6114L64.0138 46.1122L63.4683 45.9461L63.2025 45.3866L62.3493 45.3114L61.8457 45.7643L61.3702 46.6568L60.8666 46.5204L60.2092 44.8428L59.6637 44.5552L60.0553 43.8453L59.9714 43.4213L60.2931 42.7867L60.2512 42.1668L59.6217 41.109L59.5798 40.7305L58.7265 40.6099L58.0691 41.2751L56.7963 42.9082ZM63.9019 29.6008L63.776 30.4025L64.3215 30.8562L64.0558 31.3703L63.5942 31.3257L62.9647 30.6901L63.5102 29.6008H63.9019ZM71.7908 45.0998L71.595 46.2783L71.1334 45.7345L71.7908 45.0998ZM64.1677 47.4121L64.2516 48.2129L64.0977 49.679L63.3983 49.5881L62.9647 50.2988L62.5031 49.5881L61.8737 49.2104L62.0276 48.3336L62.657 47.6543L63.0906 47.8204L63.3983 47.3667L64.1677 47.4121ZM73.7631 35.1512L74.2386 35.3182L73.9169 35.9835L73.0637 36.286L73.1896 35.0612L73.7631 35.1512ZM71.9867 46.6568L72.1405 47.2006L71.9867 47.8659L71.3572 47.7898L71.9867 46.6568ZM67.8603 29.2232L68.252 29.8579H67.5107L67.8603 29.2232ZM74.5044 35.5298L75.5535 36.6942L74.6583 36.5273L74.5044 35.5298Z" fill="#00212E"/>
<path d="M69.4132 8.91338L69.0216 9.71591L68.49 10.0944L67.9025 10.1696L65.0211 12.1987L63.7203 11.6383L62.4894 10.9267L61.6082 10.8664L61.1886 11.1234L60.0136 11.1846L59.608 11.5631L57.8875 11.5019L57.0063 10.4275L56.1251 10.0333L55.8873 10.4878L55.1879 10.9267L54.7124 11.6986L53.4815 12.0772L52.5303 11.8805L51.775 12.0169L50.8238 11.6383L50.1245 11.5631L48.8236 11.1234L47.7046 11.3813L47.1172 11.8805L46.7675 12.9103L46.2359 12.5169L45.7044 12.6524L45.6485 12.0169L44.0539 12.1987L43.886 12.5921L44.2357 13.1673L43.5224 13.6674L43.2286 14.2426L42.5293 14.4996L41.5222 15.2716L40.5291 15.5898L39.7038 15.7104L38.6407 14.8178L37.7595 15.1352L37.1021 15.0749L36.2209 15.5137L35.1579 15.5898V13.4855L35.5775 12.4557L35.6894 11.6986L35.2837 10.8664L35.5215 10.5482L35.2278 9.21586L35.6894 8.89764L35.3397 8.18603L35.5215 7.35377L35.046 7.11162L34.5144 7.55047L34.8082 6.65702L33.9829 5.82389L34.99 5.44536L35.4516 4.87012L36.3888 5.32471L37.1021 5.18834L37.228 5.70325L38.0533 5.0065L38.2911 5.89995L38.6407 6.02147L39.7038 5.26352L39.9276 4.74861L41.0466 4.17337L42.2915 3.97667L43.0608 4.23369L44.1798 3.34024L43.8161 2.9617L44.1098 2.26495L44.7673 2.18977L44.8792 1.55334L45.2988 1.1748L46.8234 1.43182L47.4668 1.31118L47.9984 2.12858L48.7677 2.06825L49.537 2.26495L50.9497 1.81123L53.1318 2.18977L54.6564 3.34024L53.985 3.94607L53.2577 4.03699L52.908 4.41553L52.4324 5.47596L51.9708 5.38504L52.1247 6.64216L53.3696 6.5967L53.6773 5.93055L54.2648 6.14211L54.9222 5.47596L55.2719 5.71811L55.9293 5.1726L56.0552 4.37007L56.3629 3.99153L56.5587 3.11294L57.3 3.1584L57.4959 3.77997L58.3491 3.06749L58.8527 4.24943L59.4261 4.50645L60.0136 5.05196L59.3982 6.23303L60.8668 6.68762L61.3005 6.30908L62.0278 6.18757L62.2656 6.77854L62.1957 7.44469L61.804 8.24722L61.1466 8.53484L60.9787 9.07948L62.5034 8.91338L62.3915 9.29191L63.5524 9.24645L63.8602 9.80683L64.4057 9.21586L63.9021 8.70094L64.9932 8.67122L65.4967 8.45879L66.0422 7.82323L66.0003 6.89918L66.8115 6.97524L67.6368 7.98933L66.9654 8.79186L66.3499 8.95884L66.1122 9.33737L65.3708 9.21586L64.3218 10.0184L65.0631 10.5936L66.6157 9.97293H67.3151L68.4061 9.63985L69.4132 8.91338ZM63.7063 2.23523L63.8182 2.81047H65.6506L66.7696 3.0229L66.266 3.49236L65.8044 3.23446L65.175 3.87089L64.4057 3.189L63.9021 3.4469L64.4896 4.62796L65.4967 5.26352L65.217 5.76357L63.9441 5.50655L62.6153 5.55201L62.923 4.74861L63.8182 4.62796L63.3566 3.94607L62.7272 3.49236L63.2447 2.23523H63.7063ZM67.4689 4.91558L67.6648 5.47596L67.4689 6.47519L66.8115 6.85372L65.8044 6.23303L65.7625 5.55201L66.4199 5.50655L66.6996 6.14211L67.2032 5.76357L67.1193 5.05196L67.4689 4.91558Z" fill="#00212E"/>
<path d="M53.887 35.7113L54.7123 35.651L55.2997 37.2386L56.1809 37.7526L56.9503 38.7659L56.3068 40.0964L56.7824 40.4138L57.0062 41.5634L56.5446 41.4418L56.7964 42.9088L55.9292 42.8782L55.8592 42.3335L55.1599 41.6989L54.8102 41.0642L54.0688 40.4741L53.7191 39.9303L52.6001 38.8419L51.9707 38.494L51.9987 38.1915L51.0615 37.2386L51.3553 36.9213V35.5758L52.2365 35.5146L52.6561 35.908L53.887 35.7113Z" fill="#00212E"/>
<path d="M43.2837 33.9871L42.9899 34.6978L41.5772 34.4408L41.6611 35.621L42.2906 35.7723L42.1647 36.6185L40.9757 37.6466L41.2555 38.1763L40.626 38.297L39.6889 37.5863L40.1225 37.1631L41.5212 36.6639L41.2415 36.3615L40.2764 36.4821L39.8427 34.7284L39.4231 33.6392L38.6818 33.3821L38.7237 32.3689L38.2901 31.5069L38.3461 31.4921H38.3741L39.4651 30.9326L40.0526 29.9797L41.7311 29.8582L41.8709 28.7689L41.5772 28.3309L42.8221 28.0127V28.8301L43.5214 28.7086V29.0871L42.878 29.6615L43.2277 30.1003L42.8221 30.6144L43.0599 31.1896L42.4025 32.021L42.5283 33.2921L43.2837 33.9871ZM36.7375 31.159L37.8705 31.5673L37.8285 32.4144L38.444 33.4731L38.2901 34.1383L38.5979 34.5169L38.7237 35.2276L38.2901 36.4069L37.6747 37.0416L35.9962 36.4821L35.5766 36.9516L35.073 36.2408L35.2269 35.6053L35.1849 34.3053L34.5974 34.2293L34.4436 33.5946L34.024 33.2615L34.1359 32.7475L33.8281 31.9152L35.1849 31.2351L36.7375 31.159Z" fill="#00212E"/>
<path d="M51.3555 35.5749V36.9203L51.0617 37.2377L51.9989 38.1906L51.9709 38.4931L51.7052 38.841L52.5584 39.3096L53.048 40.0658L52.8661 40.398L51.6632 39.3096L50.5022 38.0393L49.9148 37.9642L49.5231 38.7955L49.8308 39.4757L49.7189 40.4732L48.544 41.1542L48.53 40.4128L47.2991 38.7046L46.8235 37.2989L47.0613 36.7236L47.355 35.9674V35.2567L46.7676 34.4402L46.8795 33.7295L47.0613 33.4121H47.8306L48.474 34.1832L48.8797 35.8319L49.2993 35.6501L49.9427 36.0286L50.8939 35.3931L51.3555 35.5749Z" fill="#00212E"/>
<path d="M21.0027 57.521L20.1914 56.8863L20.3033 56.1764L20.8908 55.5872L21.2404 55.6327L21.9398 56.645L21.8978 57.4449L21.0027 57.521ZM10.7079 38.0854L13.3095 37.1631L13.6592 37.4201L14.7083 37.5407L15.1419 37.7978L14.3166 39.0986L13.855 41.1093L14.0928 41.6985L13.3515 42.3638L10.9457 41.5779L9.96653 41.5324L7.99429 41.8646L7.79847 41.5324L8.49784 40.5647L8.14816 39.7639L7.60264 39.4308L8.21809 39.0077L10.7079 38.0854ZM40.1655 59.2887L38.7248 58.6994L38.7947 57.7325L39.4941 57.4003L39.7319 55.512L39.5361 55.1344L39.7319 54.2121L39.4661 53.1551L38.5989 52.913L38.487 53.5022H37.0463V53.1551L37.8995 51.9461L38.0954 51.266L37.4799 50.8122L38.0954 50.3891L39.3123 49.966L39.8857 50.2685L39.5361 50.8883L39.62 51.6436L40.2634 52.0213L40.669 52.9882L41.5223 52.732L41.872 53.0791L41.6761 53.8344L41.1306 53.9105L40.4732 54.6352L40.9348 55.0435L41.6342 54.5897L42.3755 54.5452L43.0329 54.8013L43.2288 54.2575L43.9281 54.0766L44.082 54.4542L44.9352 54.4236L45.0611 54.998L44.2778 55.4211L43.8162 55.0129L42.6133 56.5541L42.7672 57.1433L43.4665 58.3672L42.8791 58.4424L41.872 57.521L41.5223 57.6871L41.9419 58.5779L41.5223 59.1671L41.1726 58.4879L40.1655 59.2887ZM57.9156 61.8108L57.6499 61.2216L58.0275 60.2547L58.657 59.5754L59.5801 59.3638L59.6221 58.9862L60.7131 59.4993L60.7551 60.6323L61.1048 61.6298L59.6221 61.5992L58.7688 62.143L57.9156 61.8108ZM21.9398 38.6597L27.7586 38.7201L27.8845 39.2192L27.297 39.4308L26.6396 39.0077L26.1361 39.3399L25.2828 39.2647L24.8912 40.3531L24.9331 41.3663L26.0941 40.9878L26.5557 41.9555L25.5066 42.1977L25.4367 42.9985L25.8983 43.2861L25.5905 44.5555L25.8563 44.8125L25.6605 45.7348L25.045 46.1431L24.1498 45.9464L23.1427 45.0546L22.5133 45.4778L23.7302 46.8687L24.0799 47.6546L23.7302 48.4554L22.835 48.6669L22.5133 49.7999L23.1847 50.8577L25.1569 51.1453L25.129 52.0213L24.3037 52.3692L24.1079 52.9436L23.4924 53.1097L23.2546 53.6989L22.2895 53.1997L20.9607 54.0766L19.9536 53.3658L20.4571 52.4444L19.8837 51.78L19.7298 50.9338L20.1075 50.3445L19.6878 50.0115L18.9465 49.8454L18.359 50.2991L16.6525 50.8883L15.9112 50.8122L13.7711 51.6436L13.3515 52.1577L12.6941 52.399L11.9528 52.1122L11.3233 53.1551L12.0647 53.3658L12.3724 53.1097L13.0857 53.4113L12.806 54.4542L11.645 54.8774L11.1695 54.2575H10.7079L10.596 54.9228L9.7707 54.7558L8.88949 53.8799L8.49784 53.789L7.91037 52.656L7.25296 53.0336L6.66548 52.7766L5.22477 54.2575L4.84711 54.4997L4.06381 55.7227L3.71413 55.3757L2.24544 55.7227L2.07759 56.5541L1.26632 56.2219L1.15442 55.2096L0.52498 54.8013L0.483018 54.3336L0.80473 53.5328L0.259218 53.0791L0.175293 51.7345L0.566942 50.6767L1.11245 50.5561L1.81183 51.266L2.11955 50.7222L1.96569 49.3016L3.05671 49.0446L3.5183 48.6669L3.47634 48.0777L2.77696 47.6992L2.11955 48.0016L1.96569 47.4124L2.42728 46.8687L3.36444 46.7017L3.75609 47.0347L4.45546 45.6893L5.96611 45.3117L6.70745 44.677L6.74941 44.1778L7.86841 43.4977L7.95233 42.4547L9.22519 41.9101L9.96653 42.2886L10.7079 41.8646L11.7989 42.1217L12.1905 42.5754L12.764 43.8001L13.1137 43.6638L14.0928 41.8646L16.3868 41.5324L16.9603 41.1548L18.5548 40.7762L19.52 40.2325L20.2333 39.4308L21.6321 38.9622L21.9398 38.6597ZM30.3323 46.1431L30.4442 46.8687L29.7868 47.367L29.1993 47.0347L29.6329 46.2331L30.3323 46.1431ZM25.2409 55.7227L25.7444 55.6327L25.9402 55.0889L26.5976 54.8319L26.3738 54.3336L25.8983 54.2575L26.5557 52.565L27.5768 52.3238L27.7586 53.4113L26.7935 53.8344L27.0592 54.6352L28.3461 55.0889L27.5768 55.8897L26.9473 55.6327L26.178 56.4789L25.2828 56.3425L25.2409 55.7227ZM58.4192 57.4755L58.657 57.7325L58.573 58.5779L57.8736 59.0771L56.7547 58.744V57.7325L58.4192 57.4755ZM28.8496 41.9861L29.3252 43.2861L28.9755 43.8456H28.2342L27.8845 43.4977L27.5768 42.4093L28.8496 41.9861ZM26.8774 47.0347L28.8496 47.2463L29.0455 47.5331L28.8496 48.3793L29.2832 48.9991L28.7797 49.7544L28.3461 49.4677L28.0384 48.4554L27.5348 48.3338L27.297 47.8207L26.5557 47.7901L26.3738 47.367L26.8774 47.0347ZM10.4001 60.3307L10.8198 61.886L9.07133 62.5958L8.53981 62.143L9.11329 61.4331L9.61684 61.6298L10.0505 61.2521L9.96653 60.4968L10.4001 60.3307ZM9.70077 57.778L10.2743 58.4118L10.8198 58.3672L11.1415 58.911L10.7079 59.1977L10.4421 58.654L9.42102 59.1217L9.70077 57.778ZM63.3148 57.4449L63.0071 58.911L62.3496 58.654L62.2657 58.0342L62.7693 57.521L63.3148 57.4449ZM33.7452 42.8324V43.5431L33.0179 43.21L33.7452 42.8324Z" fill="#00212E"/>
<path d="M47.5786 43.3308L48.236 43.1193L49.4529 42.4085L49.7607 41.9854L50.53 41.6523L52.5162 41.9548L54.3066 42.9523L54.6143 43.4969L55.4676 43.1647L56.5166 44.0564L56.9502 44.8118L56.6285 45.3861L57.5237 45.4316L58.6987 46.5654L58.5308 46.8225L58.6147 48.0315L58.1951 48.7117L57.7335 48.8323L57.244 47.8654L56.4747 47.4869L55.7753 47.3514L55.006 47.6687L54.6563 47.291L53.5373 47.2299L52.712 46.7167L50.4321 47.0638L50.5579 46.1266L51.579 45.3258L51.565 44.8572L50.8936 44.2374L50.3761 44.7969L50.0124 44.3886L49.5928 43.406L48.9074 43.754L48.6277 43.4366L47.5786 43.3308Z" fill="#00212E"/>
<path d="M46.054 43.6336L46.2359 44.6153L45.8862 45.3715V46.2632L45.5924 46.7773L44.8791 47.0343L44.1098 46.717L43.886 47.2301L43.1167 47.669L42.9908 47.1698L41.8718 45.2509L41.0465 44.6153L39.9275 44.8724L39.2281 44.8881L38.9204 44.6005L39.2281 43.6336L40.1933 43.2857L40.2772 42.9526L41.0885 42.7113L41.3682 42.3634L42.2215 42.1973L43.1866 42.2427L44.1937 42.5749H45.2428L45.2148 43.2551L46.054 43.6336Z" fill="#00212E"/>
</g>
<path d="M114.644 27.1506C114.954 27.1124 116.204 27.9818 116.588 28.0769C117.738 28.3623 118.958 28.6404 120.125 28.8423C120.497 28.9067 121.201 28.862 121.59 28.8585L121.589 30.525C121.373 30.8584 121.083 31.336 120.822 31.618C120.68 31.7709 119.895 32.2953 119.708 32.3443C119.282 32.456 118.583 32.4101 118.126 32.4065C117.917 33.2324 117.428 34.7301 117.154 35.5539C118.383 35.9807 119.814 36.576 121.049 37.0477C121.653 36.7681 122.26 36.4922 122.867 36.2199L122.871 36.7487C122.595 37.1047 122.196 37.5404 121.892 37.8883L123.467 38.9299C124.103 38.9439 124.783 38.9314 125.423 38.9308C125.571 39.5485 125.795 40.0775 125.935 40.6794C125.963 40.7998 125.958 41.2844 125.958 41.4299C125.54 41.5879 125.077 41.7897 124.66 41.9608L122.713 40.7612C122.789 41.2774 122.829 42.2245 122.873 42.7866C122.45 42.9422 122.003 43.1327 121.584 43.3047C120.26 43.034 120.259 42.7991 119.256 41.9702L119.245 42.4059C119.225 42.9562 119.234 43.5225 119.16 44.0661C119.11 44.4362 118.739 45.435 118.767 45.7467C118.802 46.1262 119.021 46.9572 119.118 47.3632L118.119 47.6716C117.476 47.1766 116.798 46.6704 116.169 46.1602C115.669 46.5473 114.972 46.966 114.534 47.4051C114.474 47.4656 114.335 47.8615 114.296 47.9681C113.606 48.1848 113.51 48.206 112.793 48.189C111.601 47.3747 111.481 46.7135 110.886 45.4684L112.253 45.0956C111.87 42.0656 111.717 38.96 111.346 35.924C110.803 35.3929 110.252 34.7785 109.721 34.2275C109.42 33.9162 108.836 33.3258 108.619 33.0011C108.499 32.8214 108.151 31.9866 108.04 31.7378C108.202 30.8844 108.571 29.5902 108.789 28.7072C109.095 28.66 110.965 28.3738 111.042 28.3018C111.731 27.6634 111.617 27.7932 112.699 27.5626L114.644 27.1506Z" fill="#00212E"/>
<path d="M110.222 7.96094C110.813 8.28219 111.462 8.68163 112.048 9.02388L112.047 9.55004C112.678 9.80367 113.418 10.0817 114.023 10.3741C114.215 10.467 114.896 11.0325 115.011 11.2096C115.553 12.0464 115.792 13.0687 116.03 14.0021C115.531 13.8882 114.807 13.7876 114.286 13.6988C113.969 13.9777 113.646 14.2502 113.318 14.5162C113.397 14.7391 113.477 15.0258 113.548 15.2562L114.057 15.5553L116.116 14.3366C115.801 14.9557 115.482 15.5747 115.15 16.1846C115.057 16.3564 115.169 16.4581 115.02 16.6006C114.949 16.5606 114.592 16.1855 114.511 16.1028C114.39 16.2638 114.206 16.4691 114.072 16.6273C114.407 17.3797 114.296 18.0505 114.306 18.8851C113.998 19.0364 113.519 19.2772 113.229 19.4871C112.375 20.1036 111.563 20.93 110.535 21.2574C110.38 21.3067 109.476 21.286 109.252 21.2844C109.118 21.5096 108.395 22.5809 108.218 22.6398L107.004 22.6391C106.618 23.1989 106.094 23.8865 105.679 24.4278C105.465 24.0331 105.245 23.5157 105.056 23.101L104.055 20.9115C104.213 20.4234 104.364 19.9333 104.51 19.4414C104.58 19.2112 104.71 18.7463 104.812 18.5533C105.05 18.1057 105.599 17.8107 105.871 17.396C106.417 16.5637 106.844 15.5989 107.382 14.7669C107.862 14.0246 108.48 13.2685 109.017 12.5586C108.866 12.1906 108.705 11.8129 108.577 11.4379L108.061 11.4425C108.141 11.6381 108.218 11.8479 108.294 12.0458C107.727 12.1858 107.031 12.403 106.467 12.5778L105.474 10.8249L106.996 10.373L106.98 10.0722C107.659 10.0695 108.339 10.0708 109.018 10.076C109.402 9.35042 109.806 8.66785 110.222 7.96094Z" fill="#00212E"/>
<defs>
<clipPath id="clip0_212_1353">
<rect width="84.2746" height="61.7705" fill="white" transform="translate(0 1)"/>
</clipPath>
</defs>
</svg>
