<svg width="79" height="50" viewBox="0 0 79 50" fill="none" xmlns="http://www.w3.org/2000/svg">
<path d="M42.3754 7.80629L42.9997 8.18402L43.8697 9.23406L44.358 9.41705L44.5635 9.16262L44.9902 9.20372L46.4571 9.64996L47.011 10.0708L46.9816 10.0991L46.4777 10.8683L45.4971 11.5651L45.3327 12.3068L45.2779 12.5632L44.5538 13.1592L44.5449 13.764L43.8922 14.8062L43.2287 16.8055L42.119 16.645L41.4467 16.7712L40.3546 19.0944L40.3409 19.6688L40.8586 20.985L39.8506 21.3344V21.6984L41.1238 21.8805L41.614 23.4198L42.5515 23.7838L43.2238 24.4551L43.3638 25.4778L42.8598 25.8839L42.4958 26.1775L42.3979 26.5131L42.6778 27.2412L42.5056 27.9722L41.481 28.9626L41.5622 30.6408L39.9544 30.6291L39.7616 31.4462L39.9739 32.144L40.1736 32.1635L40.6991 31.0939L41.0377 31.1008L42.1542 31.639L42.7336 32.4894L41.07 33.7978L40.247 33.5884L40.0865 33.2136L39.4944 33.0374L39.2468 33.2361L39.3085 35.2882L38.4003 34.3487L38.0666 34.6355L38.3592 35.1541L37.4237 34.2215L36.1134 34.1843L34.8285 34.9075H34.0368L33.6404 34.7744L33.753 34.6345L33.5455 34.4975L33.2921 34.7451L33.0817 34.5435L33.2451 34.338L32.8967 34.1785L32.3947 33.3604L33.1746 32.3015L33.1375 31.9668L32.9887 31.7437L31.2419 31.7623L30.4248 31.2789L30.0343 29.6065L29.4951 28.6964L29.8112 28.0642L29.867 27.7305L30.0921 27.9047L30.5941 28.1914L30.8329 26.6129L31.7175 25.3936L32.4828 24.9151L32.5542 23.8866L33.0562 23.2887L33.0083 22.9775L32.1716 22.7387L30.7849 21.4714L30.689 21.0653L31.7655 19.3674L32.9613 18.4113L33.7608 16.3719L33.6072 16.1155L33.2725 15.135L33.3204 13.9391L32.8899 12.9831L32.5317 12.3372L33.8469 11.7393L34.7081 10.1138L35.0193 9.08531L35.6887 8.53534L36.3101 8.60678L37.41 9.73021L38.2712 9.56287L38.7605 9.55112L39.4093 9.38868L38.7203 10.2978L36.0938 11.1883L35.8002 11.6297L35.9656 12.1992L36.4206 11.9027L36.6907 11.3273L38.0226 11.2999L39.5776 10.5454L41.1825 8.0617L42.3754 7.80629ZM46.9435 9.22231H45.685L44.8698 8.82696L45.822 7.79454L47.0404 8.58525L46.9435 9.22231ZM44.7172 8.6332L44.5635 8.81033L43.902 8.68898L42.4507 7.45497L42.5555 7.1242L43.3706 6.59185L43.8462 6.56738L44.5234 6.92261L45.3944 7.55968L44.7172 8.6332Z" fill="#00212E" stroke="#00212E" stroke-width="0.5"/>
<path d="M52.342 11.0124L52.6327 11.5428L51.8302 11.0319L51.5151 11.166L51.5758 10.7677L50.0932 9.17164L51.1971 9.84687L52.342 11.0124ZM49.7223 9.28417L49.7556 10.0896L51.8243 11.7297L51.1931 12.3061L51.3595 12.6858L52.6982 12.0644L53.2002 12.492L53.8324 13.6252L55.0968 14.4952L56.3944 14.9718L56.5333 15.2918L56.6155 15.0618L57.5344 15.1597L58.2087 14.9385L58.7616 15.1528L59.1599 14.4746L59.2979 15.0471L60.1522 16.0316L60.0778 16.3849L58.1265 18.206L58.4612 19.0603V19.8961L57.3094 20.2679L55.5998 21.4569L54.8012 21.0665L53.2961 21.1966L52.2187 20.9921L52.1169 21.2827L52.6728 21.5959L52.9487 21.8807L53.1631 22.231L53.0182 22.5334L52.2931 22.6078L51.0669 23.3701L51.1971 23.649L50.8066 24.0952L51.1599 24.4113L50.9739 25.0249L48.5588 25.1736L48.2799 24.5972L48.4844 24.0023L45.7717 21.364L45.7345 20.6388L43.9506 20.0996L43.7088 19.7835L43.5787 19.1885L42.8359 18.3156L43.2323 16.8027L43.8958 14.8035L44.5485 13.7613L44.5573 13.1565L45.2814 12.5605L45.3362 12.3041L45.5007 11.5623L46.4812 10.8656L46.9852 10.0964L47.0145 10.068L47.1623 9.79598L48.18 9.41433L48.7467 8.51891L49.2722 8.34668L49.5843 8.44552L49.461 8.83206L49.7223 9.28417Z" fill="#00212E" stroke="#00212E" stroke-width="0.5"/>
<path d="M40.4905 3.69025L41.6335 5.0867L41.6981 5.61025L40.9817 4.82052L40.4905 3.69025ZM34.0562 0.782838L33.7989 1.2144L33.9182 1.35238L34.5426 0.911034L34.7168 1.37978L34.478 1.69195L34.708 1.75654L35.6367 0.611584L36.4675 1.12828L36.2101 1.9092L37.0184 1.30247L39.4199 3.02676L41.1833 6.28059L40.099 7.71325L40.0442 8.2554L39.4091 9.38959L38.7603 9.55204L38.271 9.56378L37.4099 9.73112L36.3099 8.60769L35.6885 8.53625L35.0192 9.08622L34.708 10.1147L33.8468 11.7402L32.5316 12.3381L32.8897 12.984L33.3203 13.9401L33.2724 15.1359L33.607 16.1165L33.7607 16.3728L32.9612 18.4122L31.7653 19.3683L30.6889 21.0662L30.7848 21.4723L32.1714 22.7396L33.0081 22.9784L33.0561 23.2896L32.5541 23.8875L32.4826 24.916L31.7174 25.3945L30.8327 26.6139L30.594 28.1923L30.0919 27.9056L29.8669 27.7314L29.7739 27.3967L28.808 27.0258L27.7678 26.2459L26.7823 26.0042L24.7576 24.3504L24.3114 23.6448V23.0498L25.4074 23.0302L26.2803 22.5468L26.3361 22.1201L27.1532 22.0644L27.3587 21.8412L27.3029 21.4146L26.5406 20.9126L25.2029 19.2783L25.0169 17.3084L23.7908 14.2982L22.7309 12.7002L22.5078 11.3253L22.9912 10.47L23.0098 8.36989L24.1998 6.99496L23.9747 5.6494L24.5012 5.439L24.878 4.71288L25.2909 4.64829L25.3183 4.24413L25.7313 3.87716L27.3568 3.15104L31.0333 0.590055L33.242 0.253418L34.4741 0.475559L34.0562 0.782838Z" fill="#00212E" stroke="#00212E" stroke-width="0.5"/>
<path d="M62.1851 13.113L63.882 13.5964L64.9525 14.3793L65.5857 15.6994L65.5681 18.0285L66.3441 18.3143L63.7401 24.6135L64.3018 24.8904L65.8274 24.5694L66.3803 24.7123L67.674 25.3455L67.4724 26.1019L64.5366 26.9416L62.8456 26.3358L61.8543 26.6039L61.6537 25.8494L61.5676 25.8524L57.8656 26.326L54.554 27.5786L52.1153 27.9241L49.9702 28.5239L49.4809 28.8753L48.2998 29.0367L45.4814 30.3167L44.2503 31.2924L43.8442 31.3345L43.353 31.8893L42.2755 30.625L41.89 29.756L41.9135 29.1639L43.5937 29.1043L42.897 28.4975L42.8764 28.0953L42.5085 27.9691L42.6807 27.2381L42.4008 26.51L42.4987 26.1743L42.8627 25.8808L43.3667 25.4746L43.2267 24.453L42.5544 23.7807L41.6169 23.4167L41.1267 21.8773L39.8525 21.6953V21.3313L40.8605 20.9809L40.3428 19.6647L40.3565 19.0913L41.4486 16.7681L42.1209 16.6418L43.2307 16.8023L42.8343 18.3152L43.5771 19.1881L43.7072 19.7831L43.9489 20.0992L45.7329 20.6384L45.7701 21.3636L48.4828 24.0019L48.2783 24.5968L48.5572 25.1732L50.9723 25.0245L51.1583 24.4109L50.805 24.0948L51.1954 23.6486L51.0653 23.3697L52.2915 22.6074L53.0166 22.533L53.1614 22.2306L52.9471 21.8803L52.6712 21.5955L52.1153 21.2823L52.2171 20.9917L53.2945 21.1962L54.7996 21.0661L55.5982 21.4565L57.3078 20.2675L58.4596 19.8957V19.0599L58.1249 18.2056L60.0762 16.3845L60.1506 16.0312L59.2963 15.0467L59.1583 14.4742L60.2132 13.3107L62.1851 13.113ZM56.4466 11.9495L55.7694 11.3085L56.3213 11.5071L56.4466 11.9495ZM68.0753 9.79851L67.4186 9.49515L67.1593 8.94811L67.6065 8.03117L68.7603 9.21331L68.6164 9.67717L68.0753 9.79851ZM56.8067 8.94713L59.6143 8.80034L60.91 9.05576L61.9209 8.91875L61.9894 9.12524L62.4904 8.94811L62.7458 9.56658L62.6871 10.2829L62.9132 10.46L60.498 10.6166L59.4675 11.4416L57.2099 11.923L56.611 10.9807L56.0512 10.873L55.56 10.0882L53.9893 9.36206L53.4296 9.35227L53.0372 8.95007L52.7328 9.04793L52.222 8.60658L52.0948 8.00768L53.3317 7.32071L55.1871 7.98811L55.9133 8.64573L56.8067 8.94713ZM75.6838 7.29918L77.8338 8.72304L78.4327 9.73686L78.5012 10.2966L77.7056 12.9369L76.8904 13.3978L76.2133 13.0739L75.6339 13.2804L73.8274 14.1445L72.797 14.9792L70.647 12.4857L70.3622 11.6559L69.0666 10.5961L69.6361 9.43741L69.136 7.72878L70.7165 7.77771L71.6833 6.71006L72.0415 7.04376L73.1708 7.34811L73.848 6.66113L75.6838 7.29918Z" fill="#00212E" stroke="#00212E" stroke-width="0.5"/>
<path d="M18.4147 47.6594L18.1886 47.8033L18.5311 48.0792L18.4206 48.2564L17.5809 48.4276L17.0564 48.8034L16.9566 48.0078L17.625 47.8365L17.8236 47.2181L18.1877 47.2787L18.4147 47.6594ZM30.8683 45.3137L29.6999 44.7833L29.3759 44.1648L29.464 43.7333L30.8683 45.3137ZM24.0524 44.0278L24.342 44.1149L24.5906 44.6698L24.2549 45.1542L23.8743 45.2746L23.613 44.4095L23.9447 43.7059L24.0524 44.0278ZM18.0144 43.9877L18.6055 43.745L18.7435 43.8889L18.4069 44.2813L19.042 44.6903L18.7102 45.0994L16.9595 45.1601L15.1315 44.8176L15.2695 44.4976L16.5945 43.609L17.6827 43.4162L18.0144 43.9877ZM38.6951 41.7066L39.2265 42.0012L39.2324 42.9367L38.107 41.6489L38.3379 41.4815L38.6951 41.7066ZM40.3235 42.0658L39.6649 41.5402L39.5954 41.0666L40.4037 41.644L40.3235 42.0658ZM22.7401 41.5207L21.9748 41.5109L21.8476 40.7946L22.7998 41.1968L22.9564 41.4032L22.7401 41.5207ZM39.5435 40.3914L39.1276 40.4491L39.5553 40.1546L39.5435 40.3914ZM23.5944 40.5881L23.0249 39.95L23.4662 39.3609L23.7999 40.0185L23.5944 40.5881ZM21.3759 40.1174L20.8553 40.0978L20.6488 39.7641L21.6304 39.2043L22.1705 39.3316L22.2195 39.7533L21.3759 40.1174ZM25.7042 39.6956L26.676 40.4511L27.088 41.2565H26.2924L26.037 40.6869L25.3598 40.3141L25.213 40.4814L25.6945 40.776L25.2825 41.1586L23.8694 40.913L24.1444 40.3336L24.7041 40.4804L24.9008 40.2837L24.2334 39.999L23.9878 39.2435L24.115 38.8021L24.8803 38.9196L25.7042 39.6956ZM32.8098 35.6031L33.4949 35.7186L33.8716 35.472L35.319 36.3498L36.1576 36.3419L36.8661 36.6345L37.7283 36.5112L37.8672 36.9115L38.6677 36.5807L38.8987 36.8038L37.9631 38.1739L37.5012 37.666L37.5629 38.5898L36.1654 39.1906L34.7259 37.574L33.6563 37.1356L32.0397 35.5728L32.8098 35.6031ZM37.6509 35.7881L36.7428 36.3116L34.8796 35.5493L35.6566 35.0492L36.6577 34.9259L37.6509 35.7881ZM18.2718 30.7405L18.3599 31.5155L18.949 32.1731L20.412 32.5264L20.7946 32.9482L20.7653 33.3308L19.5968 34.0276L18.0262 33.4972L17.3881 33.9982L17.4958 34.3123L18.124 34.3026L18.1534 34.6656L17.6426 35.2449L15.8165 34.3515L15.7284 33.8808L15.4632 34.1108L15.0904 34.0422L14.8154 34.5032L16.4643 35.4651L16.4252 35.6325L15.5415 35.9466L13.5785 37.2031L12.6459 35.2498L11.9785 35.6912L12.6263 37.6249L12.5284 37.8803L11.9491 38.2238L11.1144 36.1824L10.4274 36.7422L11.0165 38.8335L9.45564 39.3443L8.58176 38.7649L7.39374 36.8704L6.57857 34.5218L8.4927 32.6272L11.315 30.625L12.4883 30.5252L12.7633 30.1817L13.1851 30.1523L13.2438 30.4175L12.4482 31.0458L11.2797 32.5675L11.8591 33.2251L12.5265 32.6654L12.7623 32.8219L13.1645 32.6654L13.2037 31.9353L13.7928 31.3462L14.3036 31.2875V30.8354L14.6275 30.9929L14.8144 30.7375L14.5492 30.3843L15.1286 30.0114L16.5622 29.7169L17.1317 29.8147L18.2718 30.7405ZM13.5824 28.7559L13.2497 28.6835L13.0764 27.6853L13.6548 28.1697L13.5824 28.7559ZM17.6201 4.05318L18.9059 3.81832L19.3678 4.56107L20.0362 4.94077L20.0049 5.52597L21.3759 5.36743L22.2958 5.87141L23.978 5.64633L24.2031 6.9919L23.0131 8.36683L22.9945 10.4669L22.5111 11.3222L22.7342 12.6971L23.794 14.2952L25.0202 17.3053L25.2061 19.2752L26.5439 20.9095L27.3062 21.4115L27.362 21.8382L27.1565 22.0613L26.3394 22.1171L26.2836 22.5437L25.4107 23.0272L24.3146 23.0467V23.6417L24.7609 24.3473L26.7856 26.0011L27.771 26.2428L28.8113 27.0228L29.7772 27.3937L29.8701 27.7283L29.8144 28.062L29.4983 28.6942L30.0375 29.6043L30.4279 31.2767L31.2451 31.7602L32.9919 31.7416L33.1406 31.9647L33.1778 32.2994L32.3978 33.3582L32.8999 34.1763L32.8813 34.4415L32.2168 34.6451L31.2353 33.9542L31.6991 34.5521L31.4251 34.8261L30.2782 33.6048L29.74 33.4306L29.511 33.6048L27.1506 32.2504L25.67 34.603L21.7077 32.0606L22.331 30.8217L22.6305 30.6817L23.7167 31.3002L23.6815 31.5547L24.0308 31.769L24.6787 31.5693V31.903L24.9703 32.0997L25.6602 32.1222L25.9587 31.4333L24.2001 30.303L24.4497 29.528L23.5621 28.6747L23.1354 27.5297L22.605 27.0913L21.3172 27.058L22.745 27.6501L23.2627 29.0935L22.0727 29.1532L19.0498 28.3302L18.4666 28.5171L18.6985 26.4523L19.3571 25.6087L19.1927 25.369L18.8864 25.459L18.2728 26.3192L17.9362 28.3165L16.5143 27.2469L15.6766 27.1872L15.2499 27.4044L14.9876 28.3302H14.3516L14.2322 27.9339L13.1626 27.3203L12.684 27.926L12.7868 28.6052L11.2553 28.794L11.0537 27.2978L10.8139 27.0355L10.5673 27.3124L10.6945 29.0553L10.3501 29.2197L9.44488 28.3595L9.30885 27.5953L8.65711 27.6657L8.68157 28.7412L9.36952 29.6014L8.22457 30.6015L7.76071 30.1523L7.23716 30.5858L6.29673 29.4517L6.47777 29.0309L6.14799 28.5602L5.70273 28.7089L5.46688 28.4809L6.7919 26.9102L6.3212 26.8447L5.33086 27.7773L4.95116 27.2987L5.75948 26.3299L5.52658 25.9502L5.18211 26.0158L4.32291 26.8662L3.46076 26.1597L2.73856 26.7957L3.37269 27.3477L5.56866 31.5703L5.51092 31.9578L1.69048 32.0322L0.44473 31.2895L0.254883 29.5485L3.20829 21.3107L3.10945 20.5435L3.68682 20.156L5.40132 16.8972L6.06285 16.5626L6.76059 14.7747L7.50236 14.0212L7.69319 11.3007L8.08561 11.0139L8.08071 10.553L8.4105 10.5031L8.36059 10.9572L9.09356 10.5491L8.89295 10.0911L9.34702 9.95118L9.19044 9.3239L9.44096 9.16145L9.34702 8.9765L9.64451 9.00977L9.62005 8.0527L10.9284 7.10053L11.5753 7.15337V6.90676L11.9961 6.95667L12.1047 6.68756L13.0843 6.41747L15.9995 3.93281L17.5114 3.604L17.6201 4.05318Z" fill="#00212E" stroke="#00212E" stroke-width="0.5"/>
</svg>
