<svg width="86" height="136" viewBox="0 0 86 136" fill="none" xmlns="http://www.w3.org/2000/svg">
<path d="M30.9197 131.212L30.6491 131.307L30.2425 131.707L30.1405 132.145L29.853 132.51L29.6107 132.68L29.6433 132.989L29.3614 133.308L28.9038 133.41L28.5765 133.383L28.272 133.288L27.9504 133.686L27.6019 133.99L27.3695 133.968L26.2178 134.253L26.1002 134.165L25.5916 134.26L25.0901 134.697L25.0717 134.867L24.6835 135.016L24.4682 134.819L24.0999 134.806L23.988 135.084L23.672 134.894L23.2102 134.935L22.8645 135.111L22.346 135.197L22.0698 135.292L21.8332 134.928L21.6349 134.894L21.3402 135.027H21.1716L20.884 134.799L20.061 135.137L19.772 135.035L19.3937 135.016L19.2988 134.894L18.9985 134.935L18.7718 135.156L18.4856 135.332L18.4899 135.972L18.3057 135.873L18.011 135.999L17.7971 135.873L17.8481 135.63L17.6668 135.622L17.3721 135.292L17.2092 135.001L16.991 134.874L16.566 134.724L16.1595 134.389L16.1212 134.219L15.9172 134.063L15.7656 133.74L15.8095 133.274L15.8889 133.023L15.7656 132.63L15.8549 132.463L16.1495 132.315L16.1538 132.011L16.746 131.625L17.001 131.232L17.2602 131.273L17.6838 130.821L17.7844 130.589L17.8425 130.11L18.7279 129.759L18.7435 129.393L19.4107 129.291L19.6487 129.212L19.6997 129.097L19.9816 129.109L20.3372 128.82L20.5908 128.98L20.8387 128.793L21.7312 128.553L22.0018 128.337L22.3177 128.298L22.5217 128.055L22.9566 128.184L23.2272 128.134L23.4737 127.971L23.6834 128.066L23.954 127.917L24.4016 127.951L24.5702 127.7L25.3664 127.647L25.389 127.471L25.6015 127.213L26.0081 127.539L26.4331 127.369L27.0083 127.227L27.2463 127.098L27.6302 127.179H27.9291L27.9787 126.977H28.2436L28.6275 127.105L28.697 127.22L29.0908 127.091L29.2877 127.113L29.3104 127.417L29.5696 127.761L29.802 127.784L29.9479 127.967L30.1632 127.829L30.6364 127.89L30.9027 128.093L30.8815 128.31L31.043 128.385L31.033 128.824L30.856 128.847L30.8177 129.007L31.0274 129.238L31.2073 129.318L31.4949 129.212L31.5232 129.402L31.7258 129.576L31.6252 129.698L31.4113 129.555L31.237 129.82L31.2115 130.042L31.5345 130.28L31.3773 130.469L31.1577 130.158L30.9608 130.867L30.9197 131.212ZM31.9128 127.944L32.0587 128.116L32.2457 128.587L32.1267 128.854L31.7825 128.793L31.6535 128.709L31.5955 128.344L31.7329 128.21L31.7541 128.005L31.9128 127.944Z" fill="#00212E"/>
<path d="M57.9522 95.6358L58.193 95.9248L58.2214 96.0636L58.533 96.1996L58.4254 96.4277L58.2667 96.4617L58.1137 96.6331L57.7355 96.6756L57.6689 96.4617L57.302 96.1259L57.523 95.7193L57.9522 95.6358ZM53.7518 93.6213L53.8028 93.7728L53.6498 94.1369L53.4585 94.3154L53.3395 94.9968L53.6158 95.0592L53.5761 94.6753L53.7702 94.3423L53.9105 94.2333L54.446 94.722L54.463 95.1357L54.3 95.1895L54.4063 95.3949L54.361 95.5465H54.6726L54.6939 95.7123L54.4176 95.8978L54.2434 95.7052L54.0748 95.7746L53.5832 95.4445L53.5152 95.7052L53.2149 95.7746L52.865 95.759L52.5377 95.6159L52.4017 95.3482L52.3918 94.8878L52.6751 94.7093L52.6964 94.5279L52.9443 94.3296L52.9556 94.1029L53.2205 93.7927L53.4812 93.668L53.7518 93.6213ZM66.931 90.6859L67.0897 90.7468L67.1846 90.9338L67.6195 90.9055L67.8122 91.2583L67.7215 91.4793L67.4382 91.5147L67.264 91.7739L67.3844 91.9128L67.2696 92.1621L67.298 92.3944H67.4382L67.6606 92.7047L67.7555 92.9398L67.8958 92.9795L67.9241 93.2274L67.7655 93.3393L67.7428 93.6765L67.8575 93.8394L67.74 93.9513L67.7215 94.1723L67.5119 94.2063L67.264 94.467L67.2795 94.6455L67.7329 94.5832L67.9695 94.4188L68.2457 94.5775L68.1565 94.7291L68.2514 94.9699L67.9411 95.1753L68.0984 95.5763L67.8575 95.6358L67.6762 95.4374L67.3872 95.6499L67.3943 95.844L67.5303 95.9602L67.7145 95.7392L67.8958 95.98L67.7428 96.0367L68.172 96.8187L67.7839 96.8612L67.5572 96.7988L67.6762 96.6274L67.553 96.3583L67.305 96.4702L67.3263 96.7294H67.152L67.2073 96.4815L66.8517 96.3228L66.7171 96.3384L66.6661 96.8116L66.8191 97.0184L66.5075 97.2933L66.3389 97.1771L66.1745 97.2791L66.0952 97.5823L66.3332 97.884L66.3941 98.0979L66.8985 98.0554L66.7625 98.2623L66.4961 98.2212L66.3715 98.2906L65.8827 98.2212L65.8246 98.3798L65.962 98.6462L66.1363 98.6958L66.0626 98.9125L65.8416 98.7921L65.52 99.1066L65.2721 98.9352L65.0228 98.955L65.1021 98.5442L65.401 98.4762L65.3458 98.2141L65.0511 98.2283L64.8599 98.1248L64.8655 97.85L64.9959 97.5341L65.2665 97.2125L64.6672 97.3088L64.6006 97.4916L64.381 97.459L64.3626 97.2663L64.663 97.0468L64.4533 96.9292L64.1997 97.2663L64.0637 96.9575L64.4986 96.8413L64.9335 96.7833L65.0511 96.4404L65.0129 96.2067L65.2381 96.0211L65.0695 95.8978L65.0639 95.4502L64.7749 95.3057L64.5652 95.5961L64.6006 95.844L64.238 95.8355L64.0127 95.9248L63.8668 95.8511L63.7025 96.1259L63.7875 96.235L63.6415 96.4404L63.1429 95.7463L62.9233 95.6499L62.902 95.3822L62.783 95.1357L62.732 94.8453L62.8723 94.4939L63.4319 93.9938L63.6132 93.9443L63.8101 93.6071L63.9518 93.6142L64.2167 93.8352L64.2224 93.9513L64.6389 94.2134L64.8485 94.0902L64.7579 93.9443L65.0285 93.8125L65.3005 94.0831L65.469 93.9981L65.6164 94.3083L65.8416 94.2191L65.5555 93.6609L65.3968 93.5802L65.2254 93.1736L65.0285 93.1113L65.3047 92.8506L65.2764 92.5531L65.435 92.444L65.673 92.6027L66.1745 92.7188L66.4069 92.2018L66.4125 91.9949L66.6378 91.7626L66.863 91.1761L66.8574 90.8984L66.931 90.6859ZM70.0066 90.0371L70.1143 90.3473L70.3339 90.285L70.4359 90.6661L70.103 91.4453L70.2333 91.5189L70.103 91.8858L69.7658 91.6379L69.94 91.3744L69.4995 91.1818L69.6794 91.0854L69.6227 90.693L69.3181 90.3629L69.5108 90.2156L69.848 90.1958L70.0066 90.0371ZM58.1208 100.294L58.38 100.499L58.7356 100.631L59.2159 100.622L58.9609 101.008L58.7739 101.124L58.482 100.931L58.39 101.083L58.0627 101.021L57.6915 100.774L57.6745 100.665L57.8785 100.302L58.1208 100.294ZM66.3275 91.1548L66.4281 91.4254L66.2666 91.8292L66.3049 92.0643L66.2199 92.2428L65.775 92.1338L65.6886 92.325L65.4917 92.3052L65.639 92.0148L66.0102 91.713L65.962 91.4722L66.21 91.39L66.3275 91.1548ZM57.2056 95.1626L57.4309 95.3142L57.7043 95.3751L57.8091 95.6159L57.3303 95.5961L57.1716 95.878L56.9931 96.0211L56.7934 95.9673L56.816 95.7264L56.5171 95.5961L56.5455 95.3609L56.8217 95.2448L57.2056 95.1626ZM51.7784 70.3766L52.1141 70.3738L52.2657 70.4517L52.3351 70.6755L52.3337 71.0155L52.7644 71.2068L53.2276 71.1813L53.3778 71.2535L53.5039 71.4972L53.7518 71.6346L54.2802 71.7649L54.7066 71.8046L55.2549 71.7479L55.908 72.0709L56.0128 72.231L56.1205 72.707L56.3245 72.9578L56.5582 73.0215L56.7665 73.1717L56.9095 73.4196L56.8585 73.5528L57.2113 73.7086L57.4011 73.8758L57.6037 74.2611L57.5513 74.7385L57.319 75.1819L57.1617 75.597L57.1022 75.954L57.2935 76.3068L57.5428 76.3762L58.1095 76.6298L58.849 76.4966L59.485 76.2614L59.9568 76.4966L60.2925 76.4867L60.4512 76.5547L60.9329 77.0236L61.2998 77.2942L61.8183 77.2814L62.5677 76.7417L62.8085 76.6368L63.4149 76.8536L63.7053 76.6567L63.8215 75.9512L63.9461 75.7642L64.0538 75.6863L64.262 75.6891L64.4108 75.9668L64.3116 76.4711L64.3584 76.821L64.4802 77.1369L64.6729 77.416L65.129 77.7815L65.3316 78.0153L65.6277 78.1654L65.8275 78.1626L66.4975 77.9614L66.8914 77.9288L67.2073 77.9529L67.6323 78.096L68.4936 78.5196L68.9059 78.6457L69.243 78.5224L69.6454 78.1413L70.0902 77.8155L70.3084 77.8807L70.552 77.7858L70.9402 77.2913L71.1428 77.0916L71.3751 76.9868L72.1146 77.0165L72.7337 77.3367L73.2536 77.5208L73.459 77.4458L73.6262 77.2743L73.8316 77.5265L73.9407 77.7985V78.1158L73.2026 78.7505V79.2945L73.2763 79.7932L73.7565 80.0184H74.3473L74.863 80.0623L75.5642 80.7891L76.2995 81.649L76.7797 82.0556L77.4441 82.0995L77.7161 82.4338L77.4824 82.5854L77.0829 83.0189L76.9582 83.4198L76.4666 83.4524L75.9113 83.5445L75.5444 84.1027L75.3588 84.6878L75.1378 84.9796L74.744 84.9088L74.4139 85.0929L74.1801 85.2969L73.894 85.4471L73.5115 85.7403L73.3273 86.1738L73.0199 86.5138L72.1288 86.5436L71.2972 87.0692L70.8042 87.1301L70.7433 87.4389L70.7121 88.2124L69.7899 88.4603L69.2657 88.6771L69.2232 88.7791L69.0079 88.9746L68.9852 89.1403L68.658 89.3698L68.4001 89.3897L68.2287 89.231L68.0318 89.452L67.6535 89.1333L67.5119 89.0865L67.2583 89.3075L67.0614 89.044L67.2512 88.9548L67.4283 88.6714L67.2866 88.5071L67.298 88.279L67.111 88.2167L67.0217 88.0113L66.7965 88.1742L66.8914 88.6176L66.6548 88.7607L66.5811 88.4306H66.4579L66.1646 88.1048L65.8643 88.0509L65.7056 88.3952L65.469 88.1898L65.5314 88.0155L65.452 87.7279L65.1928 87.4219L65.1248 86.9048L65.2155 86.6215L64.7876 86.7873L64.6162 87.0635L64.7805 87.5409L64.9775 87.6231L65.1588 87.8087V87.9688L65.3005 88.1742L65.1999 88.4108L65.2764 88.6318L65.3557 89.1616L65.775 89.4591L65.887 89.6447L65.469 89.7538L65.656 89.9634L65.86 89.8586L66.0442 90.0102L65.4407 90.2581L64.9208 90.3898L64.7692 90.336L64.9845 90.0923L64.9165 90.0031L64.561 90.0527L64.5836 90.4168L64.425 90.3828L64.1544 90.0654L64.194 89.9677L64.629 89.9549L64.561 89.6928L64.9619 89.452L64.3017 89.3075L64.1487 89.2027L64.2507 89.0015L64.0127 88.7678L63.854 89.1205L63.3865 89.265L63.1995 89.0638L62.9686 89.2225L62.6414 89.2508L62.4785 89.0936L62.2915 89.0794L62.2348 89.265L62.7207 89.6305L62.562 89.8855L62.1115 89.928L61.9529 90.1844L61.7715 90.3204L61.45 90.2581L61.27 90.37L60.8252 90.4791L60.7515 90.5882L60.9074 90.8248L60.6722 91.0231L60.7515 91.3135L61.0221 91.2158L61.0448 90.8361L61.365 90.6463L62.2405 90.4253L62.1172 90.2113L62.2008 89.9903L62.647 90.0173L62.936 90.0994L62.8383 90.285L62.8666 90.5556L63.0706 91.1194L63.3143 91.1818L63.3185 91.39L62.9587 91.4651L62.936 91.6507L62.6357 91.7541L62.4671 91.9482L62.0719 91.8363L61.7432 91.8717L61.4216 91.8235L61.4287 92.1338L61.6157 92.0218L62.1045 92.1267L62.1555 92.3548L61.8636 92.8279L61.841 93.3124L61.8636 93.7658L61.6256 93.9315L61.7106 94.1723L61.6653 94.4613L61.9019 94.467L62.2121 94.1568L62.0818 93.8394L62.2688 93.7998L62.5677 94.1837L62.6031 94.3848L62.7873 94.4613L62.6541 94.7135L62.6315 94.9147L62.4218 94.9345L62.3269 95.5068L61.9642 95.7264L61.8735 95.9318L62.0889 95.9602L62.0761 96.8059L61.9529 96.9221L61.9925 97.1771L61.7772 97.4165L61.7489 97.6106L61.3876 97.5879L61.1525 97.3202L61.1964 97.1629L60.8975 96.7918L60.6439 96.8116L60.8351 96.2888L60.3832 96.0636L59.9894 95.9871L60.4342 95.6698L60.5645 95.9049L60.7005 95.7888L61.1397 96.0211L61.0278 95.6159L60.6765 95.4303L61.0377 95.0932L61.6412 95.1555L61.5902 94.9898L61.3706 95.0393L60.9867 94.9898L60.8819 94.8453L60.9485 94.6257L60.7515 94.6129L60.7742 94.8608L60.4413 94.9345L59.9894 94.7418L59.7457 94.7022L59.4411 94.5208L59.3958 94.3296L59.1762 94.1837L59.4751 93.9513L59.6947 93.9981L60.012 93.9513L60.1806 94.0548L60.3209 93.6963L60.1353 93.5603L60.1523 93.3124L60.0503 93.0291L59.8916 92.8506L59.5715 92.7741L59.6607 93.0348L59.5261 93.1608L59.2215 93.277L59.3235 93.7233L58.968 93.9244L58.5387 93.889L58.4537 93.634L58.6124 93.3393L58.543 93.1934L58.2497 93.1651L57.9961 93.0645L57.6972 93.1538L57.5966 93.0645L57.1206 93.2628L57.2906 93.5377L57.1957 93.7105L57.1716 94.0675L57.2113 94.3494L56.799 94.2687L56.5001 94.2616L56.3542 93.9981L56.1233 94.0548L55.8244 94.4613L55.609 94.0604L55.4277 94.1228L55.2251 93.8961L55.354 93.7799L55.218 93.5603L54.6939 93.5178L54.6726 93.6L54.2264 93.4484L53.9317 93.1807L53.926 93.0291L53.7419 92.8081L54.1187 92.444L54.198 92.2358L54.0337 92.1536L53.9317 91.9057L53.9161 91.6578L54.1003 91.4368L54.13 91.2852L53.9161 90.8248L53.9714 90.4791L54.0847 90.2383L54.1258 89.9634L53.8821 89.9974L53.8467 90.1419L53.6498 90.3275L53.7348 90.5556L53.6668 90.8857L53.5478 91.0174L53.3169 90.9608L53.2205 90.6236L52.8494 90.5556L52.7035 90.9211L53.0335 90.914L53.3112 91.1421L53.2843 91.3744L53.5265 91.4297L53.4401 91.9128L53.2432 92.002L52.9953 91.8433L52.8437 92.0105L52.9613 92.1692L52.7757 92.2627L52.532 91.7938L52.3635 91.8363L52.2615 92.0927L51.8492 92.1819L51.7415 91.9128L51.8903 91.7399L51.59 91.2852L51.488 91.4368L51.4143 91.8986L51.291 92.0927L51.3477 92.3817L51.1324 92.41L50.9071 92.8208L50.5515 93.022L50.0996 93.0149L49.8843 92.7543L49.5471 93.1183L49.4451 92.9597L49.2893 92.9724L49.115 92.8265L49.1221 92.1933L49.0329 91.866L48.7835 91.305L48.4095 91.0174L48.156 90.6137L47.8075 90.4663L47.6431 90.1986L47.408 89.9733L47.3669 89.3443L46.7124 88.5595L46.235 88.3158L45.9545 87.9503L45.9148 87.2222L45.8369 86.3623L45.7604 85.9599L45.1895 85.3153L45.1923 84.9796L45.3609 84.8266L45.8865 84.284L45.8652 83.8888L45.7675 83.6663L46.0182 82.9863L46.3129 82.6378L46.813 82.2171L46.8285 81.9182L46.932 81.4691L46.9093 81.3515L46.5608 81.2594L46.412 80.8429L46.4503 80.4647L46.558 80.1218L46.1783 79.4036L46.1953 79.0027L46.0465 78.8525L45.5989 78.708L45.562 78.2051L45.9035 77.4982L46.0508 76.7643L46.0735 76.4768L46.3568 75.8818L46.4829 75.4086L46.684 75.0969L46.8767 74.9241L46.9093 74.509L47.0779 73.4678L47.4377 73.2227L47.6148 72.9818L48.139 72.4463L48.2353 72.0454L48.4095 71.8754L48.5413 71.4263L48.7892 71.5694L49.0697 71.5595L49.4621 71.3116L49.7752 71.3088L50.1591 70.9532L50.4439 70.9008L50.5586 70.4843L50.7215 70.2661L50.8845 69.902L51.2627 69.7164L51.3845 69.5762L51.41 69.9955L51.5347 70.1811L51.7784 70.3766ZM62.98 96.2152L62.851 96.3653L63.1386 96.6473L63.1613 97.1077L63.422 97.0538L63.5395 97.2323L63.5112 97.4094L63.0097 97.7268L62.7873 97.6715L62.7037 97.5058V97.2323L62.4728 96.9986L62.5394 96.881L62.7873 96.8059L62.7547 96.5778L62.6031 96.3923L62.664 96.2152H62.98ZM50.9695 93.022L51.325 93.2274L51.4823 93.1254L51.6339 93.498L51.6849 93.7856L51.4936 94.3848L51.291 94.5903L51.138 94.5704L51.0658 94.892L51.2811 95.3751L51.291 95.6698L51.6084 95.8978L51.76 95.8355L51.9739 95.98L51.9455 96.2761L52.0079 96.4404L52.2048 96.5368L52.3011 96.3115L52.6907 96.1599L52.933 95.8638L53.5095 95.9049L53.7348 95.8015L53.8212 95.98L54.0507 96.1033L54.3553 96.1259L54.4743 96.3313L54.1768 96.779L54.2873 96.9575L54.1414 97.1077L54.249 97.425L54.2717 98.02L54.13 98.0625L53.8425 98.3798L53.8311 98.5923L54.0904 98.7623L54.3666 98.8658L53.9997 99.0868L53.7915 98.9352L53.5195 99.0244L53.6342 98.7L53.5705 98.564L53.3735 98.5498L53.3112 98.8318L52.9726 98.6462L52.8083 98.6731V98.921L52.5731 98.8516L52.2558 98.9083L52.0362 98.2821L52.0745 97.5256L52.2175 97.3358L52.0305 97.1969L51.675 97.2593L51.4823 97.4165L51.1664 97.5341L51.3633 98.1447L51.2344 98.4606L50.8235 98.5923L50.4949 98.4535H50.2399L50.2909 98.241L50.2115 98.0483L49.8177 97.9265L49.907 97.7112V97.4519H50.0996L49.999 96.9773L49.761 96.7719L49.812 96.4617L49.6307 96.3923L49.3445 95.8355L49.3219 95.4714L49.2199 95.2249L49.4281 95.0308L49.4451 94.7985L49.6151 94.8325L49.7511 94.2191L50.3645 94.0675L50.1563 93.8267V93.6411L50.4113 93.4059L50.5005 93.1382L50.9695 93.022Z" fill="#00212E"/>
<path d="M64.0536 75.6869L63.9885 75.7351L63.8907 75.4092L64.2279 74.8695L64.6968 74.6017H65.3683L65.5015 75.2066L66.105 75.2746L66.4407 74.8695L67.1788 74.6017V73.7262L66.9096 73.3877V72.9853L67.4466 72.9173V72.2444L67.7823 71.5021L68.519 71.2315L68.7201 70.7611L68.3178 69.8856L68.1846 69.2113V68.2678L67.7823 67.8641L67.38 67.5949L66.7085 67.5269L65.9718 67.7281L65.3683 68.4038L64.5636 68.5384L64.0933 68.6716L63.8241 69.1433L63.555 69.7497L63.3538 70.4254H62.8183L62.6837 69.2113L62.2814 69.4819L61.8125 69.6151L61.3421 70.2894L61.0744 70.8957L61.0078 71.5701L62.0136 71.6381L62.6171 72.1084L62.6837 72.5122L61.5433 72.7147L61.0078 73.994L61.3421 74.3991L61.6779 74.7377L61.5433 75.2746H61.0744L60.7386 75.0041L60.3363 74.8695L60.2697 75.4772L60.7386 76.0156L61.141 76.5553L61.2996 77.2948L60.9327 77.0242L60.4511 76.5553L60.2924 76.4873L59.9566 76.4972L59.4849 76.2621L58.8488 76.4972L58.1093 76.6304L57.5426 76.3768L57.2933 76.3074L57.102 75.9547L57.1616 75.5976L57.3188 75.1826L57.5511 74.7392L57.6036 74.2617L57.401 73.8764L57.2111 73.7092L56.8584 73.5534L56.9094 73.4202L56.7663 73.1723L56.5581 73.0222L56.3243 72.9584L56.1203 72.7076L56.0126 72.2316L55.9078 72.0716L55.2547 71.7486L54.7065 71.8052L54.2801 71.7656L53.7516 71.6352L53.5037 71.4978L53.3776 71.2542L53.2275 71.1819L52.7642 71.2074L52.3335 71.0162L52.335 70.6762L52.2656 70.4523L52.114 70.3744L51.7782 70.3772L51.5345 70.1817L51.4099 69.9962L51.3844 69.5768L51.6011 69.0937L51.6606 68.4959L51.3943 67.7805L50.6463 66.5579L50.8786 66.327L51.1464 66.2746L51.3348 66.4176L51.4977 66.3468L51.8915 65.7858L51.9411 65.3466L52.1536 64.9826L52.1154 64.7842L52.4936 64.4697L52.471 64.0022L52.5815 63.6977L52.3449 63.3151L52.3293 63.0587L52.5829 62.6833L53.1439 62.4467L53.4895 62.5473L53.6312 62.6932L53.8791 62.5756L53.899 62.4014L53.7516 62.281L53.5604 61.7866L53.5193 61.5429L53.583 61.2001L53.2855 60.9961L53.0277 60.9309L52.121 61.2836L51.9411 61.3035L51.6011 60.9691L51.4141 60.7113L51.0217 60.6164L50.8333 60.2282L50.244 60.7241L49.9196 60.7311L49.6362 60.394L49.6178 60.0936L49.6532 59.4689L50.1165 59.1006L50.3474 58.745L50.4395 58.4177L50.3332 58.3526L50.2751 58.0791L50.0485 57.6513L50.3261 57.2136V56.9345L50.1972 56.6795L50.3417 56.0986L50.3431 55.6241L50.2794 55.3223L50.3729 55.0347L50.7781 54.9611L50.897 54.4737L50.8177 54.325L50.3403 54.0898L50.2567 53.7541L50.2865 53.5515L50.1859 53.4126L49.8657 53.2171L49.1588 53.1548L48.8726 53.0457L48.7168 52.8077L48.7522 52.6137L49.0837 52.3119L49.4393 52.3091L49.7665 51.826L50.2426 51.4166L50.3375 51.2636L50.2185 50.9221L50.3899 50.5042L50.5953 50.2719L51.1648 50.1911L51.876 49.6641L52.1281 49.1598L52.8393 49.5111L53.0985 49.3851L53.6057 49.6259L54.086 49.7477L54.3424 49.7251L54.3084 49.5522L53.6128 48.5917L53.7474 48.3991L53.8267 47.9953L54.0902 47.5009L54.229 47.1481L54.3367 47.083L54.6895 47.4584L54.9841 47.4173L55.2321 46.9994L55.6613 46.6155L55.8908 46.6976L56.0877 46.9286L56.2931 46.9456L57.2083 47.2076L57.3556 46.8081L57.3826 46.3874L57.6248 46.3137L57.7509 45.9312L57.9832 45.6564L58.2382 46.08L58.9324 46.4809L59.2455 46.9385L59.3106 47.2204L59.4693 47.5448L59.5869 47.5972L59.9411 47.5037L60.4652 47.5165L60.7613 47.2218L61.4073 47.1736L61.5235 47.1226L61.787 46.7231L62.1355 46.284L62.0788 45.8292L61.8564 45.5601L61.6793 45.5218L61.6921 45.2356L62.1284 44.465L62.2106 44.1802L62.5307 43.8629L62.5491 43.6731L62.8225 43.5739L63.2121 43.2962L63.4799 42.8103L64.0834 42.6375L64.2222 42.5241L64.6472 42.0127L65.102 41.7733L65.5043 41.2208L65.8741 41.3639L66.3472 40.8978L66.5994 40.9488L67.2624 41.4021L67.6746 41.3455L68.0203 41.4376L68.3348 41.643L68.5728 41.4021L68.5501 40.8822L68.6904 40.3836L69.1225 40.3425L69.726 40.6811L70.4655 41.2874H71.3381L71.5393 41.0182L71.9643 40.2164L72.1626 40.0889L72.5324 40.2362L72.6783 40.521L73.1486 40.3609L73.398 40.3666L73.721 40.47L74.1191 40.5139L74.3712 40.6159L74.7806 40.8907L74.996 40.9318L75.3303 40.5436L75.5442 40.3892L75.8587 40.4218L76.3857 40.555L76.7385 40.6966L77.0459 40.9035L77.3094 41.1882L77.7103 41.1528H78.7161L78.3804 40.5465V40.2773L78.7161 39.8056L79.3196 39.2658L79.8551 39.0646L80.2575 38.5929L80.861 38.4583L81.1769 38.4385L81.0593 38.6184L81.1542 38.8819L81.4815 39.3267L82.0963 39.7801L81.8838 40.0832L81.8937 40.4501L81.7818 40.8907L81.9731 41.3412L81.9858 41.6458L81.7634 41.949L81.8994 42.3456L82.0184 43.0936L81.8937 43.8204L82.0071 44.1094L81.8895 44.2312L82.0396 44.669L82.0184 44.9424L82.17 45.3235L82.5312 45.7244L82.5539 45.944L82.7466 46.1692L82.7579 46.5021L82.8712 46.8676L83.1801 47.3819L82.9548 47.6227L82.9775 47.9046L83.1531 48.2347L83.0398 48.5464L83.1602 49.1017L82.9732 49.2406L82.8868 49.6231L82.544 49.6429L82.3513 49.8186L82.17 50.381L81.9391 50.6416L81.8371 51.044L81.9221 51.5837L81.7917 51.6489L81.8328 52.0342L81.9575 52.302L82.1884 52.5046L82.4136 52.8205L82.391 53.1718L82.4363 53.5104L82.5596 53.8192L82.51 54.4227L82.2776 54.7032L82.357 55.0319L82.2663 55.6283L82.3286 55.9952L82.204 56.4089L81.7025 57.1512L81.3412 57.7746L81.3568 57.9856L81.2279 58.133L81.167 58.3852L81.1599 59.4434L81.099 59.6729L81.2109 59.8429L81.099 59.9605L81.0366 60.3812L81.3001 60.6972L81.2052 60.9606L81.3001 61.193L81.2279 61.4721L81.0466 61.5231L81.0706 61.8772L81.2392 62.0671H81.4432L81.6118 62.5771L81.6175 62.8448L81.4815 63.2061L81.5835 63.4512L82.2337 63.9895L82.1941 64.3266L81.9631 64.5122L81.9731 64.8692L81.6175 64.9953L81.5098 65.1639H81.2279L81.1259 65.3636L81.0876 65.6654L81.3001 66.0196L81.6628 65.7688L82.221 65.9728L81.9391 66.0776L81.7351 66.0153L81.6331 66.412L81.9447 66.2944L82.0651 66.4049L81.9107 66.5848L82.0014 66.7534L82.5482 66.9702L82.7253 66.9149L82.7763 66.6486L83.2551 66.3298H83.3727L83.6716 66.1131L83.6844 65.8269L83.9153 65.6229L84.0782 65.3594L84.2086 65.2971L84.5245 64.6525L84.805 64.5476L84.8517 64.7162L85.06 64.7786L85.0373 65.0293L85.1393 65.1356L85.2909 66.0351L85.1861 66.1258L85.2753 66.3638L84.9636 66.8172L84.9707 67.0042L84.6718 67.2705L84.6874 67.5892L84.5797 67.8414L84.4168 68.0242L84.2992 68.3585L83.989 68.5257L83.9989 68.7141L84.3162 69.2241L84.1689 69.3133L84.0329 69.7256L84.0216 69.9537L84.3091 69.9409L84.0456 70.4693L83.9252 70.9085L83.802 71.1592L83.9153 71.3675L83.598 71.7712L83.6561 71.8959L83.4464 72.0631L83.5031 72.515L83.462 72.9797L83.3104 73.1752L83.3387 73.4953L83.2495 73.6285L83.2041 73.9345L83.0554 74.1923L83.1701 74.4969L83.0341 74.7901L82.9222 74.7746V75.1217L82.7352 75.1103L82.6389 75.2548L82.5893 75.575L82.4236 75.6571L82.4746 76.1572L82.7636 76.4972L82.1374 76.408L81.7591 76.3173L81.1684 76.1275L80.7094 75.9419L80.1484 76.0099L79.5435 76.4094L79.2361 76.4604L78.6524 76.2479L78.5915 76.0821L78.6836 75.4673L78.6326 75.2902L78.4229 75.1627L77.9908 75.0947L77.6041 74.7774L77.3689 74.6867L76.8121 74.8298L76.4622 74.7646L75.7936 74.9842L74.8996 75.5396L74.7721 75.6472L74.8203 75.8781L75.1107 76.4122L74.9691 76.5992L74.6376 76.5752L74.3018 76.7126L74.1148 76.9052L73.6261 77.275L73.4589 77.4464L73.2535 77.5215L72.7336 77.3373L72.1145 77.0172L71.375 76.9874L71.1426 77.0922L70.9401 77.292L70.5519 77.7864L70.3082 77.8813L70.0901 77.8161L69.6452 78.142L69.2429 78.5231L68.9057 78.6463L68.4935 78.5202L67.6321 78.0967L67.2071 77.9536L66.8912 77.9295L66.4974 77.9621L65.8273 78.1632L65.6276 78.1661L65.3315 78.0159L65.1289 77.7821L64.6727 77.4166L64.4801 77.1376L64.3582 76.8217L64.3115 76.4717L64.4106 75.9674L64.2619 75.6897L64.0536 75.6869Z" fill="#00212E"/>
<path d="M48.4684 94.412L48.7376 94.4814L48.7333 94.1031L48.637 93.7305L48.3608 93.6682L48.3891 93.9855L48.2871 94.1442L47.1368 93.8821L47.124 93.4486L47.3408 93.3665L47.3663 93.2276L47.6779 92.8905L47.8479 93.0293L47.7913 93.4019L48.3721 93.4132L48.7404 93.7801L48.7659 94.521L48.4684 94.412ZM12.0743 94.8327L12.2995 94.7916L12.5715 94.4389L12.7628 94.0904L13.1623 93.9586L13.6142 93.8963L13.7374 93.688L13.7048 93.3863L13.9018 93.2772L14.1114 93.4415L14.195 93.8892L14.484 93.909L14.416 94.0748L14.1723 94.242L14.484 94.5635L14.1058 94.7137L14.1398 95.0735L13.8522 95.2251L13.4003 95.3342L13.1467 95.1897L12.7684 95.0665L12.5148 95.0395L12.3788 95.1359L12.0743 94.8327ZM18.2368 95.1203L18.1475 94.861L18.1914 94.5083L18.5598 94.6174L18.6547 94.4275L18.4748 94.1442L18.1914 93.9317L18.5598 93.6342L18.7 93.688L18.8417 93.994L19.3276 93.9515L19.4112 94.1442L19.6364 94.2193L19.2653 94.4474L19.1066 94.4275L19.0995 94.8455L18.9026 95.0466L19.0839 95.1472L19.3375 95.0594L19.7568 95.0806L20.026 95.4447L19.9084 95.5736L19.8971 95.9519L19.9594 96.0695L19.6081 96.3117L19.2298 96.1927L19.4962 95.6572L19.2015 95.4022L18.8459 95.3413L18.5314 95.3682L18.4578 95.279L18.0965 95.286L17.8302 95.67L17.6446 95.6501L17.3853 95.4716L17.119 95.4504L17.289 95.0735L17.3797 95.1699L17.8259 95.252L18.0611 95.0806L18.2368 95.1203ZM21.6183 80.9281L22.0363 80.9678L22.4386 81.1024L22.8409 81.4395L23.0095 82.0133L23.0421 82.6508L23.4444 83.124L23.7122 83.998H24.0805L24.0862 84.2799L24.7959 84.3749L25.0963 84.3168L25.4093 83.9839L25.6204 83.906L26.0681 84.0504L26.265 84.0306L26.5129 83.8989L26.8416 83.5745L27.5188 83.3662L28.0373 83.1041L28.2016 82.6678L28.1138 82.2952L28.1463 82.1479L28.5855 81.798L28.5529 81.1279L28.594 80.8729L28.7229 80.6986L29.2117 80.4875L29.7713 80.6122L30.1098 80.207L30.5292 80.258L30.7601 80.3402L31.3933 80.7411L31.8013 81.2072L31.8849 81.4863L32.1711 82.0147L32.3935 82.2074L32.8171 82.332L33.0367 82.1804L33.0763 81.7639L33.1812 81.5118L33.3965 81.3715L33.6062 80.9862L33.7592 80.9182L34.1488 81.0032L34.4378 81.227L34.5695 81.6393L34.5369 82.1804L34.289 82.4794L34.4123 82.8279L34.7537 82.825L34.9718 83.4455L34.986 83.777L34.8826 84.2247L35.02 84.399L35.4393 84.6525L35.8898 84.7673L36.2355 84.7375L37.0303 84.1581L37.706 84.4514L38.1225 84.2105L38.4313 84.5066L38.6736 84.6483L39.5278 84.6285L39.9968 84.6426L40.5082 84.491L41.4375 84.5661L41.5707 84.4712L41.9064 84.0009L42.2068 83.6524L42.5836 83.4384L43.0114 83.4158L43.7665 83.6651L43.9889 83.8634L44.7001 84.2573L45.3603 84.8268L45.1917 84.9798L45.1888 85.3155L45.7598 85.9601L45.8363 86.3625L45.9142 87.2224L45.9538 87.9505L46.2343 88.316L46.7118 88.5597L47.3663 89.3445L47.4074 89.9735L47.6425 90.1988L47.8069 90.4665L48.1554 90.6139L48.4089 91.0176L48.7829 91.3052L49.0323 91.8662L49.1215 92.1935L49.1144 92.8267L49.2887 92.9726L49.2646 93.0845L48.8679 93.1455L48.6654 93.0647L48.3721 92.4215L48.2489 92.4173L48.1129 92.6624L47.7346 92.7814L47.6836 92.3054L47.566 92.3677L47.6609 92.8366L47.141 93.2503L46.8038 93.5605L46.9058 93.766L46.5531 94.0054L46.2159 94.0946L46.2613 94.1995L46.0134 94.3921L45.696 93.994L45.4609 94.055L45.3589 93.773L45.1308 93.5648L44.6009 93.5605L44.8106 93.7164L45.0868 94.0606L44.9792 94.2136L44.693 94.4275L44.8262 94.6797L44.8106 94.861L45.1308 95.3753L45.3022 95.3342L45.5614 95.6855L45.6011 95.9519L45.985 95.8711L46.2995 96.0411L46.5602 95.7592L46.9441 95.5538L47.09 95.1826L47.566 95.1968L47.6893 95.3484L48.2828 95.0395L48.4359 95.0665L48.6838 95.3413L48.5478 95.4178V95.7465L48.4288 95.8513L48.3891 96.4279L48.4387 96.656L48.1808 96.7296L48.1851 96.969L47.9598 97.2793L48.1341 97.5683L48.0548 97.6774L48.0803 98.2483L47.7403 98.186L47.6836 98.4268L47.141 98.6336L46.5786 98.118L46.5531 98.0004L46.1593 97.9125L45.9793 98.3021L45.849 98.4608L45.8164 98.6662L45.8773 98.9651L45.5444 98.8461L45.3078 99.0586L45.5784 99.2244L45.4708 99.3873L45.6393 99.546L45.6068 99.7386L45.7371 100.144L45.594 100.253L45.832 100.43L45.8391 100.685L45.9496 100.878L45.7527 100.967L45.2894 100.519L45.1279 100.499L44.7723 100.307L44.5853 100.334L44.4989 100.492L44.1717 100.144L44.0314 99.9044L44.1108 99.6961L43.9974 99.5885L44.0484 99.2839L44.251 99.1748L44.1561 98.9481L43.9648 98.8745L44.0923 98.6662L44.5783 98.3177L44.6519 98.0089L44.8262 97.87L44.8106 97.7114L44.4267 97.6108L44.4663 97.3969L44.2071 97.2736L44.3431 97.0271L44.166 96.7636L44.2014 96.578L44.0768 96.4406L43.8572 96.5242L43.4676 96.4349L43.5073 96.0836L43.7268 95.9051L43.8515 95.6161L43.6093 95.636L43.4506 95.4376L43.4223 95.1203L43.3373 95.0112L43.3273 94.6953L43.061 94.8256L42.7777 94.8455L42.8513 95.1557L42.8188 95.507L42.6884 95.67L42.4292 95.5538L41.803 95.755H41.6103L40.9615 96.0369L40.7462 95.9675L40.613 95.755L40.2036 95.7663L40.2603 95.898L40.5875 95.9873L40.7873 96.3046L40.8992 96.2423L41.2548 96.3514L41.1868 96.5936L40.8425 96.7438L40.6895 96.9775L40.6739 97.1773L40.9686 97.3685L40.9105 97.6915L40.5549 97.863L40.3963 98.0981L40.562 98.5104L40.6668 98.577L40.7306 98.832L41.0961 99.1337L41.4347 99.3264L41.48 99.5318L41.9093 99.774L41.8313 99.9242L42.1076 100.067L42.2096 99.8548L42.4292 99.7925L42.4674 100.576L42.9208 100.815L42.8641 100.967L42.9151 101.22L43.0993 101.467L43.095 101.735L42.7281 102.042L42.4958 102.112L42.4164 102.235L42.0963 102.001L41.7619 102.147L41.5027 101.899L40.9686 101.831L40.8099 101.946L40.8312 102.262L41.0295 102.386L40.7405 102.613L41.1698 102.674L41.3114 102.617L41.582 102.714L41.718 102.879L41.616 103.153L41.4063 103.303L41.5423 103.778L41.0961 103.585L41.0224 103.948L40.7915 103.851L40.4926 103.974L40.7646 104.358L40.6853 104.482L40.3963 104.564L40.137 104.271L40.0194 104.47L39.5845 104.585L39.3139 104.914L39.7304 105.337L39.4882 105.514L39.2728 105.503L39.2573 105.201L38.9243 104.798L38.7487 104.79L38.6254 104.625L38.2514 104.501L38.3648 104.251L38.5688 104.147L38.1338 103.758L37.9808 103.545L37.7938 103.666L37.5133 103.626L37.5587 103.455L37.3108 103.242L36.8688 103.462L36.7838 103.276L36.4565 103.292L36.2313 103.426L35.5994 103.503L35.2821 103.331L35.3005 103.064L35.0979 102.926L35.1518 102.694L35.3331 102.367L35.5258 102.138L35.7623 101.988L35.8813 101.756L36.1519 101.838L36.3106 101.706L36.2823 101.186L36.3163 100.958L36.5358 100.808L36.8631 100.41L37.4383 100.267L37.4793 99.9044L37.5969 99.6225L37.7669 99.4567L37.6153 99.3136L37.7046 99.1139L37.9298 99.0246L37.9865 98.8745L38.2004 98.7965L38.5107 98.8815L38.6183 99.3264L38.5178 99.4298L38.4668 99.7783L38.6297 99.9511L39.2063 100.005L39.3465 99.7585L39.2672 99.58L39.4258 99.4298L39.5718 98.9425L39.8098 98.9014L39.7928 98.7583L39.5675 98.7498L39.4598 98.3021L39.4315 97.8502L39.1609 97.8233L38.8379 98.0896L38.7713 98.3574L38.3265 98.1095L38.0885 98.3248L37.9426 97.9536L37.7499 97.642L37.4567 97.7185L37.111 98.1392V98.3305L36.8404 98.9708L36.6662 99.0671L36.6251 99.2244L36.4353 99.3335L35.7113 99.3136L35.4308 99.0515L35.1362 99.3193L35.0413 99.6423L34.7962 99.842L34.2153 100.033L34.0751 100.179L33.7804 100.712L33.5963 100.699L33.4248 100.871L33.1897 100.987L32.6981 101.028L32.8001 101.66L32.6754 101.756L32.6315 102.051L32.4048 102.221L32.6018 102.405L32.7038 102.351L32.8908 102.571L32.5805 102.556L32.5848 103.092L32.3482 102.996L32.1668 103.064L32.0025 103.292L32.0535 103.449L32.2405 103.558L32.3765 103.812L32.1555 103.838L32.0776 104.174L32.3326 104.351L32.3992 104.625L32.1612 104.62L31.9586 104.805L31.6597 104.462L31.535 104.64L31.6143 104.983L31.7447 105.14L31.3834 105.38L31.2078 105.194L30.2756 105.133L30.4243 105.564L30.5193 105.687L30.4853 106.003L30.2246 105.611L29.8917 105.503L29.6664 105.271L29.5318 105.228L29.3576 105.36L29.1196 105.344L28.8433 105.145L28.9043 104.844L28.5388 104.878L28.4821 104.647L28.6847 104.564L28.6053 104.024L28.4821 103.735L28.5827 103.392L28.5954 102.886L28.5317 102.586L28.6563 102.405L28.5104 102.277L28.5203 101.934L28.3631 101.851L28.3008 101.131L28.1478 101.206L28.1704 101.475L28.0684 102.413L28.0188 103.242L28.0656 103.419L27.9112 103.523L27.9678 104.004L28.0585 104.092L27.5513 104.358L27.5329 104.497L27.6817 104.764L27.2057 105.475L27.0881 105.391L26.9068 105.564L26.6971 105.537L26.4945 105.68L26.18 106.05L26.0043 105.871L25.891 106.003L25.7097 105.975L25.5978 106.295L25.3895 106.241L25.0835 106.734L24.9263 106.891L25.0948 107.246V107.554L24.7279 107.788L24.8625 107.972L24.6883 108.115L24.7506 108.28L24.6713 108.696L24.412 108.504L23.8808 108.443L23.7065 108.607L23.5606 108.921L23.2489 108.975L23.2376 109.161L22.9897 109.125L22.9854 108.818L23.0619 108.423L23.205 108.169L23.0747 107.923V107.508L22.8551 107.369L22.6454 107.526H22.4655L22.2233 107.773L22.1538 107.615L22.2615 107.111L22.1992 106.872L22.5448 106.911L22.6242 106.822L22.3791 106.507L22.5094 106.315L22.814 106.5L22.8324 106.33L22.9854 106.165L22.8268 105.891L22.9103 105.618L22.7814 105.55L22.5888 105.757L22.3125 105.694L22.1595 105.857L22.0207 105.577L21.726 105.298L21.9739 105.237L22.0419 104.783L21.9059 104.837L21.7473 104.632L21.9059 104.517L21.8903 104.251L21.7657 104.031L22.0518 103.851L21.8833 103.558L21.471 103.523L21.9442 103.16L21.8776 102.983L21.437 103.119L21.4328 102.776L20.9412 102.606L20.9851 102.864L20.6522 102.949L20.6706 103.126L20.4113 103.276L20.1918 103.106L20.3887 102.864V102.597L20.2683 102.544L19.9127 102.578L19.7498 102.447L19.2993 102.27L19.1505 102.374L18.87 102.42L18.6674 102.174L18.8516 101.954L18.7283 101.851L18.1815 101.722L18.2835 101.487L18.1758 101.294L18.2481 101.055L18.4393 100.897L18.0172 100.795L17.7636 100.549L17.7523 100.13L17.6772 99.944L17.7636 99.808L17.6843 99.6083L17.8302 99.4921L17.7353 99.257L17.7693 99.0246L17.9223 99.0586L18.0682 98.8192V98.441L18.2608 97.9536L18.2934 97.7071L18.5753 97.5881L18.751 97.7185L18.9437 98.0981L19.1406 98.2058L19.2199 98.6336L19.4013 98.6889L19.5982 98.9354L19.6038 99.0714L19.2653 99.2173L19.2143 99.6352L19.2993 99.8123L19.1505 99.9511L19.1916 100.151L19.6421 100.28L19.7313 100.562L19.6704 100.958L20.0997 101.213L20.3703 101.317L20.9412 101.672L21.5277 101.912L21.7827 101.838L22.2615 101.542L22.3408 101.179L22.0703 101.294L21.6906 101.322L21.6396 100.987L21.386 101.021L21.233 100.519L20.9794 100.506L21.0262 100.246L20.9468 99.9582L20.7768 99.9511L20.6933 100.233L20.5629 100.191L20.4397 100.39L20.1634 100.226L20.3093 99.9639L20.4963 99.8817L20.6083 99.4765L20.7088 99.3873L20.5445 99.1748L20.4779 98.9127L20.5799 98.7625L20.8845 99.2173L20.9922 99.5035L21.1438 99.2796L21.4483 99.2102L21.522 99.0246L21.7317 99.3065L21.4483 99.4992L21.2118 99.944L21.4554 100.217L22.0079 100.589L22.4811 100.603L22.8551 100.699L23.1923 100.994L23.4076 100.739L23.1257 100.623L23.0747 100.356L23.6272 100.369L23.6938 100.562L24.395 100.862H24.9659V100.665L24.5537 100.642L24.0338 100.287L23.8468 100.101L23.8298 99.8123L23.9162 99.553L23.6838 99.5035L23.443 99.5615L23.3736 99.2839L23.188 98.9283L22.8324 98.543L22.6114 98.2412L22.2686 98.152L21.9229 98.2285L21.8493 98.3871L21.6651 98.3715L21.5064 98.118L20.9072 97.9536L20.7542 98.1661L20.3887 98.3517L19.8843 98.1661L19.8744 98.0627L20.1847 97.8842L20.2456 97.4295L20.4397 97.3969L20.4213 97.1079L19.992 97.1348L19.8404 96.6673L20.128 96.1261L20.6522 95.6161L20.7598 95.3484L20.5289 94.9701L20.6649 94.6868L20.3986 94.4941L20.6876 94.0748L20.6748 93.807L20.5006 93.7107L20.4113 93.5025L20.5516 93.3438L20.3759 92.9868L20.4963 92.685L20.2923 92.491L20.2017 92.2586L20.2243 92.022L20.0997 91.8435L19.9538 91.8591L19.8107 92.6496L20.043 92.7247L20.0104 93.0066L20.0713 93.1582L19.9368 93.3863L19.9693 93.6767L19.6421 93.6484L19.4834 93.8127L19.1916 93.7801L19.1406 93.4288L18.8303 93.2772L19.0103 93.0959L18.7793 92.9953L18.4861 92.5533L18.5314 92.2983L18.7723 92.3054L19.2525 92.4215L19.5571 92.321L19.6874 91.8917L19.3602 91.7897L20.417 91.1069L20.4397 90.934L20.281 90.5544L19.9977 90.5487L19.6421 90.7201L19.5472 90.4524L19.6364 90.3631L19.4055 90.135L19.5018 89.9835L19.2525 89.5131L18.9663 89.506L18.8743 89.7823V90.0302L18.6108 90.169L18.8813 90.2937L18.6674 90.604L18.5031 90.4651L18.4521 90.2512L18.2878 90.1761L18.1192 90.3674L17.8429 90.39L17.8585 90.162L17.7126 89.7426L17.5313 89.6845L17.5823 89.3205L17.8075 89.1915L17.4647 88.7679L17.7027 88.2027L18.0611 87.9491L18.1532 88.3189L18.3558 88.3543L18.5088 88.2594L18.734 88.2721L18.751 88.5399L19.0273 88.5271L19.3035 88.0086L19.5018 87.7395L19.4962 88.1942L19.5472 88.2863L19.2369 88.8388L19.3092 89.1136L19.2993 89.404L19.4678 89.4168L19.4962 89.6449L19.7724 89.8588L19.9693 89.7766L19.9311 90.0869L20.0657 90.135L20.23 89.6803L20.332 89.8389L20.6649 89.9211L20.7768 90.2158L20.4496 90.5756L20.6479 90.611L20.6238 90.9142L20.9695 91.0375L21.1508 90.9964L20.9922 90.6861L21.1154 90.4864L21.4781 90.3135L21.7883 89.8163L21.3704 89.5684L21.7926 89.4664L21.9343 89.2114L21.5673 89.0711L21.0588 89.0513L20.8519 88.741L20.7088 88.3685L20.4496 88.2594L20.2739 87.9534L19.9538 87.5411L19.8107 87.5255L19.8404 87.2011L20.0104 87.0141L19.941 86.6019L19.5528 86.5169L19.2752 86.6486L19.1916 86.5169H18.9819L18.8813 86.1032L18.5881 85.8624L18.7567 85.4544L18.8516 85.4275L18.9663 85.7434L19.1066 85.8624L19.4055 85.7306L19.2865 85.5167L19.6322 85.0464L19.5698 84.8948L19.2936 84.9911L19.1916 84.899L19.2993 84.6582L20.0203 84.6228L20.043 84.3749L20.1563 84.1128L20.179 83.4824L20.3603 83.1636V82.91L20.5573 82.5219L20.8746 82.6465L20.8236 82.3462L20.6805 82.0076L20.6933 81.6067L20.7542 81.3219L21.0715 81.0188L21.5503 81.0528L21.6183 80.9281ZM33.6855 87.5213L33.2364 87.313L32.6754 87.2578L32.5437 86.8625V86.541L32.4558 86.276L32.0379 85.7703L31.6455 85.5833L31.1213 85.5634L30.5972 85.7703L30.1665 85.9969L29.7358 86.4503L29.4185 86.4673L28.9666 86.3171L28.6507 86.0168L28.5175 85.5464L28.0514 85.5266L27.8644 85.9771L27.7525 86.3724L27.6023 86.6741L27.0952 86.6557L26.7226 87.1062L26.6291 87.5964L26.4775 88.1404L26.571 89.0244L27.6023 89.1929L28.1265 89.251L28.5175 89.7398L28.7258 90.2654L28.9312 90.5657H29.7358L30.0362 90.3603L30.4668 90.135H31.2899L31.6087 89.9084L32.2816 90.0401L32.6188 89.8715L33.0112 89.533L33.3115 89.1391L33.4801 88.7807L33.4985 88.214L33.6855 87.8216V87.5213ZM13.3663 90.0458L13.6198 90.0174L13.6864 89.8319L13.3436 89.5755L13.5348 89.3743L13.4966 89.1405L14.0604 89.0995L14.2871 88.928L14.603 88.5399L14.9345 88.2027L15.0648 88.3344L14.7815 89.0442L14.6356 89.183L14.5973 89.4522L14.6583 89.6179L14.9855 89.7695L14.9345 89.9013L14.5407 90.2739L14.3438 90.3631L14.0491 90.3206L13.9811 90.0245L13.7558 89.9905L13.4853 90.1889L13.3663 90.0458ZM15.6868 89.4933L15.7023 89.2581L15.946 89.0796L16.4206 88.9125L16.6572 89.0371L17.0581 89.1065L17.1431 89.3346L17.442 89.1405L17.5157 89.3205L17.4363 89.6109L17.4477 89.8715L17.6899 90.0033L17.7749 90.1421L17.8358 90.611L18.0838 90.7697L17.9789 90.8788L17.8769 91.182L17.5723 91.155L17.3853 90.8094L17.1658 90.7357L17.2777 90.4099L17.068 90.2781L16.6855 90.3135L16.5892 90.1421L16.2548 90.1549L15.8171 90.0656L15.7533 89.914L15.8667 89.6449L15.6868 89.4933ZM14.5789 91.4993L14.7886 91.4568L14.8396 91.2386L15.0833 91.216L15.0762 91.0375L15.3595 91.1352L15.6513 91.1465L15.81 91.2443L15.9063 91.4922L15.7533 91.7401L15.5564 91.7826L15.2348 91.6934L14.9402 91.7826L14.6299 91.7897L14.4769 91.6778L14.5789 91.4993ZM1.45633 99.3065L1.62067 99.376L1.496 99.6083L1.343 99.4992L1.2155 99.5955V99.8704L1.02142 100.144H0.757918L0.767834 100.329L0.525584 100.638L0.542584 101.001L0.453334 101.021L0.0906677 100.754L0 100.519L0.14875 100.438L0.0340008 100.171L0.243667 100.025L0.317334 99.6621L0.481667 99.5389L0.430667 99.3802L0.599251 99.1748L0.977501 99.23L0.869835 99.41L1.14608 99.5318L1.2155 99.3136L1.45633 99.3065ZM27.7426 106.925L27.9353 106.645L28.1038 106.564L28.0302 106.268L28.5104 105.714L28.7697 105.748L29.4242 105.448L29.6848 105.81L29.5418 106.261L29.7798 106.084L29.9328 106.427L30.0971 106.618L30.0914 106.781L29.2499 106.55L29.1295 106.972L28.5827 106.992L28.3518 107.308L28.2781 107.611L28.1038 107.603L28.0628 107.418L28.2852 106.965L27.9579 106.981L27.7426 106.925ZM47.9938 94.4885L47.7629 94.521L47.5759 94.8384L47.1594 94.9078L46.8704 94.606L47.0858 94.3581L47.3946 94.2065L47.5986 94.385L47.9216 94.3652L47.9938 94.4885ZM10.9721 98.696L10.7015 98.7158L10.4763 98.5925L10.2057 98.3446L10.2793 97.9536L10.2383 97.4861L10.4536 97.4295L10.438 97.0937L10.8163 97.1206L11.0358 97.2793L11.2951 97.224L11.7187 96.9988L11.9836 96.571L12.1593 96.6333L12.4511 96.5582L12.5205 96.799L12.4412 97.1433L12.2258 97.1504L12.1692 97.4167L11.9779 97.5414L11.6833 97.5612L11.356 97.4918L11.0698 97.5825L11.0571 97.897L11.3277 98.3106L11.2101 98.6393L10.9721 98.696ZM20.2017 104.305L19.8971 104.448L19.7781 104.625L20.0558 104.771L19.7724 105.133L19.9254 105.487L19.6832 105.68L19.5755 105.98L19.3219 106.173L19.3276 106.534L19.1406 106.371L18.9097 106.022L18.8077 106.07L18.8417 106.398L18.5697 106.438L18.5314 106.604L18.1914 106.781L18.1192 106.631L17.8713 106.611L17.7749 106.872L17.8429 107.068L17.17 107.158L16.6388 107.576L16.3016 107.611L15.9276 107.719L15.6924 107.622L15.6641 107.391L15.4643 107.376L15.3028 107.588L15.1272 107.472L15.2235 107.199L15.4488 107.027L15.3822 106.898L15.1555 106.891L15.0705 107.068H14.8793L14.6427 106.568L14.4557 106.411L14.2984 106.084L14.671 105.414L14.9118 105.317L15.0082 104.941L15.2958 104.844L15.4998 104.62L15.9786 104.448L16.014 104.194L16.3526 103.722V104.112L16.4588 104.215L16.6572 104.159L16.5438 103.921L16.6232 103.695L16.9221 103.269L17.0581 103.311L17.255 103.195L17.5766 102.563L17.3627 102.447L17.3287 102.015L17.391 101.912L17.7353 101.908L18.2042 102.07L18.2708 102.174L18.5413 102.243L18.7723 102.454L18.7439 102.783L18.9153 103.01L19.3092 102.86L19.5188 103.146L19.8178 103.422L19.9821 103.695L20.1663 103.762L20.2683 103.969L20.077 104.154L20.2017 104.305ZM16.5892 100.719L16.5098 100.808L16.1826 100.842L16.048 101.07L15.895 100.947H15.6868L15.1442 101.276L15.0082 101.22L15.2164 100.576L15.0932 100.419L14.8793 100.555L14.8679 100.28L15.0833 100.198L15.3128 100.233L15.4941 99.8477L15.7873 99.8746L15.8327 100.021L16.3058 100.369L16.2053 100.515L16.2832 100.672L16.5382 100.549L16.5892 100.719ZM49.4006 105.221L49.2873 105.407L49.2802 105.687L49.1966 105.852L49.2363 106.138L48.773 106.111L49.0167 105.333L49.2462 105.325L49.4006 105.221ZM25.0722 111.258L25.1416 111.454L24.9645 111.51L24.9603 111.918L24.684 111.906L24.633 111.68L24.2718 111.707L24.2023 111.787L24.497 112.095L23.9388 112.007L23.9502 111.783L23.8298 111.695L23.7292 111.292L23.9502 111.134L24.0465 110.716L24.2718 110.746L24.3893 110.862L24.5537 110.786L24.8469 110.862L25.0722 111.258ZM14.7206 98.6889L14.4953 98.6336L14.5747 98.2285L14.4613 98.1321L14.195 98.0981L14.1001 98.2625L13.9188 98.2681L14.0038 97.982L14.1568 97.87L14.0321 97.5343L14.2871 97.4861L14.2743 97.2935L14.6639 97.4918L15.0365 97.3756L15.1881 97.6915L15.7703 97.897L16.0423 98.0698L16.1755 98.5925L16.1259 98.8929L16.0197 99.1068H15.7817L15.5394 98.8589L15.4898 98.696L15.3128 98.6067L15.2518 98.441L15.0762 98.4764L14.8963 98.7625L14.7206 98.6889ZM14.2871 95.1557L14.3593 95.2945L14.8169 95.4305L14.9246 95.2322L14.7319 95.0735L14.8226 94.606L15.1498 94.667L15.2958 94.7987L15.4615 94.6953L15.5692 95.1968L15.2901 95.1132L15.3312 95.3611L15.5508 95.5538L15.5224 95.6855L15.2065 95.864L14.9628 95.755L14.7943 96.0014L14.9855 96.408L14.8835 96.6602H14.62L14.4387 96.578L14.331 96.289L14.1058 96.0836L13.6765 95.4575L14.0165 95.3951L14.1497 95.1897L14.2871 95.1557ZM25.1288 112.321L25.1798 112.52L24.9985 112.724L24.7888 112.423L24.633 112.608L24.5253 112.348L24.2491 112.52L24.3001 112.616L24.0012 112.819L23.9502 113.003L23.5252 113.29L23.205 113.391L22.8707 113.324L22.7248 112.958L22.8367 112.827V112.554L22.7418 112.47L23.1639 112.075L23.4742 111.884L23.7731 112.075L23.7802 112.232L24.0777 112.171L24.8115 112.282L24.8908 112.397L25.1288 112.321ZM32.997 108.23L32.878 108.654L32.6627 108.696L32.3765 108.845L31.9416 108.634V108.326L32.1895 108.033L32.4941 107.985L32.5734 108.1L32.7873 108.033L32.997 108.23ZM31.2871 111.933L31.1582 112.479L31.0788 112.608L30.6439 112.593L30.5476 112.67L30.0688 112.302L29.869 112.581L29.7132 112.129L29.8435 111.96L29.818 111.783L29.9993 111.481L30.2373 111.292L30.294 111.127L30.4626 111.031L30.7955 111.154L31.0151 111.134L31.0335 111.299L30.8692 111.415L31.2871 111.933ZM12.6948 99.1904L12.699 99.3873H12.4355L12.4001 99.6154L12.0799 99.835L12.0743 100.067L11.7527 100.21L11.5713 100.183L11.3631 99.971L10.8772 99.8477L10.7468 99.4921L10.7936 98.8518L11.1152 98.7356L11.1874 98.8858L11.3971 99.009L11.4764 98.8815L11.4198 98.577L11.6833 98.5925L12.0133 98.7767L12.1975 98.7852L12.5148 99.094L12.6948 99.1904ZM48.0392 101.789L47.7856 101.487L47.7913 101.322L47.4357 101.276L47.2614 101.008L47.4513 100.862L47.5377 100.678L47.3904 100.535L47.515 100.226L47.6269 100.217L48.0052 99.9044L48.0009 99.7457L48.1851 99.3675L48.1341 99.2031L48.2035 98.7852H47.9825L47.8352 98.2979L48.0618 98.3177L48.5081 98.5104L48.807 98.7158L48.8963 99.0671L48.773 99.1479L48.5761 99.0785L48.4514 98.8858L48.2361 99.0388L48.3778 99.2711L48.6554 99.1946L48.6894 99.4496L48.5917 99.5998L48.8297 99.8548L48.9756 99.8477L49.0039 100.396L49.0776 100.862L48.9473 100.987L48.9147 101.317L48.9813 101.475L49.2292 101.672L49.0932 101.946L48.8637 101.988L48.4571 101.908L48.3494 101.769L48.0392 101.789ZM25.8627 112.125L26.0043 112.336L26.0936 112.697L26.3769 112.704L26.3203 112.935L26.1616 113.153L26.1106 113.418L25.9647 113.625L25.7508 113.564L25.7323 113.196L25.4278 113.119L25.2464 112.771L25.3994 112.681L25.5014 112.409L25.7097 112.259L25.6204 111.911L25.5128 111.769L25.7947 111.469L26.4109 111.911L26.2905 112.068L25.8627 112.125ZM48.909 104.285L48.8807 104.394L48.4741 104.367L48.484 104.159L47.8805 104.051L47.7785 103.758L47.5887 103.742L47.5193 103.496L47.3223 103.426L46.9951 103.195L47.2714 103.14L47.4187 102.996L47.8196 102.763L48.2078 102.77L48.3438 103.099L48.3055 103.222L48.671 103.572L48.6993 103.804L48.8807 103.997L48.909 104.285ZM38.0701 110.616L38.0375 111.188L37.8576 111.085L37.4723 111.073L37.4439 110.95L37.5459 110.532L37.7428 110.512L37.7386 110.301L37.9653 110.185L38.1055 110.287L38.0701 110.616ZM43.7113 105.633L43.7665 105.721L43.5979 105.988L43.3146 105.995L42.8004 106.257L42.6927 106.104L42.857 105.907L42.8004 105.714L42.4518 105.73L42.1912 105.453L42.5921 105.503L42.6388 105.364L42.3782 105.237L42.0835 105.283L42.0056 104.783L42.1076 104.647L42.4164 104.941L42.6771 104.878L42.8358 105.091L42.9307 104.871L43.1843 104.898L43.3939 105.207L43.7368 105.337L43.7113 105.633ZM28.0188 109.038L27.7596 109.229L27.4309 108.88L27.3643 108.948L27.3516 109.318L27.0881 109.084L26.9351 109.057L26.6022 109.188L26.4718 109.079L26.2466 108.627L26.1063 108.607L25.993 108.41L25.6757 108.203L25.5921 107.918L25.4844 106.954L25.7451 106.685L26.1333 106.541L26.7835 106.568L26.9988 106.83L27.1391 106.85L27.37 107.111L27.3516 107.719L27.5003 107.808L27.4947 107.999L27.7355 108.314L27.7766 108.553L28.0528 108.526L28.1888 108.688L28.0188 109.038ZM41.9716 104.564L41.9843 104.47L41.769 104.228L42.1303 104.004L42.0793 103.789L41.9376 103.646L41.6443 103.619L41.8979 103.133L42.1175 102.94L42.4448 102.976L42.5468 103.173L42.4122 103.358L42.2535 103.858L42.5425 103.819L42.8074 103.865L42.9817 104.024L43.0993 104.271L42.9151 104.448L42.5694 104.47L42.3442 104.401L41.9716 104.564ZM12.9653 101.872L13.022 101.722L12.8293 101.611L12.7118 101.426L12.8251 101.247L12.7968 100.735L13.1013 100.739L13.0673 100.912L13.124 101.317L13.2827 101.383L13.3053 101.592L13.6326 101.549L13.5462 101.823L13.8068 102.031L13.7275 102.282L13.3379 102.393L13.2303 102.181L13.09 102.463L12.8633 102.467L12.903 102.138L12.7854 101.968L12.9653 101.872ZM37.3334 105.167L37.2357 105.626L37.0543 105.803L36.6152 105.791L36.1873 105.667L36.142 105.83L35.8247 105.768L35.6278 105.871L35.3458 105.776L35.0186 105.371L34.7962 104.894L35.1022 104.674L35.2665 104.324L35.4181 104.605L35.5838 104.737L36.0003 104.605L36.3715 104.344L36.6718 104.244L36.8914 104.367L37.1903 104.181L37.5233 104.421L37.587 104.66L37.3334 105.167ZM29.7684 108.968L29.5885 109.022L29.4851 108.834L29.4369 108.443L29.3293 108.346L28.9283 108.319L28.5614 108.573L28.2398 108.135L28.5388 107.862L28.7867 108.176L29.0913 108.096L29.1196 107.835L29.4128 107.554L29.6154 107.795L29.9101 107.726L30.3167 107.856L30.4116 108.088L30.7332 107.889L30.7388 108.183L30.3889 108.253L30.5079 108.416L30.4399 108.757L30.2813 108.78L30.0447 108.661L29.869 108.764L29.7684 108.968ZM14.3211 109.365L14.1398 109.46L13.8125 109.283L13.4966 109.399L13.2586 109.345L13.0546 109.386L13.0291 108.991L13.1297 108.9L13.1807 108.546L13.2983 108.526L13.4229 108.764L13.5759 108.887L14.1213 108.807L14.246 108.984L14.3211 109.365ZM34.7523 107.938L34.3074 107.923L34.1828 107.826L33.9334 108.257L33.5963 108.73L33.5509 108.396L33.8881 108.156L33.8598 107.999L33.5396 108.06L33.4036 107.822L32.9644 107.595L33.1203 107.088L33.371 107.199L33.5608 107.178L33.6798 107.465L33.7195 107.731L34.0184 107.685L34.1488 107.499L34.6276 107.753L34.7523 107.938ZM33.8498 105.248L34.0694 105.18L34.2054 105.398L34.3457 105.961L34.3074 106.125L34.0751 106.364L34.0071 106.064L34.0595 105.884L33.8314 105.83L33.8541 106.173L33.5835 106.003L33.5113 105.31L33.7195 105.044L33.8498 105.248ZM31.7036 106.221L31.8113 106.5L31.6653 106.658L31.603 106.918L31.7447 107.054L31.7773 107.308L31.5463 107.376L31.3551 107.268L31.2701 107.519L31.1355 107.629L30.5802 107.561L30.4187 107.192L30.124 107.295L30.056 106.965L30.4286 106.364L30.5986 106.53L30.7516 106.468L31.4401 106.761L31.7036 106.221Z" fill="#00212E"/>
<path d="M27.6748 66.3436L27.9553 66.2232L28.274 66.5179L29.2133 66.1779L29.9513 65.8407L30.756 65.4369L30.7574 63.6137L31.1881 63.4706L31.7647 63.0371L32.558 63.1816L33.1332 63.4706L33.3669 63.6718L33.6389 63.5882L34.1107 64.0245L34.1773 64.8306L34.7 64.8731L34.7057 65.1352L34.8148 65.308L35.3644 65.3491L35.6804 65.1933L36.1748 65.1423L36.4666 64.9043L36.8236 64.9284L37.1948 65.3038H37.5971L38.3366 65.2358L38.202 64.6974L39.1413 64.7654L39.6612 64.3277L39.9049 64.6804L40.2817 65.4341L40.5409 65.7812L40.616 66.3819L41.0184 67.3239H41.2875L41.7933 66.9839L42.0922 66.9967V67.4585L42.2253 68.0663L42.9634 68.1314L43.6335 67.9983L43.8347 67.5945L43.8701 67.1171L44.0911 67.0774L44.4949 66.8607L45.0445 67.1228L45.3789 67.3905L45.7146 67.1228L45.9824 66.7856V66.2487L46.0744 66.1509L46.2189 66.1127L46.4442 66.6057L46.5859 66.7261L46.8791 66.7615L47.6129 67.0349L47.7249 67.3339H48.2844L48.3624 67.1369L48.8242 66.9344L49.1387 66.7162L49.4348 66.617L49.626 66.6326L49.8796 66.9896L50.0567 67.1129L50.2791 66.8564L50.646 66.5575L51.394 67.7801L51.6604 68.4955L51.6009 69.0934L51.3841 69.5764L51.2623 69.7167L50.884 69.9023L50.7211 70.2664L50.5582 70.4845L50.4434 70.901L50.1587 70.9534L49.7748 71.309L49.4617 71.3119L49.0693 71.5598L48.7888 71.5697L48.5409 71.4266L48.4091 71.8757L48.2349 72.0457L48.1385 72.4466L47.6144 72.9821L47.4373 73.2229L47.0774 73.468L46.9089 74.5093L46.8763 74.9244L46.6836 75.0972L46.4824 75.4089L46.3564 75.882L46.073 76.477L46.0504 76.7646L45.903 77.4984L45.5616 78.2054L45.5984 78.7083L46.0461 78.8528L46.1949 79.0029L46.1779 79.4039L46.5575 80.1221L46.4499 80.4649L46.4116 80.8432L46.5604 81.2597L46.9089 81.3518L46.9315 81.4694L46.8281 81.9184L46.8125 82.2174L46.3124 82.6381L46.0178 82.9866L45.767 83.6666L45.8648 83.889L45.886 84.2843L45.3604 84.8269L44.7003 84.2574L43.9891 83.8635L43.7667 83.6652L43.0116 83.4159L42.5838 83.4385L42.2069 83.6524L41.9066 84.001L41.5709 84.4713L41.4377 84.5662L40.5083 84.4911L39.9969 84.6427L39.528 84.6285L38.6738 84.6484L38.4315 84.5067L38.1227 84.2106L37.7062 84.4514L37.0304 84.1582L36.2357 84.7376L35.89 84.7674L35.4395 84.6526L35.0202 84.399L34.8828 84.2248L34.9862 83.7771L34.972 83.4456L34.7538 82.8251L34.4124 82.8279L34.2892 82.4795L34.5371 82.1805L34.5697 81.6394L34.4379 81.2271L34.1489 81.0033L33.7594 80.9183L33.6063 80.9863L33.3967 81.3716L33.1813 81.5119L33.0765 81.764L33.0368 82.1805L32.8173 82.3321L32.3937 82.2074L32.1713 82.0148L31.8851 81.4864L31.8015 81.2073L31.3935 80.7412L30.7603 80.3403L30.5293 80.2581L30.11 80.2071L29.7714 80.6123L29.2118 80.4876L28.7231 80.6987L28.5942 80.8729L28.5531 81.1279L28.5857 81.798L28.1465 82.1479L28.1139 82.2953L28.2018 82.6679L28.0374 83.1042L27.5189 83.3663L26.8418 83.5745L26.5131 83.8989L26.2652 84.0307L26.0683 84.0505L25.6206 83.906L25.4095 83.984L25.0964 84.3169L24.7961 84.375L24.0863 84.28L24.0807 83.9981H23.7123L23.4446 83.124L23.0423 82.6509L23.0097 82.0134L22.8411 81.4396L22.4388 81.1024L22.0364 80.9679L21.6185 80.9282L21.4995 80.8106L21.2842 80.8035L21.3536 80.5967L21.6398 80.1873L21.9231 79.6461L22.1101 79.0922L22.4586 78.9604L22.6059 79.0143L22.6555 78.6757L23.0408 78.425L23.2562 78.398L23.5154 78.6275L23.6727 78.3711L23.9957 78.1756L24.4688 78.211L24.6431 78.3003L24.8244 78.1133L24.9193 77.7464L25.3387 77.4262L25.6815 77.531L26.1065 77.9617L26.0782 77.6019L25.8855 77.1372L25.7382 76.8921L25.231 76.9969L25.0681 76.9063L24.8981 77.1074L24.6105 76.9148L24.5425 77.0664L24.1643 77.0125L23.6613 77.1287L23.4871 77.0593L23.2378 77.2973H22.8836L22.477 77.1372L22.3467 76.8241L22.1668 76.6768L21.9741 76.8241L21.8168 76.4699L22.0208 75.9543L21.7701 75.865L22.0463 75.7049L22.4813 75.372L22.8496 75.185L23.0366 74.8989L23.4134 74.539L23.8087 74.2812L24.0566 74.4144L24.3895 74.0517L24.5921 73.954L24.9703 73.3278L25.2537 73.0374L25.1956 72.4041L25.1007 72.1052L25.3259 71.7581L25.7283 71.9579L26.0045 71.938L26.7199 71.8049L26.9579 71.8955L27.2908 71.9224L27.6847 72.0627L28.3137 72.5415L28.4369 72.3843L28.3293 72.1052L28.291 71.7581L27.4268 71.2963L27.1888 71.0455L26.659 70.7197L26.4054 70.6772L26.7157 70.357L27.1265 70.2536L27.4042 70.0935L27.6521 70.0864L28.053 70.2182L28.5446 70.1417L28.7415 69.898L28.6693 69.6898L28.7302 69.5014L29.2784 69.2506L28.8095 69.0976L28.3859 69.2279L28.1323 69.5212L27.5288 69.4589L27.2625 69.5963L26.8913 69.6048L26.4338 69.4107L26.2878 69.4518L26.0725 69.6742L24.9604 69.6119L24.891 68.7973L24.9987 68.1966L24.5538 68.0507L24.024 68.0918L24.0169 67.8552L23.769 67.7107V67.3409L24.1543 67.3608L24.3612 67.3055L25.2239 67.2984L25.3543 67.3679L25.7608 67.2276L26.4564 67.1228L26.812 66.8593L27.3078 67.1029L27.6691 66.957L27.866 66.4116L27.6748 66.3436Z" fill="#00212E"/>
<path d="M21.3072 57.2215L21.5168 57.5998L21.8554 57.6352L21.8214 57.8364L21.5168 57.8095L21.4786 57.6777L21.123 57.58L20.7731 57.5842L20.6881 57.4581L20.4274 57.5516L20.2872 57.4935L20.2815 57.264L20.4402 57.1436L20.6243 57.2414L21.072 57.0402H21.2462L21.3072 57.2215ZM21.3256 39.8645L21.5395 39.8999L21.6528 40.0756L21.6656 40.3179L21.1513 40.4496L20.9757 39.9679L21.0309 39.8135L21.3256 39.8645ZM31.0227 44.2689L31.2352 44.2562L31.4122 43.9955L31.765 43.8199L33.0372 44.0834L33.3899 44.2009L33.5684 44.0692H33.7696L34.4496 43.817L35.0984 43.3694L35.6523 43.3524L36.2955 43.6598L36.5831 44.0479L36.8806 44.3171L37.2362 44.4729L38.0975 44.5409L38.293 45.0637L38.7123 45.2847L38.9022 45.4788L38.9532 46.0525L39.3838 46.2197L39.3626 46.7424L39.5949 46.843H40.214L40.8855 47.3162L41.1533 48.1251L40.8175 48.5274L40.0128 48.4623L39.6785 49.0672L39.4093 49.4044L38.9532 50.1623H38.1683L37.8793 49.9696L36.8919 49.3888L36.525 49.3406L36.0221 49.3661L35.8478 49.6806L35.9257 50.0659L36.1382 50.3068L36.2742 50.6439L36.2544 51.3424L36.0433 51.8963L36.1977 52.9559L36.3125 53.5354V54.0156L35.9456 54.6885L35.9073 55.0271L36.0617 55.4337L36.6426 55.5541L36.9897 55.7723L37.1823 56.1789L37.1058 56.7569L37.3183 57.1663L37.2418 57.7414L37.2801 58.3662L37.4529 59.015L37.8977 59.0632L38.2151 59.6724L38.2675 60.3864L38.7392 60.7887L38.8058 61.5296L39.1416 62.0028L39.6785 62.204L39.8797 62.8783H40.1474L40.3486 62.4051V62.0028L40.4832 61.3285L40.4152 60.6555H40.7509L40.8855 60.9913V61.3965L41.3544 62.204L42.1591 62.6757L42.628 62.068L43.0983 61.7988L43.3505 61.5976L43.5347 61.6812L43.9512 61.8087L44.1722 61.9929L44.7757 61.9348L45.178 62.6077L45.246 63.282L44.9754 63.8884L45.0448 64.4933L45.5138 64.8984L45.8495 65.5728L46.0478 66.1777L45.9827 66.2485V66.7855L45.7149 67.1226L45.3792 67.3904L45.0448 67.1226L44.4952 66.8605L44.0914 67.0773L43.8704 67.117L43.835 67.5944L43.6338 67.9981L42.9638 68.1313L42.2257 68.0661L42.0925 67.4584V66.9965L41.7936 66.9838L41.2878 67.3238H41.0187L40.6163 66.3817L40.5412 65.781L40.282 65.434L39.9052 64.6803L39.6615 64.3275L39.1416 64.7653L38.2023 64.6973L38.3369 65.2356L37.5974 65.3036H37.1951L36.8239 64.9282L36.4669 64.9041L36.1751 65.1421L35.6807 65.1931L35.3647 65.349L34.8151 65.3079L34.706 65.135L34.7003 64.873L34.1776 64.8305L34.111 64.0244L33.6392 63.588L33.3672 63.6716L33.1335 63.4705L32.5583 63.1814L31.765 63.037L31.1884 63.4705L30.7577 63.6135L30.7563 65.4368L29.9517 65.8405L29.2136 66.1777L28.2743 66.5177L27.9556 66.223L27.6751 66.3435L27.2288 66.7401L26.7953 66.5928L26.2017 66.5375L26.0657 66.6424L25.9071 66.4823L26.0431 66.0077L25.8306 65.6025L25.7002 65.5827L25.577 65.3589L25.3489 65.3787L25.3673 64.6803L25.339 64.2822L25.0401 64.1774L24.9551 64.3304L24.6505 63.6943L24.2368 63.2891L24.0399 63.241L23.8883 63.4931L23.605 63.1234L23.1262 62.9194L22.8428 62.942L22.7252 63.1503V63.5059L22.4943 63.2962L22.4872 62.7508L22.6742 62.8004L23.0086 62.7508L23.1701 62.5411L23.2055 62.3329L23.1318 62.058L23.367 61.7166L23.4364 61.4588L23.2848 61.0862L23.2622 60.7363L23.4024 60.5705L23.469 60.1923L23.6333 60.0591L23.3231 59.5109L23.2055 59.2318L23.0582 59.2672L22.9165 58.9088L22.7139 58.6169L22.9292 58.5461L23.0624 58.3719L23.3897 58.2104L23.8019 57.9355L23.2777 57.5715L22.8712 57.2286L22.6459 57.1309L22.3796 57.1663L22.2237 57.0317L22.3697 56.6804L22.3512 56.4282L22.551 56.0145L22.7635 55.9664L23.0624 55.659L23.3797 55.6235L23.4747 55.3983L23.6617 55.3345L23.9832 55.3558L24.0569 54.8656L24.1292 54.7594L24.4026 54.9138L24.4465 54.7594L24.1362 54.5624L23.7637 54.8217L23.4817 54.9563L23.3797 55.2524L23.2112 55.2637L23.1417 55.5669L22.8712 55.6788L22.6629 55.8686L22.551 55.7269L22.5892 55.5173L22.3697 55.3119L22.3923 54.928L22.2507 54.7112L22.228 54.3018L22.3002 53.9731L22.4532 53.9179L22.5099 53.7054L22.8598 53.4164L22.6686 53.3611L22.4773 53.6019L22.2393 53.2619L22.0084 53.116L21.9135 52.946L22.0594 52.6372L21.9192 52.2575L21.9007 51.9855L21.6018 51.6767L20.9417 51.4231L20.9006 51.246L20.5011 51.1341L20.0435 51.0916L19.9259 50.9499L19.7318 51.1114L19.3947 51.2531L19.0107 51.654L18.8025 51.7957L18.6906 51.9926L18.4172 51.9983L18.2429 51.8226L18.386 51.5974L18.3633 51.1908L18.5886 51.0279L18.6155 50.6354L18.5602 50.3465L18.4016 49.9597L18.2103 49.7543L17.893 49.8251L17.7924 49.3179L17.8137 49.172L18.0332 49.0219L17.9893 48.713L18.1197 48.305L17.9567 48.3319L17.7414 48.6493L17.2895 48.6294L17.2498 48.8391L17.3575 49.0219L17.2215 49.1989L16.9452 49.2627L16.5897 49.5361L16.4933 49.7472L16.2553 49.6424L15.6518 49.6636L15.4776 49.0445L15.7312 48.9227L15.7255 48.8037L15.9281 48.6365L16.2057 48.713L16.5217 48.9539L16.8617 48.8604L17.0302 48.5501L16.3304 47.9452L16.414 47.7185L16.1732 47.5995L15.8502 47.5868L15.6646 47.7058L15.3982 47.5358L15.36 47.7185L15.5442 47.8814L15.5796 48.3192L15.4492 48.3957L15.0554 48.8037L14.969 48.475L15.0993 48.1506L15.224 48.0585L14.9477 47.7143L14.9534 47.4451L14.7607 47.2269L15.0427 47.2071L15.462 46.8034L15.4903 46.6121L15.3926 46.3231L15.6745 46.1049L15.7156 45.8514L15.5399 45.7111L15.6802 45.3031L15.9862 45.5057L15.8785 45.7876L16.0145 46.0086L16.0258 46.3543L16.2553 46.4577L16.3984 46.9167L16.5344 46.9932L16.4211 46.4223L16.2397 46.3189L16.1944 46.0284L16.3474 45.9307L16.1151 45.6969L16.3573 45.5284L16.5217 45.2875L16.4707 45.0623L16.2624 44.752L16.3913 44.6047L16.1732 44.3001L16.363 44.2916L16.5344 44.1528L16.8432 44.0253L16.9282 43.8779L17.2612 43.7915L17.3192 43.6442L18.0049 44.0182L18.335 44.0054L18.2557 43.7717L18.4356 43.4898L18.3506 43.0874L18.3732 42.6908L18.2047 42.4287L18.2996 42.2261H18.4866L18.6268 42.6114L18.6906 43.001L18.6396 43.5734L18.8875 43.8907L18.9994 44.1882L18.8592 44.6174L18.6495 44.8795L18.4908 45.4859L18.9442 45.585L18.4965 45.9378L18.2047 46.0412L18.4965 46.3585L18.7062 46.1489L18.8705 46.2395L19.0561 46.0497L19.0901 45.7607L18.9668 45.5057L19.0844 45.3442L19.2077 44.9277L19.5533 44.99L19.4627 45.3584L19.5817 45.4349L19.7318 45.7324L19.9188 45.6884L19.7219 45.296L20.0265 45.0849L20.0336 44.7945L19.8976 44.6047L20.1639 44.4503L20.5804 44.5055L20.545 44.1726L20.7221 44.0734L21.2307 44.038L21.1612 43.8425L20.7957 43.7844L21.0309 43.1158L20.8014 42.9883L20.4402 43.2759L20.3042 43.1569L20.2532 42.882L19.6369 42.6979L19.4839 42.2941L19.8622 42.253L20.3481 42.2814L20.3438 42.1312L20.0619 41.9003L19.8848 42.0065L19.406 41.8564L19.2077 41.8493L19.1227 41.6538L19.6497 41.3407L20.4217 41.165L21.1952 41.1438L21.2802 41.2415L21.5395 41.2557L21.7704 41.4314L22.0424 41.2925L21.8398 40.9809L22.3867 40.3575L22.2719 40.2385L22.4249 39.941L22.6176 39.8008L23.0525 39.9552L23.2381 40.3023L23.5044 40.5077L23.7637 40.485L24.3842 40.8902L25.186 41.3124L25.5586 41.4753L26.1833 41.4951L26.6877 41.4469L26.767 41.6169L27.7034 41.8209L27.9612 41.9484L28.3806 42.0547L28.3636 42.3522L28.5832 42.797L28.6342 43.0209L28.8027 43.3113L29.0124 43.4034L29.0818 44.0054L29.3623 44.3228L29.9672 44.4984L30.4248 44.327L31.0227 44.2689ZM20.0336 58.3138L19.3947 58.4753L19.406 58.2458L19.6369 58.0843L19.8182 58.1126L20.0336 58.3138ZM20.0945 51.7249L20.1342 52.1541L19.8409 52.2504L19.9032 52.4559L20.1228 52.5111L20.1965 52.8908L20.1455 53.2138L20.3608 53.4674L20.3438 53.6374L20.6711 53.966L20.7164 54.2054L20.834 54.3315L20.8014 54.724L20.9856 55.0314L20.7674 55.2991L20.9417 55.3827L21.0536 55.659L21.2802 55.7213L21.2335 55.9309L21.3029 56.2398L21.0592 56.4013L20.6427 56.38L20.4614 56.1406L20.0336 56.4084L19.6936 55.9734L19.7786 55.6717L19.3507 55.7142L19.2261 55.2368L19.3451 55.0597L19.2657 54.7792L19.3153 54.1828L19.1864 54.119L19.2261 53.874L19.1283 53.7677L19.1793 52.9616L19.1071 52.708L18.8932 52.3567L18.8592 51.9501L18.9824 51.9416L19.0504 51.6682L19.4457 51.3098L19.7389 51.1752L19.9372 51.3452L19.9882 51.6129L20.0945 51.7249Z" fill="#00212E"/>
<path d="M46.048 66.1782L45.8497 65.5733L45.5139 64.8989L45.045 64.4938L44.9756 63.8888L45.2462 63.2825L45.1782 62.6082L44.7758 61.9353L44.1723 61.9933L43.9513 61.8092L43.5348 61.6817L43.3237 61.5783L43.0985 60.7892L43.3662 59.4419L43.5674 58.2307L43.9032 57.8935L44.1709 57.8241L43.9032 57.3523L43.7374 57.307L43.8054 56.9571L43.4257 56.8678L43.2827 56.7063L43.2317 56.1411L42.6962 55.6028L42.0827 56.1765L42.1649 55.6991L41.866 55.6608L41.7342 55.7997L41.526 56.2927L41.3546 56.2757L41.1534 55.6028L41.0868 55.131L40.2368 55.2217L40.1532 55.1027L40.0017 55.0729L39.7906 55.3123L40.1929 53.9963L39.9592 53.7483L40.1377 53.3545L40.1575 53.04L39.4378 52.9975L39.3429 52.7071V52.0993L38.7394 51.3584L39.2083 51.2238L39.2763 50.6189L38.9533 50.1628L39.4095 49.4048L39.6787 49.0677L40.013 48.4628L40.8177 48.5279L41.1534 48.1256L40.8857 47.3167L40.2142 46.8435H39.5951L39.3627 46.7429L39.384 46.2202L38.9533 46.053L38.9023 45.4793L38.7125 45.2852L38.2932 45.0642L38.0977 44.5414L38.6912 44.4904L39.0185 44.2949L39.3528 44.2184L39.8713 43.8586L40.3445 43.8855L40.54 43.5937L40.7312 43.5101L40.7638 42.7196L41.1307 42.4759L41.3687 42.4249L41.7952 42.1699L41.9567 41.8271L41.968 41.6033L42.1904 41.293L42.4695 41.0479L42.6919 41.3256L42.9625 41.3001L42.954 41.6868L43.2458 41.0508L44.1709 41.2193L44.4387 41.0182L45.045 40.4118L45.5805 40.3424L45.7151 38.6594H46.0508L46.3852 39.0646H46.7875L47.0567 38.2571L47.3244 37.7853L47.3584 37.6295L47.9293 37.502L48.0625 38.2571L48.5314 38.6594L48.9337 38.93L49.4027 38.7288L49.6619 38.3407L50.3688 38.3024L50.8675 38.5503L51.1055 38.2698L51.5447 38.097L51.6367 37.7088L51.4823 37.2782L51.4228 36.6973L51.522 36.4792L52.1368 36.0202L52.355 35.9139L52.8324 35.8955L53.2716 36.0074L53.4217 36.1718L53.6923 36.9013L53.6413 37.4496L53.9077 37.6224L54.0692 37.5275L54.6259 37.3773L54.8044 37.3674L55.2535 37.0841L55.5949 36.7016L55.7167 36.6888L56.0582 36.8248L56.3783 36.8985L56.5257 36.5713L56.7651 36.3701L57.2935 36.2426L57.5754 36.3984L57.7185 36.5698L58.1747 36.6605L58.492 37.0359L58.6691 37.0968L59.0856 37.0288L59.3802 36.8503L59.7132 36.9651L59.6905 37.2583L59.1847 37.8463L58.6195 38.1098L58.4835 38.2854L58.6266 38.6523L59.0162 38.9017L59.1238 39.032L59.3817 38.8195L59.6947 38.7898L59.9512 38.5163L60.6581 38.5475L60.9712 38.4781L61.178 38.6523L61.1157 38.9598L61.1553 39.2176L61.4018 39.2884L61.7163 39.8749L61.9458 39.7191L62.1229 39.7729L62.6046 39.7347L63.0338 39.5562L63.1061 39.4641L63.4645 39.576L63.8895 40.0534L64.2366 40.205L65.0852 40.4813L65.8374 40.4373L66.1647 40.7915L66.3474 40.8978L65.8742 41.3638L65.5045 41.2208L65.1022 41.7733L64.6474 42.0127L64.2224 42.5241L64.0836 42.6374L63.4801 42.8103L63.2123 43.2962L62.8227 43.5738L62.5493 43.673L62.5309 43.8628L62.2107 44.1802L62.1286 44.4649L61.6922 45.2356L61.6795 45.5218L61.8566 45.56L62.079 45.8292L62.1357 46.2839L61.7872 46.7231L61.5237 47.1226L61.4075 47.1736L60.7615 47.2218L60.4654 47.5164L59.9412 47.5037L59.5871 47.5972L59.4695 47.5448L59.3108 47.2203L59.2457 46.9384L58.9326 46.4808L58.2384 46.0799L57.9834 45.6563L57.7511 45.9312L57.625 46.3137L57.3827 46.3873L57.3558 46.8081L57.2085 47.2076L56.2933 46.9455L56.0879 46.9285L55.891 46.6976L55.6615 46.6154L55.2322 46.9993L54.9843 47.4173L54.6897 47.4583L54.3369 47.0829L54.2292 47.1481L54.0904 47.5008L53.8269 47.9953L53.7476 48.399L53.613 48.5917L54.3086 49.5522L54.3426 49.725L54.0862 49.7477L53.6059 49.6258L53.0987 49.385L52.8395 49.5111L52.1283 49.1598L51.8762 49.6641L51.165 50.1911L50.5955 50.2718L50.3901 50.5042L50.2187 50.9221L50.3377 51.2635L50.2427 51.4165L49.7667 51.8259L49.4395 52.309L49.0839 52.3118L48.7524 52.6136L48.717 52.8077L48.8728 53.0457L49.159 53.1548L49.8659 53.2171L50.1861 53.4126L50.2867 53.5514L50.2569 53.754L50.3405 54.0898L50.8179 54.3249L50.8972 54.4737L50.7782 54.961L50.3731 55.0347L50.2796 55.3223L50.3433 55.624L50.3419 56.0986L50.1974 56.6794L50.3263 56.9344V57.2135L50.0487 57.6513L50.2753 58.0791L50.3334 58.3525L50.4397 58.4177L50.3476 58.7449L50.1167 59.1005L49.6534 59.4688L49.618 60.0936L49.6364 60.3939L49.9197 60.7311L50.2442 60.724L50.8335 60.2282L51.0219 60.6163L51.4143 60.7113L51.6013 60.9691L51.9413 61.3034L52.1212 61.2836L53.0279 60.9308L53.2857 60.996L53.5832 61.2L53.5195 61.5428L53.5606 61.7865L53.7518 62.2809L53.8992 62.4013L53.8793 62.5756L53.6314 62.6932L53.4897 62.5473L53.1441 62.4467L52.5831 62.6833L52.3295 63.0587L52.3451 63.3151L52.5817 63.6976L52.4712 64.0022L52.4938 64.4697L52.1156 64.7842L52.1538 64.9825L51.9413 65.3466L51.8917 65.7858L51.4979 66.3468L51.335 66.4176L51.1466 66.2745L50.8788 66.3269L50.6465 66.5578L50.2796 66.8568L50.0572 67.1132L49.8801 66.9899L49.6265 66.6329L49.4352 66.6173L49.1392 66.7165L48.8247 66.9347L48.3628 67.1373L48.2849 67.3342H47.7253L47.6134 67.0353L46.8796 66.7618L46.5863 66.7264L46.4447 66.606L46.2194 66.113L46.0749 66.1513L46.048 66.1782Z" fill="#00212E"/>
<path d="M81.1765 38.4384L80.8606 38.4583L80.2571 38.5928L79.8548 39.0646L79.3193 39.2658L78.7158 39.8055L78.38 40.2773V40.5464L78.7158 41.1528H77.7099L77.309 41.1882L77.0455 40.9034L76.7381 40.6966L76.3854 40.5549L75.8584 40.4218L75.5439 40.3892L75.3299 40.5436L74.9956 40.9318L74.7803 40.8907L74.3709 40.6158L74.1187 40.5138L73.7206 40.4699L73.3976 40.3665L73.1483 40.3608L72.6779 40.5209L72.532 40.2362L72.1623 40.0888L71.9639 40.2163L71.5389 41.0182L71.3378 41.2873H70.4651L69.7256 40.681L69.1221 40.3424L68.69 40.3835L68.5498 40.8822L68.5724 41.4021L68.3344 41.6429L68.0199 41.4375L67.6743 41.3454L67.262 41.4021L66.599 40.9488L66.3469 40.8978L66.1641 40.7915L65.8369 40.4373L65.0846 40.4813L64.236 40.205L63.8889 40.0534L63.4639 39.576L63.1055 39.4641L63.0333 39.5562L62.604 39.7347L62.1224 39.7729L61.9453 39.7191L61.7158 39.8749L61.4013 39.2884L61.1548 39.2176L61.1151 38.9598L61.1774 38.6523L60.9706 38.4781L60.6575 38.5475L59.9506 38.5163L59.6942 38.7898L59.3811 38.8195L59.1233 39.032L59.0156 38.9017L58.626 38.6523L58.4829 38.2854L58.6189 38.1098L59.1842 37.8463L59.6899 37.2583L59.7126 36.9651L59.3797 36.8503L59.085 37.0288L58.6685 37.0968L58.4914 37.0359L58.1741 36.6605L57.7179 36.5698L57.5749 36.3984L57.2929 36.2426L56.7645 36.3701L56.5251 36.5713L56.3778 36.8985L56.0576 36.8248L55.7162 36.6888L55.5944 36.7016L55.2529 37.0841L54.8039 37.3674L54.6254 37.3773L54.0686 37.5275L53.9071 37.6224L53.6408 37.4496L53.6918 36.9013L53.4212 36.1718L53.271 36.0074L52.8319 35.8955L52.3544 35.9139L52.1363 36.0202L51.5214 36.4792L51.4223 36.6973L51.4818 37.2782L51.6362 37.7088L51.5441 38.097L51.1049 38.2698L50.8669 38.5503L50.3683 38.3024L49.6614 38.3407L49.4021 38.7288L48.9332 38.93L48.5309 38.6594L48.0619 38.2571L47.9288 37.502L47.9939 36.9084L48.0619 35.8983L47.9273 35.1574L48.2631 34.8868L48.1951 33.2704L48.5974 32.3935L48.9332 31.5194L48.9998 30.6453L48.5819 30.4909L48.4742 30.0843L48.4926 29.8463L48.8907 29.4468L49.0862 29.1068L49.4163 29.0445L49.6444 28.7371L49.701 28.4835L49.4276 28.1492L49.3454 27.8559L49.2137 27.8148L48.8638 27.8928L48.6796 27.7228L48.1894 27.5868L47.6851 27.6151L47.2445 27.472L46.4909 26.7651L45.9143 26.6957L45.5233 26.3798L45.0303 26.1602L44.7753 26.2282L44.4041 26.4421L44.0726 26.3628L43.6802 25.8485L43.8813 25.5468L44.057 25.0892L44.1222 24.1428L43.7878 24.2604L43.6278 24.2321L43.3515 24.3383L43.3104 24.106L43.3756 23.9006L43.8389 23.5011L43.9564 23.2362L43.8304 22.8253L43.6731 22.4783L43.6745 22.2828L43.8488 22.0575L43.8063 21.6793L43.6688 21.42L43.7949 21.0899L44.2794 20.9284L44.6676 20.4836L45.2314 20.3603L45.4397 20.0968L45.4567 19.7753L45.5941 19.3942L45.5828 19.1222L45.4184 18.5243L45.1068 18.1801L44.6747 18.0979L44.2043 17.8727L44.1859 17.2904L43.8389 17.1233L43.3048 17.2338L43.0654 17.17L42.6404 16.9051L42.3698 16.5623L42.2139 15.4941L42.2182 14.6299L41.9122 14.2035L41.7549 14.1837L41.4929 14.4288L41.3413 14.2219L41.0409 14.0958L40.7222 14.1369L40.2122 14.3126L39.9515 14.6172L39.6427 14.4004L39.4273 14.0859L39.1355 14.0392L38.9627 13.9018L38.8097 13.6085L38.8125 13.3549L38.9273 13.1127L38.9825 12.6324L39.2191 12.4327L39.1043 12.3378L38.6723 12.2528L38.3691 12.5333L38.0078 13.0532L37.8577 13.107L37.4837 13.0858L37.1295 12.9087L37.0204 12.7047L37.0445 12.2188L36.8306 12.2853L36.7924 12.053L36.9269 11.6507L36.5912 11.3787L36.5246 10.7072L36.39 10.2354H35.3842V9.83025L35.6519 9.62767L35.1164 9.08934L34.6348 8.67567L34.8473 8.42209L35.5046 7.97442L35.7412 7.922L36.2271 8.05375L37.0247 7.7775L37.6636 7.39359L38.4003 7.50834L38.7431 7.76475L39.0661 7.67834L39.4302 7.74067L39.6739 7.53667L40.1229 7.5395L40.5295 7.3185L40.7491 7.27175L41.1713 7.35534L41.7578 7.73784L41.9958 7.67125L42.4732 7.85259L42.9506 8.15859L43.1744 8.07217L44.0924 7.46442L44.7228 7.24342L45.0345 7.31142L45.2824 7.55509L45.6069 7.57209L46.097 7.46442L46.6694 7.60892L47.0901 7.327L47.3579 7.39075L47.8976 7.35817L48.3339 7.38934L48.7179 7.12725L49.0125 7.1655L49.1655 7.55225L49.3313 7.67409L49.599 8.024L49.7506 8.09059L50.126 7.88092L50.5114 7.84267L50.687 7.7435L50.8669 7.41767L51.0667 7.36242L52.319 7.75342L52.7001 7.66134L53.1492 7.80017L53.645 7.81859L54.0856 7.97159L54.7245 7.87242L54.9554 7.74634L55.3649 7.34542L55.4924 7.29867L55.9315 7.36809L56.4557 6.953L56.7121 6.64842L56.9345 6.562L57.1853 6.31409L57.487 6.16392L57.8214 5.66242L58.1982 5.4145L59.0099 4.61833L59.4746 3.62383L59.4264 3.31217L59.6319 2.7625L59.6177 2.21425L59.5341 1.53142L59.5355 0.670084L59.6574 0.512833L60.4337 0L60.6533 0.478833L61.1449 1.09508L61.3361 1.173L61.5075 1.54983L61.3885 1.82183L61.5174 2.11083L61.7668 2.329L61.6407 2.6095L61.8404 2.76675L61.856 3.14075L62.0714 3.30792L62.0317 3.48925L62.6536 4.19475L62.4085 4.30383L62.3986 4.66933L62.6919 5.20342L63.2118 5.9245L63.59 6.34242L63.4469 6.40617L63.5773 6.9615L63.8493 7.24909L63.8436 7.565L64.1652 7.90925L64.3394 7.99709L64.2729 8.17559L64.3394 8.5L64.5038 8.76634L64.5208 9.21117L64.9713 9.83025L65.2532 10.2907L65.2249 10.6703L65.6385 11.1874L65.4402 11.3815L65.5479 11.7838L65.5139 11.9836L65.7561 12.4511L65.9828 12.6367L66.191 13.0532L66.5806 13.5207L66.8413 13.6779L66.9929 14.331L67.33 14.7461L67.8627 15.2618L68.044 15.2547L67.9902 15.6896L68.6121 16.6728L68.7991 17.0227L69.1618 17.2805L69.1434 17.51L69.8474 18.2339L70.0982 18.4393L70.0061 18.8544L70.407 19.4253L70.9496 19.941L71.0006 20.2569L72.073 21.3988L72.3592 21.6637L72.4739 21.8563L72.8451 22.2063L73.5563 23.0775L73.7589 23.4104L73.9813 23.6541L74.4884 24.0607L74.6457 24.2448L74.6004 24.7251L74.4672 24.8172L74.3524 25.1458L74.4672 25.4306L74.7024 25.6289L74.7817 25.8216L75.3526 26.3415L75.8669 26.7467L75.9434 27.1391L75.7634 27.6873L76.0128 28.0429L75.9434 28.1917L76.2451 28.6195L76.2267 28.7838L76.5369 28.9765L76.7339 29.2598L77.2708 29.8237L77.3444 29.9993L77.5088 30.9088L78.5472 31.7192L78.5628 32.2023L78.7059 32.317L78.975 33.3044L79.3094 33.5523L79.4779 33.4886L79.604 33.7436L79.5686 34.0113L79.9341 34.0397L80.0078 34.2663L80.1608 34.3258L80.1055 34.714L80.5631 35.1319L80.6736 35.5314L80.4654 35.6221L80.4554 35.8417L80.5447 36.0768L80.3634 36.5288L80.4838 37.1535L80.709 37.3646L80.9442 37.9454L81.0802 38.0885L81.0009 38.2571L81.1765 38.4384Z" fill="#00212E"/>
<path d="M17.775 25.3443L17.6843 25.408L17.4137 25.3032L16.9845 24.8669L17.0015 24.7379L17.3061 24.7096L17.7282 24.8102L17.6234 25.0595L17.6333 25.272L17.775 25.3443ZM47.9287 37.5021L47.3578 37.6296L47.3238 37.7855L47.0561 38.2572L46.7869 39.0647H46.3846L46.0502 38.6595H45.7145L45.5799 40.3425L45.0444 40.412L44.4381 41.0183L44.1703 41.2195L43.2452 41.0509L42.9534 41.687L42.9619 41.3002L42.6913 41.3257L42.4689 41.048L42.1898 41.2931L41.9674 41.6034L41.9561 41.8272L41.7946 42.17L41.3682 42.425L41.1302 42.476L40.7632 42.7197L40.7307 43.5102L40.5394 43.5938L40.3439 43.8856L39.8707 43.8587L39.3522 44.2185L39.0179 44.295L38.6907 44.4905L38.0971 44.5415L37.2357 44.4735L36.8802 44.3177L36.5827 44.0485L36.2951 43.6604L35.6519 43.353L35.098 43.37L34.4492 43.8176L33.7692 44.0698H33.568L33.3895 44.2015L33.0367 44.084L31.7646 43.8205L31.4118 43.9961L31.2347 44.2568L31.0222 44.2695L30.8848 43.3827L30.5292 43.088L30.1127 43.1575L30.0178 42.7551L29.6382 42.4647L29.5772 42.2465L29.1537 41.6303L28.6692 41.5595L28.4935 41.6105L28.4028 41.3356L28.6847 41.0452L28.6281 40.7916L28.4538 40.7123L27.703 40.7194L27.6307 40.3737L27.754 40.1272L27.9608 39.9558L27.9736 39.511L28.0657 39.0165L27.9112 38.627L27.9169 38.491L28.1152 38.2218L28.3858 38.0093L28.5218 38.1651L28.8307 38.0589L29.0347 37.7472L29.2727 37.5715L28.6847 37.5914L28.7258 37.1026L28.3632 37.1324L28.2852 37.2599L27.7356 37.2089L27.5613 37.5715L27.2907 37.9455L27.1037 38.117L26.8615 38.1014L26.7609 38.3011L26.5682 38.3564L26.4719 38.5675L26.2594 37.9101L26.3827 37.6764L26.3543 37.4086L26.122 37.4922L25.9293 37.3364L25.7551 36.8349L25.6757 36.7782L25.9251 36.4595L26.1503 36.3801L26.0214 36.118L26.0271 35.914L26.224 35.7426L26.0271 35.6151L25.9293 35.4154L25.9577 35.1958L26.309 35.1604L26.275 35.0045L26.4662 34.7651L27.2624 34.9564L27.3077 35.1604L27.6973 34.9847L27.8787 34.9776L27.907 35.4876L28.1648 35.9693L28.5615 35.3955L28.6507 35.0329L28.5544 34.8005L28.6791 34.5455L28.927 34.5385L28.9837 34.3458L29.3732 34.4464L29.0857 33.884L28.4241 33.9562L27.3757 33.5794L26.7666 33.153L26.6178 32.9773L26.4053 32.99L25.0113 33.4731L24.3228 33.9562L24.3384 34.0979L24.1004 34.3458L24.3512 34.486L24.5594 34.7779L24.83 34.7651L25.034 34.8643L25.1672 35.4465L25.7324 35.7355L25.6262 36.0897L25.1955 35.822L25.0836 35.523L24.9603 35.9551L24.9702 36.1818L24.7393 36.169L24.5353 35.9424L24.3228 35.8503L24.1698 35.9905L24.0338 36.281L23.8525 36.3674L23.5833 36.2399L23.4927 35.7936L23.5196 35.4947L23.8596 35.4111L23.9318 34.9649L23.8369 34.8855L23.7689 34.5654L23.4402 34.275L23.4303 34.1475L23.8525 34.2905L24.0239 34.2395L24.3058 33.935L24.9377 33.4519L25.3726 33.3244L26.5456 32.898L26.428 32.7775L26.4847 32.5707L26.7382 32.5296L26.9068 32.3455L27.0712 32.3582L27.4947 32.0026L27.5797 31.6754L27.431 31.4629L27.5953 31.3155L28.1832 31.351L28.2456 31.1186L28.4935 30.9826L28.5672 30.8466L28.5162 30.4585L28.6692 30.287L28.6621 30.0306L28.2116 29.7034L27.9509 29.4059L27.8999 28.7655L27.9226 28.536L28.6847 27.5543L29.4242 28.2541L29.5376 28.502L29.4809 28.7655L29.6013 28.8789L29.624 29.4059L29.7926 29.6623L30.0561 29.5617L30.3167 29.3705L30.5137 29.5036L30.9826 30.5987L31.0973 30.627L31.4855 30.4712L31.7447 30.5789L32.0111 30.5151H32.3893L32.5069 30.4075L33.1572 30.059L33.5581 30.0745L33.8159 29.9952V30.3664L33.9632 30.627L34.3585 30.3706L34.7481 30.1794L35.132 30.0944L35.3898 30.1227L35.7525 29.7827L35.8814 29.5674L36.2951 29.0985V28.971L36.0401 28.8633L36.0854 28.451L36.2214 28.1946L36.7172 27.975L36.8122 27.8617L36.6152 27.2214L36.5033 27.0925L36.254 27.2695L35.7242 27.3985L35.4692 27.5614L35.2156 27.5982L35.132 27.2129L35.4026 26.5881L35.4408 26.3161L35.2057 25.9464L35.234 25.6829L34.996 25.2975L35.0187 24.456L34.7764 24.0863L34.3698 24.0424L34.2338 24.1203L33.8272 24.099L33.5793 23.9857L33.3073 24.099L33.2563 24.2152L32.8682 24.4405L32.8752 24.6969L32.6372 24.925L32.5919 25.197L32.6202 25.5752L32.5012 25.7027L31.9827 25.8104L31.4175 25.7948L31.1469 25.9308L31.0973 26.0597L31.0619 26.7284L30.3961 27.0854L30.0178 27.1293L29.6282 26.9083L29.3293 26.5371L29.0587 26.4649L28.8377 27.0004L28.5898 27.2129L27.7682 26.9338L27.2142 26.421L26.1659 25.6319L25.7182 25.5908L25.3967 25.8642L25.2649 26.2056L24.9008 26.3629L24.3724 26.7907L24.1755 26.4578L23.8652 26.1206L23.6556 25.408L23.4459 25.0666L23.3567 24.8102L23.4686 24.5609L23.4587 24.381L23.2107 24.2166L23.3354 23.9191L23.2561 23.3978L23.0847 23.2136L23.249 22.5478L23.2717 22.2984L23.0294 21.9769L23.1824 21.7714L23.4133 21.7488L23.5422 21.4966L23.9772 21.8437L24.2633 21.9386L24.7436 21.957L25.1629 21.5377L25.4037 21.4244L26.0497 21.3861L26.2566 20.4058H26.8657L27.6704 20.2032L28.2739 20.002L28.0062 19.5289L27.5372 18.9239L27.2681 18.7199L26.5172 18.5429L26.6221 18.1391L26.5187 17.6929L26.3699 17.2622L26.5881 17.0568L26.9337 17.4435L27.3361 17.7779L27.7384 17.3741L27.8064 16.7904L28.3235 16.7734L28.4085 16.9718L28.7442 17.3061L28.4751 18.2496L28.8108 18.5202L29.1466 19.0571L29.6155 18.7894V18.2496L29.6821 17.3741L29.2797 17.1729L29.2132 16.6332L29.5489 16.4306L29.6155 15.6231H30.219L30.6879 15.7577L30.7559 15.3554L31.0237 15.1514L30.8891 14.4784L30.4867 14.2093L30.1666 14.0704L29.4809 14.0053H28.8108L28.5431 13.5364L28.4085 13.1978L28.0062 12.9966L28.2739 12.6609L28.7442 11.9185L29.3477 11.3122L30.4867 10.5727L31.0237 10.8404L31.4926 10.975H32.0989L32.9362 10.1165L33.1515 9.72128L33.7224 9.27928L33.9817 9.14753L34.3486 8.80045L34.6347 8.67578L35.1164 9.08945L35.6519 9.62778L35.3842 9.83036V10.2355H36.39L36.5246 10.7073L36.5912 11.3788L36.9269 11.6508L36.7923 12.0531L36.8306 12.2854L37.0445 12.2189L37.0204 12.7048L37.1295 12.9088L37.4837 13.0859L37.8577 13.1071L38.0078 13.0533L38.3691 12.5334L38.6722 12.2529L39.1043 12.3379L39.2191 12.4328L38.9825 12.6325L38.9272 13.1128L38.8125 13.355L38.8097 13.6086L38.9627 13.9019L39.1355 14.0393L39.4273 14.086L39.6427 14.4005L39.9515 14.6173L40.2122 14.3127L40.7222 14.137L41.0409 14.0959L41.3412 14.222L41.4928 14.4289L41.7549 14.1838L41.9122 14.2036L42.2182 14.63L42.2139 15.4942L42.3697 16.5624L42.6403 16.9052L43.0653 17.1701L43.3047 17.2339L43.8388 17.1234L44.1859 17.2905L44.2043 17.8728L44.6747 18.098L45.1067 18.1802L45.4184 18.5244L45.5827 19.1223L45.5941 19.3943L45.4567 19.7754L45.4397 20.0969L45.2314 20.3604L44.6676 20.4837L44.2794 20.9285L43.7949 21.09L43.6688 21.4201L43.8062 21.6794L43.8487 22.0576L43.6745 22.2829L43.6731 22.4784L43.8303 22.8254L43.9564 23.2363L43.8388 23.5012L43.3756 23.9007L43.3104 24.1061L43.3515 24.3385L43.6277 24.2322L43.7878 24.2605L44.1222 24.143L44.057 25.0893L43.8813 25.5469L43.6802 25.8486L44.0726 26.3629L44.4041 26.4422L44.7752 26.2283L45.0302 26.1603L45.5232 26.3799L45.9142 26.6958L46.4908 26.7652L47.2445 27.4721L47.6851 27.6152L48.1894 27.5869L48.6796 27.7229L48.8637 27.8929L49.2137 27.815L49.3454 27.856L49.4276 28.1493L49.701 28.4836L49.6443 28.7372L49.4162 29.0446L49.0862 29.107L48.8907 29.447L48.4926 29.8465L48.4742 30.0845L48.5818 30.491L48.9997 30.6455L48.9332 31.5195L48.5974 32.3936L48.1951 33.2705L48.2631 34.887L47.9273 35.1575L48.0619 35.8985L47.9939 36.9085L47.9287 37.5021ZM18.6547 34.6787L18.8077 34.7014L19.1067 34.8926L19.3036 34.7453L19.5982 34.8572L19.4396 35.1193L19.2299 35.2199L18.931 35.2043L18.7284 35.0286L18.5924 35.0555L18.1858 34.877L18.2552 34.6093L18.6547 34.6787ZM20.1125 24.4249L19.5812 24.83L19.3829 24.9235L19.1123 24.7889L19.084 24.602L19.169 24.3399L18.8743 23.9474L18.4465 23.7675L18.2552 23.5465L18.2368 23.3057L18.3218 23.0691L18.3445 22.5478L18.5032 22.3778L18.999 22.1979L19.1973 22.3197L18.9763 22.7688L18.982 23.2703L19.4339 23.6273L19.8008 23.7194L20.1337 23.8837L20.1961 24.0764L20.1125 24.4249ZM23.3793 25.6588L23.3666 25.7806L23.0747 25.8642L22.9005 26.2212L22.6965 26.2368L22.2233 26.0214L22.1667 26.1645L21.9003 26.3487L21.5787 26.2935L21.2302 26.3345L20.75 26.2694L20.6749 26.1362L20.4043 26.0923L20.1337 25.8359L20.1663 25.68L19.9921 25.18L20.6012 25.102L20.7542 24.9108L20.7882 24.5892L20.6933 24.1755L20.3987 23.8908L20.3661 23.599L19.7215 23.4261L19.6492 22.5705L19.7385 21.9925L19.6365 21.1977L20.393 20.8081L20.5403 20.4058L21.0489 20.3704L21.1722 20.1975L21.3861 20.2499L21.5391 20.5149L21.8493 20.8492L22.3069 21.1935L22.7801 21.4201L22.9288 21.7559L22.8934 21.9769L23.1031 22.2984L23.1597 22.5761L22.9501 22.8849L22.9217 23.1484L23.113 23.5749L23.0011 24.2039L23.0747 24.3965L23.317 24.4971L23.113 24.7252L23.1881 25.0666L23.3 25.2154L23.3793 25.6588ZM17.0242 22.1625L16.6516 21.8409L16.636 21.7119L16.8839 21.5278L16.9788 21.2572L16.9278 21.0985L17.0072 20.8634L17.3443 20.5432L17.6673 20.607L17.8529 20.5347L18.1759 20.7486L18.5697 20.92L18.846 20.9356L19.05 20.8563L19.2427 21.0135L19.2299 21.2699L18.948 21.6354L18.5244 21.8919L17.9606 21.821L17.792 21.9358L17.4803 21.9485L17.1984 22.2701L17.0242 22.1625ZM22.6342 34.4095L22.7347 34.6022L22.6809 34.9365L22.4656 34.877L22.2899 35.132L22.3069 35.3389L21.9343 35.6151L21.2841 35.5953L21.2515 35.2241L21.3067 34.4733L21.6241 34.5101L21.7091 34.19L22.2559 34.2622L22.4528 34.2339L22.6342 34.4095ZM15.8101 35.5315L15.5395 35.8772L14.8907 36.1478L14.8326 35.7993L14.5847 35.8772L14.3212 35.8418L14.3027 35.1561L14.4104 35.0329L14.6257 34.4591L14.919 34.921L15.3185 35.261L15.8101 35.5315ZM16.5666 24.1968L16.7975 24.4249L16.6742 24.6105L16.4362 24.626L16.1501 24.3455L15.8271 24.3682L15.6358 24.1472L15.9121 24.1047L16.1373 24.1812L16.4079 23.8554L16.5666 24.1968Z" fill="#00212E"/>
<path d="M79.2357 76.4602L79.5432 76.4092L80.1481 76.0097L80.7091 75.9417L81.1681 76.1273L81.7588 76.3171L82.1371 76.4078L82.7632 76.497L82.9092 76.8101L82.9035 77.1076L82.6612 77.2748L82.7632 77.6417L82.776 77.9534L82.6457 78.1829L82.6329 78.4761L82.3906 78.5852L82.538 78.7878L82.4417 79.0853L82.2547 79.2652L82.385 79.6194L82.2263 79.7582L81.6455 79.8205L81.7305 79.4111L81.4812 79.217L81.5222 78.9195L81.3466 78.5781L81.0519 78.2183L80.906 78.2664L81.1029 78.5229L81.1086 78.8005L81.3126 78.877L81.3692 79.1349L81.1822 79.2595L81.3749 79.5995L81.2389 79.6959L81.2106 79.9452L81.0703 79.9934L80.8167 80.2979L80.668 80.2894L80.4838 80.1024L80.4711 80.5076L80.6864 80.7966L80.9343 80.9284L80.8677 81.053L80.6453 81.0686L80.5957 81.2329L80.7317 81.6424L80.6864 81.9115L80.4937 82.0234L80.4711 82.3974L80.6807 82.4598L80.8323 82.7785L80.7473 82.8805L80.4711 82.957L80.2401 82.8876L80.1495 83.1015L80.0206 83.0973L79.8222 83.5251L79.5913 83.5379L79.5347 83.7943L79.2867 83.7674L79.1082 83.6498L79.1422 83.3239L78.9269 82.9627L78.6379 82.6737H77.7851L77.7156 82.4343L77.4437 82.0999L76.7792 82.056L76.299 81.6494L75.5637 80.7895L74.8625 80.0628L74.3468 80.0189H73.7561L73.2758 79.7936L73.2021 79.2949V78.7509L73.9402 78.1163V77.7989L73.8311 77.5269L73.6257 77.2748L74.1145 76.905L74.3015 76.7124L74.6372 76.5749L74.9687 76.599L75.1104 76.412L74.82 75.8779L74.7718 75.647L74.8993 75.5394L75.7932 74.984L76.4619 74.7644L76.8118 74.8296L77.3686 74.6865L77.6037 74.7772L77.9905 75.0945L78.4226 75.1625L78.6322 75.29L78.6832 75.4671L78.5912 76.0819L78.6521 76.2477L79.2357 76.4602Z" fill="#00212E"/>
<path d="M43.3234 61.5781L43.3503 61.5979L43.0981 61.7991L42.6278 62.0683L42.1589 62.676L41.3542 62.2043L40.8853 61.3968V60.9916L40.7507 60.6559H40.415L40.483 61.3288L40.3484 62.0031V62.4054L40.1472 62.8786H39.8795L39.6783 62.2043L39.1414 62.0031L38.8056 61.5299L38.7391 60.789L38.2673 60.3867L38.2021 59.5098L38.6725 58.97L38.6045 57.0859L39.1357 56.9187L39.3426 56.9484L40.0807 56.6127L40.2818 56.0078L40.3526 55.298L40.2861 55.2895L40.2365 55.2215L41.0865 55.1309L41.1531 55.6026L41.3542 56.2755L41.5257 56.2925L41.7339 55.7995L41.8657 55.6607L42.1646 55.6989L42.0824 56.1764L42.6958 55.6026L43.2313 56.1409L43.2823 56.7062L43.4254 56.8677L43.8051 56.9569L43.7371 57.3069L43.9028 57.3522L44.1706 57.8239L43.9028 57.8934L43.5671 58.2305L43.3659 59.4418L43.0981 60.789L43.3234 61.5781Z" fill="#00212E"/>
<path d="M33.6855 87.522V87.8223L33.4985 88.2148L33.4801 88.7814L33.3115 89.1398L33.0112 89.5337L32.6188 89.8723L32.2816 90.0409L31.6087 89.9091L31.29 90.1358H30.4669L30.0362 90.361L29.7359 90.5664H28.9312L28.7258 90.2661L28.5175 89.7405L28.1265 89.2518L27.6024 89.1937L26.571 89.0251L26.4775 88.1411L26.6291 87.5971L26.7226 87.1069L27.0952 86.6564L27.6024 86.6748L27.7525 86.3731L27.8645 85.9779L28.0515 85.5273L28.5175 85.5472L28.6507 86.0175L28.9666 86.3178L29.4185 86.468L29.7359 86.451L30.1665 85.9977L30.5972 85.771L31.1214 85.5642L31.6455 85.584L32.038 85.771L32.4559 86.2768L32.5437 86.5417V86.8633L32.6755 87.2585L33.2365 87.3138L33.6855 87.522Z" fill="#00212E"/>
<path d="M20.8902 30.9883L20.9129 31.1668L21.0814 31.2235L21.2514 31.4997L21.488 31.6145L21.4427 31.8752L21.3067 32.0749L20.9695 32.167L20.8279 31.8907L20.7882 31.5507L20.5346 31.4842L20.6805 31.0436L20.8902 30.9883ZM18.785 27.1392L19.1633 27.3319L19.3659 27.3546L19.5061 27.7158L19.8107 27.8079L20.3094 27.6946L20.2527 28.0077L19.8107 27.9156L19.6138 28.0077L19.4013 27.9312L19.1505 28.0006L19.1463 27.6152L18.7666 27.2667L18.785 27.1392ZM23.0081 27.8235L23.2943 28.0643L23.6116 28.2357L23.9318 28.2924L24.0494 28.4922L24.2307 28.5772L24.3228 28.9767L24.1287 29.0602L23.9771 29.2472L23.6329 29.2968L23.4076 29.1396L23.1923 29.4087L22.7347 29.6156L22.3635 30.1001L21.4994 30.7319L21.1664 30.688L20.9851 30.7532L20.9568 30.4273L20.5799 30.1072L20.2456 30.2687L19.9977 29.9159L19.7384 29.6807L19.7894 29.3804L20.145 29.3733L20.9922 28.7684L21.7317 28.699L22.1893 28.7117L22.4769 28.5077L22.6242 27.9227L23.0081 27.8235ZM24.3724 26.7907L24.9008 26.3629L25.2649 26.2057L25.3966 25.8642L25.7182 25.5908L26.1659 25.6319L27.2142 26.421L27.7681 26.9338L28.5898 27.2129L28.5614 27.4849L28.6847 27.5543L27.9225 28.5361L27.8999 28.7656L27.9509 29.4059L28.2115 29.7034L28.662 30.0307L28.6691 30.2871L28.5161 30.4585L28.5671 30.8467L28.4934 30.9827L28.2455 31.1187L28.1832 31.351L27.7539 31.2235L27.5953 31.1158L27.1674 31.7122L26.3982 31.6074L25.7607 32.4588L25.6091 32.6062L24.6203 32.6373L24.6274 32.4092H25.0949L24.9985 32.5863H25.6091L25.7281 32.4787L26.3826 31.6145L26.0936 31.5196L25.6757 31.1314L25.4278 30.7121L25.3442 30.212L25.2025 30.5038L24.8866 30.484L24.9645 30.3041L24.8583 30.1482L24.5424 30.1766L24.5707 29.7927L24.5254 29.6014L24.7506 29.0886L24.9419 28.7996L24.9093 28.0303H24.786L24.8016 27.2823L24.48 27.1038L24.3724 26.7907Z" fill="#00212E"/>
<path d="M63.9883 75.7355L63.9458 75.7653L63.8211 75.9523L63.7049 76.6578L63.4145 76.8547L62.8082 76.6379L62.5674 76.7428L61.8179 77.2825L61.2994 77.2953L61.1408 76.5558L60.7384 76.016L60.2695 75.4777L60.3361 74.8699L60.7384 75.0045L61.0742 75.2751H61.5431L61.6777 74.7382L61.3419 74.3996L61.0076 73.9944L61.5431 72.7152L62.6835 72.5126L62.6169 72.1088L62.0134 71.6385L61.0076 71.5705L61.0742 70.8962L61.3419 70.2898L61.8123 69.6155L62.2812 69.4823L62.6835 69.2118L62.8181 70.4258H63.3536L63.5548 69.7501L63.8239 69.1438L64.0931 68.672L64.5634 68.5388L65.3681 68.4043L65.9716 67.7285L66.7083 67.5273L67.3798 67.5953L67.7821 67.8645L68.1844 68.2683V69.2118L68.3176 69.8861L68.7199 70.7616L68.5188 71.2319L67.7821 71.5025L67.4464 72.2448V72.9178L66.9094 72.9858V73.3881L67.1786 73.7267V74.6022L66.4405 74.8699L66.1048 75.2751L65.5013 75.2071L65.3681 74.6022H64.6966L64.2277 74.8699L63.8905 75.4097L63.9883 75.7355Z" fill="#00212E"/>
<path d="M79.1078 83.6501L78.9137 83.7181L78.7055 84.1062L78.7721 84.3825L78.6035 84.9704L78.4165 84.9577L78.3938 85.156L78.6035 85.3302L78.6134 85.5796L78.3556 86.0825L77.9716 86.4282L78.1402 86.7257L78.0269 86.8277L78.0226 87.0997L77.847 87.0572L77.7336 87.2158L77.5183 87.2427L77.3936 87.7202L77.1528 87.8717L76.8921 87.7485L76.6669 87.7598L76.5592 87.9412L76.3566 87.8802L75.9274 87.8646L75.8381 87.927L75.8481 88.2302L76.0691 88.8662L75.9557 89.2927L75.7588 89.1623L75.5435 89.2728L75.2786 89.1496L75.0009 89.1623L74.8153 89.0377L74.9046 88.6651L74.753 88.5702L74.6283 88.7416L74.3691 88.8507L74.3521 89.0603L74.0036 89.4329L73.9582 89.8168L73.784 89.8395L73.8732 90.1002L73.6763 90.1072L73.5233 89.6936L73.308 89.6652L73.393 90.1965L73.5049 90.4997L73.3023 90.5889L73.2697 90.2744L73.0601 90.1965L72.7838 90.6314L72.6152 90.4458L72.4381 89.7276L72.5302 89.4102L72.5586 89.0717L72.4339 89.0603L72.3588 89.4329L72.1109 89.5958L71.9494 89.4102L71.7171 89.5066L71.6717 89.7545H71.3161L71.4224 89.1496V88.9357L71.5357 88.777L71.3105 88.6948L71.2085 89.0178L71.1872 89.4938L71.1008 89.7545L70.7806 89.6454H70.1488L70.1077 89.5292L69.7748 89.4442L69.4419 89.4797L69.2946 89.7148L69.0254 89.6539L69.2563 89.2728L69.1543 89.0717L69.2223 88.7798L69.2648 88.6778L69.789 88.4611L70.7112 88.2132L70.7424 87.4396L70.8033 87.1308L71.2963 87.0699L72.1279 86.5443L73.019 86.5146L73.3264 86.1746L73.5106 85.7411L73.8931 85.4478L74.1792 85.2976L74.413 85.0936L74.7431 84.9095L75.1369 84.9803L75.3579 84.6885L75.5435 84.1034L75.9104 83.5452L76.4657 83.4532L76.9573 83.4206L77.082 83.0197L77.4815 82.5862L77.7152 82.4346L77.7846 82.674H78.6375L78.9265 82.963L79.1418 83.3242L79.1078 83.6501ZM74.6566 89.1765L75.0576 89.5222L74.9966 89.8749L75.2219 90.1228L75.4131 90.2248L75.3055 90.46H75.1142L75.0476 90.239L74.8762 90.2588L74.753 89.984L74.4696 89.8947L74.2288 89.6936L74.0829 89.4867L74.2628 89.2728L74.6566 89.1765Z" fill="#00212E"/>
<path d="M28.6857 27.5539L28.5625 27.4845L28.5908 27.2125L28.8387 27L29.0598 26.4645L29.3303 26.5368L29.6293 26.9079L30.0188 27.1289L30.3971 27.085L31.0629 26.728L31.0983 26.0594L31.1479 25.9304L31.4185 25.7944L31.9838 25.81L32.5023 25.7024L32.6213 25.5749L32.5929 25.1966L32.6382 24.9246L32.8762 24.6965L32.8692 24.4401L33.2573 24.2149L33.3083 24.0987L33.5803 23.9854L33.8282 24.0987L34.2348 24.1199L34.3708 24.042L34.7774 24.0859L35.0197 24.4557L34.997 25.2972L35.235 25.6825L35.2067 25.946L35.4418 26.3158L35.4036 26.5878L35.133 27.2125L35.2166 27.5979L35.4702 27.561L35.7252 27.3981L36.255 27.2692L36.5043 27.0921L36.6163 27.221L36.8132 27.8614L36.7183 27.9747L36.2224 28.1943L36.0864 28.4507L36.0411 28.8629L36.2961 28.9706V29.0981L35.8824 29.567L35.7535 29.7824L35.3908 30.1224L35.133 30.094L34.7491 30.179L34.3595 30.3703L33.9643 30.6267L33.8169 30.366V29.9949L33.5591 30.0742L33.1582 30.0586L32.5079 30.4071L32.3903 30.5148H32.0121L31.7458 30.5785L31.4865 30.4709L31.0983 30.6267L30.9836 30.5984L30.5147 29.5033L30.3177 29.3701L30.0571 29.5614L29.7936 29.6619L29.625 29.4055L29.6023 28.8785L29.4819 28.7652L29.5386 28.5017L29.4252 28.2538L28.6857 27.5539Z" fill="#00212E"/>
<path d="M38.953 50.1635L39.276 50.6196L39.208 51.2245L38.7391 51.3591L39.3426 52.1V52.7078L39.4375 52.9982L40.1572 53.0407L40.1373 53.3552L39.9588 53.749L40.1926 53.997L39.7902 55.313L40.0013 55.0736L40.1529 55.1034L40.1147 55.3796L40.2861 55.2904L40.3527 55.2989L40.2818 56.0086L40.0807 56.6135L39.3426 56.9493L39.1357 56.9195L38.6045 57.0867L38.6725 58.9709L38.2022 59.5106L38.2149 59.6735L37.8976 59.0644L37.4527 59.0162L37.2799 58.3674L37.2417 57.7426L37.3182 57.1675L37.1057 56.758L37.1822 56.18L36.9895 55.7735L36.6424 55.5553L36.0616 55.4349L35.9072 55.0283L35.9454 54.6897L36.3123 54.0168V53.5365L36.1976 52.9571L36.0432 51.8975L36.2542 51.3435L36.2741 50.6451L36.1381 50.308L35.9256 50.0671L35.8477 49.6818L36.0219 49.3673L36.5248 49.3418L36.8917 49.39L37.8792 49.9708L38.1682 50.1635H38.953Z" fill="#00212E"/>
</svg>
