<svg width="25" height="54" viewBox="0 0 25 54" fill="none" xmlns="http://www.w3.org/2000/svg">
<path d="M3.62173 53.7155L6.03453 53.6895L6.70084 51.5823L6.67808 50.2178L4.81837 50.3916L3.76155 50.2278L2.93945 50.7774L4.01903 52.7305L3.62173 53.7155Z" fill="#00212E" stroke="#00212E" stroke-width="0.5"/>
<path d="M1.73515 46.3398L1.64381 46.3696L1.74048 46.4208L1.73515 46.3398ZM1.51374 46.1869L1.46792 46.0909L1.43422 46.2047L1.51374 46.1869ZM1.47827 45.5679L1.33903 45.6297L1.39254 45.6998L1.47827 45.5679ZM1.66421 44.9847L1.2332 45.0876L1.40643 45.3997L1.66421 44.9847ZM1.75467 44.3476L1.06973 44.739L1.16107 44.9386L1.78216 44.7571L1.75467 44.3476ZM0.370012 42.0463L0.327148 42.2047L0.460766 42.2044L0.370012 42.0463ZM2.61727 41.0311L1.79369 40.8901L1.43659 42.1282L0.535852 41.9186L0.73746 44.0074L1.92198 44.0532L1.78955 44.1576L1.9341 44.4481L1.70086 45.5126L1.5164 45.7234L1.97549 46.5828L4.12962 47.9964L5.89296 45.583L6.98614 42.7504L6.26986 41.7007L5.63873 41.5872L5.12673 43.1306L2.82745 43.9453L3.52243 41.5434L2.61727 41.0311Z" fill="#00212E" stroke="#00212E" stroke-width="0.5"/>
<path d="M7.22639 51.7532L7.2397 51.7124L7.20245 51.6979L7.22639 51.7532ZM8.90636 51.6545L8.9108 51.7154L8.94864 51.6515L8.90636 51.6545ZM8.70801 51.3701L8.74644 51.517L8.80024 51.3757L8.70801 51.3701ZM7.46347 51.3529L7.41706 51.3609L7.45283 51.3999L7.46347 51.3529ZM8.35209 51.4325L8.37042 51.3521L8.2838 51.3955L8.35209 51.4325ZM8.50374 51.4147L8.45467 51.3405L8.41919 51.4008L8.50374 51.4147ZM8.62287 51.4233L8.62464 51.3225L8.56197 51.4011L8.62287 51.4233ZM8.85759 51.3269L8.77836 51.3299L8.85286 51.4109L8.85759 51.3269ZM8.22734 51.2563L8.2031 51.2338V51.2779L8.22734 51.2563ZM8.56848 50.1392L8.149 50.2024L6.67773 50.2175L6.7005 51.582L7.08391 51.6568L6.93108 51.3796L7.00734 51.2173L8.15373 51.3027L8.22231 51.1785L8.3583 51.2681L8.54897 51.0848L8.97849 51.2439L8.9108 51.4138L9.02372 51.4783L9.40743 50.6751L8.56848 50.1392Z" fill="#00212E" stroke="#00212E" stroke-width="0.5"/>
<path d="M13.9234 37.4635L13.8731 37.4999L13.9869 37.5146L13.9234 37.4635ZM13.8601 37.538L13.8533 37.4771L13.717 37.423L13.8601 37.538ZM14.0088 37.2471L13.9642 37.2081L13.9417 37.2501L14.0088 37.2471ZM13.6541 36.5891L13.5876 36.8998L13.8823 37.1253L13.6541 36.5891ZM13.6023 36.3821L13.5825 36.313L13.5137 36.3499L13.6023 36.3821ZM12.2786 36.4129L11.7527 35.9766L11.4834 37.1176L11.4269 38.5972L10.6982 38.9501L11.0184 39.8937L11.8739 40.4108L13.8601 37.7955L12.2786 36.4129Z" fill="#00212E" stroke="#00212E" stroke-width="0.5"/>
<path d="M12.6318 42.5774L12.6105 42.5408L12.6274 42.6697L12.6318 42.5774ZM12.3693 42.2942L12.3235 42.2393L12.3622 42.3386L12.3693 42.2942ZM13.0652 42.2437L13.1152 42.1272L13.0333 42.2381L13.0652 42.2437ZM12.6026 42.2644L12.6014 42.1053L12.5006 42.4583L12.6026 42.2644ZM13.1465 42.0826L13.2503 41.9632L13.1775 41.9711L13.1465 42.0826ZM13.5015 41.8703L13.2148 42.0648L13.4344 42.0105L13.5015 41.8703ZM12.9212 41.9602L12.9224 41.8425L12.8541 41.9927L12.9212 41.9602ZM13.2559 41.672L13.0534 41.6782L12.9588 41.8928L13.2559 41.672ZM13.1899 41.5803L13.1545 41.5573L13.1243 41.6001L13.1899 41.5803ZM13.8444 41.5457L13.7942 41.5632L13.7815 41.6516L13.8444 41.5457ZM12.309 42.0181L12.2653 41.5067L12.1988 41.907L12.309 42.0181ZM13.95 41.4819L13.9849 41.3914L13.9373 41.4272L13.95 41.4819ZM14.1927 41.4393L14.2305 41.3634L14.1705 41.4139L14.1927 41.4393ZM13.6842 41.5582L13.7259 41.3509L13.4791 41.6409L13.6842 41.5582ZM13.913 41.3285L13.9352 41.3031L13.8888 41.3229L13.913 41.3285ZM14.0499 41.1014L14.0191 41.1088L13.9958 41.16L14.0499 41.1014ZM14.1888 41.068L14.1046 41.0293L14.0487 41.1408L14.1888 41.068ZM13.6331 41.0169L13.6289 40.9912L13.5938 40.9838L13.6331 41.0169ZM13.9695 40.9412L13.9201 40.9696L13.9659 40.9761L13.9695 40.9412ZM14.2615 40.8499L14.3192 40.7479L14.1613 40.8419L14.2615 40.8499ZM14.5297 40.8014L14.5116 40.7384L14.4785 40.7538L14.5297 40.8014ZM13.8048 40.75L13.4853 40.7127L13.9639 40.8564L13.8048 40.75ZM14.4652 40.679L14.4803 40.6728L14.4102 40.6793L14.4652 40.679ZM14.5037 40.5155L14.4392 40.5247L14.4141 40.6347L14.5037 40.5155ZM14.1176 40.452L14.0806 40.7118L14.2051 40.5983L14.1176 40.452ZM14.417 40.3952L14.4162 40.3597L14.383 40.3736L14.417 40.3952ZM14.5651 40.4339L14.5173 40.3385L14.4776 40.3568L14.5651 40.4339ZM13.5926 40.321L13.5166 40.2923L13.639 40.3855L13.5926 40.321ZM14.6982 40.298L14.6928 40.2894L14.6872 40.2997L14.6982 40.298ZM14.5808 40.2799L14.5643 40.379L14.6204 40.3042L14.5808 40.2799ZM13.4723 40.2814L13.5071 40.266L13.4125 40.2359L13.4723 40.2814ZM15.0529 40.2442L15.0514 40.201L15.0275 40.206L15.0529 40.2442ZM14.4948 40.2962L14.4998 40.193L14.4082 40.2728L14.4948 40.2962ZM15.575 40.2158L15.5693 40.1904L15.551 40.198L15.575 40.2158ZM14.1844 40.1534L14.018 40.2173L14.1418 40.2122L14.1844 40.1534ZM14.3473 40.0887L14.3269 40.0674L14.135 40.1117L14.3473 40.0887ZM14.9731 39.9929L14.9497 40.0092L14.9471 40.0352L14.9731 39.9929ZM14.093 39.8832L13.7818 40.0665L13.8639 40.2808L14.093 39.8832ZM14.7499 39.7248L14.6964 39.7505L14.7942 39.7396L14.7499 39.7248ZM14.9193 39.7091L14.9831 39.6772L14.9695 39.6523L14.9193 39.7091ZM15.115 39.6113L15.0978 39.6222L15.0893 39.6515L15.115 39.6113ZM14.6133 39.5722L14.5725 39.4664L14.4046 39.6689L14.6133 39.5722ZM14.7475 39.4892L14.7203 39.459L14.694 39.5022L14.7475 39.4892ZM14.2704 39.7446L14.5223 39.4525L14.2222 39.7401L14.2704 39.7446ZM14.9344 39.4711L14.9172 39.4377L14.8788 39.4469L14.9344 39.4711ZM14.4708 39.4093L14.378 39.4232L14.4561 39.4513L14.4708 39.4093ZM14.9953 39.4457L15.0077 39.4111L14.9769 39.4064L14.9953 39.4457ZM14.9509 39.3898L14.9485 39.3839L14.9465 39.3878L14.9509 39.3898ZM15.379 39.2867L15.3887 39.2669L15.3648 39.2911L15.379 39.2867ZM14.9246 39.1427L14.8507 39.1058L14.8667 39.1421L14.9246 39.1427ZM14.9885 39.0738L15.0139 39.0035L14.94 39.0381L14.9885 39.0738ZM14.8268 39.033L14.8445 38.9804L14.7972 38.9946L14.8268 39.033ZM14.6444 38.8965L14.5846 38.7179L14.4534 38.9662L14.6444 38.8965ZM14.8871 38.7847L14.8998 38.715L14.8226 38.8285L14.8871 38.7847ZM14.1924 37.8775L13.8604 37.7956L11.8742 40.4109L11.5957 41.1074L12.1278 41.8792L12.2579 41.1688L12.6765 42.239L12.8929 41.601L13.6272 41.2558L13.3895 40.6305L14.0115 40.6571L12.8843 40.3293L14.791 39.1235L14.1814 39.0555L14.522 38.7584L14.4537 38.4817L14.7197 38.8199L14.786 38.6014L14.1924 37.8775ZM13.3144 40.4762L13.2086 40.5755L13.0566 40.4378L13.3144 40.4762ZM14.271 37.5996L14.1427 37.4692L14.1646 37.6732L14.271 37.5996Z" fill="#00212E" stroke="#00212E" stroke-width="0.5"/>
<path d="M14.2718 45.7224L13.0977 46.6982L13.1163 48.7687L14.5258 47.2158L14.2364 46.4354L14.8101 45.7691L14.2718 45.7224ZM15.0555 45.2151L14.7235 45.5016L15.2633 45.305L15.0555 45.2151ZM15.1788 43.9934L15.2512 43.9342L14.9937 43.8408L15.1788 43.9934Z" fill="#00212E" stroke="#00212E" stroke-width="0.5"/>
<path d="M15.3961 25.2106L15.3913 25.1586L15.3845 25.2239L15.3961 25.2106ZM15.582 25.1763L15.6128 25.1976L15.5329 25.0965L15.582 25.1763ZM16.2634 25.022L16.2492 25.0844L16.2705 25.0793L16.2634 25.022ZM16.2321 24.8225L16.2244 24.7169L16.225 24.857L16.2321 24.8225ZM17.844 24.565L17.8408 24.5008L17.7876 24.5895L17.844 24.565ZM16.909 24.3341L16.9386 24.3858L16.9483 24.3631L16.909 24.3341ZM17.9552 24.403L18.0016 24.2759L17.9277 24.3669L17.9552 24.403ZM17.4837 24.042L17.4515 24.0231L17.4834 24.089L17.4837 24.042ZM18.0731 24.1969L18.1441 23.8762L17.9895 24.2046L18.0731 24.1969ZM18.0938 23.8794L17.9945 23.786L17.9484 23.9046L18.0938 23.8794ZM17.7019 23.7618L17.716 23.729L17.6903 23.7795L17.7019 23.7618ZM18.2558 23.7636L18.2635 23.716L18.2354 23.7686L18.2558 23.7636ZM19.1504 20.5053L19.1317 20.4781L19.1353 20.51L19.1504 20.5053ZM18.7693 19.3329L18.7522 19.2374L18.6933 19.2132L18.7693 19.3329ZM15.1064 17.8936L8.3516 12.9146L6.67755 13.9338L6.30566 18.3145L10.6222 22.8885L10.9027 23.1236L13.6316 23.0296L15.222 25.1521L17.654 23.8168L19.31 21.1391L18.3031 19.5088L19.2772 18.5158L15.1064 17.8936ZM18.5154 20.1175L18.4604 20.0096L18.6091 20.1642L18.5154 20.1175ZM18.4548 22.1625L18.4669 22.193L18.4344 22.1643L18.4548 22.1625ZM17.4645 23.8747L17.4899 23.7964L17.4911 23.8508L17.4645 23.8747Z" fill="#00212E" stroke="#00212E" stroke-width="0.5"/>
<path d="M12.3503 30.126L12.418 30.0077L12.3128 29.9995L12.3503 30.126ZM12.6799 28.8767L12.6681 28.885L12.6725 28.8921L12.6799 28.8767ZM13.0459 28.3298L12.9977 28.2562L12.8839 28.2973L13.0459 28.3298ZM13.0343 27.9585L12.8794 28.125L13.1567 27.9937L13.0343 27.9585ZM13.2401 27.929L13.2957 27.8211L13.2253 27.887L13.2401 27.929ZM12.8797 27.9139L12.9049 27.8444L12.8017 27.8075L12.8797 27.9139ZM12.6645 27.3972L12.6879 27.3419L12.6468 27.3587L12.6645 27.3972ZM14.0309 27.0327L14.0492 26.9053L13.9777 27.0507L14.0309 27.0327ZM13.7858 26.9041L13.8839 26.7702L13.7778 26.7566L13.7858 26.9041ZM13.9779 26.7545L13.9768 26.6552L13.9564 26.68L13.9779 26.7545ZM14.1834 26.6975L14.1781 26.6236L14.168 26.6856L14.1834 26.6975ZM14.2449 26.4698L14.2316 26.4533L14.231 26.4864L14.2449 26.4698ZM14.3247 26.4293L14.2552 26.4125L14.2842 26.4494L14.3247 26.4293ZM14.0935 26.4441L14.0722 26.3717L14.0459 26.3903L14.0935 26.4441ZM14.3785 26.3891L14.416 26.343L14.3551 26.3717L14.3785 26.3891ZM14.4743 26.239L14.4831 26.1988L14.4415 26.2233L14.4743 26.239ZM14.986 25.9091L14.9653 25.8635L14.944 25.8718L14.986 25.9091ZM10.9033 23.1232L10.6227 22.8882L9.13284 24.4209L11.0162 27.0519L7.18652 28.5956L8.14195 29.7662L11.971 30.2821L11.6902 28.9317L12.9835 28.5527L12.3201 26.9954L12.5658 26.9709L12.528 27.0516L12.6512 27.3203L12.7278 27.302L12.7526 27.6892L13.0069 27.5373L13.1301 27.6688L12.8845 27.7779L13.2176 27.8441L13.9005 27.1341L13.301 26.9709L14.0397 26.5213L13.8786 26.2667L14.2206 26.348L14.1219 26.077L14.3427 26.1015L14.252 26.3031L14.503 26.1314L14.2127 25.9431L14.7522 26.2632L15.2225 25.1517L13.6321 23.0292L10.9033 23.1232ZM13.4148 27.6029L13.411 27.6289L13.4083 27.5805L13.4148 27.6029Z" fill="#00212E" stroke="#00212E" stroke-width="0.5"/>
<path d="M19.323 18.3885L19.2887 18.3581L19.2508 18.4417L19.323 18.3885ZM19.5391 18.2685L19.5045 18.189L19.5089 18.2697L19.5391 18.2685ZM19.4767 18.2511L19.4312 18.1582L19.409 18.1742L19.4767 18.2511ZM19.9369 18.0107L19.8796 18.0119L19.9367 18.0373L19.9369 18.0107ZM19.837 17.9818L19.7983 17.9729L19.8639 18.0373L19.837 17.9818ZM19.7578 17.9803L19.6854 17.81L19.6023 17.815L19.7578 17.9803ZM19.9316 17.6427L19.9216 17.6155L19.9059 17.612L19.9316 17.6427ZM19.7767 17.7095L19.5798 17.591L19.6274 17.7104L19.7767 17.7095ZM20.6934 17.4772L20.6967 17.4446L20.6579 17.4485L20.6934 17.4772ZM19.6875 17.4384L19.5825 17.3908L19.6056 17.4396L19.6875 17.4384ZM19.8373 17.2995L19.8107 17.3367L19.8681 17.3571L19.8373 17.2995ZM20.8646 17.2915L20.8823 17.2818L20.8179 17.3007L20.8646 17.2915ZM20.882 17.1901L20.8536 17.1372L20.833 17.1617L20.882 17.1901ZM19.5831 17.1422L19.4161 17.1538L19.7123 17.3184L19.5831 17.1422ZM19.7368 17.1922L19.6529 17.1345L19.6765 17.1768L19.7368 17.1922ZM20.7995 17.267L20.8081 17.2288L20.697 17.1174L20.7995 17.267ZM20.0715 17.2152L20.0132 17.1109L19.9748 17.1493L20.0715 17.2152ZM20.9601 17.1094L20.9589 17.0556L20.9051 17.0435L20.9601 17.1094ZM20.1303 17.1056L20.1486 17.0654L20.0883 17.0733L20.1303 17.1056ZM20.2592 16.9702L20.2323 16.9291L20.2125 16.9882L20.2592 16.9702ZM20.7732 16.8815L20.574 16.8578L20.5359 16.9604L20.7732 16.8815ZM21.146 16.8762L21.1292 16.8247L21.0934 16.8762H21.146ZM21.164 16.7783L21.1927 16.8227V16.7795L21.164 16.7783ZM20.4427 16.9935L20.2893 16.8008L20.3006 16.9657L20.4427 16.9935ZM21.3473 16.7621L21.3491 16.6958L21.2926 16.7789L21.3473 16.7621ZM20.1557 16.6888L20.1306 16.6988L20.1761 16.7423L20.1557 16.6888ZM20.0783 16.6415L20.0038 16.6468L20.0431 16.6947L20.0783 16.6415ZM21.0422 16.7751L20.9994 16.6273L20.9237 16.697L21.0422 16.7751ZM21.303 16.6902L21.2645 16.6311L21.222 16.6299L21.303 16.6902ZM20.1867 16.7136L20.2334 16.6299L20.1681 16.6078L20.1867 16.7136ZM21.3201 16.5891L21.3059 16.5333L21.2764 16.5513L21.3201 16.5891ZM22.8076 16.5324L22.7731 16.5557L22.8124 16.5779L22.8076 16.5324ZM21.1247 16.6143L21.1182 16.5619L21.015 16.5356L21.1247 16.6143ZM20.7061 16.5859L20.6139 16.496L20.6766 16.6146L20.7061 16.5859ZM20.7848 16.5161L20.7697 16.4774L20.7614 16.5046L20.7848 16.5161ZM20.5684 16.5664L20.36 16.5022L20.6665 16.687L20.5684 16.5664ZM21.4641 16.4765L21.358 16.4428L21.4617 16.5797L21.4641 16.4765ZM21.2583 16.4534L21.2022 16.4126L21.1723 16.4836L21.2583 16.4534ZM21.4709 16.4458L21.4561 16.3813L21.4026 16.3961L21.4709 16.4458ZM21.1735 16.2805L20.9725 16.3361L21.0946 16.4328L21.1735 16.2805ZM23.1766 16.3343L23.1615 16.2131L23.103 16.3349L23.1766 16.3343ZM23.2868 16.2122L23.2706 16.1889L23.2659 16.2116L23.2868 16.2122ZM20.7112 16.2022L20.6837 16.2335L20.7091 16.2577L20.7112 16.2022ZM21.1073 16.232L21.0904 16.177L21.0177 16.2102L21.1073 16.232ZM23.9605 16.2078L23.9629 16.1741L23.9508 16.1782L23.9605 16.2078ZM23.664 16.2131L23.6717 16.1605L23.6428 16.2187L23.664 16.2131ZM20.8439 16.2199L20.7939 16.1345L20.7664 16.1466L20.8439 16.2199ZM21.486 16.1091L21.4741 16.089L21.4694 16.1135L21.486 16.1091ZM20.8986 16.0762L20.8714 16.0603L20.9054 16.13L20.8986 16.0762ZM21.1868 16.0786L21.1818 16.0399L21.1241 16.0434L21.1868 16.0786ZM21.7972 16.0612L21.7606 15.9955L21.7461 16.0103L21.7972 16.0612ZM23.2564 16.0647L23.2132 15.9929L23.1813 16.0455L23.2564 16.0647ZM23.6759 16.0139L23.6646 15.9837L23.6572 16.0053L23.6759 16.0139ZM22.8301 15.9917L22.8195 15.9796L22.8103 15.989L22.8301 15.9917ZM20.7771 15.989L20.741 15.9577L20.7392 15.9843L20.7771 15.989ZM23.5839 15.9796L23.5641 15.9577L23.5561 15.9811L23.5839 15.9796ZM23.3099 16.0094L23.2827 15.9361L23.2865 15.9941L23.3099 16.0094ZM21.4345 15.9335L21.3952 15.9533L21.4537 16.0012L21.4345 15.9335ZM23.8417 15.9429L23.8009 15.9018L23.8322 15.9577L23.8417 15.9429ZM21.8448 15.9015L21.799 15.911L21.8561 15.9524L21.8448 15.9015ZM23.8822 15.9388L23.8775 15.9042L23.8577 15.8998L23.8822 15.9388ZM20.8442 15.8944L20.8306 15.903L20.8717 15.9417L20.8442 15.8944ZM21.9737 15.9178L21.8954 15.9063L21.9578 15.9678L21.9737 15.9178ZM21.3178 15.9199L21.2787 15.8782L21.2592 15.9113L21.3178 15.9199ZM21.606 15.8749L21.5918 15.8903L21.6385 15.9258L21.606 15.8749ZM21.1632 15.9822L21.1392 15.8522L21.0963 15.979L21.1632 15.9822ZM23.539 15.8108L23.5635 15.8735L23.6079 15.8392L23.539 15.8108ZM23.8018 15.775L23.7613 15.7732L23.8145 15.8063L23.8018 15.775ZM23.8869 15.7327L23.8305 15.7534L23.9212 15.8143L23.8869 15.7327ZM20.7907 15.7966L20.7922 15.7242L20.7301 15.765L20.7907 15.7966ZM21.0189 15.7129L20.992 15.6869L21.0053 15.7248L21.0189 15.7129ZM22.1576 15.6999L22.1532 15.6763L22.1396 15.7058L22.1576 15.6999ZM21.0564 15.6748L21.0443 15.655L21.0281 15.6591L21.0564 15.6748ZM22.1363 15.6813L22.1112 15.6526L22.1269 15.6952L22.1363 15.6813ZM22.8195 15.6937L22.7686 15.6547L22.8301 15.7301L22.8195 15.6937ZM21.7884 15.7981L21.6116 15.6367L21.7387 15.9258L21.7884 15.7981ZM22.7382 15.7375L22.6882 15.6228L22.6891 15.7109L22.7382 15.7375ZM22.2995 15.6044L22.1934 15.6334L22.3607 15.7159L22.2995 15.6044ZM23.7243 15.6219L23.7223 15.574L23.6951 15.6077L23.7243 15.6219ZM23.2514 15.6089L23.0344 15.705L23.1361 15.8134L23.2514 15.6089ZM22.5803 15.6109L22.57 15.5365L22.5457 15.5858L22.5803 15.6109ZM22.2457 15.5586L22.149 15.5746L22.1934 15.6115L22.2457 15.5586ZM22.4845 15.5512L22.4881 15.5261L22.4775 15.535L22.4845 15.5512ZM23.416 15.5669L23.4066 15.524L23.4001 15.5536L23.416 15.5669ZM22.3039 15.579L22.3048 15.5276L22.2448 15.5376L22.3039 15.579ZM20.8906 15.5146L20.8856 15.4936L20.8746 15.4933L20.8906 15.5146ZM21.4774 15.7381L21.3417 15.5104L21.3364 15.718L21.4774 15.7381ZM21.1596 15.4268L21.1082 15.4841L21.1688 15.4676L21.1596 15.4268ZM23.5511 15.4427L23.5352 15.4161L23.5201 15.4442L23.5511 15.4427ZM22.6761 15.4194L22.6776 15.3916L22.6471 15.3783L22.6761 15.4194ZM22.2469 15.4188L22.1966 15.3771L22.2093 15.4223L22.2469 15.4188ZM23.8914 15.42L23.8887 15.3659L23.8671 15.3638L23.8914 15.42ZM20.7688 15.4019L20.7186 15.3845L20.7859 15.4235L20.7688 15.4019ZM23.8151 15.409L23.839 15.3573L23.7838 15.4117L23.8151 15.409ZM21.3872 15.3951L21.3565 15.331L21.3198 15.3209L21.3872 15.3951ZM20.8938 15.3774L20.8551 15.3065L20.8596 15.3641L20.8938 15.3774ZM21.4103 15.334L21.3813 15.2958L21.4189 15.3827L21.4103 15.334ZM17.562 0.25708L16.6296 0.328027L17.0846 1.41027L16.3952 3.63121L13.1754 2.73196L12.7266 5.4516L11.6536 4.8178L9.61235 7.7021L10.0327 9.75721L8.35156 12.9147L15.1063 17.8937L19.2771 18.5159L18.7093 17.3684L19.3507 17.7787L19.0395 17.2803L20.0821 16.8079L19.7634 16.5129L20.3889 16.454L19.6035 15.6786L20.7508 16.4845L20.4002 15.5329L21.1942 14.8894L23.8964 15.2645L23.001 13.0858L23.6117 10.8873L22.8552 9.29546L23.1843 8.05832L22.5868 7.75295L22.9998 5.55861L21.0369 3.21824L17.562 0.25708Z" fill="#00212E" stroke="#00212E" stroke-width="0.5"/>
<path d="M10.6227 22.8885L6.30612 18.3145L5.07134 20.5505L5.91739 21.1441L5.67912 22.8799L3.88978 22.7194L2.43654 24.5886L2.11816 25.826L2.69579 29.8058L6.57247 32.393L8.14188 29.7665L7.18646 28.5959L11.0161 27.0522L9.13277 24.4212L10.6227 22.8885Z" fill="#00212E" stroke="#00212E" stroke-width="0.5"/>
<path d="M6.51785 38.1005L3.40386 34.3867L2.58501 34.591L3.21496 36.7218L2.93117 38.0485L1.86282 38.6873L1.79395 40.8902L2.61752 41.0312L3.52269 41.5435L4.31789 42.0635L4.19019 40.8202L5.04155 40.4864L5.63899 41.5873L6.27012 41.7008L6.51785 38.1005Z" fill="#00212E" stroke="#00212E" stroke-width="0.5"/>
<path d="M4.12972 47.9961L1.97559 46.5825L3.76168 50.2277L4.8185 50.3915L4.49599 49.0633L5.1623 48.5673L4.12972 47.9961Z" fill="#00212E" stroke="#00212E" stroke-width="0.5"/>
<path d="M11.0183 39.8943L10.6982 38.9507L11.4269 38.5977L11.4833 37.1182L10.5728 37.456L8.31348 38.6486L8.89288 41.0389L11.0183 39.8943Z" fill="#00212E" stroke="#00212E" stroke-width="0.5"/>
<path d="M11.9473 42.7647L11.9086 42.7157L11.9068 42.7896L11.9473 42.7647ZM11.9669 42.6048L11.8418 42.6166L11.8853 42.7384L11.9669 42.6048ZM12.3305 42.4597L12.146 42.2912L12.2509 42.428L12.3305 42.4597ZM11.0188 39.894L8.89336 41.0387L8.79492 41.8111L9.1399 41.7957L10.6877 43.0205L12.128 41.8794L11.5959 41.1075L11.8743 40.4111L11.0188 39.894Z" fill="#00212E" stroke="#00212E" stroke-width="0.5"/>
<path d="M10.753 44.8476L10.7906 44.8482L10.6895 44.826L10.753 44.8476ZM10.9443 44.4979L10.918 44.5564L10.9836 44.5526L10.9443 44.4979ZM11.0894 44.3356L11.1497 44.2862L11.1098 44.2824L11.0894 44.3356ZM10.9206 44.3356L10.9532 44.2824L10.9381 44.27L10.9206 44.3356ZM10.8429 44.2582L10.8591 44.1659L10.779 44.1506L10.8429 44.2582ZM10.8275 43.823L10.6942 43.8919L10.9336 44.0409L10.8275 43.823ZM11.0135 43.7559L11.0404 43.721L10.9883 43.7317L11.0135 43.7559ZM11.0463 43.5357L11.0723 43.5117L10.9975 43.4875L11.0463 43.5357ZM10.986 43.4582L10.8858 43.3894L10.9141 43.4417L10.986 43.4582ZM9.13956 41.7954L8.79458 41.8111L7.31119 42.8596L6.78027 44.8039L7.4995 44.6617L8.29263 46.1522L10.0764 44.758L10.5183 45.2186L10.7193 44.0843L10.0276 43.559L10.9718 43.5123L9.60988 43.0204H10.6874L9.13956 41.7954Z" fill="#00212E" stroke="#00212E" stroke-width="0.5"/>
<path d="M8.3134 38.6482L6.51726 38.1001L6.26953 41.7004L6.9858 42.7501L7.31098 42.8595L8.79437 41.8109L8.8928 41.0385L8.3134 38.6482Z" fill="#00212E" stroke="#00212E" stroke-width="0.5"/>
<path d="M8.48569 47.8164L5.16241 48.5673L4.49609 49.0633L4.81861 50.3915L6.67831 50.2177L8.14958 50.2026L9.01425 48.7012L8.48569 47.8164Z" fill="#00212E" stroke="#00212E" stroke-width="0.5"/>
<path d="M6.5722 32.3929L2.69552 29.8057L2.4209 31.8903L3.71864 33.2546L3.40352 34.3862L6.51751 38.1L8.31366 38.6481L10.573 37.4555L9.6516 36.1368L10.0176 35.4037L9.56824 34.5987L6.5722 32.3929Z" fill="#00212E" stroke="#00212E" stroke-width="0.5"/>
<path d="M10.3825 48.1488L10.3281 48.1198L10.446 48.1899L10.3825 48.1488ZM10.2959 47.9315L10.2305 47.9877H10.3038L10.2959 47.9315ZM10.7192 47.6968L10.7044 47.6661L10.6935 47.685L10.7192 47.6968ZM11.2102 47.3799L10.0399 49.8666L10.0561 51.0556L11.2102 47.3799ZM10.577 46.8543L10.5084 46.7792L10.5259 46.8277L10.577 46.8543ZM10.5903 46.5152L10.5471 46.4469L10.4561 46.5912L10.5903 46.5152ZM10.5581 45.9219L10.5569 45.8247L10.4629 45.8383L10.5581 45.9219ZM10.5935 45.6754L10.5412 45.7242L10.6964 45.8371L10.5935 45.6754ZM10.0765 44.7578L8.29279 46.1519L8.48553 47.8162L9.01408 48.701L8.14941 50.2024L8.56889 50.1392L9.40784 50.6751L10.3331 48.3649L10.1215 47.9286L10.1741 47.7119L10.1288 47.6046L10.5223 46.9527L10.2208 46.4345L10.5684 46.1815L10.0399 45.537L10.5418 46.044L10.1132 45.537L10.5185 45.2184L10.0765 44.7578Z" fill="#00212E" stroke="#00212E" stroke-width="0.5"/>
<path d="M8.29301 46.1521L7.49988 44.6616L6.78065 44.8038L6.10606 46.2766L5.89322 45.5828L4.12988 47.9961L5.16246 48.5673L8.48575 47.8164L8.29301 46.1521Z" fill="#00212E" stroke="#00212E" stroke-width="0.5"/>
<path d="M11.7059 35.3688L11.6636 35.3099L11.6234 35.3156L11.6231 35.3886L11.7059 35.3688ZM11.5241 34.5003L11.5046 34.4021L11.4481 34.4799L11.5241 34.5003ZM11.6518 34.063L11.655 33.9596L11.6208 34.0116L11.6518 34.063ZM11.8649 32.5318L11.7257 32.5477L11.9034 32.5779L11.8649 32.5318ZM11.5859 32.54L11.6137 32.4741L11.5646 32.4469L11.5859 32.54ZM12.0742 31.8921L12.0184 31.8758L12.0116 31.9119L12.0742 31.8921ZM11.9527 31.0502L11.9377 31.0008L11.9297 31.0306L11.9527 31.0502ZM12.0237 31.038L12.029 31.0046L11.9601 30.9916L12.0237 31.038ZM11.7003 31.3239L11.9708 30.2824L8.14168 29.7666L6.57227 32.3931L9.56831 34.599L10.0176 35.4039L9.65167 36.1371L10.5731 37.4558L11.4836 37.1179L11.7529 35.9768L11.4129 35.7271L11.6796 35.4542L11.5853 35.4019L11.5838 35.2845L11.5427 35.2754L11.5838 35.1822L11.5194 34.9726L11.3618 34.787L11.5223 34.5514L11.3627 34.5236L11.3506 33.841L11.4593 33.7252L11.2527 33.4065L11.5729 33.4319L11.1794 32.428L11.9669 32.2291L11.7003 31.3239Z" fill="#00212E" stroke="#00212E" stroke-width="0.5"/>
</svg>
