<svg width="77" height="50" viewBox="0 0 77 50" fill="none" xmlns="http://www.w3.org/2000/svg">
<path d="M42.4131 17.691L42.817 17.3716L43.0395 17.6836L43.0283 18.008L42.6977 17.7159L42.4131 17.691ZM38.5463 5.56234L39.0683 5.30505L39.2075 5.45917L39.5232 5.41691L39.7445 5.54121L39.7581 5.9576L40.2491 6.38393L41.1937 6.52811L41.456 6.25093L41.8078 6.44856L41.7518 6.99795L41.3727 7.50258L41.19 7.4827L41.1241 7.81456L40.8507 7.88417L40.7848 8.08677L40.8842 8.60384L41.0558 8.61378L41.0769 8.84124L40.9265 8.96056L41.2919 9.34836L41.1739 9.47639L41.2348 9.72622L41.057 9.79334L41.2696 9.90893L41.3068 10.1463L41.0682 10.6162L41.3789 10.861L41.4187 11.1767L41.6076 11.357L41.5492 11.9449L41.7556 12.1798L41.7083 12.4483L42.075 12.4657L42.4031 12.2656L41.9631 13.0772L41.4386 13.3929L41.2894 13.3482L41.625 14.3413L41.3852 14.9292L41.5641 15.67L41.502 16.1175L41.727 16.4394L41.6735 17.0273L41.3628 17.0795L40.8308 16.8931L40.1161 15.1691L39.9993 14.4532L39.7345 14.1138L39.788 13.8056L39.1217 13.4315L38.9726 13.4439L38.8321 13.7869L38.5922 13.7646L38.4568 14.2841L38.202 14.5253L38.197 14.9392L37.8838 15.0249L37.7396 15.0423L37.3791 14.6384L37.711 14.575L37.6687 14.2717L36.882 14.5402L36.5948 14.4668L36.4345 14.0902L36.2679 14.0169L35.9895 14.2158L35.726 14.1984L35.7993 14.432L35.2512 14.565L35.0349 14.4768L35.0461 14.1051L34.6869 13.5607L34.5241 13.7012L33.9337 13.7285L34.1176 14.2506L33.6503 14.6843L33.265 14.4755L32.3365 14.749L31.9487 14.5986L31.8716 13.9261L32.1115 13.7409L32.457 12.9281L32.9082 12.8199L33.2152 12.0406L33.4278 12.2606L33.8951 12.3004L33.9287 12.6782L34.8634 12.1873L34.9554 11.6888L35.2239 11.398L35.2152 10.7293L35.0026 10.7169L34.9218 10.3862L34.1437 10.0531L34.4793 9.90769L34.5365 10.0457L34.5663 9.87537L34.36 9.16316L34.2357 9.06124L34.0393 9.2365L33.9449 9.06373L33.7783 9.06124L33.8603 8.50689L33.1941 8.51434L32.9915 7.99479L32.692 7.82699L32.6957 7.57716L32.4993 7.66665L32.3365 7.2975L31.976 7.31241L31.9238 7.78225L31.5435 8.21231L31.2514 8.30926L31.2651 7.67784L30.4385 7.45535L30.4087 7.31863L29.9873 7.17444L31.3409 6.74314L31.7772 5.98991L32.1041 6.1341L32.9443 6.00483L33.2389 6.39884L33.2911 6.92213L33.8131 7.08371L34.0716 6.73693L35.1083 6.91591L35.8963 6.57161L36.2741 6.73568L36.5774 6.15398L37.0323 6.08686L37.2399 5.79477L37.5246 5.82709L38.1361 5.18945L38.4182 5.24911L38.5463 5.56234Z" fill="#00212E" stroke="#00212E" stroke-width="0.5"/>
<path d="M57.2725 14.2707L56.8151 13.2825L56.8971 12.8612L56.7529 12.5554L57.3533 11.9737L57.3284 11.7984L57.6789 11.653L57.4341 11.034L57.9138 10.9458L57.9176 11.0912L58.1823 11.1011L58.467 11.3796L58.7702 11.3224L58.9007 11.6804L59.3656 11.9302L59.9883 11.9078L59.7373 13.372L59.2948 13.9686L58.8958 14.2992L57.9685 14.7181L57.2725 14.2707ZM60.0915 10.7245L60.1201 10.5319L60.4805 10.3293L60.3314 10.2447L60.3612 10.0571L60.6222 9.80722L60.892 9.94768L61.0361 9.63818L61.2574 9.75626L61.9211 9.6618L61.4302 9.95141L61.6999 10.241L61.2785 10.3206L60.7018 10.7854L60.6583 10.5953L60.0915 10.7245Z" fill="#00212E" stroke="#00212E" stroke-width="0.5"/>
<path d="M57.2723 14.271L56.9516 14.4239L56.7242 14.1082L56.5414 14.1505L56.1512 13.8497L55.8703 13.9976L55.5347 13.9702L54.9965 13.6744L55.3072 13.2879L55.0685 12.5757L55.4663 12.291L55.2811 12.03L55.0076 12.1145L54.8995 11.9194L55.0263 11.7093L54.8349 11.7764L54.7578 11.549L55.1183 11.4868L55.4153 10.6851L56.0057 10.5807L56.6098 10.7336L57.7757 10.4179L58.1473 10.5782L58.4456 10.5323L58.8136 10.2675L58.8732 9.75043L59.1653 9.82501L60.4729 9.26444L60.3934 9.06805L60.5164 8.90771L61.5493 9.15506L62.1161 9.49936L61.9222 9.66467L61.2584 9.75789L61.0372 9.63981L60.893 9.94806L60.6221 9.80761L60.361 10.0574L60.3312 10.2451L60.4804 10.3296L60.1199 10.5323L60.0913 10.7249L59.9248 11.3538L59.9869 11.907L59.3642 11.9293L58.9006 11.6795L58.7701 11.3215L58.4655 11.3787L58.1809 11.1003L57.9161 11.0903L57.9124 10.9437L57.4326 11.0332L57.6775 11.6521L57.327 11.7976L57.3531 11.9728L56.7527 12.5558L56.8969 12.8615L56.8137 13.2829L57.2723 14.271Z" fill="#00212E" stroke="#00212E" stroke-width="0.5"/>
<path d="M19.5396 22.8419L19.7496 22.9202L19.5296 23.1203L19.4041 23.0221L19.5396 22.8419ZM20.2679 22.4454L20.3301 22.7437L20.0169 22.9177L19.9398 22.5336L20.176 22.4777L20.2679 22.4454ZM27.3615 12.5328L26.9339 13.2351L26.1421 13.4837L25.8351 13.9548L24.9949 14.2431L24.975 14.5663L24.0689 15.0983L23.7047 15.1405L23.9396 15.7782L24.1211 15.6775L24.3411 15.8888L24.5636 16.3885L24.4182 16.4183L24.4368 16.5488L24.9166 16.4954L25.2435 16.156V15.9671L25.4983 16.0429L25.5256 15.8267L25.9756 15.7968L26.0241 16.1933L26.3323 16.299L25.9718 16.7166L25.553 16.6557L25.3715 16.9528L25.1403 17.0286L25.0744 17.1566L25.3628 17.4537L24.7799 17.5842L24.4741 17.3977L24.2143 17.5009L24.5412 18.2255L25.2646 18.0142L25.4051 18.6556L25.9669 18.3909L25.7407 17.8266L26.566 17.3791L26.8767 16.8384L26.7748 16.524L27.1601 16.5339L27.4373 16.3475L27.7219 16.5339L27.8263 16.8434L28.3359 16.6296L28.8294 16.8086L29.0606 16.3288L29.2918 16.3263L29.2594 15.6775L28.8716 15.5122L28.7374 14.836L28.3819 14.846L27.9929 14.4271L27.9593 13.9299L27.7319 13.6888L28.9524 13.5086L29.4844 13.2376L30.2923 14.0927L30.6938 14.1052L30.9946 13.8864L31.1823 14.1773L31.462 13.874L31.6683 14.0492L31.8759 13.9262L31.9529 14.5986L32.6055 15.9447L32.7173 16.7116L32.9274 17.0211L32.8727 17.3107L32.5595 17.5519L32.7882 18.2964L32.5819 19.3193L32.9883 19.773L33.1238 20.305L33.5091 20.2043L33.6483 20.3634L34.0262 20.3709L33.9789 20.9277L33.8733 21.2459L33.6408 21.4249L33.6023 21.7381L33.3388 22.106L32.951 22.1135L32.5533 22.5249L32.8093 22.8207L32.3755 23.3639L32.3942 23.6187L32.5943 23.8027L32.603 24.2725L33.8845 25.242L34.3506 25.8983L34.5383 25.9791L35.1523 25.6348L35.6084 25.6708L36.2871 25.6882L36.5071 26.0201L36.8365 26.0984L37.2367 26.4688L37.9676 26.1034L38.6823 26.3134L38.8053 26.0909L39.1397 26.2401L39.2975 26.4937L39.5324 26.5185L40.4298 25.8448L40.973 25.6721L41.4155 26.0549L41.4404 26.2165L41.7424 25.989L42.1401 26.0449L42.298 26.081L42.3067 26.2451L42.1488 26.5086L42.1861 26.8989L42.339 27.0642L42.3005 27.4619L42.4198 27.5576L42.3763 28.0772L41.9674 28.1356L41.4876 27.9815V28.0983L41.459 28.4078L41.6753 28.946L41.4814 28.9124L41.4043 29.1387L41.0289 29.4233L40.85 30.2772L40.9469 30.6103L40.6697 30.9993L40.088 31.2479L39.8904 31.5537L39.1173 31.9527L37.8209 32.1839L37.7202 31.9142L36.9285 31.7787L36.7184 31.545L34.9994 31.146L34.1654 31.7078L34.3294 32.0795L34.2723 32.2982L33.8124 32.4921L33.5091 32.8687L32.7173 33.228L32.1891 33.1845L30.0214 34.7232L28.5187 33.9886L28.2253 34.2236L27.9854 34.8177L27.6722 34.6872L26.9513 34.8711L26.868 35.0936L27.3204 35.3671L27.0458 35.6405L26.1869 35.8195L26.0464 35.4678L25.7531 35.6741L25.3603 35.4392L24.7028 35.684L23.9434 36.3117L23.2945 36.4646L23.1789 36.2956L23.2125 35.7188L22.995 35.9513L22.4046 36.1191L22.4108 36.6038L22.2343 36.8101L21.7185 36.8251L21.675 36.1514L21.8477 36.0519L21.6178 36.0234L21.501 35.6281L21.2499 35.6256L21.5196 34.7195L21.2325 34.2758L21.271 34.1204L21.721 34.098L21.8987 33.7997L21.7632 33.0017L21.9646 32.9657L21.9062 32.8029L22.0951 32.6761L22.1846 32.251L21.982 31.3623L22.3027 31.2119L22.7302 30.6115L23.0745 30.7284L23.3902 30.4338L23.2461 29.6669L23.2647 29.3674L23.5344 29.2281L23.3989 28.9087L23.8104 28.8938L23.9993 29.2903L24.3262 28.8838L24.2069 28.8739L24.3858 28.0511L24.0875 27.836L23.8104 27.8435L23.8725 27.5116L23.1752 27.3948L22.9888 27.1412L23.1081 26.383L22.8918 26.0387L23.1255 25.7877L23.0708 25.5465L23.3828 24.9897L23.3965 24.8728L23.5754 24.5895L23.0857 24.1084L23.3157 23.8549L23.5556 23.9531L23.4748 24.1171L23.9011 24.0513L24.044 23.8487L23.9098 23.2272L23.4772 23.0929L22.7004 23.1911L22.3834 22.996L21.9807 22.9985L21.8813 22.8468L21.6762 22.991L21.5283 22.8742L21.1778 22.9326L21.5034 22.7151L21.4587 22.4068L21.5855 22.2403L21.4251 22.0103L21.5581 21.548L21.2971 21.369L21.6128 21.2956L21.9733 20.8618L21.6476 20.3174L20.6334 20.827L19.5943 21.0669L18.8535 21.0309L18.7031 20.9874L18.4371 20.3311L18.5775 19.7183L19.47 19.036L19.3059 18.6183L19.4725 18.3797L19.2984 18.1224L18.6944 17.8079L18.5005 17.9409L18.4135 17.7346L18.6882 17.4226L18.5204 17.3567L16.9629 17.8067L16.8424 17.7085L15.7846 18.3859L16.1525 17.2511L15.7051 16.4059L15.8741 16.1946L16.0717 16.7924L16.8461 16.3251L17.0375 15.9584L17.2252 15.8826L17.2824 16.0404L17.5136 16.028L17.6826 16.2058L17.9573 15.7359L18.4197 15.6812L18.8125 14.9181L19.0039 14.8174L19.0225 14.5315L19.3482 14.4109L19.5247 14.6794L19.7472 14.5265L20.6197 14.406L20.4171 14.1151L20.529 13.8665L20.8422 13.741L20.7639 13.2674L21.4637 13.2301L21.542 13.3905L22.7663 13.4936L23.3119 13.4203L23.6774 12.9766L24.3983 12.7354L26.3112 13.0561L27.3615 12.5328ZM21.6625 22.1085L21.6688 22.331L21.9285 22.2042L21.9434 21.9867L21.7893 22.0402L21.6625 22.1085ZM29.5938 16.3823L29.3924 16.4556L29.3266 16.6942L29.5714 16.6992L29.6547 16.478L29.5938 16.3823ZM27.3615 12.5328L26.8581 12.5304L27.2645 11.9611L27.5939 12.3514L27.3615 12.5328ZM23.5046 9.60693L24.3883 9.84185L24.2963 10.2545L23.9918 10.2371L23.7122 9.8866L23.4636 9.81451L23.5046 9.60693Z" fill="#00212E"/>
<path d="M27.3615 12.5328L26.9339 13.2351L26.1421 13.4837L25.8351 13.9548L24.9949 14.2431L24.975 14.5663L24.0689 15.0983L23.7047 15.1405L23.9396 15.7782L24.1211 15.6775L24.3411 15.8888L24.5636 16.3885L24.4182 16.4183L24.4368 16.5488L24.9166 16.4954L25.2435 16.156V15.9671L25.4983 16.0429L25.5256 15.8267L25.9756 15.7968L26.0241 16.1933L26.3323 16.299L25.9718 16.7166L25.553 16.6557L25.3715 16.9528L25.1403 17.0286L25.0744 17.1566L25.3628 17.4537L24.7799 17.5842L24.4741 17.3977L24.2143 17.5009L24.5412 18.2256L25.2646 18.0142L25.4051 18.6556L25.9669 18.3909L25.7407 17.8266L26.566 17.3791L26.8767 16.8384L26.7748 16.524L27.1601 16.5339L27.4373 16.3475L27.7219 16.5339L27.8263 16.8434L28.3359 16.6296L28.8294 16.8086L29.0606 16.3288L29.2918 16.3263L29.2594 15.6775L28.8716 15.5122L28.7374 14.836L28.3819 14.846L27.9929 14.4271L27.9593 13.9299L27.7319 13.6888L28.9524 13.5086L29.4844 13.2376L30.2923 14.0927L30.6938 14.1052L30.9946 13.8864L31.1823 14.1773L31.462 13.874L31.6683 14.0492L31.8759 13.9262L31.9529 14.5986L32.6055 15.9447L32.7173 16.7116L32.9274 17.0211L32.8727 17.3107L32.5595 17.5519L32.7882 18.2964L32.5819 19.3193L32.9883 19.773L33.1238 20.305L33.5091 20.2043L33.6483 20.3634L34.0262 20.3709L33.9789 20.9277L33.8733 21.2459L33.6408 21.4249L33.6023 21.7381L33.3388 22.106L32.951 22.1135L32.5533 22.5249L32.8093 22.8207L32.3755 23.3639L32.3942 23.6187L32.5943 23.8027L32.603 24.2725L33.8845 25.242L34.3506 25.8983L34.5383 25.9791L35.1523 25.6348L35.6084 25.6708L36.2871 25.6882L36.5071 26.0201L36.8365 26.0984L37.2367 26.4688L37.9676 26.1034L38.6823 26.3134L38.8053 26.0909L39.1397 26.2401L39.2975 26.4937L39.5324 26.5185L40.4298 25.8448L40.973 25.6721L41.4155 26.0549L41.4404 26.2165L41.7424 25.989L42.1401 26.0449L42.298 26.081L42.3067 26.2451L42.1488 26.5086L42.1861 26.8989L42.339 27.0642L42.3005 27.4619L42.4198 27.5576L42.3763 28.0772L41.9674 28.1356L41.4876 27.9815V28.0983L41.459 28.4078L41.6753 28.946L41.4814 28.9124L41.4043 29.1387L41.0289 29.4233L40.85 30.2772L40.9469 30.6103L40.6697 30.9993L40.088 31.2479L39.8904 31.5537L39.1173 31.9527L37.8209 32.1839L37.7202 31.9142L36.9285 31.7787L36.7184 31.545L34.9994 31.146L34.1654 31.7078L34.3294 32.0795L34.2723 32.2982L33.8124 32.4921L33.5091 32.8687L32.7173 33.228L32.1891 33.1845L30.0214 34.7232L28.5187 33.9886L28.2253 34.2236L27.9854 34.8177L27.6722 34.6872L26.9513 34.8711L26.868 35.0936L27.3204 35.3671L27.0458 35.6405L26.1869 35.8195L26.0464 35.4678L25.7531 35.6741L25.3603 35.4392L24.7028 35.684L23.9434 36.3117L23.2945 36.4646L23.1789 36.2956L23.2125 35.7188L22.995 35.9513L22.4046 36.1191L22.4108 36.6038L22.2343 36.8101L21.7185 36.8251L21.675 36.1514L21.8477 36.0519L21.6178 36.0234L21.501 35.6281L21.2499 35.6256L21.5196 34.7195L21.2325 34.2758L21.271 34.1204L21.721 34.098L21.8987 33.7997L21.7632 33.0017L21.9646 32.9657L21.9062 32.8029L22.0951 32.6761L22.1846 32.251L21.982 31.3623L22.3027 31.2119L22.7302 30.6115L23.0745 30.7284L23.3902 30.4338L23.2461 29.6669L23.2647 29.3674L23.5344 29.2281L23.3989 28.9087L23.8104 28.8938L23.9993 29.2903L24.3262 28.8838L24.2069 28.8739L24.3858 28.0511L24.0875 27.836L23.8104 27.8435L23.8725 27.5116L23.1752 27.3948L22.9888 27.1412L23.1081 26.383L22.8918 26.0387L23.1255 25.7877L23.0708 25.5465L23.3828 24.9897L23.3965 24.8728L23.5754 24.5895L23.0857 24.1084L23.3157 23.8549L23.5556 23.9531L23.4748 24.1171L23.9011 24.0513L24.044 23.8487L23.9098 23.2272L23.4772 23.0929L22.7004 23.1911L22.3834 22.996L21.9807 22.9985L21.8813 22.8468L21.6762 22.991L21.5283 22.8742L21.1778 22.9326L21.5034 22.7151L21.4587 22.4068L21.5855 22.2403L21.4251 22.0103L21.5581 21.548L21.2971 21.369L21.6128 21.2956L21.9733 20.8618L21.6476 20.3174L20.6334 20.827L19.5943 21.0669L18.8535 21.0309L18.7031 20.9874L18.4371 20.3311L18.5775 19.7183L19.47 19.036L19.3059 18.6183L19.4725 18.3797L19.2984 18.1224L18.6944 17.8079L18.5005 17.9409L18.4135 17.7346L18.6882 17.4226L18.5204 17.3567L16.9629 17.8067L16.8424 17.7085L15.7846 18.3859L16.1525 17.2511L15.7051 16.4059L15.8741 16.1946L16.0717 16.7924L16.8461 16.3251L17.0375 15.9584L17.2252 15.8826L17.2824 16.0404L17.5136 16.028L17.6826 16.2058L17.9573 15.7359L18.4197 15.6812L18.8125 14.9181L19.0039 14.8174L19.0225 14.5315L19.3482 14.4109L19.5247 14.6794L19.7472 14.5265L20.6197 14.406L20.4171 14.1151L20.529 13.8665L20.8422 13.741L20.7639 13.2674L21.4637 13.2301L21.542 13.3905L22.7663 13.4936L23.3119 13.4203L23.6774 12.9766L24.3983 12.7354L26.3112 13.0561L27.3615 12.5328ZM27.3615 12.5328L26.8581 12.5304L27.2645 11.9611L27.5939 12.3514L27.3615 12.5328ZM19.5396 22.8419L19.7496 22.9202L19.5296 23.1203L19.4041 23.0221L19.5396 22.8419ZM20.2679 22.4454L20.3301 22.7437L20.0169 22.9177L19.9398 22.5336L20.176 22.4777L20.2679 22.4454ZM21.6625 22.1085L21.6688 22.331L21.9285 22.2042L21.9434 21.9867L21.7893 22.0402L21.6625 22.1085ZM29.5938 16.3823L29.3924 16.4556L29.3266 16.6942L29.5714 16.6992L29.6547 16.478L29.5938 16.3823ZM23.5046 9.60693L24.3883 9.84185L24.2963 10.2545L23.9918 10.2371L23.7122 9.8866L23.4636 9.81451L23.5046 9.60693Z" stroke="#00212E" stroke-width="0.5"/>
<path d="M33.8908 9.54767L34.0425 9.22947L33.9493 9.0567L33.7827 9.05297L33.8647 8.49986L33.1998 8.50732L32.9972 7.98777L32.6964 7.81872L32.7001 7.56889L32.5037 7.65838L32.3409 7.28923L31.9804 7.30414L31.9282 7.77398L31.5479 8.20528L31.2558 8.30223L31.2695 7.67081L30.4429 7.44832L30.4131 7.3116L29.9917 7.16742L29.6661 7.35386L29.3255 7.33397L28.6394 6.63046L28.3672 6.69013L28.402 7.15872L27.9508 7.66584L27.8004 7.09906L27.5605 7.05928L27.3306 6.54346L26.366 7.18233L26.4095 7.4533L26.6967 7.2942L26.8893 7.43341L26.7588 7.79635L26.4369 7.78641L26.3387 7.65093L26.5351 8.10336L26.9316 8.20031L27.0111 8.36065L26.8545 8.78698L26.9055 9.09772L26.2305 9.16484L25.6799 9.38981L25.4326 9.10269L25.1952 9.17478L25.0597 9.49173L25.3369 9.48179L25.5531 9.72665L25.6414 9.9218L25.5395 10.2027L25.0386 10.3444L24.4395 10.2723L24.5128 10.5346L24.9453 10.7633L24.8993 11.1001L25.3033 11.1237L25.4264 10.5706L25.9944 10.5855L26.0329 10.8602L26.4269 10.9907L26.7066 10.8975L26.9104 10.5296L26.8185 10.3195L27.7345 10.235L27.5381 10.0722L27.5344 9.69185L27.773 9.88699L28.3286 9.78507L28.4691 9.03433L28.1385 8.86529L28.1894 8.39048L28.7475 8.56449L29.0061 8.44766L28.8842 8.33828L28.9787 8.2376L29.1801 8.21522L29.2422 8.49986L29.763 8.64031L29.901 8.85286L29.7282 9.25185L29.5157 9.36744L29.4125 10.1244L29.1129 10.3494L28.617 10.3469L28.627 11.0305L28.7662 11.0852L28.8047 11.4133L29.7381 11.2841L30.2229 11.381L30.4528 11.8372L30.904 12.1168L31.3304 12.0298L31.487 11.5463L31.9021 11.4817L32.0911 11.2306L32.7424 11.0056L32.5895 10.7049L32.8194 10.455L33.2495 10.6352L34.1469 10.0448L33.8908 9.54767Z" fill="#00212E" stroke="#00212E" stroke-width="0.5"/>
<path d="M29.372 5.8897L29.2638 6.02394L29.5373 6.36327L29.4988 6.52858L29.4441 6.42541L29.3533 6.56338L28.6399 6.6305L28.3677 6.69016L28.4025 7.15751L27.9513 7.66588L27.8009 7.09909L27.561 7.05932L27.3311 6.54349L27.4902 6.24643L27.7785 6.28869L27.8891 5.91456L28.3702 6.24394L28.8512 5.80021L29.2949 5.89219L29.6069 5.66846L29.372 5.8897Z" fill="#00212E" stroke="#00212E" stroke-width="0.5"/>
<path d="M14.219 26.5438L14.2526 26.5798L14.4241 26.6233L14.2712 27.1454L14.1706 27.2696L14.0214 27.3554L13.7915 27.0086L14.1992 26.5276L14.219 26.5438ZM15.5005 25.9708L15.5453 25.9757L15.6037 26.1274L15.677 26.2542L16.0325 26.5885L15.7827 27.1006L15.7267 27.1739L15.1301 26.9229L14.8169 27.123L14.4627 27.1056L14.5434 26.9129L14.8318 26.8794L14.9337 26.852L15.4719 25.9683L15.5005 25.9708ZM15.7628 22.6807L16.2674 23.322L16.6851 23.6154L16.2351 23.8453L16.5558 23.7496L16.8379 24.0728L16.3917 24.7079L16.5086 25.0572L16.4128 25.2213L16.5297 25.2822L16.6701 25.0945L16.8528 25.2262L16.516 25.8539L16.4874 25.7532L15.9641 25.9285L15.6422 25.6426L15.0692 26.0068L14.7286 25.6998L14.6168 25.7632L14.3321 25.5146L14.27 25.6128L14.3943 25.2735L14.2936 25.3344L13.6846 24.6744L14.3222 24.0541L15.7628 22.6807ZM21.7898 22.0393L21.944 21.9859L21.9291 22.2034L21.6693 22.3302L21.6631 22.1077L21.7898 22.0393ZM18.8403 21.0189L19.5811 21.0561L20.6202 20.8163L21.6345 20.3066L21.9601 20.8511L21.5997 21.2848L21.284 21.3582L21.545 21.5372L21.412 21.9995L21.5736 22.2295L21.4456 22.396L21.4903 22.7043L21.1646 22.9218L21.5152 22.8634L21.6631 22.9802L21.8682 22.836L21.9676 22.9877L22.3703 22.9852L22.6873 23.1803L23.4641 23.0821L23.8966 23.2164L24.0309 23.8379L23.8879 24.0405L23.4616 24.1063L23.5424 23.9423L23.3025 23.8441L23.0726 24.0989L23.5623 24.5799L23.3833 24.8633L23.3696 24.9801L23.0577 25.537L23.1136 25.7781L22.8799 26.0292L23.0962 26.3735L22.9769 27.1317L23.1633 27.3852L23.8606 27.5021L23.7985 27.8339L24.0756 27.8265L24.3739 28.0415L24.195 28.8644L24.3143 28.8743L23.9874 29.2807L23.7985 28.8842L23.387 28.8992L23.5225 29.2186L23.2528 29.3578L23.2342 29.6574L23.3783 30.4243L23.0626 30.7188L22.7183 30.602L22.2908 31.2023L21.9701 31.3527L21.4953 31.8723L21.2318 31.5317L20.7371 31.9593L20.4785 31.9668L20.0609 32.7076L19.6768 32.9822L19.0156 32.9698L18.3518 33.6149L18.2984 33.9381L17.7179 34.173L17.8559 33.9182L17.6434 33.6323L17.6732 33.2607L17.5178 32.8654L17.2245 32.6131L16.9113 32.628L16.5036 32.3384L16.245 32.4627L16.2724 32.1495L15.6907 32.8033H15.4421L14.8268 32.0339L15.0667 31.5914L15.155 31.7343L15.5714 31.6448L15.672 31.9071L16.214 31.1924L16.3544 31.1588L16.2873 30.9277L16.0561 31.1414L15.8871 31.0631L15.7466 30.7524L15.7081 30.7238L15.4284 30.5995L15.2035 30.7922L14.8902 30.5461L14.8728 30.7288L14.5658 30.7996L14.7137 30.0041L14.6317 29.021L14.9636 29.052L15.2146 28.699L15.549 28.8718L15.7876 28.7475L15.8535 28.433L15.7081 28.2478L16.1891 27.8899L16.2513 27.6438L16.915 26.9974L17.0119 26.7265L16.8392 26.4804L16.6627 26.5512L16.465 26.3971L16.5657 26.2629L16.6652 26.3412L17.0393 25.7508L17.2879 25.6625L17.452 25.2983L17.2779 25L17.4022 24.6893L17.759 24.8285L17.887 24.5575L17.7279 24.4084L17.8435 24.1474L17.6359 24.2431L17.5738 24.0641L17.8236 23.5681L17.6807 23.3606L17.5651 23.2263L17.309 23.3705L17.4283 23.7446L16.9771 23.158L16.7596 23.0921L16.8429 22.9305L16.2799 22.2916L16.828 21.6254L17.4234 22.3152L17.7888 22.4371L17.6968 22.6919L18.1803 23.1841L17.9056 23.4364L18.0001 23.5483L18.1542 23.5781L18.2897 23.3941L18.6129 23.5781L18.5122 23.7496L18.6738 23.8988L18.5097 24.1362L18.6203 24.2468L19.1971 23.5992L19.0442 23.3233L19.4059 23.025L19.5314 23.1232L19.7514 22.9231L19.5414 22.8447L18.9783 21.9685L19.0777 21.1916L18.8403 21.0189ZM19.9403 22.534L20.0174 22.9181L20.3306 22.7441L20.2685 22.4458L20.1765 22.4781L19.9403 22.534Z" fill="#00212E" stroke="#00212E" stroke-width="0.5"/>
<path d="M3.32549 37.0949L3.6325 37.4342L4.5672 37.9066L4.92393 37.2416L5.38382 37.4454L5.45964 37.7624L5.21105 38.0793L5.59885 38.7058L5.89964 38.7033L6.188 38.4062L6.20789 38.6188L6.41795 38.5927L6.42168 38.8823L6.18055 39.3384L5.38755 39.8244L5.12031 39.8045L4.36708 40.4273L4.39194 40.7343L3.37894 41.4005L2.81588 41.3309L2.77859 41.1134L2.09746 41.1084L1.83395 41.5161L1.70096 41.3731L1.12298 41.2787L0.512695 41.6714L0.934055 40.5901L1.01485 40.6796L1.13541 40.39L0.632019 40.0258L0.890552 39.5398L1.09191 39.5808L1.06332 39.4093L1.22491 39.4714L1.78175 39.0078L2.00921 39.1744L2.24785 38.8437L2.4256 38.9258L2.67046 38.7903L2.96379 39.0103L3.31058 38.7083L2.93645 37.8842L3.23848 37.6443L3.32549 37.0949ZM4.23409 36.3317L4.27759 36.4747L4.05013 36.4921L4.15205 36.3442L4.15827 36.3056L4.1968 36.2982L4.23409 36.3317ZM5.1315 36.7891L4.5324 36.5033L4.10606 36.1105L4.26889 35.9526L5.28314 36.4734L5.1315 36.7891Z" fill="#00212E" stroke="#00212E" stroke-width="0.5"/>
<path d="M51.6491 16.1997L52.6969 17.2935L53.818 17.2575L54.7353 17.4265L54.7241 18.8136L54.488 19.1716L53.8913 19.5134L54.5899 19.8316L55.0535 19.5917L55.6016 20.0355L55.7421 20.5525L55.4997 21.7706L55.7371 22.0813L55.7061 22.5077L55.3468 22.7563L54.9479 23.3342L54.6794 23.471L54.1039 23.4125L54.1673 23.5468L53.8926 23.8476L53.4116 24.1335L53.1269 23.6077L52.5751 23.5294L52.3053 23.7394L52.3103 24.1384L51.6777 25.0868L50.3291 25.4435L50.1227 25.3801L50.0879 25.0719L49.4776 25.0358L49.546 24.6717L49.3906 24.3236L50.8113 23.4759L50.7504 22.8793L50.4521 22.412L50.9331 22.2206L50.7989 21.9558L51.0524 21.43L50.6261 21.2436L50.4011 20.8695L50.554 20.739L50.1973 20.4233L50.0481 20.0404L49.7561 19.8863L49.9326 19.798L49.9214 19.5258H50.2594L50.697 19.2536L51.1395 18.3674L50.7877 18.212L51.0686 17.9175L51.0114 17.1269L51.6491 16.1997Z" fill="#00212E" stroke="#00212E" stroke-width="0.5"/>
<path d="M60.8315 19.0689L60.931 19.2578L61.6804 18.9421L62.1714 19.2019L62.3628 19.003L62.9582 18.9272L63.1074 19.1062L63.4305 19.1484L63.602 19.3933L64.1564 19.5648L64.6797 19.5263L65.5833 20.149L65.9835 19.8992L66.2955 19.9601L66.1687 20.2224L66.4608 20.4622L66.518 20.727L66.1613 21.3572L66.2918 21.4989L66.2508 22.0545L67.2924 22.5976L67.9362 22.5318L68.1575 22.8674L68.631 22.8872L69.1891 23.5137L69.245 23.8555L69.7832 23.8729L70.1002 24.3589L70.3886 24.1874L71.1579 24.1314L71.5768 23.7387L72.1983 23.7424L72.2592 23.2949L72.1088 22.9941L72.3835 22.1377L73.3008 22.4224L73.6165 22.2869L73.481 21.7412L73.8042 21.5871L74.1373 20.7021L74.55 20.676L74.7824 20.4473L74.9987 20.5256L75.4747 21.039V21.479L75.9508 21.5896L76.5213 21.9588L76.2926 23.0923L76.1161 23.2738L76.2093 24.1662L75.9719 24.6473L75.9694 25.009L75.7022 25.4676L75.3653 25.5857L75.6972 26.0369L75.7643 26.4172L75.0484 26.9865L75.3218 27.3569L75.2945 27.5595L74.7923 28.1847L75.0658 29.3792L75.8128 29.276L76.5561 29.946L76.269 31.6165L76.0564 31.6799L75.9284 31.9086L75.3156 31.4226L74.9564 31.5804L74.228 31.2933L74.0118 31.6239L73.8029 31.4201L73.5357 31.517L73.2797 31.4313L73.1218 30.9242L72.8086 30.77L72.565 30.9092L72.4407 30.7924L72.3586 30.432L72.6569 29.9584L72.3288 29.3841L71.9087 29.7856L71.4811 29.5756L70.4905 30.0827L70.0256 29.9634L69.9995 30.6681L69.6701 30.8334L69.6826 31.128L69.0586 31.6873L69.2239 32.1733L69.0238 32.4667L69.1208 32.6705L69.0263 33.1565L69.2127 33.4983L68.9791 33.9843L69.2699 34.1074L69.347 34.4181L69.603 34.3945L69.6701 34.561L69.966 34.5685L70.4855 34.3211L70.7142 34.4007L70.8087 34.7872L70.9951 34.6878L71.0921 34.8133L71.0411 35.3416L70.6719 35.41L70.4669 35.6126L70.4756 36.0078L70.1213 36.2328L70.0778 36.725L70.2655 37.17L70.9168 37.702L71.2723 38.5584L70.5713 39.2929L69.8379 39.2383L69.4924 39.4893L69.0723 39.1972L69.3271 38.7324L69.2401 38.3483L68.3253 37.9182L68.2146 37.7393L68.3377 37.1725L67.9971 36.955L68.2507 36.2527L67.715 35.9544L67.5782 35.6064L67.1867 35.7095L67.0574 35.9084L66.743 35.5479L66.1712 35.9668L65.5783 35.9954L64.5765 36.6517L64.0396 36.2601L63.8867 36.2937L63.6891 36.4702L63.5697 36.9276L63.6978 37.1576L63.4976 37.6634L63.0825 37.6547L62.8376 37.4459L62.1366 37.8424L61.7053 37.6299L61.2889 37.6199L60.87 37.3328L60.7109 37.4509L60.22 36.853L59.8956 35.8773L59.2853 35.6909L59.3698 35.226L59.1461 34.571L59.3176 33.1689L58.9969 32.9763L59.2231 32.8917L59.2952 32.4107L58.8279 32.6494L58.4165 33.4362L57.8012 33.0061L57.6956 32.7637L57.7975 32.5562L57.5998 32.4207L56.1717 32.7364L56.1008 33.6885L55.6782 33.906L55.6633 34.0614L55.7541 34.3796L56.2065 34.7425L56.1568 35.2471L56.2724 35.4174L56.1195 35.8003L56.4737 36.1943L56.4066 36.6542L56.5098 36.8655L56.2512 37.1948L56.2823 37.5578L55.7441 38.2949L55.682 39.0903L55.2109 39.1239L55.1786 39.5378L54.879 39.7715L54.7659 40.3967L54.5397 40.6652L54.2364 40.6627L53.8437 40.4166L53.5031 39.8846L53.0109 39.59L52.8381 38.4614L52.454 37.7368L52.812 37.2035L52.6268 36.8841L52.6703 36.638L52.7374 36.464L53.0332 36.3372L53.1501 35.7518L53.0544 34.9712L53.2769 34.8183L53.0469 34.3062L53.1426 33.6276L52.9661 33.2634L52.3732 33.1664L51.9357 32.4082L51.8773 31.4785L52.2663 30.5376L52.1085 30.2281L51.6188 29.9484L50.9053 30.1597L50.7512 29.445L50.566 29.7757L50.249 29.6613L49.9656 29.8602L50.1347 30.3089L50.0402 30.5078L48.934 31.0982L48.7289 31.133L48.6767 30.9192L48.1857 31.0944L47.3741 30.8048L47.1665 30.8918L46.9739 30.7775L46.7738 30.9192L46.4717 30.6731L46.1485 30.7216L46.1473 29.8192L45.6924 29.3767L45.7421 29.0038L46.1436 28.6334L46.0777 27.9585L46.4357 27.7099L46.6532 27.8081L47.2908 27.3569L47.3144 26.9107L47.5854 26.7056L47.8812 27.1033L48.3958 26.8883L48.494 26.2668L48.7525 26.1661L48.6556 25.5559L48.9402 25.5099L49.4772 25.0363L50.0875 25.0724L50.1223 25.3806L50.3286 25.444L51.6772 25.0873L52.3099 24.1389L52.3049 23.7399L52.5746 23.5298L53.1265 23.6082L53.4111 24.1339L53.8921 23.848L54.1668 23.5472L54.1034 23.413L54.6789 23.4714L54.9474 23.3347L55.3464 22.7567L55.7056 22.5081L56.0101 22.8276L56.7111 22.7542L56.8503 22.8773L58.409 23.0849L59.0653 23.5572L59.156 23.239L59.3909 23.1706L59.3773 22.8872L59.7191 22.584L59.5674 22.5032L59.5873 22.2583L60 21.5623L60.2324 21.4889L60.2473 21.1334L60.6824 21.0017L59.5264 19.1584L59.6296 19.0714L59.6979 19.2466L59.8135 19.0677L60.5829 18.8613L60.8315 19.0689Z" fill="#00212E" stroke="#00212E" stroke-width="0.5"/>
<path d="M18.5985 8.18058L19.2672 8.4503L19.9309 8.26759L20.146 8.06623L20.8619 8.42296L21.379 8.30239L21.1242 8.57833L20.8458 9.54285L21.2895 9.74546L21.8898 9.65721L22.0725 10.1022L22.7164 9.78026L23.5044 9.60749L23.4634 9.81506L23.7108 9.88715L23.9917 10.2377L24.2962 10.2551L24.4391 10.2725L24.5125 10.5347L24.945 10.7634L24.8978 11.1003L25.303 11.1239L25.7765 11.3538L26.792 11.3091L26.7597 11.4893L27.0493 11.6037L27.0381 11.9069L27.2644 11.9604L26.8592 12.5309L27.3613 12.5334L26.2936 13.0418L24.3807 12.7211L23.6586 12.9622L23.2931 13.4059L22.7487 13.4805L21.5244 13.3761L21.4461 13.2158L20.7463 13.2531L20.8246 13.7266L20.5114 13.8522L20.3995 14.1008L20.6021 14.3916L19.7296 14.5122L19.5071 14.6651L19.3306 14.3966L19.0062 14.5171L18.9875 14.803L18.7961 14.9037L18.4034 15.6669L17.941 15.7203L17.6663 16.1902L17.496 16.0137L17.2648 16.0261L17.2076 15.8682L17.02 15.944L16.8285 16.3107L16.0542 16.7781L15.8566 16.1802L15.6875 16.3915L15.6266 16.4139L15.332 16.2622L15.8764 15.949L15.9833 15.5687L17.2437 14.5171L17.0386 13.4184L17.9335 13.2307L18.2567 12.772L18.1635 12.4911L18.7638 12.4377L19.0236 12.035L18.8384 11.9219L18.811 11.5614L18.2666 11.3016L17.895 11.5365L16.703 11.7217L16.3761 11.6273L15.9622 11.7951L16.0554 11.2706L16.5427 10.9163L16.5439 10.5273L16.9441 10.4875L16.9864 9.81755L17.3071 9.80015L17.5184 9.48692L18.0243 9.30297L17.7073 8.30488L18.3338 8.04883L18.5985 8.18058Z" fill="#00212E" stroke="#00212E" stroke-width="0.5"/>
<path d="M31.9521 14.5929L32.3399 14.7433L33.2684 14.4698L33.6537 14.6799L34.1223 14.2461L33.9371 13.724L34.5275 13.6967L34.6904 13.5562L35.0496 14.1007L35.0372 14.4723L35.2534 14.5618L35.8028 14.4288L35.7282 14.1939L35.9917 14.2113L36.2702 14.0124L36.4367 14.0857L36.5971 14.4624L36.8842 14.5369L37.671 14.2685L37.712 14.5717L37.3801 14.6351L37.7406 15.0391L37.8847 15.0217L38.1992 14.9359L38.2042 14.522L38.459 14.2809L38.5945 13.7613L38.8344 13.7825L38.9748 13.4407L39.124 13.4282L39.7902 13.8024L39.7367 14.1106L40.0015 14.4499L40.1183 15.1671L40.833 16.8911L41.365 17.0775L41.6745 17.0266L41.7739 17.4753L42.2686 17.3013L42.3494 17.663L41.7802 18.001L41.2942 18.8661L41.4769 19.0053L42.1456 18.9071L43.3736 19.9425L43.2792 20.3403L42.6278 20.5329L42.6639 20.2371L41.9293 20.0407L41.948 20.4869L41.2519 20.5118L41.1935 20.0283L40.9374 19.9798L40.3818 20.7219L40.1158 20.4795L39.6274 20.6L39.242 20.5143L38.9052 20.8051L38.6193 20.651L38.4466 20.9617L38.633 21.1556L38.1669 21.2936L37.922 21.188L37.318 21.5062L37.533 22.0008L37.047 22.37L36.6505 23.117L36.602 22.7329L36.3721 22.6323L35.9818 22.9965L35.9109 23.8404L35.4983 24.4693L35.8625 25.1604L35.6039 25.6651L35.1478 25.629L34.535 25.9733L34.3473 25.8925L33.8812 25.2362L32.5997 24.2655L32.591 23.7969L32.3909 23.613L32.3735 23.3594L32.8073 22.8162L32.5513 22.5192L32.9477 22.109L33.3356 22.1015L33.5991 21.7336L33.6376 21.4204L33.87 21.2414L33.9757 20.9232L34.0229 20.3664L33.6463 20.3589L33.5071 20.1998L33.1205 20.3005L32.985 19.7685L32.5798 19.3148L32.7862 18.2906L32.5575 17.5474L32.8707 17.3062L32.9266 17.0166L32.7166 16.7071L32.6047 15.939L31.9521 14.5929Z" fill="#00212E" stroke="#00212E" stroke-width="0.5"/>
<path d="M15.6879 16.3911L16.1354 17.2376L15.7674 18.3724L16.8264 17.6937L16.947 17.7919L18.5044 17.3432L18.6722 17.4091L18.3975 17.7211L18.4845 17.9274L18.6784 17.7944L19.2825 18.1089L19.4578 18.3674L19.2912 18.6048L19.4553 19.0224L18.5628 19.7048L18.4224 20.3176L18.6896 20.9739L18.0607 20.7924L16.8264 21.6264L16.2783 22.2914L15.7625 22.6804L14.3219 24.0527L13.913 23.6325L13.5326 23.6661L13.6495 23.0235L13.2604 22.75L13.3163 22.0105L12.092 22.6494L11.754 23.195L11.2667 23.3143H11.048L10.0176 23.9744L9.30659 24.2242L8.93122 24.0825L8.99958 23.1602L8.46387 22.2404L9.55269 21.1094L9.68942 21.307L11.8434 20.519L12.2984 19.7931L13.284 19.2313L12.8254 18.831L13.0715 18.6396L13.0093 18.4656L13.3971 18.2294L13.6631 18.2394L13.6656 17.8168L14.737 17.2985L15.627 16.4135L15.6879 16.3911Z" fill="#00212E" stroke="#00212E" stroke-width="0.5"/>
<path d="M38.6327 21.1558L38.4463 20.9619L38.6191 20.6512L38.9049 20.8053L39.2418 20.5144L39.6271 20.6002L40.1156 20.4796L40.3816 20.722L40.9372 19.98L41.1932 20.0285L41.2516 20.512L41.9477 20.4871L41.929 20.0409L42.6636 20.2373L42.6276 20.5331L42.5853 20.8525L43.0837 21.0365L43.8917 20.9619L44.3615 20.6934L44.4137 20.8911L44.088 21.3597L44.1415 21.9227L43.9053 21.9351L43.9165 22.226L43.218 22.574L42.9358 22.4659L42.8438 22.7182L42.4784 22.9606L42.6425 23.0016L42.8016 23.2999L42.6301 23.5087L42.681 24.027L41.8172 24.0954L41.7028 23.6579L41.0689 24.1849L41.2317 23.7498L41.1596 23.5622L41.0018 23.5957L41.0478 24.9866L41.2852 25.0773L41.2342 25.2725L41.448 25.4825L41.811 25.6317L41.9365 25.9486L41.4095 26.0493L40.967 25.6652L40.1752 24.8722L40.4002 24.6908L40.2946 23.4665L40.5407 22.5715L40.4897 22.2061L39.9714 22.3267L39.6209 22.0967L39.9739 21.648L39.9217 21.0551L39.0827 20.9582L38.6327 21.1558Z" fill="#00212E" stroke="#00212E" stroke-width="0.5"/>
<path d="M41.41 26.0494L41.937 25.9487L41.8114 25.6318L41.4497 25.4826L41.2347 25.2726L41.2869 25.0774L41.0483 24.9867L41.0035 23.5958L41.1614 23.561L41.2335 23.7487L41.0706 24.1837L41.7045 23.6555L41.8189 24.093L42.6827 24.0246L43.1439 24.0731L43.2794 24.2521L42.9724 24.5131L42.8853 25.2552L42.5783 25.3384L42.7163 25.4677L42.8518 25.3968L42.807 25.6144L43.0221 26.0171L42.3024 26.2371L42.2937 26.073L42.1358 26.037L41.7381 25.981L41.4361 26.2085L41.41 26.0494ZM38.6332 21.1559L39.0832 20.957L39.9234 21.0552L39.9756 21.6481L39.6214 22.0956L39.9719 22.3255L40.4902 22.2062L40.5424 22.5704L40.2963 23.4653L40.4019 24.6896L40.177 24.8698L40.9687 25.6641L40.4255 25.8369L39.5281 26.5105L39.2932 26.4857L39.1354 26.2321L38.8023 26.083L38.6792 26.3054L37.9645 26.0954L37.2336 26.4608L36.8334 26.0904L36.5053 26.0121L36.2853 25.6802L35.6066 25.6628L35.8652 25.157L35.501 24.4659L35.9136 23.8382L35.9845 22.9942L36.3748 22.63L36.6047 22.7307L36.6532 23.1148L37.0485 22.369L37.5344 21.9999L37.3194 21.5052L37.9235 21.187L38.1683 21.2926L38.6332 21.1559Z" fill="#00212E" stroke="#00212E" stroke-width="0.5"/>
<path d="M60.1695 6.93014L59.1018 8.11343L59.1105 8.32349L59.3641 8.51863L60.6419 7.54416L61.5405 9.02078L61.6685 9.0531L61.7854 8.87287L61.9482 9.11027L62.5908 9.28553L62.3646 9.7852L62.474 10.4377L62.8357 10.8156V11.0381L62.5162 11.3836L62.0166 11.4333L61.6984 11.7938L61.3416 12.7558L60.9079 13.0815L60.7214 13.57L60.4567 13.7912L59.7084 15.985L60.1037 17.0763L60.2665 18.1005L60.1521 18.3727L59.4785 18.8712L59.5294 19.1583L60.6841 21.0016L60.2503 21.1333L60.2354 21.4888L60.0017 21.5621L59.5891 22.257L59.5692 22.5018L59.7221 22.5826L59.3803 22.8859L59.3939 23.1693L59.159 23.2376L59.0683 23.5558L58.4108 23.0835L56.8534 22.8759L56.7141 22.7541L56.0131 22.8275L55.7074 22.5068L55.7397 22.0805L55.501 21.7697L55.7446 20.5516L55.6042 20.0346L55.056 19.5908L54.5937 19.8307L53.8939 19.5113L54.4905 19.1707L54.7267 18.8127L54.7366 17.4256L53.8193 17.2566L52.6994 17.2939L51.6516 16.2001L51.0562 15.1398L48.9768 15.3636L48.6151 15.2989L48.3429 15.0603L48.1328 14.5954L48.2683 14.4052L49.0737 14.3046L49.3198 14.4748L49.4218 14.2735L50.4298 14.1082L50.5777 13.9354L50.6883 13.5837L50.4472 13.386L50.697 13.2928L50.8511 12.9721L51.1296 12.9199L51.3036 12.5967L51.0811 11.7926L50.8897 11.7578L50.6113 11.2096L51.0811 10.8243L51.1693 10.3396L51.3893 10.2774L51.3881 9.86972L51.766 9.78271L51.9425 9.58508L52.1873 9.73548L52.2084 9.57514L52.6037 9.48316L52.022 9.12519L52.0469 8.93502L51.7237 8.81321L51.6417 8.61558L51.7896 8.39309L52.2892 8.25512L52.5043 8.46021L52.9542 8.26755L53.0748 8.58451L53.4576 8.5323L53.5682 8.65411L54.1785 8.45648L54.3612 8.05377L54.4905 8.28371L54.5974 8.20914L54.6508 8.35705L55.0921 8.41671L55.1505 8.66157L55.3394 8.53355L55.7683 8.76349L55.9932 8.77592L56.2891 8.56835L56.5824 8.70632L56.9578 8.36948L56.8894 8.12959L56.7402 8.19919L56.8894 7.91953L56.6682 7.76416L56.4568 7.98167L56.084 7.85489L56.2766 7.89715L56.3089 7.63986L56.6495 7.50065L56.826 7.59263L56.9217 7.37014L57.276 7.37512L57.3244 7.61501L57.5506 7.65975L57.2225 8.10721L57.8365 8.12461L57.7309 8.50123L57.9645 8.45151L58.2392 8.7436L58.3884 8.31106L58.586 8.25885L60.0316 6.74121L60.1695 6.93014ZM59.9247 11.3538L60.09 10.7236L60.658 10.5956L60.7015 10.7858L61.2783 10.3209L61.6996 10.2414L61.4299 9.95175L61.9209 9.66214L62.1148 9.49683L61.548 9.15253L60.5151 8.90519L60.3908 9.06553L60.4716 9.26067L59.164 9.82124L58.8719 9.74666L58.811 10.2625L58.4443 10.5272L58.146 10.5745L57.7731 10.4141L56.6072 10.7298L56.0032 10.577L55.4128 10.6801L55.1157 11.4831L54.7552 11.5452L54.8323 11.7727L55.0237 11.7056L54.8957 11.9156L55.0051 12.1108L55.2785 12.0275L55.4625 12.2885L55.0647 12.5719L55.3034 13.2841L54.9927 13.6707L55.5308 13.9665L55.8664 13.9938L56.1486 13.8459L56.5376 14.1467L56.7204 14.1044L56.9478 14.4202L57.2685 14.2673L57.9633 14.7135L58.8905 14.2946L59.2895 13.964L59.732 13.3674L59.9831 11.9032L59.9247 11.3538Z" fill="#00212E"/>
<path d="M57.5755 7.9332L57.5531 7.85117M60.1695 6.93014L59.1018 8.11343L59.1105 8.32349L59.3641 8.51863L60.6419 7.54416L61.5405 9.02078L61.6685 9.0531L61.7854 8.87287L61.9482 9.11027L62.5908 9.28553L62.3646 9.7852L62.474 10.4377L62.8357 10.8156V11.0381L62.5162 11.3836L62.0166 11.4333L61.6984 11.7938L61.3416 12.7558L60.9079 13.0815L60.7214 13.57L60.4567 13.7912L59.7084 15.985L60.1037 17.0763L60.2665 18.1005L60.1521 18.3727L59.4785 18.8712L59.5294 19.1583L60.6841 21.0016L60.2503 21.1333L60.2354 21.4888L60.0017 21.5621L59.5891 22.257L59.5692 22.5018L59.7221 22.5826L59.3803 22.8859L59.3939 23.1693L59.159 23.2376L59.0683 23.5558L58.4108 23.0835L56.8534 22.8759L56.7141 22.7541L56.0131 22.8275L55.7074 22.5068L55.7397 22.0805L55.501 21.7697L55.7446 20.5516L55.6042 20.0346L55.056 19.5908L54.5937 19.8307L53.8939 19.5113L54.4905 19.1707L54.7267 18.8127L54.7366 17.4256L53.8193 17.2566L52.6994 17.2939L51.6516 16.2001L51.0562 15.1398L48.9768 15.3636L48.6151 15.2989L48.3429 15.0603L48.1328 14.5954L48.2683 14.4052L49.0737 14.3046L49.3198 14.4748L49.4218 14.2735L50.4298 14.1082L50.5777 13.9354L50.6883 13.5837L50.4472 13.386L50.697 13.2928L50.8511 12.9721L51.1296 12.9199L51.3036 12.5967L51.0811 11.7926L50.8897 11.7578L50.6113 11.2096L51.0811 10.8243L51.1693 10.3396L51.3893 10.2774L51.3881 9.86972L51.766 9.78271L51.9425 9.58508L52.1873 9.73548L52.2084 9.57514L52.6037 9.48316L52.022 9.12519L52.0469 8.93502L51.7237 8.81321L51.6417 8.61558L51.7896 8.39309L52.2892 8.25512L52.5043 8.46021L52.9542 8.26755L53.0748 8.58451L53.4576 8.5323L53.5682 8.65411L54.1785 8.45648L54.3612 8.05377L54.4905 8.28371L54.5974 8.20914L54.6508 8.35705L55.0921 8.41671L55.1505 8.66157L55.3394 8.53355L55.7683 8.76349L55.9932 8.77592L56.2891 8.56835L56.5824 8.70631L56.9578 8.36948L56.8894 8.12959L56.7402 8.19919L56.8894 7.91953L56.6682 7.76416L56.4568 7.98167L56.084 7.85489L56.2766 7.89715L56.3089 7.63986L56.6495 7.50065L56.826 7.59263L56.9217 7.37014L57.276 7.37512L57.3244 7.61501L57.5506 7.65975L57.2225 8.10721L57.8365 8.12461L57.7309 8.50123L57.9645 8.45151L58.2392 8.7436L58.3884 8.31106L58.586 8.25885L60.0316 6.74121L60.1695 6.93014ZM59.9247 11.3538L60.09 10.7236L60.658 10.5956L60.7015 10.7858L61.2783 10.3209L61.6996 10.2414L61.4299 9.95175L61.9209 9.66214L62.1148 9.49683L61.548 9.15253L60.5151 8.90519L60.3908 9.06553L60.4716 9.26067L59.164 9.82124L58.8719 9.74666L58.811 10.2625L58.4443 10.5272L58.146 10.5745L57.7731 10.4141L56.6072 10.7298L56.0032 10.577L55.4128 10.6801L55.1157 11.4831L54.7553 11.5452L54.8323 11.7727L55.0237 11.7056L54.8957 11.9156L55.0051 12.1108L55.2785 12.0275L55.4625 12.2885L55.0647 12.5719L55.3034 13.2841L54.9927 13.6707L55.5308 13.9665L55.8664 13.9938L56.1486 13.8459L56.5376 14.1467L56.7204 14.1044L56.9478 14.4202L57.2685 14.2673L57.9633 14.7135L58.8905 14.2946L59.2895 13.964L59.732 13.3674L59.9831 11.9032L59.9247 11.3538Z" stroke="#00212E" stroke-width="0.5"/>
<path d="M44.7129 5.53767L44.7614 5.54265L44.1225 6.83656L43.7521 6.10322L44.1785 5.68186L44.4146 5.81361L44.7129 5.53767ZM48.3709 2.49866L48.2715 2.57075L48.5014 2.85663L48.9191 2.88895L49.0198 3.10522L49.3939 3.10274L49.4187 3.34387L49.0459 3.29415L49.1702 3.38364L49.0309 3.6024L49.3106 3.78636L49.461 4.31461L49.0222 4.39913L49.1229 4.1754L48.7252 3.82738L48.2864 3.73043L48.1037 3.82489L48.1534 3.45201L48.3486 3.34014L48.0614 3.06172L47.6786 3.01697L47.6886 2.73109L48.0254 2.47753L48.1658 2.51482L48.136 2.32589L48.3138 2.25132L48.3709 2.49866ZM44.4233 0.712543L45.1256 0.739888L45.1505 1.52419L45.3183 1.73549L45.7073 1.37752L45.5743 1.00712L45.7396 0.7113L45.9261 0.999665L46.238 1.09164L46.4058 1.80261L46.7464 1.55899L46.9763 1.66837L47.1963 1.99651L46.8782 2.08849L46.7228 2.49618L47.118 2.79448L46.9627 3.3563L46.7949 3.40602L46.5537 2.85663L46.2554 2.97596L45.9248 2.84917L45.9012 3.02319L46.0988 3.15494L45.8167 3.36127L45.9024 3.55268L45.9012 3.56014L45.5979 3.3215L45.276 3.38613L45.2959 3.72918L45.0224 3.8137L45.0833 4.1667L44.9043 3.88579L44.4532 4.14184L44.1312 3.94794L43.8255 4.08467V4.27111L43.7012 4.12444L43.5893 4.19653L43.6415 4.56445L43.0474 4.52964V4.6614L42.7242 4.45258L42.7441 4.72106L42.5465 4.52467L42.6173 4.28105L42.2345 4.3432L41.879 4.04489L41.6826 4.04986L41.5732 3.85596L41.828 3.60737L41.5745 3.2494L42.1984 2.64036L42.3824 2.64284L42.3016 2.20533L42.7043 1.63854L43.332 1.32035L43.4911 1.44464L43.5781 1.25323L44.0144 1.0991L44.2257 1.28554L44.4097 1.19356L44.3873 0.964862L44.1859 0.867912L44.2419 0.527344L44.4233 0.712543Z" fill="#00212E" stroke="#00212E" stroke-width="0.5"/>
<path d="M29.6399 16.4631L29.6561 16.478L29.5728 16.6993L29.3279 16.6943L29.3938 16.4557L29.5952 16.3823L29.6399 16.4631ZM25.0596 9.4914L25.3368 9.48146L25.5531 9.72632L25.6413 9.92146L25.5394 10.2036L25.0385 10.3441L24.4394 10.272L24.2965 10.2546L24.3884 9.84191L25.0596 9.4914ZM34.1468 10.0445L33.8908 9.54733L34.0437 9.2279L34.2401 9.05264L34.3644 9.15456L34.5707 9.86677L34.5408 10.0371L34.4837 9.89909L34.1468 10.0445ZM34.1468 10.0445L34.9249 10.3776L35.0057 10.7083L35.2183 10.7207L35.227 11.3894L34.9585 11.6802L34.8665 12.1787L33.9318 12.6696L33.8982 12.2918L33.4309 12.2545L33.2184 12.0345L32.9113 12.8138L32.4602 12.9219L32.1146 13.7348L31.8747 13.92L31.6671 14.0431L31.4608 13.8678L31.1812 14.1711L30.9935 13.8803L30.6927 14.099L30.2924 14.0866L29.4845 13.2314L28.9525 13.5024L27.732 13.6826L27.9594 13.9238L27.993 14.4209L28.382 14.8398L28.7375 14.8299L28.8718 15.5073L29.2596 15.6726L29.2919 16.3214L29.0607 16.3239L28.8295 16.8037L28.336 16.6247L27.8264 16.8385L27.722 16.529L27.4374 16.3425L27.1602 16.529L26.7749 16.519L26.8768 16.8335L26.5661 17.3742L25.7408 17.8217L25.967 18.386L25.4052 18.6507L25.2647 18.0093L24.5426 18.2206L24.2157 17.496L24.4754 17.3928L24.7812 17.5793L25.3642 17.4488L25.0758 17.1517L25.1417 17.0237L25.3729 16.9479L25.5543 16.6508L25.9732 16.7117L26.3337 16.2941L26.0254 16.1884L25.9769 15.7919L25.527 15.8217L25.4996 16.038L25.2448 15.9622V16.1511L24.9179 16.4905L24.4382 16.5451L24.4195 16.4146L24.5649 16.3848L24.3424 15.8851L24.1224 15.6738L23.941 15.7745L23.7061 15.1369L24.0702 15.0946L24.9763 14.5626L24.9962 14.2395L25.8365 13.9511L26.1435 13.48L26.9352 13.2314L27.3628 12.5292L27.594 12.3465L27.2659 11.9562L27.0396 11.9015L27.0508 11.5982L26.7612 11.4851L26.7935 11.3049L25.7793 11.3496L25.3045 11.1197L25.4288 10.5666L25.9956 10.5815L26.0341 10.8562L26.4281 10.9867L26.7078 10.8934L26.9129 10.5255L26.8209 10.3155L27.7369 10.231L27.5406 10.0681L27.5368 9.68779L27.7755 9.88293L28.3311 9.78225L28.4715 9.03027L28.1409 8.86247L28.1906 8.38766L28.7487 8.56043L29.0072 8.4436L28.8867 8.33422L28.9811 8.23229L29.1825 8.20992L29.2446 8.49456L29.7667 8.63501L29.9046 8.84755L29.7319 9.2453L29.5193 9.36214L29.4174 10.1178L29.1166 10.3428L28.6207 10.3403L28.6306 11.024L28.7698 11.0786L28.8084 11.4068L29.7418 11.2788L30.2266 11.3745L30.4565 11.8306L30.9077 12.1091L31.334 12.0233L31.4919 11.5398L31.9058 11.4752L32.0947 11.2228L32.7448 10.9979L32.5919 10.6971L32.8219 10.4472L33.2532 10.6275L34.1468 10.0445ZM26.535 8.10303L26.9303 8.19998L27.0111 8.36032L26.8532 8.78541L26.9054 9.09739L26.2292 9.16451L25.6799 9.38948L25.4313 9.10236L25.6413 8.80529L25.2051 8.58032L25.0522 8.63998L25.2883 8.21241L26.0242 8.64495L26.5437 8.24224L26.535 8.10303Z" fill="#00212E"/>
<path d="M34.1468 10.0445L33.8908 9.54733L34.0437 9.2279L34.2401 9.05264L34.3644 9.15456L34.5707 9.86677L34.5408 10.0371L34.4837 9.89909L34.1468 10.0445ZM34.1468 10.0445L34.9249 10.3776L35.0057 10.7083L35.2183 10.7207L35.227 11.3894L34.9585 11.6802L34.8665 12.1787L33.9318 12.6696L33.8982 12.2918L33.4309 12.2545L33.2184 12.0345L32.9113 12.8138L32.4602 12.9219L32.1146 13.7348L31.8747 13.92L31.6671 14.0431L31.4608 13.8678L31.1812 14.1711L30.9935 13.8803L30.6927 14.099L30.2924 14.0866L29.4845 13.2314L28.9525 13.5024L27.732 13.6826L27.9594 13.9238L27.993 14.4209L28.382 14.8398L28.7375 14.8299L28.8718 15.5073L29.2596 15.6726L29.2919 16.3214L29.0607 16.3239L28.8295 16.8037L28.336 16.6247L27.8264 16.8385L27.722 16.529L27.4374 16.3425L27.1602 16.529L26.7749 16.519L26.8768 16.8335L26.5661 17.3742L25.7408 17.8217L25.967 18.386L25.4052 18.6507L25.2647 18.0093L24.5426 18.2206L24.2157 17.496L24.4754 17.3928L24.7812 17.5793L25.3642 17.4488L25.0758 17.1517L25.1417 17.0237L25.3729 16.9479L25.5543 16.6508L25.9732 16.7117L26.3337 16.2941L26.0254 16.1884L25.9769 15.7919L25.527 15.8217L25.4996 16.038L25.2448 15.9622V16.1511L24.9179 16.4905L24.4382 16.5451L24.4195 16.4146L24.5649 16.3848L24.3424 15.8851L24.1224 15.6738L23.941 15.7745L23.7061 15.1369L24.0702 15.0946L24.9763 14.5626L24.9962 14.2395L25.8365 13.9511L26.1435 13.48L26.9352 13.2314L27.3628 12.5292L27.594 12.3465L27.2659 11.9562L27.0396 11.9015L27.0508 11.5982L26.7612 11.4851L26.7935 11.3049L25.7793 11.3496L25.3045 11.1197L25.4288 10.5666L25.9956 10.5815L26.0341 10.8562L26.4281 10.9867L26.7078 10.8934L26.9129 10.5255L26.8209 10.3155L27.7369 10.231L27.5406 10.0681L27.5368 9.68779L27.7755 9.88293L28.3311 9.78225L28.4715 9.03027L28.1409 8.86247L28.1906 8.38766L28.7487 8.56043L29.0072 8.4436L28.8867 8.33422L28.9811 8.23229L29.1825 8.20992L29.2446 8.49456L29.7667 8.63501L29.9046 8.84755L29.7319 9.2453L29.5193 9.36214L29.4174 10.1178L29.1166 10.3428L28.6207 10.3403L28.6306 11.024L28.7698 11.0786L28.8084 11.4068L29.7418 11.2788L30.2266 11.3745L30.4565 11.8306L30.9077 12.1091L31.334 12.0233L31.4919 11.5398L31.9058 11.4752L32.0947 11.2228L32.7448 10.9979L32.5919 10.6971L32.8219 10.4472L33.2532 10.6275L34.1468 10.0445ZM29.6399 16.4631L29.6561 16.478L29.5728 16.6993L29.3279 16.6943L29.3938 16.4557L29.5952 16.3823L29.6399 16.4631ZM25.0596 9.4914L25.3368 9.48146L25.5531 9.72632L25.6413 9.92146L25.5394 10.2036L25.0385 10.3441L24.4394 10.272L24.2965 10.2546L24.3884 9.84191L25.0596 9.4914ZM26.535 8.10303L26.9303 8.19998L27.0111 8.36032L26.8532 8.78541L26.9054 9.09739L26.2292 9.16451L25.6799 9.38948L25.4313 9.10236L25.6413 8.80529L25.2051 8.58032L25.0522 8.63998L25.2883 8.21241L26.0242 8.64495L26.5437 8.24224L26.535 8.10303Z" stroke="#00212E" stroke-width="0.5"/>
<path d="M48.3402 15.0615L48.6124 15.3001L48.9741 15.3635L51.0536 15.1398L51.649 16.2L51.0113 17.1273L51.0685 17.9178L50.7876 18.2124L51.1394 18.3677L50.6969 19.254L50.2593 19.5262H49.9213L49.9324 19.7984L49.7559 19.8866L50.048 20.0407L50.1972 20.4236L50.5539 20.7393L50.401 20.8698L50.626 21.2439L51.0523 21.4304L50.7988 21.9561L50.933 22.2209L50.452 22.4123L49.4253 23.0263L49.2003 23.0288L49.0599 23.2463L48.989 22.5689L48.7914 22.7056L48.6336 22.0257L48.3589 21.8778L47.9785 22.1401L47.6877 21.8803L46.6374 22.4732L46.3863 21.7312L45.9848 21.8045L45.2142 21.582L44.9196 21.6305L44.8873 20.7741L44.5629 20.6162L44.3615 20.6933L43.8917 20.9618L43.0838 21.0363L42.5854 20.8524L42.6276 20.5329L43.2789 20.3403L43.3734 19.9425L42.1454 18.9072L41.4767 19.0054L41.2939 18.8662L41.7799 18.0011L42.3492 17.663L42.4126 17.6916L42.6972 17.7164L43.0279 18.0085L43.5325 18.2907L44.1888 18.1564L44.2472 18.4585L44.9693 18.1316L45.5001 18.1564L45.8556 17.6431L46.0681 17.6133L46.2073 17.4094L46.2695 16.9719L46.538 16.7506L46.3938 16.4412L46.1924 16.0521L46.5827 15.4965L48.0643 15.0093L48.3402 15.0615Z" fill="#00212E" stroke="#00212E" stroke-width="0.5"/>
<path d="M60.6408 7.54421L59.363 8.51868L59.1095 8.32354L59.1008 8.11348L60.1685 6.9302L60.6408 7.54421ZM46.5905 3.44496L46.7956 3.40519L46.9634 3.35547L47.4867 3.46734L48.1057 3.82531L48.2884 3.73084L48.7271 3.82779L49.1249 4.17582L49.0242 4.39955L49.463 4.31503L49.9079 4.46667L51.9066 3.53321L53.0315 3.69728L53.556 3.9931L54.1352 4.03039L54.3801 4.28893L54.6498 4.2591L59.3233 6.55855L60.028 6.74375L58.5825 8.26139L58.3848 8.3136L58.2357 8.74615L57.961 8.45405L57.7273 8.50377L57.833 8.12716L57.219 8.10976L57.5471 7.66229L57.3209 7.61755L57.2724 7.37766L56.9182 7.37269L56.8225 7.59517L56.646 7.50319L56.3054 7.64241L56.2731 7.8997L56.0804 7.85744L56.4533 7.98422L56.6646 7.7667L56.8859 7.92207L56.7367 8.20173L56.8859 8.13213L56.9542 8.37202L56.5788 8.70886L56.2855 8.57089L55.9897 8.77846L55.7647 8.76603L55.3359 8.53609L55.147 8.66411L55.0885 8.41925L54.6473 8.35959L54.5939 8.21168L54.487 8.28625L54.3577 8.05631L54.175 8.45902L53.5647 8.65665L53.4541 8.53484L53.0712 8.58705L52.9507 8.27009L52.5007 8.46275L52.2857 8.25767L51.786 8.39563L51.6381 8.61812L51.7202 8.81575L52.0433 8.93756L52.0185 9.12773L52.6002 9.4857L52.2049 9.57768L52.1838 9.73802L51.9389 9.58762L51.7624 9.78525L51.3846 9.87226L51.3858 10.2799L51.1658 10.3421L51.0775 10.8268L50.6077 11.2122L50.2808 10.6566L49.934 10.5621L50.0894 10.2538L50.0409 9.79395L50.2485 9.79892L50.42 9.72932L49.9987 9.65474L50.0086 9.36762L49.6059 8.85801L49.6432 8.59823L49.8408 8.52117L49.8321 7.51438L48.8962 7.30184L48.6861 6.76488L49.0602 6.58341L48.7234 6.33358L48.3331 6.38827L48.3058 6.09369L47.3363 5.86623L47.1958 5.45233L47.3288 5.11549L48.2685 5.64623L48.6476 4.51514L48.2834 4.38588L48.2846 4.0652L48.0174 4.04282L47.9006 4.3809L47.3226 4.70904L46.6651 4.61955L46.3469 4.43808L45.8994 3.5618L45.9007 3.55434L46.3581 3.30078L46.5905 3.44496Z" fill="#00212E"/>
<path d="M57.5533 7.85122L57.5757 7.93326M60.6408 7.54421L59.363 8.51868L59.1095 8.32354L59.1008 8.11348L60.1685 6.9302L60.6408 7.54421ZM46.5905 3.44496L46.7956 3.40519L46.9634 3.35547L47.4867 3.46734L48.1057 3.82531L48.2884 3.73084L48.7271 3.82779L49.1249 4.17582L49.0242 4.39955L49.463 4.31503L49.9079 4.46667L51.9066 3.53321L53.0315 3.69728L53.556 3.9931L54.1352 4.03039L54.3801 4.28893L54.6498 4.2591L59.3233 6.55855L60.028 6.74375L58.5825 8.26139L58.3848 8.3136L58.2357 8.74615L57.961 8.45405L57.7273 8.50377L57.833 8.12716L57.219 8.10976L57.5471 7.66229L57.3209 7.61755L57.2724 7.37766L56.9182 7.37269L56.8225 7.59517L56.646 7.5032L56.3054 7.64241L56.2731 7.8997L56.0804 7.85744L56.4533 7.98422L56.6646 7.7667L56.8859 7.92207L56.7367 8.20173L56.8859 8.13213L56.9542 8.37202L56.5788 8.70886L56.2855 8.57089L55.9897 8.77846L55.7647 8.76603L55.3359 8.53609L55.147 8.66411L55.0885 8.41925L54.6473 8.35959L54.5939 8.21168L54.487 8.28625L54.3577 8.05631L54.175 8.45902L53.5647 8.65665L53.4541 8.53484L53.0712 8.58705L52.9507 8.27009L52.5007 8.46275L52.2857 8.25767L51.786 8.39563L51.6381 8.61812L51.7202 8.81575L52.0433 8.93756L52.0185 9.12773L52.6002 9.4857L52.2049 9.57768L52.1838 9.73802L51.9389 9.58762L51.7624 9.78525L51.3846 9.87226L51.3858 10.2799L51.1658 10.3421L51.0775 10.8268L50.6077 11.2122L50.2808 10.6566L49.934 10.5621L50.0894 10.2538L50.0409 9.79395L50.2485 9.79892L50.42 9.72932L49.9987 9.65474L50.0086 9.36762L49.6059 8.85801L49.6432 8.59823L49.8408 8.52117L49.8321 7.51438L48.8962 7.30184L48.6861 6.76488L49.0602 6.58341L48.7234 6.33358L48.3331 6.38827L48.3058 6.09369L47.3363 5.86623L47.1958 5.45233L47.3288 5.11549L48.2685 5.64623L48.6476 4.51514L48.2834 4.38588L48.2846 4.0652L48.0174 4.04282L47.9006 4.3809L47.3226 4.70904L46.6651 4.61955L46.3469 4.43808L45.8994 3.5618L45.9007 3.55434L46.3581 3.30078L46.5905 3.44496Z" stroke="#00212E" stroke-width="0.5"/>
<path d="M46.1494 30.7211L46.4725 30.6726L46.7746 30.9187L46.9747 30.7782L47.1673 30.8926L47.575 30.8367L48.1865 31.094L48.6775 30.9187L48.7297 31.1325L48.9348 31.0989L50.041 30.5085L50.1343 30.3097L49.9652 29.8622L50.2486 29.6621L50.5656 29.7764L50.752 29.4458L50.9061 30.1617L51.6183 29.9504L52.1081 30.2301L52.2659 30.5396L51.8769 31.4805L51.9353 32.4115L52.3728 33.1697L52.9669 33.2666L53.1434 33.6308L53.0477 34.3095L53.2777 34.8216L53.0552 34.9744L53.1509 35.755L53.0353 36.3417L52.7382 36.4672L52.6711 36.6412L52.6276 36.8886L52.8141 37.208L52.4548 37.74L52.8389 38.4659L53.0117 39.5945L53.5051 39.8891L53.8457 40.4198L54.2385 40.6659L53.5051 41.4863L52.7121 41.8815L52.9731 42.6671L52.7718 43.209L52.3119 43.2649L51.7874 43.557L51.6096 43.8988L51.98 44.9678L51.7078 45.0684L51.6221 45.2686L51.4393 45.2636L51.3623 45.5333L51.7613 45.762L51.8446 46.5003L52.517 46.6756L52.6574 46.913L52.783 46.8844L52.7867 47.1989L52.9657 47.1268L53.0278 47.2324L52.3604 47.9434L52.3703 48.2703L52.0484 48.9377L52.1242 49.1341L51.3561 49.1155L51.4667 48.7873L51.2367 48.6655L50.8862 48.7302L50.7806 48.5338L50.0249 48.8221L50.0696 48.489L50.5929 47.9583L50.4214 47.9322L50.3344 47.4375L50.179 47.3107L50.2213 47.0485L49.7875 46.3636L49.7738 45.8155L49.3114 45.7073L48.6775 45.0411L47.8858 44.9976L48.1493 44.3724L48.7459 43.7484L48.6974 43.5458L48.8851 43.5993L49.0405 43.3395L49.0318 42.9753L48.2599 42.3439L47.8621 42.5129L47.452 42.3004L47.1748 41.8417L46.7808 42.2755L46.3358 42.3215L45.7541 42.0493L45.5851 41.8132L45.0071 41.8417L44.7436 41.3806L44.8455 41.0326L44.3607 40.825L44.1892 40.3353L43.7604 39.9562L43.6398 39.5212L42.6417 39.193L42.4988 38.891L42.1906 38.7915L42.1744 38.615L42.3944 38.3926L41.9034 37.5772L42.5473 36.7208L42.515 36.2248L42.638 36.0073L42.4988 35.4132L42.6604 35.1932L42.4143 34.2883L42.6219 34.0534L42.1744 33.5413L41.2285 33.8371L41.3628 32.8589L42.208 32.7806L42.7897 32.0013L43.4894 31.7167L43.3875 31.2207L43.528 30.7559L43.8213 30.5222L43.9692 30.649L44.403 30.6005L44.6827 30.8367L45.1923 30.7534L45.4558 31.0716L46.1494 30.7211ZM51.0926 45.1704L50.9285 45.1169L50.8005 45.583L51.0615 45.6651L51.0926 45.1704Z" fill="#00212E" stroke="#00212E" stroke-width="0.5"/>
<path d="M44.3619 20.6933L44.5633 20.6162L44.8877 20.7741L44.92 21.6305L45.2146 21.582L45.9852 21.8045L46.3867 21.7311L46.6377 22.4732L47.688 21.8803L47.9789 22.1401L48.3592 21.8778L48.6339 22.0257L48.7918 22.7056L48.9894 22.5689L49.0602 23.2463L49.2007 23.0288L49.4257 23.0263L50.4524 22.4123L50.7507 22.8796L50.8116 23.4762L49.3909 24.3239L49.5462 24.672L49.4779 25.0361L48.9409 25.5097L48.6563 25.5557L48.7532 26.166L48.4947 26.2667L48.3965 26.8881L47.8819 27.1032L47.5861 26.7054L47.3151 26.9105L47.2915 27.3567L46.6539 27.8079L46.4364 27.7097L46.0784 27.9583L46.1443 28.6332L45.7428 29.0036L45.6931 29.3765L46.148 29.819L46.1493 30.7214L45.4569 31.0669L45.1934 30.7487L44.6838 30.8308L44.4029 30.5959L43.9691 30.6443L43.8212 30.5176L43.5279 30.7512L43.3874 31.2148L43.4893 31.7108L42.7896 31.9954L41.9816 31.6113L41.6597 30.7612L41.6286 30.2155L41.871 29.5592L41.8735 29.0322L41.6684 28.9402L41.4521 28.4021L41.4807 28.0926V27.9757L41.9605 28.1286L42.3694 28.0702L42.413 27.5519L42.2936 27.4562L42.3322 27.0584L42.1793 26.8931L42.1432 26.5028L42.3011 26.2393L43.0195 26.0193L42.8057 25.6166L42.8505 25.3991L42.715 25.4699L42.577 25.3407L42.884 25.2574L42.971 24.5153L43.278 24.2531L43.1426 24.0753L42.6814 24.0269L42.6305 23.5086L42.802 23.2997L42.6429 23.0014L42.4788 22.9604L42.8443 22.718L42.9362 22.4657L43.2184 22.5739L43.9169 22.2258L43.9057 21.935L44.1419 21.9226L44.0884 21.3595L44.4141 20.8909L44.3619 20.6933Z" fill="#00212E" stroke="#00212E" stroke-width="0.5"/>
<path d="M8.93156 24.0826L9.30694 24.2243L10.0179 23.9744L11.0471 23.3144H11.2671L11.7531 23.1951L12.0924 22.6494L13.3167 22.0106L13.2608 22.7501L13.6498 23.0236L13.533 23.6662L13.9133 23.6314L14.3222 24.0515L13.6846 24.6717L14.2937 25.3317L14.3943 25.2708L14.27 25.6102L14.3322 25.512L14.6168 25.7606L14.7287 25.6972L15.0693 26.0042L15.6423 25.64L15.9642 25.9259L16.4875 25.7506L16.516 25.8513L16.8529 25.2236L16.6702 25.0918L16.5297 25.2795L16.4129 25.2186L16.5086 25.0546L16.3918 24.7053L16.838 24.0701L16.5558 23.747L16.2351 23.8427L16.6851 23.6127L16.2675 23.3194L15.7628 22.678L16.2774 22.289L16.8405 22.9279L16.7572 23.0895L16.9747 23.1553L17.4259 23.742L17.3066 23.3679L17.5626 23.2237L17.6782 23.3579L17.8211 23.5655L17.5713 24.0614L17.6335 24.2404L17.841 24.1447L17.7254 24.4057L17.8845 24.5549L17.7565 24.8259L17.3998 24.6866L17.2755 24.9974L17.4495 25.2957L17.2854 25.6599L17.0368 25.7481L16.6627 26.3385L16.5633 26.2602L16.4626 26.3945L16.6602 26.5486L16.8367 26.4777L17.0095 26.7238L16.9125 26.9948L16.2488 27.6411L16.1867 27.8872L15.7056 28.2452L15.8511 28.4304L15.7852 28.7449L15.5465 28.8692L15.2122 28.6964L14.9611 29.0494L14.6292 29.0183L14.7113 30.0015L14.5634 30.797L14.8704 30.7261L14.8878 30.5434L15.201 30.7895L15.426 30.5969L15.7056 30.7212L15.7442 30.7498L15.8846 31.0605L16.0537 31.1388L16.2849 30.925L16.352 31.1562L16.2115 31.1898L15.6696 31.9045L15.5689 31.6422L15.1525 31.7317L15.0643 31.5887L14.8244 32.0312L15.4397 32.8006H15.6882L16.2699 32.1468L16.2426 32.4601L16.5011 32.3358L16.9088 32.6254L17.222 32.6104L17.5154 32.8628L17.6707 33.258L17.6409 33.6297L17.8535 33.9155L17.7155 34.1704L18.2959 33.9354L18.3494 33.6123L19.0131 32.9672L19.6744 32.9796L20.0585 32.7049L20.4761 31.9641L20.7346 31.9567L21.2293 31.5291L21.4928 31.8697L21.9676 31.3501L22.1702 32.2401L22.0807 32.6651L21.8918 32.7919L21.9502 32.9547L21.7489 32.9908L21.8843 33.7888L21.7066 34.0871L21.2567 34.1094L21.2181 34.2648L21.5052 34.7085L21.2355 35.6147L21.4866 35.6171L21.6034 36.0124L21.8334 36.041L21.6606 36.1404L21.7041 36.8141L21.1597 37.4269L21.2902 37.7849L21.1187 37.9203L21.1535 38.2298L20.977 38.2733L20.3493 39.0228L20.0759 39.0589L20.0373 39.3684L19.8024 39.6418L18.5433 40.2434L18.1915 39.7922L17.7689 38.6512L17.3961 38.2671L17.3003 37.8855L16.9262 37.5711L16.8243 36.8017L16.6068 36.5568L16.2277 36.5233L16.0077 36.2038L16.0549 35.6631L14.9773 34.4488L12.6629 33.7813L9.92592 33.7229L8.37597 34.6837L5.53707 36.0049L5.27605 36.4748L4.2618 35.954L4.09898 36.1118L4.52531 36.5046L5.12441 36.7905L4.91684 37.2404L4.56011 37.9054L3.62541 37.4331L3.3184 37.0938L4.06666 35.9005L3.90632 35.6147L3.73976 35.6457L2.81252 34.8701L2.29297 34.6812L2.65467 34.0386L2.43342 33.5775L2.83365 33.1238L3.12202 32.4215L3.5297 31.9144L3.66519 31.9504L3.84293 31.5738L3.06484 30.8107L4.21457 29.8648L5.95221 28.0401L7.12307 27.4522L7.42635 27.2347L7.41517 27.0768L7.71223 26.9861L7.83155 26.6393L8.57608 26.2689L8.90173 25.6387L8.51642 25.333L8.4406 25.0695L8.59348 24.9837L8.63699 24.5611L8.93156 24.0826ZM14.8331 26.878L14.5447 26.9115L14.4639 27.1042L14.8182 27.1216L15.1314 26.9215L15.728 27.1725L15.7839 27.0992L16.0338 26.5871L15.6783 26.2528L15.605 26.126L15.5465 25.9743L15.4745 25.9669L14.9363 26.8506L14.8331 26.878ZM14.4229 26.6244L14.2514 26.5809L14.1979 26.5299L13.7903 27.011L14.0202 27.3577L14.1694 27.272L14.27 27.1477L14.4229 26.6244ZM4.0505 36.4922L4.27796 36.4748L4.19717 36.2983L4.15864 36.3057L4.15242 36.3443L4.0505 36.4922ZM18.8404 21.0187L19.0753 21.1902L18.9758 21.9671L19.5389 22.8433L19.4034 23.0248L19.0417 23.3231L19.1946 23.5991L18.6179 24.2466L18.5073 24.136L18.6713 23.8986L18.5097 23.7495L18.6104 23.5779L18.2873 23.394L18.1518 23.5779L17.9976 23.5481L17.9032 23.4362L18.1779 23.1839L17.6944 22.6917L17.7863 22.4369L17.4209 22.3151L16.8255 21.6253L18.0598 20.7925L18.6887 20.974L18.8404 21.0187Z" fill="#00212E" stroke="#00212E" stroke-width="0.5"/>
<path d="M41.668 28.9403L41.8731 29.0323L41.8706 29.5593L41.6282 30.2156L41.6593 30.7612L41.9812 31.6114L42.7891 31.9955L42.2074 32.7748L41.3622 32.8531L41.228 33.8313L40.8377 33.8773L40.1876 34.5025L39.862 34.5298L39.6072 34.935L40.0695 35.1451L40.0745 35.472L39.5177 35.9791H39.1485L39.1373 36.4191L38.5121 36.6976L38.2685 37.3302L37.5513 37.6148L37.0778 37.4707L36.03 38.5123L36.5918 38.7683L36.6552 39.0467L37.0753 39.3612L37.5215 40.4326L37.2642 40.8067L37.304 41.2952L36.6788 41.6209L36.4948 42.0907L35.2767 42.3729L35.1015 43.0254L35.3227 43.714L34.9399 43.9862L35.0194 44.1627L34.9026 44.4821L34.7199 44.4896L34.5372 44.8675L34.3346 44.7718L33.1811 44.8289L32.9238 45.264L32.6951 45.3584L32.587 46.6735L32.4403 46.7592L31.7405 46.5169L31.3714 46.7306L30.8518 46.2521L30.5647 46.2049L30.2888 46.579L30.0725 46.5889L29.8376 46.3267L29.8326 45.9501L29.4001 45.7723L29.1005 45.2888L28.6704 45.479L27.8513 45.4641L27.6202 45.0527L27.2174 45.0788L27.0658 45.2664L27.0484 45.8034L26.3213 45.6667L25.8813 46.0097L25.8937 46.3317L25.5071 46.4087L25.0261 46.8897L24.7266 46.8947L24.4742 47.2353L23.7521 46.8226L23.373 46.9084L22.8945 46.6474L22.2941 47.4391L22.1487 47.3285L21.5968 47.4565L21.173 48.1526L20.8908 48.0345L20.5851 47.6554L19.9524 48.1426L19.674 48.1352L19.5397 47.6989L18.7281 46.6014L18.6237 45.8519L18.1675 45.5262L18.4124 45.2814L18.1824 45.0601L18.1663 44.8339L17.7387 44.6412L17.6678 44.2833L17.3608 44.0061L17.1682 43.5126L16.9395 43.4455L16.937 43.2255L16.6872 43.223L16.1564 43.7215L15.8681 43.5052L16.1664 42.9757L16.0446 42.4524L16.2944 41.7501L15.2379 41.555L14.911 41.6395L14.5953 41.4369L14.5232 40.8117L14.8488 40.3556L14.7109 39.841L15.0055 39.1648L15.566 38.5943L15.7288 37.9902L15.6331 37.7478L15.4243 37.7503L15.1186 37.4744L15.0701 37.2469L14.6375 37.0108L14.6239 36.7995L14.3865 36.6888L14.1553 36.1867L14.2435 35.9692L14.5207 35.8921L14.7419 35.5988L14.686 35.3415L14.9843 34.4491L16.0632 35.6634L16.016 36.2041L16.236 36.5235L16.6151 36.5571L16.8326 36.802L16.9345 37.5713L17.3086 37.8858L17.4043 38.2686L17.7772 38.6527L18.1998 39.7937L18.5516 40.2449L19.8107 39.6433L20.0456 39.3711L20.0841 39.0616L20.3576 39.0244L20.9853 38.2761L21.1605 38.2326L21.1257 37.9231L21.2973 37.7876L21.1655 37.4296L21.7112 36.8169L22.227 36.802L22.4035 36.5969L22.3973 36.1121L22.9864 35.9456L23.2052 35.7119L23.1716 36.2886L23.2872 36.4589L23.936 36.306L24.6955 35.6783L25.353 35.4335L25.7458 35.6684L26.0391 35.4633L26.1796 35.8138L27.0385 35.6348L27.3131 35.3614L26.8607 35.0867L26.944 34.8642L27.6661 34.6802L27.9794 34.8108L28.2193 34.2166L28.5126 33.9817L30.0153 34.7163L32.183 33.1788L32.7113 33.2223L33.503 32.863L33.8063 32.4864L34.2662 32.2913L34.3234 32.0738L34.1581 31.7009L34.9921 31.1403L36.7111 31.5381L36.9211 31.7717L37.7117 31.9085L37.8123 32.1782L39.1087 31.947L39.8819 31.548L40.0795 31.2422L40.6612 30.9937L40.9384 30.6046L40.8414 30.2715L41.0204 29.4176L41.3958 29.133L41.4728 28.9067L41.668 28.9403Z" fill="#00212E" stroke="#00212E" stroke-width="0.5"/>
<path d="M41.6256 14.3394L41.8369 14.9795L42.1676 14.9434L42.8748 15.3635L43.372 15.0789L44.073 15.0043L44.7753 15.3685L44.9281 16.2125L45.8529 16.2684L45.9673 16.5468L46.3936 16.4412L46.5378 16.7507L46.2693 16.9719L46.2071 17.4094L46.0679 17.6133L45.8554 17.6431L45.4999 18.1565L44.9692 18.1316L44.247 18.4585L44.1886 18.1565L43.5323 18.2907L43.0277 18.0085L43.0401 17.6841L42.8164 17.3722L42.4124 17.6916L42.349 17.663L42.2682 17.3013L41.7735 17.4753L41.6741 17.0266L41.7276 16.4387L41.5038 16.1168L41.566 15.6693L41.3857 14.9285L41.6256 14.3394Z" fill="#00212E" stroke="#00212E" stroke-width="0.5"/>
<path d="M45.9002 3.55918L46.3476 4.43546L46.6671 4.61693L47.3246 4.70642L47.9026 4.37953L48.0206 4.04145L48.2866 4.06382L48.2854 4.3845L48.6483 4.51252L48.2705 5.64361L47.3308 5.11287L47.1978 5.45095L47.3395 5.86485L48.309 6.09231L48.3351 6.38813L48.7254 6.33345L49.0635 6.58328L48.6893 6.76475L48.8982 7.3017L49.8341 7.51425L49.8428 8.52228L49.6452 8.5981L49.6079 8.85788L50.0106 9.36749L50.0007 9.65461L50.422 9.72794L50.2505 9.79755L50.0429 9.79257L50.0914 10.2525L49.9348 10.5607L50.2828 10.6552L50.6097 11.2108L50.8881 11.7589L51.0783 11.7937L51.302 12.5967L51.128 12.9198L50.8496 12.972L50.6942 13.2927L50.4444 13.3859L50.6868 13.5836L50.5761 13.9353L50.4282 14.1081L49.4202 14.2734L49.3183 14.4748L49.0709 14.3057L48.2667 14.4064L48.1313 14.5953L48.3401 15.0614L48.0641 15.0092L46.5825 15.4965L46.1923 16.0521L46.3936 16.4411L45.9673 16.5468L45.8529 16.2683L44.9282 16.2124L44.7753 15.3684L44.073 15.0043L43.372 15.0788L42.8748 15.3635L42.1676 14.9434L41.837 14.9794L41.6257 14.3393L41.2901 13.3462L41.4392 13.3909L41.965 13.0752L42.4037 12.2648L42.0756 12.4637L41.7077 12.4463L41.7549 12.1778L41.5486 11.9441L41.607 11.3562L41.4181 11.176L41.3783 10.8603L41.0676 10.6154L41.3062 10.1456L41.2689 9.90941L41.0551 9.79257L41.2341 9.72546L41.1732 9.47687L41.2901 9.3476L40.9246 8.9598L41.0763 8.84048L41.0539 8.61302L40.8836 8.60307L40.7842 8.086L40.8501 7.8834L41.1223 7.8138L41.1881 7.48193L41.3709 7.50182L41.75 6.99718L41.8059 6.44655L42.0433 6.51616L43.0376 6.15695L42.9569 5.96677L42.5989 6.07988L42.4174 5.64858L42.6039 5.6088L42.7928 5.32168L43.2738 5.25456L43.4416 4.87298L43.7921 4.93015L44.3042 5.26699L44.3912 5.4062L44.1787 5.6809L43.7523 6.10226L44.1227 6.8356L44.7616 5.54293L44.907 5.30428L44.7566 4.61942L44.9717 4.39196L45.0624 4.59704L44.9406 4.70394L45.0835 4.75117L45.3048 4.44789L45.0823 4.16574L45.0214 3.81274L45.2948 3.72822L45.275 3.38641L45.5969 3.32178L45.9002 3.55918Z" fill="#00212E" stroke="#00212E" stroke-width="0.5"/>
</svg>
