<svg width="222" height="155" fill="none" viewBox="0 0 222 155" xmlns="http://www.w3.org/2000/svg">
  <g class="Frame 1171277044">
    <g class="usaLow 2">
      <g class="Group">
        <path fill="#00212E" stroke="#00212E" stroke-width=".5" d="m29.095 98.762.613 1.8.645-.632 2.018.504-.182.839 1.804.852 1.297-.234 2.504 1.394 2.379.506.942.527 1.693-.529 1.881 1.151 1.371.525-.062 13.222-.087 19.183 1.601.094 1.602.887 1.178 1.405 1.542 2.088 1.546-1.879 1.601-1.138.976 1.629 1.21 1.251 1.65 1.339 1.255 2.212 2.107 3.468 3.21 1.689.282 1.977-.829 1.627-1.119-1.072-1.68-.845-.76-2.708-2.469-2.378-1.15-2.954-1.647-.098-2.705.064-2.02-.854-3.524-3.297-1.582-.613-2.855-1.2-2.272.214-3.128-1.655-1.824-1.522-1.834.555.147 2.297-.92.133-1.958.499-1.563.94-1.911.472v-1.933l1.115-3.1 1.808-.816-.346-.871-2.242 1.587-1.377 2.024-2.678 1.964.985 1.734-1.916 2.067-2.026 1.044-1.864.677-.669 1.322-2.991 1.119-.837 1.356-2.321.907-1.151-.497-1.83.493-2.033.624-1.721.659-3.265.073-.137-.585 2.304-.908 1.954-.506 2.266-1.23 2.233.146 1.134-1.085 2.77-1.371.506-.551 1.469-.867.743-2.342 1.191-1.721-2.088.604-.425-.651-1.13.971-.74-1.832-.688 1.04-.269-1.71-1.922.894-1.006-.239.31-1.911.57-1.091-.756-1.379-2.223.083-.939-1.839-.863-1.052.494-1.798-.795-1.689 1.11-1.668 1.72-1.456.977-1.521 1.254.077.877.782 1.579-1.286.999.538 1.351-.766.073-1.574-.668-.784 1.356-1.042-.884-.162-1.685.363-.617.624-.942-1.015-2.11-.164-1.847-1.375-.196-1.497-1.157-2.447 2.331-.809 3.472-.793 1.109.293-.624 1.638 2.923.587-.598-2.37-1.317-1.715-.485-1.956-.843-1.804-1.444-1.591 1.235-1.604 2.256.506 1.995-1.187.728-1.65 1.661-1.395 1.275-.136 2.629-1.12 1.052.466 2.202-1.618 1.676 1.082Zm-28.3 19.626.66.916 1-.024.871 1.235 1.29.892-.23.312-1.318.32-.87-1.061-.35-.764-1.325-.255-.242-.401.515-1.17Zm5.292 15.19-1.108.212-.863-.888-.694-1.136 1.7-.079 1.157.64-.192 1.251Zm18.949 13.15-1.898.958-.76-.948-.037-1.522 1.717-.895.974-.356 1.095.367.594 1.082-1.685 1.314Z" class="US-AK"/>
        <path fill="#00212E" stroke="#00212E" stroke-width=".5" d="m163.929 79.041 1.734 5.866 1.529 4.682.769 1.442.463.82-.574.93-.045 1.568.333.884v.87l-.017.806.337.587.276.547-8.527.97-2.368.506-.032.375 1.068 1.094-.13.98-.244.696-3.799-.207-.751-7.416.068-7.809.175-6.331-.365-.912 4.997-.463 5.103-.485Z" class="US-AL"/>
        <path fill="#00212E" stroke="#00212E" stroke-width=".5" d="m147.53 75.505-.013.404-.352.709-.66.516-.099.812-.585.677.139 1.405-.425.48-.051.389-.69.405.028.703-.457 1.328-.448.303-.673.7-.371 1.023-.79 1.74-.033 1.156.536 1.25-.145.964-3.465.005-4.467.333-3.957.096.177-2.763h-.942l-.788.079-.219-.314.044-4.25.005-4.719-.865-5.11 4.753-.033 4.322-.137 4.123-.19 4.465.036.365.577-.408.548-.405.551-.212.496 2.563-.169Z" class="US-AR"/>
        <path fill="#00212E" stroke="#00212E" stroke-width=".5" d="m72.102 68.01-3.927 27.21-8.197-1.251-8.75-5.061-5.655-3.555.562-.837.534.117.64-.86-.572-.803.006-.743-.032-.882 1.004-.931.764-2.112 1.399-.733-.56-1.065-.324-1-.152-.898-.08-.688.008-.442.433-.882.002-.97.111-.937.214-1.02-.21-.722.387-.53.81.167.67.489.487.295.401-.673.199-.124.74-3.826 6.167 1.108 7.355 1.273 5.566.886Z" class="US-AZ"/>
        <path fill="#00212E" stroke="#00212E" stroke-width=".5" d="m36.77 36.057-3.795 14.018 5.32 8.136 5.297 7.843 5.178 7.422-.009.442.081.688.152.898.325 1 .56 1.065-1.4.733-.764 2.111-1.004.931.032.882-.006.743.572.803-.64.86-.534-.117-5.21-.604-4.649-.685-.072-1.858-1.096-2.85-3.5-3.865-1.53-.581-1.307-1.924-2.975-1.19-.78-1.029.244-2.69-2.355-5.738-1.198-7.375.453-1.036-1.155-2.022-1.608-4.745.694-3.92-1.085-3.124 2-3.579 1.147-3.995 14.617 4.352Z" class="US-CA"/>
        <path fill="#00212E" stroke="#00212E" stroke-width=".5" d="m100.086 56.362-.46 7.446-.476 7.093-3.726-.284-4.633-.395-6.57-.66-6.095-.734-6.023-.818 2.741-19.186 3.645.504 3.647.466 7.31.807 3.662.344 7.309.568-.323 4.693-.008.156Z" class="US-CO"/>
        <path fill="#00212E" stroke="#00212E" stroke-width=".5" d="m209.11 35.771.726 2.55-.027.743-1.495.655-1.995.773-2.489 1.815-.272-.542.658-.654-.38-.328-.711-3.645 2.703-.605 3.282-.762Z" class="US-CT"/>
        <path fill="#00212E" stroke="#00212E" stroke-width=".5" d="m193.924 55.51-.041-.282-.395-.342.252-.29.575.39-.391.524Z" class="US-DC"/>
        <path fill="#00212E" stroke="#00212E" stroke-width=".5" d="m198.88 49.424-.427.617.303.886 1.349 2.366 1.565 2.178-2.472.568-1.632-5.957.195-.436.279-.286.84.064Z" class="US-DE"/>
        <path fill="#00212E" stroke="#00212E" stroke-width=".5" d="m183.573 97.234 1.115 3.433 2.259 3.701 2.53 3.303.327 1.89 2.75 4.644.955 4.316-.173 4.392-1.721 1.185-2.296-.226-1.054-2.033-1.867-.856-2.987-3.842-2.673-3.243-.739-2.285.301-3.071-1.384-2.575-3.173-2.52-2.658-1.518-4.506 2.637-1.136-1.247-4.234-1.744-4.708 1.089.243-.696.13-.98-1.067-1.094.032-.376 2.368-.506 8.526-.969.794 1.228 4.239-.32 6.891-.25.439.796.474-.517-.249-1.678.476-.243.882.226.894-.051Z" class="US-FL"/>
        <path fill="#00212E" stroke="#00212E" stroke-width=".5" d="m174.027 77.772-.378.462-.506.999 1.185.647.732.192.963 1.412.602.781 1.568.929.367.555 1.074.634.649 1.07 1.446.765.465 1.05.327.493-.083.376.843.402.551.835.143.916.406.115.743.13-1.207 3.82-.343 2.879-.895.05-.882-.226-.476.244.25 1.678-.474.517-.44-.796-6.891.25-4.239.32-.794-1.228-.275-.547-.338-.587.017-.807v-.87l-.333-.883.045-1.568.575-.93-.464-.82-.769-1.442-1.528-4.683-1.734-5.865 3.062-.32 2.107-.317 4.929-.632Z" class="US-GA"/>
        <path fill="#00212E" stroke="#00212E" stroke-width=".5" d="m82.817 123.571-.649.021-.373-.508-.192-.929.478-.167.7.111.707.613-.036.348-.635.511Zm3.744 6.04-.141.743-.639-.292-.132-.519-.222-.102-.103-.022-.41-.348.225-1.345.525.342.8.072-.213 1.14.31.331Zm2.442 3.671-.755-.039-1.252-1.315.457-.301 1.55 1.655Zm.084.749.08.741.706.344.418 1.226-.194.284-.502.006-1.106-.64.303-.872-.389-.422.082-.658.341-.158.26.149Zm-1.781 9.522-.705.282-.572-1.049.826-1.132.48-1.712 1.49-.342.176-.73.314-.278.186.054 1.354 2.624.057.711-.277.506.215.256-.113.406.178.809-1.403.094-1.03-.45-1.176-.049Z" class="US-HI"/>
        <path fill="#00212E" stroke="#00212E" stroke-width=".5" d="m139.477 39.69.064.262.502.745-.297.385.067 1.018.168.425.272.758 1.193.4.391.72.231.356.439.222.203.512.59.352.399.396-.111 1.313-.602 1.138-.222.363-.814.329-1.236.31-.282.85.474.352.196.74-.433.865-.205.748-.908.768-.03.886-.525-.377-.743-.752-4.029.269-4.247.158-3.31.064-3.316.021-.246-.877.103-.867-.081-.835-.378-1.399-.242-.578-.262-.158-.026-1.121-.226-.803-.656-.916.011-.402-.226-.8-.158-.485.006-.444-.577-.543.293-.794.19-.777.088-.528-.451-.647.013-1.185h.47l3.867.005 4.806-.135 5.163-.186 4.64-.121Z" class="US-IA"/>
        <path fill="#00212E" stroke="#00212E" stroke-width=".5" d="m70.285 30.892.11.106L68.4 42.915l-10.626-1.913-10.576-2.344 2.05-8.482.615-1.275-.13-.683-.562-.47.188-.756.73-.963.949-.766.837-1.422.734-1.12.48-.541-.012-.763-.47-.514-.57-1.098.226-.84-.132-.796 1.469-6.662 1.424-6.111 3.11.709-.872 5.097.568 1.46-.192.863.435.897.654.617.386.858.598 1.675.705.873.984.25-.58.986-.581 1.194.025 1.287-.453.229-.217 1.232.502.596.779-.434.478-.604.38.213.272.737.087 1.589.483.715-.028 1.292.139.389.67.252.288.775.372 1.358.756-.547 1.09.382.178-.454 1.881.644.814-.017.653-.869.348.195.22.73.33.326Z" class="US-ID"/>
        <path fill="#00212E" stroke="#00212E" stroke-width=".5" d="M152.003 43.685v.012l.141 1.256 1.206 2.45.519 5.59.517 5.583-.301 1.382.341.324.276.805.032.652-.29.322-.201.824-.692 1.123-.419 1.344-.036.986.058.357-.376.709.367.427-.645.41-.837.478.237 1.042-.474.44-.969-.372-1.048-.181-.227.489.205.72-.743-.699-.408.156-.581-1.151.09-.734-.369-1.15-.397-.115-1.077-.993-.435.011-.801-.632-.585-.692.192-.865.308-.726.158-.905-.769-.732-.696.356-.442-.177-.109-.805-.367-.901-.359-.2-.901-.603-.758-.784-.671-.963-.403-1.43.262-1.22.03-.886.908-.768.205-.748.433-.865-.196-.74-.474-.353.282-.85 1.236-.31.813-.328.223-.363.602-1.138.111-1.314-.4-.395-.589-.352-.203-.512-.44-.222-.23-.357 3.657-.235 3.739-.275 2.759-.195-.002-.012h.013Z" class="US-IL"/>
        <path fill="#00212E" stroke="#00212E" stroke-width=".5" d="m163.192 46.482.526 4.354.551 4.682.388 3.334-.186.254.425.944-.117.375-.632.086-.538.495-.912-.068.028.933-.491.414-.404.884-.521.212-.677 1.524-.818-.329-.301-.563-.561 1.029-.368.58-.877-.482-.833.547-.243.497-1.247-.621-.771.604-1.019-.284.009.536-.506-.081.036-.986.419-1.344.691-1.123.201-.824.29-.322-.032-.652-.275-.805-.342-.324.301-1.382-.516-5.584-.519-5.59.363.295 1.228-.145.922-.628 3.888-.393 3.391-.425.049.376Z" class="US-IN"/>
        <path fill="#00212E" stroke="#00212E" stroke-width=".5" d="m127.954 71.602-3.408.04-6.991-.023-6.994-.16-3.882-.148-3.877-.192-3.652-.218.477-7.093.459-7.446h.006l6.5.37 4.839.194 8.566.172h5.129l.891.639.485-.015.115.7-.517.904.29.457.477 1.012.997.444.038 5.187.052 5.175Z" class="US-KS"/>
        <path fill="#00212E" stroke="#00212E" stroke-width=".5" d="m173.503 61.025.139.444.107.997.563.682.293.698.649.538.47.521.756-.026-1.311 1.66-1.113.738-.036.402-.333.566-.972.723-.279.515-.754.41-1.079.425-2.6.506-3.442.218-1.109.19-2.242.115-2.276.203-2.095.184-2.419.363-.145-.21-.771.08.079.757-5.573.4.837-.572.587-.449-.132-.754.085-.493-.205-.72.226-.489 1.049.182.969.372.474-.44-.237-1.042.837-.479.645-.41-.367-.427.376-.709-.058-.356.506.08-.008-.535 1.018.284.771-.604 1.247.621.243-.498.833-.546.878.482.367-.58.562-1.03.301.564.818.329.676-1.525.521-.211.404-.884.491-.414-.028-.933.912.068.538-.495.632-.086.118-.376-.425-.944.186-.254 1.296-.049.721.378 1.141.955.841.232.632.31.878-.256.7.183.769-.377.7-.186.397.628.771.356Z" class="US-KY"/>
        <path fill="#00212E" stroke="#00212E" stroke-width=".5" d="m142.441 90.469.308.262-.336.722.65.967-.137.611.579.807-.547.53-.141.929-.762.8-.323 1.04-.32 1.194-.485.57.229 1.209 3.711-.043 3.957-.241-.064.817-.225.818.31.598.594.528.207.796.113.478-.348 2.067 1.541 2.838-5.897.579-3.701-.807-2.517-.897-3.276-.513-3.707-.04-.367-.639.416-.728.622-.662-.013-.976-.318-.318.339-1.176.257-.536.358-1.796-.39-.656-.513-1.097-.384-1.121-.25-.748-.694-.533-.365-5.2 3.956-.096 4.468-.333 3.465-.004Z" class="US-LA"/>
        <path fill="#00212E" stroke="#00212E" stroke-width=".5" d="m211.414 30.836.67 2.486 1.856 2.144 1.477-.303-.86-1.593 1.345.728.111 1.411-2.14 1.44-1.71.386-.297-.686-.7-.382-.6-1.153-1.456.457-3.282.762-2.704.605-.072-3.432 2.878-.666 4.183-1.093.229-.562.64-.52.432-.029Z" class="US-MA"/>
        <path fill="#00212E" stroke="#00212E" stroke-width=".5" d="m197.566 50.082 1.631 5.957 2.473-.568.308.379-1.057 1.949-.85.271-.22.391-2.404-1.832-.944-3.513-.242 1.798.949 4.083-2.544-.925-.358-.619-.564.333-.549-.156.203-1.144.54-.579-.015-.397.391-.523-.574-.39-.252.29-.799-.385-.839-.124.164-.566-.561-.256-.575-.049-.412-.547-.585-.587-1.211-.15-.636.498-.333.432-1.123.019-.397.591-.696.327-.532.666-.489.532-.412-2.424 3.41-.638 1.161-.237 2.597-.545 3.132-.638 3.214-.724Z" class="US-MD"/>
        <path fill="#00212E" stroke="#00212E" stroke-width=".5" d="m211.696 29.622-.348.149-.344-.607-.826-.514-.002-.498-2.838-8.402 1.134-1.204.551-2.469-.075-3.942 1.388-4.272 1.435.91 1.887-1.459 1.843.897 2.033 6.348 2.987 1.928.692 1.954-2.746 2.513-2.902 2.104-2.987 3.944-.882 2.62Z" class="US-ME"/>
        <path fill="#00212E" stroke="#00212E" stroke-width=".5" d="m161.166 22.893 1.136.006-.363.536 1.928 1.71-2.917.823-.115-.009-2.721-.192-2.534 1.264-2.266.675-1.71 3.284-.092-.026-.002.009-.51-.532.181-.805-.758.026.085-.803.173-.41-.363-.656-.83-.237-.257-.784-.666-.006-.958.073-2.023-.724-3.019-.666-.329-.86-.538-.127-.004-.015-.203.113-.032-.023.03.021L144 23.145l2.562-1.783 2.795-1.864-.843 2.667 1.95.454 2.538 1.63 2.866-1.395 3.237-.803.867 1.275 1.049.069.145-.502Zm9.726 16.09-.079.076-1.277 2.887-.542 1.794-.97 2.026-1.351.229-1.64.215-1.841.27-.049-.377-3.391.425-3.888.393.662-.743 1.208-2.505-.245-3.194L156 37.616l-.04-2.07.653-2.47.684-1.721 1.242-1.315.508 1.586.325-2.46.694-.583.252-1.898 3.007.602 2.775 1.542.588 2.152-.007 2.242-1.646 2.191.342 1.19.7-.054 1.864-2.421 1.356.294 1.044 2.695.472 1.943.079-.079Z" class="US-MI"/>
        <path fill="#00212E" stroke="#00212E" stroke-width=".5" d="m143.68 17.373-.002.002-3.259 1.835-2.248 2.088-2.169 2.172.021.717-.876.31.148 2.737h-.107l-.82.572-.709.496-.455.914.752.888-.218 1.234.045 1.322-.068 1.074 1.048.9.416.027 1.156.645.405.312.269.512.921.794 1.221.66.135.395.07 1.168.122.543-4.64.121-5.163.186-4.807.135-3.867-.005.07-4.544-.395-4.665-.597-.385-.334-.756.19-.66.769-.54.064-.709.007-.888-.207-.743-.278-.794-.156-.995-.032-1.115-.111-.269-.124-1.437-.006-.66-.06-.587-.156-.995-.391-1.012-.371-.904-.045-.892-.03-.963.12-.628.027-.572-.294-.713-.041-.485 6.711.02-.01-1.895 1.091-.038.611 2.699 1.027.818 2.284.252 3.359.676 3.244 1.388 2.622-.779 4.119 1.016h.002Z" class="US-MN"/>
        <path fill="#00212E" stroke="#00212E" stroke-width=".5" d="m139.527 54.904-.263 1.219.404 1.43.671.963.758.784.901.602.358.201.368.901.109.805.442.177.696-.356.768.732-.158.905-.307.726-.192.865.585.692.801.632.435-.01 1.076.992.397.116.37 1.148-.09.735.581 1.151.408-.156.743.698-.085.494.132.753-.587.449-.837.572-.069.474-.19.707-.222 1.2-2.562.169.211-.496.406-.55.408-.55-.365-.576-4.465-.036-4.124.19-4.321.136-4.754.035.009-2.225h-.019l-.051-5.176-.039-5.187-.997-.444-.476-1.012-.291-.457.517-.904-.115-.7-.485.015-.89-.638-.492-1.032-.578-.617-.626-.764-.075-.4 3.317-.021 3.309-.064 4.247-.158 4.03-.27.743.753.525.377Z" class="US-MO"/>
        <path fill="#00212E" stroke="#00212E" stroke-width=".5" d="m153.829 79.989.365.911-.175 6.332-.068 7.808.752 7.416-2.503 1.305-2.441.1-.113-.478-.207-.796-.594-.528-.309-.598.224-.817.064-.818-3.957.241-3.711.043-.228-1.209.484-.57.321-1.194.322-1.04.762-.8.141-.93.547-.529-.579-.807.137-.61-.649-.968.335-.722-.307-.262.145-.965-.536-1.25.032-1.155.79-1.74.372-1.023.672-.7.449-.303.457-1.329-.028-.702.689-.406.052-.388 3.92-.274 4.373-.245Z" class="US-MS"/>
        <path fill="#00212E" stroke="#00212E" stroke-width=".5" d="m95.298 26.965-.572 4.437-5.73-.614-6.181-.703-5.32-.78-6.725-1.016-.393 2.443-.092.16-.329-.327-.22-.73-.348-.194-.653.869-.814.017-1.881-.645-.177.455-1.091-.382-.756.546-.372-1.358-.288-.775-.67-.252-.14-.388.028-1.292-.482-.716-.088-1.588-.271-.737-.38-.213-.478.604-.78.433-.502-.596.218-1.232.453-.228-.026-1.288.581-1.193.58-.987-.983-.25-.705-.873-.598-1.674-.386-.858-.654-.617-.435-.897.192-.863-.568-1.46.87-5.098 9.488 1.959 9.55 1.644 9.597 1.33 9.637 1.014-.752 8.98-.354 5.933Z" class="US-MT"/>
        <path fill="#00212E" stroke="#00212E" stroke-width=".5" d="m200.648 65.136 1.61 4.606-1.689 4.063-3.457 2.65-2.898 3.083-1.352.558-5.276-3.682-4.386.72-.083-.56-.752-.706-.344.382-.1-.416-1.877.079-3.636.525-2.007 1.136-.374.198-4.928.632-.045-1.029.796-.412.203-.55.48-.658.78-.235.892-.348.837-.54.327-.479.69-.491-.071-.344.887-.794.378.376 1.3-1.121.685-.009.472-.897.756-.33-.149-.678.002-.617 6.536-.886 7.657-1.426 4.044-.878 4.092-.922Z" class="US-NC"/>
        <path fill="#00212E" stroke="#00212E" stroke-width=".5" d="m118.62 13.216.04.484.295.713-.028.573-.119.627.029.963.045.893.372.903.391 1.012.155.995.06.588.007.66.124 1.437.111.269.032 1.114.155.995.278.795.207.743-.006.888-6.481.16-5.53-.21-6.972-.369-6.487-.484.354-5.934.752-8.98 11.195.8 11.021.364Z" class="US-ND"/>
        <path fill="#00212E" stroke="#00212E" stroke-width=".5" d="m120.969 45.045.158.484.226.801-.01.402.655.916.226.803.026 1.12.263.159.241.578.378 1.399.081.835-.102.867.245.877.075.4.626.764.578.617.491 1.032h-5.129l-8.567-.173-4.838-.195-6.5-.37h-.006l.008-.155.323-4.693-7.31-.568.829-9.648 6.94.54 5.338.317 7.143.281.905.639 1.305.419.311-.216.85.034 1.277-.028.916.636.978.415.16.405.308.235.602.07Z" class="US-NE"/>
        <path fill="#00212E" stroke="#00212E" stroke-width=".5" d="m211.695 29.621-.282 1.215-.431.028-.641.52-.228.562-4.183 1.094-.406-.415.111-.68-.243-1.254.028-.323-.18-1.14.124-1.038.169-.484.104-1.222-.126-.777-.01-.487.589-.403.604-.752-.027-.62-.434-.604.039-1.385-.007-.003.011-1.249 1.061-.454 2.838 8.402.002.497.826.515.344.606.348-.149Z" class="US-NH"/>
        <path fill="#00212E" stroke="#00212E" stroke-width=".5" d="m202.945 42.651-.666 2.592.95-.015.211 3.543-1.789 4.264-.56-1.147-.862-.055-1.164-1.032-.31.127-.303-.887.427-.617.645-.604.192-.355.713-.826.344-.623-1.424-.953-.179-.485-.425-.055-.16-.762.284-.675-.336-.57.474-.549.374-1.202.384-.312 3.18 1.198Z" class="US-NJ"/>
        <path fill="#00212E" stroke="#00212E" stroke-width=".5" d="m95.424 70.617-.179 2.396-.978 12.664-.705 9.122-3.839-.316-7.44-.726-3.713-.418-.004.418.374.827-7.117-.895-.322 1.986-3.325-.455 3.927-27.21 6.023.818 6.094.734 6.57.66 4.634.395Z" class="US-NM"/>
        <path fill="#00212E" stroke="#00212E" stroke-width=".5" d="m57.774 41.002-4.76 23.74-.74 3.827-.2.124-.4.673-.487-.295-.67-.489-.81-.166-.387.53.21.72-.214 1.022-.11.937-.003.97-.434.881-5.178-7.422-5.297-7.843-5.32-8.136 3.795-14.018 10.425 2.614.004-.013 10.576 2.344Z" class="US-NV"/>
        <path fill="#00212E" stroke="#00212E" stroke-width=".5" d="m203.052 33.706.073 3.432.711 3.645.38.328-.657.654.271.542 4.864-1.934 1.288.604-4.617 2.716-2.278.583-.141-1.625-3.18-1.198-.653-.196-.681-.186-.391-.632-.028-.542-.521-.33-.939-.563-4.798 1.061-5.161 1.07-5.544 1.05-.235-1.294 2.505-3.405-.154-.444-.002-.013-.739-1.288 1.702-.948 2.768-.367 2.927-.199 2.255-2.13-.613-1.803-.553-.653-.015-.005.002-.002.015.007 2.787-4.032 1.317-1.23 5.093-1.285.175.973.019.643.438 1.38.37.672-.094 1.061.625 1.154-.045.738.109.163.5-.09.845 3.918Z" class="US-NY"/>
        <path fill="#00212E" stroke="#00212E" stroke-width=".5" d="m179.461 49.155-.463.325.258.58.017 1.13-.166 1.307-.184 1.091.022.502-.825 1.258-.39.303-.479.216-.465-.034-.699.954-.014.886-.043.485-.303.241-.131-.525-.523-.039-.367 1.12.102 1.07-.388.738-.916.263-.771-.357-.397-.628-.701.186-.768.378-.701-.184-.877.257-.632-.31-.842-.233-1.14-.954-.722-.378-1.296.049-.388-3.333-.551-4.683-.526-4.354 1.841-.27 1.64-.215 1.352-.23v.002l2.363.677 1.835-.022 2.509-1.044 1.909-1.67 1.729-.954 1.091 6.4Z" class="US-OH"/>
        <path fill="#00212E" stroke="#00212E" stroke-width=".5" d="m127.964 73.827.865 5.11-.004 4.718-.045 4.25-1.759-.927-1.141-.504-.918.335-1.424-.045-.844.009-.694.395-.679.2-.593-.24-1.356.254-.606-.816-.641.694-1.102-.33-1.121-.772-1.226.461-.504-1.18-1.883.066-1.194-.297-1.34-.391-.562-1.027-1.07.284-.638-.423-.936-.561.205-4.626.208-4.742-3.908-.194-3.908-.235-3.9-.28.178-2.396 3.727.284 3.651.218 3.878.192 3.882.147 6.993.16 6.991.024 3.408-.04h.019l-.009 2.225Z" class="US-OK"/>
        <path fill="#00212E" stroke="#00212E" stroke-width=".5" d="m52.036 19.805.57 1.098.47.515.013.762-.48.542-.735 1.12-.837 1.421-.948.767-.73.963-.188.756.561.47.13.683-.614 1.275-2.05 8.481-.004.013-10.425-2.614-14.616-4.351-.27-2.947 2.632-4.623 1.906-5.148 2.821-6.827.69.148.98.333.655.668.86.557.334 1.076-.152.81.045.728.705.406.811.226 1.416-.122.788.066 1.117.539.448.392.737.028.856-.17 1.47.471 1.364-.19.745-.211.786.429 1.31-.186 6.83 1.646Z" class="US-OR"/>
        <path fill="#00212E" stroke="#00212E" stroke-width=".5" d="m199.766 41.453-.384.312-.374 1.202-.474.549.335.57-.284.675.16.762.425.055.179.485 1.425.953-.344.623-.713.826-.192.355-.645.604-.839-.064-.28.286-.194.436-3.214.724-3.133.638-2.596.545-1.162.237-3.41.638-3.835.684-.756-4.393-1.091-6.4 2.439-1.855.006-.008.235 1.293 5.543-1.05 5.161-1.07 4.798-1.061.94.564.521.329.028.542.39.632.681.186.654.196Z" class="US-PA"/>
        <path fill="#00212E" stroke="#00212E" stroke-width=".5" d="m212.163 37.535-2.355 1.529.027-.743-.726-2.55 1.457-.457.6 1.153.7.382.297.686Z" class="US-RI"/>
        <path fill="#00212E" stroke="#00212E" stroke-width=".5" d="m192.862 80.096-.929 3.654-2.974 3.612-3.835 3.174-.743-.13-.406-.116-.143-.916-.551-.835-.843-.401.083-.376-.327-.493-.465-1.051-1.446-.764-.649-1.07-1.074-.634-.367-.556-1.568-.928-.602-.782-.963-1.411-.732-.193-1.185-.647.506-.999.378-.461.373-.199 2.007-1.136 3.637-.525 1.877-.079.1.416.344-.382.752.707.083.56 4.386-.72 5.276 3.681Z" class="US-SC"/>
        <path fill="#00212E" stroke="#00212E" stroke-width=".5" d="M121.001 40.127h-.47l-.013 1.185.451.647-.088.527-.19.778-.293.794.577.542-.006.444-.603-.07-.307-.235-.16-.406-.978-.414-.916-.636-1.277.028-.85-.035-.312.216-1.304-.418-.906-.639-7.142-.282-5.339-.316-6.94-.54.79-9.895.573-4.437 6.487.485 6.972.369 5.53.21 6.481-.16-.064.708-.769.54-.19.66.333.756.598.384.395 4.666-.07 4.544Z" class="US-SD"/>
        <path fill="#00212E" stroke="#00212E" stroke-width=".5" d="m170.604 70.318 5.771-.67 1.944-.4-.003.617.15.677-.756.331-.472.897-.685.008-1.301 1.121-.378-.375-.886.794.071.344-.69.49-.327.48-.837.54-.892.347-.78.235-.48.658-.203.55-.797.413.045 1.03-2.107.315-3.062.32-5.104.485-4.996.464-4.373.245-3.921.273.425-.48-.139-1.405.585-.677.099-.811.659-.517.353-.709.013-.404.222-1.2.19-.706.068-.474 5.573-.4-.079-.758.771-.079.145.21 2.419-.363 2.095-.184 2.276-.203 2.243-.115 1.108-.19 3.442-.218 2.601-.506Z" class="US-TN"/>
        <path fill="#00212E" stroke="#00212E" stroke-width=".5" d="m128.779 87.904.22.314.788-.079h.942l-.177 2.763.365 5.2.694.534.25.747.384 1.121.512 1.097.391.656-.359 1.796-.256.536-.339 1.176.318.319.013.975-.622.662-.416.728.367.639-3.634 1.097-3.886 3.673-4.316 2.114-2.404 2.325-1.04 2.202-.094 3.404.186 2.376.826 1.698-1.751.122-3.156-1.156-3.436-1.635-1.163-2.364-.84-3.487-2.464-2.913-1.364-2.946-1.984-3.468-2.9-2.125-3.49-.138-2.988 3.659-3.44-1.761-2.076-1.674-.802-2.78-1.151-2.678-2.27-2.394-1.963-1.764-1.315-1.891-.374-.827.005-.418 3.713.418 7.44.726 3.839.316.704-9.122.978-12.664 3.901.28 3.908.234 3.908.195-.207 4.742-.205 4.625.935.562.638.423 1.07-.284.562 1.027 1.341.39 1.193.297 1.884-.066.504 1.18 1.225-.46 1.121.773 1.102.329.641-.695.606.816 1.356-.254.594.241.679-.2.694-.395.843-.009 1.424.045.919-.335 1.14.504 1.759.926Z" class="US-TX"/>
        <path fill="#00212E" stroke="#00212E" stroke-width=".5" d="M74.844 48.824 72.102 68.01l-5.567-.886-7.354-1.273-6.166-1.108 4.76-23.74L68.4 42.915l-.795 4.653 7.239 1.255Z" class="US-UT"/>
        <path fill="#00212E" stroke="#00212E" stroke-width=".5" d="m190.878 53.507.573.051.563.254-.166.566.839.124.801.384.392.342.041.282.015.397-.538.579-.203 1.144.549.154.564-.333.358.621 2.932 2.14 1.226 2.1.074.129 1.751 2.693-4.091.922-4.042.878-7.659 1.426-6.536.888-1.944.4-5.773.67 1.08-.427.754-.41.277-.517.972-.721.335-.566.036-.402 1.113-.739 1.309-1.66.297.785.497.365.643.293 1.112-.771.515.26 1.358-.636.011-.442.459.096.412-.43.542-.023.541-.474.006-.45-.164-.54.367-.916.619-.752.06-.737.491-.963.171-1.102.564.278.619.237.504-.284.098-.468.256-.66.286-.753.308.147.433-.72.607-.762.367-.561.043-1.322 2.141.91.235-.974Zm8.403 8.432.386.111 1.256-4.251-.852.271-.22.389-.57 3.48Z" class="US-VA"/>
        <path fill="#00212E" stroke="#00212E" stroke-width=".5" d="m205.93 33.04-2.878.666-.846-3.918-.499.09-.109-.162.045-.74-.626-1.152.094-1.062-.37-.672-.437-1.38-.02-.642-.175-.974 6.156-1.64.007.002-.039 1.386.434.604.028.62-.605.751-.589.404.011.487.126.777-.105 1.221-.169.485-.123 1.038.179 1.14-.028.322.244 1.254-.111.681.405.414Z" class="US-VT"/>
        <path fill="#00212E" stroke="#00212E" stroke-width=".5" d="M55.024 5.396 53.6 11.508l-1.47 6.662.133.796-.226.84-6.83-1.647-1.31.186-.786-.43-.745.212-1.365.19-1.469-.472-.856.17-.737-.027-.448-.393-1.117-.538-.788-.066-1.416.122-.81-.227-.706-.405-.044-.729.151-.809-.333-1.076-.86-.557-.656-.669-.98-.333-.69-.147.363-4.153.925-4.66 4.114 2.232.289 4.104 1.161-1.004.647-4.008L36.438.34l9.25 2.686 9.336 2.37Z" class="US-WA"/>
        <path fill="#00212E" stroke="#00212E" stroke-width=".5" d="m141.459 24.539.032.023.201-.115.004.015.54.128.329.86 3.017.665 2.025.724.956-.07.667.006.256.783.833.237.363.656-.173.41-.086.803.758-.026-.181.805.51.532.002-.009.092.026-.028.049-1.193 1.873.521.531 2.237-3.363.515-.068-1.428 3.905-.475 3.449-.42 2.8.658 2.329.012 1.187h-.012l.002.013-2.759.194-3.739.276-3.658.234-.391-.72-1.193-.398-.271-.758-.169-.425-.066-1.019.296-.384-.501-.745-.064-.263-.122-.542-.071-1.169-.134-.395-1.221-.66-.921-.794-.269-.512-.406-.312-1.155-.645-.416-.027-1.049-.9.069-1.074-.045-1.321.218-1.235-.752-.888.455-.914.709-.495.82-.572h.107l-.148-2.738.876-.31 3.312-1.184 2.124 1.537Z" class="US-WI"/>
        <path fill="#00212E" stroke="#00212E" stroke-width=".5" d="m184.052 52.864.412 2.424.489-.532.532-.666.696-.327.397-.591 1.124-.02.333-.43.636-.498 1.211.15.585.586.412.547-.233.976-2.142-.91-.042 1.322-.368.562-.606.762-.433.72-.308-.148-.288.752-.256.662-.099.465-.501.284-.622-.237-.564-.277-.17 1.101-.492.963-.059.737-.617.752-.37.916.16.549-.006.45-.538.474-.543.024-.412.429-.459-.098-.01.442-1.358.636-.515-.263-1.113.771-.64-.292-.5-.366-.294-.785-.756.025-.47-.52-.649-.539-.293-.698-.564-.681-.106-.997-.139-.445.916-.262.389-.739-.103-1.07.367-1.119.524.039.13.525.303-.241.043-.485.015-.886.698-.955.465.035.479-.216.39-.303.825-1.258-.022-.502.184-1.091.166-1.307-.017-1.13-.258-.58.463-.325.756 4.393 3.835-.684Z" class="US-WV"/>
        <path fill="#00212E" stroke="#00212E" stroke-width=".5" d="m94.726 31.402-.79 9.895-.829 9.648-3.662-.344-7.309-.807-3.647-.466-3.645-.504-7.238-1.255.794-4.653 1.994-11.917-.109-.107.092-.16.393-2.443 6.726 1.016 5.32.78 6.181.702 5.729.615Z" class="US-WY"/>
      </g>
    </g>
    <g class="cities">
      <g class="Los Angeles">
        <path fill="#C94FB3" d="m29.865 68.306 4.584 4.584-4.584 4.584-4.584-4.584z" class="Rectangle 565"/>
      </g>
      <g class="San Diego">
        <path fill="#C94FB3" d="m38.865 76.34 4.584 4.584-4.584 4.584-4.584-4.584z" class="Rectangle 565"/>
      </g>
      <g class="Dallas">
        <path fill="#C94FB3" d="m120.865 92.306 4.584 4.584-4.584 4.584-4.584-4.584z" class="Rectangle 565"/>
      </g>
      <g class="Houston">
        <path fill="#C94FB3" d="m124.865 104.34 4.584 4.584-4.584 4.584-4.584-4.584z" class="Rectangle 565"/>
      </g>
      <g class="New York">
        <path fill="#C94FB3" d="m201.865 38.34 4.584 4.584-4.584 4.584-4.584-4.584z" class="Rectangle 565"/>
      </g>
      <g class="New Jersey">
        <path fill="#C94FB3" d="m200.865 44.34 4.584 4.584-4.584 4.584-4.584-4.584z" class="Rectangle 565"/>
      </g>
      <g class="Washington DC">
        <path fill="#C94FB3" d="m192.865 54.34 4.584 4.584-4.584 4.584-4.584-4.584z" class="Rectangle 565"/>
      </g>
      <g class="Boston">
        <path fill="#C94FB3" d="m211.865 31.306 4.584 4.584-4.584 4.584-4.584-4.584z" class="Rectangle 565"/>
      </g>
      <g class="Birmingham, Michigan">
        <path fill="#C94FB3" d="m163.865 40.306 4.584 4.584-4.584 4.584-4.584-4.584z" class="Rectangle 565"/>
      </g>
      <g class="Chicago">
        <path fill="#C94FB3" d="m147.865 41.34 4.584 4.584-4.584 4.584-4.584-4.584z" class="Rectangle 565"/>
      </g>
      <g class="San Francisco">
        <path fill="#C94FB3" d="m20.865 51.306 4.584 4.584-4.584 4.584-4.584-4.584z" class="Rectangle 565"/>
      </g>
    </g>
  </g>
</svg>
