<svg width="222" height="155" viewBox="0 0 222 155" fill="none" xmlns="http://www.w3.org/2000/svg">
<path d="M29.0951 98.7628L29.7079 100.563L30.3528 99.9308L32.3706 100.435L32.1891 101.274L33.9935 102.126L35.2896 101.891L37.7943 103.285L40.173 103.791L41.1147 104.319L42.808 103.789L44.6892 104.94L46.0601 105.465L45.9981 118.687L45.9106 137.871L47.5121 137.965L49.1135 138.851L50.2922 140.256L51.8339 142.344L53.3799 140.465L54.9814 139.327L55.9572 140.956L57.1679 142.208L58.8164 143.547L60.0719 145.759L62.1795 149.226L65.3888 150.915L65.6707 152.893L64.8422 154.52L63.7233 153.448L62.0428 152.602L61.2826 149.895L58.8142 147.516L57.6633 144.563L56.017 144.465L53.3116 144.529L51.2916 143.675L47.7683 140.378L46.186 139.765L43.3311 138.565L41.0592 138.778L37.931 137.124L36.1074 135.601L34.2732 136.156L34.4205 138.454L33.5002 138.586L31.5421 139.086L29.9791 140.025L28.068 140.497V138.565L29.1826 135.464L30.9912 134.649L30.6453 133.778L28.4032 135.364L27.0259 137.388L24.3483 139.353L25.3326 141.087L23.4173 143.154L21.3909 144.198L19.5268 144.875L18.8584 146.196L15.8668 147.315L15.0298 148.671L12.7087 149.579L11.5578 149.081L9.72784 149.575L7.69503 150.198L5.97397 150.858L2.70909 150.93L2.57243 150.345L4.87643 149.438L6.83023 148.932L9.09579 147.702L11.3293 147.847L12.4632 146.762L15.2327 145.391L15.7387 144.841L17.2078 143.974L17.9509 141.631L19.1424 139.91L17.0541 140.514L16.6291 139.863L15.4996 140.835L14.7586 139.003L14.0711 140.042L13.802 138.332L11.8802 139.227L10.8745 138.988L11.1841 137.077L11.7542 135.985L10.9983 134.606L8.77549 134.689L7.83596 132.851L6.9733 131.798L7.46655 130L6.67222 128.311L7.78258 126.643L9.5015 125.187L10.4795 123.667L11.7329 123.744L12.6105 124.525L14.1885 123.24L15.1878 123.778L16.5395 123.011L16.6121 121.438L15.9437 120.654L17.2996 119.612L16.4156 119.45L14.7309 119.813L14.1138 120.436L13.1721 119.422L11.0624 119.257L9.21537 117.882L9.01892 116.385L7.86158 113.938L10.1933 113.129L13.6653 112.337L14.7736 112.629L14.1501 114.267L17.0733 114.854L16.4754 112.484L15.1579 110.77L14.6732 108.814L13.8298 107.009L12.3863 105.419L13.6205 103.815L15.8775 104.321L17.8719 103.134L18.6 101.483L20.2613 100.089L21.5361 99.9521L24.1646 98.8332L25.2173 99.2987L27.4188 97.6802L29.0951 98.7628ZM0.795859 118.388L1.45567 119.304L2.45499 119.281L3.3262 120.515L4.61592 121.408L4.38531 121.719L3.06782 122.04L2.19875 120.978L1.84856 120.214L0.52254 119.96L0.28125 119.559L0.795859 118.388ZM6.08715 133.579L4.97892 133.79L4.11626 132.902L3.42228 131.766L5.12199 131.687L6.27932 132.328L6.08715 133.579ZM25.0358 146.728L23.1376 147.687L22.3774 146.739L22.3411 145.216L24.0579 144.322L25.0316 143.965L26.127 144.332L26.7206 145.415L25.0358 146.728Z" fill="#00212E" stroke="#00212E" stroke-width="0.5"/>
<path d="M163.929 79.041L165.663 84.9067L167.192 89.5894L167.961 91.0308L168.424 91.8507L167.85 92.7817L167.805 94.349L168.138 95.233V96.1021L168.121 96.9093L168.458 97.4965L168.734 98.0431L160.207 99.0125L157.839 99.5186L157.807 99.8944L158.875 100.988L158.745 101.968L158.501 102.664L154.702 102.457L153.951 95.0409L154.019 87.232L154.194 80.9009L153.829 79.9891L158.826 79.5257L163.929 79.041Z" fill="#00212E" stroke="#00212E" stroke-width="0.5"/>
<path d="M147.53 75.505L147.517 75.9086L147.165 76.6175L146.505 77.1343L146.406 77.9457L145.821 78.6226L145.96 80.0276L145.535 80.5081L145.484 80.8967L144.794 81.3024L144.822 82.0049L144.365 83.3331L143.917 83.6363L143.244 84.3367L142.873 85.3595L142.083 87.0997L142.05 88.2549L142.586 89.5041L142.441 90.4693L138.976 90.4735L134.509 90.8066L130.552 90.9027L130.729 88.1396H129.787L128.999 88.2186L128.78 87.9048L128.824 83.6555L128.829 78.9365L127.964 73.8267L132.717 73.7925L137.039 73.6559L141.162 73.4658L145.627 73.5021L145.992 74.0787L145.584 74.6274L145.179 75.1783L144.967 75.6737L147.53 75.505Z" fill="#00212E" stroke="#00212E" stroke-width="0.5"/>
<path d="M72.1023 68.0102L68.1755 95.2204L59.978 93.9691L51.2275 88.9084L45.5732 85.3531L46.1348 84.5161L46.6687 84.6335L47.3092 83.773L46.737 82.9701L46.7434 82.227L46.7114 81.3452L47.715 80.4142L48.4794 78.3024L49.878 77.5699L49.3186 76.5044L48.994 75.5051L48.8424 74.6061L48.7613 73.9186L48.7698 73.4766L49.2033 72.5947L49.2054 71.6253L49.3164 70.6879L49.53 69.6672L49.3207 68.9454L49.7072 68.4159L50.5165 68.5824L51.187 69.0714L51.6738 69.3661L52.0752 68.6935L52.2738 68.5696L53.0148 64.7432L59.1815 65.8514L66.5355 67.124L72.1023 68.0102Z" fill="#00212E" stroke="#00212E" stroke-width="0.5"/>
<path d="M36.7695 36.0573L32.975 50.0756L38.2941 58.2111L43.5918 66.0541L48.7699 73.4764L48.7613 73.9184L48.8425 74.606L48.9941 75.5049L49.3187 76.5043L49.8781 77.5698L48.4795 78.3022L47.715 80.414L46.7114 81.345L46.7435 82.2269L46.7371 82.97L47.3093 83.7729L46.6687 84.6334L46.1349 84.5159L40.9248 83.9116L36.2762 83.2262L36.2036 81.3685L35.1082 78.5179L31.6084 74.653L30.0774 74.0722L28.7706 72.1482L25.7961 70.9589L25.0167 69.9297L25.2602 67.2392L22.9049 61.5016L21.707 54.1263L22.1597 53.0906L21.0045 51.0685L19.3966 46.3239L20.0906 42.4034L19.0059 39.2795L21.0066 35.7007L22.1533 31.7056L36.7695 36.0573Z" fill="#00212E" stroke="#00212E" stroke-width="0.5"/>
<path d="M100.086 56.3618L99.6266 63.8077L99.1505 70.9011L95.4243 70.6171L90.7907 70.2221L84.2204 69.5623L78.1262 68.8278L72.1025 68.0099L74.8443 48.8242L78.4892 49.3281L82.1363 49.7936L89.4455 50.6008L93.1075 50.9446L100.417 51.5126L100.094 56.206L100.086 56.3618Z" fill="#00212E" stroke="#00212E" stroke-width="0.5"/>
<path d="M209.11 35.7712L209.836 38.3208L209.809 39.0639L208.314 39.7194L206.319 40.4924L203.83 42.3074L203.558 41.765L204.216 41.1116L203.836 40.7828L203.125 37.1378L205.828 36.5335L209.11 35.7712Z" fill="#00212E" stroke="#00212E" stroke-width="0.5"/>
<path d="M193.924 55.5101L193.883 55.2282L193.488 54.8866L193.74 54.5962L194.315 54.9869L193.924 55.5101Z" fill="#00212E" stroke="#00212E" stroke-width="0.5"/>
<path d="M198.88 49.4244L198.453 50.0415L198.756 50.9277L200.105 53.2936L201.67 55.4716L199.198 56.0396L197.566 50.0821L197.761 49.6465L198.04 49.3604L198.88 49.4244Z" fill="#00212E" stroke="#00212E" stroke-width="0.5"/>
<path d="M183.573 97.2342L184.688 100.668L186.947 104.368L189.477 107.672L189.804 109.561L192.554 114.206L193.509 118.521L193.336 122.913L191.615 124.098L189.319 123.872L188.265 121.839L186.398 120.983L183.411 117.142L180.738 113.898L179.999 111.613L180.3 108.543L178.916 105.968L175.743 103.448L173.085 101.93L168.579 104.567L167.443 103.32L163.209 101.575L158.501 102.664L158.744 101.968L158.874 100.988L157.807 99.8948L157.839 99.519L160.207 99.0129L168.733 98.0435L169.527 99.2713L173.766 98.951L180.657 98.7011L181.096 99.4976L181.57 98.9809L181.321 97.3025L181.797 97.0591L182.679 97.2854L183.573 97.2342Z" fill="#00212E" stroke="#00212E" stroke-width="0.5"/>
<path d="M174.027 77.7725L173.649 78.2337L173.143 79.233L174.328 79.88L175.06 80.0722L176.023 81.4836L176.625 82.2651L178.193 83.194L178.56 83.7492L179.634 84.3834L180.283 85.4532L181.729 86.2176L182.194 87.2682L182.521 87.7614L182.438 88.1372L183.281 88.5387L183.832 89.3736L183.975 90.2896L184.381 90.4049L185.124 90.5352L183.917 94.3552L183.574 97.2336L182.679 97.2849L181.797 97.0585L181.321 97.302L181.571 98.9803L181.097 99.4971L180.657 98.7006L173.766 98.9504L169.527 99.2707L168.733 98.0429L168.458 97.4963L168.12 96.9091L168.137 96.1019V95.2329L167.804 94.3488L167.849 92.7815L168.424 91.8505L167.96 91.0306L167.191 89.5892L165.663 84.9065L163.929 79.0408L166.991 78.7205L169.098 78.4045L174.027 77.7725Z" fill="#00212E" stroke="#00212E" stroke-width="0.5"/>
<path d="M82.8175 123.571L82.1684 123.592L81.7947 123.084L81.6025 122.155L82.0808 121.989L82.7812 122.1L83.488 122.713L83.4517 123.061L82.8175 123.571ZM86.5607 129.612L86.4198 130.355L85.7813 130.062L85.6489 129.543L85.4269 129.441L85.3244 129.42L84.9144 129.072L85.1386 127.726L85.6639 128.068L86.4646 128.141L86.2511 129.281L86.5607 129.612ZM89.0035 133.282L88.2476 133.244L86.9963 131.929L87.4533 131.628L89.0035 133.282ZM89.0868 134.032L89.1679 134.773L89.8726 135.117L90.2911 136.342L90.0968 136.626L89.595 136.633L88.4889 135.992L88.7921 135.121L88.4035 134.698L88.4846 134.04L88.8263 133.882L89.0868 134.032ZM87.3059 143.553L86.6013 143.835L86.029 142.787L86.8554 141.655L87.3358 139.942L88.8241 139.601L89.0014 138.87L89.3153 138.593L89.501 138.646L90.8548 141.271L90.9125 141.982L90.6349 142.488L90.8505 142.744L90.7374 143.15L90.9146 143.959L89.5117 144.053L88.4825 143.602L87.3059 143.553Z" fill="#00212E" stroke="#00212E" stroke-width="0.5"/>
<path d="M139.477 39.6895L139.541 39.9521L140.043 40.6973L139.746 41.0817L139.813 42.1002L139.981 42.5251L140.253 43.2832L141.446 43.6825L141.837 44.4021L142.068 44.7587L142.507 44.9807L142.71 45.4932L143.3 45.8455L143.699 46.2406L143.588 47.5538L142.986 48.6919L142.764 49.0549L141.95 49.3837L140.714 49.6934L140.432 50.5432L140.906 50.8955L141.102 51.6365L140.669 52.5013L140.464 53.2486L139.556 54.0174L139.526 54.9035L139.001 54.5256L138.258 53.7739L134.229 54.043L129.982 54.201L126.672 54.265L123.356 54.2864L123.11 53.4088L123.213 52.5419L123.132 51.707L122.754 50.3083L122.512 49.7297L122.25 49.5716L122.224 48.4506L121.998 47.6477L121.342 46.7317L121.353 46.3303L121.127 45.5295L120.969 45.0448L120.975 44.6007L120.398 44.0583L120.691 43.264L120.881 42.4867L120.969 41.9593L120.518 41.3123L120.531 40.1272H121.001L124.868 40.1315L129.674 39.9969L134.837 39.8112L139.477 39.6895Z" fill="#00212E" stroke="#00212E" stroke-width="0.5"/>
<path d="M70.2852 30.892L70.3941 30.9988L68.3997 42.9159L57.7744 41.0027L47.1982 38.6581L49.2481 30.1767L49.8631 28.9019L49.7329 28.2186L49.1713 27.7489L49.3592 26.993L50.0894 26.0299L51.0375 25.2634L51.8746 23.8412L52.6091 22.7224L53.0896 22.18L53.0767 21.4177L52.607 20.9031L52.0368 19.8055L52.2632 18.9663L52.1308 18.1699L53.5999 11.5077L55.0241 5.39648L58.1331 6.10541L57.2619 11.2024L57.8299 12.6629L57.6378 13.5256L58.0734 14.4224L58.7268 15.0395L59.1132 15.8979L59.7111 17.572L60.4158 18.4453L61.4002 18.6952L60.8194 19.6817L60.2386 20.8753L60.2642 22.1629L59.8115 22.3914L59.5937 23.6234L60.0955 24.2192L60.8749 23.7857L61.3532 23.1814L61.7333 23.395L62.0045 24.1317L62.092 25.7203L62.5746 26.4356L62.5468 27.7275L62.6856 28.1161L63.3561 28.3681L63.6444 29.1432L64.0159 30.5013L64.7718 29.9546L65.8629 30.3369L66.0402 29.882L67.9214 30.5269L68.7349 30.5098L69.3883 29.6407L69.7364 29.8351L69.9563 30.5653L70.2852 30.892Z" fill="#00212E" stroke="#00212E" stroke-width="0.5"/>
<path d="M152.003 43.6851V43.6979L152.144 44.9534L153.35 47.4026L153.869 52.9929L154.386 58.5767L154.085 59.9582L154.426 60.2828L154.702 61.0878L154.734 61.7391L154.444 62.0615L154.243 62.8857L153.551 64.0089L153.132 65.352L153.096 66.3385L153.154 66.6951L152.778 67.404L153.145 67.8311L152.5 68.2411L151.663 68.7194L151.9 69.7614L151.426 70.2013L150.457 69.8297L149.409 69.6482L149.182 70.1372L149.387 70.8568L148.644 70.1586L148.236 70.3145L147.655 69.1635L147.745 68.429L147.376 67.2802L146.979 67.1649L145.902 66.172L145.467 66.1826L144.666 65.5506L144.081 64.8587L144.273 63.9939L144.581 63.2679L144.739 62.3626L143.97 61.6302L143.274 61.9868L142.832 61.8095L142.723 61.0045L142.356 60.1034L141.997 59.9027L141.096 59.3005L140.338 58.5169L139.667 57.5539L139.264 56.1232L139.526 54.904L139.556 54.0178L140.464 53.2491L140.669 52.5017L141.102 51.6369L140.906 50.896L140.432 50.5437L140.714 49.6938L141.95 49.3842L142.763 49.0554L142.986 48.6924L143.588 47.5542L143.699 46.241L143.299 45.846L142.71 45.4937L142.507 44.9812L142.067 44.7591L141.837 44.4025L145.494 44.1676L149.233 43.8922L151.992 43.6979L151.99 43.6851H152.003Z" fill="#00212E" stroke="#00212E" stroke-width="0.5"/>
<path d="M163.192 46.4818L163.718 50.8357L164.269 55.5184L164.657 58.8516L164.471 59.1057L164.896 60.0495L164.779 60.4253L164.147 60.5107L163.609 61.0061L162.697 60.9378L162.725 61.8709L162.234 62.2852L161.83 63.1692L161.309 63.3806L160.632 64.9052L159.814 64.5763L159.513 64.0126L158.952 65.0418L158.584 65.6226L157.707 65.1401L156.874 65.6867L156.631 66.1842L155.384 65.5629L154.613 66.1672L153.594 65.8832L153.603 66.4191L153.097 66.338L153.133 65.3515L153.552 64.0084L154.243 62.8852L154.444 62.061L154.734 61.7385L154.702 61.0873L154.427 60.2823L154.085 59.9577L154.386 58.5761L153.87 52.9923L153.351 47.4021L153.714 47.6968L154.942 47.5516L155.864 46.9238L159.752 46.5309L163.143 46.106L163.192 46.4818Z" fill="#00212E" stroke="#00212E" stroke-width="0.5"/>
<path d="M127.954 71.6015L124.546 71.6421L117.555 71.6186L110.561 71.4584L106.679 71.3111L102.802 71.1189L99.1504 70.9011L99.6266 63.8076L100.086 56.3618H100.092L106.592 56.7312L111.431 56.9255L119.997 57.0985H125.126L126.017 57.737L126.502 57.722L126.617 58.4224L126.1 59.3256L126.39 59.7826L126.867 60.7947L127.864 61.2389L127.902 66.4255L127.954 71.6015Z" fill="#00212E" stroke="#00212E" stroke-width="0.5"/>
<path d="M173.503 61.0256L173.642 61.4697L173.749 62.4669L174.312 63.1481L174.605 63.8463L175.254 64.3844L175.724 64.9054L176.48 64.8798L175.169 66.5389L174.056 67.2778L174.02 67.6792L173.687 68.2451L172.715 68.9689L172.436 69.4835L171.682 69.8935L170.603 70.3184L168.003 70.8245L164.561 71.0423L163.452 71.2324L161.21 71.3477L158.934 71.5505L156.839 71.7341L154.42 72.0971L154.275 71.8879L153.504 71.9669L153.583 72.7249L148.01 73.1242L148.847 72.552L149.434 72.1036L149.302 71.3498L149.387 70.8565L149.182 70.1369L149.408 69.648L150.457 69.8295L151.426 70.201L151.9 69.7611L151.663 68.7191L152.5 68.2408L153.145 67.8308L152.778 67.4037L153.154 66.6948L153.096 66.3382L153.602 66.4194L153.594 65.8834L154.612 66.1674L155.383 65.5631L156.63 66.1845L156.873 65.687L157.706 65.1403L158.584 65.6229L158.951 65.0421L159.513 64.0129L159.814 64.5766L160.632 64.9054L161.308 63.3808L161.829 63.1694L162.233 62.2854L162.724 61.8712L162.696 60.938L163.608 61.0064L164.146 60.511L164.778 60.4256L164.896 60.0498L164.471 59.106L164.657 58.8518L165.953 58.8027L166.674 59.1807L167.815 60.1352L168.656 60.3679L169.288 60.6775L170.166 60.4213L170.866 60.6049L171.635 60.227L172.335 60.0412L172.732 60.669L173.503 61.0256Z" fill="#00212E" stroke="#00212E" stroke-width="0.5"/>
<path d="M142.441 90.4692L142.749 90.7319L142.413 91.4536L143.063 92.4209L142.926 93.0316L143.505 93.8387L142.958 94.3683L142.817 95.2972L142.055 96.0979L141.732 97.1378L141.412 98.3314L140.927 98.9016L141.156 100.11L144.867 100.067L148.824 99.8261L148.76 100.644L148.535 101.462L148.845 102.06L149.439 102.587L149.646 103.384L149.759 103.862L149.411 105.929L150.952 108.767L145.055 109.345L141.354 108.538L138.837 107.641L135.561 107.129L131.854 107.088L131.487 106.45L131.903 105.722L132.525 105.06L132.512 104.084L132.194 103.766L132.533 102.589L132.79 102.053L133.148 100.257L132.758 99.6019L132.245 98.5044L131.861 97.3834L131.611 96.636L130.917 96.1022L130.552 90.9027L134.508 90.8066L138.976 90.4735L142.441 90.4692Z" fill="#00212E" stroke="#00212E" stroke-width="0.5"/>
<path d="M211.414 30.8367L212.084 33.3222L213.94 35.466L215.417 35.1628L214.557 33.5699L215.902 34.298L216.013 35.7094L213.873 37.1486L212.163 37.5351L211.866 36.8497L211.166 36.4675L210.566 35.3144L209.11 35.7714L205.828 36.5337L203.124 37.138L203.052 33.7065L205.93 33.0403L210.113 31.947L210.342 31.3854L210.982 30.8644L211.414 30.8367Z" fill="#00212E" stroke="#00212E" stroke-width="0.5"/>
<path d="M197.566 50.082L199.197 56.0395L201.67 55.4715L201.978 55.8495L200.921 57.799L200.071 58.0702L199.851 58.461L197.447 56.6289L196.503 53.1163L196.261 54.9142L197.21 58.9969L194.666 58.0723L194.308 57.4531L193.744 57.7862L193.195 57.6303L193.398 56.4858L193.938 55.9071L193.923 55.51L194.314 54.9868L193.74 54.5961L193.488 54.8865L192.689 54.5021L191.85 54.3783L192.014 53.8124L191.453 53.5562L190.878 53.5071L190.466 52.9604L189.881 52.3732L188.67 52.2237L188.034 52.7213L187.701 53.1526L186.578 53.1718L186.181 53.7633L185.485 54.09L184.953 54.7562L184.464 55.2879L184.052 52.8643L187.462 52.2259L188.623 51.9889L191.22 51.4444L194.352 50.8059L197.566 50.082Z" fill="#00212E" stroke="#00212E" stroke-width="0.5"/>
<path d="M211.696 29.6215L211.348 29.771L211.004 29.1645L210.178 28.6499L210.176 28.1524L207.338 19.75L208.472 18.5457L209.023 16.0773L208.948 12.1355L210.336 7.86274L211.771 8.77238L213.658 7.31396L215.501 8.21079L217.534 14.5591L220.521 16.4872L221.213 18.441L218.467 20.9543L215.565 23.0576L212.578 27.0015L211.696 29.6215Z" fill="#00212E" stroke="#00212E" stroke-width="0.5"/>
<path d="M161.166 22.8932L162.302 22.8996L161.939 23.4355L163.867 25.1459L160.95 25.968L160.835 25.9595L158.114 25.7673L155.58 27.0314L153.314 27.7062L151.604 30.9903L151.512 30.9646L151.51 30.9732L151 30.4415L151.181 29.6365L150.423 29.6621L150.508 28.8592L150.681 28.4492L150.318 27.7937L149.488 27.5567L149.231 26.773L148.565 26.7666L147.607 26.8392L145.584 26.1154L142.565 25.4491L142.236 24.5886L141.698 24.4626L141.694 24.4477L141.491 24.5609L141.459 24.5374L141.489 24.5587L144 23.1451L146.562 21.3622L149.357 19.498L148.514 22.165L150.464 22.6199L153.002 24.2491L155.868 22.8547L159.105 22.0519L159.972 23.3267L161.021 23.395L161.166 22.8932ZM170.892 38.9827L170.813 39.0596L169.536 41.9465L168.994 43.7402L168.024 45.7666L166.673 45.995L165.033 46.2107L163.192 46.4798L163.143 46.104L159.752 46.5289L155.864 46.9218L156.526 46.1787L157.734 43.674L157.489 40.4796L156 37.6161L155.96 35.547L156.613 33.0765L157.297 31.3554L158.539 30.0401L159.047 31.6266L159.372 29.1667L160.066 28.5838L160.318 26.6855L163.325 27.2876L166.1 28.8293L166.688 30.9817L166.681 33.2238L165.035 35.4146L165.377 36.604L166.077 36.5506L167.941 34.1292L169.297 34.4238L170.341 37.1186L170.813 39.0617L170.892 38.9827Z" fill="#00212E" stroke="#00212E" stroke-width="0.5"/>
<path d="M143.68 17.3734L143.678 17.3755L140.419 19.2098L138.171 21.2981L136.002 23.4697L136.023 24.1872L135.147 24.4968L135.295 27.2342H135.188L134.368 27.8065L133.659 28.3019L133.204 29.2158L133.956 30.1041L133.738 31.3383L133.783 32.6601L133.715 33.7341L134.763 34.6331L135.179 34.6608L136.335 35.3057L136.74 35.6175L137.009 36.1299L137.93 36.9243L139.151 37.5841L139.286 37.9791L139.356 39.1471L139.478 39.6895L134.838 39.8112L129.675 39.997L124.868 40.1315L121.001 40.1272L121.071 35.5833L120.676 30.9176L120.079 30.5333L119.745 29.7774L119.935 29.1176L120.704 28.5774L120.768 27.8684L120.775 26.9801L120.568 26.2371L120.29 25.4427L120.134 24.4477L120.102 23.333L119.991 23.064L119.867 21.6269L119.861 20.9671L119.801 20.3799L119.645 19.3849L119.254 18.3727L118.883 17.4695L118.838 16.5769L118.808 15.6139L118.928 14.9861L118.955 14.4139L118.661 13.7007L118.62 13.216L125.331 13.2352L125.321 11.3412L126.412 11.3027L127.023 14.0018L128.05 14.8196L130.334 15.0715L133.693 15.7484L136.937 17.1364L139.559 16.357L143.678 17.3734H143.68Z" fill="#00212E" stroke="#00212E" stroke-width="0.5"/>
<path d="M139.527 54.9035L139.264 56.1228L139.668 57.5534L140.339 58.5164L141.097 59.3001L141.998 59.9023L142.356 60.103L142.724 61.0041L142.833 61.8091L143.275 61.9863L143.971 61.6297L144.739 62.3621L144.581 63.2675L144.274 63.9935L144.082 64.8583L144.667 65.5501L145.468 66.1822L145.903 66.1715L146.979 67.1644L147.376 67.2797L147.746 68.4285L147.656 69.1631L148.237 70.314L148.645 70.1581L149.388 70.8564L149.303 71.3496L149.435 72.1034L148.848 72.5518L148.011 73.1241L147.942 73.5981L147.752 74.3049L147.53 75.5049L144.968 75.6736L145.179 75.1782L145.585 74.6273L145.993 74.0785L145.628 73.502L141.163 73.4657L137.039 73.6558L132.718 73.7924L127.964 73.8266L127.973 71.6016H127.954L127.903 66.4256L127.864 61.239L126.867 60.7948L126.391 59.7827L126.1 59.3257L126.617 58.4225L126.502 57.7221L126.017 57.7371L125.127 57.0986L124.635 56.0672L124.057 55.4501L123.431 54.6857L123.356 54.2864L126.673 54.265L129.982 54.201L134.229 54.043L138.259 53.7739L139.002 54.5256L139.527 54.9035Z" fill="#00212E" stroke="#00212E" stroke-width="0.5"/>
<path d="M153.829 79.9893L154.194 80.901L154.019 87.2322L153.951 95.041L154.703 102.457L152.2 103.762L149.759 103.862L149.646 103.384L149.439 102.587L148.845 102.06L148.536 101.462L148.76 100.644L148.824 99.8263L144.867 100.068L141.156 100.11L140.928 98.9017L141.412 98.3315L141.733 97.1379L142.055 96.098L142.817 95.2973L142.958 94.3684L143.505 93.8389L142.926 93.0317L143.063 92.421L142.414 91.4537L142.749 90.732L142.442 90.4693L142.587 89.5042L142.051 88.255L142.083 87.0998L142.873 85.3596L143.245 84.3367L143.917 83.6364L144.366 83.3331L144.823 82.005L144.795 81.3025L145.484 80.8968L145.536 80.5081L149.456 80.2348L153.829 79.9893Z" fill="#00212E" stroke="#00212E" stroke-width="0.5"/>
<path d="M95.2979 26.9653L94.7257 31.4024L88.9966 30.7875L82.8149 30.0849L77.4959 29.3056L70.7697 28.2892L70.3768 30.7319L70.285 30.8921L69.9561 30.5654L69.7362 29.8351L69.3881 29.6408L68.7347 30.5099L67.9212 30.527L66.04 29.8821L65.8627 30.3369L64.7716 29.9547L64.0157 30.5013L63.6441 29.1433L63.3559 28.3682L62.6854 28.1162L62.5466 27.7276L62.5744 26.4357L62.0918 25.7204L62.0042 24.1317L61.733 23.395L61.353 23.1815L60.8747 23.7858L60.0953 24.2193L59.5935 23.6235L59.8113 22.3914L60.264 22.163L60.2383 20.8754L60.8191 19.6817L61.3999 18.6952L60.4156 18.4454L59.7109 17.5721L59.113 15.898L58.7265 15.0396L58.0731 14.4225L57.6375 13.5257L57.8297 12.663L57.2617 11.2024L58.1329 6.10547L67.6201 8.06354L77.1692 9.70773L86.7674 11.038L96.404 12.0523L95.6524 21.0313L95.2979 26.9653Z" fill="#00212E" stroke="#00212E" stroke-width="0.5"/>
<path d="M200.648 65.1357L202.258 69.7416L200.569 73.8051L197.112 76.455L194.214 79.5384L192.862 80.0957L187.586 76.4144L183.2 77.134L183.117 76.5746L182.365 75.8678L182.021 76.25L181.921 75.8336L180.044 75.9126L176.408 76.4379L174.401 77.5739L174.027 77.7725L169.099 78.4045L169.054 77.3753L169.85 76.9632L170.053 76.4123L170.533 75.7546L171.313 75.5197L172.205 75.1717L173.042 74.6314L173.369 74.1531L174.059 73.662L173.988 73.3182L174.875 72.5239L175.253 72.8997L176.553 71.7787L177.238 71.7701L177.71 70.8733L178.466 70.5423L178.317 69.8654L178.319 69.2483L184.855 68.3622L192.512 66.9358L196.556 66.0582L200.648 65.1357Z" fill="#00212E" stroke="#00212E" stroke-width="0.5"/>
<path d="M118.62 13.216L118.66 13.7007L118.955 14.4139L118.927 14.9862L118.808 15.6139L118.837 16.577L118.882 17.4695L119.254 18.3727L119.645 19.3849L119.8 20.3799L119.86 20.9671L119.867 21.627L119.991 23.064L120.102 23.3331L120.134 24.4477L120.289 25.4427L120.567 26.2371L120.774 26.9802L120.768 27.8685L114.287 28.0286L108.757 27.8193L101.785 27.4499L95.2979 26.9652L95.6523 21.0312L96.4039 12.0522L107.599 12.8508L118.62 13.216Z" fill="#00212E" stroke="#00212E" stroke-width="0.5"/>
<path d="M120.969 45.0448L121.127 45.5295L121.353 46.3303L121.343 46.7317L121.998 47.6478L122.224 48.4506L122.25 49.5717L122.513 49.7297L122.754 50.3084L123.132 51.707L123.213 52.5419L123.111 53.4088L123.356 54.2864L123.431 54.6857L124.057 55.4502L124.635 56.0673L125.126 57.0986H119.997L111.43 56.9257L106.592 56.7314L100.092 56.3619H100.086L100.094 56.2061L100.417 51.5127L93.1074 50.9447L93.9359 41.2974L100.876 41.8376L106.214 42.1536L113.357 42.4355L114.262 43.0739L115.567 43.4925L115.878 43.2768L116.728 43.311L118.005 43.2832L118.921 43.9195L119.899 44.3338L120.059 44.7395L120.367 44.9744L120.969 45.0448Z" fill="#00212E" stroke="#00212E" stroke-width="0.5"/>
<path d="M211.695 29.6215L211.413 30.8365L210.982 30.8643L210.341 31.3853L210.113 31.9469L205.93 33.0401L205.524 32.6259L205.635 31.9447L205.392 30.6913L205.42 30.3689L205.24 29.2286L205.364 28.1909L205.533 27.7061L205.637 26.4848L205.511 25.7075L205.501 25.2207L206.09 24.8171L206.694 24.0655L206.667 23.4462L206.233 22.8419L206.272 21.4561L206.265 21.454L206.276 20.2048L207.337 19.75L210.175 28.1524L210.177 28.65L211.003 29.1646L211.347 29.771L211.695 29.6215Z" fill="#00212E" stroke="#00212E" stroke-width="0.5"/>
<path d="M202.945 42.6515L202.279 45.2438L203.229 45.2288L203.44 48.7713L201.651 53.0355L201.091 51.8889L200.229 51.8333L199.065 50.802L198.755 50.928L198.452 50.0418L198.879 49.4247L199.524 48.8204L199.716 48.466L200.429 47.6396L200.773 47.0161L199.349 46.0637L199.17 45.579L198.745 45.5235L198.585 44.7612L198.869 44.0864L198.533 43.5163L199.007 42.9675L199.381 41.7654L199.765 41.4536L202.945 42.6515Z" fill="#00212E" stroke="#00212E" stroke-width="0.5"/>
<path d="M95.4244 70.6175L95.245 73.0133L94.2671 85.6778L93.5624 94.7998L89.7231 94.4838L82.2837 93.7578L78.5704 93.3392L78.5662 93.7578L78.9399 94.5841L71.8229 93.6894L71.5005 95.6753L68.1758 95.2204L72.1026 68.0103L78.1263 68.8281L84.2205 69.5626L90.7908 70.2224L95.4244 70.6175Z" fill="#00212E" stroke="#00212E" stroke-width="0.5"/>
<path d="M57.774 41.0027L53.0145 64.7431L52.2735 68.5695L52.0749 68.6934L51.6735 69.366L51.1866 69.0713L50.5161 68.5823L49.7069 68.4158L49.3204 68.9453L49.5296 69.6671L49.3161 70.6878L49.2051 71.6252L49.2029 72.5946L48.7695 73.4765L43.5913 66.0541L38.2937 58.2112L32.9746 50.0757L36.769 36.0574L47.1936 38.671L47.1979 38.6582L57.774 41.0027Z" fill="#00212E" stroke="#00212E" stroke-width="0.5"/>
<path d="M203.052 33.7062L203.125 37.1377L203.836 40.7826L204.216 41.1115L203.559 41.7649L203.83 42.3072L208.694 40.3726L209.982 40.9769L205.365 43.693L203.087 44.276L202.946 42.651L199.766 41.4531L199.113 41.2567L198.432 41.0709L198.041 40.4388L198.013 39.8965L197.492 39.5676L196.553 39.0039L191.755 40.0652L186.594 41.1349L181.05 42.1855L180.815 40.8915L183.32 37.4857L183.166 37.0416L183.164 37.0288L182.425 35.7412L184.127 34.7931L186.895 34.4258L189.822 34.2272L192.077 32.0962L191.464 30.294L190.911 29.6406L190.896 29.6363L190.898 29.6342L190.913 29.6406L193.7 25.6091L195.017 24.3792L200.11 23.0938L200.285 24.0675L200.304 24.7102L200.742 26.0896L201.112 26.7622L201.018 27.8235L201.643 28.9765L201.598 29.7153L201.707 29.8776L202.207 29.7879L203.052 33.7062Z" fill="#00212E" stroke="#00212E" stroke-width="0.5"/>
<path d="M179.461 49.1554L178.998 49.4799L179.256 50.0607L179.273 51.1903L179.107 52.4971L178.923 53.5883L178.945 54.0901L178.12 55.3478L177.73 55.651L177.251 55.8666L176.786 55.8325L176.087 56.7869L176.073 57.6731L176.03 58.1578L175.727 58.3991L175.596 57.8738L175.073 57.8354L174.706 58.9543L174.808 60.0241L174.42 60.7629L173.504 61.0255L172.733 60.6689L172.336 60.0412L171.635 60.2269L170.867 60.6049L170.166 60.4212L169.289 60.6775L168.657 60.3679L167.815 60.1351L166.675 59.1806L165.953 58.8027L164.657 58.8518L164.269 55.5186L163.718 50.8359L163.192 46.482L165.033 46.2129L166.673 45.9973L168.025 45.7666V45.7688L170.388 46.4457L172.223 46.4243L174.732 45.3802L176.641 43.7103L178.37 42.7559L179.461 49.1554Z" fill="#00212E" stroke="#00212E" stroke-width="0.5"/>
<path d="M127.964 73.8266L128.829 78.9363L128.825 83.6554L128.78 87.9046L127.021 86.9779L125.88 86.474L124.962 86.8092L123.538 86.7644L122.694 86.7729L122 87.1679L121.321 87.3687L120.728 87.1274L119.372 87.3815L118.766 86.5658L118.125 87.2598L117.023 86.9309L115.902 86.1579L114.676 86.6192L114.172 85.4383L112.289 85.5045L111.095 85.2077L109.755 84.817L109.193 83.7899L108.123 84.0739L107.485 83.6511L106.549 83.0895L106.754 78.4644L106.962 73.7219L103.054 73.5276L99.1463 73.2927L95.2451 73.013L95.4245 70.6172L99.1506 70.9012L102.802 71.119L106.68 71.3112L110.562 71.4585L117.555 71.6186L124.546 71.6421L127.954 71.6016H127.973L127.964 73.8266Z" fill="#00212E" stroke="#00212E" stroke-width="0.5"/>
<path d="M52.0364 19.8055L52.6066 20.9031L53.0763 21.4177L53.0891 22.18L52.6087 22.7224L51.8742 23.8413L51.0371 25.2634L50.089 26.0299L49.3588 26.993L49.1709 27.7489L49.7324 28.2186L49.8627 28.9019L49.2477 30.1767L47.1978 38.6581L47.1936 38.6709L36.769 36.0573L22.1528 31.7056L21.8838 28.7589L24.5145 24.1359L26.4213 18.9877L29.2421 12.1611L29.9318 12.3085L30.9119 12.6416L31.5674 13.3099L32.4279 13.8672L32.761 14.9434L32.6094 15.7527L32.6543 16.4809L33.3589 16.8866L34.1703 17.1129L35.586 16.9912L36.374 17.0574L37.4907 17.5955L37.9391 17.9884L38.6758 18.0161L39.5321 17.8453L41.0012 18.3172L42.3656 18.1272L43.1109 17.9158L43.8967 18.345L45.2077 18.1592L52.0364 19.8055Z" fill="#00212E" stroke="#00212E" stroke-width="0.5"/>
<path d="M199.766 41.4531L199.382 41.7649L199.008 42.967L198.534 43.5158L198.869 44.0859L198.585 44.7607L198.745 45.523L199.17 45.5785L199.349 46.0632L200.774 47.0156L200.43 47.6391L199.717 48.4654L199.525 48.8199L198.88 49.4242L198.041 49.3601L197.761 49.6463L197.567 50.0819L194.353 50.8057L191.22 51.4442L188.624 51.9887L187.462 52.2257L184.052 52.8642L180.217 53.5475L179.461 49.1551L178.37 42.7556L180.809 40.9001L180.815 40.8915L181.05 42.1855L186.593 41.1349L191.754 40.0652L196.552 39.0039L197.492 39.5676L198.013 39.8965L198.041 40.4388L198.431 41.0709L199.112 41.2567L199.766 41.4531Z" fill="#00212E" stroke="#00212E" stroke-width="0.5"/>
<path d="M212.163 37.5352L209.808 39.064L209.835 38.321L209.109 35.7714L210.566 35.3145L211.166 36.4675L211.866 36.8497L212.163 37.5352Z" fill="#00212E" stroke="#00212E" stroke-width="0.5"/>
<path d="M192.862 80.0961L191.933 83.7496L188.959 87.3625L185.124 90.5356L184.381 90.4053L183.975 90.29L183.832 89.374L183.281 88.5391L182.438 88.1376L182.521 87.7618L182.194 87.2685L181.729 86.218L180.283 85.4535L179.634 84.3837L178.56 83.7496L178.193 83.1944L176.625 82.2655L176.023 81.484L175.06 80.0726L174.328 79.8804L173.143 79.2334L173.649 78.2341L174.027 77.7728L174.4 77.5743L176.407 76.4383L180.044 75.913L181.921 75.834L182.021 76.2504L182.365 75.8682L183.117 76.5749L183.2 77.1344L187.586 76.4148L192.862 80.0961Z" fill="#00212E" stroke="#00212E" stroke-width="0.5"/>
<path d="M121.001 40.1271H120.531L120.518 41.3122L120.969 41.9592L120.881 42.4866L120.691 43.2639L120.398 44.0582L120.975 44.6006L120.969 45.0447L120.366 44.9743L120.059 44.7394L119.899 44.3337L118.921 43.9194L118.005 43.2831L116.728 43.3109L115.878 43.2767L115.566 43.4924L114.262 43.0738L113.356 42.4354L106.214 42.1535L100.875 41.8375L93.9355 41.2973L94.7256 31.4023L95.2979 26.9651L101.785 27.4498L108.757 27.8192L114.287 28.0285L120.768 27.8683L120.704 28.5772L119.935 29.1175L119.745 29.7773L120.078 30.5332L120.676 30.9175L121.071 35.5832L121.001 40.1271Z" fill="#00212E" stroke="#00212E" stroke-width="0.5"/>
<path d="M170.604 70.3183L176.375 69.6478L178.319 69.2485L178.316 69.8656L178.466 70.5425L177.71 70.8735L177.238 71.7703L176.553 71.7789L175.252 72.8999L174.874 72.5241L173.988 73.3184L174.059 73.6622L173.369 74.1533L173.042 74.6316L172.205 75.1719L171.313 75.5199L170.533 75.7548L170.053 76.4125L169.85 76.9634L169.053 77.3755L169.098 78.4047L166.991 78.7207L163.929 79.041L158.825 79.5258L153.829 79.9891L149.456 80.2347L145.535 80.508L145.96 80.0276L145.821 78.6225L146.406 77.9456L146.505 77.1342L147.164 76.6175L147.517 75.9086L147.53 75.505L147.752 74.3049L147.942 73.5982L148.01 73.1241L153.583 72.7248L153.504 71.9668L154.275 71.8878L154.42 72.097L156.839 71.734L158.934 71.5504L161.21 71.3475L163.453 71.2322L164.561 71.0422L168.003 70.8244L170.604 70.3183Z" fill="#00212E" stroke="#00212E" stroke-width="0.5"/>
<path d="M128.779 87.9048L128.999 88.2187L129.787 88.1397H130.729L130.552 90.9028L130.917 96.1022L131.611 96.6361L131.861 97.3834L132.245 98.5045L132.757 99.602L133.148 100.258L132.789 102.053L132.533 102.589L132.194 103.766L132.512 104.084L132.525 105.06L131.903 105.722L131.487 106.45L131.854 107.088L128.22 108.186L124.334 111.859L120.018 113.973L117.614 116.298L116.574 118.499L116.48 121.903L116.666 124.28L117.492 125.977L115.741 126.099L112.585 124.944L109.149 123.308L107.986 120.944L107.146 117.457L104.682 114.545L103.318 111.598L101.334 108.13L98.4344 106.006L94.9432 105.867L91.9559 109.527L88.5159 107.765L86.4404 106.091L85.6376 103.311L84.4866 100.633L82.2168 98.2397L80.2545 96.4759L78.9391 94.584L78.5654 93.7577L78.5697 93.3392L82.283 93.7577L89.7224 94.4837L93.5617 94.7997L94.2663 85.6777L95.2443 73.0132L99.1455 73.2929L103.053 73.5278L106.961 73.7221L106.754 78.4646L106.549 83.0897L107.484 83.6513L108.122 84.0741L109.192 83.7901L109.754 84.8172L111.095 85.2079L112.288 85.5047L114.172 85.4385L114.676 86.6193L115.901 86.1581L117.022 86.9311L118.124 87.2599L118.765 86.566L119.371 87.3816L120.727 87.1276L121.321 87.3688L122 87.1681L122.694 86.7731L123.537 86.7645L124.961 86.8094L125.88 86.4741L127.02 86.9781L128.779 87.9048Z" fill="#00212E" stroke="#00212E" stroke-width="0.5"/>
<path d="M74.8439 48.8246L72.1021 68.0103L66.5354 67.1241L59.1814 65.8515L53.0146 64.7433L57.7742 41.0029L68.3995 42.9162L67.6052 47.569L74.8439 48.8246Z" fill="#00212E" stroke="#00212E" stroke-width="0.5"/>
<path d="M190.878 53.5073L191.451 53.5586L192.014 53.8127L191.848 54.3785L192.687 54.5024L193.488 54.8867L193.88 55.2284L193.921 55.5102L193.936 55.9074L193.398 56.4861L193.195 57.6306L193.744 57.7843L194.308 57.4512L194.666 58.0726L197.598 60.2122L198.824 62.3133L198.898 62.4414L200.649 65.1341L196.558 66.0565L192.516 66.9341L184.857 68.3605L178.321 69.2488L176.377 69.6481L170.604 70.3186L171.684 69.8915L172.438 69.4815L172.715 68.9648L173.687 68.2431L174.022 67.6772L174.058 67.2758L175.171 66.537L176.48 64.8757L176.777 65.6615L177.274 66.0266L177.917 66.3192L179.029 65.5483L179.544 65.8088L180.902 65.1725L180.913 64.7305L181.372 64.8266L181.784 64.3974L182.326 64.3739L182.867 63.8999L182.873 63.4493L182.709 62.9091L183.076 61.993L183.695 61.2414L183.755 60.5047L184.246 59.5417L184.417 58.4399L184.981 58.7175L185.6 58.9545L186.104 58.6705L186.202 58.2029L186.458 57.543L186.744 56.7893L187.052 56.9366L187.485 56.217L188.092 55.4547L188.459 54.8931L188.502 53.5714L190.643 54.481L190.878 53.5073ZM199.281 61.9396L199.667 62.0507L200.923 57.7993L200.071 58.0705L199.851 58.4591L199.281 61.9396Z" fill="#00212E" stroke="#00212E" stroke-width="0.5"/>
<path d="M205.93 33.0403L203.052 33.7065L202.206 29.7882L201.707 29.8779L201.598 29.7156L201.643 28.9768L201.017 27.8237L201.111 26.7625L200.741 26.0899L200.304 24.7104L200.284 24.0677L200.109 23.094L206.265 21.4541L206.272 21.4562L206.233 22.8421L206.667 23.4463L206.695 24.0656L206.09 24.8172L205.501 25.2208L205.512 25.7076L205.638 26.4849L205.533 27.7063L205.364 28.191L205.241 29.2287L205.42 30.369L205.392 30.6914L205.636 31.9449L205.525 32.626L205.93 33.0403Z" fill="#00212E" stroke="#00212E" stroke-width="0.5"/>
<path d="M55.0239 5.39649L53.5996 11.5077L52.1305 18.1699L52.2629 18.9664L52.0366 19.8055L45.2079 18.1592L43.8968 18.345L43.111 17.9158L42.3658 18.1272L41.0013 18.3172L39.5322 17.8453L38.676 18.0161L37.9393 17.9884L37.4909 17.5955L36.3741 17.0574L35.5862 16.9912L34.1705 17.1129L33.3591 16.8866L32.6544 16.4809L32.6096 15.7527L32.7612 14.9434L32.4281 13.8672L31.5675 13.3099L30.912 12.6416L29.9319 12.3085L29.2422 12.1611L29.6052 8.00797L30.5298 3.34873L34.6445 5.58013L34.9328 9.68418L36.0944 8.68059L36.7414 4.67262L36.4382 0.340088L45.6883 3.0263L55.0239 5.39649Z" fill="#00212E" stroke="#00212E" stroke-width="0.5"/>
<path d="M141.459 24.5391L141.491 24.5626L141.692 24.4473L141.696 24.4623L142.236 24.5904L142.565 25.4509L145.582 26.115L147.607 26.8389L148.563 26.7684L149.23 26.7748L149.486 27.5584L150.319 27.7955L150.682 28.451L150.509 28.861L150.423 29.6639L151.181 29.6382L151 30.4432L151.51 30.9749L151.512 30.9664L151.604 30.992L151.576 31.0411L150.383 32.9138L150.904 33.4455L153.141 30.0824L153.656 30.0141L152.228 33.9195L151.753 37.368L151.333 40.1674L151.991 42.497L152.003 43.6843H151.991L151.993 43.6971L149.234 43.8914L145.495 44.1669L141.837 44.4017L141.446 43.6821L140.253 43.2828L139.982 42.5248L139.813 42.0999L139.747 41.0813L140.043 40.697L139.542 39.9518L139.478 39.6891L139.356 39.1468L139.285 37.9787L139.151 37.5837L137.93 36.9239L137.009 36.1296L136.74 35.6171L136.334 35.3053L135.179 34.6605L134.763 34.6327L133.714 33.7338L133.783 32.6597L133.738 31.3379L133.956 30.1037L133.204 29.2154L133.659 28.3015L134.368 27.8061L135.188 27.2339H135.295L135.147 24.4964L136.023 24.1868L139.335 23.0017L141.459 24.5391Z" fill="#00212E" stroke="#00212E" stroke-width="0.5"/>
<path d="M184.052 52.8643L184.464 55.2879L184.953 54.7562L185.485 54.09L186.181 53.7633L186.578 53.1718L187.702 53.1526L188.035 52.7212L188.671 52.2237L189.882 52.3732L190.467 52.9604L190.879 53.507L190.646 54.4829L188.504 53.5732L188.462 54.895L188.094 55.4566L187.488 56.2189L187.055 56.9385L186.747 56.7911L186.459 57.5428L186.203 58.2047L186.104 58.6702L185.603 58.9542L184.981 58.7172L184.417 58.4396L184.247 59.5414L183.755 60.5044L183.696 61.2411L183.079 61.9927L182.709 62.9088L182.869 63.4576L182.863 63.9081L182.325 64.3821L181.782 64.4056L181.37 64.8348L180.911 64.7366L180.901 65.1786L179.543 65.8149L179.028 65.5523L177.915 66.3231L177.275 66.0306L176.775 65.6655L176.481 64.8797L175.725 64.9053L175.255 64.3843L174.606 63.8462L174.313 63.1479L173.749 62.4668L173.643 61.4696L173.504 61.0254L174.42 60.7628L174.809 60.024L174.706 58.9542L175.073 57.8353L175.597 57.8737L175.727 58.399L176.03 58.1577L176.073 57.673L176.088 56.7869L176.786 55.8324L177.251 55.8665L177.73 55.6509L178.12 55.3477L178.945 54.09L178.923 53.5882L179.107 52.497L179.273 51.1902L179.256 50.0606L178.998 49.4798L179.461 49.1553L180.217 53.5476L184.052 52.8643Z" fill="#00212E" stroke="#00212E" stroke-width="0.5"/>
<path d="M94.726 31.4023L93.9359 41.2973L93.1074 50.9447L89.4454 50.6009L82.1362 49.7937L78.4891 49.3282L74.8442 48.8243L67.6055 47.5687L68.3998 42.9159L70.3942 30.9988L70.2853 30.892L70.3771 30.7319L70.77 28.2891L77.4962 29.3055L82.8153 30.0849L88.997 30.7874L94.726 31.4023Z" fill="#00212E" stroke="#00212E" stroke-width="0.5"/>
</svg>
