<svg width="53" height="41" viewBox="0 0 53 41" fill="none" xmlns="http://www.w3.org/2000/svg">
<path d="M13.9083 0C13.9083 2.58548 11.8122 4.68139 9.22671 4.68139C9.1304 4.68139 9.03434 4.68139 8.93858 4.68139C6.19385 4.68139 3.96881 6.9044 3.96881 9.64913C3.96881 13.5047 3.96881 18.4301 3.96881 19.8788" stroke="#40B3C2" stroke-width="1.2"/>
<path d="M38.5137 0C38.5137 0.317188 38.5137 0.636762 38.5137 0.954305C38.5137 3.69897 41.0651 5.92381 43.8098 5.92381C46.5545 5.92381 48.4531 8.14791 48.4531 10.8926C48.4531 14.3182 48.4531 18.4939 48.4531 19.8788" stroke="#6EC259" stroke-width="1.2"/>
<path d="M31.0586 0C31.0586 1.20897 31.0586 3.10063 31.0586 4.90617C31.0586 7.65082 33.6101 9.87553 36.3547 9.87553C39.0994 9.87553 40.9979 12.0988 40.998 14.8434C40.998 19.4281 40.998 25.7574 40.998 27.3333" stroke="#DB8B4C" stroke-width="1.2"/>
<path d="M20.3633 0C20.3633 2.38507 20.3633 6.54147 20.3633 9.84564C20.3632 12.5903 17.8118 14.8133 15.0672 14.8133C12.3225 14.8133 10.4239 17.0354 10.4239 19.78C10.4239 24.0932 10.4239 29.9985 10.4239 32.303" stroke="#C94FB3" stroke-width="1.2"/>
<path d="M26.0899 0C26.0898 6.16947 26.0898 28.6184 26.0898 34.7879" stroke="#00212E"/>
<rect x="25.7109" y="32.7077" width="5.57746" height="5.57746" transform="rotate(45 25.7109 32.7077)" fill="#00212E" stroke="white" stroke-width="0.57223"/>
<rect x="41.3789" y="22.7683" width="5.57746" height="5.57746" transform="rotate(45 41.3789 22.7683)" fill="#DB8B4C" stroke="white" stroke-width="0.57223"/>
<rect x="10.0469" y="27.738" width="5.57746" height="5.57746" transform="rotate(45 10.0469 27.738)" fill="#C94FB3" stroke="white" stroke-width="0.57223"/>
<rect x="4.34766" y="16.5561" width="5.57746" height="5.57746" transform="rotate(45 4.34766 16.5561)" fill="#40B3C2" stroke="white" stroke-width="0.57223"/>
<rect x="47.832" y="14.0713" width="5.57746" height="5.57746" transform="rotate(45 47.832 14.0713)" fill="#6EC259" stroke="white" stroke-width="0.57223"/>
</svg>
