<svg width="46" height="46" viewBox="0 0 46 46" fill="none" xmlns="http://www.w3.org/2000/svg">
<path d="M37.375 7.54688H8.625C7.57657 7.54688 6.57107 7.96336 5.82972 8.70472C5.08836 9.44607 4.67188 10.4516 4.67188 11.5V31.625C4.67188 32.6734 5.08836 33.6789 5.82972 34.4203C6.57107 35.1616 7.57657 35.5781 8.625 35.5781H21.9219V39.1719H17.25C16.9641 39.1719 16.6898 39.2855 16.4877 39.4876C16.2855 39.6898 16.1719 39.9641 16.1719 40.25C16.1719 40.5359 16.2855 40.8102 16.4877 41.0124C16.6898 41.2145 16.9641 41.3281 17.25 41.3281H28.75C29.0359 41.3281 29.3102 41.2145 29.5124 41.0124C29.7145 40.8102 29.8281 40.5359 29.8281 40.25C29.8281 39.9641 29.7145 39.6898 29.5124 39.4876C29.3102 39.2855 29.0359 39.1719 28.75 39.1719H24.0781V35.5781H37.375C38.4234 35.5781 39.4289 35.1616 40.1703 34.4203C40.9116 33.6789 41.3281 32.6734 41.3281 31.625V11.5C41.3281 10.4516 40.9116 9.44607 40.1703 8.70472C39.4289 7.96336 38.4234 7.54688 37.375 7.54688ZM8.625 9.70312H37.375C37.8516 9.70312 38.3086 9.89244 38.6456 10.2294C38.9826 10.5664 39.1719 11.0234 39.1719 11.5V26.2344H6.82812V11.5C6.82812 11.0234 7.01744 10.5664 7.35442 10.2294C7.6914 9.89244 8.14844 9.70312 8.625 9.70312ZM37.375 33.4219H8.625C8.14844 33.4219 7.6914 33.2326 7.35442 32.8956C7.01744 32.5586 6.82812 32.1016 6.82812 31.625V28.3906H39.1719V31.625C39.1719 32.1016 38.9826 32.5586 38.6456 32.8956C38.3086 33.2326 37.8516 33.4219 37.375 33.4219Z" fill="#40B3C2"/>
</svg>
